<svg id="b82ad4d6-e8ed-4042-aa14-e9df3c39cbe0" data-name="Calque 1" xmlns="http://www.w3.org/2000/svg" width="32" height="32" viewBox="0 0 32 32">
  <title>vegetal-42-IconeChene</title>
  <circle cx="14.59" cy="4.93" r="4.28" style="fill: #7fa349;stroke: #7fa349;stroke-miterlimit: 10;stroke-width: 0.991841912269592px"/>
  <circle cx="9.26" cy="9.62" r="4.28" style="fill: #7fa349;stroke: #7fa349;stroke-miterlimit: 10;stroke-width: 0.991841912269592px"/>
  <circle cx="17.42" cy="16.14" r="4.28" style="fill: #7fa349;stroke: #7fa349;stroke-miterlimit: 10;stroke-width: 0.991841912269592px"/>
  <circle cx="19.09" cy="6.96" r="4.5" style="fill: #7fa349;stroke: #7fa349;stroke-miterlimit: 10;stroke-width: 0.991841912269592px"/>
  <circle cx="21.79" cy="13.2" r="4.28" style="fill: #7fa349;stroke: #7fa349;stroke-miterlimit: 10;stroke-width: 0.991841912269592px"/>
  <circle cx="11.32" cy="16.14" r="4.28" style="fill: #7fa349;stroke: #7fa349;stroke-miterlimit: 10;stroke-width: 0.991841912269592px"/>
  <path d="M19.72,27.88a32.83,32.83,0,0,1-.79-6.18,5.79,5.79,0,0,1-1.51.21,5.61,5.61,0,0,1-3.05-.9,5.56,5.56,0,0,1-1.07.52A24.67,24.67,0,0,1,12.43,28c-1.13,3.34-2.12,3.41-2.12,3.41C14,31.14,15,30.08,15,30.08L18.36,32l-1.18-2.39a12.85,12.85,0,0,0,2.33,1.52,5.42,5.42,0,0,0,3.77.8S20.4,29.85,19.72,27.88Z" style="fill: #ac7152"/>
  <circle cx="15.6" cy="10.5" r="4.28" style="fill: #7fa349;stroke: #7fa349;stroke-miterlimit: 10;stroke-width: 0.991841912269592px"/>
</svg>
