<svg id="e23dae37-d641-4d95-b7ea-17f3b2d78a61" data-name="Calque 1" xmlns="http://www.w3.org/2000/svg" width="32" height="32" viewBox="0 0 32 32">
  <title>sign-60-22C09E0E</title>
  <path d="M16,32a.7.7,0,0,1-.47-.19L.2,16.47A.63.63,0,0,1,0,16a.65.65,0,0,1,.2-.47L15.53.2a.66.66,0,0,1,.94,0L31.81,15.53a.68.68,0,0,1,0,.94L16.47,31.81A.67.67,0,0,1,16,32ZM1.61,16,16,30.39,30.39,16,16,1.61Z" style="fill: #d10000"/>
  <path d="M11.61,13a3.24,3.24,0,0,1,.53-1.69,4.18,4.18,0,0,1,1.57-1.42,5,5,0,0,1,2.4-.56,5.17,5.17,0,0,1,2.25.47,3.66,3.66,0,0,1,1.51,1.28,3.16,3.16,0,0,1,.53,1.76,2.67,2.67,0,0,1-.31,1.31,4.15,4.15,0,0,1-.72,1c-.28.27-.78.73-1.5,1.37-.19.18-.36.34-.48.48a1.84,1.84,0,0,0-.26.38,1.63,1.63,0,0,0-.14.34c0,.12-.08.32-.14.6a1,1,0,0,1-1.05.92,1.08,1.08,0,0,1-.77-.3,1.18,1.18,0,0,1-.31-.89,3.16,3.16,0,0,1,.83-2.23c.26-.27.6-.59,1-1s.65-.57.82-.74a2.93,2.93,0,0,0,.42-.56,1.39,1.39,0,0,0,.17-.67,1.56,1.56,0,0,0-.52-1.18,1.89,1.89,0,0,0-1.35-.49,1.9,1.9,0,0,0-1.43.49,4,4,0,0,0-.77,1.44c-.2.66-.58,1-1.13,1a1.07,1.07,0,0,1-.83-.35A1,1,0,0,1,11.61,13Zm4.29,9.64a1.4,1.4,0,0,1-.94-.35,1.21,1.21,0,0,1-.4-1,1.24,1.24,0,0,1,.39-.93,1.27,1.27,0,0,1,1-.38,1.23,1.23,0,0,1,.93.38,1.27,1.27,0,0,1,.38.93,1.22,1.22,0,0,1-.4,1A1.31,1.31,0,0,1,15.9,22.66Z"/>
</svg>
