<svg id="b02d70e8-93e8-4d4e-942d-049c5abb96c9" data-name="Calque 1" xmlns="http://www.w3.org/2000/svg" width="32" height="32" viewBox="0 0 32 32">
  <title>vehicles-25-IconeRepriseRealiser</title>
  <g>
    <path d="M25.28,30.49A6.72,6.72,0,1,1,32,23.77a6.73,6.73,0,0,1-6.72,6.72" style="fill: #ffa400"/>
    <polygon points="26.2 19.24 24.6 19.24 24.6 23.65 21.39 23.65 25.4 27.66 29.41 23.65 26.2 23.65 26.2 19.24" style="fill: #fff"/>
  </g>
  <g>
    <path d="M10.89,8.56H13l0,0h2.49l-.82-6-5.46,0-.05.1-.75,5.9h2.48ZM10.15,8A1.94,1.94,0,0,1,12,6.55,1.92,1.92,0,0,1,13.86,8Z" style="fill: none"/>
    <path d="M12,6.55A1.94,1.94,0,0,0,10.15,8h3.71A1.92,1.92,0,0,0,12,6.55Z" style="fill: #707173"/>
    <path d="M10.89,8.56l0,0H8.43v.05a2.3,2.3,0,0,1,.26,0Z" style="fill: #e1001a"/>
    <path d="M13,8.56h2.21a2.06,2.06,0,0,1,.26,0V8.54H13Z" style="fill: #e1001a"/>
    <path d="M15.13,12.12H8.8a1,1,0,0,0-1,1v5.56a1,1,0,0,0,1,1h6.33a1,1,0,0,0,1-1V13.12A1,1,0,0,0,15.13,12.12ZM11,16.86H9v-1.5h2Zm4,0H13v-1.5h2Z" style="fill: #464d50"/>
    <rect x="8.98" y="15.36" width="1.97" height="1.5" style="fill: #fff"/>
    <rect x="12.98" y="15.36" width="1.97" height="1.5" style="fill: #fff"/>
    <path d="M22,8.54H17l-.78-6A1.54,1.54,0,0,0,14.69,1H9.23A1.52,1.52,0,0,0,7.69,2.45L6.92,8.54h-5a1.06,1.06,0,0,0-1,1.05v.63H5.42a1.32,1.32,0,0,1,1.42.87v9.09A1.85,1.85,0,0,0,8.68,22h6.57a1.85,1.85,0,0,0,1.59-.93c.07-.26.15-.52.24-.77,0-.05,0-.09,0-.14V11.09a1.32,1.32,0,0,1,1.42-.87h4.56V9.59A1,1,0,0,0,22,8.54ZM9.18,2.64l.05-.1,5.46,0,.82,6v.05a2.06,2.06,0,0,0-.26,0H8.68a2.3,2.3,0,0,0-.26,0V8.54Zm7,16a1,1,0,0,1-1,1H8.8a1,1,0,0,1-1-1V13.12a1,1,0,0,1,1-1h6.33a1,1,0,0,1,1,1Z" style="fill: #e1001a"/>
    <path d="M17.61,5.6a.71.71,0,0,0,.71-.7V3.38a.71.71,0,0,0-1.41,0V4.9A.71.71,0,0,0,17.61,5.6Z" style="fill: #707173"/>
    <path d="M6.31,5.6A.71.71,0,0,0,7,4.9V3.38a.71.71,0,0,0-1.41,0V4.9A.71.71,0,0,0,6.31,5.6Z" style="fill: #707173"/>
    <path d="M3,14.44,5.45,12l.13.13a1.19,1.19,0,0,0-.74-.79L3.58,12.6,3,12l.77-.77H1.86a.58.58,0,0,0-.19,0L3.35,13l-.57.57L1,11.73a1.19,1.19,0,0,0-.26.71v.74L.91,13l2.44,2.44L2.78,16,.69,13.86v1.72l.22-.23,2.44,2.44-.57.57L.69,16.26V18l.22-.23,2.44,2.44-.57.57L.69,18.66v1.72l.22-.23,2.44,2.44-.57.57L.69,21.06v1.72l.22-.23L3.35,25l-.09.09H4.47a1.18,1.18,0,0,0,1.17-1.17V22.54L3.58,24.6,3,24,5.45,21.6l.19.19V20.14L3.58,22.2,3,21.64,5.45,19.2l.19.19V17.74L3.58,19.8,3,19.24,5.45,16.8l.19.19V15.34L3.58,17.4,3,16.84,5.45,14.4l.19.19V12.94L3.58,15Z" style="fill: #707173"/>
    <path d="M.69,23.91a1.18,1.18,0,0,0,1.17,1.17h.45L.69,23.46Z" style="fill: #707173"/>
    <path d="M3.35,13,1.67,11.31a1.14,1.14,0,0,0-.72.42l1.83,1.83Z" style="fill: #464d50"/>
    <polygon points="3.35 15.39 0.91 12.95 0.69 13.18 0.69 13.86 2.79 15.96 3.35 15.39" style="fill: #464d50"/>
    <polygon points="3.35 17.79 0.91 15.35 0.69 15.58 0.69 16.26 2.79 18.36 3.35 17.79" style="fill: #464d50"/>
    <polygon points="3.35 20.19 0.91 17.75 0.69 17.98 0.69 18.66 2.79 20.76 3.35 20.19" style="fill: #464d50"/>
    <polygon points="3.35 22.59 0.91 20.15 0.69 20.38 0.69 21.06 2.79 23.16 3.35 22.59" style="fill: #464d50"/>
    <polygon points="0.91 22.55 0.69 22.78 0.69 23.46 2.31 25.08 3.26 25.08 3.35 24.99 0.91 22.55" style="fill: #464d50"/>
    <path d="M5.45,12,3,14.44l.57.56,2.06-2.06v-.5a1.07,1.07,0,0,0-.06-.31Z" style="fill: #464d50"/>
    <path d="M3.58,12.6l1.26-1.26a1.16,1.16,0,0,0-.37-.07H3.78L3,12Z" style="fill: #464d50"/>
    <polygon points="3.02 16.84 3.58 17.4 5.64 15.34 5.64 14.59 5.45 14.4 3.02 16.84" style="fill: #464d50"/>
    <polygon points="3.02 19.24 3.58 19.8 5.64 17.74 5.64 16.99 5.45 16.8 3.02 19.24" style="fill: #464d50"/>
    <polygon points="3.02 21.64 3.58 22.2 5.64 20.14 5.64 19.39 5.45 19.2 3.02 21.64" style="fill: #464d50"/>
    <polygon points="3.02 24.04 3.58 24.6 5.64 22.54 5.64 21.79 5.45 21.6 3.02 24.04" style="fill: #464d50"/>
    <path d="M19.72,16.56a9,9,0,0,1,2.68-1.51l.65-.65.19.19v.21h0V12.44h0v.5L21.18,15l-.57-.56L23.05,12l.13.13a1.19,1.19,0,0,0-.74-.79L21.18,12.6,20.61,12l.77-.77H19.46a.58.58,0,0,0-.19,0L21,13l-.57.57-1.83-1.83a1.19,1.19,0,0,0-.26.71v.74l.22-.23L21,15.39l-.57.57-2.09-2.1v1.72l.22-.23Z" style="fill: #707173"/>
    <path d="M18.52,17.76a7.57,7.57,0,0,1,.61-.66l-.84-.84V18l.22-.23Z" style="fill: #707173"/>
    <path d="M21,13l-1.68-1.68a1.14,1.14,0,0,0-.72.42l1.83,1.83Z" style="fill: #464d50"/>
    <polygon points="20.95 15.39 18.51 12.95 18.29 13.18 18.29 13.86 20.39 15.96 20.95 15.39" style="fill: #464d50"/>
    <path d="M19.72,16.56l-1.21-1.21-.22.23v.68l.84.84A7.55,7.55,0,0,1,19.72,16.56Z" style="fill: #464d50"/>
    <path d="M18.51,17.75l-.22.23v.1l.23-.32Z" style="fill: #464d50"/>
    <path d="M20.61,14.44l.57.56,2.06-2.06v-.5a1.07,1.07,0,0,0-.06-.31L23.05,12Z" style="fill: #464d50"/>
    <path d="M21.18,12.6l1.26-1.26a1.16,1.16,0,0,0-.37-.07h-.69l-.77.77Z" style="fill: #464d50"/>
    <path d="M23.24,14.59l-.19-.19-.65.65c.28-.1.56-.18.84-.25Z" style="fill: #464d50"/>
    <path d="M16.84,21.09a1.83,1.83,0,0,0,.24-.77C17,20.57,16.91,20.83,16.84,21.09Z" style="fill: #b71236"/>
  </g>
</svg>
