<svg id="b3c772ae-45a8-4789-be33-4d4ed4b7bfb0" data-name="Calque 1" xmlns="http://www.w3.org/2000/svg" width="32" height="32" viewBox="0 0 32 32">
  <title>sign-58-IconeIrritantSGH07</title>
  <rect x="5.83" y="5.83" width="20.35" height="20.35" transform="translate(-6.63 16) rotate(-45)" style="fill: #fff"/>
  <path d="M16,32a.7.7,0,0,1-.47-.19L.2,16.47A.63.63,0,0,1,0,16a.65.65,0,0,1,.2-.47L15.53.2a.66.66,0,0,1,.94,0L31.81,15.53a.68.68,0,0,1,0,.94L16.47,31.81A.67.67,0,0,1,16,32ZM1.61,16,16,30.39,30.39,16,16,1.61Z" style="fill: #d10000"/>
  <g>
    <path d="M16.33,9.92c1,0,1.9.6,1.9,1.35s-.84,1.37-1.89,1.38-1.89-.6-1.9-1.36.84-1.37,1.89-1.37"/>
    <path d="M16.31,16.88c.57,0,1,.33,1,.74s-.46.75-1,.75-1-.33-1.05-.74.46-.75,1-.75"/>
    <path d="M16.32,19.34A1.37,1.37,0,1,1,15,20.71a1.37,1.37,0,0,1,1.35-1.37"/>
    <polyline points="14.45 11.29 15.27 17.66 17.42 17.64 18.22 11.27 14.45 11.29"/>
  </g>
</svg>
