<svg id="be4fb45b-ff77-4543-b366-9cfc53509fb4" data-name="Calque 1" xmlns="http://www.w3.org/2000/svg" width="32" height="32" viewBox="0 0 32 32">
  <title>abstract-31-IconeDRM</title>
  <g>
    <path d="M9.29,12.77,13.88,14,12.64,9.37A7.5,7.5,0,0,0,9.29,12.77Z" style="fill: none"/>
    <path d="M5.21,11.68l3.45.93a8.13,8.13,0,0,1,3.81-3.87l-.93-3.47A11.67,11.67,0,0,0,5.21,11.68Z" style="fill: none"/>
    <path d="M9.83,20.17,13.1,16.9,8.56,15.68c0,.11,0,.21,0,.32A7.37,7.37,0,0,0,9.83,20.17Z" style="fill: none"/>
    <path d="M6.85,23.15l2.53-2.52A8,8,0,0,1,7.91,16c0-.16,0-.32,0-.48l-3.47-.93A10.89,10.89,0,0,0,4.37,16,11.52,11.52,0,0,0,6.85,23.15Z" style="fill: none"/>
    <path d="M14.44,4.5,15.36,8c.21,0,.41,0,.62,0l.66,0,.92-3.46A11.75,11.75,0,0,0,16,4.38,11.16,11.16,0,0,0,14.44,4.5Z" style="fill: none"/>
    <path d="M25.24,9l-2.53,2.53A8,8,0,0,1,24.06,16c0,.24,0,.48,0,.72l3.45.92A11,11,0,0,0,27.6,16,11.57,11.57,0,0,0,25.24,9Z" style="fill: none"/>
    <path d="M13.1,21.14,12,22.26a5.42,5.42,0,0,0,.71.4Z" style="fill: none"/>
    <path d="M22.24,12,18.9,15.35l4.49,1.2c0-.18,0-.36,0-.55A7.42,7.42,0,0,0,22.24,12Z" style="fill: none"/>
    <path d="M19.53,8.76a7.25,7.25,0,0,1,1.08.63l2.53-2.52a11.85,11.85,0,0,0-2.68-1.59Z" style="fill: none"/>
    <path d="M18.9,11.11l1.25-1.26c-.25-.17-.52-.32-.79-.47Z" style="fill: none"/>
    <path d="M15.53,8.59,16,10.33l.47-1.74c-.16,0-.32,0-.49,0Z" style="fill: none"/>
    <path d="M16.4,23.41,16,21.92l-.4,1.5.38,0C16.12,23.44,16.26,23.42,16.4,23.41Z" style="fill: none"/>
    <path d="M22.57,19.44l-4.45-1.19,1.18,4.39A7.49,7.49,0,0,0,22.57,19.44Z" style="fill: none"/>
    <path d="M17.5,27.51,16.57,24a5.83,5.83,0,0,1-.59,0l-.55,0-.93,3.46a12.13,12.13,0,0,0,1.48.11A12.64,12.64,0,0,0,17.5,27.51Z" style="fill: none"/>
    <path d="M26.67,20.54l-3.47-.93a8.16,8.16,0,0,1-3.73,3.66l.93,3.47A11.64,11.64,0,0,0,26.67,20.54Z" style="fill: none"/>
    <path d="M12.53,23.29a7.7,7.7,0,0,1-1-.57L9,25.26a11.61,11.61,0,0,0,2.61,1.49Z" style="fill: none"/>
    <path d="M20.4,26.74l.26,1a12.7,12.7,0,0,0,7-6.91l-1-.26A11.64,11.64,0,0,1,20.4,26.74Z" style="fill: #1a171b"/>
    <path d="M16,4.38a11.75,11.75,0,0,1,1.58.12l.26-1A12.35,12.35,0,0,0,16,3.38a11.92,11.92,0,0,0-1.8.15l.26,1A11.16,11.16,0,0,1,16,4.38Z" style="fill: #1a171b"/>
    <path d="M11.54,5.27l-.26-1a12.66,12.66,0,0,0-7,7.12l1,.26A11.67,11.67,0,0,1,11.54,5.27Z" style="fill: #1a171b"/>
    <path d="M23.14,6.87l.71-.72a13.08,13.08,0,0,0-3.13-1.84l-.26,1A11.85,11.85,0,0,1,23.14,6.87Z" style="fill: #1a171b"/>
    <path d="M16,27.62a12.13,12.13,0,0,1-1.48-.11l-.26,1a12.5,12.5,0,0,0,1.74.14,13,13,0,0,0,1.78-.14l-.26-1A12.64,12.64,0,0,1,16,27.62Z" style="fill: #1a171b"/>
    <path d="M4.37,16a10.89,10.89,0,0,1,.09-1.41l-1-.26A13,13,0,0,0,3.37,16a12.54,12.54,0,0,0,2.77,7.87l.71-.72A11.52,11.52,0,0,1,4.37,16Z" style="fill: #1a171b"/>
    <path d="M9,25.26,8.28,26a12.52,12.52,0,0,0,3.06,1.75l.26-1A11.61,11.61,0,0,1,9,25.26Z" style="fill: #1a171b"/>
    <path d="M27.6,16a11,11,0,0,1-.13,1.64l1,.27A13.42,13.42,0,0,0,28.6,16,12.54,12.54,0,0,0,26,8.3L25.24,9A11.57,11.57,0,0,1,27.6,16Z" style="fill: #1a171b"/>
    <path d="M9.38,20.63l.45-.46A7.37,7.37,0,0,1,8.55,16c0-.11,0-.21,0-.32l-.63-.16c0,.16,0,.32,0,.48A8,8,0,0,0,9.38,20.63Z" style="fill: #1a171b"/>
    <path d="M15.36,8l.17.63.45,0c.17,0,.33,0,.49,0L16.64,8l-.66,0C15.77,7.93,15.57,7.94,15.36,8Z" style="fill: #1a171b"/>
    <path d="M19.36,9.38c.27.15.54.3.79.47l.46-.46a7.25,7.25,0,0,0-1.08-.63Z" style="fill: #1a171b"/>
    <path d="M16.57,24l-.17-.63c-.14,0-.28,0-.42,0l-.38,0-.17.63.55,0A5.83,5.83,0,0,0,16.57,24Z" style="fill: #1a171b"/>
    <path d="M12.7,22.66a5.42,5.42,0,0,1-.71-.4l-.47.46a7.7,7.7,0,0,0,1,.57Z" style="fill: #1a171b"/>
    <path d="M22.71,11.54l-.47.46a7.42,7.42,0,0,1,1.18,4c0,.19,0,.37,0,.55l.63.17c0-.24,0-.48,0-.72A8,8,0,0,0,22.71,11.54Z" style="fill: #1a171b"/>
    <path d="M8.66,12.61l.63.16a7.5,7.5,0,0,1,3.35-3.4l-.17-.63A8.13,8.13,0,0,0,8.66,12.61Z" style="fill: #1a171b"/>
    <path d="M23.2,19.61l-.63-.17a7.49,7.49,0,0,1-3.27,3.2l.17.63A8.16,8.16,0,0,0,23.2,19.61Z" style="fill: #1a171b"/>
  </g>
  <line x1="0.88" y1="13" x2="30.88" y2="13" style="fill: none;stroke: #1a171b;stroke-miterlimit: 10"/>
  <line x1="1" y1="19" x2="31" y2="19" style="fill: none;stroke: #1a171b;stroke-miterlimit: 10"/>
</svg>
