<svg id="a5eefdf7-7acf-46c9-ad1c-a20eee8eec56" data-name="Calque 1" xmlns="http://www.w3.org/2000/svg" width="32" height="32" viewBox="0 0 32 32">
  <title>equipment-41-IconeOutils</title>
  <path d="M28.26,2.24,17.92,12.58c.45.47,1,1,1.49,1.52L29.77,3.75l1.06-2.18-.39-.39Z" style="fill: #8b8c8e"/>
  <g>
    <path d="M13.9,18.29a.1.1,0,0,0,0-.05l-.06,0c-.78-.77-1.49-1.45-2.09-2-.59.49-1.31,1-1.93,1.45l-.37.27c-2.23.75-3.64,2.35-5.11,3.81-2.63,2.64-4.95,6.58-2.72,8.81s6.17-.1,8.8-2.73c1.55-1.54,3.23-3.13,3.92-5.47l.08-.1c.43-.63,1-1.37,1.49-2l-.67-.67C14.75,19.12,14.32,18.69,13.9,18.29Zm-5.39,2.6A14.19,14.19,0,0,0,5.7,23.05a.46.46,0,0,1-.35.14A.47.47,0,0,1,5,23a.5.5,0,0,1,0-.71A14.81,14.81,0,0,1,8,20a.5.5,0,0,1,.68.18A.51.51,0,0,1,8.51,20.89Z" style="fill: #8b8c8e"/>
    <path d="M27.94,23.67s-6.22-5.84-9-8.59a65.39,65.39,0,0,1-5.38-5.77,10.15,10.15,0,0,1-.46-2.91,6,6,0,0,0-1.4-3.48A8.17,8.17,0,0,0,8.54,1.14,7.92,7.92,0,0,0,6.87.91a.86.86,0,0,0-.5.09L6,1.42A10.65,10.65,0,0,0,7.64,3.33c.18.17.34.34.5.51V5.55l-2,2H4.2l-.41-.4A12.48,12.48,0,0,0,1.9,5.48h0l-.42.42a4,4,0,0,0,.14,2.17,8,8,0,0,0,1.78,3.19,6,6,0,0,0,3.47,1.41,10.32,10.32,0,0,1,2.92.45,70.77,70.77,0,0,1,5.77,5.38c2.75,2.75,8.58,9,8.58,9,.1.21,2.17,6.56,6.26,2.47S28.15,23.77,27.94,23.67Zm-3.79-1.23a.51.51,0,0,1-.36.15.5.5,0,0,1-.35-.15l-4.09-4.09a.5.5,0,0,1,0-.7.5.5,0,0,1,.71,0l4.09,4.08A.51.51,0,0,1,24.15,22.44Zm3.79,5.95a1.11,1.11,0,1,1,0-2.21,1.11,1.11,0,0,1,0,2.21Z" style="fill: #8b8c8e"/>
  </g>
</svg>
