<svg id="f3be9089-8001-4fb9-8fb5-a9249b434bfd" data-name="Calque 1" xmlns="http://www.w3.org/2000/svg" width="32" height="32" viewBox="0 0 32 32">
  <title>box-46-IconeSeed.Market</title>
  <g>
    <path d="M15.3,4.6A4.4,4.4,0,0,0,10.61,1,4.52,4.52,0,0,0,5.84,4.59a42,42,0,0,0,4.77.29A40.8,40.8,0,0,0,15.3,4.6Z" style="fill: none"/>
    <path d="M20.55,29.47a2.44,2.44,0,0,1-.44-.19,2,2,0,0,1-.26,0,2.37,2.37,0,0,1-1.06-.63,1.49,1.49,0,0,1-.31-.2l-.05,0a7.73,7.73,0,0,1-1.68-2,3,3,0,0,0-.72-.88,24.62,24.62,0,0,1-5.29.5,21.52,21.52,0,0,1-5.63-.59l-.22-.06-.1-.2a6.83,6.83,0,0,1-.34-3.07c.11-2,.44-4.22.45-4.31L5,17.29l.5.08a37.24,37.24,0,0,0,5.26.25c.82,0,1.53,0,2.14,0a.86.86,0,0,1,0-.17,2.9,2.9,0,0,1,1.87-2.08,3.51,3.51,0,0,1,.79-1.17,2.7,2.7,0,0,1,.17-.6,3,3,0,0,1,1.62-1.69,2.83,2.83,0,0,1,.92-.17c.1,0,.2,0,.31,0a3,3,0,0,1,2-.78c-.26-4-.49-7.18-.49-7.18a34.92,34.92,0,0,1-3.8.73A5.42,5.42,0,0,0,10.61,0,5.55,5.55,0,0,0,4.85,4.46a35.44,35.44,0,0,1-3.72-.72S0,19.72,0,24.29A24.94,24.94,0,0,0,1.13,32h19a20.11,20.11,0,0,0,.64-2.51ZM10.61,1A4.4,4.4,0,0,1,15.3,4.6a40.8,40.8,0,0,1-4.69.28,42,42,0,0,1-4.77-.29A4.52,4.52,0,0,1,10.61,1Z" style="fill: #9c9e9f"/>
    <path d="M5.83,18.43c-.1.77-.3,2.32-.37,3.73a7.72,7.72,0,0,0,.17,2.38,23.82,23.82,0,0,0,5.11.48A26.21,26.21,0,0,0,15,24.71a3.56,3.56,0,0,1-.89-2.61v0a5.75,5.75,0,0,1-1.24-3.47c-.61,0-1.29,0-2.09,0A47.61,47.61,0,0,1,5.83,18.43Z" style="fill: #c3c4c5"/>
    <path d="M5.48,17.37,5,17.29l-.08.51c0,.09-.34,2.3-.45,4.31a6.83,6.83,0,0,0,.34,3.07l.1.2.22.06a21.52,21.52,0,0,0,5.63.59,24.62,24.62,0,0,0,5.29-.5,3.53,3.53,0,0,0-.47-.33,3.35,3.35,0,0,1-.6-.49,26.21,26.21,0,0,1-4.22.31,23.82,23.82,0,0,1-5.11-.48,7.72,7.72,0,0,1-.17-2.38c.07-1.41.27-3,.37-3.73a47.61,47.61,0,0,0,4.91.2c.8,0,1.48,0,2.09,0a4.65,4.65,0,0,1,.05-1c-.61,0-1.32,0-2.14,0A37.24,37.24,0,0,1,5.48,17.37Z" style="fill: #c3c4c5"/>
  </g>
  <g>
    <path d="M21.39,13.05a.36.36,0,0,1-.32,0,1,1,0,0,0-1.14.15,1.29,1.29,0,0,0-.21.4,1.07,1.07,0,0,1,.14.16,1.52,1.52,0,0,1,1,0,1.36,1.36,0,0,1,.79,1.62,9.3,9.3,0,0,0,.37,1.15,15.29,15.29,0,0,1,.79,2.63c.19-.46.38-.91.57-1.32.92-1.93.28-2.49-.13-2.85l-.14-.12a.35.35,0,0,1-.09-.35,1.21,1.21,0,0,0-.66-1.5A1.24,1.24,0,0,0,21.39,13.05Z" style="fill: #6da200"/>
    <path d="M27.73,15.32l-.16,0a.34.34,0,0,1-.29-.07,1.3,1.3,0,0,1-.21-.31.85.85,0,0,0-.55-.47c-.42-.1-.55.05-1,.4a.35.35,0,0,1-.34,0h0a.35.35,0,0,1-.21-.26c0-.21-.05-.77-1-1a1.83,1.83,0,0,0-.25-.06,1.86,1.86,0,0,1,.05.91c.48.42,1.38,1.29.27,3.63-.43.92-.86,2-1.25,3.11a2.93,2.93,0,0,1-.05.29,16,16,0,0,1,1.66-2.41c.46-.47.86-.83,1.18-1.12a4.53,4.53,0,0,0,1.19-1.36,1.6,1.6,0,0,1,1.89-.77,1,1,0,0,0-.22-.4A.66.66,0,0,0,27.73,15.32Z" style="fill: #6da200"/>
    <path d="M16.6,16.2a3,3,0,0,1,.67.2,2.43,2.43,0,0,1,1.43,2.7c-.09.78.22.27,1.74,1.64.89.81-.37,6.09-.35,6.27s.3.3.33.31l0-.12c.14-.43.27-.86.4-1.28s.3-1,.48-1.57a16.72,16.72,0,0,0,.87-4.55,11.69,11.69,0,0,0-.81-3c-.36-1-.49-1.37-.38-1.62a.46.46,0,0,0-.05-.41.78.78,0,0,0-.37-.35h0a.86.86,0,0,0-.69.08.32.32,0,0,1-.3,0,.31.31,0,0,1-.22-.21,1.1,1.1,0,0,0-1.29-.56,1,1,0,0,0-.53,1.15.33.33,0,0,1,0,.29.41.41,0,0,1-.22.19A1.28,1.28,0,0,0,16.6,16.2Z" style="fill: #6da200"/>
  </g>
  <path d="M23.11,24.57c0-1.47,1.24-2.43,2.95-2.94A10.37,10.37,0,0,1,28,21.26c1.09-1.22,2.35-1.48,3.52-.68a.7.7,0,0,0,.05-.4,1.56,1.56,0,0,0-.84-1,.34.34,0,0,1-.18-.25.34.34,0,0,1,.08-.29l.13-.14c.36-.38.44-.5.17-.82a1.23,1.23,0,0,0-.46-.35.91.91,0,0,0-.85,0,.34.34,0,0,1-.56-.2.79.79,0,0,0-.48-.6.91.91,0,0,0-1.17.39A5.28,5.28,0,0,1,26,18.52c-.33.29-.7.63-1.15,1.09a26.91,26.91,0,0,0-2.69,4.28c-.28,1-.78,2.55-1.13,3.64a.39.39,0,0,0,.26,0,1.59,1.59,0,0,0,.36-.63A1.66,1.66,0,0,1,23,26h.14a2.62,2.62,0,0,1,.15-.48A2.39,2.39,0,0,1,23.11,24.57Z" style="fill: #6da200"/>
  <path d="M16.6,16.93a3.65,3.65,0,0,0-.37.05c-.47.09-1.25.31-1.37.86a3.79,3.79,0,0,0,.87,3.06c.75.63-.12,2,.87,2.59a5.11,5.11,0,0,1,1.92,2,6.14,6.14,0,0,0,1.2,1.37s.67-4,.42-4.83S18,19.69,18,19.69a12.88,12.88,0,0,0-.51-1.85" style="fill: #6da200"/>
  <path d="M22.21,27.87s3.63.72,5.5,0a10.71,10.71,0,0,0,3.49-2.59s1.1-3,.67-3.49-.5-1-1.52-.89a8.18,8.18,0,0,0-2.47,1s-2.67.48-3.52,1.51a2.25,2.25,0,0,0-.48,2.08v1.08a1.69,1.69,0,0,0-1.16.29A1.62,1.62,0,0,0,22.21,27.87Z" style="fill: #6da200"/>
</svg>
