<svg id="b9d9ac35-af7f-451d-82a0-1e40f50b2449" data-name="Calque 1" xmlns="http://www.w3.org/2000/svg" width="32" height="32" viewBox="0 0 32 32">
  <title>folder-44-IconeSheetCategory</title>
  <path d="M31.91,26.5V7.5A1.5,1.5,0,0,0,30.41,6H9.5A1.5,1.5,0,0,1,8,4.5H8A1.5,1.5,0,0,0,6.5,3h-5A1.5,1.5,0,0,0,0,4.5v22A1.5,1.5,0,0,0,1.5,28H30.41A1.5,1.5,0,0,0,31.91,26.5Z" style="fill: #fac262"/>
  <g>
    <polygon points="26.15 14.07 16 19.15 5.85 14.07 16 9 26.15 14.07" style="fill: #fff"/>
    <path d="M16,21.52a1.51,1.51,0,0,1-.62-.14l-7-3.48L5.85,19.19,16,24.27l10.15-5.08L23.56,17.9l-6.95,3.48A1.43,1.43,0,0,1,16,21.52Z" style="fill: #fff"/>
  </g>
</svg>
