<svg id="ac809ffd-edca-483c-a2a7-9ebc6453bb7e" data-name="Calque 1" xmlns="http://www.w3.org/2000/svg" width="32" height="32" viewBox="0 0 32 32">
  <title>meteo-61-IconeMeteusNeige</title>
  <path d="M15.39.09A10.25,10.25,0,0,1,25.55,10.44,10.25,10.25,0,0,1,15.39,20.79,10.25,10.25,0,0,1,5.23,10.44,10.25,10.25,0,0,1,15.39.09" style="fill: #d3d2d2"/>
  <path d="M5.23,10.44a5.18,5.18,0,0,1,0,10.35,5.18,5.18,0,0,1,0-10.35" style="fill: #d3d2d2"/>
  <path d="M15,1.43A10.23,10.23,0,0,1,25.11,11.78a11.82,11.82,0,0,1-.32,2.62,10.54,10.54,0,0,0,.83-4A10.34,10.34,0,0,0,15.39,0,10.2,10.2,0,0,0,5.55,7.69,10.26,10.26,0,0,1,15,1.43" style="fill: #b9b9b9"/>
  <path d="M25.11,7a6.9,6.9,0,1,1-6.78,6.9A6.84,6.84,0,0,1,25.11,7" style="fill: #d3d2d2"/>
  <path d="M25.11,19.39a6.62,6.62,0,0,1-4.35-1.6,9.67,9.67,0,0,1-5.37,1.6,10.22,10.22,0,0,1-6.13-2.05A5.07,5.07,0,0,1,.18,15.11a3.82,3.82,0,0,0-.06.83,5.14,5.14,0,0,0,5.11,5.17,5.25,5.25,0,0,0,4.09-2,10.27,10.27,0,0,0,6.14,2,9.55,9.55,0,0,0,5.36-1.6,6.71,6.71,0,0,0,11.06-5.3,3.6,3.6,0,0,0-.06-.83,6.78,6.78,0,0,1-6.71,6" style="fill: #b9b9b9"/>
  <path d="M18.91,29.61l-1.73-1,1.73-1a.51.51,0,0,0,.19-.7.6.6,0,0,0-.77-.19l-1.72,1V25.9a.57.57,0,0,0-.58-.51.56.56,0,0,0-.57.51v1.86l-1.54-.9a.62.62,0,0,0-.76.19.52.52,0,0,0,.19.71l1.66.89-1.66,1a.51.51,0,0,0-.19.7.46.46,0,0,0,.44.26.4.4,0,0,0,.26-.06l1.66-.9v1.85a.56.56,0,0,0,.58.51.55.55,0,0,0,.57-.51V29.61l1.73,1a.39.39,0,0,0,.25.06.43.43,0,0,0,.45-.25.56.56,0,0,0-.19-.77" style="fill: #d3d2d2"/>
  <path d="M31.62,29.61l-1.72-1,1.72-1a.51.51,0,0,0,.2-.7.6.6,0,0,0-.77-.19l-1.73,1V25.9a.56.56,0,0,0-.57-.51.57.57,0,0,0-.58.51v1.86l-1.59-.9a.63.63,0,0,0-.77.19.52.52,0,0,0,.19.71l1.66.89-1.66.9a.5.5,0,0,0-.19.7.49.49,0,0,0,.45.26.35.35,0,0,0,.25-.07l1.66-.89V31.4a.56.56,0,0,0,.58.51.55.55,0,0,0,.57-.51V29.55l1.73,1a.39.39,0,0,0,.25.06.42.42,0,0,0,.45-.26.46.46,0,0,0-.13-.7" style="fill: #d3d2d2"/>
  <path d="M6.13,29.61,4.4,28.72l1.73-1a.52.52,0,0,0,.19-.71.61.61,0,0,0-.77-.19l-1.72,1V26a.56.56,0,0,0-.58-.51.55.55,0,0,0-.57.51v1.85l-1.6-1a.63.63,0,0,0-.77.19.52.52,0,0,0,.19.71l1.67.89-1.6,1a.51.51,0,0,0-.19.7.46.46,0,0,0,.44.26.4.4,0,0,0,.26-.06l1.66-.9v1.85a.56.56,0,0,0,.58.51.55.55,0,0,0,.57-.51V29.61l1.73,1a.39.39,0,0,0,.25.06.43.43,0,0,0,.45-.25.62.62,0,0,0-.19-.77" style="fill: #d3d2d2"/>
</svg>
