<svg id="beb8fd1d-3766-4071-9b6e-16c77e797d16" data-name="Calque 1" xmlns="http://www.w3.org/2000/svg" width="32" height="32" viewBox="0 0 32 32">
  <title>screen-62-IconeLocaliseAnalyseSol</title>
  <g>
    <g>
      <rect x="4.5" y="15.5" width="20" height="16" style="fill: #fff"/>
      <path d="M24,16V31H5V16H24m1-1H4V32H25V15Z" style="fill: #868789"/>
    </g>
    <rect x="4" y="15" width="21" height="3" style="fill: #868789"/>
    <rect x="9" y="22" width="1" height="2" style="fill: #cfd0d0"/>
    <rect x="14" y="22" width="1" height="2" style="fill: #cfd0d0"/>
    <g>
      <rect x="19.17" y="22.17" width="0.67" height="1.67" style="fill: #fff"/>
      <path d="M19.67,22.33v1.34h-.34V22.33h.34M20,22H19v2h1V22Z" style="fill: #cfd0d0"/>
    </g>
    <rect x="9" y="27" width="1" height="2" style="fill: #cfd0d0"/>
    <rect x="14" y="27" width="1" height="2" style="fill: #cfd0d0"/>
    <rect x="19" y="27" width="1" height="2" style="fill: #cfd0d0"/>
    <g>
      <rect x="6" y="20" width="17" height="1" style="fill: #fff"/>
      <polygon points="23 20 6 20 6 21 23 21 23 20 23 20" style="fill: #cfd0d0"/>
    </g>
    <g>
      <rect x="6" y="25" width="17" height="1" style="fill: #fff"/>
      <polygon points="23 25 6 25 6 26 23 26 23 25 23 25" style="fill: #cfd0d0"/>
    </g>
  </g>
  <g>
    <path d="M19,.27A9.43,9.43,0,0,0,10.62,14c.17.31.88,1.39.88,1.39L19,25.91l7.5-10.54s.71-1.08.88-1.39A9.43,9.43,0,0,0,19,.27Z" style="fill: #1c7bc0"/>
    <g>
      <rect x="17.64" y="2.37" width="1.79" height="2.62" transform="translate(0.02 -0.08) rotate(0.26)" style="fill: #fff"/>
      <rect x="17.6" y="11.08" width="1.79" height="0.78" transform="translate(0.05 -0.08) rotate(0.26)" style="fill: #fff"/>
      <path d="M21.47,7.41A1.67,1.67,0,0,0,21.16,7a1.6,1.6,0,0,0-1.09-.47V5.3H17l0,5.47h3.1V9.71a1.43,1.43,0,0,0,.5-.09,1.59,1.59,0,0,0,.59-.37,1.9,1.9,0,0,0,.3-.4c.86.1,1.45.89,1.47,2.42s-1.17,2.32-3,2.35H17l0,1.43h3c3.25,0,4.46-1.61,4.43-3.8A3.7,3.7,0,0,0,21.47,7.41Zm-.32.7a1.14,1.14,0,0,1-.33.8,1.16,1.16,0,0,1-.81.33A1.13,1.13,0,0,1,19.64,7,1.22,1.22,0,0,1,20,7a1.14,1.14,0,0,1,1.13,1.14Z" style="fill: #fff"/>
      <path d="M20.09,16.05c-2-.64-3,0-4.21,1.35h7.5C22.85,16.81,21,16.33,20.09,16.05Z" style="fill: #fff"/>
    </g>
    <rect x="17.65" y="14.52" width="1.3" height="2.08" style="fill: #fff"/>
  </g>
</svg>
