<svg id="b5402f32-331b-47e5-99f2-1c67c775c30c" data-name="Calque 1" xmlns="http://www.w3.org/2000/svg" width="32" height="32" viewBox="0 0 32 32">
  <title>map-63-IconeAnalyseDeSol</title>
  <path d="M16,0A11.76,11.76,0,0,0,5.53,17.12c.2.39,1.09,1.73,1.09,1.73L16,32l9.38-13.17s.89-1.34,1.09-1.73A11.76,11.76,0,0,0,16,0Z" style="fill: #1c7bc0"/>
  <g>
    <rect x="14.3" y="2.61" width="2.24" height="3.28" transform="translate(0.02 -0.07) rotate(0.26)" style="fill: #fff"/>
    <rect x="14.25" y="13.49" width="2.24" height="0.97" transform="translate(0.06 -0.07) rotate(0.26)" style="fill: #fff"/>
    <path d="M19.09,8.91a2.12,2.12,0,0,0-.39-.55,2,2,0,0,0-1.36-.6V6.27l-3.87,0,0,6.84,3.87,0V11.78a1.9,1.9,0,0,0,.63-.11,2,2,0,0,0,.74-.47,2.23,2.23,0,0,0,.37-.5c1.07.12,1.82,1.11,1.84,3s-1.46,2.9-3.73,2.93l-3.7,0,0,1.79,3.71,0c4.07-.05,5.57-2,5.54-4.74C22.66,11.57,21.49,9.29,19.09,8.91Zm-.4.87a1.42,1.42,0,1,1-2.83,0,1.42,1.42,0,0,1,.94-1.33,1.51,1.51,0,0,1,.48-.08,1.42,1.42,0,0,1,1.41,1.42Z" style="fill: #fff"/>
    <path d="M17.37,19.7c-2.49-.79-3.72,0-5.27,1.7h9.37C20.81,20.65,18.45,20.05,17.37,19.7Z" style="fill: #fff"/>
  </g>
  <rect x="14.31" y="17.79" width="1.63" height="2.6" style="fill: #fff"/>
</svg>
