<svg id="e3dbbd45-5bd4-47c3-a963-1b4b44851394" data-name="Calque 1" xmlns="http://www.w3.org/2000/svg" width="32" height="32" viewBox="0 0 32 32">
  <title>animals-11-IconeAnimalCheval</title>
  <path d="M7.48,19.88l-2.72,5.2a2.16,2.16,0,0,0,1.55-.58c.94-1.16,2.1-2.56,3.19-3.76a40.2,40.2,0,0,0,2.63-3.16,1.12,1.12,0,0,1,2,.35,12.39,12.39,0,0,0,.83,2.13c.94,1.79,3.79,3.75,4.86,4.64s.38,2.73,1.78,3.49,3.15.3,4.39-1.53,0-2.85-.85-4.68-.9-6.64-.73-8a2.26,2.26,0,0,0-.63-2.17c-.39-.47-.39-1.32-.81-2.3l-.56-1.28S23.66,7,23.66,6.14s.94-1.87.81-2-.94.38-1.53.76a9.73,9.73,0,0,0-1.49,1.45s-.56-.17-1.11-.3a1.45,1.45,0,0,0-1,.17S19,3.71,18.64,3.5s-.51.34-1.49.89a1.86,1.86,0,0,0-.83,1.18,1.08,1.08,0,0,1-1.07.78c-1.64,0-4.46,1.4-7.3,3.56a8.33,8.33,0,0,0-2.87,3.61l1.12-.77,2.7-2.08s-4.27,5.73-4.3,6l3.49-3s-3.71,5.84-3.72,6.11l3-2.83s-3.07,5.65-3.07,6ZM22.24,26a.55.55,0,0,1,.55-.55c.31,0,.4.29.56.55.56,1,.27,1.16-.56.55C22.55,26.39,22.24,26.33,22.24,26ZM19.1,13.51c.3-.35,1.27-.1,1.62.2A.83.83,0,1,1,19.65,15C19.3,14.68,18.8,13.86,19.1,13.51Z" style="fill: #a6816e"/>
</svg>
