<svg id="aea9923d-8ee7-44da-b1ad-da88caf9be6b" data-name="Calque 1" xmlns="http://www.w3.org/2000/svg" width="32" height="32" viewBox="0 0 32 32">
  <title>animals-82-IconeAnimalPouleBlanche</title>
  <g>
    <path d="M25,14.54s3.87-.6,2.84-2.93-1.64-.78-2.5-1.47,2.16-2.84.17-3.88-1.64,1.47-2.58,1.3-.09-4-2.68-3.28S15.43,5.83,17,7.47a34.2,34.2,0,0,1,3.27,4.4s6-1.58,3.19,6c-1,2.67-.26,5.6,1.9,5.6S27.65,19,26,16.76,25,14.54,25,14.54Z" style="fill: #b71236"/>
    <path d="M30.34,16.78a9.14,9.14,0,0,0-6.38-4s.35,1.64,1,1.73-.66,2.21-.66,2.21S25.94,18.42,30.34,16.78Z" style="fill: #b3b3b3"/>
  </g>
  <path d="M21,10.14c-4.91,0-9,2-12.16,6.55C6.08,20.69,2.5,28.45.44,32H24.21c-1.44-5.12-3.09-9.63-3.09-10.65,0-1.81,5.17-1.21,5.17-6.64A5,5,0,0,0,21,10.14Z" style="fill: #fff"/>
  <circle cx="22.04" cy="13.84" r="1.46" style="fill: #b3b3b3"/>
</svg>
