<svg id="a261eb0a-db1e-438b-9dae-4d7e60f67ce4" data-name="Calque 1" xmlns="http://www.w3.org/2000/svg" width="32" height="32" viewBox="0 0 32 32">
  <title>keys-42-IconeEnvoyerIdentifiants</title>
  <g>
    <path d="M12.8,25.61c-2.07,0-2.19-2.51-2.2-2.62l0-.48H3.43a1.94,1.94,0,0,1-1.94-2V7.45A1.94,1.94,0,0,1,3.43,5.51H28.54a1.94,1.94,0,0,1,1.95,1.94V20.56a2,2,0,0,1-1.95,2H16.06l-.12.34S15,25.61,12.8,25.61Z" style="fill: #fff"/>
    <path d="M28.54,6A1.45,1.45,0,0,1,30,7.45V20.56A1.45,1.45,0,0,1,28.54,22H15.7l-.23.67s-.84,2.42-2.67,2.42c-1.56,0-1.69-1.92-1.7-2.14l0-1H3.43A1.45,1.45,0,0,1,2,20.56V7.45A1.45,1.45,0,0,1,3.43,6H28.54m0-1H3.43A2.44,2.44,0,0,0,1,7.45V20.56A2.45,2.45,0,0,0,3.43,23h6.68s.1,3.09,2.69,3.09S16.42,23,16.42,23H28.54A2.45,2.45,0,0,0,31,20.56V7.45A2.45,2.45,0,0,0,28.54,5Z" style="fill: #868789"/>
  </g>
  <polyline points="3.6 20.58 15.99 11.85 28.04 20.58" style="fill: #fff;stroke: #c6c8c9;stroke-linecap: round;stroke-linejoin: round"/>
  <path d="M28.52,7.38l-11,7a3.47,3.47,0,0,1-3.74,0L3.31,7.57" style="fill: #fff;stroke: #c6c8c9;stroke-linecap: round;stroke-linejoin: round"/>
  <g>
    <path d="M12.31,17.78a5.34,5.34,0,1,0,7.16,2.37A5.34,5.34,0,0,0,12.31,17.78Zm1.21,7.15a1.6,1.6,0,0,1-2.15-.71,1.6,1.6,0,1,1,2.86-1.44A1.6,1.6,0,0,1,13.52,24.93Z" style="fill: #bc9161"/>
    <path d="M16.42,19.53l10.06-5.06a.78.78,0,0,1,.7,0l1.37.76a.73.73,0,0,1,.35.89l-.51,1.56a.76.76,0,0,1-.95.48l-.72-.24a.75.75,0,0,0-.95.48h0a.76.76,0,0,1-1,.48h0a.75.75,0,0,0-.95.48l-.28.85a.76.76,0,0,1-.81.51l-1.06-.13a.79.79,0,0,0-.43.07l-3.41,1.72a.76.76,0,0,1-1-.33l-.76-1.52A.75.75,0,0,1,16.42,19.53Z" style="fill: #bc9161"/>
  </g>
</svg>
