<svg id="b55bf483-7169-4091-b879-6886d2fdceaa" data-name="Calque 1" xmlns="http://www.w3.org/2000/svg" width="32" height="32" viewBox="0 0 32 32">
  <title>products-52-IconeStockEffluents</title>
  <path d="M31,20.75c0,2.62-5.37,4.75-12,4.75S7,23.37,7,20.75,15.29,7,19,7,31,18.13,31,20.75Z" style="fill: #927768"/>
  <rect x="1.19" y="25.61" width="3.91" height="2" transform="translate(6.29 53.21) rotate(-180)" style="fill: #8f8f8f"/>
  <rect x="1.19" y="5.61" width="3.91" height="2" transform="translate(6.29 13.21) rotate(-180)" style="fill: #8f8f8f"/>
  <rect x="3.19" y="21.61" width="1.91" height="2" transform="translate(8.29 45.21) rotate(-180)" style="fill: #8f8f8f"/>
  <rect x="3.19" y="17.61" width="1.91" height="2" transform="translate(8.29 37.21) rotate(-180)" style="fill: #8f8f8f"/>
  <rect x="3.19" y="13.61" width="1.91" height="2" transform="translate(8.29 29.21) rotate(-180)" style="fill: #8f8f8f"/>
  <rect x="3.19" y="9.61" width="1.91" height="2" transform="translate(8.29 21.21) rotate(-180)" style="fill: #8f8f8f"/>
</svg>
