<svg id="e237c3fb-d36d-490e-8a3b-a5181d8d3394" data-name="Calque 1" xmlns="http://www.w3.org/2000/svg" width="32" height="32" viewBox="0 0 32 32">
  <title>print-91-IconeImprimer</title>
  <line x1="11.92" y1="6" x2="20.27" y2="6" style="fill: none;stroke: #b8b7b8;stroke-linecap: round;stroke-linejoin: round"/>
  <line x1="11.92" y1="9" x2="20.27" y2="9" style="fill: none;stroke: #b8b7b8;stroke-linecap: round;stroke-linejoin: round"/>
  <line x1="11.92" y1="12" x2="20.27" y2="12" style="fill: none;stroke: #b8b7b8;stroke-linecap: round;stroke-linejoin: round"/>
  <g>
    <path d="M29.48,12h-27A2.52,2.52,0,0,0,0,14.52v10A2.52,2.52,0,0,0,2.52,27H5.83V23H26.17v4h3.31A2.52,2.52,0,0,0,32,24.48v-10A2.52,2.52,0,0,0,29.48,12Z" style="fill: #6f7072"/>
    <rect x="7.83" y="25" width="16.35" height="6" style="fill: #6f7072"/>
  </g>
  <circle cx="4.25" cy="20.25" r="1.25" style="fill: #fff"/>
  <path d="M22.34,16H9.86a8.7,8.7,0,0,1-1.94,0V3.93A1.94,1.94,0,0,1,9.86,2H22.34a1.93,1.93,0,0,1,1.93,1.93V16Z" style="fill: #fff;stroke: #6f7072;stroke-miterlimit: 10;stroke-width: 2px"/>
  <line x1="11.92" y1="6" x2="20.27" y2="6" style="fill: none;stroke: #b8b7b8;stroke-linecap: round;stroke-linejoin: round"/>
  <line x1="11.92" y1="9" x2="20.27" y2="9" style="fill: none;stroke: #b8b7b8;stroke-linecap: round;stroke-linejoin: round"/>
  <line x1="11.92" y1="12" x2="20.27" y2="12" style="fill: none;stroke: #b8b7b8;stroke-linecap: round;stroke-linejoin: round"/>
</svg>
