<svg id="b7e962d0-aa31-4c1c-86ee-c3f8766fe466" data-name="Calque 1" xmlns="http://www.w3.org/2000/svg" width="32" height="32" viewBox="0 0 32 32">
  <title>animals-21-IconeAnimalOvin</title>
  <path d="M26,8.17c-2.62,0-3.6,0-5,.47-1.16-1.28-2.89-1.47-5.08-1.47s-3.88.18-5,1.43C9.5,8.12,8.56,8.15,6,8.17,1,8.23-.07,9.66,0,10c.23.76,3.85,4.31,6.82,4.53a7.54,7.54,0,0,0,2.27-.16A26.59,26.59,0,0,0,10,19c.23.73,1.57,3.42,2.13,4.87A4.42,4.42,0,0,0,15.5,26.5v-2c-.5-.59-1.3-.56-1.48-1a.68.68,0,0,1,0-.93.7.7,0,0,1,.94.19,11.57,11.57,0,0,0,.79.85.49.49,0,0,1,.21.25c0-.07.08-.16.2-.25s.72-.76.8-.85a.7.7,0,0,1,.94-.19.67.67,0,0,1,0,.91c-.16.41-.9.32-1.41.93v2.09a4.44,4.44,0,0,0,3.32-2.6c.56-1.45,1.9-4.14,2.13-4.87a25.61,25.61,0,0,0,.83-4.65,7.85,7.85,0,0,0,2.42.18c3-.22,6.59-3.77,6.82-4.53C32.07,9.66,31,8.23,26,8.17ZM9.12,13.93a18.56,18.56,0,0,0-3.21-.78c-2.8-.56-4.7-2.4-4.53-3a3.62,3.62,0,0,1,3.61.7C6.2,12,9.12,12.31,9.12,12.31Zm13.71-1.62S25.76,12,27,10.83a3.64,3.64,0,0,1,3.62-.7c.16.62-1.74,2.46-4.53,3a18.61,18.61,0,0,0-3.22.78ZM12,15.62a1.73,1.73,0,0,1-1.17,0c-.75-.21-.71-.81-.87-1.38.52,0,1-.29,1.55.14C12.37,15,12,15.62,12,15.62Zm8.94,0a1.13,1.13,0,0,1-1.17,0s-.33-.64.49-1.23c.59-.42,1-.24,1.55-.14C21.58,14.81,21.61,15.31,21,15.63Z" style="fill: #a69175"/>
</svg>
