<svg id="e8af2724-3895-42cb-95b2-27efd7c2b314" data-name="Calque 1" xmlns="http://www.w3.org/2000/svg" width="32" height="32" viewBox="0 0 32 32">
  <title>places-22-IconeElementPaysager</title>
  <path d="M32,23H27.85l-1.46.23c-.9.17-1.8.35-2.58.57a3.33,3.33,0,0,0-.88.35s0,0,0,0l0,0s0,0,0,0,0,0,.09,0a5.39,5.39,0,0,0,.88.11c.41,0,.87,0,1.35,0,1,0,1.95,0,3.17.11a4.77,4.77,0,0,1,2.11.62,1,1,0,0,1,.52.75,1.12,1.12,0,0,1-.57.83c-.44.31-6.65,4.7-8.77,5.36H32Z" style="fill: #6f9628"/>
  <path d="M25.05,25.5c-.49-.05-1-.09-1.55-.17a5.8,5.8,0,0,1-1.77-.46.9.9,0,0,1-.54-.6.47.47,0,0,1,0-.17.51.51,0,0,1,.1-.21,1.25,1.25,0,0,1,.37-.28,6.16,6.16,0,0,1,1.54-.45c.36-.07.7-.11,1-.16H16.33l.57,1.66a1.34,1.34,0,0,1-.67,1.62,1.31,1.31,0,0,1-.59.13,1.34,1.34,0,0,1-1.1-.58L12.65,23H5.89L4,25.83a1.32,1.32,0,0,1-1.1.58,1.29,1.29,0,0,1-.58-.13,1.34,1.34,0,0,1-.67-1.62L2.21,23H0v9H7.22c2.73-.47,15.4-4.87,18.67-5.72L27,26l.54-.18C26.91,25.65,26,25.58,25.05,25.5Z" style="fill: #6f9628"/>
  <path d="M18.14,6.72a.33.33,0,0,0-.23-.36l-7.07-1.2h-.19L9.6,1.7a.33.33,0,0,0-.31-.24h0a.31.31,0,0,0-.31.24L7.76,5.15H7.57L.62,6.36A.32.32,0,0,0,.72,7L7,8.12H7l-.27,2.16-.38,3.83L2.63,24.92a.33.33,0,0,0,.16.4.33.33,0,0,0,.41-.11l4-6h4.1l4,6a.33.33,0,0,0,.41.11.31.31,0,0,0,.16-.4L12.19,14.11l-.38-3.83-.28-2.16L17.82,7A.32.32,0,0,0,18.14,6.72ZM7.41,13.86,9.25,11.2l1.92,2.66Zm3.43.64L9.27,15.59,7.69,14.5ZM7.9,8.12h2.7L9.25,10.23Zm2.09-3H8.72L9.27,3m-1,2.78h1.89l.5,1.56H7.77Zm-6,.89,5.33-.85L7.11,7.35Zm5.26,2,1.25,2-1.7,2.41Zm-.68,6L8.7,16l-3,2.1ZM7,18.58h-1l3.2-2.21,3.19,2.21H7Zm4.67-3.89,1.16,3.39-3-2.1Zm-.24-1.51L9.73,10.71,11,8.65Zm-.15-5.83-.49-1.52,5.38.76Z" style="fill: gray"/>
</svg>
