<svg id="a9a0fbd5-7fbc-4bbb-9e42-98b573055377" data-name="Calque 1" xmlns="http://www.w3.org/2000/svg" width="32" height="32" viewBox="0 0 32 32">
  <title>field-65-IconeExportAgriPrecision</title>
  <path d="M24.25,28.05A6.72,6.72,0,1,1,31,21.33a6.72,6.72,0,0,1-6.73,6.72" style="fill: #5bab26"/>
  <path d="M24.25,28.05A6.72,6.72,0,1,1,31,21.33a6.72,6.72,0,0,1-6.73,6.72" style="fill: #5bab26"/>
  <path d="M24.25,28.05A6.72,6.72,0,1,1,31,21.33a6.72,6.72,0,0,1-6.73,6.72" style="fill: #00608c"/>
  <g>
    <path d="M10.32,15.33c0-2.06.69-4,0-4.8a1.61,1.61,0,0,0-2.43-.19A15.74,15.74,0,0,0,6.83,12.9s.63,4.92,1.37,4.17S10.32,17.38,10.32,15.33Zm-.57-3.62c-.46.67,0,.54-.63.74s-1-.12-.89.34.39.86.81.8a1.94,1.94,0,0,0,.54-.21L8.53,14.54l-.29-.2c.25-.07.36-.22.22-.48-.58-1.07-1.46-.14-.74-1.22s.53-1.92,1.12-1.72S10.22,11,9.75,11.71Z" style="fill: #ece229"/>
    <path d="M15.81,15.61c-1.33-1.47-1.72.88-.46,1.27a2.65,2.65,0,0,1,1.09.59c.11-.22.23-.43.35-.64C16.53,16.5,16.22,16.07,15.81,15.61Z" style="fill: #ece229"/>
    <path d="M23.56,9.76c-1,1.19-.42,1-.14,1.58s1.89-.85,1.89-2.21.49-1.65,2.53-1.27c.55.11.79.7.83,1.52L29.58,8,23.42,5.59a5.91,5.91,0,0,0,1.15,2.2C26,9.41,24.61,8.57,23.56,9.76Z" style="fill: #ece229"/>
    <path d="M16.05,24.27a8.81,8.81,0,0,1-.5-2.48c-.31.25-.72.61-1.25,1.08-2.14,1.9-2.63.07-4.1.78s1.26,1.54.7,2.94a1.14,1.14,0,0,1-.38.52l3.89,3.5,1.7-2.53C15.2,26.94,15.73,25.22,16.05,24.27ZM13.81,28.9,11.5,26.82c.19.06.38,0,.5-.32.28-.7-1.09-1.13-.35-1.48s1,.56,2.06-.39,1.17-1.07,1,.41c0,.26-.74,1.66.09,2.36l0,0Z" style="fill: #ece229"/>
    <path d="M4.31,17.54c1.12-.42.35.74.84,2.18s.17.42,1.82,1.54S8.41,20.49,8.9,19s-1.58-1-4.24-2.74-.35.39-3,1.82c-.43.24-.73.2-.94,0l-.09.13L2.4,19.79a1.76,1.76,0,0,1-.06-.25C2.2,18.49,3.18,18,4.31,17.54Z" style="fill: #ece229"/>
    <path d="M12.48,6.08c.42,1.47,2.45,1.4,4-.42S18.89,7,20,8s1.4-2,2.32-2.87l-10-3.95-.6.89c.6.27.66.71-.64,1l-.07,0-.69,1C10.9,4.63,12.24,5.25,12.48,6.08Zm-1.13-1.7.15-.18A3,3,0,0,1,12.11,4c1.14-.32.78-.58,0-.61l.59-.76,5.8,1.45c-.07,0,2.66,1,2.55,1.06-.76.38-1.38,1.1-2.21.68s-1.59-2-2.64-.93-2.53,1.26-2.92.53C13,4.87,11.44,4.67,11.35,4.38Z" style="fill: #ece229"/>
    <path d="M7.78,24.64l1.13,1a2.18,2.18,0,0,1-.05-.29C8.84,24.35,8.39,24.35,7.78,24.64Z" style="fill: #be1e1d"/>
    <path d="M11.68,2.08l-.71,1,.07,0C12.34,2.79,12.28,2.35,11.68,2.08Z" style="fill: #e65120"/>
    <path d="M13.32,5.39c.39.73,1.87.53,2.92-.53s1.82.51,2.64.93,1.45-.3,2.21-.68c.11-.05-2.62-1.05-2.55-1.06L12.74,2.6l-.59.76c.74,0,1.1.29,0,.61a3,3,0,0,0-.61.23l-.15.18C11.44,4.67,13,4.87,13.32,5.39Z" style="fill: #ecac12"/>
    <path d="M14.68,25c.2-1.48.11-1.36-1-.41s-1.32,0-2.06.39.63.78.35,1.48c-.12.29-.31.38-.5.32l2.31,2.08,1-1.48,0,0C13.94,26.7,14.65,25.3,14.68,25Z" style="fill: #be1e1d"/>
    <path d="M8.84,10.92c-.59-.2-.4.64-1.12,1.72s.16.15.74,1.22c.14.26,0,.41-.22.48l.29.2,1.05-1.16a1.94,1.94,0,0,1-.54.21c-.42.06-.64-.34-.81-.8s.3-.14.89-.34.17-.07.63-.74S9.44,11.12,8.84,10.92Z" style="fill: #ecac12"/>
    <path d="M16.11,28.08l1.09-1.63a8.57,8.57,0,0,1-1.15-2.18C15.73,25.22,15.2,26.94,16.11,28.08Z" style="fill: #8ebb1a"/>
    <path d="M20,8c-1.06-1-1.86-4.18-3.44-2.35s-3.61,1.89-4,.42c-.24-.83-1.58-1.45-2.2-1.95l-9.54,14c.21.22.51.26.94,0,2.63-1.43.31-3.57,3-1.82S9.39,17.54,8.9,19,8.62,22.38,7,21.26s-1.33-.1-1.82-1.54.28-2.6-.84-2.18-2.11.95-2,2a1.76,1.76,0,0,0,.06.25l5.38,4.85c.61-.29,1.06-.29,1.08.72a2.18,2.18,0,0,0,.05.29l1.61,1.46a1.14,1.14,0,0,0,.38-.52c.56-1.4-2.18-2.24-.7-2.94s2,1.12,4.1-.78c.53-.47.94-.83,1.25-1.08,0-.15,0-.3,0-.46a8.61,8.61,0,0,1,.91-3.86,2.65,2.65,0,0,0-1.09-.59c-1.26-.39-.87-2.74.46-1.27.41.46.72.89,1,1.22a8.71,8.71,0,0,1,7.46-4.22,8.41,8.41,0,0,1,2.08.26l2.34-3.49c0-.82-.28-1.41-.83-1.52-2-.38-2.53-.1-2.53,1.27S23.7,12,23.42,11.34s-.91-.39.14-1.58,2.45-.35,1-2a5.91,5.91,0,0,1-1.15-2.2l-1.15-.45C21.35,6,20.92,8.91,20,8ZM8.83,8.08c.35-.72,1,0,1.19-1.3s.32-1.69,1-1.12,1.06,1.26.18,2S8.2,9.27,8.83,8.08Zm-.63,9c-.74.75-1.37-4.17-1.37-4.17a15.74,15.74,0,0,1,1.06-2.56,1.61,1.61,0,0,1,2.43.19c.69.81,0,2.74,0,4.8S9,16.32,8.2,17.07Zm5.87,4.44c-.92,1.41-.67.75-2.74.92S8.14,20.76,10,20.85c.41-.09-.17-1.58.08-3.07s2.08.08,4.32,1.41S15,20.1,14.07,21.51Zm4-8c-.74.81-.12,2.3-1.68.93s-2.55-2.92-3.36.31c0,0-1.93-4.36.5-5.66S16.8,4.43,18,7.92,18.79,12.65,18,13.46Z" style="fill: #8ebb1a"/>
    <path d="M11.18,7.69c.88-.77.49-1.47-.18-2s-.77-.18-1,1.12-.84.58-1.19,1.3C8.2,9.27,10.3,8.46,11.18,7.69Z" style="fill: #e65120"/>
    <path d="M13.5,9c-2.43,1.3-.52,5.66-.5,5.66.81-3.23,1.8-1.68,3.36-.31s.94-.12,1.68-.93S19.16,11.4,18,7.92,15.93,7.73,13.5,9Z" style="fill: #417c2a"/>
    <path d="M10.08,17.78c-.25,1.49.33,3-.08,3.07-1.86-.09-.75,1.74,1.33,1.58s1.82.49,2.74-.92,2.57-1,.33-2.32S10.33,16.28,10.08,17.78Z" style="fill: #b8cb1e"/>
    <path d="M16.47,28.42h0l-2,2.94L9.91,27.22h0l-.42-.38L7.77,25.29l-.45-.4-.74-.67L0,18.29l.47-.7h0L10,3.72h0l.22-.32h0l1-1.48h0L12.1.59,23,4.91l0,0h0l7.25,2.86L26.83,13l.48.17,3.76-5.61L11.91,0-.64,18.36,14.59,32.1l3.26-4.86c-.11-.12-.23-.24-.33-.37Z" style="fill: #516d53"/>
    <path d="M12.28,1.19l10,4A.88.88,0,0,1,22.51,5a.82.82,0,0,1,.36-.1l.16.06L12.1.59l-.91,1.33a2.56,2.56,0,0,1,.49.16Z" style="fill: #516d53"/>
    <path d="M2.4,19.79.65,18.21l.09-.13a1.33,1.33,0,0,1-.26-.49l-.47.7,6.57,5.93L2.86,20.86A8.5,8.5,0,0,1,2.4,19.79Z" style="fill: #516d53"/>
    <path d="M23.08,4.93a1.67,1.67,0,0,1,.34.66L29.58,8l-.91,1.35a5.63,5.63,0,0,1,0,.91L26.83,13h0l3.5-5.21Z" style="fill: #516d53"/>
    <path d="M10.28,4.13l.69-1a2.87,2.87,0,0,0-.79.28L10,3.72A.79.79,0,0,0,10.28,4.13Z" style="fill: #516d53"/>
    <polygon points="7.77 25.29 9.49 26.84 9.19 26.57 7.77 25.29" style="fill: #516d53"/>
    <path d="M16.11,28.08l-1.7,2.53-3.89-3.5a.65.65,0,0,1-.61.11l4.59,4.14,2-2.94-.07,0A4,4,0,0,1,16.11,28.08Z" style="fill: #516d53"/>
    <polygon points="7.32 24.89 7.77 25.29 7.32 24.89 7.32 24.89" style="fill: #516d53"/>
    <path d="M8.91,25.65l-1.13-1c-.14.07-.3.15-.46.25l.45.4,1.42,1.28A2.31,2.31,0,0,1,8.91,25.65Z" style="fill: #516d53"/>
    <polygon points="11.19 1.92 10.18 3.4 10.18 3.4 11.19 1.92 11.19 1.92" style="fill: #516d53"/>
    <path d="M11.68,2.08a2.56,2.56,0,0,0-.49-.16l-1,1.48A2.87,2.87,0,0,1,11,3.12Z" style="fill: #516d53"/>
    <polygon points="9.96 3.72 0.48 17.59 0.48 17.59 9.96 3.72 9.96 3.72" style="fill: #516d53"/>
    <polygon points="16.47 28.42 16.47 28.42 17.52 26.87 17.52 26.87 16.47 28.42" style="fill: #516d53"/>
    <polygon points="23.08 4.93 23.03 4.91 23.09 4.93 23.08 4.93" style="fill: #516d53"/>
    <polygon points="6.58 24.22 7.32 24.89 7.32 24.89 6.58 24.22" style="fill: #516d53"/>
    <polygon points="9.91 27.22 9.91 27.22 9.49 26.84 9.91 27.22" style="fill: #516d53"/>
    <path d="M26.83,13l1.82-2.71a5.63,5.63,0,0,0,0-.91l-2.34,3.49Z" style="fill: #516d53"/>
    <path d="M17.2,26.45l-1.09,1.63a4,4,0,0,0,.29.3l.07,0,1.05-1.55Z" style="fill: #516d53"/>
    <path d="M22.51,5a.88.88,0,0,0-.24.19l1.15.45a1.67,1.67,0,0,0-.34-.66l0,0-.16-.06A.82.82,0,0,0,22.51,5Z" style="fill: #516d53"/>
    <path d="M7.78,24.64,2.4,19.79a8.5,8.5,0,0,0,.46,1.07l3.72,3.36.74.67C7.48,24.79,7.64,24.71,7.78,24.64Z" style="fill: #516d53"/>
    <path d="M10.52,27.11,8.91,25.65a2.31,2.31,0,0,0,.28.92l.3.27.42.38A.65.65,0,0,0,10.52,27.11Z" style="fill: #516d53"/>
    <path d="M10.28,4.13A.79.79,0,0,1,10,3.72L.48,17.59a1.33,1.33,0,0,0,.26.49Z" style="fill: #516d53"/>
    <polygon points="24.54 16.4 26.83 13 26.83 13 24.54 16.4" style="fill: #5bab26"/>
    <polygon points="17.86 26.35 17.86 26.35 21.28 21.26 21.28 21.26 17.86 26.35" style="fill: #5bab26"/>
    <polygon points="17.52 26.87 17.52 26.87 17.86 26.35 17.86 26.35 17.52 26.87" style="fill: #5bab26"/>
    <polygon points="24.36 16.68 24.54 16.4 24.36 16.68 24.36 16.68" style="fill: #5bab26"/>
    <polygon points="21.28 21.26 22.46 19.5 22.46 19.5 21.28 21.26 21.28 21.26" style="fill: #5bab26"/>
  </g>
  <polygon points="20.24 20.53 20.24 22.13 24.65 22.13 24.65 25.34 28.66 21.33 24.65 17.32 24.65 20.53 20.24 20.53" style="fill: #fff"/>
</svg>
