<svg id="ea7f81d5-b57e-4c22-9764-cc7d0fe185cc" data-name="Calque 1" xmlns="http://www.w3.org/2000/svg" width="32" height="32" viewBox="0 0 32 32">
  <title>places-92-32E4961A</title>
  <path d="M2.8,18a2,2,0,1,1,2-2A2,2,0,0,1,2.8,18Zm0-3a1,1,0,0,0,0,2,1,1,0,1,0,0-2Z" style="fill: #999"/>
  <path d="M10.57,12.76a2,2,0,1,1,2-2A2,2,0,0,1,10.57,12.76Zm0-3a1,1,0,1,0,1,1A1,1,0,0,0,10.57,9.73Z" style="fill: #999"/>
  <path d="M21.05,12.76a2,2,0,1,1,2-2A2,2,0,0,1,21.05,12.76Zm0-3a1,1,0,1,0,0,2,1,1,0,0,0,0-2Z" style="fill: #999"/>
  <path d="M10.57,23a2,2,0,1,1,2-2A2,2,0,0,1,10.57,23Zm0-3a1,1,0,1,0,1,1A1,1,0,0,0,10.57,19.93Z" style="fill: #999"/>
  <g>
    <g>
      <path d="M20.77,12.23A1.51,1.51,0,0,1,19.55,11a24.65,24.65,0,0,0-7.47-.14,1.52,1.52,0,0,1-1.36,1.43,24.71,24.71,0,0,0-.12,7.18,1.52,1.52,0,0,1,1.48,1.46,24.83,24.83,0,0,0,7.45.06h0a1.5,1.5,0,0,1,1.16-1.47A24.83,24.83,0,0,0,20.77,12.23Z" style="fill: none"/>
      <path d="M12.08,10.82a24.65,24.65,0,0,1,7.47.14,1.5,1.5,0,0,1,0-.22,1.52,1.52,0,0,1,.18-.7,25.74,25.74,0,0,0-7.88-.14,1.52,1.52,0,0,1,.26.84S12.08,10.79,12.08,10.82Z" style="fill: #999"/>
      <path d="M11.38,9.47a16.91,16.91,0,0,1,3.11-6.13l-.76-.64a17.66,17.66,0,0,0-3.32,6.54h.16A1.51,1.51,0,0,1,11.38,9.47Z" style="fill: #999"/>
      <path d="M9.09,10.43A14.6,14.6,0,0,0,2.46,14l.71.71a13.59,13.59,0,0,1,6-3.27,1.6,1.6,0,0,1-.15-.66A1.65,1.65,0,0,1,9.09,10.43Z" style="fill: #999"/>
      <path d="M21.16,9.24a14.66,14.66,0,0,0-3.53-6.58l-.7.71a13.76,13.76,0,0,1,3.29,6.11,1.48,1.48,0,0,1,.83-.25Z" style="fill: #999"/>
      <path d="M16.9,28.46l.76.65A17.83,17.83,0,0,0,21,22.46a1.54,1.54,0,0,1-.93-.35A17,17,0,0,1,16.9,28.46Z" style="fill: #999"/>
      <path d="M10.6,19.43a24.71,24.71,0,0,1,.12-7.18h-.15a1.56,1.56,0,0,1-.77-.21,26.32,26.32,0,0,0-.12,7.67,1.53,1.53,0,0,1,.89-.29Z" style="fill: #999"/>
      <path d="M22.51,21.32a14.46,14.46,0,0,0,6.42-3.48l-.7-.71a13.44,13.44,0,0,1-5.79,3.21,1.54,1.54,0,0,1,.12.61A1.5,1.5,0,0,1,22.51,21.32Z" style="fill: #999"/>
      <path d="M20.77,12.23a24.83,24.83,0,0,1-.08,7.25,1.36,1.36,0,0,1,.36-.05,1.56,1.56,0,0,1,.57.11,26.14,26.14,0,0,0,.09-7.44,1.46,1.46,0,0,1-.66.16A1.27,1.27,0,0,1,20.77,12.23Z" style="fill: #999"/>
      <path d="M22.27,11.63a16.83,16.83,0,0,1,6,3.07l.64-.77a17.64,17.64,0,0,0-6.34-3.25v.06A1.5,1.5,0,0,1,22.27,11.63Z" style="fill: #999"/>
      <path d="M10.2,22.41a14.71,14.71,0,0,0,3.56,6.73l.7-.71a13.74,13.74,0,0,1-3.29-6.09,1.49,1.49,0,0,1-1,.07Z" style="fill: #999"/>
      <path d="M9.25,20.21A16.94,16.94,0,0,1,3.13,17.1l-.64.77A18,18,0,0,0,9.08,21.2a1.07,1.07,0,0,1,0-.25A1.54,1.54,0,0,1,9.25,20.21Z" style="fill: #999"/>
      <path d="M12.08,20.89s0,0,0,.06a1.51,1.51,0,0,1-.27.86,26.43,26.43,0,0,0,4.26.36,26.17,26.17,0,0,0,3.78-.29,1.53,1.53,0,0,1-.33-.93A24.83,24.83,0,0,1,12.08,20.89Z" style="fill: #999"/>
      <path d="M19.86,21.88a1.58,1.58,0,0,0,.22.23c0-.09.07-.18.09-.27Z" style="fill: #fff"/>
    </g>
    <path d="M21.05,23a2,2,0,1,1,2-2A2,2,0,0,1,21.05,23Zm0-3a1,1,0,1,0,0,2,1,1,0,0,0,0-2Z" style="fill: #999"/>
  </g>
  <path d="M15.46,30.85a2,2,0,1,1,2-2A2,2,0,0,1,15.46,30.85Zm0-3a1,1,0,1,0,1,1A1,1,0,0,0,15.46,27.82Z" style="fill: #999"/>
  <path d="M15.46,5.12a2,2,0,1,1,2-2A2,2,0,0,1,15.46,5.12Zm0-3a1,1,0,1,0,1,1A1,1,0,0,0,15.46,2.08Z" style="fill: #999"/>
  <g>
    <g>
      <path d="M16.9,3.56a1.51,1.51,0,0,1-2.85.1,12.5,12.5,0,0,0-10.59,11,1.51,1.51,0,0,1,0,2.73A12.5,12.5,0,0,0,14,28.35a1.51,1.51,0,0,1,2.89.1,12.51,12.51,0,0,0,11.38-11,1.51,1.51,0,0,1,0-2.85A12.5,12.5,0,0,0,16.9,3.56Z" style="fill: none"/>
      <path d="M16.9,3.56a12.5,12.5,0,0,1,11.39,11,1.5,1.5,0,0,1,.52-.09,1.33,1.33,0,0,1,.49.09,13.47,13.47,0,0,0-12.43-12A1.41,1.41,0,0,1,17,3.1,1.44,1.44,0,0,1,16.9,3.56Z" style="fill: #999"/>
      <path d="M14,28.35a12.5,12.5,0,0,1-10.57-11,1.6,1.6,0,0,1-.66.15,1.75,1.75,0,0,1-.33,0,13.49,13.49,0,0,0,11.58,11.9,1.41,1.41,0,0,1-.11-.54A1.57,1.57,0,0,1,14,28.35Z" style="fill: #999"/>
      <path d="M3.46,14.63a12.5,12.5,0,0,1,10.59-11,1.51,1.51,0,0,1-.11-.56A1.63,1.63,0,0,1,14,2.65,13.48,13.48,0,0,0,2.47,14.52a1.24,1.24,0,0,1,.33,0A1.6,1.6,0,0,1,3.46,14.63Z" style="fill: #999"/>
      <path d="M28.3,17.42a12.51,12.51,0,0,1-11.38,11,1.26,1.26,0,0,1,.06.38,1.46,1.46,0,0,1-.14.63,13.49,13.49,0,0,0,12.47-12,1.46,1.46,0,0,1-1,0Z" style="fill: #999"/>
    </g>
    <path d="M28.81,18a2,2,0,1,1,2-2A2,2,0,0,1,28.81,18Zm0-3a1,1,0,1,0,1,1A1,1,0,0,0,28.81,15Z" style="fill: #999"/>
  </g>
</svg>
