<svg id="afe08f74-f94c-4480-91ae-1ed0ea86ab34" data-name="Calque 1" xmlns="http://www.w3.org/2000/svg" width="32" height="32" viewBox="0 0 32 32">
  <title>phyto-55-IconeNematicide</title>
  <path d="M2.4,5.07V3.77A1.09,1.09,0,0,1,3.49,2.69H5.31A1.09,1.09,0,0,1,6.39,3.77v1.3" style="fill: #6e6a69"/>
  <path d="M16.28,16.41h-.11a2.23,2.23,0,0,0-.47.06,2.4,2.4,0,0,0-1.82,1.79,2.36,2.36,0,0,1-2.31,1.66h-.12c.39.44.7.85.9,1.12h.09a3.66,3.66,0,0,0,.89-.13,4,4,0,0,1,1-.12A4,4,0,0,1,17.18,22a2.47,2.47,0,0,1,.54-.05L18,22a8,8,0,0,1-1.46-4.27A3.21,3.21,0,0,0,16.28,16.41Z" style="fill: #ccc"/>
  <g>
    <path d="M11.21,17.84c-.48-.36.28-4,4-4.54a3.76,3.76,0,0,1,4.5,4c-.16,1.16,1.33,4.72,4,4.74s3.11-.81,3.57-4.05c-.05-1.27.24-1.38.62-1.35s1.89,6.94-4,6.72a6.06,6.06,0,0,1-5.48-5.69c-.07-2.11-.7-3.69-3.2-3.18A4.45,4.45,0,0,0,12,17.66c-.13.42-.76.18-.76.18" style="fill: #736357"/>
    <path d="M17.18,24.3s1.45.17,1.22,1.24-1.22.11-1.65-.68-1.33-2.43-2.94-2-2.63.14-3-.5-2.9-3.69-4.13-2.61.23.05,1.35,1.36,2.88,3.42,4.27,3.11,2.29-.39,3.65,1.86,3.65.73,3.41-.58-1.92-1.9-2.2-1.17" style="fill: #736357"/>
  </g>
  <path d="M20.58,2.62H12.12c-2.77,0-2.55,3.93-5.83,3.93H2.43A1.4,1.4,0,0,0,1,8L.49,12.56V22.74l.55,6a1.4,1.4,0,0,0,1.39,1.4H20.58a1.4,1.4,0,0,0,1.4-1.4l.36-3.67a8.12,8.12,0,0,1-1.11-.4c0,.14.09.27.12.42a3.32,3.32,0,0,1-.76,2.72A3.79,3.79,0,0,1,17.7,29.2a4,4,0,0,1-3.43-2.12c-.55-.9-.83-1-.84-1h0a4.18,4.18,0,0,0-.68.11,3.36,3.36,0,0,1-.71.08c-2.23,0-4.08-2.17-5.43-3.75l-.08-.09c0-.05,0-.05-.26-.07a2.14,2.14,0,0,1-1.95-1.47,2.45,2.45,0,0,1,1-2.62,2.92,2.92,0,0,1,2-.73h0a4,4,0,0,1,1.82.5,3.76,3.76,0,0,1,.09-1.7,6.8,6.8,0,0,1,5.69-5A7.11,7.11,0,0,1,16,11.24a5.44,5.44,0,0,1,4.21,1.84,6.21,6.21,0,0,1,1.48,4.43,4,4,0,0,0,.81,1.75v-6.6L22,4A1.4,1.4,0,0,0,20.58,2.62ZM18.65,6.33H13.91a1,1,0,0,1,0-2.1h4.74a1,1,0,1,1,0,2.1Z" style="fill: #ccc"/>
</svg>
