<svg id="a73d6d3d-7988-4352-a332-f3c01f7dae64" data-name="Calque 1" xmlns="http://www.w3.org/2000/svg" width="32" height="32" viewBox="0 0 32 32">
  <title>money-32-IconeEconomique</title>
  <g>
    <polygon points="32 11.04 22.17 4.95 15.98 7.12 24.47 13.63 32 11.04" style="fill: #6f8151"/>
    <polygon points="0.05 12.7 9.56 18.74 17.24 16.1 8.79 9.64 0.05 12.7" style="fill: #6f8151"/>
    <polygon points="32 19.51 32 18.55 24.62 21.11 24.63 22.07 32 19.51" style="fill: #6f8151"/>
    <polygon points="9.56 26.32 0.05 20.29 0.05 21.25 9.56 27.29 17.43 24.56 17.42 23.6 9.56 26.32" style="fill: #6f8151"/>
    <polygon points="9.56 24.19 0.05 18.15 0.05 19.11 9.56 25.15 17.4 22.43 17.39 21.48 9.56 24.19" style="fill: #6f8151"/>
    <polygon points="32 17.38 32 16.41 24.59 18.98 24.6 19.94 32 17.38" style="fill: #6f8151"/>
    <polygon points="32 15.24 32 14.28 24.56 16.85 24.57 17.81 32 15.24" style="fill: #6f8151"/>
    <polygon points="9.56 22.05 0.05 16.01 0.05 16.97 9.56 23.01 17.37 20.3 17.36 19.35 9.56 22.05" style="fill: #6f8151"/>
    <polygon points="24.55 15.72 32 13.14 32 12.17 24.53 14.76 24.55 15.72" style="fill: #6f8151"/>
    <polygon points="23.03 14.41 14.13 7.59 10.31 8.91 18.83 15.56 18.81 15.57 18.92 24.19 23.14 22.73 23.03 14.41" style="fill: #f9b400"/>
    <polygon points="9.56 19.95 0.05 13.91 0.05 14.87 9.56 20.91 17.34 18.21 17.33 17.25 9.56 19.95" style="fill: #6f8151"/>
  </g>
</svg>
