<svg id="b5e2c21b-13e9-455a-a6ca-e43a928685b1" data-name="Calque 1" xmlns="http://www.w3.org/2000/svg" width="32" height="32" viewBox="0 0 32 32">
  <title>box-61-IconeStockAppro</title>
  <rect x="9" y="17.04" width="9.83" height="5.96" style="fill: #b2957c"/>
  <rect x="20" y="17" width="9.83" height="5.96" style="fill: #b2957c"/>
  <rect x="9" y="10.04" width="9.83" height="5.96" style="fill: #b2957c"/>
  <rect x="20" y="10" width="9.83" height="5.96" style="fill: #b2957c"/>
  <rect x="3" y="25" width="3.91" height="2" transform="translate(9.91 52) rotate(-180)" style="fill: #8f8f8f"/>
  <rect x="3" y="5" width="3.91" height="2" transform="translate(9.91 12) rotate(-180)" style="fill: #8f8f8f"/>
  <rect x="5" y="21" width="1.91" height="2" transform="translate(11.91 44) rotate(-180)" style="fill: #8f8f8f"/>
  <rect x="5" y="17" width="1.91" height="2" transform="translate(11.91 36) rotate(-180)" style="fill: #8f8f8f"/>
  <rect x="5" y="13" width="1.91" height="2" transform="translate(11.91 28) rotate(-180)" style="fill: #8f8f8f"/>
  <rect x="5" y="9" width="1.91" height="2" transform="translate(11.91 20) rotate(-180)" style="fill: #8f8f8f"/>
</svg>
