<svg id="bee9453b-7c85-4dd3-8192-e2e4b6f3b2a8" data-name="Calque 1" xmlns="http://www.w3.org/2000/svg" width="32" height="32" viewBox="0 0 32 32">
  <title>vegetal-79-IconeHarvest.Breed</title>
  <path d="M16.83,19.36,22.14,12c-.49-6.85-2.8-12-5.57-12S11.48,5.23,11,12.12C13.89,12.37,15.74,16,16.83,19.36Z" style="fill: #fdc800"/>
  <path d="M24,15.27c.21-1.94.23-3.29.23-3.29L16,22.9s-2.63-12.77-7.08-8.49S5,25.31,5,25.31s4.66-9.11,4.66-3.73a7.27,7.27,0,0,0,4.45,7v2.63h3.65V28.55C21,27.83,23.41,23.94,24,15.27Z" style="fill: #6da200"/>
</svg>
