<svg id="e8403d40-86f1-4cc7-9d61-7833444bcf9c" data-name="Calque 1" xmlns="http://www.w3.org/2000/svg" width="32" height="32" viewBox="0 0 32 32">
  <title>time-95-IconeModeCalendrier</title>
  <g>
    <path d="M3.84,28.5a2.34,2.34,0,0,1-2.33-2.34V11.5h29V26.16a2.34,2.34,0,0,1-2.34,2.34Z" style="fill: #fff"/>
    <path d="M30,12V26.16A1.84,1.84,0,0,1,28.17,28H3.84A1.83,1.83,0,0,1,2,26.16V12H30m1-1H1V26.16A2.84,2.84,0,0,0,3.84,29H28.17A2.84,2.84,0,0,0,31,26.16V11Z" style="fill: #868789"/>
  </g>
  <path d="M24,3.5a1.5,1.5,0,0,0-3,0v4a1.5,1.5,0,0,0,3,0Z" style="fill: #868789"/>
  <path d="M11,3.5a1.5,1.5,0,0,0-3,0v4a1.5,1.5,0,0,0,3,0Z" style="fill: #868789"/>
  <path d="M28.4,6H25.05a0,0,0,0,0,0,0V7.32A2.62,2.62,0,0,1,22.74,10,2.51,2.51,0,0,1,20,7.5V6a0,0,0,0,0,0,0H12.05a0,0,0,0,0,0,0V7.32A2.62,2.62,0,0,1,9.74,10,2.51,2.51,0,0,1,7,7.5V6A0,0,0,0,0,7,6H3.61A2.6,2.6,0,0,0,1,8.56V11a10.25,10.25,0,0,1,0,1H31a10.25,10.25,0,0,1,0-1V8.63s0,0,0,0A2.59,2.59,0,0,0,28.4,6Z" style="fill: #b9251c"/>
  <g>
    <path d="M3.61,6A2.6,2.6,0,0,0,1,8.56V11a10.25,10.25,0,0,1,0,1H2V8.58A1.61,1.61,0,0,1,3.61,7H7V6Z" style="fill: #881e17"/>
    <path d="M31,8.6A2.59,2.59,0,0,0,28.4,6H25V7H28.4A1.6,1.6,0,0,1,30,8.6v.18h0v2.12s0,0,0,1.09h1a10.25,10.25,0,0,1,0-1V8.63S31,8.61,31,8.6Z" style="fill: #881e17"/>
    <rect x="12.01" y="6" width="8" height="1" style="fill: #881e17"/>
  </g>
</svg>
