<svg id="ebdcf710-a6cb-4428-93b4-9a65d2d9d390" data-name="Calque 1" xmlns="http://www.w3.org/2000/svg" width="32" height="32" viewBox="0 0 32 32">
  <path d="M25.5,20.47a2.48,2.48,0,0,1-.19,1,2.37,2.37,0,0,1-.49.76,2.16,2.16,0,0,1-.72.48,2.13,2.13,0,0,1-.86.17,2.17,2.17,0,0,1-.89-.17,1.94,1.94,0,0,1-.71-.48,2.17,2.17,0,0,1-.47-.76,2.87,2.87,0,0,1-.17-1,3,3,0,0,1,.17-1,2.17,2.17,0,0,1,.47-.78,2.1,2.1,0,0,1,.71-.49,2.44,2.44,0,0,1,1.79,0,2.14,2.14,0,0,1,.72.49,2.17,2.17,0,0,1,.47.78A3,3,0,0,1,25.5,20.47Zm3.24-2.1a1.21,1.21,0,0,1,.2-.19.63.63,0,0,1,.34-.08h1.21l-7.23,9.53a.91.91,0,0,1-.21.18.66.66,0,0,1-.3.07H21.51Zm-4.52,2.1a2.48,2.48,0,0,0-.08-.66,1.1,1.1,0,0,0-.21-.42.73.73,0,0,0-.31-.24,1.17,1.17,0,0,0-.38-.07,1.11,1.11,0,0,0-.37.07.7.7,0,0,0-.3.24,1.1,1.1,0,0,0-.2.42,2.48,2.48,0,0,0-.08.66,2.25,2.25,0,0,0,.08.63,1,1,0,0,0,.2.41.65.65,0,0,0,.3.22.9.9,0,0,0,.37.07,1,1,0,0,0,.38-.07.68.68,0,0,0,.31-.22,1.06,1.06,0,0,0,.21-.41A2.25,2.25,0,0,0,24.22,20.47ZM31,25.58a2.48,2.48,0,0,1-.19,1,2.21,2.21,0,0,1-.49.76,2.36,2.36,0,0,1-.72.49,2.27,2.27,0,0,1-.86.17,2.35,2.35,0,0,1-.89-.17,2.1,2.1,0,0,1-.71-.49,2.17,2.17,0,0,1-.47-.76,2.87,2.87,0,0,1-.17-1,3,3,0,0,1,.17-1,2.36,2.36,0,0,1,.47-.78,2.1,2.1,0,0,1,.71-.49,2.44,2.44,0,0,1,1.79,0,2.14,2.14,0,0,1,.72.49,2.54,2.54,0,0,1,.47.78A3,3,0,0,1,31,25.58Zm-1.29,0a2.52,2.52,0,0,0-.07-.66,1.18,1.18,0,0,0-.21-.42.73.73,0,0,0-.31-.24,1.12,1.12,0,0,0-.38-.07,1.11,1.11,0,0,0-.37.07.79.79,0,0,0-.31.24,1.16,1.16,0,0,0-.19.42,2.48,2.48,0,0,0-.08.66,2.25,2.25,0,0,0,.08.63,1.09,1.09,0,0,0,.19.42.74.74,0,0,0,.31.22.9.9,0,0,0,.37.07.92.92,0,0,0,.38-.07.68.68,0,0,0,.31-.22,1.1,1.1,0,0,0,.21-.42A2.28,2.28,0,0,0,29.71,25.58Z" style="fill: #333"/>
  <g>
    <path d="M11.77,14C8.27,11.37,4.12,11,2.51,13.2s-.07,6,3.44,8.63,7.65,2.93,9.26.76S15.28,16.55,11.77,14ZM3.5,14c.68-.93,10.31,7.17,10.09,7.46S2.82,14.88,3.5,14Z" style="fill: #dd932e"/>
    <path d="M6.55,10.31c-.31-2.86-.45-5.53-.28-5.56a29.07,29.07,0,0,1,1.41,5.72,10.57,10.57,0,0,1,1.57.44A4.65,4.65,0,0,1,9.2,9.29a5,5,0,0,1,1.65-3A6.32,6.32,0,0,0,7.27,2.87v0A1.3,1.3,0,0,0,5.79,1.76a1.31,1.31,0,0,0-1.1,1.48v0c-1.92,1.22-3,4.46-2.43,8.05v0A6.24,6.24,0,0,1,6.55,10.31Z" style="fill: #dd932e"/>
    <path d="M26.3,11.84c.4-2.67-2.77-5.36-7.09-6s-8.13,1-8.53,3.68,2.77,5.36,7.08,6S25.9,14.52,26.3,11.84ZM11.91,9.72c.17-1.14,12.46,1.49,12.41,1.86S11.74,10.85,11.91,9.72Z" style="fill: #dd932e"/>
  </g>
</svg>
