<svg id="aa011618-dda5-4851-b56a-898c323bac0a" data-name="Calque 1" xmlns="http://www.w3.org/2000/svg" width="32" height="32" viewBox="0 0 32 32">
  <title>map-64-IconePointEau</title>
  <path d="M16,0A11.76,11.76,0,0,0,5.53,17.12c.2.39,1.09,1.73,1.09,1.73L16,32l9.38-13.17s.89-1.34,1.09-1.73A11.76,11.76,0,0,0,16,0Z" style="fill: #1c7bc0"/>
  <path d="M16,18.3a4.77,4.77,0,0,0,4.77-4.77,4.67,4.67,0,0,0-.53-2.17c-.08-.16-.44-.7-.44-.7a39.57,39.57,0,0,1-3.8-7c-.71,2.68-3.8,7-3.8,7s-.36.54-.44.7a4.67,4.67,0,0,0-.53,2.17A4.77,4.77,0,0,0,16,18.3Z" style="fill: #fff"/>
</svg>
