<svg id="a718c6c1-b27f-4fe1-bfdb-9f9e3617f083" data-name="Calque 1" xmlns="http://www.w3.org/2000/svg" width="32" height="32" viewBox="0 0 32 32">
  <title>vehicles-21-IconeOperation</title>
  <g>
    <path d="M9.32,7.69A5.3,5.3,0,1,0,14.61,13,5.3,5.3,0,0,0,9.32,7.69Zm0,8.69A3.39,3.39,0,1,1,12.71,13,3.39,3.39,0,0,1,9.32,16.38Z" style="fill: #6f7071"/>
    <path d="M26.68,10.44a4.12,4.12,0,0,0-5.88,2.9,4.28,4.28,0,0,0-.08.81,4.14,4.14,0,1,0,6-3.71Zm-1.82,6.35a2.65,2.65,0,1,1,2.64-2.64A2.65,2.65,0,0,1,24.86,16.79Z" style="fill: #6f7071"/>
    <path d="M26,7.69c-.65-.86-8.32-1.21-8.32-1.21l-.81-4.84A14.15,14.15,0,0,0,12.6.93a17.66,17.66,0,0,0-3.81.25l-.38.66.91.55L8.79,6.33A6.05,6.05,0,0,0,5.13,8l.31.56a5.89,5.89,0,0,1,9.47,6.31l.42.2h4.91l0-1.72a4.73,4.73,0,0,1,6.4-3.6A4.87,4.87,0,0,0,26,7.69ZM13,5.76l-2.29-.65.47-2.55h4.11l.51,3.2Z" style="fill: #e1001a"/>
  </g>
  <path d="M24,25.49h0l-.15,0-.88-.31-.05,0h0a1,1,0,0,1-.71-1,1,1,0,0,1,.65-1l.4-.19.63-.31h0l-.45-.92-.63-1.34h0l-.21.1-.77.37,0,0-.06,0a1,1,0,0,1-1.21-.22,1,1,0,0,1-.24-1.16l.34-.95,0-.13h0L19.54,18l-1.3-.46h0l-.09.25-.32.91a1,1,0,0,1-1,.67,1,1,0,0,1-1-.65l-.45-.94-.05-.09h0l-.95.46-1.3.62h0l.54,1.13a1.08,1.08,0,0,1-1.4,1.41L11.14,21l-.33.95-.08.23-.42,1.18h0l.23.08.8.28h0l.1,0a1.08,1.08,0,0,1,0,2l-.61.29-.42.2h0l.4.82.68,1.43h0l1-.47,0,0,.07,0a1,1,0,0,1,1.2.22,1,1,0,0,1,.23,1.16c0,.1-.07.2-.1.29l-.28.79h0l1,.34,1.37.48h0l0-.08.33-.95s0,0,0-.06v0a1,1,0,0,1,1-.71,1,1,0,0,1,1,.64l.49,1h0l.95-.47L21.2,30h0l-.05-.1L20.73,29a.43.43,0,0,0,0-.07,1,1,0,0,1,.21-1.23,1,1,0,0,1,1.16-.24l.4.14.68.24h0l.37-1.06.45-1.3Zm-5.35,2a3.39,3.39,0,1,1,1.6-4.51A3.39,3.39,0,0,1,18.61,27.45Z" style="fill: #77787a"/>
</svg>
