<svg id="b07c0392-dda2-41c3-92e1-46340e2c2ce7" data-name="Calque 1" xmlns="http://www.w3.org/2000/svg" width="32" height="32" viewBox="0 0 32 32">
  <title>flag-51-IconeImportTelepac</title>
  <path d="M25.28,31.93A6.73,6.73,0,1,1,32,25.21,6.74,6.74,0,0,1,25.28,31.93Z" style="fill: #0499d1"/>
  <polygon points="28.82 22.8 27.69 21.66 24.57 24.78 22.3 22.52 22.3 28.18 27.97 28.18 25.7 25.92 28.82 22.8" style="fill: #fff"/>
  <g>
    <path d="M7.18,12.6,7,12.66l-.23.09c-.22.08-.24.19,0,.16l.34-.05a1,1,0,0,0,.27-.07l.08,0-.14-.07Z" style="fill: none"/>
    <path d="M8.69,8.88c.05,0,.07,0,.05,0h-.1S8.63,8.88,8.69,8.88Z" style="fill: #1f3172"/>
  </g>
  <g>
    <polygon points="3.2 0 3.2 0.03 12.23 0 3.2 0" style="fill: #fff"/>
    <path d="M19.18,17.75a3.64,3.64,0,0,1,.94-1,1.74,1.74,0,0,1,1-.13c.29,0,1.07.15,1.57.24a9,9,0,0,1,1.89-.37.88.88,0,0,0,.16-.32,1.09,1.09,0,0,0,0-.76c-.12-.25-.1-.31.2-.61a1.93,1.93,0,0,0,.28-.29,1,1,0,0,0-.27-.49.3.3,0,0,1-.14-.07l-.08-.07.18-.09c.24-.13.43-.33.43-.46a.89.89,0,0,0-.12-.33.67.67,0,0,1-.08-.58c0-.08.12-.12.5-.23s.45-.19.49-.4a.67.67,0,0,0-.08-.5c-.09-.17-.65-1-.82-1.24a4,4,0,0,1-.56-1,.89.89,0,0,1,0-.61A4.84,4.84,0,0,0,24.32,6a7.64,7.64,0,0,0-.4-1.21c-.14-.29-.12-.36.17-.6a2,2,0,0,0,.29-.28.51.51,0,0,0-.18-.58c-.1-.05-.16,0-.27.19s-.12.18-.21.18-.17-.06-.07-.19.1-.17-.07-.19-.2-.07-.47-.34A3.2,3.2,0,0,0,22,2.2c-.23-.1-.31-.15-.22-.13l.55,0c.68,0,.84,0,1-.54s.16-.49-.09-.72L22.35,0H12.23l-.5.33A3.67,3.67,0,0,0,11,.75,4.13,4.13,0,0,0,10,2.21a.49.49,0,0,1-.24.31A3,3,0,0,0,9,3.31,18.12,18.12,0,0,0,8,5.08c-.18.45-.16.78.1,2.11.12.58.24,1.17.28,1.32A3.09,3.09,0,0,1,8.46,9a1.33,1.33,0,0,0,.2.65,1.26,1.26,0,0,1,.08.23.14.14,0,0,0,.07.11.19.19,0,0,1,.07.14c0,.06.09.18.27.38a3,3,0,0,1,.72,1c0,.11-.16.14-.43.08S8,12.86,6.7,13.52a1.05,1.05,0,0,0,.62.06,4.14,4.14,0,0,0,1.83-.67c.15-.13.28-.18.28-.12a4.34,4.34,0,0,1-.3.93c-.1.17-.1.2-.05.24s.05,0,0,.06,0,0,.05,0,.09.08-.1.13-.33.13-.33.19,0,0,0,0,0,.07-.09.1-.1,0-.07.05,0,0,0,0-.05,0-.05.08,0,.1-.11.13-.13.12.12.1h.17l-.45.21-.64.27c-.15,0-.24.1-.25.14s.05.06.23,0,0,0,0,0a8,8,0,0,1-.84.49,7.69,7.69,0,0,0-1,.58.47.47,0,0,1-.19.12.14.14,0,0,0-.11.09c-.07.16-.06.18.11.15s.37,0,.39,0S6.08,17,6,17a.14.14,0,0,0-.11,0,.3.3,0,0,1-.15.07.24.24,0,0,0-.17.12.31.31,0,0,1-.14.14h.12a5.55,5.55,0,0,0,2.62-.52,6.2,6.2,0,0,0,1.57-1.14l.24-.22c.06,0,0,.21,0,.39a2.86,2.86,0,0,1-1.08,1,4.4,4.4,0,0,1-.76.44,9.74,9.74,0,0,1-1.35.28,6.9,6.9,0,0,0-3.05.87.72.72,0,0,1-.25.13s-.12,0-.19.1a.23.23,0,0,0-.07.08l.15,0,.28-.13c.42-.22.61-.25.28-.05a1.32,1.32,0,0,1-.56.18c-.12.05-.18.06-.15,0h0V19H4.33l1-.21a7.7,7.7,0,0,1,1.78-.25,2.67,2.67,0,0,0,1.33-.27c.15-.07.21-.09.23-.05s.29-.08.78-.43c.2-.14.48-.32.63-.4s.29-.14.39-.12.15,0,.29-.12a1.78,1.78,0,0,1,1.09-.52c.1,0,.14,0,.14.06s0,.05.05,0,.06,0-.2.2-.28.29,0,.08.3-.21.3-.12-.11.16-.32.34a11.09,11.09,0,0,0-1.31,1.28l-.46.49h8.46l.08-.22A4.81,4.81,0,0,1,19.18,17.75ZM21.71,8a4,4,0,0,1,1.64-.47,2.69,2.69,0,0,1,.8.19c.14.11,0,.49-.25.69l-.11.08.09.09.08.09-.08.07a.33.33,0,0,1-.15.07.47.47,0,0,0-.18.11c-.1.1-.11.13-.08.2a.2.2,0,0,1,0,.17.56.56,0,0,0,0,.27c0,.24,0,.33-.19.38a3.23,3.23,0,0,1-.83,0c-.15,0-.07-.08.12-.08s.3-.08.3-.22,0-.08-.08-.06a.1.1,0,0,1-.13,0c0-.05-.11-.08-.23-.1s-.54-.23-.48-.29a.67.67,0,0,1,.24-.05c.19,0,.2,0,.24-.14a.2.2,0,0,1,.14-.15.47.47,0,0,0,.19-.11l.36-.26c.26-.17.41-.34.36-.4a2.45,2.45,0,0,0-.87-.1,4.77,4.77,0,0,0-1,.22C21.34,8.26,21.4,8.19,21.71,8Z" style="fill: #fff"/>
    <path d="M22.66,16.89c-.5-.09-1.28-.22-1.57-.24a1.74,1.74,0,0,0-1,.13,3.64,3.64,0,0,0-.94,1,4.81,4.81,0,0,0-.52,1l-.08.22h.58A8.66,8.66,0,0,1,22.66,16.89Z" style="fill: #bf3628"/>
    <path d="M23.34,1.57c-.16.49-.32.57-1,.54l-.55,0c-.09,0,0,0,.22.13a3.2,3.2,0,0,1,1.1.78c.27.27.34.32.47.34s.17.05.07.19-.07.19.07.19.12,0,.21-.18.17-.24.27-.19a.51.51,0,0,1,.18.58,2,2,0,0,1-.29.28c-.29.24-.31.31-.17.6A7.64,7.64,0,0,1,24.32,6a4.84,4.84,0,0,1,.3,2.44.89.89,0,0,0,0,.61,4,4,0,0,0,.56,1c.17.21.73,1.07.82,1.24a.67.67,0,0,1,.08.5c0,.21-.16.31-.49.4s-.46.15-.5.23a.67.67,0,0,0,.08.58.89.89,0,0,1,.12.33c0,.13-.19.33-.43.46l-.18.09.08.07a.3.3,0,0,0,.14.07,1,1,0,0,1,.27.49,1.93,1.93,0,0,1-.28.29c-.3.3-.32.36-.2.61a1.09,1.09,0,0,1,0,.76.88.88,0,0,1-.16.32c.25,0,.49,0,.74,0A8.68,8.68,0,0,1,31.42,19H32V0H22.35l.9.85C23.5,1.08,23.45,1.23,23.34,1.57Z" style="fill: #bf3628"/>
    <path d="M3.29,18.73c.07-.06.15-.11.19-.1a.72.72,0,0,0,.25-.13,6.9,6.9,0,0,1,3.05-.87,9.74,9.74,0,0,0,1.35-.28,4.4,4.4,0,0,0,.76-.44,2.86,2.86,0,0,0,1.08-1c.08-.18.11-.39,0-.39l-.24.22a6.2,6.2,0,0,1-1.57,1.14,5.55,5.55,0,0,1-2.62.52H5.47a.31.31,0,0,0,.14-.14.24.24,0,0,1,.17-.12.3.3,0,0,0,.15-.07A.14.14,0,0,1,6,17s.07,0,.06-.05-.14-.05-.39,0-.18,0-.11-.15a.14.14,0,0,1,.11-.09.47.47,0,0,0,.19-.12,7.69,7.69,0,0,1,1-.58,8,8,0,0,0,.84-.49s0,0,0,0-.25.07-.23,0,.1-.09.25-.14l.64-.27.45-.21H8.6c-.25,0-.3,0-.12-.1s.11-.08.11-.13,0-.08.05-.08,0,0,0,0,0,0,.07-.05.19-.1.09-.1,0,0,0,0,.15-.14.33-.19.22-.09.1-.13-.06,0-.05,0,0,0,0-.06-.05-.07.05-.24a4.34,4.34,0,0,0,.3-.93c0-.06-.13,0-.28.12a4.14,4.14,0,0,1-1.83.67,1.05,1.05,0,0,1-.62-.06c1.32-.66,2.47-1.93,2.74-1.86s.43,0,.43-.08a3,3,0,0,0-.72-1c-.18-.2-.27-.32-.27-.38A.19.19,0,0,0,8.81,10a.14.14,0,0,1-.07-.11,1.26,1.26,0,0,0-.08-.23A1.33,1.33,0,0,1,8.46,9a3.09,3.09,0,0,0-.09-.53c0-.15-.16-.74-.28-1.32C7.83,5.86,7.81,5.53,8,5.08A18.12,18.12,0,0,1,9,3.31a3,3,0,0,1,.72-.79A.49.49,0,0,0,10,2.21,4.13,4.13,0,0,1,11,.75a3.67,3.67,0,0,1,.71-.42l.5-.33-9,0H0v18.9c1.78,0,2.69-.07,3.2-.13h0A.23.23,0,0,1,3.29,18.73Z" style="fill: #4f5c91"/>
    <path d="M11.89,17.24c.21-.18.32-.3.32-.34s0-.09-.3.12-.34.15,0-.08.3-.24.2-.2-.05,0-.05,0,0-.06-.14-.06a1.78,1.78,0,0,0-1.09.52c-.14.13-.17.14-.29.12s-.17,0-.39.12-.43.26-.63.4c-.49.35-.75.48-.78.43s-.08,0-.23.05a2.67,2.67,0,0,1-1.33.27,7.7,7.7,0,0,0-1.78.25l-1,.21h5.79l.46-.49A11.09,11.09,0,0,1,11.89,17.24Z" style="fill: #4f5c91"/>
    <path d="M21.56,8.18a4.77,4.77,0,0,1,1-.22,2.45,2.45,0,0,1,.87.1c.05.06-.1.23-.36.4l-.36.26a.47.47,0,0,1-.19.11.2.2,0,0,0-.14.15c0,.11-.05.12-.24.14a.67.67,0,0,0-.24.05c-.06.06.28.26.48.29s.2,0,.23.1a.1.1,0,0,0,.13,0c.06,0,.08,0,.08.06s-.11.22-.3.22-.27.06-.12.08a3.23,3.23,0,0,0,.83,0c.17,0,.22-.14.19-.38a.56.56,0,0,1,0-.27.2.2,0,0,0,0-.17c0-.07,0-.1.08-.2a.47.47,0,0,1,.18-.11.33.33,0,0,0,.15-.07L24,8.68l-.08-.09-.09-.09.11-.08c.24-.2.39-.58.25-.69a2.69,2.69,0,0,0-.8-.19A4,4,0,0,0,21.71,8C21.4,8.19,21.34,8.26,21.56,8.18Z" style="fill: #7f7f7f"/>
  </g>
</svg>
