<svg id="f0e0005e-dfc3-4e34-9212-18fa17cee065" data-name="Calque 1" xmlns="http://www.w3.org/2000/svg" width="32" height="32" viewBox="0 0 32 32">
  <title>field-55-IconeExporterParcelleCulturale</title>
  <path d="M24.89,28.05a6.72,6.72,0,1,1,6.72-6.72A6.73,6.73,0,0,1,24.89,28.05Z" style="fill: #00608c"/>
  <polygon points="20.68 20.53 20.68 22.13 25.09 22.13 25.09 25.34 29.1 21.33 25.09 17.32 25.09 20.53 20.68 20.53" style="fill: #fff"/>
  <g>
    <polygon points="30.37 7.77 24.43 5.42 30.37 7.77 30.37 7.77" style="fill: none"/>
    <polygon points="27.38 13.25 29.54 10.03 27.38 13.25 27.38 13.25" style="fill: none"/>
    <polygon points="14.86 30.92 14.86 30.93 12.02 28.37 14.86 30.92" style="fill: none"/>
    <polygon points="12.06 1.76 4.98 12.12 6.94 9.26 12.06 1.76" style="fill: none"/>
    <polygon points="4.48 21.56 1.1 18.52 6.3 23.21 4.48 21.56 4.48 21.56" style="fill: none"/>
    <path d="M15.26,31.29l-.4-.37h0L12,28.37,7.33,24.14h0l-1-.93L1.1,18.52l-.31-.28L5,12.12,12.06,1.76l.66-1,3.89,1.54h0l7.82,3.08,5.94,2.35h0l.54.22-1.37,2-2.16,3.22h0a7.89,7.89,0,0,1,.94.3L31.37,9a1.42,1.42,0,0,0-.65-2.11L13.41.06a1.43,1.43,0,0,0-1.69.51L.25,17.37a1.41,1.41,0,0,0,.22,1.85l3.31,3,10.44,9.43a1.46,1.46,0,0,0,.95.36h.18a1.44,1.44,0,0,0,1-.62l2.52-3.74a7.47,7.47,0,0,1-.63-.76Z" style="fill: #77787a"/>
    <polygon points="16.99 3.5 15.73 5.51 14.5 7.46 23.48 11.5 26.5 12.86 29.47 8.44 16.99 3.5" style="fill: #a3a4a6"/>
    <path d="M14,8.27,12.26,11h0L5.7,21.39l2.13,1.93,3.23-5.21h0l3.31-5.35,5.63,2A8.71,8.71,0,0,1,24.59,13l-1.32-.59Z" style="fill: #c3dca8"/>
    <polygon points="13.63 7.07 13.63 7.07 16.1 3.15 13.07 1.95 8.21 9.06 11.4 10.59 13.63 7.07" style="fill: #fac262"/>
    <polygon points="7.67 9.85 2.04 18.09 4.99 20.75 10.89 11.4 7.67 9.85" style="fill: #bc9161"/>
    <path d="M11.88,18.59l2.19,1.27,2.5,1.45a8.71,8.71,0,0,1,2.6-5.81l-4.4-1.59Z" style="fill: #6f7095"/>
    <path d="M10.49,20.82,8.55,24l6.53,5.9L17.68,26a8.56,8.56,0,0,1-1.09-3.58l-5.21-3Z" style="fill: #5bab26"/>
    <path d="M27.38,13.25h0L29.54,10l1.37-2-.54-.22L24.43,5.42,16.61,2.34h0L12.72.8l-.66,1L6.94,9.26,5,12.12.79,18.24l.31.28,3.38,3h0L6.3,23.21l1,.93h0L12,28.37l2.84,2.55.4.37,3-4.43a9.9,9.9,0,0,1-.56-.87l-2.6,3.87L8.55,24l1.94-3.14.89-1.43,5.21,3c0-.23,0-.45,0-.69s0-.27,0-.41l-2.5-1.45-2.19-1.27,2.89-4.68,4.4,1.59a9.41,9.41,0,0,1,.83-.71l-5.63-2-3.31,5.35h0L7.83,23.32,5.7,21.39,12.26,11h0L14,8.27l9.28,4.17,1.32.59c.23,0,.45,0,.69,0a9,9,0,0,1,2.09.26ZM2,18.09,7.67,9.85l3.22,1.55L5,20.75ZM13.07,2l3,1.2L13.63,7.07h0L11.4,10.59,8.21,9.06ZM23.48,11.5l-9-4,1.23-1.95L17,3.5,29.47,8.43l-3,4.43Z" style="fill: #fff"/>
  </g>
</svg>
