<svg id="e0fb2f6a-6a8d-4e9e-a246-80dd0a6d8f6e" data-name="Calque 1" xmlns="http://www.w3.org/2000/svg" width="32" height="32" viewBox="0 0 32 32">
  <title>field-25-21989BE1</title>
  <g>
    <polygon points="25.42 14.02 25.61 14.13 25.71 14.18 25.71 14.17 25.42 14.02" style="fill: none"/>
    <path d="M25.66,14.08l4.71-6.9L13.56,1.49,10.4,5.94l15,8.08.29.15,0,0Z" style="fill: #b71236"/>
    <path d="M13.18.3,9.52,5.46,10,5.7l.42.22,0,0,3.16-4.45L30.37,7.18l-4.71,6.9.09.06a4.24,4.24,0,0,1,.78-.44,3.81,3.81,0,0,1,.75-.22l4.66-6.82Z" style="fill: #790027"/>
    <path d="M25.42,14.41l.29-.23-.1,0Z" style="fill: #77787a"/>
    <path d="M15.73,28.82l-.66,1-13-11.73L10.16,6.23l0-.05.18-.26L10,5.7l-.44-.24,0,0L.75,18.24,15.26,31.32l.68-1A2.45,2.45,0,0,1,15.73,28.82Z" style="fill: #77787a"/>
    <path d="M25.42,14l-15-8.08-.18.25,0,.06,0,0L2.07,18.08l13,11.73.66-1s0-.08,0-.13l1-4.37a6.31,6.31,0,0,1,1.79-3l6.73-6.73.16-.14.19-.28Z" style="fill: #a9cd82"/>
    <rect x="10.16" y="6.2" width="0.07" height="0.03" transform="translate(0.01 12.43) rotate(-62.77)" style="fill: #a9cd82"/>
    <polygon points="10.4 5.94 10.38 5.92 10.2 6.18 10.22 6.19 10.4 5.94" style="fill: #a9cd82"/>
  </g>
  <g>
    <path d="M18.19,29.75a.53.53,0,0,1-.36-.15.49.49,0,0,1-.13-.46l1-4.36a4.35,4.35,0,0,1,1.25-2.09L26.67,16a1.88,1.88,0,0,1,2.65,0l2.15,2.16a1.86,1.86,0,0,1,0,2.64l-6.73,6.73a3.78,3.78,0,0,1-2.11,1.26l-4.33,1ZM28,16.42a.86.86,0,0,0-.61.25L20.65,23.4a3.31,3.31,0,0,0-1,1.61l-.81,3.57,3.58-.81h0a2.81,2.81,0,0,0,1.57-1l6.73-6.73a.83.83,0,0,0,.26-.61.87.87,0,0,0-.26-.62l-2.15-2.15A.89.89,0,0,0,28,16.42Z" style="fill: #0499d1"/>
    <path d="M18.84,26.53l2.08,2.09a19.83,19.83,0,0,1-2.41.3A19.4,19.4,0,0,1,18.84,26.53Z" style="fill: #0499d1"/>
    <path d="M26.13,17.21,19.54,23.8l4.06,4.05,6.58-6.59Zm-2.37,9.08L23,25.48l5-5,.82.82Z" style="fill: #0499d1"/>
  </g>
</svg>
