<svg id="ecbef2a8-a7d3-476e-a97d-9d42491d4f7a" data-name="Calque 1" xmlns="http://www.w3.org/2000/svg" width="32" height="32" viewBox="0 0 32 32">
  <title>graph-76-IconeGraphGenerique</title>
  <rect x="1" y="13" width="3" height="7" style="fill: #8bb110"/>
  <rect x="6" y="7" width="3" height="13" style="fill: #edab00"/>
  <rect x="11" y="3" width="3" height="17" style="fill: #007bbd"/>
  <g>
    <path d="M23.47,18.92V11.17a8.11,8.11,0,0,0-7.32,5.23Z" style="fill: #007bbd"/>
    <path d="M30.41,24.22l-5.25-3.54-1.51-1L15.94,17a8.1,8.1,0,0,0,3.27,9.16A8.2,8.2,0,0,0,30.41,24.22Z" style="fill: #fac262"/>
    <path d="M24.12,11.17v8l6.65,4.49A7.69,7.69,0,0,0,32,19.37,8.23,8.23,0,0,0,24.12,11.17Z" style="fill: #8bb110"/>
  </g>
</svg>
