<svg id="a5654de8-3f48-4afe-873a-5b8cbc150849" data-name="Calque 1" xmlns="http://www.w3.org/2000/svg" width="32" height="32" viewBox="0 0 32 32">
  <title>map-43-IconeZoomSheetsVisibles</title>
  <g>
    <path d="M15.72,25.26a2.15,2.15,0,0,1-.69-.19L4.91,20,1.14,21.89l14.79,7.39,2.21-1.11A8,8,0,0,1,15.72,25.26Z" style="fill: #8c8c8c"/>
    <path d="M22.66,13.92l8.05-4L15.93,2.5,1.14,9.89l14.79,7.39.69-.35A7.9,7.9,0,0,1,22.66,13.92Z" style="fill: #8c8c8c"/>
    <path d="M28.93,16.78l1.78-.89L26.94,14l-1,.52A8,8,0,0,1,28.93,16.78Z" style="fill: #8c8c8c"/>
    <path d="M15.38,19.2a2.09,2.09,0,0,1-.35-.13L4.91,14,1.14,15.89,15,22.82a8.26,8.26,0,0,1-.07-1A7.84,7.84,0,0,1,15.38,19.2Z" style="fill: #8c8c8c"/>
  </g>
  <g>
    <path d="M31.38,27.91l-3.32-3.33A5.92,5.92,0,1,0,25.6,27l3.32,3.33a1.74,1.74,0,0,0,2.46-2.46Z" style="fill: #007bbd"/>
    <circle cx="22.83" cy="21.82" r="4.43" transform="translate(-8.74 22.54) rotate(-45)" style="fill: #fff"/>
  </g>
</svg>
