<svg id="e435eaa6-9e94-4b85-b35f-4c3e35a54320" data-name="Calque 1" xmlns="http://www.w3.org/2000/svg" width="32" height="32" viewBox="0 0 32 32">
  <title>phyto-61-IconeAdjuvant</title>
  <path d="M2.4,5.07V3.77A1.09,1.09,0,0,1,3.49,2.69H5.31A1.09,1.09,0,0,1,6.39,3.77v1.3" style="fill: #6e6a69"/>
  <path d="M27.72,21.36a5.36,5.36,0,0,1-10.72,0C17,18.4,22.36,10,22.36,10S27.72,18.4,27.72,21.36Z" style="fill: #6d9ebc"/>
  <rect x="21.72" y="17.9" width="1.63" height="6.52" style="fill: #fff"/>
  <rect x="19.27" y="20.34" width="6.52" height="1.63" style="fill: #fff"/>
  <path d="M22.23,8,22,4a1.4,1.4,0,0,0-1.4-1.4H12.12c-2.77,0-2.55,3.93-5.83,3.93H2.43A1.4,1.4,0,0,0,1,8L.49,12.56V22.74l.55,6a1.4,1.4,0,0,0,1.39,1.4H20.58a1.4,1.4,0,0,0,1.4-1.4V28.7a7.36,7.36,0,0,1-7-7.34C15,18.07,19.35,11,20.68,8.92A2,2,0,0,1,22.23,8ZM18.65,6.33H13.91a1,1,0,0,1,0-2.1h4.74a1,1,0,1,1,0,2.1Z" style="fill: #ccc"/>
</svg>
