<svg id="ba2509d0-5ac1-40c1-8aa7-de3a4c04cde5" data-name="Calque 1" xmlns="http://www.w3.org/2000/svg" width="32" height="32" viewBox="0 0 32 32">
  <title>parameter-75-IconeParamImport</title>
  <path d="M25.36,28.65a6.73,6.73,0,1,1,6.72-6.73A6.74,6.74,0,0,1,25.36,28.65Z" style="fill: #0499d1"/>
  <g>
    <path d="M8.48,19.89a3.69,3.69,0,1,0,3.68,3.69A3.69,3.69,0,0,0,8.48,19.89Z" style="fill: none"/>
    <path d="M19.64,15.34a5.14,5.14,0,1,1,6.2-2.12,8.72,8.72,0,0,1,4.58,1.61l.39.13.79-2.43-1.21-.4-.24-.08L30,12a1.26,1.26,0,0,1-.87-1.18c0-.08,0-.17,0-.25s0-.17,0-.25A1.23,1.23,0,0,1,30,9.15l1.58-.52-.39-1.22h0l-.4-1.21-1.22.39h0l-.35.12a1.3,1.3,0,0,1-.78,0h0a1.2,1.2,0,0,1-.32-.16l0,0a1.44,1.44,0,0,1-.27-.28l-.07-.1L27.62,6l-.06-.09a1.09,1.09,0,0,1-.08-.15,1.06,1.06,0,0,1-.11-.21,1.13,1.13,0,0,1,0-.18,1.55,1.55,0,0,1,0-.21.8.8,0,0,1,0-.15,1,1,0,0,1,0-.24,1.22,1.22,0,0,1,.18-.36l1-1.34-1-.76h0l-1-.75-.75,1h0l-.23.31a1.25,1.25,0,0,1-1.42.46l-.2-.09-.09,0-.14,0A1.26,1.26,0,0,1,22.75,2V.34H20.19V1.62h0V2A1.25,1.25,0,0,1,19.3,3.2l-.41.14a1.24,1.24,0,0,1-1.43-.46l-.11-.14-.11-.16h0l-.75-1-1,.75h0l-1,.75,1,1.34a1.25,1.25,0,0,1,0,1.5l-.26.35a1.24,1.24,0,0,1-1.42.47L12.13,6.2l-.8,2.43,1.22.4h0l.37.12a1.24,1.24,0,0,1,.88,1.21v.43A1.25,1.25,0,0,1,12.92,12l-.37.12h0l-1.22.4.4,1.21h0l.4,1.22,1.38-.45.21-.07a1.33,1.33,0,0,1,.34,0h.06a1.23,1.23,0,0,1,1,.52l.1.13,0,0a2.14,2.14,0,0,1,.13.19,1.2,1.2,0,0,1,.25.74,1.1,1.1,0,0,1,0,.18.78.78,0,0,1,0,.21,1.41,1.41,0,0,1-.18.37l-.23.32h0l-.76,1,1,.75h0l1,.76.92-1.28A8.92,8.92,0,0,1,19.64,15.34Z" style="fill: #999"/>
    <path d="M15.31,22.43,16.58,22l-.32-1h0l-.32-1-1,.32h0l-.29.09a1,1,0,0,1-.62,0h0a.82.82,0,0,1-.25-.12l0,0a1.15,1.15,0,0,1-.22-.22L13.49,20l-.1-.14-.05-.07a.67.67,0,0,1-.06-.12.7.7,0,0,1-.09-.17.8.8,0,0,1,0-.15.88.88,0,0,1,0-.16.5.5,0,0,1,0-.12.69.69,0,0,1,0-.2,1.11,1.11,0,0,1,.14-.29l.78-1.07-.83-.6h0l-.83-.6-.6.83h0l-.18.25a1,1,0,0,1-1.14.36l-.16-.06-.07,0-.11,0a1,1,0,0,1-.7-1V15.39h-2v1h0v.3a1,1,0,0,1-.7,1l-.34.11a1,1,0,0,1-1.14-.37l-.08-.11-.1-.13h0l-.6-.83-.83.6h0l-.83.6.79,1.08a1,1,0,0,1,0,1.2l-.2.28a1,1,0,0,1-1.14.38L1,20.07.36,22l1,.32h0l.3.1a1,1,0,0,1,.7,1v.34a1,1,0,0,1-.7,1l-.3.1h0l-1,.32.32,1h0l.31,1,1.11-.37.17,0a.84.84,0,0,1,.27,0h0A1,1,0,0,1,3.4,27l.08.1,0,0a1.71,1.71,0,0,1,.11.14,1,1,0,0,1,.2.6s0,.09,0,.14a.86.86,0,0,1,0,.17.89.89,0,0,1-.15.29l-.18.26h0l-.61.83.83.6h0l.83.6.79-1.08a1,1,0,0,1,1.14-.37h0l.33.11a1,1,0,0,1,.69,1v.32h0v1H9.49V30.44a1,1,0,0,1,.7-1l.34-.11h0a1,1,0,0,1,1.14.37l.18.25h0l.6.83.83-.6h0l.83-.6-.6-.83h0l-.09-.13-.09-.12a1,1,0,0,1,0-1.2l.15-.2.06-.09a1,1,0,0,1,1.13-.36l.29.09h0l1,.32.64-1.95-1-.32-.19-.06-.1,0a1,1,0,0,1-.7-.95c0-.06,0-.13,0-.2s0-.13,0-.2A1,1,0,0,1,15.31,22.43ZM8.48,27.27a3.69,3.69,0,1,1,3.68-3.69A3.69,3.69,0,0,1,8.48,27.27Z" style="fill: #999"/>
  </g>
  <polygon points="25.05 23.15 28.87 19.32 27.74 18.19 23.91 22.01 22.35 19.04 22.35 24.71 28.02 24.71 25.05 23.15" style="fill: #fff"/>
</svg>
