<svg id="a47dcf97-faa3-4bb0-be7a-6a88738190dc" data-name="Calque 1" xmlns="http://www.w3.org/2000/svg" width="32" height="32" viewBox="0 0 32 32">
  <title>field-38-IconeEncepagement</title>
  <polygon points="15.19 30.57 30.21 8.2 12.91 1.37 1.43 18.16 15.19 30.57" style="fill: #fff;stroke: #77787a;stroke-miterlimit: 10"/>
  <path d="M15.78,9.11s.05,0,0,0h0s0,0,0,0,.34-.23.28-.09-.43-.37-.27-.36c0,0,0-.11,0-.12s0-.18,0-.2.32.3.33.21c0-.28-.17-.34.14-.39,0-.32,0-.08.08-.07s0-.18.08-.07.08-.15.08-.06c.22-.2.16-.13.18,0l0,0h0s0,.09,0,0h0s0,.08,0,.09.06-.13,0,.11a.19.19,0,0,0,.07-.06s0,.09,0,.16.07-.06.09-.09h0c.14,0-.15.43-.15.46s.27-.16.25-.12a.15.15,0,0,1,.11,0l0,0c-.09,0,.28,0,.26,0s-.1.09-.11.11h0l0,0h0a.23.23,0,0,1-.07.1h.06s-.14.11-.13.15-.09-.07-.07.14,0,.11,0,.2-.14,0-.15,0v0h0a.08.08,0,0,0-.1,0h0c-.22-.05-.28-.26-.46-.3s-.46.38-.56.15c0,0,.06,0,0-.06h-.08" style="fill: #b1c800"/>
  <path d="M16.14,9.72s0-.05-.05,0h0s0,0,0,0-.26-.34-.11-.29-.36.48-.36.31c0,0-.12,0-.13,0s-.19.07-.22,0,.31-.36.21-.36c-.3,0-.36.2-.43-.13-.34,0-.08,0-.08-.07s-.18,0-.08-.09S14.7,9,14.79,9c-.22-.23-.15-.17,0-.2l0,0h0s.09,0,.05-.05h0s.07,0,.09,0-.14-.06.11,0A.44.44,0,0,0,15,8.63s.1,0,.18,0-.07-.07-.1-.1h0c0-.14.46.14.49.13s-.19-.27-.15-.25a.17.17,0,0,1,0-.12l0,0c0,.1,0-.3,0-.27s.1.09.12.1h0l.05,0h0v0h0a.16.16,0,0,1,.11.07V8.14h0s.13.14.17.13-.07.1.15.07.12,0,.22,0,0,.14,0,.16l0,0h0c0,.08,0,.1,0,.1h0c0,.24-.26.32-.29.52s.43.46.19.58c0,0-.05-.06-.07,0v.08" style="fill: #b1c800"/>
  <path d="M21.42,10.65s0-.05,0-.06h0s0,0,0,0c0,.13,0-.43.09-.3s-.58.16-.48,0-.11,0-.11-.07-.19-.06-.17-.13.47-.1.39-.16c-.25-.17-.41-.06-.26-.36-.26-.23-.05-.08,0-.11s-.15-.11,0-.12-.08-.15,0-.1c0-.32,0-.22.12-.15v0h0s.06.07.07,0h0s.07,0,.08.06-.08-.13.11,0c0,0,0-.08,0-.11s.08,0,.13.11,0-.1,0-.14h0c.1-.1.28.39.3.4s0-.32.05-.28a.13.13,0,0,1,.05-.11v0c-.06.08.21-.22.18-.21s0,.14,0,.16h0v.06h0l0,0h0a.19.19,0,0,1,0,.12l.05,0h0s0,.19,0,.21-.12,0,.07.14.11.06.19.13-.11.1-.1.13h0a.06.06,0,0,0,0,.1h0c-.18.15-.4.08-.55.22s.06.64-.21.58c0,0,0-.07,0-.07l0,.06" style="fill: #b1c800"/>
  <path d="M22.44,8.51s0,0,0,0,0,0,0,0,.37-.23.3-.08-.43-.42-.27-.4a.12.12,0,0,1,0-.13s0-.19,0-.21.33.34.34.25c0-.31-.15-.38.18-.42.05-.33,0-.08.08-.07s0-.18.09-.07.09-.15.09-.06c.25-.2.18-.13.19,0h0s0,.09,0,0h0s0,.08,0,.1.07-.14,0,.11l.09-.06s0,.1,0,.18.08-.06.11-.09h0c.14,0-.19.45-.18.47s.28-.15.26-.11a.13.13,0,0,1,.12,0l0,0a1.1,1.1,0,0,0,.27,0s-.11.1-.12.12h0l0,.05h0a.39.39,0,0,1-.08.1h.07s-.16.1-.16.14-.08-.08-.08.15,0,.12,0,.22-.15,0-.16,0v0h0c-.07,0-.1,0-.1,0h0c-.23-.07-.29-.29-.48-.35s-.52.38-.6.13c0,0,.06,0,0-.07h-.08" style="fill: #b1c800"/>
  <path d="M14.9,5.87s0,0,0,0,0,0,0,0,.05-.38.12-.25-.53.07-.43,0-.09,0-.08-.07-.17-.08-.14-.13.42,0,.36-.1-.35-.1-.19-.35c-.2-.22,0-.07,0-.1s-.12-.11,0-.1-.05-.14,0-.09c0-.28,0-.2.12-.12v0h0s0,.08,0,0h0s.06,0,.07,0,0-.12.09,0a.28.28,0,0,0,0-.1c.05,0,.07.06.11.11a.48.48,0,0,1,0-.12h0c.11-.07.21.38.22.39s.06-.28.08-.25a.08.08,0,0,1,.05-.08v0c-.06.06.21-.17.18-.16s0,.12,0,.14h0v0h0l0,0h0a.27.27,0,0,1,0,.12l0-.05h0s0,.17,0,.19-.11,0,0,.14.08.06.15.13-.11.08-.1.11h0c-.06,0,0,.07,0,.09h0c-.18.12-.36,0-.51.13s0,.57-.25.49c0,0,0-.07,0-.07l-.06,0" style="fill: #b1c800"/>
  <path d="M12.14,8.07s0,0,0,0h0s0,0,0,0-.1.26-.12.16.38,0,.29.09.06.05.05.06.11.08.08.12-.3,0-.27,0,.23.13.08.28c.1.19,0,.05,0,.07s.07.09,0,.07,0,.11,0,.06c-.05.2,0,.14-.11.07h0s0,0,0,0h0l0,0c-.07,0,0,.1-.06,0s0,0,0,.06,0-.05-.06-.09,0,.06,0,.08h0c-.09,0-.09-.29-.1-.31s-.08.2-.09.17l0,.05V9s-.18.08-.16.08,0-.09,0-.1h0v0h0l0,0h0a.14.14,0,0,1,0-.09l0,0h0s0-.12,0-.14.08,0,0-.11,0,0-.09-.11.09,0,.09-.06h0a0,0,0,0,0,0-.06h0c.14-.06.26,0,.38,0s.1-.39.25-.3,0,.05,0,.05l.05,0" style="fill: #b1c800"/>
  <path d="M13.87,7.08s0,0,0,.06h0s0,0,0,0-.12.43-.17.27.61,0,.47.11c0,0,.1.07.09.1s.16.11.13.17-.48,0-.42,0c.19.23.37.17.15.42.18.29,0,.09,0,.11s.12.15,0,.11,0,.18,0,.11c0,.31,0,.22-.16.11v0h0s0-.09-.06,0h0s-.06-.05-.06-.07,0,.15-.11-.06c0,0,0,.07,0,.1s-.06-.07-.11-.14a.66.66,0,0,1,0,.14h0c-.13.06-.16-.46-.18-.48s-.11.31-.12.27a.24.24,0,0,1-.08.09.06.06,0,0,0,0,0c.07-.06-.26.15-.23.15s0-.14,0-.17h0V8.44h0l0,0h0a.2.2,0,0,1,0-.13l-.06,0h0s.05-.18,0-.21.11,0,0-.17-.08-.08-.14-.17.13-.07.13-.1h0a.08.08,0,0,0,.05-.1h0c.22-.11.41,0,.59-.07s.12-.63.36-.5c0,0,0,.07,0,.08l.07,0" style="fill: #b1c800"/>
  <path d="M16.3,7.25s-.05,0-.05,0h0s0,0,0,0-.41,0-.29-.06.2.53.07.45,0,.11,0,.11S16,8,15.88,8s-.13-.42-.19-.35c-.13.25,0,.39-.31.28-.18.26-.07,0-.1,0s-.09.15-.11,0S15,8,15.08,8c-.29.07-.21,0-.16-.09h0s.06-.06,0-.06h0s0-.07,0-.08-.12.08,0-.11c0,0-.07,0-.1,0s0-.08.09-.14-.09,0-.13,0h0c-.1-.09.34-.3.35-.32s-.31,0-.27,0a.18.18,0,0,1-.11,0h0c.08,0-.22-.18-.21-.15s.12,0,.14,0h0l.05,0h0a.16.16,0,0,1,.11-.05l-.06,0h0s.18,0,.19-.07,0,.1.13-.09,0-.1.1-.18.11.09.13.08v0h0a.07.07,0,0,0,.1,0h0c.16.15.12.36.26.49s.59-.12.56.13c0,0-.07,0-.06,0l.06,0" style="fill: #b1c800"/>
  <path d="M15.6,7.22s0,0,0-.06h0s0,0-.05,0c0,.13,0-.44.1-.3s-.59.15-.49,0-.11,0-.11-.07-.19-.06-.17-.13.47-.1.4-.16c-.26-.18-.41-.07-.27-.37-.25-.23,0-.08,0-.11s-.15-.11,0-.12-.08-.15,0-.1c0-.32,0-.23.12-.16v0h0c.05,0,.06.08.07,0h0s.07,0,.08.06-.08-.14.11,0c0,0,0-.08,0-.11s.08.06.14.11,0-.1,0-.14h0c.11-.1.29.4.31.41s0-.33.05-.29a.14.14,0,0,1,.05-.11v0c-.06.08.21-.22.18-.21s0,.14,0,.17h0l0,.06h0v0h0a.24.24,0,0,1,.05.13l0-.06h0s0,.19.05.21-.12,0,.08.14.1.06.18.13-.11.11-.09.14h0c-.06.05,0,.1,0,.11h0c-.19.16-.41.09-.56.23s0,.64-.21.58c0,0,0-.07,0-.07l-.05.06" style="fill: #b1c800"/>
  <path d="M10.86,6.1s0,0,0,0h0s0,0,0,0,.15.29,0,.23.34-.3.32-.17.09,0,.09,0,.15,0,.16,0-.28.22-.21.23c.23,0,.29-.09.3.16.24.06.05,0,.05.07s.13,0,0,.07.11.08,0,.07c.13.2.08.14,0,.14V7h0s-.07,0-.05,0h0s-.05,0-.06,0,.09.07-.09,0c0,0,0,0,0,.07s-.08,0-.13,0l.06.09h0c0,.1-.33-.17-.34-.17s.09.23.06.21a.14.14,0,0,1,0,.09v0c0-.07-.07.21,0,.2s-.07-.09-.08-.1h0l0,0h0v0h0L11,7.28a.43.43,0,0,0,0,0h0s-.07-.12-.1-.13.07,0-.1-.07-.09,0-.16,0,0-.11,0-.12h0a.05.05,0,0,0,0-.08h0c.07-.17.24-.19.29-.34s-.25-.4,0-.45c0,0,0,0,0,0l0-.06" style="fill: #b1c800"/>
  <path d="M9.82,8.25s0,0,0-.05,0,0,0,0,0-.32.06-.22-.43.12-.36,0S9.4,8,9.4,8s-.14,0-.13-.1.35-.08.29-.13-.31,0-.2-.26c-.2-.16,0-.06,0-.08s-.11-.08,0-.09-.06-.11,0-.08c0-.23,0-.16.09-.11v0h0s0,.06.05,0h0l.06,0c.06-.07-.06-.1.08,0s0-.06,0-.08.06,0,.1.08a.31.31,0,0,1,0-.1h0c.08-.08.22.28.24.29s0-.24,0-.21a.1.1,0,0,1,0-.08v0c0,.06.15-.17.13-.16s0,.1,0,.12h0v0h0a.16.16,0,0,1,0,.09l0,0h0s0,.14,0,.15-.08,0,.06.11.08,0,.14.09-.07.08-.07.1h0s0,.07,0,.08h0c-.14.12-.3.07-.41.18s.05.47-.14.43c0,0,0-.05,0-.05l0,.05" style="fill: #b1c800"/>
  <path d="M11.5,4.5s0,0,0,0h0s0,0,0,0,0,.26-.08.17.36,0,.29,0,.06,0,0,0,.11.06.09.09-.29,0-.25.06.24.08.12.24c.13.16,0,0,0,.07s.07.08,0,.07,0,.1,0,.06c0,.19,0,.13-.08.08h0s0-.05,0,0h0l0,0c-.06,0,0,.09-.06,0s0,0,0,.06,0,0-.07-.08a.27.27,0,0,0,0,.09h0c-.07,0-.12-.27-.14-.28s0,.2,0,.17a.09.09,0,0,1,0,.06v0s-.15.11-.13.11,0-.09,0-.1h0v0h0a.11.11,0,0,1,0-.08l0,0h0s0-.11,0-.13.07,0,0-.09,0,0-.09-.09.07-.06.07-.07h0s0,0,0-.06h0c.13-.08.25,0,.35-.08s0-.38.19-.32,0,0,0,0l0,0" style="fill: #b1c800"/>
  <path d="M15.41,4.23a15.3,15.3,0,0,0,.31,2.22,20.26,20.26,0,0,0,1.21,4.75l.1,0a20.28,20.28,0,0,1-1.2-4.71c-.17-1-.3-1.83-.39-2.47,0-.32.14.7.11.52l0-.28-.11,0" style="fill: #81664b"/>
  <path d="M13.64,10c-.14,0-.44.24-.41.36s.16.72.53.69.45,0,.73.17a.79.79,0,0,0,.71.09,1.06,1.06,0,0,1,.72.29,1.26,1.26,0,0,0,.89.45c.59.11.31,1,.65,2s.32.61,1.4,1.59a.77.77,0,0,1-.14,1c-.22.19-1.37.4-1.36.9s-.21.57-.16.93.09.43.11.61a3.74,3.74,0,0,0,1.28.22c.4,0,.71,0,1,0,.08-.18.52-.43.54-.92s.34-.89.83-1.55S21,15,19.76,14.39s-1-1.53-.5-1.76a.92.92,0,0,0,.42-1,.24.24,0,0,1,.29-.32c.25,0,.15,0,.28,0s.11-.08.33-.06.68-.42.9-.38a.49.49,0,0,0,.55-.25c.08-.2-.34-.71-.92-.57s0,0-.65.07A5.22,5.22,0,0,0,18,11.23c-.13.15-1.55-.27-1.82-.43a2.09,2.09,0,0,0-.89-.24,1.17,1.17,0,0,1-.66-.2c-.16-.14.37,0,0,0s-.83-.4-1-.35" style="fill: #81664b;stroke: #fff;stroke-miterlimit: 10"/>
  <path d="M13.64,10c-.14,0-.44.24-.41.36s.16.72.53.69.45,0,.73.17a.79.79,0,0,0,.71.09,1.06,1.06,0,0,1,.72.29,1.26,1.26,0,0,0,.89.45c.59.11.31,1,.65,2s.32.61,1.4,1.59a.77.77,0,0,1-.14,1c-.22.19-1.37.4-1.36.9s-.21.57-.16.93.09.43.11.61a3.74,3.74,0,0,0,1.28.22c.4,0,.71,0,1,0,.08-.18.52-.43.54-.92s.34-.89.83-1.55S21,15,19.76,14.39s-1-1.53-.5-1.76a.92.92,0,0,0,.42-1,.24.24,0,0,1,.29-.32c.25,0,.15,0,.28,0s.11-.08.33-.06.68-.42.9-.38a.49.49,0,0,0,.55-.25c.08-.2-.34-.71-.92-.57s0,0-.65.07A5.22,5.22,0,0,0,18,11.23c-.13.15-1.55-.27-1.82-.43a2.09,2.09,0,0,0-.89-.24,1.17,1.17,0,0,1-.66-.2c-.16-.14.37,0,0,0s-.83-.4-1-.35" style="fill: #81664b"/>
  <path d="M13.24,10.22a.51.51,0,0,0,.32-.15,2,2,0,0,0,0-1.57C13.23,7.84,12,5,11.64,4.85c-.09-.06,0,.33.15.54a13.43,13.43,0,0,1,1.54,3.22c0,.67.16,1.28-.19,1.11a15.49,15.49,0,0,0-1.36-.85A20.15,20.15,0,0,0,8.85,7.63a4.58,4.58,0,0,1-.8-.35c-.2-.1-.22,0,0,.18s.51.24.57.35.1.12.23.12a6.71,6.71,0,0,1,1.22.53.35.35,0,0,0,.31.13,6.17,6.17,0,0,1,1.45.81.36.36,0,0,0,.33.16c.15,0,.75.55,1.07.66" style="fill: #81664b"/>
  <path d="M12,9a15.12,15.12,0,0,0-1-2,6.83,6.83,0,0,1-.92-2.17c.05-.05.12.42.35.85s1.8,3.24,1.84,3.5S12.08,9.1,12,9" style="fill: #81664b"/>
  <path d="M9.69,8A20.06,20.06,0,0,0,9,5.89,3.85,3.85,0,0,1,8.55,5c-.05-.19,0-.21.18.07S8.61,5,9.14,6A17.06,17.06,0,0,1,9.81,8s-.13,0-.12,0" style="fill: #81664b"/>
  <path d="M10.28,5.13h0m.2-.12h0a.12.12,0,0,0,.08,0h0a.1.1,0,0,1-.07,0h0a.09.09,0,0,0,.08,0h0a.12.12,0,0,1-.08,0Z" style="fill: #e7f192"/>
  <path d="M9.35,6.78h0m-.24,0h0s0,0,0-.08h0a.1.1,0,0,1,.06.07h0a.11.11,0,0,0-.06-.08h0a.14.14,0,0,1,0,.07Z" style="fill: #e7f192"/>
  <path d="M21.58,10.08s2-2.9,2.15-2.82S22,10.3,22,10.41s-.38-.32-.38-.33" style="fill: #81664b"/>
  <path d="M21.58,10.08h0s.49-.73,1-1.43c.25-.35.51-.7.71-1s.38-.44.43-.43h0v0a8.4,8.4,0,0,1-.87,1.64c-.44.73-.88,1.42-.91,1.47l0,0s-.13-.08-.21-.17l-.09-.11,0,0h0l.15.19c.07.08.15.15.2.15l0,0,.91-1.47a8.37,8.37,0,0,0,.87-1.65s0,0,0,0h0c-.07,0-.22.18-.43.44-.63.79-1.68,2.36-1.71,2.39h0" style="fill: #81664b"/>
  <path d="M8.84,7s0,0,0-.06,0,0,0,0S9,6.51,9,6.66s-.56,0-.43-.13c0,0-.09-.07-.08-.09s-.15-.12-.11-.17.44.05.4,0c-.17-.23-.35-.18-.13-.41-.15-.27,0-.08,0-.1s-.1-.14,0-.1,0-.17,0-.1c.07-.29.06-.2.15-.1v0h0s0,.08.06,0h0s0,.06.05.07,0-.13.09.07a.62.62,0,0,0,0-.1c.05,0,.06.07.09.14s0-.09,0-.13h0c.12-.05.13.44.15.45s.11-.28.12-.24a.2.2,0,0,1,.08-.08v0c-.07,0,.25-.13.22-.13s0,.13,0,.15h0v.06h0l0,0h0a.28.28,0,0,1,0,.13l0,0h0s0,.17,0,.2-.11,0,0,.15.07.09.12.17-.12.06-.12.09h0a.08.08,0,0,0-.06.09h0c-.2.08-.38,0-.55,0s-.15.58-.36.45c0,0,0-.07,0-.07L8.84,7" style="fill: #b1c800"/>
  <path d="M10.39,4.35s0,.06,0,.06h0s0,0,0,0c0-.14.13.44,0,.33s.55-.33.48-.17c0,0,.13,0,.13,0s.22,0,.22.08-.45.24-.35.28c.31.1.43-.06.37.29.33.15.07.07.06.1s.18.07,0,.12.13.13,0,.1c.13.31.08.22-.07.19v0h0c-.05,0-.08-.07-.07,0h0s-.08,0-.09,0,.12.11-.13,0l0,.1c-.06,0-.1,0-.17-.06s0,.09.06.13h0c-.08.13-.41-.31-.44-.32s.08.34,0,.31a.12.12,0,0,1,0,.12V6a1.47,1.47,0,0,0-.12.27s-.07-.13-.08-.15h0l0-.06s0,0,0,0h0A.28.28,0,0,1,10.25,6a.14.14,0,0,0,0,.07h0s-.06-.19-.11-.2.11-.07-.12-.13-.12,0-.22-.07.07-.14.05-.16h0a.07.07,0,0,0,0-.11h0c.14-.21.38-.2.5-.39s-.25-.63,0-.65c0,0,0,.07.06.06l0-.08" style="fill: #b1c800"/>
  <path d="M11.24,7s0,0,0,0,0,0,0,0-.24-.2-.13-.19-.17.4-.2.28c0,0-.07,0-.09,0s-.12.08-.15,0,.16-.3.09-.29-.22.2-.32,0c-.24,0-.07,0-.07,0s-.13,0-.07,0-.12,0-.06,0c-.2-.13-.13-.09,0-.14h0s.07,0,0,0h0s.05,0,.06,0-.1,0,.07,0l-.06,0s.07,0,.12,0-.06,0-.08,0h0c0-.1.35,0,.36,0s-.17-.16-.14-.15,0-.05,0-.08l0,0c0,.06,0-.22,0-.2s.09.05.11.06h0l0,0h0l.09,0,0,0h0s.11.08.14.07,0,.08.12,0,.08,0,.15,0,0,.11,0,.11h0a.06.06,0,0,0,.05.06h0c0,.17-.13.26-.12.41s.39.25.23.37c0,0,0,0,0,0V7" style="fill: #b1c800"/>
  <path d="M13.25,6.35s0,.05,0,.07h0s0,0,0,0-.22.44-.24.26.66.12.5.21c0,0,.09.1.08.12s.16.16.11.22-.52-.13-.48,0c.18.3.39.26.09.5.16.35,0,.1,0,.12s.1.18-.05.12,0,.2,0,.11c-.11.34-.09.24-.19.1l0,0h0s0-.11-.07,0h0s0-.07,0-.09,0,.17-.1-.09c0,0,0,.08-.05.11s-.06-.09-.09-.18a.66.66,0,0,1-.05.15h0c-.16,0-.1-.54-.12-.56s-.18.32-.18.27a.16.16,0,0,1-.11.09s0,0,0,0-.31.12-.28.12,0-.15,0-.18h0V7.69l0,0h0a.26.26,0,0,1,0-.15l-.07,0h0s.08-.2,0-.24.13,0,0-.19-.08-.1-.13-.21.16-.06.16-.09l0,0h0c.09,0,.08-.08.08-.1h0c.26-.08.45.1.67,0s.25-.68.49-.49c0,0,0,.08,0,.09l.08,0" style="fill: #b1c800"/>
  <path d="M15.8,5.88s0,0,0,0,0,0,0,0,.3.39.13.33.41-.54.41-.35c0,0,.13-.05.14,0s.22-.08.25,0-.35.41-.24.41c.34,0,.41-.22.48.14.39,0,.1,0,.1.09s.21,0,.09.09c-.16-.05.18.09.08.09.25.26.17.19,0,.22l0,0h0c-.05,0-.11,0-.06,0h0s-.09,0-.11,0,.16.07-.12,0c0,0,.05.07.07.09s-.1,0-.19,0l.11.1h0c0,.16-.53-.15-.56-.15s.21.31.17.29a.2.2,0,0,1,0,.13.05.05,0,0,0,0,0c0-.1,0,.34,0,.31s-.12-.1-.14-.11h0l-.06,0h0s0,0,0,0h0a.2.2,0,0,1-.12-.08v.08h0s-.14-.16-.19-.15.08-.11-.17-.08-.13,0-.25,0,0-.17,0-.18l0,0h0a.09.09,0,0,0-.06-.11h0c.05-.27.29-.35.33-.58s-.49-.53-.22-.66c0,0,.06.06.08,0V5.88" style="fill: #b1c800"/>
  <path d="M16.45,9.85s0,.05.06.05h0s0-.05,0,0,.3.39.12.33.41-.54.42-.36c0,0,.13,0,.14,0s.21-.08.24,0-.34.42-.23.42c.34,0,.4-.23.48.14.39,0,.1,0,.1.08s.2,0,.08.1c-.15-.05.19.08.08.08.26.26.17.19,0,.22l0,0h0s-.1,0,0,0h0s-.09,0-.11,0,.16.06-.12.05c0,0,.05.07.07.09s-.11,0-.2,0,.08.08.12.11h0c0,.17-.53-.15-.56-.14s.21.3.16.28a.17.17,0,0,1,0,.13s0,0,0,0,0,.34,0,.31-.12-.11-.14-.12v0l-.06,0,0,0h0a.25.25,0,0,1-.12-.08s0,0,0,.08h0s-.14-.16-.19-.16.08-.1-.17-.07-.13,0-.25,0,0-.17,0-.19l0,0h0a.08.08,0,0,0-.06-.11h0c0-.27.29-.36.33-.59s-.49-.52-.22-.65c0,0,.05.06.08,0V9.85" style="fill: #b1c800"/>
  <path d="M21.75,8.67s.05,0,.07,0h0s0,0,0,0,.44.21.26.24.12-.67.21-.5c0-.05.09-.1.12-.08s.16-.17.22-.11-.13.52,0,.47c.3-.17.26-.38.5-.09.35-.15.1,0,.12,0s.18-.1.12,0,.2,0,.11,0c.34.11.23.09.1.19l0,0h0s-.11,0,0,.07h0s-.07,0-.09,0,.17,0-.09.1c0,0,.08,0,.11,0s-.09.06-.17.09a1.31,1.31,0,0,1,.15.05h0c0,.16-.54.1-.56.11s.32.18.27.19a.19.19,0,0,1,.08.1l0,0c-.05-.09.12.32.13.29s-.16,0-.19,0h-.06l0,0h0A.26.26,0,0,1,23,10L23,10h0s-.2-.08-.24,0,0-.13-.18,0-.11.08-.22.13S22.3,10,22.27,10l0,0h0c0-.08-.08-.08-.1-.07h0c-.08-.27.1-.45,0-.67s-.68-.26-.49-.5c0,0,.07,0,.08,0l0-.08" style="fill: #b1c800"/>
  <path d="M18,12.3s-.06,0-.07,0h0s.05,0,0,0c.15,0-.48.11-.36,0s.32.6.15.52c0,0,0,.14,0,.14s0,.23-.1.22-.23-.49-.28-.39c-.13.32,0,.46-.33.38-.19.34-.08.07-.12,0s-.08.19-.12,0-.16.13-.11,0c-.34.12-.25.08-.2-.09h0s.07-.09,0-.08h0s0-.08,0-.09-.12.11,0-.14c0,0-.09,0-.12,0s0-.1.08-.18-.1,0-.14.06h0c-.14-.1.36-.42.36-.44s-.36.06-.32,0a.14.14,0,0,1-.13,0s0,0,0,0-.29-.17-.28-.14.15-.07.17-.08v0l.06,0h0a.22.22,0,0,1,.13-.08l-.08,0h0s.21-.06.22-.11.07.12.14-.12,0-.13.09-.23.15.08.17.07v0h0a.1.1,0,0,0,.13,0h0c.22.16.2.42.38.55s.69-.22.69.08c0,0-.08,0-.06.06l.08,0" style="fill: #b1c800"/>
  <path d="M13.78,12.11s.05,0,0,0h0s0,0,0,0,.34-.23.28-.09-.43-.37-.27-.36c0,0,0-.11,0-.12s0-.18,0-.2.32.31.33.21c0-.28-.17-.34.14-.39,0-.32,0-.08.08-.07s0-.18.08-.07.08-.15.08-.06c.22-.2.16-.13.18,0l0,0h0s0,.09,0,0h0s0,.08,0,.09.06-.13,0,.11a.19.19,0,0,0,.07-.06s0,.09,0,.16.07-.06.09-.09h0c.14,0-.15.43-.15.46s.27-.16.25-.12a.15.15,0,0,1,.11,0l0,0c-.09,0,.28,0,.26,0s-.1.09-.11.11h0l0,0h0a.23.23,0,0,1-.07.1h.06s-.14.11-.13.15-.09-.07-.07.14,0,.11,0,.2-.14,0-.15,0v0h0a.08.08,0,0,0-.1,0h0c-.22-.05-.28-.26-.46-.3s-.46.38-.56.15c0,0,.06,0,0-.06h-.08" style="fill: #b1c800"/>
  <path d="M14.14,12.72s0-.05-.05,0h0s0,0,0,0-.26-.34-.11-.29-.36.48-.36.31c0,0-.12,0-.13,0s-.19.07-.22,0,.31-.36.21-.36c-.3,0-.36.2-.43-.13-.34,0-.08,0-.08-.07s-.18,0-.08-.09S12.7,12,12.79,12c-.22-.23-.15-.17,0-.2l0,0h0c.05,0,.1,0,.06-.05h0s.07,0,.09,0-.14-.06.11,0a.44.44,0,0,0-.07-.08s.1,0,.18,0-.07-.07-.1-.1h0c0-.14.46.14.49.13s-.19-.27-.15-.25a.17.17,0,0,1,0-.12l0,0c0,.1,0-.3,0-.27s.11.09.13.1h0l.05,0h0v0h0a.16.16,0,0,1,.11.07v-.07h0s.13.14.17.13-.07.1.15.07.12,0,.22,0,0,.14,0,.16l0,0h0c0,.08,0,.1.05.1h0c-.05.24-.26.32-.29.52s.43.46.19.58c0,0-.05-.06-.07,0v.08" style="fill: #b1c800"/>
  <path d="M19.42,13.65s0-.05,0-.06h0s0,0,0,0c0,.13,0-.43.09-.3s-.58.16-.48,0-.11,0-.11-.07-.19-.06-.17-.13.46-.1.39-.16c-.25-.17-.41-.06-.26-.36-.26-.23-.05-.08,0-.11s-.15-.11,0-.12-.08-.15,0-.1c0-.32,0-.22.12-.15v0h0s.06.07.07,0h0s.07,0,.08.06-.08-.13.11,0c0,0,0-.08,0-.11s.08.06.13.11,0-.1,0-.14h0c.1-.1.28.39.3.4s0-.32.05-.28a.14.14,0,0,1,.05-.11v0c-.06.08.21-.22.18-.21s0,.14,0,.16h0v.06h0l0,0h0a.19.19,0,0,1,0,.12.1.1,0,0,0,0,0h0s0,.19,0,.21-.11,0,.08.14.11.06.19.13-.11.1-.1.13h0a.06.06,0,0,0,0,.1h0c-.18.15-.4.08-.55.22s.06.64-.21.58c0,0,0-.07,0-.07l0,.06" style="fill: #b1c800"/>
  <path d="M20.44,11.51s0,0,0,0,0,0,0,0,.37-.23.3-.08-.43-.42-.27-.4a.12.12,0,0,1,0-.13s0-.19,0-.21.33.34.34.25c0-.31-.15-.38.18-.42.05-.33,0-.08.08-.07s0-.18.09-.07.09-.15.09-.06c.25-.2.18-.13.19,0h0s0,.09,0,.05h0s0,.08,0,.1.07-.14,0,.11l.09-.06s0,.1,0,.18.08-.06.11-.09h0c.14,0-.19.45-.18.47s.28-.15.26-.11a.13.13,0,0,1,.12,0l0,0a1.1,1.1,0,0,0,.27,0s-.11.1-.12.12h0l0,.05h0a.39.39,0,0,1-.08.1h.07s-.16.1-.16.14-.08-.08-.08.15,0,.12,0,.22-.15,0-.16,0v0h0c-.07,0-.1,0-.1,0h0c-.23-.07-.29-.29-.48-.35s-.52.38-.6.13c0,0,.06,0,0-.07h-.08" style="fill: #b1c800"/>
  <path d="M12.9,8.87s0,0,0,0,0,0,0,0,.05-.38.12-.25-.53.07-.43,0-.09,0-.08-.07-.17-.08-.14-.13.42,0,.36-.1-.35-.1-.19-.35c-.2-.22,0-.07,0-.09s-.12-.12,0-.11-.05-.14,0-.09c0-.28,0-.2.12-.12v0h0s0,.08,0,0h0s.06,0,.07,0,0-.12.09,0a.28.28,0,0,0,0-.1c.05,0,.07.06.11.11a.48.48,0,0,1,0-.12h0c.11-.07.21.38.22.39s.06-.28.08-.25a.08.08,0,0,1,.05-.08v0c-.06.06.21-.17.18-.16s0,.12,0,.14h0v0h0l0,0h0a.27.27,0,0,1,0,.12l0-.05h0s0,.17,0,.19-.11,0,0,.14.08.06.15.13-.11.08-.1.11h0c-.06,0,0,.07,0,.09h0c-.18.12-.36,0-.51.13s0,.57-.25.49c0,0,0-.07,0-.07l-.06,0" style="fill: #b1c800"/>
  <path d="M10.14,11.07s0,0,0,0h0s0,0,0,0-.1.26-.12.16.38,0,.29.09.06.05.05.06.11.08.08.12-.3,0-.27,0,.23.13.08.28c.1.19,0,.05,0,.07s.07.09,0,.07,0,.11,0,.06c-.05.2,0,.14-.11.07h0s0,0,0,0h0l0,0c-.07,0,0,.1-.06,0s0,0,0,.06,0-.05-.06-.09,0,.06,0,.08h0c-.09,0-.09-.29-.1-.31s-.08.2-.09.17l0,.05v0s-.18.08-.16.08,0-.09,0-.1h0v0h0l0,0h0a.14.14,0,0,1,0-.09l0,0h0s0-.12,0-.14.08,0,0-.11,0,0-.09-.11.09,0,.09-.06h0a0,0,0,0,0,0-.06h0c.14-.06.26,0,.38,0s.1-.39.25-.3,0,.05,0,.05l.05,0" style="fill: #b1c800"/>
  <path d="M11.87,10.08s0,.05,0,.06h0s0,0,0,0-.12.43-.17.27.6,0,.47.11c0,0,.1.07.09.1s.16.11.13.17-.48,0-.42.05c.19.23.37.17.15.42.18.29,0,.09,0,.11s.12.15,0,.11,0,.18,0,.11c0,.31,0,.22-.16.11v0h0s0-.09-.06,0h0s-.06-.05-.06-.07,0,.15-.11-.06c0,0,0,.07,0,.1s-.06-.07-.11-.14a.66.66,0,0,1,0,.14h0c-.13.06-.16-.46-.18-.48s-.11.31-.12.27a.24.24,0,0,1-.08.09.06.06,0,0,0,0,0c.07-.06-.26.15-.23.15s0-.14,0-.17h0v-.07h0l0,0h0a.2.2,0,0,1,0-.13l-.06,0h0s.05-.18,0-.21.11,0,0-.17-.08-.08-.14-.17.13-.07.13-.1h0a.08.08,0,0,0,.05-.1h0c.22-.11.41,0,.59-.07s.12-.63.36-.5c0,0,0,.07,0,.08l.07-.05" style="fill: #b1c800"/>
  <path d="M14.3,10.25s-.05,0-.05,0h0s0,0,0,0-.41,0-.29-.06.2.53.07.45,0,.11,0,.11,0,.18-.11.17-.14-.42-.19-.35c-.13.25,0,.39-.31.28-.18.26-.07,0-.1,0s-.09.15-.11,0-.13.09-.09,0c-.29.07-.21,0-.16-.09h0s.06-.06,0-.06h0s0-.07,0-.08-.12.08,0-.11c0,0-.07,0-.1,0s0-.08.09-.14-.09,0-.13,0h0c-.1-.09.34-.3.35-.32s-.31,0-.27,0a.18.18,0,0,1-.11,0h0c.08,0-.22-.18-.21-.15s.12,0,.14-.05h0l.06,0h0a.16.16,0,0,1,.11-.05l-.06,0h0s.18,0,.19-.07,0,.11.13-.09,0-.1.1-.18.11.09.13.08v0h0a.07.07,0,0,0,.1,0h0c.16.15.12.36.26.49s.59-.12.56.13c0,0-.07,0-.06,0l.06.05" style="fill: #b1c800"/>
  <path d="M13.6,10.22s0-.05,0-.06h0s0,0-.05,0c0,.13,0-.44.1-.3s-.59.15-.49,0-.11,0-.11-.07-.19-.06-.17-.13.47-.1.4-.16c-.26-.18-.41-.07-.27-.37-.25-.23,0-.08,0-.11s-.15-.11,0-.12-.08-.15,0-.1c0-.32,0-.23.12-.16v0h0c.05,0,.06.08.07,0h0s.07,0,.08.06-.08-.14.11,0c0,0,0-.08,0-.11s.08.06.14.11,0-.1,0-.14h0c.11-.1.29.4.31.41s0-.33.05-.29a.14.14,0,0,1,.05-.11v0c-.06.08.21-.22.18-.21s0,.14,0,.17h0l0,.06h0v0h0a.24.24,0,0,1,0,.13l0-.06h0s0,.19,0,.21-.12,0,.08.15.1,0,.18.12-.11.11-.1.14h0c-.07,0,0,.1,0,.11h0c-.19.16-.41.09-.56.23s0,.64-.21.58c0,0,0-.07,0-.07l-.05.06" style="fill: #b1c800"/>
  <path d="M8.86,9.1s0,0,0,0h0s0,0,0,0,.15.29,0,.23.34-.3.32-.17.09,0,.09,0,.15,0,.16,0-.28.22-.21.23c.23,0,.29-.09.3.16.24.06.05,0,.05.07s.13,0,0,.07.11.08,0,.07c.13.2.08.14,0,.14v0h0s-.07,0-.05,0h0s-.05,0-.06,0,.09.07-.09,0c0,0,0,.05,0,.07s-.07,0-.12,0l.06.09h0c0,.1-.33-.17-.34-.17s.09.23.06.21a.14.14,0,0,1,0,.09v0c0-.07-.07.22,0,.2s-.07-.08-.08-.1h0l0,0H9v0H9A.23.23,0,0,1,9,10.28a.43.43,0,0,0,0,.05H9s-.07-.12-.1-.12.07-.06-.1-.08-.09,0-.16,0,0-.11,0-.12h0a.05.05,0,0,0,0-.08h0c.07-.17.24-.19.29-.34s-.25-.4,0-.45c0,0,0,0,0,0l0-.06" style="fill: #b1c800"/>
  <path d="M7.82,11.25s0,0,0-.05,0,0,0,0,0-.32.06-.22-.43.13-.36,0-.08,0-.08,0-.14-.05-.13-.1.35-.08.29-.13-.31,0-.2-.26c-.2-.16,0-.06,0-.08s-.11-.08,0-.09-.06-.11,0-.08c0-.23,0-.16.09-.11v0h0s0,.06,0,0h0l.06,0c.06-.07-.06-.1.08,0s0-.06,0-.08.06,0,.1.08a.31.31,0,0,1,0-.1h0c.08-.08.22.28.24.29s0-.24,0-.21a.1.1,0,0,1,0-.08v0c0,.06.15-.17.13-.16s0,.1,0,.12h0v0h0a.16.16,0,0,1,0,.09l0,0h0s0,.14,0,.15-.08,0,.06.11.08,0,.14.09-.08.08-.07.1h0s0,.07,0,.08h0c-.13.12-.29.07-.4.18s.05.47-.14.43c0,0,0-.05,0-.05l0,.05" style="fill: #b1c800"/>
  <path d="M9.5,7.5s0,0,0,0h0s0,0,0,0,0,.26-.08.17.36,0,.29,0,.06,0,0,0,.11.06.09.09-.29,0-.25.06.24.08.12.24c.13.16,0,.05,0,.07s.07.08,0,.07,0,.1,0,.06c0,.19,0,.13-.08.08h0s0-.05,0,0h0l0,0c-.06,0,0,.09-.06,0s0,0,0,.06,0,0-.07-.08a.27.27,0,0,0,0,.09h0c-.07,0-.12-.27-.14-.28s0,.2,0,.17a.09.09,0,0,1,0,.06v0c0-.05-.15.1-.13.1s0-.09,0-.1H9v0H9a.09.09,0,0,1,0-.07l0,0H9s0-.11,0-.13.07,0,0-.09,0,0-.09-.09S8.91,8,8.91,8h0s0,0,0-.06h0c.13-.08.25,0,.35-.08s0-.38.19-.32,0,0,0,0l0,0" style="fill: #b1c800"/>
  <path d="M13.41,7.23a15.3,15.3,0,0,0,.31,2.22,20.26,20.26,0,0,0,1.21,4.75l.1,0a20.28,20.28,0,0,1-1.2-4.71c-.17-1-.3-1.83-.39-2.47,0-.32.14.7.11.52l0-.28-.11,0" style="fill: #81664b"/>
  <path d="M11.64,13c-.14,0-.44.24-.41.36s.16.72.53.69.45,0,.73.17a.79.79,0,0,0,.71.09,1.06,1.06,0,0,1,.72.29,1.26,1.26,0,0,0,.89.45c.59.11.31,1.05.65,1.95s.32.61,1.4,1.59a.77.77,0,0,1-.14,1c-.22.19-1.37.4-1.36.9s-.21.57-.16.93.09.43.11.61a3.74,3.74,0,0,0,1.28.22c.4,0,.71,0,1,0,.08-.18.52-.43.54-.92s.34-.89.83-1.55S19,18,17.76,17.39s-1-1.53-.5-1.76a.92.92,0,0,0,.42-1,.24.24,0,0,1,.29-.32c.25,0,.15,0,.28,0s.11-.08.33-.06.68-.42.9-.38a.49.49,0,0,0,.55-.25c.08-.2-.34-.71-.92-.57s0,0-.65.07A5.22,5.22,0,0,0,16,14.23c-.13.15-1.55-.27-1.82-.43a2.09,2.09,0,0,0-.89-.24,1.17,1.17,0,0,1-.66-.2c-.16-.14.36,0,0,0s-.83-.4-1-.35" style="fill: #81664b;stroke: #fff;stroke-miterlimit: 10"/>
  <path d="M11.64,13c-.14,0-.44.24-.41.36s.16.72.53.69.45,0,.73.17a.79.79,0,0,0,.71.09,1.06,1.06,0,0,1,.72.29,1.26,1.26,0,0,0,.89.45c.59.11.31,1.05.65,1.95s.32.61,1.4,1.59a.77.77,0,0,1-.14,1c-.22.19-1.37.4-1.36.9s-.21.57-.16.93.09.43.11.61a3.74,3.74,0,0,0,1.28.22c.4,0,.71,0,1,0,.08-.18.52-.43.54-.92s.34-.89.83-1.55S19,18,17.76,17.39s-1-1.53-.5-1.76a.92.92,0,0,0,.42-1,.24.24,0,0,1,.29-.32c.25,0,.15,0,.28,0s.11-.08.33-.06.68-.42.9-.38a.49.49,0,0,0,.55-.25c.08-.2-.34-.71-.92-.57s0,0-.65.07A5.22,5.22,0,0,0,16,14.23c-.13.15-1.55-.27-1.82-.43a2.09,2.09,0,0,0-.89-.24,1.17,1.17,0,0,1-.66-.2c-.16-.14.36,0,0,0s-.83-.4-1-.35" style="fill: #81664b"/>
  <path d="M11.24,13.23a.62.62,0,0,0,.32-.16,2,2,0,0,0,0-1.57C11.23,10.84,10,8,9.64,7.85c-.09-.06,0,.33.15.54a13.43,13.43,0,0,1,1.54,3.22c0,.67.16,1.28-.19,1.11a15.49,15.49,0,0,0-1.36-.85,20.15,20.15,0,0,0-2.93-1.24,4.58,4.58,0,0,1-.8-.35c-.2-.1-.22.05,0,.18s.51.24.57.35.1.12.23.12a6.71,6.71,0,0,1,1.22.53.35.35,0,0,0,.31.13,6.17,6.17,0,0,1,1.45.81.36.36,0,0,0,.33.16c.15,0,.75.55,1.07.67" style="fill: #81664b"/>
  <path d="M10,12a15.12,15.12,0,0,0-1-2,6.83,6.83,0,0,1-.92-2.17c.05-.05.12.42.35.85s1.8,3.24,1.84,3.5S10.08,12.1,10,12" style="fill: #81664b"/>
  <path d="M7.69,11A20.06,20.06,0,0,0,7,8.89,3.85,3.85,0,0,1,6.55,8c0-.19,0-.21.18.07S6.61,8,7.14,9A17.06,17.06,0,0,1,7.81,11s-.13,0-.12,0" style="fill: #81664b"/>
  <path d="M8.28,8.13h0M8.48,8h0a.12.12,0,0,0,.08,0h0a.1.1,0,0,1-.07,0h0a.09.09,0,0,0,.08,0h0a.12.12,0,0,1-.08,0Z" style="fill: #e7f192"/>
  <path d="M7.35,9.78h0m-.24,0h0a.11.11,0,0,0-.05-.08h0a.1.1,0,0,1,.06.07h0a.11.11,0,0,0-.06-.08h0a.14.14,0,0,1,.05.07Z" style="fill: #e7f192"/>
  <path d="M19.58,13.08s2-2.9,2.15-2.82S20,13.3,20,13.41s-.38-.32-.38-.33" style="fill: #81664b"/>
  <path d="M19.58,13.08h0s.49-.73,1-1.43c.25-.35.51-.7.71-1s.38-.44.43-.43h0v0a8.12,8.12,0,0,1-.87,1.64c-.44.73-.88,1.42-.91,1.47l0,0s-.13-.08-.21-.17l-.09-.11,0,0h0l.15.19c.07.08.15.15.2.15l0,0,.91-1.47a8.37,8.37,0,0,0,.87-1.65s0,0,0,0h0c-.07,0-.22.18-.43.44-.63.79-1.68,2.36-1.71,2.39h0" style="fill: #81664b"/>
  <path d="M6.84,10s0-.05,0-.06,0,0,0,0S7,9.51,7,9.66s-.56,0-.43-.13c0,0-.09-.07-.08-.09s-.15-.12-.11-.17.44.05.4,0c-.17-.23-.35-.18-.13-.41-.15-.27,0-.08,0-.1s-.1-.14,0-.1,0-.17,0-.1c.07-.29.06-.2.15-.1v0h0s0,.08.06,0h0s0,.06.05.07,0-.13.09.07a.62.62,0,0,0,0-.1c.05,0,.06.07.09.14s0-.09,0-.13h0c.12-.05.13.44.15.46s.11-.29.12-.25a.2.2,0,0,1,.08-.08v0c-.07,0,.25-.13.22-.13s0,.13,0,.15h0v.06h0l0,0h0a.28.28,0,0,1,0,.13l0,0h0s-.05.17,0,.2-.11,0,0,.15.07.09.12.17-.12.06-.12.09h0a.08.08,0,0,0-.06.09h0c-.2.08-.38,0-.55,0s-.15.58-.36.45c0,0,0-.07,0-.07l-.07,0" style="fill: #b1c800"/>
  <path d="M8.39,7.35s0,.06,0,.06h0s0,0,0,0c0-.14.13.44,0,.33s.55-.33.48-.17c0,0,.13,0,.13,0s.22,0,.22.08-.45.24-.35.28c.31.1.43-.06.37.29.33.15.07.07.06.1s.18.07,0,.12c-.12-.1.13.13,0,.1.13.31.08.22-.07.19v0h0c-.05,0-.08-.06-.07,0h0s-.08,0-.09,0,.12.11-.13,0l0,.1c-.06,0-.1,0-.17-.06S9,8.91,9,9H9c-.08.13-.41-.31-.44-.32s.08.34,0,.31a.12.12,0,0,1,0,.12V9a1.47,1.47,0,0,0-.12.27s-.07-.13-.08-.15h0l0-.06s0,0,0,0h0A.28.28,0,0,1,8.25,9a.14.14,0,0,0,0,.07h0s-.06-.19-.11-.2.11-.07-.12-.13-.12,0-.22-.07.07-.14.05-.16h0a.07.07,0,0,0,0-.11h0c.14-.21.38-.2.5-.39s-.25-.63,0-.65c0,0,0,.07.06.06l0-.08" style="fill: #b1c800"/>
  <path d="M9.24,10s0,0,0,0,0,0,0,0S9,9.79,9.06,9.8s-.17.4-.2.28-.07.05-.09,0-.12.08-.15,0,.16-.3.09-.29-.22.2-.32,0c-.24.05-.07,0-.07,0s-.13,0-.07,0-.12,0-.06,0c-.2-.13-.13-.09,0-.14h0s.07,0,0,0h0s.05,0,.06,0-.11,0,.07,0c0,0,0,0-.06-.05s.07,0,.12,0a.18.18,0,0,1-.08-.05h0c0-.1.35,0,.36,0s-.17-.16-.14-.15,0,0,0-.08l0,0c0,.06,0-.22,0-.2s.09.05.11.06h0l0,0h0l.09,0,0-.05h0S8.77,9,8.8,9s0,.08.12,0S9,9,9.07,9s0,.11,0,.12l0,0h0a.06.06,0,0,0,.05.06h0c0,.17-.13.26-.12.41s.38.25.23.37,0,0,0,0V10" style="fill: #b1c800"/>
  <path d="M11.25,9.35s0,.05,0,.07h0s0,0,0,0-.21.44-.23.26.66.12.5.21c0,0,.09.1.08.12s.16.16.11.22-.52-.13-.48,0c.18.3.39.26.09.5.16.35,0,.1,0,.12s.1.18-.05.12,0,.2,0,.11c-.11.34-.09.24-.19.1l0,0h0s0-.11-.07,0h0s0-.07,0-.09,0,.17-.11-.09a.66.66,0,0,0,0,.11c-.06,0-.06-.09-.09-.18a.66.66,0,0,1-.05.15h0c-.16,0-.1-.54-.12-.56s-.18.32-.18.27a.16.16,0,0,1-.11.09s0,0,0,0a1.22,1.22,0,0,0-.28.13s0-.16,0-.19h0v-.07l0,0h0a.26.26,0,0,1,0-.15l-.07,0h0s.08-.2,0-.24.13,0,0-.19-.08-.1-.13-.21.16-.06.16-.09l0,0h0c.09,0,.08-.08.08-.1h0c.26-.08.45.1.67,0s.25-.68.49-.49c0,0,0,.08,0,.09l.08,0" style="fill: #b1c800"/>
  <path d="M13.8,8.88s0,0,0,0,0-.05,0,0c-.05-.14.3.39.13.33s.41-.54.41-.35c0,0,.13,0,.14,0s.22-.08.25,0-.35.41-.24.41c.34,0,.41-.22.48.14.39,0,.1,0,.1.09s.21,0,.09.09c-.16-.05.18.09.08.09.25.26.17.19,0,.22l0,0h0c-.05,0-.11,0-.06,0h0s-.09,0-.11,0,.16.07-.12,0c0,0,0,.07.07.09s-.1,0-.19,0l.11.1h0c0,.16-.53-.15-.56-.15s.21.31.17.29a.2.2,0,0,1,0,.13.05.05,0,0,0,0,0c0-.1,0,.34,0,.31s-.12-.1-.14-.11h0l-.06,0h0l0,0h0a.2.2,0,0,1-.12-.08v.08h0s-.14-.16-.19-.15.08-.11-.17-.08-.13,0-.25,0,0-.17,0-.18l0,0h0a.09.09,0,0,0-.06-.11h0c.05-.27.29-.35.33-.58s-.49-.53-.22-.66c0,0,.06.06.08,0V8.88" style="fill: #b1c800"/>
  <path d="M14.45,12.85s0,.05.06.05h0s0-.05,0,0,.3.39.12.33.41-.54.42-.36c0,0,.13,0,.14,0s.21-.08.24,0-.34.42-.23.42c.34,0,.4-.23.48.14.39,0,.1,0,.1.08s.2,0,.08.1c-.15-.05.19.08.08.09.26.25.17.18,0,.21v0h0s-.1,0-.05,0h0s-.09,0-.11,0,.16.06-.12.05c0,0,0,.07.07.09s-.11,0-.2,0,.08.08.12.11h0c0,.17-.53-.15-.56-.14s.21.3.16.28a.17.17,0,0,1,0,.13s0,0,0,0,0,.34,0,.31-.12-.1-.14-.12v0l-.06,0,0,0h0a.25.25,0,0,1-.12-.08s0,0,0,.08h0s-.14-.16-.19-.16.08-.1-.17-.07-.13,0-.25,0,0-.17,0-.19l0,0h0a.08.08,0,0,0-.06-.11h0c.05-.27.29-.36.33-.59s-.49-.52-.22-.65c0,0,.05.06.08,0v-.09" style="fill: #b1c800"/>
  <path d="M19.75,11.67s.05,0,.07,0h0s0,0,0,0,.44.21.26.24.12-.67.21-.5c0-.05.09-.1.12-.08s.16-.17.22-.11-.13.52,0,.47c.3-.17.26-.38.5-.09.35-.15.1,0,.12,0s.18-.1.12,0,.2,0,.11,0c.34.11.23.09.1.19l0,0h0s-.11,0,0,.07h0s-.07,0-.09,0,.17,0-.09.1c0,0,.08,0,.11,0s-.09.06-.17.09a1.31,1.31,0,0,1,.15.05h0c0,.16-.54.1-.56.11s.32.18.27.19a.18.18,0,0,1,.08.11s0,0,0,0,.12.32.13.29-.16,0-.19,0h-.06l0,0h0A.26.26,0,0,1,21,13L21,13h0s-.2-.08-.24,0,0-.13-.18,0-.11.07-.22.12S20.3,13,20.27,13l0,0h0c0-.08-.08-.08-.1-.07h0c-.08-.27.1-.45,0-.67s-.68-.26-.49-.5c0,0,.07,0,.08,0l0-.08" style="fill: #b1c800"/>
  <path d="M16,15.3s-.06,0-.07,0h0s0,0,0,0c.15,0-.48.11-.36,0s.32.6.15.52c0,.05,0,.14,0,.14s0,.23-.1.22-.23-.49-.28-.39c-.13.32,0,.46-.33.38-.19.34-.08.07-.12.05s-.08.19-.12,0-.16.13-.11,0c-.35.12-.25.08-.2-.09h0c0-.05.07-.09,0-.08h0s0-.08,0-.09-.12.11,0-.14c0,0-.09,0-.12,0s0-.1.08-.18-.1,0-.14.06h0c-.14-.1.36-.42.36-.44s-.36.06-.32,0a.14.14,0,0,1-.13,0s0,0,0,0-.29-.17-.28-.14.15-.07.17-.08h0l.06,0h0a.22.22,0,0,1,.13-.08l-.08,0h0s.21-.06.22-.11.07.12.14-.12,0-.13.09-.23.15.08.17.07v0h0a.1.1,0,0,0,.13,0h0c.22.16.2.42.38.55s.69-.22.69.08c0,0-.08,0-.06.06l.08,0" style="fill: #b1c800"/>
  <path d="M11.78,15.11s.05,0,0,0h0s0,0,0,0,.34-.23.28-.09-.43-.37-.27-.36c0,0,0-.11,0-.12s0-.18,0-.2.32.31.33.21c0-.28-.17-.34.14-.39,0-.32,0-.08.08-.07s0-.18.08-.07.08-.15.08-.06c.22-.2.16-.13.18,0l0,0h0s0,.09,0,0h0s0,.08,0,.09.06-.13,0,.11a.19.19,0,0,0,.07-.06s0,.09,0,.16.07-.06.09-.09h0c.14,0-.15.43-.15.46s.27-.16.25-.12a.15.15,0,0,1,.11,0l0,0c-.09,0,.28,0,.26,0s-.1.09-.11.11h0l0,0h0a.23.23,0,0,1-.07.1h.06s-.14.11-.13.15-.09-.07-.07.14,0,.11,0,.2-.14,0-.15,0v0h0a.08.08,0,0,0-.1,0h0c-.22-.05-.28-.26-.46-.3s-.46.38-.56.15c0,0,.06,0,0-.06h-.08" style="fill: #b1c800"/>
  <path d="M12.14,15.72s0-.05-.05,0h0s0,0,0,0-.26-.34-.11-.29-.36.48-.36.31c0,0-.12,0-.13,0s-.19.07-.22,0,.31-.36.21-.36c-.3,0-.36.2-.43-.13-.34,0-.08,0-.08-.07s-.18,0-.08-.09S10.7,15,10.79,15c-.22-.23-.15-.17,0-.2l0,0h0c.05,0,.1,0,.06,0h0s.07,0,.09,0-.14-.06.11,0a.44.44,0,0,0-.07-.08s.1,0,.18,0-.07-.07-.1-.1h0c0-.14.46.14.49.13s-.19-.27-.15-.25a.17.17,0,0,1,0-.12l0,0c0,.1,0-.3,0-.27s.11.09.13.1h0l.05,0h0v0h0a.16.16,0,0,1,.11.07v-.07h0s.13.14.17.13-.07.1.15.07.12,0,.22,0,0,.14,0,.16l0,0h0c0,.08,0,.1.05.1h0c-.05.24-.26.32-.29.52s.43.46.19.58c0,0-.05-.06-.07,0v.08" style="fill: #b1c800"/>
  <path d="M17.42,16.65s0,0,0-.06h0s0,0,0,0c0,.13,0-.43.09-.3s-.58.16-.48,0-.11,0-.11-.07-.19-.06-.17-.13.46-.1.39-.16c-.25-.17-.41-.06-.26-.36-.26-.23-.05-.08,0-.11s-.15-.11,0-.12-.08-.15,0-.1c0-.32,0-.22.12-.15v0h0s.06.07.07,0h0s.07,0,.08.06-.08-.13.11,0c0,0,0-.08,0-.11s.08.06.13.11,0-.1,0-.14h0c.1-.1.28.39.3.4s0-.32.05-.28a.14.14,0,0,1,.05-.11v0c-.06.08.21-.22.18-.21s0,.14,0,.16h0v.06h0l0,0h0a.19.19,0,0,1,0,.12.1.1,0,0,0,0,0h0s0,.19,0,.21-.11,0,.08.14.11.06.19.13-.11.1-.1.13h0a.06.06,0,0,0,0,.1h0c-.18.15-.4.08-.55.22s.06.64-.21.58c0,0,0-.07,0-.07l0,.06" style="fill: #b1c800"/>
  <path d="M18.44,14.51s0,0,0,0,0,0,0,0,.37-.23.3-.08-.43-.42-.27-.4a.12.12,0,0,1,0-.13s0-.19,0-.21.33.34.34.25c0-.31-.15-.38.18-.42.05-.33,0-.08.08-.07s0-.18.09-.07.09-.15.09-.06c.25-.2.18-.13.19,0h0s0,.09,0,.05h0s0,.08,0,.1.07-.14,0,.11c0,0,.07,0,.09-.06s0,.1,0,.18.08-.06.11-.09h0c.14,0-.19.45-.18.47s.28-.15.26-.11a.13.13,0,0,1,.12,0l0,0a1.1,1.1,0,0,0,.27,0s-.11.1-.12.12h0l0,.05h0a.39.39,0,0,1-.08.1h.07s-.16.1-.16.15-.08-.09-.08.14,0,.12,0,.22-.15,0-.16,0v0h0c-.07,0-.1,0-.1,0h0c-.23-.07-.29-.29-.48-.35s-.52.38-.6.13c0,0,.06,0,0-.07h-.08" style="fill: #b1c800"/>
  <path d="M10.9,11.87s0,0,0,0,0,0,0,0,.05-.38.12-.25-.53.07-.43,0-.09,0-.08-.07-.17-.08-.14-.13.42,0,.36-.1-.35-.1-.19-.35c-.2-.22,0-.07,0-.09s-.12-.12,0-.11-.05-.14,0-.09c0-.28,0-.2.12-.12v0h0s0,.08,0,0h0s.06,0,.07.06-.06-.13.09,0a.25.25,0,0,0,0-.09c.05,0,.07,0,.11.1a.48.48,0,0,1,0-.12h0c.11-.07.21.38.22.39s.06-.28.08-.25a.08.08,0,0,1,.05-.08v0c-.06.06.21-.17.18-.16s0,.12,0,.14h0v.05h0l0,0h0a.27.27,0,0,1,0,.12l0-.05h0s0,.16,0,.18-.11,0,0,.14.08.06.15.13-.11.08-.1.11h0c-.06,0,0,.07,0,.09h0c-.18.12-.36,0-.51.13s0,.57-.25.49c0,0,0-.07,0-.07l-.06,0" style="fill: #b1c800"/>
  <path d="M8.14,14.07s0,0,0,0h0s0,0,0,0-.1.26-.12.16.38,0,.29.09.06.05.05.06.11.08.08.12-.3,0-.27,0,.23.13.08.28c.1.19,0,.05,0,.07s.07.09,0,.07,0,.11,0,.06c-.05.2,0,.14-.11.07h0s0,0,0,0h0l0,0c-.07,0,0,.1-.06,0s0,.05,0,.06,0-.05-.06-.09,0,.06,0,.08h0c-.09,0-.09-.29-.1-.31s-.08.2-.09.17a.12.12,0,0,1,0,.05v0s-.18.08-.16.08,0-.09,0-.1h0v0h0l0,0h0a.14.14,0,0,1,0-.09l0,0h0s0-.12,0-.14.08,0,0-.11-.05,0-.09-.11.09,0,.09-.06h0a0,0,0,0,0,0-.06h0c.14-.06.26,0,.38,0s.1-.39.25-.3,0,.05,0,.05l.05,0" style="fill: #b1c800"/>
  <path d="M9.87,13.08s0,.05,0,.07h0s0,0,0,0-.12.42-.17.26.6,0,.47.11c0,0,.1.07.09.1s.16.11.13.17-.48,0-.42.05c.19.23.37.17.15.42.18.29,0,.09,0,.11s.12.15,0,.11,0,.18,0,.11c0,.31,0,.22-.16.11v0h0s0-.09-.06,0h0s-.06-.05-.06-.07,0,.15-.11-.06c0,0,0,.07,0,.1s-.07-.07-.11-.14a.66.66,0,0,1,0,.14h0c-.13.06-.16-.46-.18-.48s-.11.31-.12.27a.24.24,0,0,1-.08.09.06.06,0,0,0,0,0c.07-.06-.26.15-.23.15s0-.14,0-.17h0v-.07h0l0,0h0a.2.2,0,0,1,0-.13l-.06,0h0s.05-.18,0-.21.12,0,0-.17-.08-.08-.14-.17.13-.07.13-.1h0a.08.08,0,0,0,.05-.1h0c.22-.11.41,0,.59-.07s.12-.63.36-.5c0,0,0,.07,0,.08l.07-.05" style="fill: #b1c800"/>
  <path d="M12.3,13.25s-.05,0-.05,0h0s0,0,0,0-.41,0-.29-.06.2.53.07.45,0,.11,0,.11-.05.18-.11.17-.14-.42-.19-.35c-.13.25,0,.39-.31.28-.18.26-.07,0-.1,0s-.09.15-.11,0-.13.09-.09,0c-.29.07-.21,0-.16-.09h0s.06-.06,0-.06h0s0-.07,0-.08-.12.08,0-.11c0,0-.07,0-.1,0s0-.08.09-.14-.09,0-.13,0h0c-.1-.09.34-.3.35-.32s-.31,0-.27,0a.18.18,0,0,1-.11,0h0c.08,0-.22-.18-.21-.15s.12,0,.14-.05h0l.06,0h0a.16.16,0,0,1,.11-.05l-.06,0h0s.18,0,.19-.07,0,.11.13-.09,0-.1.1-.18.11.09.13.08v0h0a.07.07,0,0,0,.1,0h0c.16.15.12.36.26.49s.59-.12.56.13c0,0-.07,0-.06,0l.06.05" style="fill: #b1c800"/>
  <path d="M11.6,13.22s0-.05,0-.06h0s0,0-.05,0c0,.13,0-.44.1-.3s-.59.15-.49,0-.11,0-.11-.07-.19-.06-.17-.13.47-.1.4-.16c-.26-.18-.41-.07-.27-.37-.25-.23,0-.08,0-.11s-.14-.11,0-.12-.08-.15,0-.1c0-.32,0-.23.12-.16v0h0c.05,0,.06.08.07,0h0s.07,0,.08.06-.08-.14.11,0c0,0,0-.08,0-.11s.08.06.14.11,0-.1,0-.14h0c.11-.1.29.4.31.41s0-.33.05-.29a.14.14,0,0,1,.05-.11v0c-.06.08.21-.22.18-.21s0,.14,0,.17h0l0,.06h0v0h0a.24.24,0,0,1,0,.13l0-.06h0s0,.19,0,.21-.12,0,.08.15.1,0,.18.12-.11.11-.1.14h0c-.07,0,0,.1,0,.11h0c-.19.16-.41.09-.56.23s0,.64-.21.58c0,0,0-.07,0-.07l-.05.06" style="fill: #b1c800"/>
  <path d="M6.86,12.1s0,0,0,0h0s0,0,0,0,.15.29,0,.23.34-.3.32-.17.09,0,.09,0,.15,0,.16,0-.28.22-.21.23c.23,0,.29-.09.3.16.24.06,0,0,0,.07s.13,0,0,.07.11.08,0,.07c.13.2.08.14,0,.14v0h0s-.07,0,0,0h0s0,0-.07,0,.1.07-.08,0c0,0,0,.05,0,.07s-.07,0-.12,0,0,.07.06.09h0c0,.1-.33-.17-.34-.17s.09.23.06.21a.14.14,0,0,1,0,.09v0c0-.07-.07.22,0,.2s-.07-.08-.08-.1h0l0,0H7v0H7L7,13.28a.43.43,0,0,0,0,.05H7s-.07-.12-.1-.12.07-.06-.1-.08-.09,0-.16,0,0-.11,0-.12h0a.05.05,0,0,0,0-.08h0c.07-.17.24-.19.29-.34s-.25-.4,0-.45c0,0,0,0,0,0l0-.06" style="fill: #b1c800"/>
  <path d="M5.82,14.25s0,0,0-.05,0,0,0,0,0-.32.06-.22-.43.13-.36,0-.08,0-.08,0-.14-.05-.13-.1.35-.08.29-.12-.31,0-.2-.27c-.2-.16,0-.06,0-.08s-.11-.08,0-.09-.06-.11,0-.07c0-.24,0-.17.09-.12v0h0s0,.06,0,0h0l.06,0c.06-.07-.06-.1.08,0s0-.06,0-.08.06,0,.1.08a.31.31,0,0,1,0-.1h0c.08-.08.22.29.24.29s0-.24,0-.21a.1.1,0,0,1,0-.08v0c0,.06.15-.17.13-.16s0,.1,0,.12h0v0h0a.16.16,0,0,1,0,.09l0,0h0s0,.14,0,.15-.08,0,.06.11.08,0,.14.09-.08.08-.07.1h0s0,.07,0,.08h0c-.13.12-.29.07-.4.18s0,.47-.14.43c0,0,0-.05,0-.05l0,.05" style="fill: #b1c800"/>
  <path d="M7.5,10.5s0,0,0,0h0s0,0,0,0,0,.26-.08.17.36,0,.29,0,.06,0,0,.05.11.06.09.09-.29,0-.25.06.24.08.12.24c.13.16,0,.05,0,.07s.07.08,0,.07,0,.1,0,.06c0,.19,0,.13-.08.08v0h0s0-.06,0,0h0l0,0c-.06,0,0,.09-.06,0s0,0,0,.06,0,0-.07-.08a.27.27,0,0,0,0,.09h0c-.07,0-.12-.27-.14-.28s0,.2,0,.17a.09.09,0,0,1,0,.06v0c0-.05-.15.1-.13.1s0-.09,0-.1H7v0H7a.09.09,0,0,1,0-.07l0,0H7s0-.11,0-.13.07,0,0-.09,0,0-.09-.09.07-.06.07-.07h0s0,0,0-.06h0c.13-.08.25,0,.35-.08s0-.38.19-.32,0,0,0,0l0,0" style="fill: #b1c800"/>
  <path d="M11.41,10.23a15.47,15.47,0,0,0,.31,2.23,20.3,20.3,0,0,0,1.21,4.74l.1-.05a20.28,20.28,0,0,1-1.2-4.71c-.17-1-.3-1.83-.39-2.47,0-.32.14.7.11.52l0-.28-.11,0" style="fill: #81664b"/>
  <path d="M9.64,16c-.14,0-.44.24-.41.36s.16.72.53.69.44,0,.73.17a.79.79,0,0,0,.71.09,1.06,1.06,0,0,1,.72.29,1.26,1.26,0,0,0,.89.45c.59.11.31,1.05.65,1.95s.32.61,1.4,1.59a.77.77,0,0,1-.14,1c-.22.19-1.37.4-1.36.9s-.21.57-.16.93.09.43.11.61a3.74,3.74,0,0,0,1.28.22c.4,0,.71,0,1,0,.08-.18.52-.43.54-.92s.34-.89.83-1.55S17,21,15.76,20.39s-1-1.53-.5-1.76a.92.92,0,0,0,.42-1,.24.24,0,0,1,.29-.32c.25,0,.15,0,.28,0s.11-.08.33-.06.68-.42.9-.38a.49.49,0,0,0,.55-.25c.08-.2-.34-.71-.92-.57s0,.05-.65.08A5.12,5.12,0,0,0,14,17.24a4.54,4.54,0,0,1-1.82-.44,2.09,2.09,0,0,0-.89-.24,1.1,1.1,0,0,1-.66-.2c-.16-.14.36,0,0,0s-.83-.4-1-.35" style="fill: #81664b;stroke: #fff;stroke-miterlimit: 10"/>
  <path d="M9.64,16c-.14,0-.44.24-.41.36s.16.72.53.69.44,0,.73.17a.79.79,0,0,0,.71.09,1.06,1.06,0,0,1,.72.29,1.26,1.26,0,0,0,.89.45c.59.11.31,1.05.65,1.95s.32.61,1.4,1.59a.77.77,0,0,1-.14,1c-.22.19-1.37.4-1.36.9s-.21.57-.16.93.09.43.11.61a3.74,3.74,0,0,0,1.28.22c.4,0,.71,0,1,0,.08-.18.52-.43.54-.92s.34-.89.83-1.55S17,21,15.76,20.39s-1-1.53-.5-1.76a.92.92,0,0,0,.42-1,.24.24,0,0,1,.29-.32c.25,0,.15,0,.28,0s.11-.08.33-.06.68-.42.9-.38a.49.49,0,0,0,.55-.25c.08-.2-.34-.71-.92-.57s0,.05-.65.08A5.12,5.12,0,0,0,14,17.24a4.54,4.54,0,0,1-1.82-.44,2.09,2.09,0,0,0-.89-.24,1.1,1.1,0,0,1-.66-.2c-.16-.14.36,0,0,0s-.83-.4-1-.35" style="fill: #81664b"/>
  <path d="M9.24,16.23a.62.62,0,0,0,.32-.16,2,2,0,0,0,0-1.57C9.23,13.84,8,11,7.64,10.85c-.09-.06,0,.33.15.54a13.43,13.43,0,0,1,1.54,3.22c0,.67.16,1.28-.19,1.11a15.49,15.49,0,0,0-1.36-.85,19.83,19.83,0,0,0-2.94-1.24,4.74,4.74,0,0,1-.79-.35c-.2-.1-.22.05,0,.18s.51.24.57.35.1.12.23.12a6.71,6.71,0,0,1,1.22.53.35.35,0,0,0,.31.13,5.86,5.86,0,0,1,1.45.82.37.37,0,0,0,.33.15c.15,0,.75.55,1.07.67" style="fill: #81664b"/>
  <path d="M8,15a15.12,15.12,0,0,0-1-2,6.83,6.83,0,0,1-.92-2.17c0-.05.12.42.35.85s1.8,3.24,1.84,3.5S8.08,15.1,8,15" style="fill: #81664b"/>
  <path d="M5.69,14A20.06,20.06,0,0,0,5,11.89,3.85,3.85,0,0,1,4.55,11c0-.19,0-.21.18.07s-.12-.11.41.86A17.06,17.06,0,0,1,5.81,14s-.13,0-.12,0" style="fill: #81664b"/>
  <path d="M6.28,11.13h0m.2-.12h0a.12.12,0,0,0,.08,0h0a.14.14,0,0,1-.08,0h0a.09.09,0,0,0,.08,0h0a.12.12,0,0,1-.08,0Z" style="fill: #e7f192"/>
  <path d="M5.35,12.78h0m-.24,0h0a.11.11,0,0,0-.05-.08h0a.1.1,0,0,1,.06.07h0a.11.11,0,0,0-.06-.08h0a.14.14,0,0,1,.05.07Z" style="fill: #e7f192"/>
  <path d="M17.58,16.08s2-2.9,2.15-2.82S18,16.3,18,16.41s-.38-.32-.38-.33" style="fill: #81664b"/>
  <path d="M17.58,16.08h0s.49-.73,1-1.43c.25-.35.51-.7.71-1s.38-.44.43-.43h0v0a8.12,8.12,0,0,1-.87,1.64c-.44.73-.88,1.42-.91,1.47l0,0c-.05,0-.13-.08-.21-.17l-.09-.11,0,0h0l.15.19c.07.08.15.15.2.15l0,0,.91-1.47a8.37,8.37,0,0,0,.87-1.65s0,0,0,0h0c-.07,0-.22.18-.43.44-.63.79-1.69,2.36-1.71,2.39h0" style="fill: #81664b"/>
  <path d="M4.84,13s0-.05,0-.06,0,0,0,0,.14-.39.17-.24-.56,0-.43-.13c0,0-.09-.07-.08-.09s-.15-.12-.11-.17.44.05.4,0c-.17-.23-.35-.18-.13-.41-.15-.27,0-.08,0-.1s-.1-.14,0-.1,0-.17,0-.1c.07-.29.06-.2.15-.1v0h0s0,.08.06,0h0s0,.06.05.07,0-.13.09.07a.62.62,0,0,0,0-.1c.05,0,.06.07.09.14s0-.09,0-.13h0c.13-.05.14.44.16.46s.11-.29.12-.25a.2.2,0,0,1,.08-.08v0c-.07,0,.25-.13.22-.13s0,.13,0,.15h0v.06h0l0,0h0a.28.28,0,0,1,0,.13l0,0h0s-.05.17,0,.2-.11,0,0,.15.07.09.12.17-.12.06-.12.09h0c-.07,0-.06.07-.06.08h0c-.2.08-.38,0-.55,0s-.15.58-.36.45c0,0,0-.07,0-.07l-.07,0" style="fill: #b1c800"/>
  <path d="M6.39,10.35s0,.06,0,.06h0s0,0,0,0c0-.14.13.44,0,.33s.55-.33.48-.17c0,0,.13,0,.13,0s.22,0,.22.08-.45.24-.35.28c.31.1.43-.06.37.29.33.15.07.07.06.1s.18.07,0,.12c-.12-.1.13.13,0,.1.13.31.08.22-.07.19v0h0s-.08-.06-.07,0h0s-.08,0-.09,0,.12.11-.13,0l0,.1c-.06,0-.1,0-.17-.06s0,.09.06.13H7c-.08.14-.41-.31-.44-.32s.08.34,0,.31a.12.12,0,0,1,0,.12v0a1.47,1.47,0,0,0-.12.27s-.07-.13-.08-.15h0l0-.06s0,0,0,0h0A.21.21,0,0,1,6.25,12a.14.14,0,0,0,0,.07h0s-.06-.19-.11-.2.11-.07-.12-.13-.12,0-.22-.07.07-.14.05-.16h0a.07.07,0,0,0,0-.11h0c.14-.21.38-.2.5-.39s-.25-.63,0-.65c0,0,0,.07.06.06l0-.08" style="fill: #b1c800"/>
  <path d="M7.24,13s0,0,0,0,0,0,0,0-.24-.2-.13-.19-.17.4-.2.28-.07.05-.09,0-.12.08-.15,0,.16-.3.09-.29-.22.2-.32,0c-.24.05-.07,0-.07,0s-.13,0-.07,0-.12,0-.06,0c-.2-.13-.13-.09,0-.14h0s.07,0,0,0h0s0,0,.06,0-.11,0,.07,0c0,0,0,0-.06-.05s.07,0,.12,0a.18.18,0,0,1-.08-.05h0c0-.1.35,0,.36,0s-.17-.16-.14-.15,0,0,0-.08l0,0c0,.06,0-.22,0-.2s.09.05.11.06h0l0,0h0l.09,0,0-.05h0s.11.08.14.07,0,.08.12,0,.08,0,.15,0,0,.11,0,.12l0,0h0a.06.06,0,0,0,0,.06h0c0,.17-.13.26-.12.41s.38.25.23.37,0,0,0,0V13" style="fill: #b1c800"/>
  <path d="M9.25,12.35s0,.05,0,.07h0s0,0,0,0-.21.44-.23.26.66.12.5.21c0,0,.09.1.08.12s.16.16.11.22-.52-.13-.48,0c.18.3.39.26.09.5.16.35,0,.1,0,.12s.1.18-.05.12,0,.2,0,.11c-.11.34-.09.24-.19.1l0,0H9s0-.11-.07,0H9s0-.07,0-.09,0,.17-.11-.09a.66.66,0,0,0,0,.11c-.06,0-.06-.09-.09-.18a.66.66,0,0,1-.05.15h0c-.16,0-.1-.54-.12-.56s-.18.33-.18.28a.18.18,0,0,1-.11.08s0,0,0,0a1.22,1.22,0,0,0-.28.13c-.05,0,0-.16,0-.19H8v-.07l0,0h0a.26.26,0,0,1,0-.15l-.07,0h0s.08-.2.05-.24.13,0,0-.18-.08-.11-.13-.22.16-.06.16-.09l0,0h0c.09,0,.08-.08.08-.1H8c.26-.08.45.1.67,0s.25-.67.49-.49c0,0,0,.08,0,.09l.08,0" style="fill: #b1c800"/>
  <path d="M11.8,11.88s0,0,0,0,0-.05,0,0c-.05-.14.3.39.13.33s.41-.54.41-.35c0,0,.13,0,.14,0s.22-.08.25,0-.35.41-.24.41c.34,0,.41-.22.48.14.39,0,.1,0,.1.09s.21,0,.09.09c-.16-.05.18.09.08.09.25.26.17.19,0,.22l0,0h0c-.05,0-.11,0-.06.05h0s-.09,0-.11,0,.16.07-.12,0c0,0,0,.07.07.09s-.1,0-.19,0l.11.11h0c0,.16-.53-.15-.56-.15s.21.31.17.29a.2.2,0,0,1,0,.13.05.05,0,0,0,0,0c0-.1,0,.34,0,.31s-.12-.1-.14-.11h0l-.06,0h0l0,0h0a.2.2,0,0,1-.12-.08v.08h0s-.14-.16-.19-.15.08-.11-.17-.08-.13,0-.25,0,0-.17,0-.18l0,0h0a.09.09,0,0,0-.06-.11h0c.05-.27.29-.35.33-.58s-.49-.53-.22-.66c0,0,.06.06.08,0v-.09" style="fill: #b1c800"/>
  <path d="M12.45,15.85s0,.05.06.05h0s0-.05,0,0,.3.39.12.33.41-.54.42-.36c0,0,.13,0,.14,0s.21-.08.24,0-.34.42-.23.42c.34,0,.4-.23.48.14.39,0,.1,0,.1.08s.2,0,.08.1c-.15-.05.18.08.08.09.26.25.17.18,0,.21v0h0s-.1,0-.05.05h0s-.09,0-.11,0,.16.06-.12,0c0,0,0,.07.07.09s-.11,0-.2,0,.08.08.12.11h0c0,.17-.53-.15-.56-.14s.21.3.16.28a.17.17,0,0,1,0,.13s0,0,0,0,0,.34,0,.31-.12-.1-.14-.12v0l-.06,0,0,0h0a.25.25,0,0,1-.12-.08.11.11,0,0,0,0,.08h0s-.14-.16-.19-.16.08-.1-.17-.07-.13,0-.25,0,0-.17,0-.19l0,0h0a.08.08,0,0,0-.06-.11h0c.05-.27.29-.36.33-.58s-.49-.53-.22-.66c0,0,.05.06.08,0v-.09" style="fill: #b1c800"/>
  <path d="M17.75,14.67s.05,0,.07,0h0s0,0,0,0,.44.21.26.24.12-.67.21-.5c0-.05.09-.1.12-.08s.16-.17.22-.11-.13.52,0,.47c.3-.17.26-.38.5-.09.35-.15.1,0,.12,0s.18-.1.12,0,.2,0,.11,0c.34.11.23.09.1.19l0,0h0s-.11,0,0,.07h0s-.07,0-.09,0,.17,0-.09.1c0,0,.08,0,.11,0s-.09.06-.17.09a1.31,1.31,0,0,1,.15.05h0c0,.16-.54.1-.56.11s.32.18.27.19a.18.18,0,0,1,.08.11s0,0,0,0,.12.32.13.29-.16,0-.19,0v0l-.07,0h0l0,0h0A.26.26,0,0,1,19,16,.43.43,0,0,0,19,16h0s-.2-.08-.24,0,0-.13-.18,0-.11.07-.22.12S18.3,16,18.27,16l0,0h0c0-.08-.08-.08-.1-.07h0c-.08-.27.1-.45,0-.67s-.68-.26-.49-.5c0,0,.07,0,.08,0l0-.08" style="fill: #b1c800"/>
  <path d="M14,18.3s-.06,0-.07,0h0s0,0,0,0c.15,0-.48.11-.36,0s.32.6.15.52c0,.05,0,.14,0,.14s0,.23-.1.22-.23-.49-.28-.39c-.13.32,0,.46-.33.38-.19.34-.08.07-.12.05s-.08.19-.12,0-.16.13-.11,0c-.35.13-.25.08-.2-.09h0c0-.05.07-.09,0-.08h0s0-.08,0-.09-.12.11,0-.14c0,0-.09,0-.12,0s0-.1.08-.18-.1,0-.14.06h0c-.14-.1.36-.42.36-.44s-.36.06-.32,0a.14.14,0,0,1-.13,0s0,0,0,0-.29-.18-.28-.15.15-.07.17-.08h0l.06,0h0a.22.22,0,0,1,.13-.08l-.08,0h0s.21-.06.22-.11.07.12.14-.12,0-.13.09-.23.15.09.17.07v0h0a.09.09,0,0,0,.13,0h0c.22.16.2.42.38.55s.69-.22.69.08c0,0-.08,0-.06.06l.08,0" style="fill: #b1c800"/>
</svg>
