<svg id="bffa1d24-8cbc-4803-b72a-b8962e0078a9" data-name="Calque 1" xmlns="http://www.w3.org/2000/svg" width="32" height="32" viewBox="0 0 32 32">
  <title>field-81-IconeCoucheZDH</title>
  <polygon points="1.61 18.17 15.37 30.57 30.39 8.21 13.09 1.38 1.61 18.17" style="fill: #a9cd82;stroke: #516d53;stroke-miterlimit: 10"/>
  <path d="M5.11,17.23s2.09-.31,2.75.26S8,19.69,8,20.67s-.6-.1-.6-.1L5.11,17.23" style="fill: #669e3e"/>
  <path d="M9.79,9.49S7.94,11.2,9.1,12.22s.62,2,2.05.34,2.4-2.8,1.1-3.14a4,4,0,0,0-2.46.07" style="fill: #669e3e"/>
  <path d="M14.32,4s-.51-.1-.2,1.18.72,3.18,1.28,2.87.21-.92,0-1.9S15.3,4.36,14.32,4" style="fill: #669e3e"/>
  <path d="M14.94,12c-.1,1.5-1.74,1.95-1.18,3s.21,2.88,1.64,1.49,1.49-2.25,1.08-2.87S15,11.64,14.94,12" style="fill: #669e3e"/>
  <path d="M19.12,16.63c-.1,1.5-2-.92-1.44.11s.2,2.87,1.64,1.49,1.34-1.12.93-1.73a.61.61,0,0,0-1.13.13" style="fill: #669e3e"/>
  <path d="M21.68,7.8c-1.17-.13-2-.47-2.25.92s-.67,2-.11,2.31,2.06,1.74,2.62,1.79,2.26.72,2.26-.31.2-2.15-.88-2.25-1.79-.31-1.94-1,1.07-1.08.3-1.43" style="fill: #669e3e"/>
  <path d="M11.58,19.8c0,1.9.46,4.2,1.64,4.61s2.1,1.44,3.34-.25,2.87-3.08,1-3.7-6-1.95-6-.66" style="fill: #669e3e"/>
</svg>
