<svg id="fd7b96ea-16f9-4722-873b-caa0fc3f3c21" data-name="Calque 1" xmlns="http://www.w3.org/2000/svg" width="32" height="32" viewBox="0 0 32 32">
  <title>field-100-IconeBodureForetSansProd</title>
  <circle cx="4.25" cy="18.65" r="3.48" style="fill: #5bab26;stroke: #5bab26;stroke-miterlimit: 10"/>
  <circle cx="6.61" cy="22.98" r="3.48" style="fill: #3e9500;stroke: #3e9500;stroke-miterlimit: 10"/>
  <circle cx="13.57" cy="27.7" r="3.66" style="fill: #3e9500;stroke: #3e9500;stroke-miterlimit: 10;stroke-width: 1.05113985557014px"/>
  <circle cx="10.67" cy="24.91" r="3.48" style="fill: #5bab26;stroke: #5bab26;stroke-miterlimit: 10"/>
  <g>
    <path d="M9.23,18.65v.1a5.07,5.07,0,0,1,1.3,1.19h.14a5,5,0,0,1,4.47,2.82,5.21,5.21,0,0,1,3,2.5L29.43,8.45,13.08,2,5,13.75A5,5,0,0,1,9.23,18.65Z" style="fill: #fff"/>
    <path d="M4.48,13.69,12.89,1.38l17.3,6.83L18.38,25.8a6.17,6.17,0,0,1,.19.61L31,8,12.71.76l-8.85,13c.13,0,.26,0,.39,0Z" style="fill: #77787a"/>
    <path d="M12.89,1.38,4.48,13.69a5,5,0,0,1,.56.06L13.08,2,29.43,8.45,18.14,25.26c.09.18.16.36.24.54L30.19,8.21Z" style="fill: #77787a"/>
  </g>
</svg>
