<svg id="afe2024d-b659-4490-a58d-b151aaea0bab" data-name="Calque 1" xmlns="http://www.w3.org/2000/svg" width="32" height="32" viewBox="0 0 32 32">
  <title>human-22-IconeTypeSol</title>
  <path d="M21.15,2h0a1.26,1.26,0,0,1-.05-.28A1.26,1.26,0,0,0,21.15,2Z" style="fill: none"/>
  <path d="M21.71,8.53l-.21,0a.53.53,0,0,1-.29-.19c-.1-.13-2.43-3.19-3.05-4.32A2.46,2.46,0,0,1,18,3.6,6.26,6.26,0,0,0,16,3.24,6,6,0,0,0,14,3.57a2.05,2.05,0,0,1-.16.41c-.62,1.13-2.95,4.19-3.05,4.32a.54.54,0,0,1-.28.19l-.22,0L14,17.37a7.94,7.94,0,0,1,.72,2.56,6.57,6.57,0,0,0,1.26.14,6.1,6.1,0,0,0,1.36-.16A8.06,8.06,0,0,1,18,17.4Z" style="fill: #684639"/>
  <path d="M22.41,8.06Z" style="fill: #927768"/>
  <g>
    <path d="M21.19,32l-1-2s-.93-1,.51-1.78S26,25.85,26,25.85s1.62-.77,1.87.85A33.68,33.68,0,0,0,29.78,32Z" style="fill: #5d7b52"/>
    <polygon points="20.81 27.56 25.69 25.16 20.81 27.56 20.81 27.56" style="fill: none"/>
    <path d="M22.36,8.05a3.82,3.82,0,0,0,.55-1.2c0-.5-.7-1.39-.93-1.84-.38-.76-1.22-3.84-2.52-3-1.46.89.38,2.94,1,3.76C20.86,6.32,21.59,7.89,22.36,8.05Z" style="fill: #dabca6"/>
    <path d="M28.16,7.64A76.48,76.48,0,0,0,23,.84c-1.16-1.31-2.08.39-1.65,1.57a32,32,0,0,0,2.06,4.15c.5-1,1.64-1.36,2.28-.28s.15,2.29-.12,3.32c-.45,1.72-1,3.42-1.54,5.1l-.48-.16c.51-1.57,1-3.14,1.44-4.73.26-.93.78-2.22.34-3.15S24.06,6.3,23.7,7a79.19,79.19,0,0,0-4.23,10,11.06,11.06,0,0,0-1,4.47,10.76,10.76,0,0,0,1.06,3.4,8,8,0,0,0,1.27,2.33c.3.27.2.23.65,0l2.14-1a7.88,7.88,0,0,0,1.89-.92c.26-.26.19-.29.2-.76A19.65,19.65,0,0,1,28.22,16c.76-1.43,1.64-2.83,1.54-4.51A7.36,7.36,0,0,0,28.16,7.64Z" style="fill: #dabca6"/>
  </g>
  <g>
    <path d="M10.81,32l1-1.95s.93-1-.51-1.79S6,25.83,6,25.83s-1.62-.77-1.87.85A53.36,53.36,0,0,1,2.64,32Z" style="fill: #5d7b52"/>
    <path d="M9.59,8.06c.78-.16,1.41-1.55,1.85-2.15.63-.88,2.37-2.69,1.28-3.79C11.44.82,10.5,4.06,10.14,4.77a8.07,8.07,0,0,0-1,2A3.77,3.77,0,0,0,9.59,8.06Z" style="fill: #dabca6"/>
    <path d="M8.13,6.66c-.65-1.22-1.53-.13-1.56.78a11,11,0,0,0,.65,3c.4,1.38.84,2.76,1.28,4.13L8,14.7C7.47,13,6.93,11.32,6.48,9.6c-.27-1-.72-2.33-.12-3.32s1.78-.71,2.28.28C9.32,5.29,10,4,10.58,2.68a1.86,1.86,0,0,0,.11-1.8A.91.91,0,0,0,9.27.59,16.08,16.08,0,0,0,7,3.48C6.09,4.65,5.18,5.82,4.3,7a8.71,8.71,0,0,0-2,4.16,7.12,7.12,0,0,0,1.22,4.25,24.9,24.9,0,0,1,2.36,5.79,18.59,18.59,0,0,1,.42,2.46,5.91,5.91,0,0,0,0,1.4c.23.48,1.67.91,2.17,1.15l2.71,1.33L11,27.45a15.08,15.08,0,0,0,2.36-5.21c.38-1.77-.25-3.47-.82-5.13A77.47,77.47,0,0,0,8.13,6.66Z" style="fill: #dabca6"/>
  </g>
  <circle cx="15.38" cy="24.86" r="0.88" style="fill: #684639"/>
  <circle cx="16.86" cy="27.76" r="0.6" style="fill: #684639"/>
  <circle cx="16.37" cy="21.99" r="0.99" style="fill: #684639"/>
</svg>
