<svg id="ae5d8302-1137-4d68-b8fd-7b84e0576b18" data-name="Calque 1" xmlns="http://www.w3.org/2000/svg" width="32" height="32" viewBox="0 0 32 32">
  <title>vegetal-91-IconeHarvest.Market</title>
  <g>
    <path d="M22,24.66c4.39,0,5.92-1.17,5.92-1.17a3.27,3.27,0,0,0,1.73-1.77,1.52,1.52,0,0,0,.05-1.42,32.39,32.39,0,0,0-6.28-.68,10.45,10.45,0,0,0-4.75,1.46,10.16,10.16,0,0,1-1,3.09A21.13,21.13,0,0,0,22,24.66Z" style="fill: #6da200"/>
    <path d="M21.12,15.63a6.56,6.56,0,0,0,2.34-2.17c.65-1.31,3.4-2.05,4.56-2.31a2.17,2.17,0,0,0-.84-2.4A5.36,5.36,0,0,0,24,8.07s.11-.9-1.19-1.82a2.86,2.86,0,0,0-2.17-.35A16.71,16.71,0,0,0,17.81,9l-.29.91-1.23,2.79a10.13,10.13,0,0,1,2.06,3.73Z" style="fill: #6da200"/>
    <path d="M29.3,15.39a1.89,1.89,0,0,0,.45-2,3.11,3.11,0,0,0-1.16-1.42l0,.11c-1.53.3-3.87,1.07-4.26,1.86a7.7,7.7,0,0,1-2.79,2.63l-.1,0-2.86.83a10.1,10.1,0,0,1,.21,2c0,.16,0,.32,0,.48a11,11,0,0,1,4.59-1.26,32.94,32.94,0,0,1,6.23.66,3.6,3.6,0,0,0,1.06-1.59C31.13,16.29,29.3,15.39,29.3,15.39Z" style="fill: #6da200"/>
    <path d="M14.4,11a10.38,10.38,0,0,1,1.15.93l1-2.41.28-.85a11.12,11.12,0,0,1,2.31-2.77,7.06,7.06,0,0,0-1.84-.8c-1.84-.58-2.54,1.51-2.54,1.51a10.69,10.69,0,0,0-1.38,2.13,2.53,2.53,0,0,1,.36.25A2,2,0,0,1,14.4,11Z" style="fill: #6da200"/>
  </g>
  <path d="M12.43,12.17a3.78,3.78,0,0,1,1.08,1.76.85.85,0,0,1-.42.92.86.86,0,0,1-1-.12,4.4,4.4,0,0,0-1-.67,5.47,5.47,0,0,1,0,2,.86.86,0,0,1-.79.68.83.83,0,0,1-.86-.59A5.79,5.79,0,0,0,8,13.88a4.94,4.94,0,0,0-2.15,2.53A.87.87,0,0,1,5,17H5a.86.86,0,0,1-.81-.59,3.85,3.85,0,0,1,.07-3.07,10.25,10.25,0,0,0-1.45.35,8.15,8.15,0,1,0,9.61-1.54Z" style="fill: #b71236"/>
  <path d="M9.3,12.63a6.41,6.41,0,0,1,3.37,1.47s-.35-1.78-3.1-2.53c0,0,.24-1,2.91-1a4.73,4.73,0,0,0-1.89-.44,2.65,2.65,0,0,0-2.4.85,4.44,4.44,0,0,0-4.4-1.13A3.14,3.14,0,0,1,6.4,11.22s-3.13-.06-4.52,1.94a13.31,13.31,0,0,1,4.44-.88C6,12.76,4.12,13.53,5,16.16A6,6,0,0,1,8.1,12.85a6.67,6.67,0,0,1,2.16,3.05A3.62,3.62,0,0,0,9.3,12.63Z" style="fill: #107230"/>
</svg>
