<svg id="accd67da-fc77-49ce-b584-26549f94a1bd" data-name="Calque 1" xmlns="http://www.w3.org/2000/svg" width="32" height="32" viewBox="0 0 32 32">
  <title>office-71-IconeDecoupe</title>
  <path d="M.32,24.36a5.08,5.08,0,1,0,9-4.56l4.76-1.73a77.55,77.55,0,0,0,15.12,3.11,5.13,5.13,0,0,0,2.57-.78L19.69,16l11.73-4.21s1.16-.55.39-.87c-1.61-.66-5.23-.59-8.87.18A68.82,68.82,0,0,0,14.06,14L9.3,12.23a4.87,4.87,0,0,0,.56-1.09,5.08,5.08,0,1,0-6.5,3L8.42,16,3.36,17.86A5.08,5.08,0,0,0,.32,24.36ZM8.07,10.49a3.17,3.17,0,1,1-1.9-4.06A3.17,3.17,0,0,1,8.07,10.49ZM13.32,16a.74.74,0,1,1,1.48,0,.74.74,0,1,1-1.48,0ZM4,19.65a3.16,3.16,0,1,1-1.9,4.06A3.17,3.17,0,0,1,4,19.65Z" style="fill: #58585a"/>
</svg>
