<svg id="bc5da319-7e1c-4add-a654-6ad39fb848d2" data-name="Calque 1" xmlns="http://www.w3.org/2000/svg" width="32" height="32" viewBox="0 0 32 32">
  <title>doc-32-IconeBlocNotes</title>
  <g>
    <path d="M22,6a1,1,0,0,1-1-1V4H19V5a1,1,0,0,1-2,0V4H15V5a1,1,0,1,1-2,0V4H11V5A1,1,0,0,1,9,5V4H8a1.5,1.5,0,0,0-1.5,1.5v22A1.51,1.51,0,0,0,8,29H24A1.52,1.52,0,0,0,25.5,27.5V5.5A1.51,1.51,0,0,0,24,4H23V5A1,1,0,0,1,22,6Z" style="fill: #fff"/>
    <rect x="14.99" y="3" width="2" height="1" style="fill: #868789"/>
    <path d="M24,3H23V4h1A1.51,1.51,0,0,1,25.5,5.5v22A1.52,1.52,0,0,1,24,29H8a1.51,1.51,0,0,1-1.5-1.51V5.5A1.5,1.5,0,0,1,8,4H9V3H8a2.5,2.5,0,0,0-2.5,2.5v22A2.5,2.5,0,0,0,8,30H24a2.5,2.5,0,0,0,2.5-2.5V5.5A2.5,2.5,0,0,0,24,3Z" style="fill: #868789"/>
    <rect x="18.99" y="3" width="2" height="1" style="fill: #868789"/>
    <rect x="10.99" y="3" width="2" height="1" style="fill: #868789"/>
  </g>
  <line x1="9.99" y1="5" x2="9.99" y2="1.79" style="fill: none;stroke: #b8b7b8;stroke-linecap: round;stroke-linejoin: round"/>
  <line x1="13.99" y1="5" x2="13.99" y2="1.79" style="fill: none;stroke: #b8b7b8;stroke-linecap: round;stroke-linejoin: round"/>
  <line x1="17.99" y1="5" x2="17.99" y2="1.79" style="fill: none;stroke: #b8b7b8;stroke-linecap: round;stroke-linejoin: round"/>
  <line x1="21.99" y1="5" x2="21.99" y2="1.79" style="fill: none;stroke: #b8b7b8;stroke-linecap: round;stroke-linejoin: round"/>
</svg>
