<svg id="e227f8ed-1e2a-47df-8755-e2bc462e65b9" data-name="Calque 1" xmlns="http://www.w3.org/2000/svg" width="32" height="32" viewBox="0 0 32 32">
  <title>people-96-IconeSaisieCollaborateurs</title>
  <path d="M19.29,22.06l-.58-.45c-3.23,3.23-6.33-.61-7.58-3.56-2.21.55-7.41,1.38-8.06,4C2.53,24.25,5.43,26.87,7,28a14.57,14.57,0,0,0,8.58,3A16.2,16.2,0,0,0,25,27.64c-.8-1.13-1.15-3.08-2.27-4.11s-2.74-.91-3.46-1.47Z" style="fill: #495e9f"/>
  <path d="M28.51,21.7c-1-2.12-5.45-3.07-7.59-3.65a11,11,0,0,1-2.21,3.56,28.45,28.45,0,0,1,6.31,6c1.35-1,4.42-3.88,3.49-5.94C28.13,20.86,28.57,21.84,28.51,21.7Z" style="fill: #314975"/>
  <path d="M12.85,15.49h0l4.93,5.34a6.81,6.81,0,0,0,1.07-1.36,3.33,3.33,0,0,0,.5-1.74l0-2.4a.29.29,0,0,0,0-.14C17.59,17,15.25,17.83,12.85,15.49Z" style="fill: #cfad88"/>
  <path d="M19.81,6.2a7.22,7.22,0,0,0-2.74-.36h-.51a5.36,5.36,0,0,1-1.51-.29l.36.16A4.92,4.92,0,0,1,13.32,3.9C12.15,4,9.9,7.4,10,10.17v0s0,.05,0,.05a11.3,11.3,0,0,0,2.5,4.89V17.2a2.9,2.9,0,0,0,.35,1.46c1.05,1.92,2.88,4.16,4.93,2.17l-4.93-5.34h0c2.4,2.34,4.74,1.54,6.48-.3a11.49,11.49,0,0,0,2.46-4.27c0-.13,0-.23,0-.35C22.47,6.23,19.83,6.21,19.81,6.2Z" style="fill: #dcc4ab"/>
  <path d="M10,10.23v-.06C9.9,7.4,12.15,4,13.32,3.9a4.92,4.92,0,0,0,2.09,1.81,3.27,3.27,0,0,0,1.15.13h.51a7,7,0,0,1,2.74.36c.65.27,2.2,1.18,2,4.37,0,.12,0,.22,0,.35h0a10.54,10.54,0,0,0,.53-2.71A6.45,6.45,0,0,0,16,1c-1.43,0-1.39.42-2.06.69a2.73,2.73,0,0,1-.77,0C10.73,1.35,9.46,5,9.69,8.28A11.74,11.74,0,0,0,10,10.23Z" style="fill: #7c6e5c"/>
</svg>
