<svg id="b94c21cc-978c-4d59-be15-d8ad40059096" data-name="Calque 1" xmlns="http://www.w3.org/2000/svg" width="32" height="32" viewBox="0 0 32 32">
  <title>box-53-IconeEngraisOrganique</title>
  <path d="M25.43,32H6.57a24.66,24.66,0,0,1-1.13-7.67c0-4.55,1.13-20.44,1.13-20.44A39.72,39.72,0,0,0,16,5a39.72,39.72,0,0,0,9.43-1.13s1.13,15.84,1.13,20.39A25.21,25.21,0,0,1,25.43,32Z" style="fill: #ba945b"/>
  <path d="M10.66,5.22A5.1,5.1,0,0,1,16,.67a5,5,0,0,1,5.24,4.55" style="fill: none;stroke: #ba945b;stroke-miterlimit: 10"/>
  <path d="M21.6,25a21.81,21.81,0,0,1-5.47.56A21.71,21.71,0,0,1,10.66,25a6.27,6.27,0,0,1-.29-2.81c.11-2,.44-4.25.44-4.25a37.7,37.7,0,0,0,5.32.26,35.89,35.89,0,0,0,5.11-.26,18.55,18.55,0,0,1,.65,4.28A9,9,0,0,1,21.6,25Z" style="fill: #dcc9ac"/>
</svg>
