<svg id="f5002720-5b46-44a1-ae02-b344e00156e3" data-name="Calque 1" xmlns="http://www.w3.org/2000/svg" width="32" height="32" viewBox="0 0 32 32">
  <title>places-23-IconeChemin</title>
  <g>
    <path d="M32,0H0V29.15H0C2.92,27.81,5.84,26.43,8.72,25a120.7,120.7,0,0,0,13.75-7.66c.52-.37,1-.75,1.5-1.13.22-.17.43-.36.61-.53l-.17-.14a36.19,36.19,0,0,0-3.33-2c-.6-.33-1.21-.66-1.83-1.05A9.82,9.82,0,0,1,17.32,11a3.63,3.63,0,0,1-1-1.8,3.27,3.27,0,0,1,0-1.46,3,3,0,0,1,.48-1,5.17,5.17,0,0,1,2-1.56,18.49,18.49,0,0,1,3.86-1.26,58.39,58.39,0,0,1,7.68-1.15A60.53,60.53,0,0,0,23.1,5.49a19.59,19.59,0,0,0-3.39,1.9,4.46,4.46,0,0,0-1,1l.14.1a6.82,6.82,0,0,0,1.46.74c.57.22,1.16.42,1.78.62A34.3,34.3,0,0,1,26,11.22a6.45,6.45,0,0,1,2.29,1.7,4.69,4.69,0,0,1,1,2.83A5.12,5.12,0,0,1,29,17.56a6.37,6.37,0,0,1-.45,1,14,14,0,0,1-1.65,2.36c-.54.63-1.07,1.21-1.61,1.76A120.17,120.17,0,0,1,14.62,32l-.14,0H32Z" style="fill: #6f9628"/>
    <path d="M25.33,16.48c0-.05-.06-.12-.13-.21C25.27,16.44,25.35,16.53,25.33,16.48Z" style="fill: #6f9628"/>
    <path d="M18.58,8.55c0,.06,0,.1,0,.06a.34.34,0,0,0,0-.12Z" style="fill: #6f9628"/>
  </g>
</svg>
