<svg id="bc076990-8fbe-4d82-91bf-311937fb9512" data-name="Calque 1" xmlns="http://www.w3.org/2000/svg" width="32" height="32" viewBox="0 0 32 32">
  <title>phyto-22-11DCE1CC</title>
  <path d="M.34,19.59s-2-9,5.58-14.09c5.74-3.9,13.55-1.12,19.5-1.19,0,0-.5,11.09-8.65,15.25S3.3,21,3.3,21l-.77-.39c4.21-4.46,8.28-8.3,14.36-11C16.89,9.64,8.66,9.92.34,19.59Z" style="fill: #94bd0f"/>
  <g>
    <path d="M12.37,27.87l-.31-.05Z" style="fill: none"/>
    <path d="M14.3,28l.93,0-1,0Z" style="fill: none"/>
    <path d="M11.59,27.74l-.28-.06Z" style="fill: none"/>
    <path d="M13.26,28l-.25,0Z" style="fill: none"/>
    <path d="M10.93,27.59l-.24-.07Z" style="fill: none"/>
    <path d="M10.39,27.43l-.18-.06Z" style="fill: none"/>
    <path d="M17.41,27.69l-.73.12Z" style="fill: none"/>
    <path d="M16.28,27.87l-.79.08Z" style="fill: none"/>
    <path d="M21.33,26.51c-.31.12-.62.25-.91.35C20.71,26.76,21,26.63,21.33,26.51Z" style="fill: none"/>
    <path d="M23.2,25.66c-.48.24-1,.46-1.42.66C22.24,26.12,22.72,25.9,23.2,25.66Z" style="fill: none"/>
    <path d="M19.91,27c-.27.09-.54.18-.8.25C19.37,27.21,19.64,27.12,19.91,27Z" style="fill: none"/>
    <path d="M10,27.29l-.12-.05Z" style="fill: none"/>
    <path d="M18.61,27.42l-.74.18Z" style="fill: none"/>
    <path d="M9.7,27.18l0,0Z" style="fill: none"/>
    <path d="M21.07,24.46A20.87,20.87,0,0,1,9.16,26.92c4.95,2.35,11.78.71,16-2.5,3.51-2.66,5.47-6.91,6.35-11.14a20.81,20.81,0,0,0,.44-3l-1.36,0C29.83,14.2,27.58,21.13,21.07,24.46Z" style="fill: #c9da8d"/>
    <path d="M20.08,22.54c-.48.24-1,.46-1.42.66C19.12,23,19.6,22.78,20.08,22.54Z" style="fill: #c9da8d"/>
    <path d="M15.49,24.3l-.74.18Z" style="fill: #c9da8d"/>
    <path d="M13.16,24.75c-.27,0-.53.06-.79.08C12.63,24.81,12.89,24.79,13.16,24.75Z" style="fill: #c9da8d"/>
    <path d="M18.2,23.39c-.3.13-.61.25-.9.35C17.59,23.64,17.9,23.52,18.2,23.39Z" style="fill: #c9da8d"/>
    <path d="M11.18,24.88l.93,0-1,0Z" style="fill: #c9da8d"/>
    <path d="M16.79,23.92l-.8.24Z" style="fill: #c9da8d"/>
    <path d="M14.29,24.57l-.73.12Z" style="fill: #c9da8d"/>
    <path d="M10.15,24.84l-.26,0Z" style="fill: #c9da8d"/>
    <path d="M9.65,27.15l-.07,0Z" style="fill: #fff"/>
    <path d="M13,27.94l-.64-.07Z" style="fill: #fff"/>
    <path d="M14.27,28c-.35,0-.69,0-1,0C13.58,28,13.92,28,14.27,28Z" style="fill: #fff"/>
    <path d="M16.68,27.81l-.4.06Z" style="fill: #fff"/>
    <path d="M12.06,27.82l-.47-.08Z" style="fill: #fff"/>
    <path d="M15.49,28l-.26,0Z" style="fill: #fff"/>
    <path d="M11.31,27.68l-.38-.09Z" style="fill: #fff"/>
    <path d="M10.69,27.52l-.3-.09Z" style="fill: #fff"/>
    <path d="M10.21,27.37,10,27.29Z" style="fill: #fff"/>
    <path d="M9.86,27.24l-.16-.06Z" style="fill: #fff"/>
    <path d="M17.87,27.6l-.46.09Z" style="fill: #fff"/>
    <path d="M20.42,26.86l-.51.17Z" style="fill: #fff"/>
    <path d="M21.78,26.32l-.45.19Z" style="fill: #fff"/>
    <path d="M19.11,27.28l-.5.14Z" style="fill: #fff"/>
    <path d="M16,24.16l-.5.14Z" style="fill: #fff"/>
    <path d="M18.66,23.2l-.46.19Z" style="fill: #fff"/>
    <path d="M17.3,23.74l-.51.18Z" style="fill: #fff"/>
    <path d="M14.75,24.48l-.46.09Z" style="fill: #fff"/>
    <path d="M12.37,24.83l-.26,0Z" style="fill: #fff"/>
    <path d="M13.56,24.69l-.4.06Z" style="fill: #fff"/>
    <path d="M11.15,24.88c-.35,0-.69,0-1,0C10.46,24.87,10.8,24.88,11.15,24.88Z" style="fill: #fff"/>
    <path d="M27.48,7.09a21.51,21.51,0,0,1-6,11.8A20.06,20.06,0,0,1,6.14,23.8c1.81,1.1,4.32,1.19,6.36,1a20.56,20.56,0,0,0,6.86-1.93,16.13,16.13,0,0,0,8.25-9.82,22.92,22.92,0,0,0,1.23-5.95Z" style="fill: #b6ce64"/>
  </g>
</svg>
