<svg id="ab90626a-f6e1-415c-a430-2c495bfb9fe9" data-name="Calque 1" xmlns="http://www.w3.org/2000/svg" width="32" height="32" viewBox="0 0 32 32">
  <circle cx="8.71" cy="11.13" r="2.31" transform="translate(-2.45 19.81) rotate(-89.84)" style="fill: #c1d900"/>
  <circle cx="4.13" cy="13.58" r="2.31" transform="translate(-9.47 17.67) rotate(-89.84)" style="fill: #c1d900"/>
  <circle cx="8.71" cy="17.67" r="2.31" transform="translate(-8.97 26.34) rotate(-89.89)" style="fill: #c1d900"/>
  <circle cx="13.45" cy="20.65" r="2.31" transform="matrix(0, -1, 1, 0, -7.22, 34.08)" style="fill: #79418f"/>
  <circle cx="18.44" cy="11.43" r="2.31" transform="translate(6.95 29.83) rotate(-89.83)" style="fill: #79418f"/>
  <circle cx="22.63" cy="13.93" r="2.31" transform="translate(8.64 36.52) rotate(-89.83)" style="fill: #79418f"/>
  <circle cx="14.23" cy="9.07" r="2.31" transform="translate(5.12 23.27) rotate(-89.83)" style="fill: #79418f"/>
  <circle cx="13.77" cy="15.02" r="2.31" transform="translate(-1.28 28.77) rotate(-89.89)" style="fill: #79418f"/>
  <circle cx="18.09" cy="17.45" r="2.31" style="fill: #79418f"/>
  <path d="M12.28,1.71C14,3,15.7,4.37,17.46,5.58a25.86,25.86,0,0,0,2.7,1.7c.91.47,1.93,1,2.67.64a1.7,1.7,0,0,0,.73-2.18.71.71,0,0,0-.93-.37.79.79,0,0,0-.54.94A5.67,5.67,0,0,0,23.46,9a10.83,10.83,0,0,0,2.39,2.13,9.34,9.34,0,0,1-2.65-1.9,5.67,5.67,0,0,1-1.69-2.89,1.68,1.68,0,0,1,.13-1,1.33,1.33,0,0,1,.77-.67,1.56,1.56,0,0,1,1-.07,1.43,1.43,0,0,1,.81.69,2.55,2.55,0,0,1,.18,1.89,2.25,2.25,0,0,1-1.24,1.49,2.71,2.71,0,0,1-1.9,0,10.58,10.58,0,0,1-1.56-.71A20.71,20.71,0,0,1,17,6.2,40.18,40.18,0,0,1,12.28,1.71Z" style="fill: #6da200"/>
  <path d="M21.78,2.3a7.38,7.38,0,0,0-1.12,2.36,13.63,13.63,0,0,0-.51,2.78l-1,.07A14.84,14.84,0,0,1,19,4.38a9.31,9.31,0,0,1,.69-3.26v0a1.23,1.23,0,0,1,2.26,1A2.26,2.26,0,0,1,21.78,2.3Z" style="fill: #6da200"/>
  <path d="M10.79,5.7A35.18,35.18,0,0,1,5.6,8.82,35,35,0,0,1,0,11.11,36.35,36.35,0,0,1,5.2,8,36,36,0,0,1,10.79,5.7Z" style="fill: #6da200"/>
  <path d="M2.52,5.76A4.81,4.81,0,0,1,3.72,7a8.87,8.87,0,0,1,.93,1.61l.63-.17a10.65,10.65,0,0,0-.57-2A6.23,6.23,0,0,0,3.57,4.57l0,0a.8.8,0,0,0-1.13-.06.81.81,0,0,0-.06,1.14A.65.65,0,0,0,2.52,5.76Z" style="fill: #6da200"/>
  <path d="M26.5,21.49a2.66,2.66,0,0,1-.18,1,2.39,2.39,0,0,1-.5.76,2.16,2.16,0,0,1-.72.48,2.1,2.1,0,0,1-.86.17,2.17,2.17,0,0,1-.89-.17,2,2,0,0,1-.71-.48,2.17,2.17,0,0,1-.47-.76,2.87,2.87,0,0,1-.17-1,3,3,0,0,1,.17-1,2.26,2.26,0,0,1,.47-.78,2.2,2.2,0,0,1,.71-.49,2.44,2.44,0,0,1,1.79,0,2.14,2.14,0,0,1,.72.49,2.26,2.26,0,0,1,.47.78A3,3,0,0,1,26.5,21.49Zm3.24-2.1A1.29,1.29,0,0,1,30,19.2a.57.57,0,0,1,.33-.08h1.21l-7.23,9.53a.91.91,0,0,1-.21.18.66.66,0,0,1-.3.07H22.51Zm-4.52,2.1a2.13,2.13,0,0,0-.08-.66,1.26,1.26,0,0,0-.2-.42.87.87,0,0,0-.31-.24,1.23,1.23,0,0,0-.39-.07,1.11,1.11,0,0,0-.37.07.7.7,0,0,0-.3.24,1.26,1.26,0,0,0-.2.42,2.52,2.52,0,0,0-.07.66,2.28,2.28,0,0,0,.07.63,1.21,1.21,0,0,0,.2.41.65.65,0,0,0,.3.22.9.9,0,0,0,.37.07,1,1,0,0,0,.39-.07.81.81,0,0,0,.31-.22,1.21,1.21,0,0,0,.2-.41A1.93,1.93,0,0,0,25.22,21.49ZM32,26.6a2.66,2.66,0,0,1-.18,1,2.39,2.39,0,0,1-.5.76,2.14,2.14,0,0,1-.72.49,2.26,2.26,0,0,1-.85.17,2.37,2.37,0,0,1-.9-.17,2.2,2.2,0,0,1-.71-.49,2.17,2.17,0,0,1-.47-.76,2.87,2.87,0,0,1-.17-1,3,3,0,0,1,.17-1,2.36,2.36,0,0,1,.47-.78,2.2,2.2,0,0,1,.71-.49,2.37,2.37,0,0,1,.9-.17,2.44,2.44,0,0,1,.9.17,2.2,2.2,0,0,1,.71.49,2.36,2.36,0,0,1,.47.78A2.82,2.82,0,0,1,32,26.6Zm-1.28,0a2.48,2.48,0,0,0-.08-.66,1.37,1.37,0,0,0-.2-.42.79.79,0,0,0-.31-.24,1.22,1.22,0,0,0-.38-.07,1.17,1.17,0,0,0-.38.07.7.7,0,0,0-.3.24,1,1,0,0,0-.2.42,2.52,2.52,0,0,0-.07.66,2.41,2.41,0,0,0,.07.64,1,1,0,0,0,.2.41.65.65,0,0,0,.3.22,1,1,0,0,0,.38.07,1,1,0,0,0,.38-.07.74.74,0,0,0,.31-.22,1.31,1.31,0,0,0,.2-.41A2.38,2.38,0,0,0,30.72,26.6Z" style="fill: #333"/>
</svg>
