<svg id="ba06c67a-4298-42be-8a28-eb81ee2e7017" data-name="Calque 1" xmlns="http://www.w3.org/2000/svg" width="32" height="32" viewBox="0 0 32 32">
  <title>phyto-52-IconeRepulsif</title>
  <path d="M2.4,5.07V3.77A1.09,1.09,0,0,1,3.49,2.69H5.31A1.09,1.09,0,0,1,6.39,3.77v1.3" style="fill: #6e6a69"/>
  <path d="M31.26,19.4s-.41.33-.67-.22l-.18-.31a.86.86,0,0,0-.29-1s.09.59,0,.7l-1-.6a4.21,4.21,0,0,1-1.28-1.2s-.12-.08-.06-.39.18-.58-.71-1.86c0,0-1.08-1.14-1.43-1.6a1.87,1.87,0,0,1,0,.49l-3.52-1.21a3.39,3.39,0,0,0-2.83.2,43.75,43.75,0,0,1-4.44,1.25,12.62,12.62,0,0,1-2.36.45c-1.09.07-2.35-.13-4.46,2.25a3.45,3.45,0,0,0-1,2.5c0,.65-.33,1.17-.17,1.83A9.05,9.05,0,0,0,7.32,22s.15-1,.21-1.49a2.06,2.06,0,0,0-.12-1c-.1-.36.12-1.72.72-2.05a6.61,6.61,0,0,0-.08,2.79c.31,1.33.64,1.78.07,2.4a1.29,1.29,0,0,0-.31,1.29L8,26.29l.29.08s0,.8,1.1.81c0,0,.35-.22.13-.43a3.78,3.78,0,0,1-.63-2.45,2.54,2.54,0,0,1,.36-.74c.24-.34.83-.46,1-.82.38,0,.3.14.35.48a2.46,2.46,0,0,0,.32,1,10.72,10.72,0,0,1,1.41,2.19s.11.15.32,0a.72.72,0,0,0,.75.41c.57,0,.8-.05.68-.26s-1.06-.93-1.32-1.38-1.18-1-.3-2.48l.34-.45a8.77,8.77,0,0,0,1.6.87A3.56,3.56,0,0,0,17,22.85c.26-.1,1.45-.67,1.67-.4a6.43,6.43,0,0,1,.81,1.44,5.81,5.81,0,0,1,.34,1.71,3.33,3.33,0,0,0,.34,1.27l.17,0s.41.92,1.17.35c0,0,.43.09.22-.22a2.89,2.89,0,0,1-.75-2,3.4,3.4,0,0,1,.15-1.42.22.22,0,0,1,.21.2c0,.19.31,1.69.35,2.17,0,0,.13.29.35.29,0,0,.21.52,1.17.57a.26.26,0,0,0,0-.42,2.23,2.23,0,0,1-.48-.93c-.11-.33-.42-1.44-.15-1.89a4,4,0,0,0,.22-1.63,8.69,8.69,0,0,0,1.1-.67,4.22,4.22,0,0,0,1.95.17,3.1,3.1,0,0,0,1.77-.25,1.71,1.71,0,0,0,.92-.21,2.29,2.29,0,0,0,.92,0,2.12,2.12,0,0,1,.83.05,2,2,0,0,0,.59-.13S31.89,19.54,31.26,19.4Z" style="fill: #857060;fill-rule: evenodd"/>
  <path d="M20.58,2.62H12.12c-2.77,0-2.55,3.93-5.83,3.93H2.43A1.4,1.4,0,0,0,1,8L.49,12.56V22.74l.55,6a1.4,1.4,0,0,0,1.39,1.4H20.58a1.4,1.4,0,0,0,1.32-.95,2.51,2.51,0,0,1-.85.16,2.63,2.63,0,0,1-1.82-.74,2.2,2.2,0,0,1-.71-.65,5.05,5.05,0,0,1-.66-2.25.22.22,0,0,0,0-.08,3.63,3.63,0,0,0-.17-.91,7.53,7.53,0,0,1-2,.49,2.23,2.23,0,0,1,.2.3,2.11,2.11,0,0,1,0,2,2.47,2.47,0,0,1-2.24,1.18h-.3a2.74,2.74,0,0,1-1.42-.39,2.18,2.18,0,0,1-.64-.29,2.48,2.48,0,0,1-.81.8,2,2,0,0,1-1,.29h0a3,3,0,0,1-2.63-1.35A1.94,1.94,0,0,1,6,26.47l-.21-2.26a3.24,3.24,0,0,1-.07-1,1.86,1.86,0,0,1-.27-.45,9.92,9.92,0,0,1-.57-1.56,4.09,4.09,0,0,1,0-2.07A2,2,0,0,0,5,18.79,5.5,5.5,0,0,1,6.59,15c2.25-2.51,3.95-2.78,5.49-2.84h.27a10,10,0,0,0,1.92-.37l.13,0a40.21,40.21,0,0,0,4.13-1.16A6.49,6.49,0,0,1,21,10a4.78,4.78,0,0,1,1.39.21L22,4A1.4,1.4,0,0,0,20.58,2.62ZM18.65,6.33H13.91a1,1,0,0,1,0-2.1h4.74a1,1,0,1,1,0,2.1Z" style="fill: #ccc"/>
</svg>
