<svg id="a4eefec1-fad3-4274-9cbe-aec3f32db5c6" data-name="Calque 1" xmlns="http://www.w3.org/2000/svg" width="32" height="32" viewBox="0 0 32 32">
  <title>field-59-IconeAssociationTraceParcelle</title>
  <g>
    <polygon points="24.57 7.45 22.89 6.79 22.52 7.72 23.04 7.92 22.93 8.09 23.75 8.64 23.77 8.64 24.57 7.45" style="fill: #77787a"/>
    <path d="M7.52,21.41l-.67.74.66.6a9.85,9.85,0,0,1,.13-1.23Z" style="fill: #77787a"/>
    <rect x="17.56" y="4.42" width="1" height="2" transform="translate(6.38 20.22) rotate(-68.43)" style="fill: #77787a"/>
    <polygon points="9.98 2.76 10.44 2.94 10.8 2.01 9.61 1.54 8.75 2.79 9.58 3.35 9.98 2.76" style="fill: #77787a"/>
    <polygon points="2.24 14.08 1.42 13.52 0.29 15.17 0.74 15.48 0.16 16.12 1.65 17.46 2.32 16.72 1.16 15.67 2.24 14.08" style="fill: #77787a"/>
    <rect x="3.65" y="9.17" width="2" height="1" transform="translate(-5.96 8.06) rotate(-55.66)" style="fill: #77787a"/>
    <rect x="2.97" y="17.43" width="1" height="2" transform="translate(-12.54 8.66) rotate(-47.95)" style="fill: #77787a"/>
    <rect x="1.96" y="11.65" width="2" height="1" transform="translate(-8.74 7.74) rotate(-55.66)" style="fill: #77787a"/>
    <rect x="20.35" y="5.52" width="1" height="2" transform="translate(7.12 23.51) rotate(-68.43)" style="fill: #77787a"/>
    <rect x="5.2" y="19.44" width="1" height="2" transform="translate(-13.3 10.99) rotate(-47.97)" style="fill: #77787a"/>
    <rect x="7.04" y="4.22" width="2" height="1" transform="translate(-0.39 8.69) rotate(-55.66)" style="fill: #77787a"/>
    <rect x="11.98" y="2.21" width="1" height="2" transform="translate(4.91 13.64) rotate(-68.43)" style="fill: #77787a"/>
    <rect x="5.34" y="6.7" width="2" height="1" transform="translate(-3.18 8.37) rotate(-55.66)" style="fill: #77787a"/>
    <rect x="14.77" y="3.31" width="1" height="2" transform="translate(5.64 16.93) rotate(-68.43)" style="fill: #77787a"/>
    <rect x="9.07" y="6.75" width="6.47" height="1" style="fill: #77787a"/>
    <rect x="5.76" y="11.17" width="9.78" height="1" style="fill: #77787a"/>
    <path d="M4,15.59v1h6.39a9,9,0,0,1,1.36-1Z" style="fill: #77787a"/>
    <path d="M20.46,15.48v-.11h0v-.5h8v.5h0v.5H21.1a8.34,8.34,0,0,1,1.63,1.45H28.5v.5h0v.5h-5a9,9,0,0,1,.76,1.44H28.5v.5h0v.5H24.61a8.72,8.72,0,0,1,.31,1.85h6v-9.5H18.05v1.46A9,9,0,0,1,20.46,15.48Z" style="fill: #fff"/>
    <path d="M23.77,8.64H17.05v5.78a8,8,0,0,1,1,.15V13.11H30.9v9.5h-6c0,.16,0,.32,0,.49s0,.34,0,.51h7v-15Z" style="fill: #42487f"/>
    <path d="M28.5,15.37v-.5h-8v.61c.22.12.43.25.64.39h7.4Z" style="fill: #42487f"/>
    <path d="M28.5,17.82v-.5H22.73a8.62,8.62,0,0,1,.78,1h5Z" style="fill: #42487f"/>
    <path d="M28.5,20.26v-.5H24.27a6.93,6.93,0,0,1,.34,1H28.5Z" style="fill: #42487f"/>
  </g>
  <path d="M16.22,30.82a6.73,6.73,0,1,1,6.72-6.72A6.74,6.74,0,0,1,16.22,30.82Z" style="fill: #5bab26"/>
  <polygon points="12.01 23.3 12.01 24.9 16.42 24.9 16.42 28.11 20.43 24.1 16.42 20.09 16.42 23.3 12.01 23.3" style="fill: #fff"/>
</svg>
