<svg id="b6105ff3-b446-4b4c-8d58-a8293c8d351c" data-name="Calque 1" xmlns="http://www.w3.org/2000/svg" width="32" height="32" viewBox="0 0 32 32">
  <title>phyto-67-11B89E8A</title>
  <g>
    <path d="M9.65,8.07s-5.31,6.74-5.31,9.68a5.31,5.31,0,0,0,10.62,0C15,14.81,9.65,8.07,9.65,8.07ZM9.5,21.65a4.21,4.21,0,0,1-3.24-1.53,4.17,4.17,0,0,0,1.58.32c2.35,0,4.25-1.5,4.25-3.84a19.56,19.56,0,0,0-1.38-5.29c1.26,1.78,3,4.57,3,6.09A4.25,4.25,0,0,1,9.5,21.65Z" style="fill: #69b2ff"/>
    <path d="M21.88.21S16.57,7,16.57,9.88a5.31,5.31,0,0,0,10.62,0C27.19,7,21.88.21,21.88.21Zm-.15,13.58a4.21,4.21,0,0,1-3.24-1.53,4.16,4.16,0,0,0,1.58.31c2.35,0,4.25-1.49,4.25-3.83a19.71,19.71,0,0,0-1.38-5.3C24.2,5.23,26,8,26,9.54A4.25,4.25,0,0,1,21.73,13.79Z" style="fill: #69b2ff"/>
    <path d="M14.82,26.48a5.31,5.31,0,0,0,10.62,0c0-2.93-5.31-9.67-5.31-9.67S14.82,23.55,14.82,26.48Zm9.41-.34a4.23,4.23,0,0,1-7.49,2.72,4.21,4.21,0,0,0,1.59.31c2.34,0,4.25-1.49,4.25-3.84A19.72,19.72,0,0,0,21.19,20C22.45,21.83,24.23,24.62,24.23,26.14Z" style="fill: #69b2ff"/>
  </g>
</svg>
