<svg id="a53e9e39-0170-4fe2-951d-a1d80f03e05e" data-name="Calque 1" xmlns="http://www.w3.org/2000/svg" width="32" height="32" viewBox="0 0 32 32">
  <title>box-56-35050C75</title>
  <path d="M15.09,17.68l-1.34,1.67a.86.86,0,0,1-.67.32.78.78,0,0,1-.26,0l-6-1.89V24l8.29,2.61Z" style="fill: #c29a7e"/>
  <path d="M6.54,13.17l0,0-.09,0L6.27,13,3.93,15.93l9.15,2.88,2.3-2.91Z" style="fill: #c29a7e"/>
  <path d="M25.46,11.53l.05,0,.08,0h0l.12.06h0l2.34-2.91L18.92,5.9,16.63,8.75l8.83,2.78Z" style="fill: #c29a7e"/>
  <path d="M19.66,19.63a.73.73,0,0,1-.25,0,.85.85,0,0,1-.63-.27L16,16.53,16,16.6V26.86L25.2,24V17.91Z" style="fill: #c29a7e"/>
  <path d="M26.06,13.25,25.79,13a.62.62,0,0,1-.18.14l-.08,0-.07,0-8.84,2.75h0l2.79,2.89,9.24-2.88Z" style="fill: #c29a7e"/>
  <path d="M6.28,11.67h0l.09-.05.08,0,.07,0h0l8.83-2.75L12.6,5.9,3.35,8.77l2.86,3Z" style="fill: #c29a7e"/>
  <polygon points="16.05 9.48 6.8 12.35 15.96 15.23 25.2 12.35 16.05 9.48" style="fill: #c29a7e"/>
</svg>
