<svg id="a7db7bf8-8a2c-4e60-97b4-1af2dbf3864b" data-name="Calque 1" xmlns="http://www.w3.org/2000/svg" width="32" height="32" viewBox="0 0 32 32">
  <title>sign-57-IconeInflammableSGH02</title>
  <rect x="5.83" y="5.83" width="20.35" height="20.35" transform="translate(-6.63 16) rotate(-45)" style="fill: #fff"/>
  <path d="M16,32a.7.7,0,0,1-.47-.19L.2,16.47A.63.63,0,0,1,0,16a.65.65,0,0,1,.2-.47L15.53.2a.66.66,0,0,1,.94,0L31.81,15.53a.68.68,0,0,1,0,.94L16.47,31.81A.67.67,0,0,1,16,32ZM1.61,16,16,30.39,30.39,16,16,1.61Z" style="fill: #d10000"/>
  <g>
    <path d="M9.68,14.22s.32,3.65,1.83,5.11A7.83,7.83,0,0,0,15.76,21a7,7,0,0,1-1.83-1.14,2.71,2.71,0,0,1-1-1.92,2.15,2.15,0,0,0,1,.59,4.43,4.43,0,0,0,1.05.27,3,3,0,0,1-.91-1.41,3.68,3.68,0,0,1,0-1.87,5.21,5.21,0,0,0,.68,1,3.56,3.56,0,0,0,1,.73,3.65,3.65,0,0,1-.14-1.32c.09-.55.6-1.05.73-2a6.65,6.65,0,0,0,.05-1.65,7.25,7.25,0,0,1,1,1.88,15,15,0,0,1,.32,3.24,4.34,4.34,0,0,0,.59-.5,10.3,10.3,0,0,0,.92-1.33A2.6,2.6,0,0,1,19.41,17a8.34,8.34,0,0,1-1.05,1.64,2.26,2.26,0,0,0,1.05,0,2.35,2.35,0,0,0,.87-.41,5.87,5.87,0,0,1-.87,1.46,13.21,13.21,0,0,1-1.83,1.42s2.83,0,3.93-1.55a10.81,10.81,0,0,0,1.33-4.34,5.3,5.3,0,0,1-.92.73,12,12,0,0,1-1.23.45,5.72,5.72,0,0,0,1.09-1.87,7.38,7.38,0,0,0-.18-3A2,2,0,0,1,21,12.76a5.26,5.26,0,0,1-1.18.64,4.7,4.7,0,0,0,.45-2,14.2,14.2,0,0,0-.68-2.88,7.53,7.53,0,0,1-.41,2.24A8.92,8.92,0,0,1,18,12,5.35,5.35,0,0,0,18,9.79c-.27-1.19-1.32-1.69-1.41-3.06s-.14-2.29-.14-2.29a5.54,5.54,0,0,0-.64,2.65c.18,1.05-.73,4.39-.73,4.39s-.5-.09-.64-1.14a4.45,4.45,0,0,0-1.09-2.06s0,1.19-.05,1.69-.37.82-.32,1.46.14,1.37.14,1.37a1.63,1.63,0,0,1-.92-.87,2.86,2.86,0,0,0-1-1.14,6.3,6.3,0,0,1,.32,1.78,7.62,7.62,0,0,0,.19,2A3.79,3.79,0,0,0,12.51,16a2.12,2.12,0,0,1-1.6-.41,4,4,0,0,1-1.23-1.32"/>
    <polyline points="11.29 22.14 11.28 23.08 21.74 23.08 21.74 22.12 11.29 22.14"/>
  </g>
</svg>
