<svg id="b54da4b5-b757-4741-b63d-24a4ebbbd0d8" data-name="Calque 1" xmlns="http://www.w3.org/2000/svg" width="32" height="32" viewBox="0 0 32 32">
  <title>box-44-IconeSeed.Breed</title>
  <path d="M31.86,14.7a.91.91,0,0,0-1.23-.37h0c-1.24-1-3.62-.91-5.85.28-2.07,1.09-3.4,2.83-3.51,4.33a5,5,0,0,0-4.41-1.05h0a.91.91,0,0,0-1.28,0,.92.92,0,0,0,0,1.29h0c-.57,1.48.19,3.73,2,5.52a8.69,8.69,0,0,0,.93.81.77.77,0,0,0,0,.15c0,1.88,2.47,3.41,5.5,3.41A7.29,7.29,0,0,0,28,27.94a5.81,5.81,0,0,0,1.26-1.52,1.17,1.17,0,0,0,.27,0,1,1,0,1,0,0-2,.93.93,0,0,0-.33.07,5.22,5.22,0,0,0-1.34-1.3h0a7.39,7.39,0,0,0-3.85-1,5.34,5.34,0,0,0-.37-.71,7.28,7.28,0,0,0,4.3-.9c2.24-1.19,3.62-3.12,3.51-4.7h0A.92.92,0,0,0,31.86,14.7ZM17.07,19.36a27.27,27.27,0,0,1,4,3.4,5.75,5.75,0,0,0-.79.37A24.29,24.29,0,0,1,17.07,19.36Zm10.82,6.49c0,.25-8.74.79-8.74,0S27.89,25.59,27.89,25.85Zm-5.61-6c-.37-.71,7.6-4.33,7.72-4.1S22.66,20.51,22.28,19.81Z" style="fill: #dd932e"/>
  <g>
    <path d="M15.3,4.6A4.4,4.4,0,0,0,10.61,1,4.52,4.52,0,0,0,5.84,4.59a42,42,0,0,0,4.77.29A40.8,40.8,0,0,0,15.3,4.6Z" style="fill: none"/>
    <path d="M16.55,26.5l-.42-.39c-.16-.17-.3-.34-.45-.51a24.88,24.88,0,0,1-4.94.43,21.52,21.52,0,0,1-5.63-.59l-.22-.06-.1-.2a6.83,6.83,0,0,1-.34-3.07c.11-2,.44-4.22.45-4.31L5,17.29l.5.08a37.24,37.24,0,0,0,5.26.25c1.11,0,2,0,2.75-.06a2.88,2.88,0,0,1,.66-1.09,2.94,2.94,0,0,1,3-.7,5.32,5.32,0,0,1,1.44,0,7.33,7.33,0,0,1,1.61.37,6.91,6.91,0,0,1,.66-.9c-.33-5.63-.75-11.48-.75-11.48a34.92,34.92,0,0,1-3.8.73A5.42,5.42,0,0,0,10.61,0,5.55,5.55,0,0,0,4.85,4.46a35.44,35.44,0,0,1-3.72-.72S0,19.72,0,24.29A24.94,24.94,0,0,0,1.13,32h19s.2-.56.43-1.53a7.62,7.62,0,0,1-2.32-1.33A4.86,4.86,0,0,1,16.55,26.5ZM10.61,1A4.4,4.4,0,0,1,15.3,4.6a40.8,40.8,0,0,1-4.69.28,42,42,0,0,1-4.77-.29A4.52,4.52,0,0,1,10.61,1Z" style="fill: #9c9e9f"/>
    <path d="M5.83,18.43c-.1.77-.3,2.32-.37,3.73a7.72,7.72,0,0,0,.17,2.38,23.82,23.82,0,0,0,5.11.48A26.25,26.25,0,0,0,15,24.71a7.55,7.55,0,0,1-1.52-5.26,2.6,2.6,0,0,1-.14-.87c-.71,0-1.55.05-2.57.05A47.61,47.61,0,0,1,5.83,18.43Z" style="fill: #c3c4c5"/>
    <path d="M5.48,17.37,5,17.29l-.08.51c0,.09-.34,2.3-.45,4.31a6.83,6.83,0,0,0,.34,3.07l.1.2.22.06a21.52,21.52,0,0,0,5.63.59,24.88,24.88,0,0,0,4.94-.43,9.54,9.54,0,0,1-.71-.89,26.25,26.25,0,0,1-4.23.31,23.82,23.82,0,0,1-5.11-.48,7.72,7.72,0,0,1-.17-2.38c.07-1.41.27-3,.37-3.73a47.61,47.61,0,0,0,4.91.2c1,0,1.86,0,2.57-.05a2.74,2.74,0,0,1,.18-1c-.74,0-1.64.06-2.75.06A37.24,37.24,0,0,1,5.48,17.37Z" style="fill: #c3c4c5"/>
  </g>
</svg>
