<svg id="ba2affb6-3f55-4aff-9d68-7e6cbc3b6e1e" data-name="Calque 1" xmlns="http://www.w3.org/2000/svg" width="32" height="32" viewBox="0 0 32 32">
  <title>animals-93-5B8D842</title>
  <path d="M25.17,29.77a6.73,6.73,0,1,1,6.72-6.72A6.73,6.73,0,0,1,25.17,29.77Z" style="fill: #0499d1"/>
  <polygon points="28.71 20.64 27.58 19.5 24.46 22.62 22.19 20.36 22.19 26.02 27.86 26.02 25.59 23.76 28.71 20.64" style="fill: #fff"/>
  <path d="M16.13,10.72a1.12,1.12,0,0,1-.74.28,5.11,5.11,0,0,1-1.14-.11c-.09-.1-.19-.79-.31-.89l-.17-.15a4.61,4.61,0,0,0,1.74-2c.14-.25.05-.57-.29-.16s-.68.53-1.78,1.26c-.15.1-.3.18-.44.26-.86-.76-.76-1.08-1.9-1.17l-.58,0H9.05L8.47,8c-1.14.09-1,.41-1.91,1.18a4.66,4.66,0,0,1-.47-.27A8.34,8.34,0,0,1,4.3,7.64C4,7.23,3.88,7.55,4,7.8A4.64,4.64,0,0,0,5.78,9.87s-.09.66-.14.71a2.31,2.31,0,0,0-.35.35v0a6.09,6.09,0,0,1-1.2.12,1.12,1.12,0,0,1-.74-.28c-2,0-3.14.5-3.08,1.13s1.59,1.43,2.22,1.37,1.18-.52,2.09-.41c.15,0,.27.62.36.63s0,.05,0,.08c.27-.26.71-.62,1-.55L6,13c.19,0,.34.26.36.59a5.65,5.65,0,0,1,.21,1s-.12-.28-.28-.58c-.07.16-.17.27-.29.27s-.36-.29-.36-.64a1,1,0,0,1,0-.26,1.45,1.45,0,0,0-.7.25,3.31,3.31,0,0,0,.33.56A21.26,21.26,0,0,0,5.93,17a10.12,10.12,0,0,1,.85,2.46A8.68,8.68,0,0,0,7,21c.08.93.81,1.9,3.09,1.53v0c2.62.37,2.43-.6,2.52-1.53s.28-1.3.19-1.58A10.12,10.12,0,0,1,13.64,17a20.15,20.15,0,0,0,.6-2.86,3.56,3.56,0,0,0,.33-.58,1.46,1.46,0,0,0-.66-.23,1,1,0,0,1,0,.26c0,.35-.16.64-.36.64s-.22-.11-.29-.27c-.16.3-.28.58-.28.58a5.65,5.65,0,0,1,.21-1c0-.33.17-.59.36-.59l.06,0c.28-.07.7.26,1,.52l0-.06c.07,0,.16-.6.26-.62.91-.11,1.46.35,2.09.41s2.16-.74,2.22-1.37S18.18,10.77,16.13,10.72Zm-8,9.83c0-.43.26-1,.37-.93s0,.28,0,.28c0,.43.34.32.34.65S8.08,21,8.08,20.55ZM10.15,22a9.83,9.83,0,0,1-1.7-.14,9,9,0,0,1,1.7-.15,4,4,0,0,1,1.12.15A4,4,0,0,1,10.15,22Zm.6-1.41c0-.33.37-.22.34-.65,0,0-.09-.22,0-.28s.36.5.36.93S10.75,20.87,10.75,20.55Zm.41-1.84a6.38,6.38,0,0,0-1.08-.09,15.36,15.36,0,0,0-1.66.07,1.61,1.61,0,0,0-1,.46,1.32,1.32,0,0,1,.9-.67,8.27,8.27,0,0,1,1.72-.15,4.4,4.4,0,0,1,1.13.16,1.46,1.46,0,0,1,.91.66A1.77,1.77,0,0,0,11.16,18.71Z" style="fill: #9e887b"/>
  <path d="M24.86,11.45c-.46,0-1.78.87-1.78,1.73s1,.9,1.78.9,1.79,0,1.79-.9S25.33,11.45,24.86,11.45Zm-.78,1.62a1.46,1.46,0,0,1-.47-.07l-.18,0a1.06,1.06,0,0,1,.61-.34c.3,0,.29.18.29.24S24.33,13.07,24.08,13.07ZM26.17,13a1.5,1.5,0,0,1-.47.07c-.25,0-.25-.14-.25-.21s0-.24.29-.24a1.06,1.06,0,0,1,.61.34Z" style="fill: #e79094"/>
  <path d="M31,4.88a2.59,2.59,0,0,0-.32-.59h0a.88.88,0,0,0-1.39-.23c-.89.71-1.48,1.15-1.75,1.35a5.9,5.9,0,0,0-2.56-.72,6.45,6.45,0,0,0-2.38.86s-.67-.47-1.95-1.49a.88.88,0,0,0-1.39.23h0a2.29,2.29,0,0,0-.33.59c-.44.82-1.13,2.19-1,2.42s.86,0,.86,0l.37-.21c.07.15.15.3.25.47a2.48,2.48,0,0,0,1.21,1A10.36,10.36,0,0,0,20,11.91c.34,1.49,1.85,3.16,4.9,3.16s4.61-1.56,5.06-3.16c.19-.68-.52-2.51-.72-3.25,0,0,0,0,0-.05h0a2.48,2.48,0,0,0,1.2-1c.1-.17.18-.32.26-.47l.36.21s.63.33.86,0S31.4,5.7,31,4.88ZM20.65,8.18s-.09.13-.62-.31A1.62,1.62,0,0,1,19.37,7a2.79,2.79,0,0,1,.91-.09c.48.1.82.21.82.21Zm1.24,1.16c-.2-.14-.22-.56-.22-.56a.49.49,0,0,1,.55,0,.83.83,0,0,1,.36.56S22.09,9.49,21.89,9.34Zm3,4.9c-.92,0-2.2-.06-2.2-1.11a3.53,3.53,0,0,1,2.2-2.54,3.51,3.51,0,0,1,2.2,2.54C27.06,14.18,25.79,14.24,24.86,14.24Zm3-4.9c-.2.15-.7,0-.7,0a.86.86,0,0,1,.37-.56.49.49,0,0,1,.55,0S28,9.2,27.84,9.34Zm1.85-1.47c-.54.44-.63.31-.63.31l-.44-1.11a8,8,0,0,1,.81-.21,2.79,2.79,0,0,1,.91.09A1.63,1.63,0,0,1,29.69,7.87Z" style="fill: #e79094"/>
</svg>
