<svg id="f10c2a6d-25c7-4bb1-b847-9b9514724978" data-name="Calque 1" xmlns="http://www.w3.org/2000/svg" width="32" height="32" viewBox="0 0 32 32">
  <title>vegetal-82-2208FDF0.Arbo</title>
  <path d="M12.52,9.86A3.71,3.71,0,0,1,15.7,6.77c2.77-.33,3.86,2.3,4.3,2.47a2.67,2.67,0,0,0,.8.18l0,.08s-.37,0-.65.05a33.55,33.55,0,0,1-3.57,1c-1.08.12-3.18.17-4.09-.66" style="fill: #006432"/>
  <path d="M24.65,10.9S29,11.51,29,17.1a8.09,8.09,0,0,1-5.49,8,26.93,26.93,0,0,1-2.85.15h-.07a26.93,26.93,0,0,1-2.85-.15,8.09,8.09,0,0,1-5.49-8c0-5.59,4.35-6.2,4.35-6.2s2.41.15,4,.2,4-.2,4-.2" style="fill: #6da200"/>
  <path d="M20.18,11.42a9.36,9.36,0,0,0,.33-2.14c.31,0,.87.14.85.22a4.71,4.71,0,0,0-.74,1.87c-.22.27-.26.22-.44.05" style="fill: #006432"/>
  <rect x="4.99" y="26" width="3.91" height="2" transform="translate(13.89 54) rotate(-180)" style="fill: #8f8f8f"/>
  <rect x="4.99" y="6" width="3.91" height="2" transform="translate(13.89 14) rotate(-180)" style="fill: #8f8f8f"/>
  <rect x="6.99" y="22" width="1.91" height="2" transform="translate(15.89 46) rotate(-180)" style="fill: #8f8f8f"/>
  <rect x="6.99" y="18" width="1.91" height="2" transform="translate(15.89 38) rotate(-180)" style="fill: #8f8f8f"/>
  <rect x="6.99" y="14" width="1.91" height="2" transform="translate(15.89 30) rotate(-180)" style="fill: #8f8f8f"/>
  <rect x="6.99" y="10" width="1.91" height="2" transform="translate(15.89 22) rotate(-180)" style="fill: #8f8f8f"/>
</svg>
