<svg id="ecd502c3-faff-452d-9e14-fa996347a7a8" data-name="Calque 1" xmlns="http://www.w3.org/2000/svg" width="32" height="32" viewBox="0 0 32 32">
  <title>time-98-IconeDelaisEnfouissement</title>
  <g>
    <path d="M3.85,29.5a2.33,2.33,0,0,1-2.33-2.34V10.5h29V27.16a2.34,2.34,0,0,1-2.34,2.34Z" style="fill: #fff"/>
    <path d="M30,11V27.16A1.84,1.84,0,0,1,28.18,29H3.85A1.83,1.83,0,0,1,2,27.16V11H30m1-1H1V27.16A2.84,2.84,0,0,0,3.85,30H28.18A2.84,2.84,0,0,0,31,27.16V10Z" style="fill: #868789"/>
  </g>
  <path d="M24,2.5a1.5,1.5,0,0,0-3,0v4a1.5,1.5,0,0,0,3,0Z" style="fill: #868789"/>
  <path d="M11,2.5a1.5,1.5,0,0,0-3,0v4a1.5,1.5,0,0,0,3,0Z" style="fill: #868789"/>
  <path d="M28.41,5H25.05s0,0,0,0V6.32A2.62,2.62,0,0,1,22.75,9,2.5,2.5,0,0,1,20,6.5V5a0,0,0,0,0,0,0H12.05s0,0,0,0V6.32A2.62,2.62,0,0,1,9.75,9,2.5,2.5,0,0,1,7,6.5V5A0,0,0,0,0,7,5H3.62A2.59,2.59,0,0,0,1,7.56V10s0,0,0,1H31a10.25,10.25,0,0,1,0-1V7.63s0,0,0,0A2.59,2.59,0,0,0,28.41,5Z" style="fill: #b9251c"/>
  <g>
    <path d="M3.62,5A2.59,2.59,0,0,0,1,7.56V10s0,0,0,1H2V7.58A1.61,1.61,0,0,1,3.62,6H7V5Z" style="fill: #881e17"/>
    <path d="M31,7.6A2.59,2.59,0,0,0,28.41,5H25V6h3.39A1.6,1.6,0,0,1,30,7.6v.18h0V9.91A10.15,10.15,0,0,0,30,11h1a10.25,10.25,0,0,1,0-1V7.63S31,7.61,31,7.6Z" style="fill: #881e17"/>
    <rect x="12.02" y="5" width="8" height="1" style="fill: #881e17"/>
  </g>
  <g>
    <path d="M18.56,21.67a3.8,3.8,0,0,1,2.08.63h1.91l-2.16-5.56H18.57V13.65H17.5v3.09H14.83l-1-3.6h-.09a1.5,1.5,0,0,0-1.43-1.07H7.17v4.67h-1a.75.75,0,0,0-.75.75v4.2l.31,0ZM8.17,13.14h4.55l1,3.69-2.6-.09h-3Z" style="fill: #fac262"/>
    <path d="M18.56,22.74H5.68a2.72,2.72,0,0,0,0,5.43H18.56a2.72,2.72,0,0,0,0-5.43Z" style="fill: #6f6f6f"/>
  </g>
  <path d="M5.68,26.67a1.22,1.22,0,1,1,1.21-1.21A1.22,1.22,0,0,1,5.68,26.67Z" style="fill: #fff"/>
  <rect x="7.96" y="24.92" width="8.31" height="1.07" style="fill: #fff"/>
  <path d="M18.56,26.67a1.22,1.22,0,1,1,1.21-1.21A1.22,1.22,0,0,1,18.56,26.67Z" style="fill: #fff"/>
  <path d="M26.4,22.63s-1.57.37-1.57,2.83,1,2.71,4.2,2.71a4.89,4.89,0,0,0-1.41-2.71A5.44,5.44,0,0,1,26.4,22.63Z" style="fill: #6f6f6f"/>
  <line x1="21.92" y1="25.46" x2="25.18" y2="25.46" style="fill: none;stroke: #6f6f6f;stroke-miterlimit: 10;stroke-width: 1.6290124999999998px"/>
</svg>
