<svg id="a25819f0-611e-417e-930c-b7d2f401ad59" data-name="Calque 1" xmlns="http://www.w3.org/2000/svg" width="32" height="32" viewBox="0 0 32 32">
  <title>building-35-IconeEntreprise</title>
  <g>
    <g>
      <path d="M27.15,18.51,26.64,18l-3.23-3.2-1-1-3.6-3.57-1-1L16.73,8.15A.94.94,0,0,0,16,7.86a1,1,0,0,0-.74.32l-1,1-1,1L9.61,13.9l-1,1L5.57,18l-.41.43a3.57,3.57,0,0,1-1.07.75l-.08,0V30h6.57l-.05-10H21.3l.06,10H28V19.11a3.65,3.65,0,0,1-.84-.59Z" style="fill: #999"/>
      <polygon points="25.19 8.12 25.06 8.12 25.23 8.28 25.19 8.12" style="fill: #ab4d2b"/>
    </g>
    <path d="M32,15.43,29.61,5.05a2.45,2.45,0,0,0-2.19-1.93L5,3.08H4.76a2.49,2.49,0,0,0-2.45,2L.18,15.49A2.51,2.51,0,0,0,4,18.08L4.09,18a3.17,3.17,0,0,0,.35-.29L5,17.14l3.6-3.65,1-1,3.6-3.65,1-1,.12-.12A2.29,2.29,0,0,1,16,7a2.36,2.36,0,0,1,1.66.65l.19.19,1,1,3.6,3.58,1,1L27.05,17l.12.13.68.67.16.13a2.5,2.5,0,0,0,4-2.49Z" style="fill: #707173"/>
  </g>
  <rect x="13.65" y="12.35" width="4.71" height="4.71" style="fill: #ccc"/>
</svg>
