<svg id="eda055ac-60bf-4433-96f2-be78cde0cb04" data-name="Calque 1" xmlns="http://www.w3.org/2000/svg" width="32" height="32" viewBox="0 0 32 32">
  <title>print-02-IconeEditionModifier</title>
  <path d="M25.72,6,21.88,1.46a1.2,1.2,0,0,0-1-.47H5.19A1.21,1.21,0,0,0,4,2.19V29.78A1.21,1.21,0,0,0,5.19,31H24.78A1.21,1.21,0,0,0,26,29.78V26.54l-1,1a5.76,5.76,0,0,1-3.13,1.8l-4.26,1a2.25,2.25,0,0,1-.58.07,2.5,2.5,0,0,1-2.44-3.05l1-4.32H10V22h5.93a6.61,6.61,0,0,1,1.37-2H10V19h8.3l2-2H10V16h11.3l2.82-2.83a3.93,3.93,0,0,1,1.88-1V6.76A1.2,1.2,0,0,0,25.72,6ZM22,14H10V13H22Z" style="fill: #fac262"/>
  <path d="M26.34,31.34a2.21,2.21,0,0,1-.7.47A2.21,2.21,0,0,0,26.34,31.34Z" style="fill: #cea04e"/>
  <path d="M27,29.78a2.2,2.2,0,0,1-.17.86A2.2,2.2,0,0,0,27,29.78Z" style="fill: #cea04e"/>
  <path d="M26.81,30.64a2.21,2.21,0,0,1-.47.7A2.21,2.21,0,0,0,26.81,30.64Z" style="fill: #cea04e"/>
  <path d="M26,29.78A1.21,1.21,0,0,1,24.78,31H5.19A1.21,1.21,0,0,1,4,29.78V2.19A1.21,1.21,0,0,1,5.19,1H20.92a1.2,1.2,0,0,1,1,.47L25.72,6a1.2,1.2,0,0,1,.26.75v5.37a4.12,4.12,0,0,1,.86-.1H27V6.76a2.23,2.23,0,0,0-.48-1.38L22.65.81A2.23,2.23,0,0,0,20.92,0H5.19A2.2,2.2,0,0,0,3,2.19V29.78A2.21,2.21,0,0,0,5.19,32H24.78a2.11,2.11,0,0,0,.86-.18,2.19,2.19,0,0,0,1.34-2V25.54l-1,1Z" style="fill: #cea04e"/>
  <polygon points="9.98 15.99 9.98 16.99 20.28 16.99 21.28 15.99 9.98 15.99" style="fill: #fff"/>
  <path d="M18.28,19H10v1h7.3l.09-.1Z" style="fill: #fff"/>
  <path d="M15.91,22H10v1h5.6v0A5,5,0,0,1,15.91,22Z" style="fill: #fff"/>
  <rect x="9.98" y="12.99" width="12" height="1" style="fill: #fff"/>
  <path d="M17,28.36a.47.47,0,0,1-.35-.15.52.52,0,0,1-.14-.46l1-4.35a4.47,4.47,0,0,1,1.26-2.1l6.73-6.72a1.86,1.86,0,0,1,2.64,0l2.15,2.15a1.82,1.82,0,0,1,.55,1.32,1.86,1.86,0,0,1-.55,1.33L23.59,26.1a3.76,3.76,0,0,1-2.11,1.26l-4.34,1ZM26.84,15a.89.89,0,0,0-.62.25L19.5,22a3.31,3.31,0,0,0-1,1.62L17.7,27.2l3.57-.82h0a2.84,2.84,0,0,0,1.58-1l6.73-6.73a.88.88,0,0,0,0-1.23l-2.16-2.16A.86.86,0,0,0,26.84,15Z" style="fill: #0499d1"/>
  <path d="M17.68,25.15l2.09,2.08a21.86,21.86,0,0,1-2.42.31A21.52,21.52,0,0,1,17.68,25.15Z" style="fill: #0499d1"/>
  <path d="M25,15.83l-6.58,6.58,4.05,4.06L29,19.88Zm-2.36,9.08-.82-.82,5-5,.81.81Z" style="fill: #0499d1"/>
  <polygon points="21.98 5.99 26.3 5.99 26.19 4.99 22.91 1.14 21.98 0.86 21.98 5.99" style="fill: #cea04e"/>
</svg>
