<svg id="a3a8dbec-7538-40db-b080-4f4d27cf40cb" data-name="Calque 1" xmlns="http://www.w3.org/2000/svg" width="32" height="32" viewBox="0 0 32 32">
  <title>products-61-IconeSaisiePPF</title>
  <g>
    <path d="M3.21,4.82l4.32,6.54V4.76a1.5,1.5,0,0,1,.28-1,1,1,0,0,1,.75-.32,1,1,0,0,1,.76.32,1.44,1.44,0,0,1,.28,1v8.73c0,1-.4,1.46-1.21,1.46a1.53,1.53,0,0,1-.54-.09,1.43,1.43,0,0,1-.46-.27A2.87,2.87,0,0,1,7,14.14c-.12-.17-.25-.34-.37-.52L2.42,7.16v6.5a1.35,1.35,0,0,1-.3,1,1,1,0,0,1-.76.33,1,1,0,0,1-.76-.33,1.43,1.43,0,0,1-.29-1V5.1a2.46,2.46,0,0,1,.12-.86,1.27,1.27,0,0,1,.48-.55,1.25,1.25,0,0,1,.72-.22,1.21,1.21,0,0,1,.52.1,1.22,1.22,0,0,1,.38.26,3.41,3.41,0,0,1,.33.43Z" style="fill: #005da8"/>
    <path d="M16.37,10.44H14.31v3.14a1.42,1.42,0,0,1-.32,1,1,1,0,0,1-.8.35,1.06,1.06,0,0,1-.82-.35,1.47,1.47,0,0,1-.31-1V5A1.42,1.42,0,0,1,12.4,4a1.58,1.58,0,0,1,1.09-.32h2.88a7.2,7.2,0,0,1,2,.2,2.78,2.78,0,0,1,1.93,1.7A3.8,3.8,0,0,1,20.53,7a3.15,3.15,0,0,1-1.05,2.57A4.75,4.75,0,0,1,16.37,10.44Zm-.54-5.09H14.31V8.74h1.52a4.46,4.46,0,0,0,1.32-.17A1.56,1.56,0,0,0,18,8a1.59,1.59,0,0,0,.28-1,1.73,1.73,0,0,0-.43-1.2A2.88,2.88,0,0,0,15.83,5.35Z" style="fill: #005da8"/>
    <path d="M24.67,4.83V8.72l4.41-4.6a5,5,0,0,1,.55-.49.94.94,0,0,1,.59-.16,1.08,1.08,0,0,1,.78.28.92.92,0,0,1,.3.7,1.38,1.38,0,0,1-.5,1L28.06,8l3.15,4.52a5.32,5.32,0,0,1,.5.82,1.59,1.59,0,0,1,.17.68.87.87,0,0,1-.29.65,1.13,1.13,0,0,1-.79.27,1.37,1.37,0,0,1-.77-.2,1.74,1.74,0,0,1-.5-.54q-.21-.33-.36-.6L26.51,9.52l-1.84,1.76v2.3a1.46,1.46,0,0,1-.32,1,1.05,1.05,0,0,1-.82.34A1.11,1.11,0,0,1,23,14.8a1.08,1.08,0,0,1-.41-.41,1.47,1.47,0,0,1-.13-.49c0-.19,0-.46,0-.81V4.83a1.51,1.51,0,0,1,.3-1,1,1,0,0,1,.81-.34,1.07,1.07,0,0,1,.83.34A1.48,1.48,0,0,1,24.67,4.83Z" style="fill: #005da8"/>
  </g>
  <g>
    <path d="M9.19,29.75a.5.5,0,0,1-.35-.14.49.49,0,0,1-.14-.47l1-4.35A4.39,4.39,0,0,1,11,22.7L17.67,16a1.88,1.88,0,0,1,2.65,0l2.15,2.15A1.84,1.84,0,0,1,23,19.45a1.82,1.82,0,0,1-.55,1.32L15.75,27.5a3.84,3.84,0,0,1-2.11,1.25l-4.34,1ZM19,16.42a.84.84,0,0,0-.62.26L11.65,23.4a3.28,3.28,0,0,0-1,1.62l-.82,3.57,3.58-.82h0a2.87,2.87,0,0,0,1.58-1l6.73-6.73a.88.88,0,0,0,0-1.23l-2.16-2.15A.83.83,0,0,0,19,16.42Z" style="fill: #0499d1"/>
    <path d="M9.84,26.54l2.09,2.08a22.17,22.17,0,0,1-2.42.31A21.52,21.52,0,0,1,9.84,26.54Z" style="fill: #0499d1"/>
    <path d="M17.13,17.22,10.55,23.8l4,4.06,6.59-6.59ZM14.77,26.3,14,25.48l5-5,.81.81Z" style="fill: #0499d1"/>
  </g>
</svg>
