<svg id="fca0b1ce-bd42-4481-934d-6b540b4b7186" data-name="Calque 1" xmlns="http://www.w3.org/2000/svg" width="32" height="32" viewBox="0 0 32 32">
  <title>vehicles-45-IconeLivraisonEffluents</title>
  <g>
    <path d="M24.7,24.31a1.39,1.39,0,0,1,.12-.66,1.52,1.52,0,0,1,.57-.66,1.48,1.48,0,0,1,.75-.21,1.46,1.46,0,0,1,.75.21,1.54,1.54,0,0,1,.58.66,1.4,1.4,0,0,1,.12.58,1.48,1.48,0,0,1-1.45,1.45,1.45,1.45,0,0,1-1.44-1.37m-2-.66a3.68,3.68,0,0,0-.06.58,3.46,3.46,0,0,0,6.92.08,4,4,0,0,0-.05-.66,3.57,3.57,0,0,0-.18-.66,3.51,3.51,0,0,0-2.18-2.06,3.6,3.6,0,0,0-1.05-.16,3.71,3.71,0,0,0-1.05.16A3.47,3.47,0,0,0,22.92,23,2.93,2.93,0,0,0,22.74,23.65Z" style="fill: #6f6f6f"/>
    <path d="M24,14.1V10.25h4.38a6.27,6.27,0,0,1,1.89,3.85H24M12,23a3.88,3.88,0,0,1,.14.66,3.68,3.68,0,0,1,.05.58l9.64.08a5.68,5.68,0,0,1,0-.66A5.18,5.18,0,0,1,22,23a4.41,4.41,0,0,1,1.34-2.06h.05a3.43,3.43,0,0,1,1-.66,5.15,5.15,0,0,1,.89-.29A4.35,4.35,0,0,1,27,20a5.15,5.15,0,0,1,.89.29,4.48,4.48,0,0,1,1,.66A4.33,4.33,0,0,1,30.29,23a3.88,3.88,0,0,1,.14.66,3.68,3.68,0,0,1,.05.58l.71.08a.66.66,0,0,0,.66-.66V20.27a.66.66,0,0,0-.17-.43V14.92a7.63,7.63,0,0,0-2.61-5.85.73.73,0,0,0-.4-.13H23.38a.66.66,0,0,0-.48.22V20a.41.41,0,0,1-.12.29h-.05a.31.31,0,0,1-.27.15H9.9a4.85,4.85,0,0,1,.74.51A4.33,4.33,0,0,1,12,23Z" style="fill: #5b83b6"/>
    <path d="M6.39,24.31a1.39,1.39,0,0,1,.12-.66A1.48,1.48,0,0,1,7.09,23a1.42,1.42,0,0,1,.74-.21,1.46,1.46,0,0,1,.75.21,1.54,1.54,0,0,1,.58.66,1.4,1.4,0,0,1,.12.58,1.48,1.48,0,0,1-1.45,1.45,1.45,1.45,0,0,1-1.44-1.37m-2-.66a3.68,3.68,0,0,0,0,.58,3.46,3.46,0,0,0,6.91.08,4,4,0,0,0,0-.66,3.57,3.57,0,0,0-.18-.66,3.51,3.51,0,0,0-2.18-2.06,3.49,3.49,0,0,0-2.09,0A3.46,3.46,0,0,0,4.61,23,3.57,3.57,0,0,0,4.43,23.65Z" style="fill: #6f6f6f"/>
    <path d="M6.06,20.27l-.3.15a4.76,4.76,0,0,0-.73.51A4.35,4.35,0,0,0,3.68,23a5.18,5.18,0,0,0-.14.66,5.68,5.68,0,0,0,0,.66H2.12a.65.65,0,0,1-.66-.66v-3.4H6.11" style="fill: #5b83b6"/>
  </g>
  <g>
    <path d="M21.38,13.37H.78A.66.66,0,0,0,.13,14v5.51H.78v.06h20.6v-.06H22V16.05A.29.29,0,0,1,22,16V14A.67.67,0,0,0,21.38,13.37Z" style="fill: #fac262"/>
    <path d="M11.24,3.2c-2.42,0-7.59,6.69-8.36,9.17H19.6C18.82,9.89,13.65,3.2,11.24,3.2Z" style="fill: #927768"/>
  </g>
</svg>
