<svg id="a752ab6a-7974-4bc7-8ff6-d4313ded31c0" data-name="Calque 1" xmlns="http://www.w3.org/2000/svg" width="32" height="32" viewBox="0 0 32 32">
  <title>field-53-IconeSaisieParcelleCulturale</title>
  <g>
    <polygon points="10.51 4.02 7.35 8.65 7.35 8.65 10.51 4.02" style="fill: none"/>
    <polygon points="5.19 22.21 1.1 18.52 1.1 18.52 6.83 23.68 5.19 22.21 5.19 22.21" style="fill: none"/>
    <polygon points="30.37 7.77 24.55 5.47 30.37 7.77 30.37 7.77" style="fill: none"/>
    <polygon points="23.48 11.5 26.5 12.86 29.47 8.44 16.99 3.5 14.5 7.46 23.48 11.5" style="fill: #a3a4a6"/>
    <polygon points="15.92 3.44 16.1 3.15 13.07 1.95 8.21 9.06 11.4 10.59 15.92 3.44" style="fill: #fac262"/>
    <polygon points="7.67 9.85 2.04 18.09 4.99 20.75 10.89 11.4 7.67 9.85" style="fill: #bc9161"/>
    <polygon points="14.57 13.34 7.94 24.05 11.22 18.75 14.57 13.34" style="fill: #fff"/>
    <polygon points="13.81 7.67 16.8 2.92 13.81 7.67 13.81 7.67" style="fill: #fff"/>
    <polygon points="11.58 11.2 11.58 11.2 13.81 7.67 13.81 7.67 11.58 11.2" style="fill: #fff"/>
    <polygon points="11.58 11.2 5.09 21.48 11.58 11.2 11.58 11.2" style="fill: #fff"/>
    <path d="M13.07.94,24.55,5.47l-7-2.78h0L12.72.8,10.51,4l2-2.91A.49.49,0,0,1,13.07.94Z" style="fill: #77787a"/>
    <path d="M1,17.9,7.35,8.65h0L.79,18.24l.31.28A.47.47,0,0,1,1,17.9Z" style="fill: #77787a"/>
  </g>
  <g>
    <polygon points="5.19 22.21 1.1 18.52 1.1 18.52 6.83 23.68 5.19 22.21 5.19 22.21" style="fill: none"/>
    <path d="M1,17.9,7.35,8.65h0L.79,18.24l.31.28A.47.47,0,0,1,1,17.9Z" style="fill: none"/>
    <polygon points="10.51 4.02 7.35 8.65 7.35 8.65 10.51 4.02" style="fill: none"/>
    <polygon points="15.92 3.44 16.1 3.15 13.07 1.95 8.21 9.06 11.4 10.59 15.92 3.44" style="fill: none"/>
    <polygon points="23.48 11.5 26.5 12.86 29.47 8.44 16.99 3.5 14.5 7.46 23.48 11.5" style="fill: none"/>
    <polygon points="7.67 9.85 2.04 18.09 4.99 20.75 10.89 11.4 7.67 9.85" style="fill: none"/>
    <path d="M13.07.94,24.55,5.47l-7-2.78h0L12.72.8,10.51,4l2-2.91A.49.49,0,0,1,13.07.94Z" style="fill: none"/>
    <polygon points="30.37 7.77 24.55 5.47 30.37 7.77 30.37 7.77" style="fill: none"/>
    <path d="M25.49,14.37l.48-.72-2.7-1.21L14,8.27l-1.14,1.8L6.21,20.59l-.51.8,2.13,1.93L8,23.06l3.07-4.95h0l3.31-5.35,9.32,3.36,1.57-1.57Z" style="fill: #c3dca8"/>
    <path d="M23,16.86l-8.18-2.95-2.89,4.68,5.71,3.31.27.15c.23-.29.47-.56.67-.77Z" style="fill: #6f7095"/>
    <path d="M16.75,24.33a5.72,5.72,0,0,1,.59-1.48l-.91-.53-5-2.93-1,1.55L8.55,24l6.53,5.9.65-1c0-.07,0-.13,0-.19Z" style="fill: #5bab26"/>
    <path d="M15.17,31.05h.06a.43.43,0,0,0,.33-.2l.37-.55a2.49,2.49,0,0,1-.2-1.4l-.65,1L8.55,24l1.87-3,1-1.55,5,2.93.91.53a7.39,7.39,0,0,1,.52-.8l-.27-.15-5.71-3.31,2.89-4.68L23,16.86l.74-.74-9.32-3.36-3.31,5.35h0L8,23.06l-.16.26L5.7,21.39l.51-.8,6.64-10.52L14,8.27l9.28,4.17L26,13.65l-.48.72a3.79,3.79,0,0,1,1.72-.86l3.38-5a.46.46,0,0,0,.05-.4.45.45,0,0,0-.27-.3l-5.82-2.3L13.07.94a.49.49,0,0,0-.57.17L10.51,4,7.35,8.65h0L1,17.9a.47.47,0,0,0,.07.62l4.09,3.69h0l1.63,1.47,8,7.24A.46.46,0,0,0,15.17,31.05ZM29.47,8.43l-3,4.43-3-1.36-9-4L17,3.5ZM13.07,2l3,1.2-.18.29L11.4,10.59,8.21,9.06ZM5,20.75,2,18.09,7.67,9.85l3.22,1.55Z" style="fill: #fff"/>
    <path d="M15.93,30.29l-.67,1L8,24.78H8l-.41-.37-.3-.27h0l-.51-.46L1.1,18.52h0l-.31-.28L7.35,8.65h0L10.51,4,12.72.8l4.79,1.89h0l7,2.78,5.82,2.3h0l.54.22-3.53,5.26h0l-.17.26a3.42,3.42,0,0,1,.79-.09c.13,0,.25,0,.38,0l3-4.46a1.42,1.42,0,0,0-.65-2.11L13.41.06a1.43,1.43,0,0,0-1.69.51L.25,17.37a1.41,1.41,0,0,0,.22,1.85l3.31,3,10.44,9.43a1.46,1.46,0,0,0,.95.36h.18a1.44,1.44,0,0,0,1-.62l.17-.26-.1-.08A2.75,2.75,0,0,1,15.93,30.29Z" style="fill: #77787a"/>
    <path d="M15.56,30.84a.43.43,0,0,1-.33.2h-.06a.46.46,0,0,1-.31-.13l-8-7.24.51.46h0l.3.27.41.37H8l7.22,6.51.67-1h0Z" style="fill: #77787a"/>
    <path d="M30.64,8.07a.46.46,0,0,1-.05.4l-3.38,5h0l.17-.26h0L30.91,8l-.54-.22A.45.45,0,0,1,30.64,8.07Z" style="fill: #77787a"/>
  </g>
  <g>
    <path d="M18.19,29.75a.5.5,0,0,1-.35-.14.49.49,0,0,1-.14-.47l1-4.35A4.39,4.39,0,0,1,20,22.7L26.67,16a1.88,1.88,0,0,1,2.65,0l2.15,2.15A1.84,1.84,0,0,1,32,19.45a1.82,1.82,0,0,1-.55,1.32L24.75,27.5a3.84,3.84,0,0,1-2.11,1.25l-4.34,1ZM28,16.42a.84.84,0,0,0-.62.26L20.65,23.4a3.28,3.28,0,0,0-1,1.62l-.82,3.57,3.58-.82h0a2.87,2.87,0,0,0,1.58-1l6.73-6.73a.88.88,0,0,0,0-1.23l-2.16-2.15A.83.83,0,0,0,28,16.42Z" style="fill: #0499d1"/>
    <path d="M18.84,26.54l2.09,2.08a22.17,22.17,0,0,1-2.42.31A21.52,21.52,0,0,1,18.84,26.54Z" style="fill: #0499d1"/>
    <path d="M26.13,17.22,19.55,23.8l4.05,4.06,6.59-6.59ZM23.77,26.3,23,25.48l5-5,.81.81Z" style="fill: #0499d1"/>
  </g>
</svg>
