<svg id="fee55620-1acc-4dc4-b0ce-af255b449381" data-name="Calque 1" xmlns="http://www.w3.org/2000/svg" width="32" height="32" viewBox="0 0 32 32">
  <title>folder-76-IconeFlatCarnetPlein</title>
  <path d="M28.12,0H5.94A3.94,3.94,0,0,0,2,3.92V28.06A3.93,3.93,0,0,0,5.94,32H28.12V0" style="fill: #cd5d9b"/>
  <path d="M28,30H5.65A1.85,1.85,0,0,1,4,28a1.85,1.85,0,0,1,1.64-2H28v4" style="fill: #fff"/>
  <polyline points="15.99 4.22 7.99 4.22 7.99 6.22 15.99 6.22 15.99 4.22" style="fill: #ebbed7"/>
  <polyline points="22.99 12.22 7.99 12.22 7.99 14.22 22.99 14.22 22.99 12.22" style="fill: #ebbed7"/>
  <polyline points="22.99 17.22 7.99 17.22 7.99 19.22 22.99 19.22 22.99 17.22" style="fill: #ebbed7"/>
</svg>
