<svg id="bd61689d-f68d-4262-bbcf-4e10019976eb" data-name="Calque 1" xmlns="http://www.w3.org/2000/svg" width="32" height="32" viewBox="0 0 32 32">
  <title>setup-22-2244EEB6</title>
  <path d="M18.4,20.34a7.71,7.71,0,0,1,4.81-3.22,20.79,20.79,0,0,0,0-2.51V11.79a1.56,1.56,0,0,1-.54,1c-1.29,1.33-3.42,1.88-5.17,2.25a27.25,27.25,0,0,1-6.24.55,25.45,25.45,0,0,1-6.08-.83C3.88,14.38.59,13.45.59,11.79v2.84a9.84,9.84,0,0,0,.07,3C1.25,19.29,4,20,5.51,20.37a26.29,26.29,0,0,0,6.37.74,26.29,26.29,0,0,0,6.37-.74Z" style="fill: #999"/>
  <g>
    <path d="M23.17,6.83c0-.62.06-1.28,0-1.9,0-.15,0-.25,0-.33-.24,1.34-2.79,2.2-3.81,2.53a23.73,23.73,0,0,1-5.73,1c-3.72.24-8.19,0-11.48-2C1.12,5.53.73,5,.72,4.43a1.15,1.15,0,0,0-.13.43,15.5,15.5,0,0,0,0,2.26c0,.77,0,1.55,0,2.33a2.58,2.58,0,0,0,1.53,2.23c4.11,2.43,10,2.43,14.51,1.65,1.94-.33,4.86-.9,6.14-2.57C23.52,9.78,23.17,8,23.17,6.83Z" style="fill: #999"/>
    <path d="M17.21,1.13a26.67,26.67,0,0,0-11.89.28C3.77,1.82.7,3,.72,4.43c0,.53.4,1.1,1.4,1.7,3.29,2,7.76,2.23,11.48,2a23.73,23.73,0,0,0,5.73-1c1-.33,3.57-1.19,3.81-2.53a1.09,1.09,0,0,0,0-.36C22.89,2.24,18.65,1.41,17.21,1.13Z" style="fill: #d3d4d2"/>
  </g>
  <g>
    <path d="M24.78,31.41a6.73,6.73,0,1,1,6.72-6.73,6.74,6.74,0,0,1-6.72,6.73" style="fill: #c1272d"/>
    <path d="M19.71,22.87v1.57a.67.67,0,0,0,1,.58l1.36-.79a.66.66,0,0,0,0-1.15l-1.36-.78A.66.66,0,0,0,19.71,22.87Z" style="fill: #fff"/>
    <path d="M20.84,23.78a4,4,0,1,1,.91,3.57" style="fill: none;stroke: #fff;stroke-linecap: round;stroke-linejoin: round;stroke-width: 0.9327724459525021px"/>
  </g>
  <path d="M17.05,24.68a7.8,7.8,0,0,1,.32-2.17,27,27,0,0,1-6.15.54,26,26,0,0,1-6.08-.83C3.88,21.87.59,21,.59,19.28v2.85a9.85,9.85,0,0,0,.07,3C1.25,26.79,4,27.5,5.51,27.87a26.29,26.29,0,0,0,6.37.74A26.84,26.84,0,0,0,17.8,28,7.57,7.57,0,0,1,17.05,24.68Z" style="fill: #999"/>
</svg>
