<svg id="ee3ee0fd-dd0a-4e08-9306-ad69c27fc5f9" data-name="Calque 1" xmlns="http://www.w3.org/2000/svg" width="32" height="32" viewBox="0 0 32 32">
  <title>places-93-IconePisciculture</title>
  <rect x="0.02" width="31.97" height="31.98" style="fill: #fff"/>
  <path d="M6.88,13.84a1.28,1.28,0,1,1,1.27,1.27,1.27,1.27,0,0,1-1.27-1.27m21.67-3.43a7.31,7.31,0,0,0-4.76,3.79A14.51,14.51,0,0,0,13.68,9.64,11.84,11.84,0,0,0,3.34,15S9.5,28.23,24.12,18c1.05,2.14,5,3.84,4.71,3.46C26.07,17.79,25.61,15.11,28.55,10.41Z" style="fill: #5b83b6"/>
  <path d="M11.05,10.38s2.11-2.86,5.2-2.86A7,7,0,0,0,18,11.82Z" style="fill: #5b83b6"/>
  <path d="M11.92,20.77a7.68,7.68,0,0,0,3.61,3.66,8.87,8.87,0,0,1-.37-3.9C15.44,18.33,11.92,20.77,11.92,20.77Z" style="fill: #5b83b6"/>
</svg>
