<svg id="e0ab43b3-7a92-482d-a817-e672d3cedf09" data-name="Calque 1" xmlns="http://www.w3.org/2000/svg" width="32" height="32" viewBox="0 0 32 32">
  <title>office-99-IconeImageImport</title>
  <polygon points="16.25 11.85 14.59 11.85 14.59 14.86 13.28 14.86 15.42 17.5 17.56 14.86 16.25 14.86 16.25 11.85" style="fill: #5bab26"/>
  <rect x="8.36" y="18.19" width="14.22" height="7.66" style="fill: #6f7095"/>
  <polygon points="20.95 31.1 20.49 30.94 16.53 29.71 16.53 26.47 14.24 26.47 14.24 29.7 10.4 30.99 9.99 31.1 11.62 31.64 15.37 30.45 19.33 31.64 20.95 31.1" style="fill: #6f7072"/>
  <g>
    <path d="M21.85,9.19V2.74A.74.74,0,0,0,21.11,2h-6.4A.75.75,0,0,1,14,1.25h0a.74.74,0,0,0-.74-.74H10.74a.74.74,0,0,0-.74.74V9.19a.74.74,0,0,0,.74.74H21.11A.74.74,0,0,0,21.85,9.19Z" style="fill: #fac262"/>
    <path d="M21.88,9.19l1.2-5a.56.56,0,0,0-.57-.74H12.14a1,1,0,0,0-.92.74l-1.2,5a.56.56,0,0,0,.56.74H21A1,1,0,0,0,21.88,9.19Z" style="fill: #cea153"/>
  </g>
</svg>
