<svg id="a9d10634-8566-48f6-b863-c30a8560a210" data-name="Calque 1" xmlns="http://www.w3.org/2000/svg" width="32" height="32" viewBox="0 0 32 32">
  <title>phyto-59-IconeRegulateur</title>
  <g>
    <path d="M23,10.61a5,5,0,1,1-6.3,3.33A5,5,0,0,1,23,10.61" style="fill: #6d9ebc"/>
    <polygon points="15.54 15.76 8.59 17.39 8.95 18.98 21.14 15.99 20.79 14.4 15.54 15.76" style="fill: #6d9ebc"/>
    <polyline points="27.86 24.48 26.48 25.35 21.62 17.64 22.99 16.78 27.86 24.48" style="fill: #6d9ebc"/>
    <path d="M9.33,14.7a3.6,3.6,0,1,1-4.5,2.38,3.61,3.61,0,0,1,4.5-2.38" style="fill: #6d9ebc"/>
    <path d="M28.41,22.42a3.24,3.24,0,1,1-4.05,2.15,3.25,3.25,0,0,1,4.05-2.15" style="fill: #6d9ebc"/>
  </g>
  <path d="M2.4,5.07V3.77A1.09,1.09,0,0,1,3.49,2.69H5.31A1.09,1.09,0,0,1,6.39,3.77v1.3" style="fill: #6e6a69"/>
  <path d="M22.26,22.41a7.52,7.52,0,0,1-.82.05,6.67,6.67,0,0,1-2-.31,7,7,0,0,1-3.73-2.76l-2.08.51a5.59,5.59,0,0,1-5.32,3.85,5.74,5.74,0,0,1-1.65-.25,5.6,5.6,0,0,1,1.64-11,5.57,5.57,0,0,1,4.18,1.89l2.16-.51a5.09,5.09,0,0,1,.14-.56,7,7,0,0,1,6.73-5,6.83,6.83,0,0,1,.78.06L22,4a1.4,1.4,0,0,0-1.4-1.4H12.12c-2.77,0-2.55,3.93-5.83,3.93H2.43A1.4,1.4,0,0,0,1,8L.49,12.56V22.74l.55,6a1.4,1.4,0,0,0,1.39,1.4H20.58a1.4,1.4,0,0,0,1.4-1.4l.27-2.69a5,5,0,0,1,.2-2.09v0l.07-.77v-.35ZM13.91,4.23h4.74a1,1,0,1,1,0,2.1H13.91a1,1,0,0,1,0-2.1Z" style="fill: #ccc"/>
</svg>
