<svg id="e10f6fd0-1abf-4307-b58e-84b66a8bc4a5" data-name="Calque 1" xmlns="http://www.w3.org/2000/svg" width="32" height="32" viewBox="0 0 32 32">
  <title>sign-42-IconeZoneFortePente</title>
  <g>
    <path d="M3.22,29.85A2.61,2.61,0,0,1,1,25.94L13.9,3.54a2.6,2.6,0,0,1,4.51,0l12.94,22.4a2.61,2.61,0,0,1-2.26,3.91Z" style="fill: #fff"/>
    <path d="M16.16,2.62a2.21,2.21,0,0,1,1.92,1.11L31,26.14a2.21,2.21,0,0,1-1.92,3.32H3.22A2.21,2.21,0,0,1,1.3,26.14L14.24,3.73a2.18,2.18,0,0,1,1.92-1.11m0-.77a3,3,0,0,0-2.59,1.49L.63,25.75a3,3,0,0,0,2.59,4.49H29.09a3,3,0,0,0,2.59-1.5,2.92,2.92,0,0,0,0-3L18.75,3.34a3,3,0,0,0-2.59-1.49Z" style="fill: #fff"/>
  </g>
  <g>
    <path d="M3.22,29a1.71,1.71,0,0,1-1.49-2.57L14.67,4a1.71,1.71,0,0,1,3,0L30.58,26.39A1.71,1.71,0,0,1,29.09,29Z" style="fill: #fff"/>
    <path d="M16.16,3.62a1.19,1.19,0,0,1,1.05.61L30.15,26.64a1.21,1.21,0,0,1,0,1.21,1.19,1.19,0,0,1-1.06.61H3.22a1.17,1.17,0,0,1-1.05-.61,1.16,1.16,0,0,1,0-1.21L15.1,4.23a1.21,1.21,0,0,1,1.06-.61m0-1a2.18,2.18,0,0,0-1.92,1.11L1.3,26.14a2.21,2.21,0,0,0,1.92,3.32H29.09A2.21,2.21,0,0,0,31,26.14L18.08,3.73a2.21,2.21,0,0,0-1.92-1.11Z" style="fill: #d10000"/>
  </g>
  <polygon points="10.82 14.11 29.07 27.18 3.25 27.18 10.82 14.11" style="fill: #d10000"/>
</svg>
