<svg id="e8243dda-8965-4f3b-9c67-0d1baa958eaa" data-name="Calque 1" xmlns="http://www.w3.org/2000/svg" width="32" height="32" viewBox="0 0 32 32">
  <title>print-74-IconePublicationReferentielValide</title>
  <path d="M3.19,1A2.18,2.18,0,0,0,2,1.38,2.18,2.18,0,0,1,3.19,1Z" style="fill: #c3d56c"/>
  <path d="M2,28.63A2.19,2.19,0,0,0,3,29H3A2.19,2.19,0,0,1,2,28.63Z" style="fill: #c3d56c"/>
  <path d="M4,3.38A2.18,2.18,0,0,1,5.19,3H17V2.6l-.1-.12a1.22,1.22,0,0,0-1-.48H3.19A1.21,1.21,0,0,0,2,3.21V26.8A1.18,1.18,0,0,0,3,28V5.21A2.2,2.2,0,0,1,4,3.38Z" style="fill: #c3d56c"/>
  <path d="M18.8,3.19h0L17.65,1.83a2.17,2.17,0,0,0-.77-.61,2.17,2.17,0,0,1,.77.61Z" style="fill: #779a2c"/>
  <path d="M3,28.8V28A1.18,1.18,0,0,1,2,26.8V3.21A1.21,1.21,0,0,1,3.19,2H15.93a1.22,1.22,0,0,1,1,.48l.1.12V1.88l.92.28.88,1h0L17.65,1.83a2.17,2.17,0,0,0-.77-.61A2.21,2.21,0,0,0,15.93,1H3.19A2.21,2.21,0,0,0,1,3.21V26.8a2.2,2.2,0,0,0,1,1.83A2.19,2.19,0,0,0,3,29,1.1,1.1,0,0,1,3,28.8Z" style="fill: #779a2c"/>
  <polygon points="17.33 3 16.99 2.6 16.99 3 17.33 3" style="fill: #779a2c"/>
  <path d="M17.93,3h0a2,2,0,0,1,.49.06,2.32,2.32,0,0,1,.37.13l-.88-1L17,1.88V2.6l.34.4Z" style="fill: #779a2c"/>
  <path d="M19.78,29H4a1.18,1.18,0,0,0,1.16,1H21.78a1.19,1.19,0,0,0,1.14-.87,9.07,9.07,0,0,1-1.71-.67A2.18,2.18,0,0,1,19.78,29Z" style="fill: #c3d56c"/>
  <polygon points="23.5 8.4 23.19 8.03 23.19 8.03 23.5 8.4" style="fill: #c3d56c"/>
  <path d="M22.72,9V9H22v3.63a8.36,8.36,0,0,1,1-.33V9.78A1.24,1.24,0,0,0,22.72,9Z" style="fill: #c3d56c"/>
  <path d="M21.39,5.9h0L19.65,3.83a2.17,2.17,0,0,0-.77-.61,2.17,2.17,0,0,1,.77.61Z" style="fill: #c3d56c"/>
  <path d="M16.5,20.72A8.73,8.73,0,0,1,21,13.1V9H19V7H17V4H5.19A1.21,1.21,0,0,0,4,5.21V28H19.78a1.3,1.3,0,0,0,.49-.1A8.75,8.75,0,0,1,16.5,20.72ZM16,9.82A1.18,1.18,0,0,1,14.82,11H8.18A1.18,1.18,0,0,1,7,9.82V8.18A1.18,1.18,0,0,1,8.18,7h6.64A1.18,1.18,0,0,1,16,8.18Z" style="fill: #c3d56c"/>
  <path d="M21.21,28.46c-.32-.17-.64-.36-.94-.56a1.3,1.3,0,0,1-.49.1H4v.8A1.42,1.42,0,0,0,4,29H19.78A2.18,2.18,0,0,0,21.21,28.46Z" style="fill: #c3d56c"/>
  <path d="M21,13.1a8.32,8.32,0,0,1,1-.47V9H21Z" style="fill: #c3d56c"/>
  <path d="M19,7V5L18.2,4a1.24,1.24,0,0,0-.27,0H17V7Z" style="fill: #c3d56c"/>
  <path d="M19,4.6l-.1-.12A1.34,1.34,0,0,0,18.2,4L19,5Z" style="fill: #c3d56c"/>
  <path d="M5.19,31h0A2.25,2.25,0,0,1,4,30.63,2.25,2.25,0,0,0,5.19,31Z" style="fill: #779a2c"/>
  <path d="M4,3.38A2.18,2.18,0,0,1,5.19,3h0A2.18,2.18,0,0,0,4,3.38Z" style="fill: #779a2c"/>
  <path d="M17.93,3h0a2.05,2.05,0,0,1,.49.06A2,2,0,0,0,17.93,3Z" style="fill: #779a2c"/>
  <path d="M19.51,4l.4.12L21.39,5.9,19.65,3.83a2.17,2.17,0,0,0-.77-.61l-.08,0,.6.71Z" style="fill: #779a2c"/>
  <path d="M21.78,30H5.19A1.18,1.18,0,0,1,4,29H3.19L3,29a2.18,2.18,0,0,0,1,1.65A2.25,2.25,0,0,0,5.19,31H21.78a2.2,2.2,0,0,0,2.13-1.66,8.29,8.29,0,0,1-1-.21A1.19,1.19,0,0,1,21.78,30Z" style="fill: #779a2c"/>
  <path d="M23.31,9h-.6V9a1.24,1.24,0,0,1,.27.76V12.3a8,8,0,0,1,1-.2V9.78A2.18,2.18,0,0,0,23.5,8.4L23.19,8Z" style="fill: #779a2c"/>
  <path d="M3.19,29,3,29H3l.18,0Z" style="fill: #779a2c"/>
  <path d="M4,28V5.21A1.21,1.21,0,0,1,5.19,4H17V3H5.19A2.21,2.21,0,0,0,3,5.21V28a1.42,1.42,0,0,0,.2,0Z" style="fill: #779a2c"/>
  <polygon points="19.39 3.9 19.4 3.9 18.8 3.19 18.8 3.19 19.39 3.9" style="fill: #779a2c"/>
  <path d="M4,28h-.8A1.42,1.42,0,0,1,3,28v.84A1.1,1.1,0,0,0,3,29l.18,0H4a1.42,1.42,0,0,1,0-.2Z" style="fill: #779a2c"/>
  <polygon points="18.8 3.19 18.79 3.19 19.39 3.9 18.8 3.19" style="fill: #779a2c"/>
  <polygon points="19.52 4.04 19.4 3.9 19.51 4.04 19.52 4.04" style="fill: #779a2c"/>
  <path d="M18.2,4l-.87-1H17V4h.94A1.24,1.24,0,0,1,18.2,4Z" style="fill: #779a2c"/>
  <polygon points="19.51 4.04 19.4 3.9 19.39 3.9 19.51 4.04 19.51 4.04" style="fill: #779a2c"/>
  <path d="M17.93,3h-.6l.87,1a1.34,1.34,0,0,1,.69.45l.1.12V3.88l.52.16-.12-.14-.6-.71a2.32,2.32,0,0,0-.37-.13A2.05,2.05,0,0,0,17.93,3Z" style="fill: #779a2c"/>
  <polygon points="23.19 8.01 21.4 5.9 23.19 8.03 23.19 8.01" style="fill: #779a2c"/>
  <polygon points="23.19 8.03 23.19 8.03 21.4 5.9 21.39 5.9 23.19 8.03" style="fill: #779a2c"/>
  <polygon points="21.99 9 22.71 9 21.99 8.15 21.99 9" style="fill: #779a2c"/>
  <path d="M19,9h2V7.78A1.24,1.24,0,0,0,20.72,7V7H19Z" style="fill: #779a2c"/>
  <path d="M21,7h-.31V7a1.24,1.24,0,0,1,.27.76V9h1V8.15Z" style="fill: #779a2c"/>
  <polygon points="18.99 7 20.71 7 18.99 4.97 18.99 7" style="fill: #779a2c"/>
  <polygon points="20.71 7 21.02 7 18.99 4.6 18.99 4.97 20.71 7" style="fill: #779a2c"/>
  <path d="M21.19,6l.31.37A2.18,2.18,0,0,1,22,7.78v.37l.72.85h.6l-.12-1L21.39,5.9,19.91,4.16,19.51,4l1.68,2Z" style="fill: #779a2c"/>
  <polygon points="21.5 6.4 21.19 6.03 21.19 6.03 21.5 6.4" style="fill: #779a2c"/>
  <path d="M21.31,7H21l1,1.15V7.78A2.18,2.18,0,0,0,21.5,6.4L21.19,6Z" style="fill: #779a2c"/>
  <polygon points="21.19 6.03 21.19 6 19.52 4.04 19.51 4.04 21.19 6.03" style="fill: #779a2c"/>
  <polygon points="21.19 6.03 19.51 4.04 19.51 4.04 21.19 6.03 21.19 6.03" style="fill: #779a2c"/>
  <polygon points="21.31 7 21.19 6.03 19.51 4.04 18.99 3.88 18.99 4.6 21.02 7 21.31 7" style="fill: #779a2c"/>
  <rect x="7" y="7" width="9" height="4" rx="1.18" style="fill: #fff"/>
  <rect x="24.5" y="16.36" width="1.5" height="9.02" style="fill: #fff"/>
  <rect x="20.75" y="20" width="8.95" height="1.5" style="fill: #fff"/>
  <path d="M32,20.72s0,.05,0,.08,0-.05,0-.08Z" style="fill: none"/>
  <path d="M25.22,27.45A6.73,6.73,0,1,1,32,20.72a6.74,6.74,0,0,1-6.73,6.73" style="fill: #5bab26"/>
  <rect x="24.5" y="16.36" width="1.5" height="9.02" style="fill: #fff"/>
  <rect x="20.75" y="20" width="8.95" height="1.5" style="fill: #fff"/>
  <path d="M25.22,27.45A6.73,6.73,0,1,1,32,20.72a6.74,6.74,0,0,1-6.73,6.73" style="fill: #5bab26"/>
  <rect x="24.5" y="16.36" width="1.5" height="9.02" style="fill: #fff"/>
  <rect x="20.75" y="20" width="8.95" height="1.5" style="fill: #fff"/>
  <path d="M32,20.72s0,.05,0,.08,0-.05,0-.08Z" style="fill: none"/>
</svg>
