<svg id="eb50113e-b2aa-4f28-830e-63b4a2f2b836" data-name="Calque 1" xmlns="http://www.w3.org/2000/svg" width="32" height="32" viewBox="0 0 32 32">
  <title>people-33-IconeImportsCollaborateur</title>
  <g>
    <path d="M23,9.89a3.34,3.34,0,0,0,1.4,1.2.59.59,0,0,0,.2.06,4.61,4.61,0,0,0,.56,0h.34a4.22,4.22,0,0,1,2.09.37l.13.07a2.65,2.65,0,0,1,.26.21.1.1,0,0,0,.05,0,2.49,2.49,0,0,1,.23.31s0,0,0,0a1.48,1.48,0,0,1,.15.31l.06.11c0,.1,0,.22.08.33a1.46,1.46,0,0,1,.05.2c0,.13,0,.29,0,.44s0,.09,0,.15l.17.08c0-.19.09-.43.1-.52a5.43,5.43,0,0,0,.06-.55A4.35,4.35,0,0,0,24.82,8c-.95,0-.92.28-1.37.46a1.69,1.69,0,0,1-.51,0c-1.64-.2-2.49,2.23-2.34,4.42a3.68,3.68,0,0,0,.21,1.31s0,0,0,0C20.75,12.22,22.24,9.94,23,9.89Z" style="fill: #7c6e5c"/>
    <path d="M28.7,13.75c0-.06,0-.1,0-.15s0-.31,0-.44a1.46,1.46,0,0,0-.05-.2c0-.11-.05-.23-.08-.33l-.06-.11a1.48,1.48,0,0,0-.15-.31s0,0,0,0a2.49,2.49,0,0,0-.23-.31.1.1,0,0,1-.05,0,2.65,2.65,0,0,0-.26-.21l-.13-.07a4.22,4.22,0,0,0-2.09-.37h-.34a4.61,4.61,0,0,1-.56,0,.59.59,0,0,1-.2-.06c.91.4-.91-.39,0,0A3.34,3.34,0,0,1,23,9.89c-.78,0-2.27,2.33-2.2,4.18,0,0,0,0,0,0a.78.78,0,0,0,.05.14,8.59,8.59,0,0,1,4.42-1.21A8.71,8.71,0,0,1,28.7,13.75Z" style="fill: #dcc4ab"/>
    <path d="M24.42,11.09c-.91-.39.91.4,0,0Z" style="fill: #dcc4ab"/>
    <path d="M28.3,12.21s0,0,0,0S28.3,12.2,28.3,12.21Z" style="fill: #dcc4ab"/>
    <path d="M28.51,12.63l-.06-.11Z" style="fill: #dcc4ab"/>
    <path d="M28.68,13.6c0,.05,0,.09,0,.15h0C28.69,13.69,28.69,13.65,28.68,13.6Z" style="fill: #dcc4ab"/>
    <path d="M27.74,11.62l-.13-.07Z" style="fill: #dcc4ab"/>
    <path d="M28,11.83a.1.1,0,0,0,.05,0A.1.1,0,0,1,28,11.83Z" style="fill: #dcc4ab"/>
    <path d="M25.18,11.18h0Z" style="fill: #dcc4ab"/>
    <path d="M28.64,13.16a1.46,1.46,0,0,0-.05-.2A1.46,1.46,0,0,1,28.64,13.16Z" style="fill: #dcc4ab"/>
    <path d="M3.39,14.12v0C3.32,12.22,4.82,9.94,5.6,9.89A3.26,3.26,0,0,0,7,11.09a.52.52,0,0,0,.2.06,4.39,4.39,0,0,0,.56,0H8.1a4.24,4.24,0,0,1,2.09.37l.13.07a2.52,2.52,0,0,1,.25.21l0,0a1.83,1.83,0,0,1,.24.31l0,0a2.23,2.23,0,0,1,.15.31.54.54,0,0,1,.05.11,3.18,3.18,0,0,1,.09.33c0,.07,0,.13.05.2s0,.29,0,.44a1.36,1.36,0,0,0,0,.2c0,.14,0,.31,0,.47s0,.19,0,.3h0s.12-.41.16-.53.12-.6.14-.73a5.43,5.43,0,0,0,.06-.55A4.36,4.36,0,0,0,7.4,8c-1,0-.93.28-1.37.46a1.76,1.76,0,0,1-.52,0C3.87,8.19,3,10.62,3.18,12.81A3.68,3.68,0,0,0,3.39,14.12Z" style="fill: #7c6e5c"/>
    <path d="M9.23,21.76C7.07,23.93,5,21.35,4.15,19.37c-1.48.37-3.62.93-4.06,2.7-.36,1.46,3.3,6,7,6a10.76,10.76,0,0,0,6.36-2.26A19.32,19.32,0,0,0,9.23,21.76Z" style="fill: #495e9f"/>
    <path d="M11.17,13c0,.07,0,.13.05.2S11.18,13,11.17,13Z" style="fill: #dcc4ab"/>
    <path d="M10.19,11.55l.13.07Z" style="fill: #dcc4ab"/>
    <path d="M10.57,11.83l0,0Z" style="fill: #dcc4ab"/>
    <path d="M11,12.52a.54.54,0,0,1,.05.11A.54.54,0,0,0,11,12.52Z" style="fill: #dcc4ab"/>
    <path d="M10.86,12.18l0,0Z" style="fill: #dcc4ab"/>
    <path d="M11.26,14.27c0,.1,0,.19,0,.3h0C11.26,14.46,11.25,14.37,11.26,14.27Z" style="fill: #dcc4ab"/>
    <path d="M11.26,13.6a1.36,1.36,0,0,0,0,.2A1.36,1.36,0,0,1,11.26,13.6Z" style="fill: #dcc4ab"/>
    <path d="M9.62,22.06h0l.4.32Z" style="fill: #7e2032"/>
    <path d="M15.8,21.82Z" style="fill: #7e2032"/>
    <path d="M15.73,21.66Z" style="fill: #7e2032"/>
    <path d="M15.73,21.66l.07.16h0Z" style="fill: #7e2032"/>
    <path d="M15.8,21.82h0c-.65-1.42-3.66-2.05-5.09-2.44a7.17,7.17,0,0,1-1.48,2.38,19.32,19.32,0,0,1,4.23,4C14.37,25.11,16.42,23.2,15.8,21.82Zm-6.18.24h0l.4.32Z" style="fill: #314975"/>
    <path d="M10,22.38Z" style="fill: #7e2032"/>
    <path d="M9.62,22.06Z" style="fill: #7e2032"/>
    <path d="M12,7.43s0,0,0,0c-.07-1.85,1.42-4.13,2.2-4.18a3.34,3.34,0,0,0,1.4,1.2.59.59,0,0,0,.2.06,4.67,4.67,0,0,0,.57,0h.38a7.4,7.4,0,0,1,.81,0h.09a2.5,2.5,0,0,1,1.52.61,1.79,1.79,0,0,1,.3.36v0a2.69,2.69,0,0,1,.19.38.05.05,0,0,0,0,0c0,.13.07.27.1.42l0,.11a5.13,5.13,0,0,1,0,1.38v0h0A5.38,5.38,0,0,0,20,7.35c0-.11.12-.6.14-.73a5.43,5.43,0,0,0,.06-.55A4.35,4.35,0,0,0,16,1.26c-1,0-.92.28-1.37.46a1.69,1.69,0,0,1-.51,0c-1.64-.2-2.49,2.23-2.34,4.42A3.68,3.68,0,0,0,12,7.43Z" style="fill: #7c6e5c"/>
    <path d="M17.94,15.06c-2,2-3.93-.05-4.87-1.94,0,.14,0,.27,0,.41s-.13.72-.17.87l0,.1,0,.15a3.31,3.31,0,0,1-.11.36h0a9.33,9.33,0,0,1-1.54,2.93l.44.12A12.83,12.83,0,0,1,16,19.83a5.68,5.68,0,0,1,.92-.57,8.77,8.77,0,0,1,2-3.44Z" style="fill: #495e9f"/>
    <path d="M19.38,14.58a5,5,0,0,1-.25-1.25,6.5,6.5,0,0,1-1.19,1.73l1,.76.14-.15c.17-.17.34-.33.52-.48C19.5,15,19.43,14.78,19.38,14.58Z" style="fill: #314975"/>
  </g>
  <path d="M25.28,28.49A6.72,6.72,0,1,1,32,21.77a6.73,6.73,0,0,1-6.72,6.72" style="fill: #0499d1"/>
  <polygon points="28.94 19.04 27.81 17.9 24.69 21.02 22.42 18.76 22.42 24.43 28.09 24.43 25.82 22.16 28.94 19.04" style="fill: #fff"/>
  <path d="M17.75,4.51a2.54,2.54,0,0,1,1.53.62A2.54,2.54,0,0,0,17.75,4.51Z" style="fill: #dcc4ab"/>
  <path d="M13.89,10.92h0l3.3,3.57a4.66,4.66,0,0,0,.71-.91,2.24,2.24,0,0,0,.33-1.16v-1.7C17.06,12,15.49,12.48,13.89,10.92Z" style="fill: #cfad88"/>
  <path d="M18.54,4.72a4.83,4.83,0,0,0-1.83-.25h-.34a4.12,4.12,0,0,1-1-.19l.25.1a3.25,3.25,0,0,1-1.4-1.21c-.78.06-2.28,2.34-2.21,4.19h0v0a7.56,7.56,0,0,0,1.66,3.26v1.38a1.93,1.93,0,0,0,.24,1c.7,1.28,1.92,2.77,3.29,1.45L13.9,10.91h0c1.6,1.56,3.16,1,4.32-.2a7.58,7.58,0,0,0,1.64-2.85,1.77,1.77,0,0,1,0-.23C20.31,4.73,18.56,4.72,18.54,4.72Z" style="fill: #dcc4ab"/>
  <path d="M5.28,17.62h0l3.29,3.57a4.66,4.66,0,0,0,.71-.91,2.24,2.24,0,0,0,.33-1.16V17.51s0,0,0-.09C8.44,18.65,6.87,19.18,5.28,17.62Z" style="fill: #cfad88"/>
  <path d="M9.92,11.42a4.83,4.83,0,0,0-1.83-.25H7.75a4,4,0,0,1-1-.19l.24.1a3.32,3.32,0,0,1-1.4-1.21c-.78.06-2.27,2.34-2.2,4.18v0a0,0,0,0,1,0,0,7.57,7.57,0,0,0,1.67,3.26v1.38a2,2,0,0,0,.23,1C6,21,7.2,22.5,8.57,21.18L5.28,17.61h0c1.6,1.56,3.17,1,4.33-.2a7.69,7.69,0,0,0,1.63-2.85c0-.08,0-.15,0-.23C11.7,11.43,9.94,11.42,9.92,11.42Z" style="fill: #dcc4ab"/>
</svg>
