<svg id="fd3af0ca-9ea4-49b4-a37d-9c7e23510d15" data-name="Calque 1" xmlns="http://www.w3.org/2000/svg" width="32" height="32" viewBox="0 0 32 32">
  <title>vegetal-68-IconeHarvest.Viti</title>
  <circle cx="10.99" cy="14.51" r="2.86" transform="matrix(0.27, -0.96, 0.96, 0.27, -5.93, 21.22)" style="fill: #c1d900"/>
  <circle cx="5.32" cy="17.54" r="2.86" transform="translate(-13.01 17.98) rotate(-74.5)" style="fill: #c1d900"/>
  <circle cx="10.99" cy="22.6" r="2.86" transform="translate(-13.72 27.15) rotate(-74.5)" style="fill: #c1d900"/>
  <circle cx="16.86" cy="26.29" r="2.86" style="fill: #79418f"/>
  <circle cx="23.04" cy="14.88" r="2.86" transform="translate(-3.16 6.77) rotate(-15.65)" style="fill: #79418f"/>
  <circle cx="28.23" cy="17.97" r="2.86" transform="translate(-3.8 8.29) rotate(-15.65)" style="fill: #79418f"/>
  <circle cx="17.83" cy="11.96" r="2.86" transform="translate(-2.57 5.25) rotate(-15.65)" style="fill: #79418f"/>
  <circle cx="17.26" cy="19.33" r="2.86" transform="translate(-4.58 5.37) rotate(-15.65)" style="fill: #79418f"/>
  <circle cx="22.6" cy="22.33" r="2.86" style="fill: #79418f"/>
  <path d="M15.42,2.84c2.19,1.57,4.32,3.19,6.5,4.68a38.06,38.06,0,0,0,3.33,2.07c1.12.58,2.37,1.13,3.16.78a1.57,1.57,0,0,0,.86-1,2,2,0,0,0,0-1.45.71.71,0,0,0-1-.4c-.44.13-.61.44-.59,1a6.9,6.9,0,0,0,1.62,3.34,13.57,13.57,0,0,0,2.91,2.69,11.52,11.52,0,0,1-3.34-2.3,7.16,7.16,0,0,1-2.16-3.62,2,2,0,0,1,.16-1.27,1.83,1.83,0,0,1,1-.91,2.11,2.11,0,0,1,1.37-.09,2,2,0,0,1,1.1.92,3.34,3.34,0,0,1,.25,2.47,3,3,0,0,1-1.64,2,3.56,3.56,0,0,1-2.47,0,11.71,11.71,0,0,1-2-.9,24.45,24.45,0,0,1-3.38-2.34A41.24,41.24,0,0,1,15.42,2.84Z" style="fill: #6da200"/>
  <path d="M27.18,3.58a9.14,9.14,0,0,0-1.39,2.91,17.47,17.47,0,0,0-.63,3.45L23.94,10a18.52,18.52,0,0,1-.23-3.87,11.53,11.53,0,0,1,.85-4l0-.05a1.51,1.51,0,0,1,2.79,1.18A1.77,1.77,0,0,1,27.18,3.58Z" style="fill: #6da200"/>
  <path d="M13.57,7.79A23.38,23.38,0,0,1,10.49,10c-1.06.66-2.16,1.26-3.27,1.82S5,12.89,3.8,13.34A23.19,23.19,0,0,1,.2,14.48a25,25,0,0,1,3.1-2.2c1.06-.66,2.15-1.26,3.26-1.82S8.8,9.39,10,8.94A24.78,24.78,0,0,1,13.57,7.79Z" style="fill: #6da200"/>
  <path d="M3.32,7.86a6.33,6.33,0,0,1,1.5,1.51,11.24,11.24,0,0,1,1.14,2l.78-.21A12.53,12.53,0,0,0,6,8.7,7.81,7.81,0,0,0,4.62,6.38l0,0a1,1,0,0,0-1.4-.07A1,1,0,0,0,3.13,7.7,1,1,0,0,0,3.32,7.86Z" style="fill: #6da200"/>
</svg>
