<svg id="f7ced9b7-eb32-4b0c-8d11-166565b38049" data-name="Calque 1" xmlns="http://www.w3.org/2000/svg" width="24" height="24" viewBox="0 0 24 24">
  <title>vegetal-75-11B89BA5</title>
  <path d="M6.31,13.73c-2-2.18-3.76-4.3-3.63-4.43s2.41,1.77,4.67,3.87a12.17,12.17,0,0,1,1.57-.6,4.74,4.74,0,0,1-1-1.31,5.07,5.07,0,0,1-.44-3.47,6.51,6.51,0,0,0-5.08-.66h0a1.33,1.33,0,0,0-1.9,0A1.32,1.32,0,0,0,.45,9V9c-.84,2.18.28,5.51,2.92,8.16l0,0A6.45,6.45,0,0,1,6.31,13.73Z" style="fill: #69b2ff"/>
  <path d="M23.62,2.91a4.1,4.1,0,0,0-3.15-2L19.84.87a11.06,11.06,0,0,0-5.77,1.4c-4,2.1-6.13,5.81-4.82,8.27s5.58,2.75,9.55.64S24.93,5.37,23.62,2.91Zm-12.28,7c-.52.17-.86.2-.95,0-.21-.39,1.32-1.39,3.32-2.47,3.34-1.79,8-3.8,8.1-3.59S14.12,9.05,11.34,9.93Z" style="fill: #69b2ff"/>
  <path d="M12.88,13.56c-4.49,0-8.14,2.25-8.14,5s3.65,5,8.14,5S21,21.39,21,18.6,17.37,13.56,12.88,13.56ZM6,18.63c0-1.19,12.93-.38,12.93,0S6,19.81,6,18.63Z" style="fill: #69b2ff"/>
</svg>
