<svg id="b7519888-d9ec-4de1-be13-218f74a4b9cb" data-name="Calque 1" xmlns="http://www.w3.org/2000/svg" width="32" height="32" viewBox="0 0 32 32">
  <title>human-11-IconePlantation</title>
  <path d="M20.64,12h0a1,1,0,0,1,0-.24A1,1,0,0,0,20.64,12Z" style="fill: none"/>
  <path d="M21.14,17.86l-.2,0a.44.44,0,0,1-.26-.17c-.08-.11-2.18-2.87-2.73-3.89a1.92,1.92,0,0,1-.14-.33,5.36,5.36,0,0,0-3.62,0,1.22,1.22,0,0,1-.14.36c-.55,1-2.65,3.78-2.74,3.89a.39.39,0,0,1-.26.17l-.19,0,3.32,8a7.52,7.52,0,0,1,.64,2.31,5.35,5.35,0,0,0,1.13.12,5.59,5.59,0,0,0,1.23-.14,7.09,7.09,0,0,1,.63-2.26Z" style="fill: #684639"/>
  <path d="M21.76,17.44Z" style="fill: #927768"/>
  <g>
    <path d="M21.73,17.43a3.74,3.74,0,0,0,.49-1.08c0-.45-.63-1.26-.84-1.66-.34-.68-1.1-3.45-2.27-2.75s.35,2.65.87,3.39C20.37,15.87,21,17.28,21.73,17.43Z" style="fill: #dabca6"/>
    <path d="M9.79,16.27c0,.33.31.84.44,1.17.7-.15,1.27-1.4,1.66-1.94.57-.79,2.14-2.42,1.16-3.41-1.15-1.17-2,1.75-2.33,2.39A7.11,7.11,0,0,0,9.79,16.27Z" style="fill: #dabca6"/>
  </g>
  <g>
    <path d="M16.75,11.91l-.18-.15L16.63,10a.67.67,0,0,1,.09-.14,10.16,10.16,0,0,0-1.83-5h0l-.43.2h-.07a9.79,9.79,0,0,1,1.39,6.36,20.84,20.84,0,0,1-1.5,5.16s-.17.66.36.85.94-.38.94-.38A24.74,24.74,0,0,0,16.75,11.91Z" style="fill: #3e9500"/>
    <path d="M16.75,11.91c.75.59,2.73,1.5,4.75-2.92-3-.57-4.26.07-4.78.86a11.52,11.52,0,0,1,.06,1.66C16.78,11.64,16.76,11.78,16.75,11.91Z" style="fill: #7fa349"/>
    <path d="M16.57,11.76l.18.15c0-.13,0-.27,0-.4a11.52,11.52,0,0,0-.06-1.66.67.67,0,0,0-.09.14Z" style="fill: #7fa349"/>
    <path d="M13.59,4l-.24-.37h.53l.06.09,0,0a8,8,0,0,1,1,1.13,2.18,2.18,0,0,0,.53-1.29c.1-1-.5-2.27-3.46-3.56-.88,5.07,1.59,5.17,2.43,5.07a6.91,6.91,0,0,0-.77-1Z" style="fill: #7fa349"/>
    <path d="M14.89,4.86h0a8,8,0,0,0-1-1.13l0,0-.06-.09h-.53l.24.37,0,0a6.91,6.91,0,0,1,.77,1h.07Z" style="fill: #7fa349"/>
  </g>
  <g>
    <path d="M27,24.59c.68-1.29,1.48-2.55,1.38-4.07a6.57,6.57,0,0,0-1.44-3.46,67.91,67.91,0,0,0-4.69-6.12c-1-1.18-1.87.35-1.48,1.42a30.8,30.8,0,0,0,1.85,3.73c.45-.89,1.47-1.23,2.06-.26s.13,2.07-.11,3c-.41,1.54-.89,3.07-1.39,4.58l-.43-.14c.46-1.41.91-2.83,1.3-4.26.22-.83.69-2,.3-2.83s-1.1-.33-1.42.3a70.49,70.49,0,0,0-3.81,9,10.1,10.1,0,0,0-.89,4,8.66,8.66,0,0,0,.7,2.48h5.81A18,18,0,0,1,27,24.59Z" style="fill: #dabca6"/>
    <path d="M13.65,30.2a8.61,8.61,0,0,0-.74-4.62,68.85,68.85,0,0,0-4-9.41c-.58-1.09-1.37-.11-1.4.71a9.54,9.54,0,0,0,.59,2.67c.35,1.25.75,2.48,1.15,3.72l-.43.14c-.5-1.51-1-3-1.39-4.58-.25-.93-.65-2.1-.11-3s1.6-.63,2.06.26c.61-1.15,1.23-2.3,1.74-3.49a1.67,1.67,0,0,0,.1-1.62.82.82,0,0,0-1.28-.27,14.81,14.81,0,0,0-2,2.6c-.82,1.06-1.64,2.11-2.43,3.19a7.69,7.69,0,0,0-1.83,3.75,6.33,6.33,0,0,0,1.09,3.82,22.45,22.45,0,0,1,2.12,5.21,15.24,15.24,0,0,1,.38,2.21,4.64,4.64,0,0,1,0,.51h5.86A11,11,0,0,0,13.65,30.2Z" style="fill: #dabca6"/>
  </g>
</svg>
