<svg id="a5dd97b5-76dd-46bf-89d2-0ea5ab5b1bb1" data-name="Calque 1" xmlns="http://www.w3.org/2000/svg" width="32" height="32" viewBox="0 0 32 32">
  <title>animals-69-IconeAnimalCanard</title>
  <g>
    <path d="M25.08,12.59a10,10,0,0,1-2.9-1.74,4,4,0,0,1-2.26,3.52,6.54,6.54,0,0,0-.59.29c6.09,1,11.93.87,12,.22S28.64,13.93,25.08,12.59Z" style="fill: #edab00"/>
    <path d="M21.29,9.62c0-2-1.81-5.44-7.4-4.47-4.33.75-5.65,5-5.65,8.57a14.27,14.27,0,0,0,1.15,5.87,20.13,20.13,0,0,0,5.45-.41c3.13-.63,3.86-1.66,3.86-1.66a1.5,1.5,0,0,1-1.28-1.33,1.69,1.69,0,0,1,.33-1.43,7,7,0,0,1,1.76-1.26A4.24,4.24,0,0,0,21.29,9.62Zm-4.16,1a1,1,0,1,1,1-1A1,1,0,0,1,17.13,10.62Z" style="fill: #798857"/>
  </g>
  <path d="M20,18a15,15,0,0,1-4.63,2.35,14,14,0,0,1-5.52.49,14.1,14.1,0,0,1,.47,7.55c-.39-4.45-4.5-8.11-10.28-9.2V32H21.44c2.54-1.73,4.23-3.88,4.23-6.52C25.67,21.12,20,18,20,18Z" style="fill: #9f897b"/>
</svg>
