<svg id="f144b9de-ea06-40e1-944f-0697226d363c" data-name="Calque 1" xmlns="http://www.w3.org/2000/svg" width="32" height="32" viewBox="0 0 32 32">
  <title>money-51-IconeImportPortefeuilleCollab</title>
  <path d="M0,16.68v1.48a1.49,1.49,0,0,0,1.49,1.49H5.92a2,2,0,0,0,2-2v-.4a2,2,0,0,0-2-2H1.49A1.49,1.49,0,0,0,0,16.68Zm4.93.74a.82.82,0,1,1,.82.81A.82.82,0,0,1,4.93,17.42Z" style="fill: #8e6e45"/>
  <path d="M18.84,5.34a.53.53,0,0,1,.65.37l1,3.61H4Z" style="fill: #bc9161"/>
  <path d="M25.28,26.88A6.73,6.73,0,1,1,32,20.16,6.74,6.74,0,0,1,25.28,26.88Z" style="fill: #0499d1"/>
  <polygon points="28.82 17.75 27.69 16.61 24.57 19.73 22.3 17.46 22.3 23.13 27.97 23.13 25.7 20.87 28.82 17.75" style="fill: #fff"/>
  <path d="M24.18,11.51V10a2.94,2.94,0,0,0-2.93-2.94.23.23,0,0,0-.22.29l.75,2.77H21L4,10.08a.76.76,0,0,1-.2-1.5L8.72,7.26H3.62A2.54,2.54,0,0,0,1.08,9.8v1.69h0V14.1h5A2.94,2.94,0,0,1,9,17v.76A2.93,2.93,0,0,1,6.1,20.73h-5V22a2.59,2.59,0,0,0,2.71,2.7h14a8.69,8.69,0,0,1,6.35-13.17Z" style="fill: #8e6e45"/>
</svg>
