<svg id="b1e30794-a11b-4cb1-9165-59569cc82979" data-name="Calque 1" xmlns="http://www.w3.org/2000/svg" width="32" height="32" viewBox="0 0 32 32">
  <title>flag-54-IconeTelepac</title>
  <rect y="4" width="32" height="24" style="fill: #fff"/>
  <g>
    <path d="M23.94,4l1.13,1.06c.3.29.24.48.11.9-.2.61-.41.72-1.26.68-.29,0-.6,0-.69-.06s0,0,.28.18a3.94,3.94,0,0,1,1.38,1c.34.35.42.41.58.43s.22.06.09.24-.09.23.09.23.16,0,.26-.23.21-.3.34-.22a.62.62,0,0,1,.23.72,2.15,2.15,0,0,1-.37.35c-.37.3-.39.38-.21.74a10.23,10.23,0,0,1,.5,1.52,6.13,6.13,0,0,1,.37,3.05,1.14,1.14,0,0,0,0,.76,5.23,5.23,0,0,0,.71,1.29c.2.26.9,1.34,1,1.55a.83.83,0,0,1,.11.63c-.06.26-.21.38-.61.49s-.58.19-.64.29a.89.89,0,0,0,.11.73,1.19,1.19,0,0,1,.14.4c0,.18-.22.42-.53.58l-.23.12.11.08a.31.31,0,0,0,.18.09,1.46,1.46,0,0,1,.32.61,1.92,1.92,0,0,1-.34.37c-.38.37-.41.45-.25.76a1.28,1.28,0,0,1,0,.95,1.34,1.34,0,0,1-1,.95,3.16,3.16,0,0,1-1.26,0c-.53-.12-1.84-.34-2.26-.37a2.3,2.3,0,0,0-1.22.16A4.93,4.93,0,0,0,20,26.19a5.75,5.75,0,0,0-.64,1.29l-.11.28H32V4Z" style="fill: #bf3628"/>
    <path d="M.92,18.55c.33-.1.74-.2.91-.24.63-.11.66-.13.13-.11a10.79,10.79,0,0,0-2,.33v.27Z" style="fill: #4f5c91"/>
    <path d="M3.61,22.26l.36.23-.36.17a10.26,10.26,0,0,1-1.83.61,5.78,5.78,0,0,1-1.72.32H0v.73l.17-.07.22-.09.23.11.22.11-.13.08a1.54,1.54,0,0,1-.44.11l-.27,0v3.07a3.94,3.94,0,0,0,.91-.42c.42-.25.17-.21-.35.06s-.69.3-.45.09a.55.55,0,0,1,.23-.13.75.75,0,0,0,.32-.15c.82-.54,1.65-.78,3.82-1.09a13.2,13.2,0,0,0,1.69-.35,7,7,0,0,0,.94-.55,3.44,3.44,0,0,0,1.35-1.27c.1-.23.14-.48.07-.48a1.6,1.6,0,0,0-.31.28,7.88,7.88,0,0,1-2,1.42c-.83.42-1.21.5-3.27.65-.14,0-.21,0-.16,0A.49.49,0,0,0,3,25.57a.29.29,0,0,1,.21-.16.38.38,0,0,0,.18-.08.19.19,0,0,1,.14-.07c.05,0,.08,0,.07-.06s-.16-.06-.48,0-.23,0-.14-.19a.19.19,0,0,1,.14-.11.56.56,0,0,0,.24-.15A10,10,0,0,1,4.58,24a12.17,12.17,0,0,0,1.06-.61s0,0-.07,0c-.22.08-.3.08-.29,0s.13-.11.32-.18.52-.21.8-.33L7,22.64s-.06,0-.22,0-.38,0-.15-.13.14-.09.14-.16,0-.11.06-.11,0,0,0,0,0-.05.08-.07S7.11,22,7,22s-.07,0-.07-.05.19-.17.42-.23.28-.11.13-.16-.09,0-.07-.06,0,0-.05-.07-.06-.08.07-.31A5.27,5.27,0,0,0,7.79,20c0-.08-.16,0-.36.15A5.18,5.18,0,0,1,5.15,21,1.12,1.12,0,0,1,4,20.66,8.41,8.41,0,0,0,0,19.3v1.54A12.41,12.41,0,0,1,3.61,22.26Z" style="fill: #4f5c91"/>
    <path d="M10.89,25.27c-.39.27-.42.19-.05-.09s.39-.3.26-.25a.05.05,0,0,1-.07-.05c0-.06,0-.07-.17-.07a2.08,2.08,0,0,0-1.35.64c-.19.16-.23.18-.37.15s-.22,0-.49.15-.54.33-.79.5c-.62.43-.93.61-1,.53s-.1,0-.29.07a3.28,3.28,0,0,1-1.67.34,9.28,9.28,0,0,0-2.21.31l-1.3.26H8.65l.57-.61a15.13,15.13,0,0,1,1.64-1.6c.26-.22.4-.37.4-.43S11.26,25,10.89,25.27Z" style="fill: #4f5c91"/>
    <path d="M0,17.82a8.58,8.58,0,0,1,2.22.09,20.5,20.5,0,0,1,2.33.4.59.59,0,0,1,.33.27c.16.22.18.23.43.26A3.81,3.81,0,0,1,6,19c.07,0,.08,0,.06-.11s.1-.3.35-.23.37,0,.44-.1,0-.25-.33-.63a1.72,1.72,0,0,1-.31-.42s.17.1.37.3a2.61,2.61,0,0,0,1.19.78c.33.08.54.05.54-.09a4,4,0,0,0-.9-1.29c-.23-.25-.34-.4-.34-.48A.2.2,0,0,0,7,16.54a.18.18,0,0,1-.09-.14.86.86,0,0,0-.1-.28,1.9,1.9,0,0,1-.24-.82,4.94,4.94,0,0,0-.12-.67c0-.17-.2-.91-.34-1.64-.33-1.66-.35-2.08-.13-2.64A19.78,19.78,0,0,1,7.25,8.14a4,4,0,0,1,.9-1,.56.56,0,0,0,.3-.38A5.3,5.3,0,0,1,9.77,4.94a6.48,6.48,0,0,1,.89-.53L11.28,4H0Z" style="fill: #4f5c91"/>
    <path d="M23,14.22A6.36,6.36,0,0,1,24.24,14a2.79,2.79,0,0,1,1.08.13c.07.07-.13.29-.44.49l-.46.33a.66.66,0,0,1-.24.14c-.08,0-.13.07-.17.18s-.06.16-.3.18a.93.93,0,0,0-.3.06c-.07.08.35.33.61.37a.41.41,0,0,1,.28.12.14.14,0,0,0,.16.06c.08,0,.1,0,.1.07s-.13.27-.37.27-.35.07-.15.1a4.36,4.36,0,0,0,1,0c.22-.07.28-.17.24-.48a.69.69,0,0,1,0-.34.23.23,0,0,0,0-.2c0-.1,0-.14.1-.26a.59.59,0,0,1,.22-.14.38.38,0,0,0,.18-.09l.11-.08-.1-.12-.11-.11.13-.1c.31-.24.49-.72.32-.86a3.57,3.57,0,0,0-1-.24,5.21,5.21,0,0,0-2.05.59C22.75,14.24,22.67,14.33,23,14.22Z" style="fill: #7f7f7f"/>
  </g>
</svg>
