<svg id="b2a7bd9d-dac2-4125-b344-da7bb8f607c4" data-name="Calque 1" xmlns="http://www.w3.org/2000/svg" width="16" height="16" viewBox="0 0 16 16">
  <title>write-03-IconeEcritureEnModification</title>
  <g>
    <path d="M5.45,14.39.57,15.5l1.11-4.87A4.3,4.3,0,0,1,2.94,8.55L10.47,1a1.53,1.53,0,0,1,2.17,0l2.41,2.41a1.53,1.53,0,0,1,0,2.17L7.52,13.13A3.72,3.72,0,0,1,5.45,14.39Z" style="fill: none;stroke: #0078d8;stroke-linecap: round;stroke-linejoin: round;stroke-width: 1.09143668695658px"/>
    <path d="M1.3,12.46l2.34,2.33a24.39,24.39,0,0,1-2.71.35A23.73,23.73,0,0,1,1.3,12.46Z" style="fill: #0078d8"/>
    <path d="M9.47,2,2.09,9.4l4.54,4.54L14,6.56ZM6.82,12.19l-.92-.91,5.64-5.64.92.91Z" style="fill: #0078d8"/>
  </g>
</svg>
