<svg id="b00fa616-d1bd-4a4c-bfc9-17c4cedf9643" data-name="Calque 1" xmlns="http://www.w3.org/2000/svg" width="32" height="32" viewBox="0 0 32 32">
  <title>phyto-57-IconeInsecticide</title>
  <path d="M2.4,5.07V3.77A1.09,1.09,0,0,1,3.49,2.69H5.31A1.09,1.09,0,0,1,6.39,3.77v1.3" style="fill: #6e6a69"/>
  <g>
    <path d="M23.16,12.67l.08.43.19,1c-1.5.92-1.76,1.65-1.76,1.65l.09,0a7.22,7.22,0,0,1,1.72-1.41c.23,1.22.5,2.68.51,2.82s0,.2-.07.22l-.07-.07a9.3,9.3,0,0,0-1.84.39l-.23.06a.51.51,0,0,0-.13-.22v0a.07.07,0,0,0,.07,0c.1-.09-.09-.55-.21-.62h-.07v-.14h0c.09,0,.26-.37.26-.49a.17.17,0,0,0-.06-.12.41.41,0,0,0,.16-.25c0-.09,0-.1-.11-.12s-.18.16-.17.29l-.13,0c-.12,0-.15.39-.16.48l-.29-.17c-.25-.15-.28-.11-.28,0v.23h-.82v-.23c0-.1,0-.14-.27,0l-.3.17c0-.09,0-.48-.15-.48l-.13,0c0-.13-.1-.31-.17-.29s-.11,0-.11.12a.41.41,0,0,0,.16.25.17.17,0,0,0-.06.12c0,.12.17.48.26.49h0l0,.14H19c-.11.07-.3.53-.2.62a.06.06,0,0,0,.07,0l0,0a.64.64,0,0,0-.12.22l-.23-.06a9.3,9.3,0,0,0-1.84-.39l-.07.07c-.05,0-.09-.06-.08-.22s.29-1.6.52-2.82a7.42,7.42,0,0,1,1.72,1.41l.09,0s-.27-.73-1.77-1.65l.2-1,.08-.43V12.6a.14.14,0,0,0,0-.18c-.08-.12-.37-.49-.29-.6s0-.17-.06-.1a.3.3,0,0,0,0,.35,1,1,0,0,1,.21.55L16.84,14a23.39,23.39,0,0,0-7.43-2.39,28.09,28.09,0,0,1,7.37,2.63c-.31,1.37-.64,3.14-.34,3.33,0,0,0,.05,0,.05s2,.43,2.21.49v.09a.08.08,0,0,1,0,.06c.36,0,.91-.05,1.57-.05s1.26,0,1.65,0v-.14c.25-.06,2.16-.46,2.21-.49s0,0,0-.05c.3-.19,0-2-.35-3.33a28.23,28.23,0,0,1,7.38-2.63A23.2,23.2,0,0,0,23.65,14l-.34-1.38a1,1,0,0,1,.2-.55.29.29,0,0,0,0-.35c0-.07-.12,0-.05.1s-.21.48-.3.6a.13.13,0,0,0,0,.18v.07" style="fill: #747854;stroke: #747854;stroke-miterlimit: 10;stroke-width: 0.25px"/>
    <path d="M22,18.57a12.11,12.11,0,0,0-1.81-.07c-.82,0-1.46.05-1.8.07h0a1.47,1.47,0,0,0-.66,1,8.55,8.55,0,0,0-1.84.14l0,0a.14.14,0,0,0-.13.07c-.06.09-2.22,4.53-2.27,4.54s-.61.06-.62.46c0,.11.07,0,.1,0s.47-.25.69-.21.08,0,.13-.19,2-4.34,2.08-4.35.21,0,.28,0a4.66,4.66,0,0,0,1.35.08.89.89,0,0,0-.08.57,2.61,2.61,0,0,0-.35,1.2c-.34.09-2,.51-2,.78v.07a.54.54,0,0,0,0,.27,27.65,27.65,0,0,0,2,6.28.37.37,0,0,0,.17.18l-.11.21a.5.5,0,0,0,.13.47c.08.05.09,0,.05,0a.33.33,0,0,1,0-.34c.06-.11.19-.31.14-.36h0a.22.22,0,0,0,0-.15,30.5,30.5,0,0,1-2.19-6.35v0a1.1,1.1,0,0,0,.29-.05l1.56-.51a4.56,4.56,0,0,0,.19,1.31,1.85,1.85,0,0,0,.29,1,2.45,2.45,0,0,0,.6.68c.21.79.74,2.6.77,2.67s.38,0,.32-.11-.37-1.29-.62-2.15a5.77,5.77,0,0,0,1.13.78h.06c0,.28.29,1.16.4,1.12a2.49,2.49,0,0,0,.26-1.12h.21a6.09,6.09,0,0,0,1.13-.78c-.26.86-.57,2-.62,2.15s.29.2.32.11.55-1.87.77-2.67a2.45,2.45,0,0,0,.6-.68,1.85,1.85,0,0,0,.29-1,4.21,4.21,0,0,0,.18-1.31l1.56.51a1.11,1.11,0,0,0,.3.05v0A29.83,29.83,0,0,1,23,29.22a.28.28,0,0,0,0,.15h0c-.05.05.09.25.14.36a.33.33,0,0,1,0,.34s0,.09,0,0a.48.48,0,0,0,.14-.47l-.11-.21a.32.32,0,0,0,.16-.18A27.36,27.36,0,0,0,25.39,23a.54.54,0,0,0,0-.27v-.07c0-.27-1.68-.69-2-.78a2.44,2.44,0,0,0-.36-1.2.77.77,0,0,0-.08-.57A4.59,4.59,0,0,0,24.27,20c.07,0,.24,0,.29,0s2,4.13,2.07,4.35,0,.2.14.19a.86.86,0,0,1,.69.21c0,.06.11.14.1,0,0-.4-.58-.45-.63-.46s-2.2-4.45-2.27-4.54a.13.13,0,0,0-.12-.07l0,0a8.55,8.55,0,0,0-1.84-.14,1.44,1.44,0,0,0-.67-1h0" style="fill: #747854;stroke: #747854;stroke-miterlimit: 10;stroke-width: 0.25px"/>
  </g>
  <path d="M20.58,2.62H12.12c-2.77,0-2.55,3.93-5.83,3.93H2.43A1.4,1.4,0,0,0,1,8L.49,12.56V22.74l.55,6a1.4,1.4,0,0,0,1.39,1.4H15.1c0-.11,0-.23,0-.34a25.4,25.4,0,0,1-1.17-3A2.15,2.15,0,0,1,13,27a2.12,2.12,0,0,1-.49-.06h0a2.14,2.14,0,0,1-1.65-2.23,2.51,2.51,0,0,1,1.23-2l1-2.12a16.93,16.93,0,0,1,1-2,2.24,2.24,0,0,1,.3-.32,5.31,5.31,0,0,1,0-2.86A28.69,28.69,0,0,0,9,13.7a2,2,0,0,1-1.56-2.34l0-.24a2,2,0,0,1,2-1.63l.36,0A34.73,34.73,0,0,1,15,10.86l.12-.22,0,0a2.16,2.16,0,0,1,1.85-1h.07a2.18,2.18,0,0,1,1.85,1.17,2.49,2.49,0,0,1,.2.58,2.22,2.22,0,0,1,.27,1.77l0,.11a6.2,6.2,0,0,1,.85.88,6.19,6.19,0,0,1,.85-.87l0-.15a.2.2,0,0,0,0-.07,2.28,2.28,0,0,1,.3-1.67,2.17,2.17,0,0,1,1-1.43L22,4A1.4,1.4,0,0,0,20.58,2.62ZM18.65,6.33H13.91a1,1,0,0,1,0-2.1h4.74a1,1,0,1,1,0,2.1Z" style="fill: #ccc"/>
</svg>
