<svg id="a304b409-a71e-4096-9486-6787424be910" data-name="Calque 1" xmlns="http://www.w3.org/2000/svg" width="32" height="32" viewBox="0 0 32 32">
  <title>see-61-IconeVisualisationTextes</title>
  <g>
    <path d="M5.84,8.11l-.66,2.38H3L5.84,1.22H8.58l2.88,9.27H9.2L8.49,8.11ZM8.19,6.55l-.58-2C7.44,4,7.28,3.34,7.14,2.79h0C7,3.34,6.84,4,6.69,4.58l-.55,2Z" style="fill: gray"/>
    <path d="M13.1,1.35a16.81,16.81,0,0,1,2.71-.19,5.11,5.11,0,0,1,2.74.52,2,2,0,0,1,1.11,1.81,2.09,2.09,0,0,1-1.52,2v0A2.32,2.32,0,0,1,20,7.78a2.5,2.5,0,0,1-1,2,5.84,5.84,0,0,1-3.65.84,16,16,0,0,1-2.27-.14ZM15.18,4.9h.69c1.1,0,1.69-.46,1.69-1.15S17,2.68,16.07,2.68a5.25,5.25,0,0,0-.89.06Zm0,4.11c.21,0,.45,0,.81,0,1,0,1.79-.35,1.79-1.33s-.84-1.31-1.88-1.31h-.72Z" style="fill: gray"/>
    <path d="M28.62,10.23a6,6,0,0,1-2.37.4c-3.21,0-4.86-2-4.86-4.63a4.73,4.73,0,0,1,5.06-4.93,5.29,5.29,0,0,1,2.28.42l-.42,1.66a4.53,4.53,0,0,0-1.76-.34,2.78,2.78,0,0,0-3,3.06,2.77,2.77,0,0,0,3,3,5.17,5.17,0,0,0,1.75-.31Z" style="fill: gray"/>
  </g>
  <path d="M27.71,28.52l-5.38-5.37a7.25,7.25,0,0,0,.86-3.44,7.36,7.36,0,1,0-3.91,6.49l5.37,5.38a2.16,2.16,0,0,0,3.06-3.06Zm-18-8.81a6.11,6.11,0,1,1,6.1,6.11A6.11,6.11,0,0,1,9.74,19.71Z" style="fill: #007bbd"/>
  <path d="M16,16.1a3.73,3.73,0,0,1,3.73,3.73" style="fill: none;stroke: #007bbd;stroke-miterlimit: 10"/>
</svg>
