<svg id="f01b9103-473f-48e2-adf2-673ab443eef3" data-name="Calque 1" xmlns="http://www.w3.org/2000/svg" width="32" height="32" viewBox="0 0 32 32">
  <title>office-45-IconeSynchronisationPCPortable</title>
  <g>
    <path d="M24,12.71V7H4V20H16.64A8.72,8.72,0,0,1,24,12.71Z" style="fill: #6f7095"/>
    <path d="M16.53,21.33c0-.11,0-.22,0-.33H4L0,24H17A8.73,8.73,0,0,1,16.53,21.33Z" style="fill: #6f7072"/>
    <path d="M0,24v1H17.35a8.68,8.68,0,0,1-.4-1Z" style="fill: #565456"/>
  </g>
  <path d="M25.25,28.11A6.72,6.72,0,1,1,32,21.39a6.73,6.73,0,0,1-6.72,6.72" style="fill: #5bab26"/>
  <path d="M29.19,22.49a3.85,3.85,0,0,1-1,1.52c-1.74,1.7-4.45,1.79-5.79,0a3,3,0,0,1-.65-1.17" style="fill: none;stroke: #fff;stroke-linecap: round;stroke-linejoin: round"/>
  <path d="M21.59,19.88a2.46,2.46,0,0,1,.33-1,4.55,4.55,0,0,1,.52-.64,4.09,4.09,0,0,1,5.79,0A4,4,0,0,1,29,19.27" style="fill: none;stroke: #fff;stroke-linecap: round;stroke-linejoin: round"/>
  <path d="M20.15,19.23v1.69a.66.66,0,0,0,1,.57l1.46-.84a.67.67,0,0,0,0-1.15l-1.46-.84A.66.66,0,0,0,20.15,19.23Z" style="fill: #fff"/>
  <path d="M30.34,23.11V21.42a.66.66,0,0,0-1-.58l-1.46.85a.66.66,0,0,0,0,1.15l1.46.84A.66.66,0,0,0,30.34,23.11Z" style="fill: #fff"/>
</svg>
