<svg id="fdc55fb6-426d-46ad-99fc-321309fb641d" data-name="Calque 1" xmlns="http://www.w3.org/2000/svg" width="32" height="32" viewBox="0 0 32 32">
  <title>building-51-IconeMaisonColombage</title>
  <g>
    <path d="M16,8.86a1,1,0,0,0-.75.32l-1,1.05V14.5h3.6V10.23L16.72,9.16A.94.94,0,0,0,16,8.86Z" style="fill: #caa989"/>
    <rect x="9.6" y="20" width="3.6" height="9" style="fill: #caa989"/>
    <polygon points="8.6 19 8.6 15.92 5.57 19 8.6 19" style="fill: #caa989"/>
    <rect x="5" y="20" width="3.6" height="9" style="fill: #caa989"/>
    <polygon points="18.8 19 22.4 19 22.4 14.8 18.8 11.22 18.8 19" style="fill: #caa989"/>
    <polygon points="9.6 19 13.2 19 13.2 11.24 9.6 14.9 9.6 19" style="fill: #caa989"/>
    <polygon points="23.4 19 26.63 19 23.4 15.79 23.4 19" style="fill: #caa989"/>
    <rect x="23.4" y="20" width="3.6" height="9" style="fill: #caa989"/>
    <rect x="14.2" y="15.42" width="3.6" height="3.58" style="fill: #caa989"/>
    <rect x="18.8" y="20" width="3.6" height="9" style="fill: #caa989"/>
    <path d="M4,20.22V29h.08V20.17Z" style="fill: #785947"/>
    <path d="M27.17,19.53l0,0L26.63,19H23.4V15.79l-1-1V19H18.8V11.22l-1-1V14.5H14.2V10.23l-1,1V19H9.6V14.9l-1,1V19h-3l-.42.42a3.4,3.4,0,0,1-1.07.75V29H5V20H8.6v9h1V20h3.6v9h1V20h3.6v9h1V20h3.6v9h1V20H27v9h1V20.11A3.36,3.36,0,0,1,27.17,19.53Zm-13-4.11h3.6V19H14.2Z" style="fill: #a67b4f"/>
    <path d="M4.08,19,4,19.08v1.14l.08,0Z" style="fill: #fff"/>
    <path d="M27.17,18v.12l.67.67.16.13V18Z" style="fill: #945b3f"/>
    <polygon points="27.04 18 27.17 18.12 27.17 18 27.04 18" style="fill: #945b3f"/>
    <path d="M32,16.43,29.6,6.06a2.47,2.47,0,0,0-2.18-1.94L5,4.08H4.75a2.5,2.5,0,0,0-2.45,2L.17,16.5a2.5,2.5,0,0,0,1.29,2.71,2.43,2.43,0,0,0,1.16.29A2.52,2.52,0,0,0,4,19.08L4.08,19a2.34,2.34,0,0,0,.35-.29L5,18.15l3.6-3.66,1-1,3.6-3.66,1-1,.12-.12A2.33,2.33,0,0,1,16,8a2.36,2.36,0,0,1,1.66.65l.19.2,1,1,3.6,3.58,1,1L27,18h1v.92a2.5,2.5,0,0,0,4-2.49Z" style="fill: #945b3f"/>
  </g>
</svg>
