<svg id="e9cb665e-e48e-448f-a0d7-648f78fe3def" data-name="Calque 1" xmlns="http://www.w3.org/2000/svg" width="32" height="32" viewBox="0 0 32 32">
  <title>building-92-IconeZoneInondable</title>
  <rect x="0.02" width="31.97" height="31.98" style="fill: #fff"/>
  <path d="M22.19,23.06a3.46,3.46,0,0,0,3.13,2.63v-10L16.67,9.52,7.3,15.73v9.43a21.6,21.6,0,0,0,4.17-2.1S12.63,29.05,22.19,23.06Z" style="fill: #5b83b6"/>
  <path d="M0,32V26.39l.75-.45s1.15,6,10.71,0c0,0,1.16,6,10.72,0,0,0,1.08,5.6,9.8.54V32Z" style="fill: #5b83b6"/>
  <polygon points="7.81 12.8 7.81 6.24 10.81 6.24 10.81 10.8 7.81 12.8" style="fill: #5b83b6"/>
  <polyline points="27.59 14.56 16.63 6.82 5.19 14.67" style="fill: none;stroke: #5b83b6;stroke-linecap: round;stroke-linejoin: round;stroke-width: 2.5px"/>
</svg>
