<svg id="abb4daff-29b3-4cdc-b535-eabd2df1eb63" data-name="Calque 1" xmlns="http://www.w3.org/2000/svg" width="32" height="32" viewBox="0 0 32 32">
  <title>products-58-2154EBE4</title>
  <path d="M21.84,12.91a7.81,7.81,0,0,1,3.45.8c-3-4.77-8.67-11.26-11.68-11.26C9.4,2.45,0,15.06,0,18s6.09,5.38,13.61,5.38h.76a7.9,7.9,0,0,1,7.47-10.5Z" style="fill: #927768"/>
  <g>
    <path d="M30.39,26.91l-3.33-3.33a5.82,5.82,0,0,0,.69-2.76,5.91,5.91,0,1,0-5.91,5.91A5.82,5.82,0,0,0,24.6,26l3.33,3.33a1.74,1.74,0,0,0,2.46-2.46Z" style="fill: #007bbd"/>
    <circle cx="21.84" cy="20.82" r="4.43" transform="translate(-8.32 21.54) rotate(-45)" style="fill: #fff"/>
  </g>
</svg>
