<svg id="a0eed3d2-f591-46b7-a5d4-f8ab93c8bcb2" data-name="Calque 1" xmlns="http://www.w3.org/2000/svg" width="32" height="32" viewBox="0 0 32 32">
  <title>people-81-IconeMainDOeuvre</title>
  <path d="M12.84,15.49h0l4.93,5.34a7.11,7.11,0,0,0,1.07-1.36,3.36,3.36,0,0,0,.5-1.75l0-2.4v-.14C17.58,17,15.23,17.83,12.84,15.49Z" style="fill: #cfad88"/>
  <path d="M19.8,6.2a7.44,7.44,0,0,0-2.74-.37h-.51A5.36,5.36,0,0,1,15,5.55l.36.16A4.92,4.92,0,0,1,13.31,3.9C12.13,4,9.89,7.4,10,10.17v0a.2.2,0,0,1,0,.05,11.35,11.35,0,0,0,2.5,4.89V17.2a3,3,0,0,0,.35,1.46c1.05,1.92,2.88,4.16,4.93,2.17l-4.93-5.34h0c2.39,2.34,4.74,1.53,6.48-.31a11.25,11.25,0,0,0,2.45-4.27c0-.12,0-.23,0-.35C22.46,6.22,19.82,6.21,19.8,6.2Z" style="fill: #dcc4ab"/>
  <g>
    <path d="M28.26,22.55l.14.3h0Z" style="fill: #58585a"/>
    <path d="M28.26,22.55Z" style="fill: #58585a"/>
    <path d="M28.4,22.85Z" style="fill: #58585a"/>
    <path d="M28.4,22.85h0c-.95-2.08-5.36-3-7.46-3.58a10.69,10.69,0,0,1-2.18,3.5l.59.45c.7.54,2.42.55,3.39,1.44s1.44,2.92,2.22,4C26.3,27.68,29.31,24.88,28.4,22.85Z" style="fill: #846b5c"/>
    <polygon points="28.39 22.85 28.39 22.85 28.4 22.85 28.39 22.85" style="fill: #58585a"/>
  </g>
  <path d="M10.9,5l-.07.15h.05A.59.59,0,0,0,10.9,5Z" style="fill: #6e5d44"/>
  <path d="M22.58,8.08c0,5.78-2.95,1.17-6.58,1.17S9.42,13.91,9.42,8.08c0-3.21,2.95-5.82,6.58-5.82S22.58,4.87,22.58,8.08Z" style="fill: #9f897b"/>
  <path d="M22.58,6.92c0,2.33-2.95-1.17-6.58-1.17S9.42,9.3,9.42,6.92c0-5.78,2.95-7,6.58-7S22.58,1.14,22.58,6.92Z" style="fill: #826753"/>
  <g>
    <path d="M25,28.69a5.41,5.41,0,0,1-.53-1v1.37A6.42,6.42,0,0,0,25,28.69Z" style="fill: #9f897b"/>
    <path d="M3.38,23.23c-.53,2.13,2.33,4.71,3.82,5.84.26.19.52.37.79.54V20.08C5.91,20.68,3.78,21.61,3.38,23.23Z" style="fill: #9f897b"/>
    <path d="M22.47,26.25V24.46c-1-.68-2.48-.75-3.12-1.24h0l-.58-.44c-3.17,3.17-6.22-.6-7.44-3.51l-1.38.32v6.67Z" style="fill: #9f897b"/>
    <path d="M22.74,24.66c-.08-.07-.18-.13-.27-.2v1.79H9.94V19.58c-.61.14-1.27.3-1.95.5v9.53c.31.21.64.41,1,.59s.65.34,1,.49A13.49,13.49,0,0,0,15.63,32a15.27,15.27,0,0,0,6.84-1.75l.65-.35a15.15,15.15,0,0,0,1.31-.83V27.7A9.18,9.18,0,0,0,22.74,24.66Z" style="fill: #5867a8"/>
  </g>
  <g>
    <path d="M20.94,19.27a10.69,10.69,0,0,1-2.18,3.5l.59.45c.64.49,2.13.56,3.12,1.24V19.68Z" style="fill: none"/>
    <path d="M28.4,22.85h0c-.55-1.19-2.24-2-4-2.59V27.7a5.41,5.41,0,0,0,.53,1C26.3,27.68,29.31,24.88,28.4,22.85Z" style="fill: none"/>
    <path d="M22.47,19.68v4.78c.09.07.19.13.27.2a9.18,9.18,0,0,1,1.69,3V20.26C23.76,20,23.09,19.84,22.47,19.68Z" style="fill: #324494"/>
  </g>
</svg>
