<svg id="bceb2957-e071-4d16-8868-58d8c525a140" data-name="Calque 1" xmlns="http://www.w3.org/2000/svg" width="32" height="32" viewBox="0 0 32 32">
  <title>people-65-IconeDroitsUtilisateurs</title>
  <g>
    <path d="M15.31,21.07h0Z" style="fill: #3f3f3f"/>
    <path d="M15.54,21.25l.28.22Z" style="fill: #3f3f3f"/>
    <path d="M15.29,21.06Z" style="fill: #3f3f3f"/>
    <path d="M15.3,21.06h0l.23.18.28.22h0l-.28-.22-.23-.18h0l-.58-.45c-3.23,3.23-6.33-.61-7.58-3.56-2.21.55-6.41,1.38-7.06,4C-.47,23.25,1.43,25.87,3,27a14.57,14.57,0,0,0,8.58,3A14.67,14.67,0,0,0,16,29.25V21.62Z" style="fill: #3f3f3f"/>
    <path d="M16,21.4v-.07a2,2,0,0,1,2-2h.5V17.88c0-.13,0-.25,0-.37-.58-.18-1.13-.33-1.61-.46a11,11,0,0,1-2.21,3.56l.59.45A2.35,2.35,0,0,0,16,21.4Z" style="fill: #1c1c1c"/>
    <path d="M15.3,21.06l.71.56V21.4A2.35,2.35,0,0,1,15.3,21.06Z" style="fill: #1c1c1c"/>
  </g>
  <path d="M8.85,14.48h0l4.93,5.34a6.81,6.81,0,0,0,1.07-1.36,3.38,3.38,0,0,0,.49-1.74V14.18C13.59,16,11.24,16.82,8.85,14.48Z" style="fill: #cfad88"/>
  <path d="M15.81,5.19a7.25,7.25,0,0,0-2.75-.36h-.51A6,6,0,0,1,11,4.55l.37.15A4.92,4.92,0,0,1,9.32,2.89C8.14,3,5.9,6.39,6,9.16v0a.21.21,0,0,0,0,.06,11.32,11.32,0,0,0,2.5,4.88v2.07a2.9,2.9,0,0,0,.35,1.46c1.05,1.92,2.88,4.16,4.93,2.17L8.85,14.48h0c2.39,2.34,4.74,1.54,6.48-.3a11.33,11.33,0,0,0,2.45-4.27c0-.13,0-.23,0-.35C18.47,5.22,15.83,5.2,15.81,5.19Z" style="fill: #dcc4ab"/>
  <path d="M6,9.22l0,0v0C5.9,6.39,8.14,3,9.32,2.89A4.92,4.92,0,0,0,11.41,4.7a3.2,3.2,0,0,0,1.14.13h.51a7.25,7.25,0,0,1,2.75.36c.65.28,2.2,1.18,2,4.37,0,.12,0,.22,0,.35h0a9.66,9.66,0,0,0,.54-2.71A6.45,6.45,0,0,0,12,0c-1.42,0-1.38.42-2.06.7a2.65,2.65,0,0,1-.76,0C6.73.35,5.45,4,5.68,7.27A14.62,14.62,0,0,0,6,9.22Z" style="fill: #7c6e5c"/>
  <path d="M21.39,22.12V17.66a3.56,3.56,0,0,1,7.11,0v1.5" style="fill: none;stroke: #9b9c9e;stroke-linecap: round;stroke-linejoin: round;stroke-width: 2.00342759463113px"/>
  <rect x="17.89" y="21.12" width="14" height="8" rx="1.54" style="fill: #a98552"/>
  <line x1="24.89" y1="25.81" x2="24.89" y2="24.31" style="fill: none;stroke: #80653f;stroke-linecap: round;stroke-linejoin: round"/>
</svg>
