<svg id="a2c8c29b-fbe5-4276-a80a-fcd666f44a7c" data-name="Calque 1" xmlns="http://www.w3.org/2000/svg" width="32" height="32" viewBox="0 0 32 32">
  <title>doc-25-IconeBilanFourrager</title>
  <g>
    <path d="M6.15,31.5a2,2,0,0,1-2-2V2.5a2,2,0,0,1,2-2H19.6A2,2,0,0,1,21,1.08l5.54,5.54A2,2,0,0,1,27.15,8V29.5a2,2,0,0,1-2,2Z" style="fill: #fff"/>
    <path d="M19.6,1a1.54,1.54,0,0,1,1.07.44L26.21,7A1.54,1.54,0,0,1,26.65,8V29.5a1.5,1.5,0,0,1-1.5,1.5h-19a1.5,1.5,0,0,1-1.5-1.5V2.5A1.5,1.5,0,0,1,6.15,1H19.6m0-1H6.15a2.5,2.5,0,0,0-2.5,2.5v27A2.5,2.5,0,0,0,6.15,32h19a2.5,2.5,0,0,0,2.5-2.5V8a2.5,2.5,0,0,0-.74-1.77L21.37.73A2.49,2.49,0,0,0,19.6,0Z" style="fill: #868789"/>
  </g>
  <path d="M26.35,7.14h-6.2v-6A1.68,1.68,0,0,0,19.6,1h-.45V7.64a.5.5,0,0,0,.5.5h7V8A1.52,1.52,0,0,0,26.35,7.14Z" style="fill: #d7d8d9"/>
  <path d="M23.38,26.55l-.33.08L21.54,27l-.31.55-1.53-.36,0,.56-2.24-.46-.44.3c-.15.1-1.37-.44-1.37-.44S14.56,27,14.56,27a11.54,11.54,0,0,0-1.17-.1l-.79-.35,1.31-1.43.2-.89,1.15-.71.26-1L17,20.93l1.81-.45,1-.15.93.15.54.61.41.15.35.46.45.33.57.58.42,1.13s.87,1.15,1,1.38.32.95.32.95l.45.48V27l-1.55-.33A2.52,2.52,0,0,0,23.38,26.55Z" style="fill: #fac56d"/>
  <g>
    <path d="M21.35,21.66a9.57,9.57,0,0,1-1.07-.86c-.31-.31-.61-.61-.89-.93l-.76-.95c-.23-.33-.46-.66-.66-1l.24.52a1.39,1.39,0,0,0,1.58.79l.24-.08.09,0-.05,0-.25.18a5.62,5.62,0,0,1-.5.35c-.68.47-1.38.9-2.09,1.3s-1.44.78-2.19,1.13l-.56.25-.28.13-.07,0,.13-.1.17-.19a1.32,1.32,0,0,0,0-1.69l-.26-.33a19.32,19.32,0,0,1,1.08,2.24c.13.41.29.81.41,1.24a9.06,9.06,0,0,1,.29,1.36l-.22.2c-1.13-1.11-2.23-2.24-3.32-3.39h0v0a1.19,1.19,0,0,1,.14-1.45,2.38,2.38,0,0,1,.56-.39l.52-.32,2.12-1.25,2.13-1.22.54-.3a3.29,3.29,0,0,1,.6-.31,1.2,1.2,0,0,1,1.36.51l0,0v0c.45,1.46.88,2.92,1.28,4.4Z" style="fill: #fff"/>
    <polygon points="15.78 15.96 18.65 23.39 13.24 17.55 15.78 15.96" style="fill: #fff"/>
    <line x1="14.52" y1="16.78" x2="9.22" y2="8.29" style="fill: none;stroke: #fff;stroke-linecap: round;stroke-linejoin: round;stroke-width: 1.8632233272396px"/>
  </g>
  <g>
    <path d="M21.45,21.64c-.52-.5-1-1.06-1.44-1.58l-1.3-1.67c-.29-.38-.27-.28-.37-.31a.12.12,0,0,0-.09,0l-.07.05-.22.15L16.2,19.46l-1.81,1.08-.23.13-.07,0a.18.18,0,0,0-.08.07c0,.11-.09,0,.13.47l.92,1.9c.26.66.57,1.29.79,2l-.08.05-2.25-3.55a1.26,1.26,0,0,1-.3-1,1.21,1.21,0,0,1,.71-.8l1.78-1.13,1.79-1.1a1.27,1.27,0,0,1,1-.29,1.3,1.3,0,0,1,.79.73l2.21,3.58Z" style="fill: gray"/>
    <polygon points="14.91 16.51 18.65 23.39 14.12 17 14.91 16.51" style="fill: gray"/>
    <line x1="14.52" y1="16.78" x2="9.22" y2="8.29" style="fill: none;stroke: #b6976c;stroke-linecap: round;stroke-linejoin: round;stroke-width: 1.8632233272396px"/>
  </g>
</svg>
