<svg id="bf650693-9f68-41d3-8c2e-d310343d6160" data-name="Calque 1" xmlns="http://www.w3.org/2000/svg" width="16" height="16" viewBox="0 0 16 16">
  <g>
    <path d="M6.42,11.17H3A2.12,2.12,0,0,1,.87,9.05V3A2.12,2.12,0,0,1,3,.85H13.08A2.12,2.12,0,0,1,15.2,3V9.05a2.12,2.12,0,0,1-2.12,2.12l-3.47.06L8,14.29Z" style="fill: #ffdb14"/>
    <path d="M13.08,1.6A1.38,1.38,0,0,1,14.45,3V9.05a1.37,1.37,0,0,1-1.4,1.37l-3,.05-.9,0-.41.79L8,12.66,7.3,11.23l-.42-.81H3A1.37,1.37,0,0,1,1.62,9.05V3A1.37,1.37,0,0,1,2,2a1.35,1.35,0,0,1,1-.4H13.08m0-1.5H3A2.87,2.87,0,0,0,.12,3V9.05A2.87,2.87,0,0,0,3,11.92H6l2.07,4,2-4,3-.05A2.87,2.87,0,0,0,16,9.05V3A2.88,2.88,0,0,0,13.08.1Z" style="fill: #b95c18"/>
  </g>
  <rect x="4.49" y="3.88" width="7.06" height="1.13" style="fill: #8a4b19;stroke: #8a4b19;stroke-miterlimit: 10;stroke-width: 0.5px"/>
  <rect x="4.49" y="6.88" width="7.06" height="1.13" style="fill: #8a4b19;stroke: #8a4b19;stroke-miterlimit: 10;stroke-width: 0.5px"/>
</svg>
