<svg id="f9b0a2e4-b133-4296-ab98-84ae05a8bd77" data-name="Calque 1" xmlns="http://www.w3.org/2000/svg" width="32" height="32" viewBox="0 0 32 32">
  <title>equipment-93-350507CB</title>
  <g>
    <path d="M21.26,21.21a8.29,8.29,0,0,1-5.88,2.43h-.1l.13.22a7.14,7.14,0,0,0,8.5-8.48c-.08-.05-.15-.11-.23-.15A8.26,8.26,0,0,1,21.26,21.21Z" style="fill: #a6a6a6"/>
    <g>
      <path d="M25.19,16.37a8.29,8.29,0,0,1-8.28,8.81l-.49,0,.16.14a7.13,7.13,0,0,0,8.77-8.75l-.21-.24C25,16.12,25.17,16.35,25.19,16.37Z" style="fill: #a6a6a6"/>
      <path d="M26.73,19.06a8.28,8.28,0,0,1-7.62,7.62,6.19,6.19,0,0,0,7.62-7.62Z" style="fill: #a6a6a6"/>
    </g>
    <path d="M19.73,19.68a8.29,8.29,0,0,1-5,2.38c0,.14.06.27.1.4a7.12,7.12,0,0,0,7.72-7.7l-.4-.12A8.34,8.34,0,0,1,19.73,19.68Z" style="fill: #a6a6a6"/>
    <path d="M14.18,14.14a9.3,9.3,0,0,1,9.56-2.21L17.32,5.5A8.32,8.32,0,0,0,5.55,17.27L12,23.69A9.25,9.25,0,0,1,14.18,14.14Z" style="fill: #a6a6a6"/>
    <path d="M20.74,29a8.32,8.32,0,0,0,4.58-1.37A8.32,8.32,0,0,1,20.74,29Z" style="fill: #fff"/>
    <polygon points="19.22 14.69 19.22 14.69 19.22 14.69 19.22 14.69" style="fill: #fff"/>
    <path d="M20.74,29h0a8.32,8.32,0,0,1-4.57-1.37A8.32,8.32,0,0,0,20.74,29Z" style="fill: #a6a6a6"/>
    <path d="M14.86,14.81a8.34,8.34,0,0,0,0,11.77,8.22,8.22,0,0,0,1.31,1.06,8.32,8.32,0,0,0,9.15,0,8.69,8.69,0,0,0,1.31-1.06A8.32,8.32,0,0,0,14.86,14.81Zm11,11a7.17,7.17,0,1,1,0-10.13A7.16,7.16,0,0,1,25.81,25.76Z" style="fill: #a6a6a6"/>
  </g>
</svg>
