<svg id="eaa10158-ace7-45b4-9b45-eb00477a64bf" data-name="Calque 1" xmlns="http://www.w3.org/2000/svg" width="32" height="32" viewBox="0 0 32 32">
  <title>sign-62-IconeCorrosif</title>
  <g>
    <rect width="32" height="32" style="fill: #f90"/>
    <path d="M31,1V31H1V1H31m1-1H0V32H32V0Z"/>
  </g>
  <g>
    <path d="M6.23,8.29l-.42,4.89a1.43,1.43,0,0,1,1.37-.92c1,.09,10.07.84,10.79,1,1.35.2,1.38-2.36.59-2.45-1.78-.2-10.67-.64-11.19-1.19S6.23,8.32,6.23,8.29Z" style="fill: none;stroke: #000;stroke-linejoin: round;stroke-width: 0.366854256118202px"/>
    <path d="M19,11.31l-12.87,0L6,11.4l-.15,1.78a1.43,1.43,0,0,1,1.37-.92c1,.09,10.07.84,10.79,1,1,.14,1.25-1.1,1.06-1.87l-.06,0"/>
    <path d="M24.82,2.87l.43,4.9a1.45,1.45,0,0,0-1.38-.92c-1,.09-10.06.84-10.79,1C11.73,8,11.7,5.44,12.5,5.35c1.78-.2,10.67-.64,11.19-1.19S24.82,2.9,24.82,2.87Z" style="fill: none;stroke: #000;stroke-linejoin: round;stroke-width: 0.366854256118202px"/>
    <path d="M12.09,5.9,25,5.93l.13.06.16,1.78a1.45,1.45,0,0,0-1.38-.92c-1,.09-10.06.84-10.79,1-.95.14-1.25-1.1-1.06-1.87l.07,0"/>
    <path d="M25.3,9.45c-.32.05-.35-.95,0-1s.59.86,0,1m.05-2-.6-.24a1,1,0,0,1,.11.95c-.24.42-1.11,1.93.21,2.23.75.21,1.15-.93,1-1.54A4.65,4.65,0,0,0,25.35,7.49Z"/>
    <path d="M4.65,21.56H.9v3.62H13V21.56H6.84a1.12,1.12,0,0,1-2.19,0"/>
    <path d="M3,16.25c0,.16,1,2.33,1.17,2a.92.92,0,0,0,0-1c-.25-.42-1.15-1.15-1.12-1"/>
    <path d="M3.25,18.6c-.14.18.72.79.8,1.18s.26,1.1.64,1.32c.17.09-.34-.89-.34-1.21s-.93-1.63-1.1-1.29"/>
    <path d="M5.92,18.09a2.47,2.47,0,0,0-.74,1.69c0,.65.14.92.61.92s.84-.38.83-1.11a2.68,2.68,0,0,0-.7-1.5"/>
    <path d="M6.55,21.41a9.07,9.07,0,0,0,.66-1.79c0-.38.08-2.31.5-2.73-.06.59,0,4.1-1.16,4.52"/>
    <path d="M9.09,17.5c-.34,0-1.09,1-1.14,1.41a5.66,5.66,0,0,1-.51,1.75,2.55,2.55,0,0,0,.86-1.43.61.61,0,0,1,.25-.65c.27-.22.68-1.1.54-1.08"/>
    <path d="M5.88,16.87c-.23-.06,0-.91.08-1.18s.31.4.38.68a.43.43,0,0,1-.46.5M6.94,16c-.16-.69-.58-1.55-.7-1.48a2.54,2.54,0,0,0-.9,2c0,.83.33,1.13.75,1.13S7.1,16.7,6.94,16Z"/>
    <path d="M31.21,20.64h-.43s-.72.06-.72.36-.15,5.42-.15,5.71,1.5.29,1.9.29" style="fill: none;stroke: #000;stroke-linejoin: round;stroke-width: 0.366854256118202px"/>
    <path d="M19.36,20.57H17c-.53,0-.6.74-.6,1.26a1,1,0,0,0-.84.87.79.79,0,0,0,.73.78c0,.23,0,.44,0,.44s-.13.05-.13.26.09.61.46.61,1.71.05,1.71.05,0,.52,0,.72a.41.41,0,0,0,.38.39h7.93a14.88,14.88,0,0,1,2-.58c.53,0,1.24.07,1.24.24.1-1.44.23-4.95.23-4.95s-1.5.21-1.91-.08-1.55-1.42-1.85-1.25-.64,1.1-1.69,1.1-1.11-1.07-1.49-1.07H20.54a1.31,1.31,0,0,0-1.18,1.2"/>
    <path d="M23.28,18.9a8.57,8.57,0,0,0-1.44-1.2c-.24-.11,0-.08.17,0a4.68,4.68,0,0,1,1.42,1c0,.19-.07.29-.15.21"/>
    <path d="M22.51,15.93a8.06,8.06,0,0,0,.65,2c.11,0,.37-.21.24-.59s-.88-1.6-.89-1.39"/>
    <path d="M22.8,14.36c0-.14,0-.37.2-.15s.89.93.89,1.2.23,2,0,1.81-.28-1.47-.28-1.78-.72-1-.77-1.08"/>
    <path d="M26.29,18.05a5,5,0,0,1,.34-1.5,1.19,1.19,0,0,0,0-.61,6.09,6.09,0,0,1,1.08-1.46c.05.08-.84,1.77-.93,2a1.32,1.32,0,0,0-.06.64c0,.17-.43,1.06-.47.95"/>
    <path d="M26.7,18.69a16.1,16.1,0,0,1,1.11-2.12c.07,0,.3,1.21-1.11,2.12"/>
    <path d="M24.9,18.63c-.16-.18.05-.62.17-.77s.16.12.16.36-.17.58-.33.41m.73-1.19c-.3-1-.38-1.36-.47-1.13a4.35,4.35,0,0,1-.59,1.05,1.51,1.51,0,0,0-.43,1.27c.15.5.48,1,.8.81A1.85,1.85,0,0,0,25.63,17.44Z"/>
    <path d="M25,14.91c-.51,0,0-1,.1-1.13s.07,0,.11.11.3,1-.21,1m.91-.37a8.09,8.09,0,0,0-.76-2.28,11.47,11.47,0,0,0-1,2.5c0,.47.22.94.78.94S25.93,15,25.93,14.54Z"/>
  </g>
</svg>
