<svg id="e281f9ad-4baf-4cd2-ba86-90fa459f1f20" data-name="Calque 1" xmlns="http://www.w3.org/2000/svg" width="32" height="32" viewBox="0 0 32 32">
  <title>field-74-IconeAssociationTrace</title>
  <polyline points="27.36 13.91 31.19 8.21 13.89 1.38 2.42 18.17 16.17 30.57 17.79 28.16 18.91 26.34" style="fill: none;stroke: #77787a;stroke-miterlimit: 10;stroke-dasharray: 2,1"/>
  <g>
    <line x1="13" y1="5" x2="18.81" y2="5" style="fill: none;stroke: #77787a;stroke-miterlimit: 10"/>
    <line x1="28.53" y1="9.2" x2="10.55" y2="9.2" style="fill: none;stroke: #77787a;stroke-miterlimit: 10"/>
    <line x1="22.5" y1="13.4" x2="7.68" y2="13.4" style="fill: none;stroke: #77787a;stroke-miterlimit: 10"/>
    <line x1="17.39" y1="17.6" x2="4.81" y2="17.6" style="fill: none;stroke: #77787a;stroke-miterlimit: 10"/>
    <line x1="16.61" y1="21.8" x2="8.45" y2="21.8" style="fill: none;stroke: #77787a;stroke-miterlimit: 10"/>
    <line x1="16.81" y1="26" x2="13.1" y2="26" style="fill: none;stroke: #77787a;stroke-miterlimit: 10"/>
  </g>
  <rect x="24.72" y="16.97" width="1.27" height="9.02" style="fill: #fff"/>
  <rect x="20.87" y="20.84" width="8.95" height="1.28" style="fill: #fff"/>
  <path d="M25.25,28.05A6.72,6.72,0,1,1,32,21.33a6.72,6.72,0,0,1-6.73,6.72" style="fill: #5bab26"/>
  <rect x="24.72" y="16.97" width="1.27" height="9.02" style="fill: #fff"/>
  <rect x="20.87" y="20.84" width="8.95" height="1.28" style="fill: #fff"/>
</svg>
