<svg id="a642e282-4ec8-4e76-98bf-4d16d3bdba06" data-name="Calque 1" xmlns="http://www.w3.org/2000/svg" width="32" height="32" viewBox="0 0 32 32">
  <path d="M1.94,5.42A4,4,0,0,1,5.35,2.11c3-.34,4.14,2.47,4.61,2.65a2.84,2.84,0,0,0,.85.19l0,.09a6.09,6.09,0,0,0-.7.06,35,35,0,0,1-3.83,1c-1.15.13-3.4.18-4.38-.71" style="fill: #006432"/>
  <path d="M14.94,6.54s4.65.65,4.65,6.64a8.66,8.66,0,0,1-5.88,8.59c-.61.09-1.85.14-3.05.17h-.07c-1.21,0-2.44-.08-3-.17a8.66,8.66,0,0,1-5.88-8.59c0-6,4.65-6.64,4.65-6.64s2.58.16,4.31.22,4.32-.22,4.32-.22" style="fill: #6da200"/>
  <path d="M10.15,7.1a10,10,0,0,0,.35-2.29c.33,0,.93.15.91.24a4.9,4.9,0,0,0-.79,2c-.24.29-.28.24-.47.06" style="fill: #006432"/>
  <path d="M25.5,19.49a2.66,2.66,0,0,1-.19,1,2.37,2.37,0,0,1-.49.76,2.16,2.16,0,0,1-.72.48,2.13,2.13,0,0,1-.86.17,2.25,2.25,0,0,1-.9-.17,2,2,0,0,1-.71-.48,2.15,2.15,0,0,1-.46-.76,2.66,2.66,0,0,1-.17-1,2.82,2.82,0,0,1,.17-1,2.24,2.24,0,0,1,.46-.78,2.2,2.2,0,0,1,.71-.49,2.47,2.47,0,0,1,1.8,0,2.08,2.08,0,0,1,1.19,1.27A3,3,0,0,1,25.5,19.49Zm3.24-2.1a.91.91,0,0,1,.2-.19.62.62,0,0,1,.33-.08h1.22l-7.24,9.53a.58.58,0,0,1-.5.25H21.51Zm-4.52,2.1a2.48,2.48,0,0,0-.08-.66,1.1,1.1,0,0,0-.21-.42.79.79,0,0,0-.31-.24,1.17,1.17,0,0,0-.38-.07,1.22,1.22,0,0,0-.38.07.84.84,0,0,0-.3.24,1.09,1.09,0,0,0-.19.42,2.48,2.48,0,0,0-.08.66,2.25,2.25,0,0,0,.08.63,1,1,0,0,0,.19.41.78.78,0,0,0,.3.22,1,1,0,0,0,.38.07,1,1,0,0,0,.38-.07.74.74,0,0,0,.31-.22,1.06,1.06,0,0,0,.21-.41A2.25,2.25,0,0,0,24.22,19.49ZM31,24.6a2.48,2.48,0,0,1-.19,1,2.23,2.23,0,0,1-1.21,1.25,2.31,2.31,0,0,1-.86.17,2.35,2.35,0,0,1-.89-.17,2.1,2.1,0,0,1-.71-.49,2.17,2.17,0,0,1-.47-.76,2.87,2.87,0,0,1-.17-1,3,3,0,0,1,.17-1,2.36,2.36,0,0,1,.47-.78,2.1,2.1,0,0,1,.71-.49,2.35,2.35,0,0,1,.89-.17,2.4,2.4,0,0,1,.9.17,2,2,0,0,1,.71.49,2.56,2.56,0,0,1,.48.78A3,3,0,0,1,31,24.6Zm-1.29,0a2.52,2.52,0,0,0-.07-.66,1.18,1.18,0,0,0-.21-.42.79.79,0,0,0-.31-.24,1.17,1.17,0,0,0-.38-.07,1.11,1.11,0,0,0-.37.07.79.79,0,0,0-.31.24,1.37,1.37,0,0,0-.2.42,3,3,0,0,0-.07.66,2.91,2.91,0,0,0,.07.64,1.31,1.31,0,0,0,.2.41.74.74,0,0,0,.31.22.9.9,0,0,0,.37.07,1,1,0,0,0,.38-.07.74.74,0,0,0,.31-.22,1.13,1.13,0,0,0,.21-.41A2.41,2.41,0,0,0,29.71,24.6Z" style="fill: #333"/>
</svg>
