<svg id="f0238b39-04c5-4193-95f6-e8c9933745b6" data-name="Calque 1" xmlns="http://www.w3.org/2000/svg" width="32" height="32" viewBox="0 0 32 32">
  <path d="M12.52,18.83l4.54-6.27c-.42-5.87-2.39-10.32-4.77-10.32S7.93,6.73,7.51,12.63C10,12.85,11.58,16,12.52,18.83Z" style="fill: #fdc800"/>
  <path d="M18.69,15.33c.18-1.66.19-2.82.19-2.82l-7.11,9.35S9.51,10.92,5.7,14.59s-3.3,9.34-3.3,9.34,4-7.81,4-3.19a6.24,6.24,0,0,0,3.82,6V29h3.12V26.71C16.09,26.09,18.15,22.76,18.69,15.33Z" style="fill: #6da200"/>
  <path d="M25.5,19.49a2.48,2.48,0,0,1-.19,1,2.37,2.37,0,0,1-.49.76,2.16,2.16,0,0,1-.72.48,2.13,2.13,0,0,1-.86.17,2.17,2.17,0,0,1-.89-.17,1.94,1.94,0,0,1-.71-.48,2.17,2.17,0,0,1-.47-.76,2.87,2.87,0,0,1-.17-1,3,3,0,0,1,.17-1,2.26,2.26,0,0,1,.47-.78,2.1,2.1,0,0,1,.71-.49,2.44,2.44,0,0,1,1.79,0,2.14,2.14,0,0,1,.72.49,2.26,2.26,0,0,1,.47.78A3,3,0,0,1,25.5,19.49Zm3.24-2.1a1.21,1.21,0,0,1,.2-.19.63.63,0,0,1,.34-.08h1.21l-7.23,9.53a.91.91,0,0,1-.21.18.66.66,0,0,1-.3.07H21.51Zm-4.52,2.1a2.48,2.48,0,0,0-.08-.66,1.1,1.1,0,0,0-.21-.42.73.73,0,0,0-.31-.24,1.17,1.17,0,0,0-.38-.07,1.11,1.11,0,0,0-.37.07.7.7,0,0,0-.3.24,1.1,1.1,0,0,0-.2.42,2.48,2.48,0,0,0-.08.66,2.25,2.25,0,0,0,.08.63,1,1,0,0,0,.2.41.65.65,0,0,0,.3.22.9.9,0,0,0,.37.07,1,1,0,0,0,.38-.07.68.68,0,0,0,.31-.22,1.06,1.06,0,0,0,.21-.41A2.25,2.25,0,0,0,24.22,19.49ZM31,24.6a2.48,2.48,0,0,1-.19,1,2.21,2.21,0,0,1-.49.76,2.36,2.36,0,0,1-.72.49,2.27,2.27,0,0,1-.86.17,2.35,2.35,0,0,1-.89-.17,2.1,2.1,0,0,1-.71-.49,2.17,2.17,0,0,1-.47-.76,2.87,2.87,0,0,1-.17-1,3,3,0,0,1,.17-1,2.36,2.36,0,0,1,.47-.78,2.1,2.1,0,0,1,.71-.49,2.44,2.44,0,0,1,1.79,0,2.14,2.14,0,0,1,.72.49,2.54,2.54,0,0,1,.47.78A3,3,0,0,1,31,24.6Zm-1.29,0a2.52,2.52,0,0,0-.07-.66,1.18,1.18,0,0,0-.21-.42.73.73,0,0,0-.31-.24,1.12,1.12,0,0,0-.38-.07,1.11,1.11,0,0,0-.37.07.79.79,0,0,0-.31.24,1.16,1.16,0,0,0-.19.42,2.48,2.48,0,0,0-.08.66,2.38,2.38,0,0,0,.08.64,1.11,1.11,0,0,0,.19.41.74.74,0,0,0,.31.22.9.9,0,0,0,.37.07.92.92,0,0,0,.38-.07.68.68,0,0,0,.31-.22,1.13,1.13,0,0,0,.21-.41A2.41,2.41,0,0,0,29.71,24.6Z" style="fill: #333"/>
</svg>
