<svg id="a37b8e1b-5b27-4fc3-bb43-bc44f156d8e5" data-name="Calque 1" xmlns="http://www.w3.org/2000/svg" width="32" height="32" viewBox="0 0 32 32">
  <title>products-71-IconeSoufre</title>
  <path d="M22.78,18.62A5,5,0,0,1,22,21.36a5.22,5.22,0,0,1-2.31,1.9A8.55,8.55,0,0,1,16.1,24,8,8,0,0,1,12,23a5.4,5.4,0,0,1-1.87-1.81A4.06,4.06,0,0,1,9.41,19a1.5,1.5,0,0,1,1.53-1.51,1.29,1.29,0,0,1,.91.35,2.75,2.75,0,0,1,.64,1,6.41,6.41,0,0,0,.69,1.34,2.8,2.8,0,0,0,1.05.89,3.94,3.94,0,0,0,1.78.35,4,4,0,0,0,2.46-.7,2.14,2.14,0,0,0,1-1.77,1.88,1.88,0,0,0-.51-1.36,3.33,3.33,0,0,0-1.32-.79,21.82,21.82,0,0,0-2.16-.59,15.73,15.73,0,0,1-3-1,5,5,0,0,1-1.94-1.55,4,4,0,0,1-.72-2.44,4.25,4.25,0,0,1,.76-2.47,4.83,4.83,0,0,1,2.19-1.65,8.92,8.92,0,0,1,3.38-.58,8.29,8.29,0,0,1,2.68.38,5.74,5.74,0,0,1,1.87,1A4.27,4.27,0,0,1,21.7,9.3a3.09,3.09,0,0,1,.35,1.36,1.64,1.64,0,0,1-.43,1.1,1.38,1.38,0,0,1-1.08.49,1.27,1.27,0,0,1-.89-.29A4,4,0,0,1,19,11a4.4,4.4,0,0,0-1.11-1.49A3.24,3.24,0,0,0,15.83,9a3.56,3.56,0,0,0-2.13.58A1.67,1.67,0,0,0,12.89,11a1.35,1.35,0,0,0,.28.87,2.14,2.14,0,0,0,.75.63,4.9,4.9,0,0,0,1,.42c.33.1.87.24,1.63.43.95.23,1.8.47,2.57.74a8,8,0,0,1,2,1,4.08,4.08,0,0,1,1.26,1.45A4.73,4.73,0,0,1,22.78,18.62Z" style="fill: #005da8"/>
</svg>
