<svg id="abeec74c-6e92-4449-84f2-a111bfe067e3" data-name="Calque 1" xmlns="http://www.w3.org/2000/svg" width="32" height="32" viewBox="0 0 32 32">
  <title>office-57-IconeImageAssistantPC</title>
  <rect x="8.85" y="0.12" width="13.29" height="8.19" style="fill: #6f7095"/>
  <polygon points="8.86 8.83 6.81 10.36 24.19 10.36 22.14 8.83 8.86 8.83" style="fill: #6f7095"/>
  <rect x="6.81" y="10.36" width="17.38" height="0.51" style="fill: #6f7072"/>
  <rect x="8.36" y="17.19" width="14.22" height="8.66" style="fill: #6f7095"/>
  <polygon points="20.95 31.1 20.49 30.94 16.53 29.71 16.53 26.47 14.24 26.47 14.24 29.7 10.4 30.99 9.99 31.1 11.62 31.64 15.37 30.45 19.33 31.64 20.95 31.1" style="fill: #6f7072"/>
  <polygon points="16.7 16.53 17.35 16.53 17.35 13.52 18.66 13.52 17.02 11.88 15.38 13.52 16.7 13.52 16.7 16.53" style="fill: #5bab26"/>
  <polygon points="14.25 11.85 13.59 11.85 13.59 14.86 12.28 14.86 13.92 16.5 15.56 14.86 14.25 14.86 14.25 11.85" style="fill: #5bab26"/>
</svg>
