<svg id="a1af39a4-6d16-4fb8-b140-001c2ad634c0" data-name="Calque 1" xmlns="http://www.w3.org/2000/svg" width="32" height="32" viewBox="0 0 32 32">
  <title>vehicles-82-5F89B3B</title>
  <circle cx="5.31" cy="20.84" r="3.13" style="fill: #6f6f6f"/>
  <circle cx="5.31" cy="20.84" r="1.9" style="fill: #fff"/>
  <circle cx="27" cy="20.48" r="3.13" style="fill: #6f6f6f"/>
  <circle cx="27" cy="20.48" r="1.9" style="fill: #fff"/>
  <g>
    <path d="M20,9.23a1.6,1.6,0,0,0-1-.49H17.61a1,1,0,0,0-1,.95v2.48a1,1,0,0,0,1,1h4.54c.48,0,.6-.19.41-.5A17.74,17.74,0,0,0,20,9.23Z" style="fill: none"/>
    <rect x="9.4" y="8.74" width="5.72" height="4.39" rx="0.95" style="fill: none"/>
    <path d="M24.31,13.23A14.13,14.13,0,0,0,20.07,8h0a1.57,1.57,0,0,0-.9-.28H1.58A1.58,1.58,0,0,0,0,9.28v9.8a1.6,1.6,0,0,0,1.2,1.53,4.11,4.11,0,0,1,8.22.05H22.89c0-.06,0-.12,0-.18a4.13,4.13,0,0,1,8.25,0A1.62,1.62,0,0,0,32,19V15.77C32,14.14,27.08,13.46,24.31,13.23Zm-2.16-.1H17.61a1,1,0,0,1-1-1V9.69a1,1,0,0,1,1-.95H19a1.6,1.6,0,0,1,1,.49,17.74,17.74,0,0,1,2.54,3.4C22.75,12.94,22.63,13.13,22.15,13.13Z" style="fill: #adadad"/>
  </g>
</svg>
