<svg id="bce0aa3f-d17a-4444-8253-39f3ffdbac0c" data-name="Calque 1" xmlns="http://www.w3.org/2000/svg" width="32" height="32" viewBox="0 0 32 32">
  <title>office-89-IconeImageAssistantSmartPhone</title>
  <rect x="8.36" y="17.19" width="14.22" height="8.66" style="fill: #6f7095"/>
  <polygon points="20.95 31.1 20.49 30.94 16.53 29.71 16.53 26.47 14.24 26.47 14.24 29.7 10.4 30.99 9.99 31.1 11.62 31.64 15.37 30.45 19.33 31.64 20.95 31.1" style="fill: #6f7072"/>
  <polygon points="16.7 16.53 17.35 16.53 17.35 13.52 18.66 13.52 17.02 11.88 15.38 13.52 16.7 13.52 16.7 16.53" style="fill: #5bab26"/>
  <polygon points="14.25 11.85 13.59 11.85 13.59 14.86 12.28 14.86 13.92 16.5 15.56 14.86 14.25 14.86 14.25 11.85" style="fill: #5bab26"/>
  <g>
    <path d="M15.47,9.8a.53.53,0,0,0-.52.52.52.52,0,0,0,.52.52.52.52,0,0,0,.52-.52A.52.52,0,0,0,15.47,9.8Z" style="fill: none"/>
    <path d="M13.28,1.39V8.88h4.38V7.62a3,3,0,0,1-.47.24,3.75,3.75,0,0,1-1.38.27,2.26,2.26,0,0,1-1.38-.37A2.9,2.9,0,0,1,14,5c.31-1,1.23-2.24,3.69-2.9v-.7Z" style="fill: #fff"/>
    <path d="M12.71,9.46V.81h5.53V2l.69-.13V1.58A1.46,1.46,0,0,0,17.47.12h-4A1.46,1.46,0,0,0,12,1.58V9.73a1.47,1.47,0,0,0,1.46,1.46h4a1.46,1.46,0,0,0,1.46-1.46V6.42a4.46,4.46,0,0,1-.69.78V9.46Zm2.76,1.38a.52.52,0,0,1-.52-.52.53.53,0,0,1,.52-.52.52.52,0,0,1,.52.52A.52.52,0,0,1,15.47,10.84Z" style="fill: #6f7095"/>
  </g>
  <path d="M14.76,7.38c.5.44,4.46,1,5-5.15C13,3,14.23,6.92,14.76,7.38ZM15,7c-.33-.29-1.1-2.83,3.19-3.29C17.88,7.71,15.35,7.32,15,7Z" style="fill: #5bab26"/>
</svg>
