<svg id="ad197644-d051-42c5-b76f-8d7b6568cc04" data-name="Calque 1" xmlns="http://www.w3.org/2000/svg" width="32" height="32" viewBox="0 0 32 32">
  <title>vehicles-78-IconeSatellite</title>
  <g>
    <rect x="17.22" y="4.51" width="13.75" height="6.45" transform="translate(1.59 19.31) rotate(-45)" style="fill: #007bbd"/>
    <rect x="0.94" y="21.4" width="12.55" height="6.45" transform="translate(-15.3 12.31) rotate(-45)" style="fill: #007bbd"/>
  </g>
  <g>
    <circle cx="21.73" cy="22.55" r="1.08" style="fill: #666"/>
    <g>
      <path d="M21,23.32a1.1,1.1,0,0,0,1.53,0,1.09,1.09,0,0,0,0-1.53,1,1,0,0,0-.36-.24L20.73,23A1.19,1.19,0,0,0,21,23.32Z" style="fill: none"/>
      <path d="M21,21.79A1.07,1.07,0,0,0,20.73,23l1.41-1.41a1.15,1.15,0,0,0-.41-.08A1.09,1.09,0,0,0,21,21.79Z" style="fill: #666"/>
      <path d="M20.26,21.08a2.09,2.09,0,0,1,2.62-.27l.14-.14a1.83,1.83,0,0,0,0-2.6L13,8a1.82,1.82,0,0,0-2.59,0L7,11.38A1.82,1.82,0,0,0,7,14l10,10a1.84,1.84,0,0,0,2.59,0L20,23.7A2.09,2.09,0,0,1,20.26,21.08Z" style="fill: #666"/>
    </g>
  </g>
  <path d="M24.64,21.87a3.58,3.58,0,0,1-3.58,3.58" style="fill: none;stroke: #666;stroke-linecap: round;stroke-linejoin: round"/>
  <path d="M26.82,21.87a5.76,5.76,0,0,1-5.76,5.77" style="fill: none;stroke: #666;stroke-linecap: round;stroke-linejoin: round"/>
</svg>
