<svg id="b92830a8-09e4-423d-9b99-433714ecf6c5" data-name="Calque 1" xmlns="http://www.w3.org/2000/svg" width="32" height="32" viewBox="0 0 32 32">
  <title>people-39-IconeAjoutUtilisateur</title>
  <g>
    <path d="M16.59,23.08l-1.29-1h0l-.58-.45c-3.23,3.23-6.33-.61-7.58-3.56-2.21.55-6.41,1.38-7.06,4C-.47,24.25,1.43,26.87,3,28a14.57,14.57,0,0,0,8.58,3,15.59,15.59,0,0,0,7-1.79,8.73,8.73,0,0,1-1.95-5.49C16.55,23.51,16.57,23.29,16.59,23.08Zm-.77-.61Zm-.51-.4.23.18Z" style="fill: #3f3f3f"/>
    <path d="M16.59,23.08a8.67,8.67,0,0,1,1.75-4.63l-1.42-.4a11,11,0,0,1-2.21,3.56l.59.45Z" style="fill: #1c1c1c"/>
  </g>
  <path d="M25.28,30.45A6.73,6.73,0,1,1,32,23.72,6.74,6.74,0,0,1,25.28,30.45Z" style="fill: #5bab26"/>
  <rect x="24.72" y="18.97" width="1.27" height="9.02" style="fill: #fff"/>
  <rect x="20.87" y="22.84" width="8.95" height="1.28" style="fill: #fff"/>
  <rect x="24.72" y="18.97" width="1.27" height="9.02" style="fill: #fff"/>
  <rect x="20.87" y="22.84" width="8.95" height="1.28" style="fill: #fff"/>
  <rect x="24.72" y="18.97" width="1.27" height="9.02" style="fill: #fff"/>
  <rect x="20.87" y="22.84" width="8.95" height="1.28" style="fill: #fff"/>
  <path d="M8.86,15.48h0l4.93,5.34a7.58,7.58,0,0,0,1.07-1.37,3.38,3.38,0,0,0,.49-1.74V15.17C13.6,17,11.25,17.81,8.86,15.48Z" style="fill: #cfad88"/>
  <path d="M15.81,6.19a7.44,7.44,0,0,0-2.74-.37h-.51a5.93,5.93,0,0,1-1.51-.29l.37.16a5,5,0,0,1-2.1-1.81C8.15,4,5.91,7.38,6,10.16v0a.13.13,0,0,0,0,.05,11.41,11.41,0,0,0,2.5,4.89v2.07a3,3,0,0,0,.35,1.46c1.05,1.92,2.88,4.16,4.93,2.17L8.86,15.48h0c2.39,2.33,4.74,1.53,6.48-.31a11.25,11.25,0,0,0,2.45-4.27c0-.12,0-.23,0-.35C18.48,6.21,15.84,6.2,15.81,6.19Z" style="fill: #dcc4ab"/>
  <path d="M6,10.21l0,0v0C5.91,7.38,8.15,4,9.32,3.89a5,5,0,0,0,2.1,1.81,3.2,3.2,0,0,0,1.14.13h.51a7.21,7.21,0,0,1,2.74.37c.66.27,2.21,1.17,2,4.36,0,.12,0,.23,0,.35h0a10.1,10.1,0,0,0,.54-2.7A6.44,6.44,0,0,0,12,1c-1.42,0-1.39.41-2.06.69a2.67,2.67,0,0,1-.76,0C6.73,1.34,5.46,5,5.69,8.27A14.64,14.64,0,0,0,6,10.21Z" style="fill: #7c6e5c"/>
</svg>
