<svg id="b3551619-600f-496d-a5c2-5392cc2d782a" data-name="Calque 1" xmlns="http://www.w3.org/2000/svg" width="32" height="32" viewBox="0 0 32 32">
  <title>abstract-54-IconeAjoutPlusieursElements</title>
  <rect y="5" width="6" height="6" style="fill: #c5c6c8"/>
  <rect y="13" width="6" height="6" style="fill: #c5c6c8"/>
  <rect y="21" width="6" height="6" style="fill: #c5c6c8"/>
  <rect x="8.13" y="7" width="21.87" height="2" style="fill: #929192"/>
  <polygon points="16 17 8.13 17 8.13 15 17.29 15 16 17" style="fill: #929192"/>
  <polygon points="16.45 25 8.13 25 8.13 23 15.9 23 16.45 25" style="fill: #929192"/>
  <path d="M24.75,28.1a6.73,6.73,0,1,1,6.72-6.73,6.73,6.73,0,0,1-6.72,6.73" style="fill: #5bab26"/>
  <rect x="24.03" y="17.01" width="1.5" height="9.02" style="fill: #fff"/>
  <rect x="20.27" y="20.65" width="8.95" height="1.5" style="fill: #fff"/>
  <path d="M18.75,21.37a6.91,6.91,0,0,0,.3,2,6.91,6.91,0,0,1-.3-2Z" style="fill: #fac262"/>
</svg>
