<svg id="ace23c48-d07e-409e-aef4-5b928dcbef92" data-name="Calque 1" xmlns="http://www.w3.org/2000/svg" width="32" height="32" viewBox="0 0 32 32">
  <title>people-100-IconeSalarieOccasionnel</title>
  <path d="M12.86,15.49h0l4.93,5.34a7.11,7.11,0,0,0,1.07-1.36,3.35,3.35,0,0,0,.5-1.74l0-2.4a.3.3,0,0,0,0-.14C17.6,17,15.26,17.83,12.86,15.49Z" style="fill: #cfad88"/>
  <path d="M19.82,6.2a7.22,7.22,0,0,0-2.74-.36h-.51a5.36,5.36,0,0,1-1.51-.29l.36.16A4.92,4.92,0,0,1,13.33,3.9C12.16,4,9.91,7.4,10,10.17v0s0,.05,0,.05a11.3,11.3,0,0,0,2.5,4.89V17.2a2.9,2.9,0,0,0,.35,1.46c1.05,1.92,2.88,4.16,4.93,2.17l-4.93-5.34h0c2.4,2.34,4.74,1.53,6.48-.3a11.4,11.4,0,0,0,2.45-4.27c0-.13,0-.23,0-.35C22.48,6.23,19.84,6.21,19.82,6.2Z" style="fill: #dcc4ab"/>
  <path d="M10,10.22v-.05C9.91,7.4,12.16,4,13.33,3.9a4.92,4.92,0,0,0,2.09,1.81,3.27,3.27,0,0,0,1.15.13h.51a7,7,0,0,1,2.74.36c.65.27,2.2,1.18,2,4.37,0,.12,0,.22,0,.35h0a9.9,9.9,0,0,0,.54-2.71A7.22,7.22,0,0,0,22.18,6c-.19-.81-1-.54-1.46-.71-1.18-.46-2.64.12-4.71.12-1.13,0-3.76-.51-5.13.29-.35.2-1.05-.1-1.12.4A11,11,0,0,0,9.7,8.28,11.24,11.24,0,0,0,10,10.22Z" style="fill: #7c6e5c"/>
  <path d="M19.45,23.06l-.58-.45c-3.23,3.23-6.33-.61-7.58-3.56-2.21.55-7.41,1.38-8.06,4-.54,2.18,2.36,4.8,3.88,5.95a14.54,14.54,0,0,0,8.57,3,16.21,16.21,0,0,0,9.5-3.36c-.8-1.13-1.15-3.08-2.27-4.11s-2.74-.91-3.46-1.47Z" style="fill: #fff"/>
  <path d="M28.67,22.7c-1-2.11-5.46-3.06-7.59-3.64a10.88,10.88,0,0,1-2.21,3.55,28.67,28.67,0,0,1,6.31,6c1.35-1,4.42-3.88,3.49-5.94C28.29,21.87,28.73,22.84,28.67,22.7Z" style="fill: #e6e6e6"/>
  <path d="M10.88,6l-.07.15h0A.78.78,0,0,1,10.88,6Z" style="fill: #6e5d44"/>
  <path d="M28.74,6.44c0-.55-2.77-1-6.82-1.27C21.47,3.53,20.38,0,19.36,0H12.74C10.93,0,9.82,5.13,9.81,5.14c-4.08.22-6.07.72-6.07,1.3s2.66,1,6.37,1.26l1.23.08h0c1.37.06,2.84.1,4.36.1s3.1,0,4.58-.11h0l2-.11C26,7.41,28.74,7,28.74,6.44Z" style="fill: #a58d58"/>
</svg>
