<svg id="a190df2d-dee8-4e0e-bf88-cb21a27f5bda" data-name="Calque 1" xmlns="http://www.w3.org/2000/svg" width="32" height="32" viewBox="0 0 32 32">
  <title>sign-52-IconeCorrosifSGH05</title>
  <rect x="5.83" y="5.83" width="20.35" height="20.35" transform="translate(-6.63 16) rotate(-45)" style="fill: #fff"/>
  <path d="M16,32a.7.7,0,0,1-.47-.19L.2,16.47A.63.63,0,0,1,0,16a.65.65,0,0,1,.2-.47L15.53.2a.66.66,0,0,1,.94,0L31.81,15.53a.68.68,0,0,1,0,.94L16.47,31.81A.67.67,0,0,1,16,32ZM1.61,16,16,30.39,30.39,16,16,1.61Z" style="fill: #d10000"/>
  <g>
    <polyline points="5.43 17.06 13.07 17.06 13.07 18.59 5.43 18.59 5.43 17.06"/>
    <path d="M9.36,13.57a2,2,0,1,1-1.95,2,2,2,0,0,1,1.95-2" style="fill: #fff"/>
    <path d="M9.46,11l5.82-.49a.85.85,0,0,1,.85.83.8.8,0,0,1-.7.93l-5.82.49Z" style="fill: none;stroke: #000;stroke-linejoin: round;stroke-width: 0.289810896439301px"/>
    <path d="M24.06,11l-5.83-.49a.84.84,0,0,0-.84.83.8.8,0,0,0,.7.93l5.82.49Z" style="fill: none;stroke: #000;stroke-linejoin: round;stroke-width: 0.289810896439301px"/>
    <path d="M15.61,12.12h-6s-.37-.09-.37.69v3.82s0,.26.22.26.23-.26.23-.26V12.77l5.95-.65"/>
    <path d="M17.9,12.12h6s.37-.09.37.69v2.74s0,.26-.23.26-.23-.27-.23-.27l0-2.77-6-.65"/>
    <line x1="8.68" y1="16.9" x2="7.87" y2="16.17" style="fill: none;stroke: #000;stroke-linejoin: round;stroke-width: 0.289810896439301px"/>
    <line x1="10.17" y1="16.9" x2="10.98" y2="16.17" style="fill: none;stroke: #000;stroke-linejoin: round;stroke-width: 0.289810896439301px"/>
    <line x1="8.08" y1="14.67" x2="8.81" y2="16.3" style="fill: none;stroke: #000;stroke-linejoin: round;stroke-width: 0.289810896439301px"/>
    <line x1="10.69" y1="14.51" x2="9.96" y2="16.3" style="fill: none;stroke: #000;stroke-linejoin: round;stroke-width: 0.289810896439301px"/>
    <line x1="25.39" y1="13.94" x2="24.66" y2="15.72" style="fill: none;stroke: #000;stroke-linejoin: round;stroke-width: 0.289810896439301px"/>
    <line x1="22.64" y1="13.57" x2="23.37" y2="15.36" style="fill: none;stroke: #000;stroke-linejoin: round;stroke-width: 0.289810896439301px"/>
    <line x1="26.09" y1="14.74" x2="25.18" y2="15.8" style="fill: none;stroke: #000;stroke-linejoin: round;stroke-width: 0.289810896439301px"/>
    <line x1="21.93" y1="14.37" x2="22.85" y2="15.44" style="fill: none;stroke: #000;stroke-linejoin: round;stroke-width: 0.289810896439301px"/>
    <path d="M22,18.68H20.3s-.46,0-.46-.31.28-.36.45-.36H22" style="fill: none;stroke: #000;stroke-linejoin: round;stroke-width: 0.194643130107005px"/>
    <path d="M22,17.33H20.3s-.46,0-.46-.31.28-.37.45-.37h2.58" style="fill: none;stroke: #000;stroke-linejoin: round;stroke-width: 0.194643130107005px"/>
    <path d="M25.69,18.85a1.76,1.76,0,0,0-1.07.23,1.33,1.33,0,0,1-.78.28h-3s-.46,0-.46-.31.28-.37.45-.37H22" style="fill: none;stroke: #000;stroke-linejoin: round;stroke-width: 0.194643130107005px"/>
    <path d="M23.89,17.69c-.81,0-1.12-1-1.12-1h-1s-.69,0-.69-.4.43-.46.69-.46h1.43a.91.91,0,0,0,.53.46,1.46,1.46,0,0,0,.67.06,3.57,3.57,0,0,1,.81.21,1.38,1.38,0,0,0,.4,0" style="fill: none;stroke: #000;stroke-linejoin: round;stroke-width: 0.194643130107005px"/>
    <path d="M21.89,18H20.21s-.46,0-.46-.31.28-.37.45-.37h1.66" style="fill: none;stroke: #000;stroke-linejoin: round;stroke-width: 0.194643130107005px"/>
    <line x1="9.35" y1="10.5" x2="9.6" y2="12.72" style="fill: none;stroke: #000;stroke-linejoin: round;stroke-width: 0.29196473723034px"/>
    <line x1="24.15" y1="10.49" x2="23.87" y2="12.74" style="fill: none;stroke: #000;stroke-linejoin: round;stroke-width: 0.29196473723034px"/>
  </g>
</svg>
