<svg id="b5d68013-888e-4d8f-987c-e63ce60eba01" data-name="Calque 1" xmlns="http://www.w3.org/2000/svg" width="32" height="32" viewBox="0 0 32 32">
  <title>field-62-IconeCadastre</title>
  <path d="M1.1,18.52A.47.47,0,0,1,1,17.9L12.5,1.11a.49.49,0,0,1,.57-.17l17.3,6.83a.45.45,0,0,1,.27.3.46.46,0,0,1-.05.4l-15,22.37a.43.43,0,0,1-.33.2h-.06a.46.46,0,0,1-.31-.13Z" style="fill: #fff"/>
  <polyline points="24.37 16.87 26.67 13.45 30.19 8.21 16.8 2.92 12.89 1.38 7.51 9.25 1.42 18.17 5.09 21.48 9.78 25.71" style="fill: none;stroke: #77787a;stroke-miterlimit: 10"/>
  <polyline points="24.37 16.87 19.78 23.71 15.17 30.57 9.78 25.71 16.5 15.38 7.12 9.83" style="fill: none;stroke: #77787a;stroke-miterlimit: 10"/>
  <path d="M7.29,14.42l.82,1.25c.22.32.4.62.59.94h0c.19-.34.38-.64.57-.95l.82-1.24h1.14l-2,2.81,2,3h-1.2l-.85-1.3c-.23-.34-.42-.66-.63-1h0c-.19.35-.4.66-.61,1l-.84,1.3H6l2.06-3-2-2.84Z" style="fill: #77787a"/>
  <path d="M20,8.57,21.22,12c.13.38.27.84.37,1.18h0c.11-.34.23-.79.38-1.21l1.15-3.4h1.11L22.67,12.7c-.76,2-1.27,3-2,3.64a2.93,2.93,0,0,1-1.3.68l-.26-.89a2.77,2.77,0,0,0,.92-.51,3.22,3.22,0,0,0,.89-1.18.69.69,0,0,0,.08-.25.81.81,0,0,0-.07-.27L18.79,8.57Z" style="fill: #77787a"/>
</svg>
