<svg id="b1d5cdc4-d41c-4c6b-b664-4b62343a3e07" data-name="Calque 1" xmlns="http://www.w3.org/2000/svg" width="32" height="32" viewBox="0 0 32 32">
  <title>phyto-65-IconeRotenticide</title>
  <path d="M2.4,5.07V3.77A1.09,1.09,0,0,1,3.49,2.69H5.31A1.09,1.09,0,0,1,6.39,3.77v1.3" style="fill: #6e6a69"/>
  <g>
    <g>
      <path d="M30.26,22.17Z" style="fill: #a6794e"/>
      <g>
        <path d="M13.91,6.33h4.74a1.05,1.05,0,1,0,0-2.1H13.91a1.05,1.05,0,0,0,0,2.1Z" style="fill: none"/>
        <path d="M24.93,21.22a2.77,2.77,0,0,1-.41.55v0a2.33,2.33,0,0,1-1.19,1.1,2.9,2.9,0,0,1-.06,1.18h.19c.29,0,.62,0,1,0l.87,0a1.56,1.56,0,0,1,.31,0h0c1.84-.17,2-.71,2.06-1.23a.66.66,0,0,1,0-.14A4.6,4.6,0,0,0,24.93,21.22Z" style="fill: none"/>
        <path d="M19,27.68a5.32,5.32,0,0,1,.85-1.63L19.59,26l-.28,0a2.05,2.05,0,0,1-.8-.17l-.12-.05-.31,0a2,2,0,0,1-1.29-.92,10.67,10.67,0,0,1-.36,1.09,2,2,0,0,1-1.83,1.26h-.18a2.13,2.13,0,0,1-1.43.22,2.41,2.41,0,0,1-.55-.21l-.24-.05a2,2,0,0,1-.42-.18,8.4,8.4,0,0,1-.78.64,5.55,5.55,0,0,1-.48.29l-.14.07a2.3,2.3,0,0,1-.37.16l-.17.06-.15,0-.12,0-.15,0h0l-.12,0-.31,0H8.76a3.43,3.43,0,0,1-1-.18l-.1,0,0,0-.38-.18-.07,0L7,27.83a2.71,2.71,0,0,1-.35-.24l-.05,0a4.09,4.09,0,0,1-.46-.47L6.1,27l-.17-.25a.35.35,0,0,0,0-.08s0,0,0-.05l-.06-.11A3.33,3.33,0,0,1,5.59,26v0a3.36,3.36,0,0,1-.18-.88,7.54,7.54,0,0,1,.44-2.83A2.78,2.78,0,0,1,6,21.11a2.84,2.84,0,0,1,.53-.85l.06-.14h0a4,4,0,0,1-.24-2.73,2.11,2.11,0,0,1,2.06-1.79h.13a2.14,2.14,0,0,1,.57-.47,2.09,2.09,0,0,1,1-.57,3.14,3.14,0,0,1,.51-.27,5.65,5.65,0,0,1,.71-1l.08-.09.08-.09.13-.14.26-.27.2-.19.07-.08.05,0c.16-.16.3-.29.4-.41a4.83,4.83,0,0,1,1.66-1.42,1.94,1.94,0,0,1,1-.25l.28,0a2.59,2.59,0,0,1,.48,0h.26a9.38,9.38,0,0,1,1.83-.18h0a8,8,0,0,1,1.3.1,6.86,6.86,0,0,1,3.08,1.4L22,4a1.4,1.4,0,0,0-1.4-1.4H12.12c-2.77,0-2.55,3.93-5.83,3.93H2.43A1.4,1.4,0,0,0,1,8L.49,12.56V22.74l.55,6a1.4,1.4,0,0,0,1.39,1.4H19.5a1.6,1.6,0,0,1-.25-.27A2.38,2.38,0,0,1,19,27.68ZM13.91,4.23h4.74a1,1,0,1,1,0,2.1H13.91a1,1,0,0,1,0-2.1Z" style="fill: #ccc"/>
      </g>
    </g>
    <path d="M18.93,24l0,.06Z" style="fill: #a6794e"/>
    <path d="M17.84,24.15v0Z" style="fill: #a6794e"/>
  </g>
  <path d="M30.85,23.09a3.94,3.94,0,0,0-.42-1.65h0a6.43,6.43,0,0,0-3.57-2.81h0a10.86,10.86,0,0,0-1.16-.37h0l-.36-.09h0L24.74,18h0L24.33,18a.33.33,0,0,1-.13,0l-.12-.05a1.92,1.92,0,0,1-.59-.58,5.44,5.44,0,0,0-1-2.78c-.08-.14.23,0,.47.48,0,.09.17-.13-.46-.79-.18-.18,0-.19.29.06-.08-.16-.05-.24-1.11-.73a5.81,5.81,0,0,0-2.62-1.35,6.69,6.69,0,0,0-3.79.53,1,1,0,0,1,.77-.43c-.32,0-1,.4-1.05.38s.24-.36.24-.36a3.11,3.11,0,0,0-1,.81,1.31,1.31,0,0,1-.13.16l0,0c-.14.15-.33.34-.54.54l-.07.07-.18.18-.23.23-.09.1-.07.09h0a4,4,0,0,0-.6.86,1.74,1.74,0,0,1-.9.74,3.63,3.63,0,0,0-1.1.94,2,2,0,0,1,.25-.56c-.33.47-.37.46-.42.73,0-.16,0-.49-.08-.34s-.17.89-.27,1.17-.16.76-.33.57a11.56,11.56,0,0,1-1-1c-.12-.16-.15.12-.15.12a2.39,2.39,0,0,0,0,1.42,1.58,1.58,0,0,1,.26,1.28c-.05.13-.22.52-.41,1a.55.55,0,0,0-.33.34,1,1,0,0,0,0,.6,7.24,7.24,0,0,0-.5,2.48,1.84,1.84,0,0,0,.08.42h0a1.57,1.57,0,0,0,.09.23l0,.06,0,0h0l.09.13,0,0a1.21,1.21,0,0,0,.19.2h0l.15.11,0,0,0,0,.15.07h.06a1.67,1.67,0,0,0,.4.07h.36l.12,0,.08,0,.18-.08.08,0L9.83,26c1.16-.84,1.17-1.33,1.5-1.31s1.6-.22,1.85-1.1l.24,0a.29.29,0,0,0,0,.09,5.84,5.84,0,0,0-.7,1.57,12.9,12.9,0,0,0,1-1.36l.06,0a3.64,3.64,0,0,0-.34,1.57,9.94,9.94,0,0,0,.8-1.6h0a2.1,2.1,0,0,0,.24-.06,3.6,3.6,0,0,0,.09,1.41A6.64,6.64,0,0,0,15,23.5c.36-.24.56-.52.42-.68a5.41,5.41,0,0,0,2.47-2.28,1.74,1.74,0,0,0,1.56,1.24,2,2,0,0,0-.31.59.7.7,0,0,0-.63.84,1.64,1.64,0,0,1,0,.56.66.66,0,0,1,.18-.34,2.51,2.51,0,0,0,.55-.46l0,0a.92.92,0,0,0,0,.4,1,1,0,0,1,0,.6.91.91,0,0,1,.25-.35,1.51,1.51,0,0,0,.4-.52H20a.84.84,0,0,0,.14.62.67.67,0,0,1,.21.42,1.12,1.12,0,0,1,.06-.42,1.45,1.45,0,0,0,.14-.75l.09,0a1.35,1.35,0,0,0,.46.81.47.47,0,0,1,.1.25,1.19,1.19,0,0,1,.09-.44c.06-.1,0-.8-.23-1a1.41,1.41,0,0,0,.18-1.12c1.49-.43,1.43-.57,1.43-.57H22.5s.62-.5.68-.68-.79.61-.58.37a4.56,4.56,0,0,0,.63-1.32c.58-.54,5.38.26,6.29,2.58h0a2.39,2.39,0,0,1,.14.6l0,0h0a2.86,2.86,0,0,1,0,.58c-.43,2.27-2.3,2.75-4,2.88h0c-.74.06-1.44.05-2,.1a3.24,3.24,0,0,0-2.75,2.23c-.16.52.16.61.21.3a2.35,2.35,0,0,1,2.4-1.92C24.07,26.66,31,27.25,30.85,23.09ZM8,22.17Z" style="fill: #826c56"/>
</svg>
