<svg id="aa01ded9-5283-40d7-9c17-c31ac30121e7" data-name="Calque 1" xmlns="http://www.w3.org/2000/svg" width="32" height="32" viewBox="0 0 32 32">
  <title>print-75-IconeMajRefNational</title>
  <path d="M5.2,3H17V2.6l-.1-.12a1.22,1.22,0,0,0-1-.48H3.2A1.21,1.21,0,0,0,2,3.21V26.8A1.19,1.19,0,0,0,3,28V5.21A2.21,2.21,0,0,1,5.2,3Z" style="fill: #c3d56c"/>
  <path d="M15.93,1a2.29,2.29,0,0,1,1,.22A2.29,2.29,0,0,0,15.93,1Z" style="fill: #779a2c"/>
  <path d="M3,28A1.19,1.19,0,0,1,2,26.8V3.21A1.21,1.21,0,0,1,3.2,2H15.93a1.22,1.22,0,0,1,1,.48l.1.12V1.88l.93.28.87,1h0L17.65,1.83a2.23,2.23,0,0,0-.76-.61,2.29,2.29,0,0,0-1-.22H3.2A2.21,2.21,0,0,0,1,3.21V26.8A2.19,2.19,0,0,0,3,29a1.1,1.1,0,0,1,0-.18Z" style="fill: #779a2c"/>
  <polygon points="17.33 3 16.99 2.6 16.99 3 17.33 3" style="fill: #779a2c"/>
  <path d="M17.93,3a2.11,2.11,0,0,1,.86.19l-.87-1L17,1.88V2.6l.34.4Z" style="fill: #779a2c"/>
  <path d="M22.73,9l0,0H22v3.69a8.36,8.36,0,0,1,1-.33V9.78A1.23,1.23,0,0,0,22.73,9Z" style="fill: #c3d56c"/>
  <path d="M19.78,29H4A1.18,1.18,0,0,0,5.2,30H21.78a1.21,1.21,0,0,0,1.14-.84,9.19,9.19,0,0,1-1.72-.68A2.19,2.19,0,0,1,19.78,29Z" style="fill: #c3d56c"/>
  <path d="M20.27,27.9A8.7,8.7,0,0,1,21,13.18V9H19V7H17V4H5.2A1.21,1.21,0,0,0,4,5.21V28H19.78A1.3,1.3,0,0,0,20.27,27.9ZM16,9.82A1.18,1.18,0,0,1,14.82,11H8.19A1.18,1.18,0,0,1,7,9.82V8.18A1.18,1.18,0,0,1,8.19,7h6.63A1.18,1.18,0,0,1,16,8.18Z" style="fill: #c3d56c"/>
  <path d="M21,13.18a8.42,8.42,0,0,1,1-.49V9H21Z" style="fill: #c3d56c"/>
  <path d="M21.2,28.48c-.32-.18-.63-.37-.93-.58a1.3,1.3,0,0,1-.49.1H4v.8A1.42,1.42,0,0,0,4,29H19.78A2.19,2.19,0,0,0,21.2,28.48Z" style="fill: #c3d56c"/>
  <path d="M18.2,4a1.24,1.24,0,0,0-.27,0H17V7h2V5Z" style="fill: #c3d56c"/>
  <path d="M19,4.6l-.1-.12A1.31,1.31,0,0,0,18.2,4L19,5Z" style="fill: #c3d56c"/>
  <path d="M18.89,3.22l-.09,0h0Z" style="fill: #779a2c"/>
  <polygon points="18.79 3.19 18.8 3.19 18.8 3.19 18.79 3.19 18.79 3.19" style="fill: #779a2c"/>
  <path d="M18.79,3.19h0A2.11,2.11,0,0,0,17.93,3,2.11,2.11,0,0,1,18.79,3.19Z" style="fill: #779a2c"/>
  <path d="M19.4,3.9l.12.14.4.12L21.4,5.9,19.65,3.83a2.23,2.23,0,0,0-.76-.61l-.09,0Z" style="fill: #779a2c"/>
  <path d="M22.71,9l0,0a1.23,1.23,0,0,1,.26.76v2.58a8.45,8.45,0,0,1,1-.21V9.78a2.23,2.23,0,0,0-.48-1.38L23.2,8l.11,1Z" style="fill: #779a2c"/>
  <path d="M21.78,30H5.2A1.18,1.18,0,0,1,4,29H3.2L3,29A2.2,2.2,0,0,0,5.2,31H21.78a2.19,2.19,0,0,0,2.12-1.63,8.13,8.13,0,0,1-1-.21A1.21,1.21,0,0,1,21.78,30Z" style="fill: #779a2c"/>
  <path d="M5.2,4H17V3H5.2A2.21,2.21,0,0,0,3,5.21V28a1.3,1.3,0,0,0,.21,0H4V5.21A1.21,1.21,0,0,1,5.2,4Z" style="fill: #779a2c"/>
  <polygon points="18.8 3.19 18.79 3.19 19.4 3.9 18.8 3.19" style="fill: #779a2c"/>
  <path d="M4,29a1.42,1.42,0,0,1,0-.2V28H3.2A1.3,1.3,0,0,1,3,28v.84A1.1,1.1,0,0,0,3,29l.19,0Z" style="fill: #779a2c"/>
  <polygon points="19.52 4.04 19.4 3.9 19.52 4.04 19.52 4.04" style="fill: #779a2c"/>
  <path d="M18.2,4l-.87-1H17V4h.94A1.24,1.24,0,0,1,18.2,4Z" style="fill: #779a2c"/>
  <path d="M17.33,3l.87,1a1.31,1.31,0,0,1,.69.45l.1.12V3.88l.53.16L19.4,3.9l-.61-.71A2.11,2.11,0,0,0,17.93,3Z" style="fill: #779a2c"/>
  <polygon points="23.19 8.01 21.4 5.9 23.2 8.03 23.19 8.01" style="fill: #779a2c"/>
  <polygon points="22.71 9 21.99 8.15 21.99 9 22.71 9" style="fill: #779a2c"/>
  <path d="M20.73,7l0,0H19V9h2V7.78A1.23,1.23,0,0,0,20.73,7Z" style="fill: #779a2c"/>
  <path d="M20.71,7l0,0a1.23,1.23,0,0,1,.26.76V9h1V8.15L21,7Z" style="fill: #779a2c"/>
  <polygon points="18.99 4.97 18.99 7 20.71 7 18.99 4.97" style="fill: #779a2c"/>
  <polygon points="20.71 7 21.02 7 18.99 4.6 18.99 4.97 20.71 7" style="fill: #779a2c"/>
  <path d="M19.52,4l1.67,2V6l.31.37A2.23,2.23,0,0,1,22,7.78v.37l.72.85h.6L23.2,8,21.4,5.9,19.92,4.16Z" style="fill: #779a2c"/>
  <path d="M21,7l1,1.15V7.78a2.23,2.23,0,0,0-.48-1.38L21.2,6l.11,1Z" style="fill: #779a2c"/>
  <polygon points="21.2 6.03 21.19 6 19.52 4.04 19.52 4.04 21.2 6.03" style="fill: #779a2c"/>
  <polygon points="18.99 3.88 18.99 4.6 21.02 7 21.31 7 21.2 6.03 19.52 4.04 18.99 3.88" style="fill: #779a2c"/>
  <rect x="7" y="7" width="9" height="4" rx="1.18" style="fill: #fff"/>
  <path d="M25.28,27.49A6.72,6.72,0,1,1,32,20.77a6.73,6.73,0,0,1-6.72,6.72" style="fill: #ffa400"/>
  <polygon points="26.2 16.24 24.6 16.24 24.6 20.65 21.39 20.65 25.4 24.66 29.41 20.65 26.2 20.65 26.2 16.24" style="fill: #fff"/>
</svg>
