<svg id="b75fbcce-d072-464c-bb7b-3a4f8ac71556" data-name="Calque 1" xmlns="http://www.w3.org/2000/svg" width="32" height="32" viewBox="0 0 32 32">
  <title>vegetal-43-IconeHaie</title>
  <path d="M23.71,11.13c1.65,1.85,1.49,8.37-.35,10A4.48,4.48,0,0,1,17,20.8c-1.65-1.84-1.5-8.36.35-10A4.5,4.5,0,0,1,23.71,11.13Z" style="fill: #63813b;stroke: #63813b;stroke-miterlimit: 10;stroke-width: 0.991841912269592px"/>
  <path d="M13.36,11.13C15,13,14.85,19.5,13,21.15a4.48,4.48,0,0,1-6.34-.35C5,19,5.17,12.44,7,10.78A4.5,4.5,0,0,1,13.36,11.13Z" style="fill: #63813b;stroke: #63813b;stroke-miterlimit: 10;stroke-width: 0.991841912269592px"/>
  <path d="M19.19,12.76c1.58,1.75,1.43,8.13-.33,9.71a4.28,4.28,0,0,1-6-.33c-1.57-1.76-1.42-8.14.34-9.72A4.26,4.26,0,0,1,19.19,12.76Z" style="fill: #7fa349;stroke: #7fa349;stroke-miterlimit: 10;stroke-width: 0.991841912269592px"/>
  <path d="M30.29,12.76c1.58,1.75,1.43,8.13-.33,9.71a4.28,4.28,0,0,1-6-.33c-1.57-1.76-1.42-8.14.33-9.72A4.27,4.27,0,0,1,30.29,12.76Z" style="fill: #7fa349;stroke: #7fa349;stroke-miterlimit: 10;stroke-width: 0.991841912269592px"/>
  <path d="M8.2,12.76c1.57,1.75,1.42,8.13-.34,9.71a4.28,4.28,0,0,1-6-.33C.26,20.38.41,14,2.17,12.42A4.27,4.27,0,0,1,8.2,12.76Z" style="fill: #7fa349;stroke: #7fa349;stroke-miterlimit: 10;stroke-width: 0.991841912269592px"/>
</svg>
