<svg id="f4f9748c-70a1-4428-ba4c-c64ff579a358" data-name="Calque 1" xmlns="http://www.w3.org/2000/svg" width="32" height="32" viewBox="0 0 32 32">
  <title>money-31-IconeTarif</title>
  <g>
    <path d="M23.1,23.47a15.88,15.88,0,0,1-5.2,1.47,22.24,22.24,0,0,1-2.79.19,22.24,22.24,0,0,1-2.79-.19,15.88,15.88,0,0,1-5.2-1.47,9,9,0,0,1-1.29-.79,5.21,5.21,0,0,1-1-.91,2,2,0,0,1-.51-1.16v3.32a2,2,0,0,0,.51,1.16,5.19,5.19,0,0,0,1,.9,8.16,8.16,0,0,0,1.29.79,16.12,16.12,0,0,0,5.2,1.48,22.24,22.24,0,0,0,2.79.19,22.24,22.24,0,0,0,2.79-.19,16.12,16.12,0,0,0,5.2-1.48A8.16,8.16,0,0,0,24.39,26a5.19,5.19,0,0,0,.95-.9,2,2,0,0,0,.51-1.16V22.44a15.06,15.06,0,0,1-2.35.81Z" style="fill: #db9f0c"/>
    <path d="M9.34,20.89q.32.2.69.39c.33.16.69.32,1.08.47-.39-.15-.75-.31-1.08-.47S9.55,21,9.34,20.89Z" style="fill: #f9b400"/>
    <path d="M20.94,23.74a21.8,21.8,0,0,1-2.91.2,21.83,21.83,0,0,1-2.92-.2,17.3,17.3,0,0,1-5.53-1.57,11.13,11.13,0,0,1-1.43-.88A5.71,5.71,0,0,1,7,20.19a3.82,3.82,0,0,1-.3-.44,2.55,2.55,0,0,1-.42-1.33v-.2c-1.24.78-1.92,1.65-1.92,2.39a2,2,0,0,0,.51,1.16,5.21,5.21,0,0,0,1,.91,9,9,0,0,0,1.29.79,15.88,15.88,0,0,0,5.2,1.47,22.24,22.24,0,0,0,2.79.19,22.24,22.24,0,0,0,2.79-.19,15.88,15.88,0,0,0,5.2-1.47l.4-.22A19.68,19.68,0,0,1,20.94,23.74Z" style="fill: #f9b400"/>
    <path d="M28.25,16.26a4.55,4.55,0,0,1-.94.91A9,9,0,0,1,26,18a12.32,12.32,0,0,1-1.54.63,17.64,17.64,0,0,1-3.66.84c-.18,0-.38,0-.56.06a19.68,19.68,0,0,1-2.23.13,20.54,20.54,0,0,1-2.8-.19l-.17,0A16.28,16.28,0,0,1,10,18l-.39-.22a13,13,0,0,1-1.49-.46,7.36,7.36,0,0,1-.86-.35v1.49a1.41,1.41,0,0,0,0,.28,2.57,2.57,0,0,0,.48.88l0,0a4.88,4.88,0,0,0,.92.88c.19.14.39.28.6.41s.44.26.69.39.69.32,1.08.47a17.39,17.39,0,0,0,4.12,1,22.28,22.28,0,0,0,2.8.19,22.24,22.24,0,0,0,2.79-.19,17.61,17.61,0,0,0,4.13-1c.21-.08.39-.17.58-.26l.32-.14.17-.07q.38-.2.69-.39a7,7,0,0,0,.6-.41,4.53,4.53,0,0,0,.94-.9,2.73,2.73,0,0,0,.21-.3,1.67,1.67,0,0,0,.31-.86V15.1A2.05,2.05,0,0,1,28.25,16.26Z" style="fill: #db9f0c"/>
    <path d="M26.38,14.31c-.08.12-.16.25-.25.37A6,6,0,0,1,25,15.78a8.92,8.92,0,0,1-1.44.88,11.74,11.74,0,0,1-1.48.62,19.13,19.13,0,0,1-4,1,23.65,23.65,0,0,1-2.92.19,23.65,23.65,0,0,1-2.92-.19,21.72,21.72,0,0,1-2.55-.5L10,18a16.28,16.28,0,0,0,5,1.45l.17,0a20.54,20.54,0,0,0,2.8.19,19.68,19.68,0,0,0,2.23-.13c.18,0,.38,0,.56-.06a17.64,17.64,0,0,0,3.66-.84A12.32,12.32,0,0,0,26,18a9,9,0,0,0,1.29-.79,4.55,4.55,0,0,0,.94-.91,2.05,2.05,0,0,0,.52-1.16" style="fill: #f9b400"/>
    <path d="M28.77,15.1a2.18,2.18,0,0,0-.68-1.39,6,6,0,0,0-1.24-1v.2a2,2,0,0,1-.06.47,2.88,2.88,0,0,1-.41.93" style="fill: #f9b400"/>
    <path d="M12.6,14a22.07,22.07,0,0,0,2.51.16,22.24,22.24,0,0,0,2.79-.19l.18,0h0a17.71,17.71,0,0,0,3.92-1c.4-.16.77-.32,1.1-.49a8.16,8.16,0,0,0,1.29-.79l.09-.07a5.3,5.3,0,0,0,.86-.84,2,2,0,0,0,.51-1.16,2.18,2.18,0,0,0-.68-1.39c-1.42-1.56-5-3.13-10.06-3.13s-8.52,1.52-10,3a2.26,2.26,0,0,0-.75,1.47,2,2,0,0,0,.51,1.16,4.9,4.9,0,0,0,1,.91,8.16,8.16,0,0,0,1.29.79,11.73,11.73,0,0,0,1.54.63c.2.07.4.15.62.21a18.87,18.87,0,0,0,3,.64l.26,0Z" style="fill: #f9b400"/>
  </g>
  <path d="M25.34,10.75a5.3,5.3,0,0,1-.86.84l-.09.07a8.16,8.16,0,0,1-1.29.79c-.33.17-.7.33-1.1.49a17.71,17.71,0,0,1-3.92,1h0l-.18,0a22.24,22.24,0,0,1-2.79.19A22.07,22.07,0,0,1,12.6,14h0l-.26,0a18.87,18.87,0,0,1-3-.64c-.22-.06-.42-.14-.62-.21a11.73,11.73,0,0,1-1.54-.63,8.16,8.16,0,0,1-1.29-.79,4.9,4.9,0,0,1-1-.91,2,2,0,0,1-.51-1.16v3.32a2,2,0,0,0,.51,1.16,5.21,5.21,0,0,0,1,.91l.46.31c.25.16.52.32.83.48l.17.07.32.15a15.76,15.76,0,0,0,2.18.76,19.25,19.25,0,0,0,2.53.49,22.24,22.24,0,0,0,2.79.19,22.24,22.24,0,0,0,2.79-.19,19.25,19.25,0,0,0,2.53-.49,13.73,13.73,0,0,0,2.67-1A9,9,0,0,0,24.39,15a4.65,4.65,0,0,0,.87-.83l.08-.08a2.5,2.5,0,0,0,.46-.86,1,1,0,0,0,.05-.3V9.59A2,2,0,0,1,25.34,10.75Z" style="fill: #db9f0c"/>
</svg>
