<svg id="aba1ebfc-b46d-49fb-8621-8b638ca93da6" data-name="Calque 1" xmlns="http://www.w3.org/2000/svg" width="32" height="32" viewBox="0 0 32 32">
  <title>field-80-IconeAjusterIlot</title>
  <polyline points="24.95 16.13 31.16 6.93 13.37 0.9 8.38 8.13" style="fill: #fff;stroke: #77787a;stroke-miterlimit: 10"/>
  <polygon points="21.3 5.63 20.15 5.23 18.67 7.66 16.37 6.86 17.91 10.07 22.13 8.87 19.82 8.06 21.3 5.63" style="fill: #77787a"/>
  <path d="M8.42,7.23l-7.66,11L15.27,31.33,25.9,15.66Zm6.66,22.58-13-11.72L8.79,8.45l15.59,7.69Z" style="fill: #b71236"/>
  <polygon points="24.38 16.14 8.79 8.45 2.08 18.09 15.08 29.81 24.38 16.14" style="fill: #fff"/>
  <rect x="11.5" y="-0.01" width="4" height="4" style="fill: #77787a"/>
  <rect x="13" y="28" width="4" height="4" style="fill: #516d53"/>
  <rect y="16.39" width="4" height="4" style="fill: #516d53"/>
  <rect x="28" y="5.23" width="4" height="4" style="fill: #77787a"/>
  <rect x="13" y="28" width="4" height="4" style="fill: #77787a"/>
  <rect y="16.39" width="4" height="4" style="fill: #77787a"/>
</svg>
