<svg id="afd0ae24-73d6-4b38-be0a-455f067983e0" data-name="Calque 1" xmlns="http://www.w3.org/2000/svg" width="32" height="32" viewBox="0 0 32 32">
  <title>doc-44-IconeInventaire</title>
  <g>
    <path d="M25.92,6.28,20.38.74c-.06-.06-.14-.11-.21-.17s.15.11.21.17Z" style="fill: #fff"/>
    <path d="M25.22,7,19.67,1.45A1.5,1.5,0,0,0,18.61,1H5.16a1.5,1.5,0,0,0-1.5,1.5v27A1.5,1.5,0,0,0,5.16,31h19a1.51,1.51,0,0,0,1.51-1.5V25.4l-.51.51A5.76,5.76,0,0,1,22,27.71l-4.26,1a2.78,2.78,0,0,1-.58.06,2.5,2.5,0,0,1-2.44-3.05l1-4.37a6.35,6.35,0,0,1,1.78-3l6.73-6.72a3.68,3.68,0,0,1,1.41-.89V8.05A1.5,1.5,0,0,0,25.22,7Z" style="fill: #fff"/>
    <path d="M4.18.21a2.45,2.45,0,0,1,1-.2A2.45,2.45,0,0,0,4.18.21Z" style="fill: #fff"/>
    <path d="M5.16,32a2.45,2.45,0,0,1-1-.2A2.45,2.45,0,0,0,5.16,32Z" style="fill: #fff"/>
    <path d="M26.66,29.51a2.44,2.44,0,0,1-.2,1A2.44,2.44,0,0,0,26.66,29.51Z" style="fill: #868789"/>
    <path d="M2.85,30.48a2.62,2.62,0,0,1-.19-1A2.62,2.62,0,0,0,2.85,30.48Z" style="fill: #868789"/>
    <path d="M19.57.2a2.49,2.49,0,0,1,.6.37A2.49,2.49,0,0,0,19.57.2Z" style="fill: #868789"/>
    <path d="M25.66,29.51A1.51,1.51,0,0,1,24.15,31h-19a1.5,1.5,0,0,1-1.5-1.5v-27A1.5,1.5,0,0,1,5.16,1H18.61a1.5,1.5,0,0,1,1.06.44L25.22,7a1.5,1.5,0,0,1,.44,1.06v2.62a3.3,3.3,0,0,1,1-.21V8.05a2.5,2.5,0,0,0-.74-1.77L20.38.74c-.06-.06-.14-.11-.21-.17a2.49,2.49,0,0,0-.6-.37,2.61,2.61,0,0,0-1-.19H5.16a2.45,2.45,0,0,0-1,.2,2.51,2.51,0,0,0-1.52,2.3v27a2.62,2.62,0,0,0,.19,1,2.51,2.51,0,0,0,1.33,1.33,2.45,2.45,0,0,0,1,.2h19a2.5,2.5,0,0,0,2.31-1.53,2.44,2.44,0,0,0,.2-1V24.4l-1,1Z" style="fill: #868789"/>
  </g>
  <path d="M25.35,7.15H19.16v-6A1.5,1.5,0,0,0,18.61,1h-.45V7.65a.5.5,0,0,0,.5.5h7v-.1A1.47,1.47,0,0,0,25.35,7.15Z" style="fill: #d7d8d9"/>
  <rect x="6.99" y="8" width="5" height="5" style="fill: #c5c6c8"/>
  <rect x="6.99" y="23" width="5" height="5" style="fill: #c5c6c8"/>
  <polyline points="6.99 16.73 9.56 19.31 14.14 14.73" style="fill: none;stroke: #0499d1;stroke-miterlimit: 10;stroke-width: 2.32997989654541px"/>
  <g>
    <path d="M17.18,26.75a.5.5,0,0,1-.35-.14.49.49,0,0,1-.14-.47l1-4.35a4.39,4.39,0,0,1,1.26-2.09L25.66,13a1.88,1.88,0,0,1,2.65,0l2.15,2.15A1.86,1.86,0,0,1,31,16.45a1.82,1.82,0,0,1-.55,1.32L23.74,24.5a3.84,3.84,0,0,1-2.11,1.25l-4.34,1ZM27,13.42a.84.84,0,0,0-.62.26L19.64,20.4a3.28,3.28,0,0,0-1,1.62l-.82,3.57,3.58-.81h0a2.87,2.87,0,0,0,1.58-1l6.73-6.73a.88.88,0,0,0,0-1.23L27.6,13.68A.83.83,0,0,0,27,13.42Z" style="fill: #0499d1"/>
    <path d="M17.83,23.54l2.09,2.08a20,20,0,0,1-2.42.31A21.52,21.52,0,0,1,17.83,23.54Z" style="fill: #0499d1"/>
    <path d="M25.12,14.22,18.54,20.8l4.05,4.06,6.59-6.59ZM22.76,23.3l-.82-.82,5-5,.81.82Z" style="fill: #0499d1"/>
  </g>
</svg>
