<svg id="a4f54f5d-3f7f-49dd-8dd4-d84e12ff443e" data-name="Calque 1" xmlns="http://www.w3.org/2000/svg" width="32" height="32" viewBox="0 0 32 32">
  <title>products-65-IconeCahierDeFerti</title>
  <g>
    <rect x="0.37" y="3.38" width="28.23" height="16.23" style="fill: #fff"/>
    <path d="M28.22,3.77V19.23H.76V3.77H28.22M29,3H0V20H29V3Z" style="fill: #868789"/>
  </g>
  <rect x="2.99" y="14" width="9" height="1" style="fill: #c5c6c8"/>
  <rect x="2.99" y="16" width="9" height="1" style="fill: #c5c6c8"/>
  <rect x="2.99" y="10" width="9" height="1" style="fill: #c5c6c8"/>
  <rect x="2.99" y="12" width="9" height="1" style="fill: #c5c6c8"/>
  <rect x="2.99" y="6" width="9" height="1" style="fill: #c5c6c8"/>
  <rect x="2.99" y="8" width="9" height="1" style="fill: #c5c6c8"/>
  <rect x="16.99" y="6" width="9" height="1" style="fill: #c5c6c8"/>
  <rect x="16.99" y="8" width="9" height="1" style="fill: #c5c6c8"/>
  <rect x="16.99" y="10" width="2" height="1" style="fill: #c5c6c8"/>
  <rect x="13.99" y="4" width="1" height="15" style="fill: #868789"/>
  <path d="M9.65,24.08c0,2.44,5,4.42,11.17,4.42S32,26.52,32,24.08,24.28,11.27,20.82,11.27,9.65,21.63,9.65,24.08Z" style="fill: #927768"/>
</svg>
