<svg id="af7b0368-0d75-4807-a935-6a221e1bb304" data-name="Calque 1" xmlns="http://www.w3.org/2000/svg" width="32" height="32" viewBox="0 0 32 32">
  <title>print-12-IconeSaisieEtat</title>
  <polygon points="17.98 5.99 22.3 5.99 22.19 4.99 18.91 1.15 17.98 0.87 17.98 5.99" style="fill: #cea04e"/>
  <polygon points="19.98 7.99 24.3 7.99 24.19 6.99 20.91 3.15 19.98 2.87 19.98 7.99" style="fill: #cea04e"/>
  <polygon points="21.98 9.99 26.3 9.99 26.19 8.99 22.91 5.14 21.98 4.87 21.98 9.99" style="fill: #cea04e"/>
  <path d="M6.19,2H18.33l-.45-.53a1.21,1.21,0,0,0-1-.47H4.19A1.21,1.21,0,0,0,3,2.2V25.78A1.2,1.2,0,0,0,4,27V4.2A2.21,2.21,0,0,1,6.19,2Z" style="fill: #fcdba2"/>
  <polygon points="19.79 2.18 18.65 0.82 19.79 2.18 19.79 2.18" style="fill: #fcdba2"/>
  <path d="M2,2.2a2,2,0,0,1,.18-.86A2,2,0,0,0,2,2.2Z" style="fill: #cea04e"/>
  <path d="M3.33,27.82a2.42,2.42,0,0,1-.7-.48A2.42,2.42,0,0,0,3.33,27.82Z" style="fill: #cea04e"/>
  <path d="M2.63,27.34a2.1,2.1,0,0,1-.47-.7A2.1,2.1,0,0,0,2.63,27.34Z" style="fill: #cea04e"/>
  <path d="M2.16,1.34A2.15,2.15,0,0,1,2.63.63,2.15,2.15,0,0,0,2.16,1.34Z" style="fill: #cea04e"/>
  <path d="M17.42,0a2.2,2.2,0,0,1,1.23.78A2.2,2.2,0,0,0,17.42,0Z" style="fill: #cea04e"/>
  <path d="M2.63.63a2.39,2.39,0,0,1,.7-.47A2.39,2.39,0,0,0,2.63.63Z" style="fill: #cea04e"/>
  <path d="M2.16,26.64A2,2,0,0,1,2,25.78,2,2,0,0,0,2.16,26.64Z" style="fill: #cea04e"/>
  <path d="M4,27.78V27a1.2,1.2,0,0,1-1-1.17V2.2A1.21,1.21,0,0,1,4.19,1H16.92a1.21,1.21,0,0,1,1,.47l.45.53h.59a2.73,2.73,0,0,1,.5.05,1.66,1.66,0,0,1,.37.14L18.65.82A2.2,2.2,0,0,0,17.42,0a2.73,2.73,0,0,0-.5,0H4.19a2.2,2.2,0,0,0-.86.17,2.39,2.39,0,0,0-.7.47,2.15,2.15,0,0,0-.47.71A2,2,0,0,0,2,2.2V25.78a2,2,0,0,0,.18.86,2.1,2.1,0,0,0,.47.7,2.42,2.42,0,0,0,.7.48A2.51,2.51,0,0,0,4,28c0-.06,0-.12,0-.19Z" style="fill: #cea04e"/>
  <polygon points="21.79 4.18 20.65 2.82 21.79 4.18 21.79 4.18" style="fill: #fcdba2"/>
  <path d="M5,28a1.19,1.19,0,0,0,1,1V28Z" style="fill: #fcdba2"/>
  <path d="M8.19,4H20L19.2,3a1.27,1.27,0,0,0-.28,0H6.19A1.21,1.21,0,0,0,5,4.2V27H6V6.2A2.21,2.21,0,0,1,8.19,4Z" style="fill: #fcdba2"/>
  <path d="M20.33,4l-.45-.53A1.21,1.21,0,0,0,19.2,3L20,4Z" style="fill: #fcdba2"/>
  <path d="M6,27H5v.79A1.3,1.3,0,0,0,5,28H6Z" style="fill: #fcdba2"/>
  <path d="M20.29,2.47a1.92,1.92,0,0,0-.5-.29h0A1.92,1.92,0,0,1,20.29,2.47Z" style="fill: #cea04e"/>
  <path d="M4,28A2.27,2.27,0,0,0,4.36,29,2.27,2.27,0,0,1,4,28Z" style="fill: #cea04e"/>
  <path d="M19.79,2.18A1.66,1.66,0,0,0,19.42,2a1.66,1.66,0,0,1,.37.14Z" style="fill: #cea04e"/>
  <path d="M4,27.78H4c0,.07,0,.13,0,.19H4C4,27.91,4,27.85,4,27.78Z" style="fill: #cea04e"/>
  <path d="M6,29.78V29a1.19,1.19,0,0,1-1-1H4.19L4,28A2.27,2.27,0,0,0,4.36,29,2.22,2.22,0,0,0,6,30c0-.06,0-.12,0-.19Z" style="fill: #cea04e"/>
  <path d="M21.36,4a2,2,0,0,1,.43.14L20.65,2.82a2.38,2.38,0,0,0-.36-.35,1.92,1.92,0,0,0-.5-.29Z" style="fill: #cea04e"/>
  <polygon points="21.36 4.04 19.79 2.18 19.79 2.18 21.36 4.04 21.36 4.04" style="fill: #cea04e"/>
  <path d="M5,27V4.2A1.21,1.21,0,0,1,6.19,3H18.92a1.27,1.27,0,0,1,.28,0l-.87-1H6.19A2.21,2.21,0,0,0,4,4.2V27a1.55,1.55,0,0,0,.21,0Z" style="fill: #cea04e"/>
  <path d="M19.88,3.46l.45.53h.59a2.12,2.12,0,0,1,.44,0L19.79,2.18A1.66,1.66,0,0,0,19.42,2a2.73,2.73,0,0,0-.5-.05h-.59l.87,1A1.21,1.21,0,0,1,19.88,3.46Z" style="fill: #cea04e"/>
  <path d="M5,27H4.19A1.55,1.55,0,0,1,4,27v.83c0,.07,0,.13,0,.19l.19,0H5a1.3,1.3,0,0,1,0-.21Z" style="fill: #cea04e"/>
  <path d="M25,27.54v.24h0a2.19,2.19,0,0,1-.64,1.56,2.42,2.42,0,0,1-.7.48,2.27,2.27,0,0,1-.86.17H18.94l-1.33.3a2.25,2.25,0,0,1-.58.07,2.46,2.46,0,0,1-1.3-.37H7a1.21,1.21,0,0,0,1.17,1H24.78A1.21,1.21,0,0,0,26,29.78V26.54l-1,1Z" style="fill: #fac262"/>
  <path d="M25.72,10,25,9.14v3.38a4.07,4.07,0,0,1,1-.39V10.76A1.2,1.2,0,0,0,25.72,10Z" style="fill: #fac262"/>
  <path d="M7,28v1h7.83a2.48,2.48,0,0,1-.27-1Z" style="fill: #fac262"/>
  <path d="M24,13.28V8.76A1.2,1.2,0,0,0,23.72,8L23,7.14v7.14Z" style="fill: #fac262"/>
  <path d="M23.52,28.71l-.41.21A1.07,1.07,0,0,0,23.52,28.71Z" style="fill: #fac262"/>
  <path d="M15.91,22H12V21h4.48a8.72,8.72,0,0,1,.91-1.1l.91-.9H12V18h7.3l2-2H12V15H22V6.76A1.2,1.2,0,0,0,21.72,6l-.86-1H8.19A1.21,1.21,0,0,0,7,6.2V27h7.69l.92-4A5,5,0,0,1,15.91,22Z" style="fill: #fac262"/>
  <path d="M14.59,27.31l.08-.32H7v1h7.56A2.57,2.57,0,0,1,14.59,27.31Z" style="fill: #fac262"/>
  <path d="M20.92,5h-.06l.86,1a1.2,1.2,0,0,1,.26.75V15h0v.29l1-1V7.14L21.2,5A1.27,1.27,0,0,0,20.92,5Z" style="fill: #fac262"/>
  <path d="M25,27.78h0a2.19,2.19,0,0,1-.64,1.56A2.19,2.19,0,0,0,25,27.78Z" style="fill: #fac262"/>
  <path d="M24.34,29.34a2.42,2.42,0,0,1-.7.48A2.42,2.42,0,0,0,24.34,29.34Z" style="fill: #fac262"/>
  <path d="M24.69,28.3q-.3,0-.6,0a5.13,5.13,0,0,1-.57.38,1.07,1.07,0,0,1-.41.21,4.75,4.75,0,0,1-1.24.4L18.94,30h3.84a2.27,2.27,0,0,0,.86-.17,2.42,2.42,0,0,0,.7-.48A2.19,2.19,0,0,0,25,27.78v-.24a8.8,8.8,0,0,1-.89.79Q24.39,28.33,24.69,28.3Z" style="fill: #fac262"/>
  <path d="M15.26,29.63a2.56,2.56,0,0,1-.45-.64H7v.79A1.3,1.3,0,0,0,7,30h8.71A3.09,3.09,0,0,1,15.26,29.63Z" style="fill: #fac262"/>
  <path d="M23,7.14l.74.87a1.2,1.2,0,0,1,.26.75v4.52l.12-.12a4.21,4.21,0,0,1,.88-.64V9.14L23,6.77Z" style="fill: #fac262"/>
  <path d="M21.2,5,23,7.14V6.77l-1.1-1.31A1.21,1.21,0,0,0,21.2,5Z" style="fill: #fac262"/>
  <path d="M6,30A2.27,2.27,0,0,0,6.36,31,2.27,2.27,0,0,1,6,30Z" style="fill: #cea04e"/>
  <path d="M26.34,31.34a2.42,2.42,0,0,1-.7.48A2.42,2.42,0,0,0,26.34,31.34Z" style="fill: #cea04e"/>
  <path d="M27,29.78h0a2.19,2.19,0,0,1-.64,1.56A2.19,2.19,0,0,0,27,29.78Z" style="fill: #cea04e"/>
  <path d="M26.5,9.38a2.19,2.19,0,0,1,.36.65A2.19,2.19,0,0,0,26.5,9.38Z" style="fill: #cea04e"/>
  <path d="M6,29.78H6c0,.07,0,.13,0,.19H6C6,29.91,6,29.85,6,29.78Z" style="fill: #cea04e"/>
  <path d="M26,29.78A1.21,1.21,0,0,1,24.78,31H8.19A1.21,1.21,0,0,1,7,30H6.19L6,30A2.27,2.27,0,0,0,6.36,31a2.23,2.23,0,0,0,1.83,1H24.78a2.27,2.27,0,0,0,.86-.17,2.42,2.42,0,0,0,.7-.48A2.19,2.19,0,0,0,27,29.78V25.54l-1,1Z" style="fill: #cea04e"/>
  <path d="M24.71,7.69a2.24,2.24,0,0,1,.24.7,2.31,2.31,0,0,1,0,.37h0v.38l.74.87a1.2,1.2,0,0,1,.26.75v1.37a4.12,4.12,0,0,1,.86-.1H27V10.76a2.28,2.28,0,0,0-.12-.73,2.19,2.19,0,0,0-.36-.65L22.65,4.82a2.16,2.16,0,0,0-.86-.64l2.71,3.2A2.82,2.82,0,0,1,24.71,7.69Z" style="fill: #cea04e"/>
  <path d="M7,29V28H6v1a1.55,1.55,0,0,0,.21,0Z" style="fill: #cea04e"/>
  <path d="M24.5,7.38a2.82,2.82,0,0,1,.21.31,2.82,2.82,0,0,0-.21-.31l-2.71-3.2h0Z" style="fill: #cea04e"/>
  <path d="M7,6.2A1.21,1.21,0,0,1,8.19,5H20.86L20,4H8.19A2.21,2.21,0,0,0,6,6.2V27H7Z" style="fill: #cea04e"/>
  <rect x="5.98" y="26.99" width="1" height="1" style="fill: #cea04e"/>
  <path d="M20.86,5h.06a1.27,1.27,0,0,1,.28,0l-.87-1H20Z" style="fill: #cea04e"/>
  <path d="M25,8.76a2.31,2.31,0,0,0,0-.37,2.31,2.31,0,0,1,0,.37Z" style="fill: #cea04e"/>
  <path d="M7,29H6.19A1.55,1.55,0,0,1,6,29v.83c0,.07,0,.13,0,.19l.19,0H7a1.3,1.3,0,0,1,0-.21Z" style="fill: #cea04e"/>
  <path d="M22.71,5.69A2.24,2.24,0,0,1,23,6.76h0l2,2.37V8.76a2.31,2.31,0,0,0,0-.37,2.24,2.24,0,0,0-.24-.7,2.82,2.82,0,0,0-.21-.31l-2.71-3.2A2,2,0,0,0,21.36,4L22.5,5.38A2.82,2.82,0,0,1,22.71,5.69Z" style="fill: #cea04e"/>
  <path d="M22.5,5.38a2.82,2.82,0,0,1,.21.31,2.82,2.82,0,0,0-.21-.31L21.36,4h0Z" style="fill: #cea04e"/>
  <path d="M21.88,5.46,23,6.77h0a2.24,2.24,0,0,0-.27-1.07,2.82,2.82,0,0,0-.21-.31L21.36,4a2.12,2.12,0,0,0-.44,0h-.59l.87,1A1.21,1.21,0,0,1,21.88,5.46Z" style="fill: #cea04e"/>
  <polygon points="11.98 17.99 11.98 18.99 18.27 18.99 19.27 17.99 11.98 17.99" style="fill: #fff"/>
  <path d="M12,21v1h3.93a5.54,5.54,0,0,1,.55-1Z" style="fill: #fff"/>
  <polygon points="11.98 15.99 21.27 15.99 21.98 15.28 21.98 14.99 11.98 14.99 11.98 15.99" style="fill: #fff"/>
  <rect x="21.98" y="14.99" height="0.29" style="fill: #fff"/>
  <path d="M24.09,28.33h0q.3,0,.6,0Q24.39,28.33,24.09,28.33Z" style="fill: #fac262"/>
  <path d="M24,28.33Z" style="fill: #0499d1"/>
  <path d="M17,28.36a.47.47,0,0,1-.35-.15.52.52,0,0,1-.14-.46l1-4.35a4.47,4.47,0,0,1,1.26-2.1l6.73-6.72a1.86,1.86,0,0,1,2.64,0l2.15,2.15a1.82,1.82,0,0,1,.55,1.32,1.86,1.86,0,0,1-.55,1.33L23.59,26.1a3.76,3.76,0,0,1-2.11,1.26l-4.34,1ZM26.84,15a.89.89,0,0,0-.62.25L19.5,22a3.31,3.31,0,0,0-1,1.62L17.7,27.2l3.57-.82h0a2.84,2.84,0,0,0,1.58-1l6.73-6.73a.88.88,0,0,0,0-1.23l-2.16-2.16A.86.86,0,0,0,26.84,15Z" style="fill: #0499d1"/>
  <path d="M17.68,25.15l2.09,2.08a21.86,21.86,0,0,1-2.42.31A21.52,21.52,0,0,1,17.68,25.15Z" style="fill: #0499d1"/>
  <path d="M25,15.83l-6.58,6.58,4.05,4.06L29,19.88Zm-2.36,9.08-.82-.82,5-5,.81.81Z" style="fill: #0499d1"/>
  <polygon points="21.98 9.99 26.3 9.99 26.19 8.99 22.91 5.14 21.98 4.87 21.98 9.99" style="fill: #cea04e"/>
</svg>
