<svg id="bf596658-2205-43e4-886a-dc6d85237cac" data-name="Calque 1" xmlns="http://www.w3.org/2000/svg" width="32" height="32" viewBox="0 0 32 32">
  <title>vegetal-07-IconeTomate</title>
  <path d="M20.36,9.31a4.39,4.39,0,0,1,1.26,2.06,1,1,0,0,1-.49,1.07A1,1,0,0,1,20,12.3a6.39,6.39,0,0,0-1.19-.79,6.36,6.36,0,0,1,0,2.36,1,1,0,0,1-.93.8,1,1,0,0,1-1-.7,6.68,6.68,0,0,0-1.72-2.66,5.71,5.71,0,0,0-2.51,2.95,1,1,0,0,1-1,.71h0a1,1,0,0,1-.95-.68,4.57,4.57,0,0,1,.08-3.6,14.08,14.08,0,0,0-1.7.42,9.54,9.54,0,1,0,11.25-1.8Z" style="fill: #b71236"/>
  <path d="M16.7,9.84a7.53,7.53,0,0,1,3.94,1.72s-.42-2.09-3.63-3c0,0,.28-1.15,3.4-1.18A5.38,5.38,0,0,0,18.2,6.9a3.11,3.11,0,0,0-2.81,1,5.19,5.19,0,0,0-5.14-1.32A3.67,3.67,0,0,1,13.3,8.19S9.64,8.12,8,10.46a16,16,0,0,1,5.2-1c-.34.56-2.57,1.46-1.53,4.54a6.94,6.94,0,0,1,3.61-3.87,7.82,7.82,0,0,1,2.53,3.57S18.34,11.18,16.7,9.84Z" style="fill: #107230"/>
</svg>
