<svg id="acd3faf7-d510-469f-b5f8-658af1b87b0c" data-name="Calque 1" xmlns="http://www.w3.org/2000/svg" width="32" height="32" viewBox="0 0 32 32">
  <title>doc-88-IconeSuivBilanFactureVente</title>
  <g>
    <path d="M14,31.51A1.47,1.47,0,0,1,12.49,30V11A1.48,1.48,0,0,1,14,9.51h9.19a1.48,1.48,0,0,1,1.05.44l4.85,4.84a1.46,1.46,0,0,1,.43,1V30A1.47,1.47,0,0,1,28,31.51Z" style="fill: #fff"/>
    <path d="M23.16,10a.94.94,0,0,1,.69.29l4.85,4.84a1,1,0,0,1,.29.69V30a1,1,0,0,1-1,1H14a1,1,0,0,1-1-1V11a1,1,0,0,1,1-1h9.19m0-1H14a2,2,0,0,0-2,2V30a2,2,0,0,0,2,2H28a2,2,0,0,0,2-2V15.83a2,2,0,0,0-.58-1.4L24.56,9.59A2,2,0,0,0,23.16,9Z" style="fill: #868789"/>
  </g>
  <line x1="19.73" y1="19.44" x2="24.65" y2="19.44" style="fill: none;stroke: #b8b7b8;stroke-linecap: round;stroke-linejoin: round"/>
  <line x1="19.73" y1="23.44" x2="24.65" y2="23.44" style="fill: none;stroke: #b8b7b8;stroke-linecap: round;stroke-linejoin: round"/>
  <line x1="19.73" y1="27.44" x2="24.65" y2="27.44" style="fill: none;stroke: #b8b7b8;stroke-linecap: round;stroke-linejoin: round"/>
  <circle cx="16.99" cy="19.51" r="1" style="fill: #c5c6c8"/>
  <circle cx="16.99" cy="23.51" r="1" style="fill: #c5c6c8"/>
  <circle cx="16.99" cy="27.51" r="1" style="fill: #c5c6c8"/>
  <g>
    <path d="M28.86,15.38a.91.91,0,0,0-.16-.24L23.85,10.3a.8.8,0,0,0-.36-.22v5.3Z" style="fill: none"/>
    <path d="M22.49,15.88V10H14a1,1,0,0,0-1,1V30a1,1,0,0,0,1,1H28a1,1,0,0,0,1-1V16.38H23A.5.5,0,0,1,22.49,15.88Z" style="fill: none"/>
    <path d="M28.86,15.38H23.49v-5.3a.88.88,0,0,0-.33-.07h-.67v5.87a.5.5,0,0,0,.5.5h6v-.55A.9.9,0,0,0,28.86,15.38Z" style="fill: #d7d8d9"/>
  </g>
  <g>
    <path d="M20.33,5.78,15.16,1H5A1,1,0,0,0,4,2V21a1,1,0,0,0,.08.38A1,1,0,0,0,5,22h5V11a4,4,0,0,1,4-4h6A2.13,2.13,0,0,0,20.33,5.78Z" style="fill: #fff"/>
    <path d="M4,21a1,1,0,0,0,.08.38A1,1,0,0,1,4,21Z" style="fill: #fff"/>
    <path d="M5,22a1,1,0,0,1-.9-.59A1,1,0,0,1,4,21H4V2A1,1,0,0,1,5,1L13.79,1V1h.64a.87.87,0,0,1,.39.1.82.82,0,0,1,.25.16l4.66,4.65.08.13a.85.85,0,0,1,.18.51V7h1V6.55a1.5,1.5,0,0,0,0-.37,1.78,1.78,0,0,0-.28-.68,1.68,1.68,0,0,0-.24-.29L15.78.56A1.9,1.9,0,0,0,14.43,0H5A2,2,0,0,0,3,2V21a2,2,0,0,0,2,2h5V22Z" style="fill: #fa826d"/>
  </g>
  <path d="M19.81,6h-5V1.1a.87.87,0,0,0-.39-.1h-.57V6.52a.48.48,0,0,0,.48.48H20V6.55A.85.85,0,0,0,19.81,6Z" style="fill: #fcbeb3"/>
  <rect x="6.99" y="9.38" width="3" height="3" style="fill: #fac56d"/>
  <polygon points="9.99 14.38 9.99 13.38 6.99 13.38 6.99 20.38 9.99 20.38 9.99 19.38 7.99 19.38 7.99 14.38 9.99 14.38" style="fill: #fcbeb3"/>
</svg>
