<svg id="e18860e4-b8da-4c94-a6cb-3409e2d32988" data-name="Calque 1" xmlns="http://www.w3.org/2000/svg" width="32" height="32" viewBox="0 0 32 32">
  <title>vehicles-62-IconeAjoutIntervention</title>
  <g>
    <path d="M6.8,8.73a6.78,6.78,0,1,0,6.78,6.78A6.78,6.78,0,0,0,6.8,8.73Zm0,11.12a4.34,4.34,0,1,1,4.34-4.34A4.35,4.35,0,0,1,6.8,19.85Z" style="fill: #6f7071"/>
    <path d="M29,12.24A5.29,5.29,0,0,0,21.51,16a5.89,5.89,0,0,0-.1,1A5.3,5.3,0,1,0,29,12.24Zm-2.32,8.14A3.39,3.39,0,1,1,30.09,17,3.39,3.39,0,0,1,26.71,20.38Z" style="fill: #6f7071"/>
    <path d="M28.13,8.73c-.84-1.1-10.66-1.56-10.66-1.56l-1-6.2A18.19,18.19,0,0,0,11,.07,22.24,22.24,0,0,0,6.12.39l-.48.84,1.16.71L6.12,7A7.76,7.76,0,0,0,1.44,9.11l.4.71a7.55,7.55,0,0,1,12.52,5.69,7.37,7.37,0,0,1-.4,2.4l.54.25a4.94,4.94,0,0,1,2.87-.65,8.12,8.12,0,0,1,3.33.65l0-2.2a6,6,0,0,1,8.2-4.61A6.38,6.38,0,0,0,28.13,8.73ZM11.57,6.26,8.64,5.42l.6-3.26H14.5l.66,4.1Z" style="fill: #e1001a"/>
  </g>
  <g>
    <path d="M17.34,31.79a6.73,6.73,0,1,1,6.72-6.72,6.72,6.72,0,0,1-6.72,6.72" style="fill: #5bab26"/>
    <rect x="16.62" y="20.71" width="1.5" height="9.02" style="fill: #fff"/>
    <rect x="12.86" y="24.34" width="8.95" height="1.5" style="fill: #fff"/>
  </g>
</svg>
