<svg id="ea9b1bcd-cebc-4a0a-852f-0705021c5e41" data-name="Calque 1" xmlns="http://www.w3.org/2000/svg" width="32" height="32" viewBox="0 0 32 32">
  <title>equipment-56-262D06CE</title>
  <path d="M29.2,5.9l-.42-.42h0a12.48,12.48,0,0,0-1.89,1.69A11.12,11.12,0,0,1,24.82,9h0a5,5,0,0,1-1.25-.67,7.43,7.43,0,0,1-1.65-1.66,5,5,0,0,1-.68-1.24A11.12,11.12,0,0,1,23,3.33a10.65,10.65,0,0,0,1.69-1.91L24.3,1a.86.86,0,0,0-.5-.09,7.41,7.41,0,0,0-1.67.24,8,8,0,0,0-3.19,1.78,5.92,5.92,0,0,0-1.4,3.47,10.15,10.15,0,0,1-.46,2.91c-.14.29-3.69,3.89-6.12,6.27A18.21,18.21,0,0,1,9.44,17a10.15,10.15,0,0,1-2.91.46,5.92,5.92,0,0,0-3.47,1.4A8.06,8.06,0,0,0,1.27,22a4.16,4.16,0,0,0-.14,2.18l.42.41h0a12.57,12.57,0,0,0,1.9-1.7,11.69,11.69,0,0,1,2.05-1.79h0a5,5,0,0,1,1.25.68,7.64,7.64,0,0,1,1.66,1.65,5,5,0,0,1,.67,1.25A11,11,0,0,1,7.3,26.77a10.81,10.81,0,0,0-1.69,1.9l.42.42a.81.81,0,0,0,.5.1A7.94,7.94,0,0,0,8.2,29a8,8,0,0,0,3.19-1.78A6,6,0,0,0,12.8,23.7a10.25,10.25,0,0,1,.45-2.92c.14-.28,3.69-3.87,6.12-6.26.82-.79,1.42-1.34,1.52-1.4a10.38,10.38,0,0,1,2.92-.45,6,6,0,0,0,3.47-1.41,8,8,0,0,0,1.78-3.19A4,4,0,0,0,29.2,5.9Z" style="fill: #8b8c8e"/>
  <path d="M23.72,29.61a6.73,6.73,0,1,1,6.72-6.73A6.74,6.74,0,0,1,23.72,29.61Z" style="fill: #8c6239"/>
  <path d="M19.49,20.23A1.84,1.84,0,0,1,20,18.85a2.25,2.25,0,0,1,2.9,0,1.85,1.85,0,0,1,.56,1.41v.46a1.82,1.82,0,0,1-.56,1.38,2,2,0,0,1-1.44.52A2,2,0,0,1,20,22.1a1.85,1.85,0,0,1-.55-1.42Zm1.21.49a.86.86,0,0,0,.22.61.75.75,0,0,0,.58.24.71.71,0,0,0,.56-.24.9.9,0,0,0,.21-.63v-.47a.87.87,0,0,0-.21-.61.73.73,0,0,0-.58-.24.74.74,0,0,0-.56.23.94.94,0,0,0-.22.65ZM21.86,27l-.9-.49,4.52-7.22.89.48Zm2-1.58a1.82,1.82,0,0,1,.56-1.38,2,2,0,0,1,1.45-.52,2.08,2.08,0,0,1,1.46.51,1.88,1.88,0,0,1,.55,1.43v.46a1.83,1.83,0,0,1-.54,1.37,2.28,2.28,0,0,1-2.92,0,1.84,1.84,0,0,1-.56-1.4Zm1.22.5a.84.84,0,0,0,.23.59.72.72,0,0,0,.57.25c.52,0,.78-.28.78-.85v-.49a.88.88,0,0,0-.22-.61.82.82,0,0,0-1.14,0,.85.85,0,0,0-.22.63Z" style="fill: #fff"/>
</svg>
