<svg id="e3f462d1-94c1-4131-bdf5-0ad3a50a085c" data-name="Calque 1" xmlns="http://www.w3.org/2000/svg" width="32" height="32" viewBox="0 0 32 32">
  <title>animals-109-22151476</title>
  <g>
    <path d="M23.18,22.51l-.13,0a12.18,12.18,0,0,1-.26,3.6c.12-.31.25-.69.4-1.17a5.8,5.8,0,0,0,.06-2.44Z" style="fill: none"/>
    <path d="M22,25.07l.14.57c.09-.35.18-.76.29-1.24,0,0,0,0,0-.06a3.3,3.3,0,0,1-.32-.48C22.12,24.27,22.08,24.68,22,25.07Z" style="fill: none"/>
    <path d="M22.57,23.36s0,.06,0,.09a.28.28,0,0,1,0,.09v.35h0q0-.3,0-.63h0S22.57,23.33,22.57,23.36Z" style="fill: none"/>
    <path d="M23.37,26.51v0Z" style="fill: none"/>
    <path d="M23.83,23.89c0-.19.06-.39.09-.61s0-.33,0-.5a1.34,1.34,0,0,0-.23-.13A7.79,7.79,0,0,1,23.83,23.89Z" style="fill: none"/>
    <path d="M23.13,22.19s0,0,.07,0a20.45,20.45,0,0,0-.68-2.65l0,.18A13.11,13.11,0,0,1,23,22.2Z" style="fill: none"/>
    <polygon points="24.38 25.56 24.38 25.56 24.38 25.55 24.38 25.56" style="fill: none"/>
    <path d="M22.29,22.41a1.17,1.17,0,0,1,.25-.11q-.06-.56-.15-1.11C22.36,21.58,22.32,22,22.29,22.41Z" style="fill: none"/>
    <path d="M27.93,25c-.05-.19-.1-.39-.15-.61l0-.12L27.68,24l0-.13c-.09-.35-.18-.71-.27-1.09l0-.1v0l-.06.07c.15,1.05.33,2,.48,2.81l.2-.37v0Z" style="fill: none"/>
    <path d="M27.77,22.1c.17.67.34,1.31.49,1.87,0-.14,0-.28,0-.43v-.11c0-.14,0-.27,0-.41v-.14c0-.12,0-.25,0-.37V21.32Z" style="fill: none"/>
    <path d="M28.14,26l.05,0h0l0-.06Z" style="fill: none"/>
    <path d="M25.48,25.1c0,.23.07.43.09.62l.3,0c-.07-.25-.13-.52-.2-.84Z" style="fill: none"/>
    <path d="M26.2,19.75q-.09.48-.15,1l.18.72Q26.2,20.59,26.2,19.75Z" style="fill: none"/>
    <path d="M25.58,20.55v-.06a11.49,11.49,0,0,0-.67,2.84,5.24,5.24,0,0,1,.41,1l.24-.3A13,13,0,0,1,25.58,20.55Z" style="fill: none"/>
    <path d="M26.38,23.92l-.18.24c.15.64.28,1.14.4,1.53h.09c-.1-.45-.19-1-.26-1.54Z" style="fill: none"/>
    <path d="M26.19,23c-.08-.35-.16-.71-.25-1.06a6.75,6.75,0,0,0,.1,1.53l.2-.24C26.22,23.12,26.21,23.05,26.19,23Z" style="fill: none"/>
  </g>
  <g>
    <path d="M24.38,24.56c0-.21.06-.44.1-.67s0-.36.05-.54a1.58,1.58,0,0,0-.24-.15A9.31,9.31,0,0,1,24.38,24.56Z" style="fill: none"/>
    <path d="M23.67,23.05l-.15,0A13,13,0,0,1,23.25,27c.12-.34.27-.76.43-1.28a6.33,6.33,0,0,0,.07-2.66Z" style="fill: none"/>
    <polygon points="24.98 26.38 24.98 26.37 24.98 26.37 24.98 26.38" style="fill: none"/>
    <path d="M26.29,20.91v-.06a12.64,12.64,0,0,0-.74,3.09A6,6,0,0,1,26,25.08l.26-.33A14.15,14.15,0,0,1,26.29,20.91Z" style="fill: none"/>
    <path d="M23.62,22.69h.07A21,21,0,0,0,23,19.81l0,.2a13.14,13.14,0,0,1,.56,2.7Z" style="fill: none"/>
    <path d="M23,24a.38.38,0,0,0,0,.1.38.38,0,0,0,0,.1.34.34,0,0,1,0,.1v.29h0a5.22,5.22,0,0,0,0-.69h0A.28.28,0,0,0,23,24Z" style="fill: none"/>
    <path d="M26.18,25.88a6.43,6.43,0,0,1,.1.67l.33,0c-.08-.27-.15-.57-.22-.92Z" style="fill: none"/>
    <path d="M22.43,25.85l.15.61c.09-.38.2-.83.32-1.35a.13.13,0,0,1,0-.06,5.26,5.26,0,0,1-.36-.53C22.51,25,22.47,25.42,22.43,25.85Z" style="fill: none"/>
    <path d="M22.7,22.93a1.38,1.38,0,0,1,.27-.11c0-.4-.09-.81-.16-1.21C22.78,22,22.74,22.48,22.7,22.93Z" style="fill: none"/>
    <path d="M23.87,27.41v0Z" style="fill: none"/>
    <path d="M29.32,21.75l-.65.85c.2.74.38,1.43.54,2,0-.15,0-.31,0-.47v-.12c0-.15,0-.3,0-.45v-.15c0-.13,0-.27,0-.4v-1.3Z" style="fill: none"/>
    <path d="M29.08,26.88l.06,0h0l0-.07Z" style="fill: none"/>
    <path d="M27,23.55c-.08-.38-.17-.77-.26-1.16a6.94,6.94,0,0,0,.1,1.68L27,23.8Z" style="fill: none"/>
    <path d="M27,20c-.07.35-.12.71-.17,1.06s.13.52.2.78C27,21.26,27,20.65,27,20Z" style="fill: none"/>
    <path d="M27.17,24.58l-.2.27c.16.7.31,1.25.43,1.67h.1c-.11-.49-.2-1.06-.28-1.68Z" style="fill: none"/>
    <path d="M28.86,25.78c-.06-.21-.11-.43-.17-.67l0-.13-.07-.29,0-.15-.29-1.19,0-.11v0l-.06.08c.16,1.15.35,2.22.52,3.07l.22-.41v0Z" style="fill: none"/>
    <path d="M29.85,27.9c0-.9,0-6.2,0-6.88.41-.54,2-2.74,2.07-2.84-.12.14-1.68,1.56-2.07,2,0-2.2.95-2.83,1.76-4.7-.06.14-2.31,3-2.28,5.3v0l-.85,1.07c-.19-.71-.39-1.45-.6-2.19.29-3.48,2.54-8.45,2.54-8.45a17.28,17.28,0,0,0-2.55,6.55c0-.59.05-1.16.08-1.69l.21-.65-.2.39c.11-2,.24-3.47.24-3.47s0,0,0,0h0a10.67,10.67,0,0,0-1.09,4.48c-.38-1.32-.76-2.54-1.09-3.52a11.76,11.76,0,0,0,.32,1.84l0,.1.06.29,0,.14c0,.1.05.21.07.32l0,.11c0,.12.05.25.08.38v0c.1.44.2.9.32,1.39v.09c-.12.33-.23.67-.32,1-.11.15-.2.29-.3.44a15,15,0,0,0-2.23-5h0l-.08-.1s1.07,2.58,2,5.65a10,10,0,0,0-.89,2,21.68,21.68,0,0,0-2.82-9.26s2.25,6.09,2.2,10a1.24,1.24,0,0,0-.32-.12A10.62,10.62,0,0,0,23,19.51a6.74,6.74,0,0,0,0-.84,1.06,1.06,0,0,0-.09.28,5.42,5.42,0,0,0,0-.62.5.5,0,0,0-.07.16c0,.17,0,.42-.07.7a2.12,2.12,0,0,1-.12-.2l.11.29,0,.16a15,15,0,0,0-1.16-2.51,32,32,0,0,1,1,3.67v.07c-.16,1.1-.34,2.51-.51,3.87-.75-2.94-1.69-6.65-1.93-7.58-.35-1.34-.72,0-.83.43.07-.21.25-.53.34-.4a61.81,61.81,0,0,1,2,7.72c-.73-1.31-.84-2.77-2.79-4.08,0,0,2.57,3.57,2.94,5.89l0,.2c0,.38-.1,1.11-.1,1.18a1.82,1.82,0,0,0,1.48,1.79c1,0,2.34,0,4.05,0h1.11A1.82,1.82,0,0,0,29.85,27.9ZM23,19.81a21,21,0,0,1,.74,2.89h-.07l-.13,0a13.14,13.14,0,0,0-.56-2.7Zm-.05,5.3c-.12.52-.23,1-.32,1.35l-.15-.61c0-.43.08-.88.12-1.33a5.26,5.26,0,0,0,.36.53A.13.13,0,0,0,22.9,25.11Zm-.2-2.18c0-.45.08-.9.11-1.32.07.4.12.81.16,1.21A1.38,1.38,0,0,0,22.7,22.93ZM23,24.57h0v-.29a.34.34,0,0,0,0-.1.38.38,0,0,1,0-.1.38.38,0,0,1,0-.1.28.28,0,0,1,0-.09h0A5.22,5.22,0,0,1,23,24.57Zm.7,1.15c-.16.52-.31.94-.43,1.28a13,13,0,0,0,.27-3.93l.15,0h.08A6.33,6.33,0,0,1,23.68,25.72Zm.19,1.69h0v0Zm.61-3.52c0,.23-.07.46-.1.67a9.31,9.31,0,0,0-.09-1.36,1.58,1.58,0,0,1,.24.15C24.52,23.53,24.5,23.72,24.48,23.89Zm.5,2.49h0Zm.56-2.44a12.64,12.64,0,0,1,.74-3.09v.06a14.15,14.15,0,0,0,0,3.84l-.26.33A6,6,0,0,0,25.54,23.94Zm.74,2.61a6.43,6.43,0,0,0-.1-.67l.21-.28c.07.35.14.65.22.92ZM27,20c0,.62,0,1.23,0,1.84-.07-.26-.13-.52-.2-.78S26.9,20.38,27,20Zm-.28,2.36c.09.39.18.78.26,1.16l.06.25-.22.27A6.94,6.94,0,0,1,26.69,22.39Zm.71,4.13c-.12-.42-.27-1-.43-1.67l.2-.27,0,.27c.08.62.17,1.19.28,1.68Zm1.28-.17c-.17-.85-.36-1.92-.52-3.07l.06-.08v0l0,.11.29,1.19,0,.15.07.29,0,.13c.06.24.11.46.17.67l0,.14v0Zm.61-3.85v.55c0,.13,0,.27,0,.4v.15c0,.15,0,.3,0,.45v.12c0,.16,0,.32,0,.47-.16-.61-.34-1.3-.54-2l.65-.85v.75Z" style="fill: #6da200"/>
  </g>
  <path d="M20.89,6.35a1.5,1.5,0,0,1-1,.36,7.36,7.36,0,0,1-1.48-.13c-.12-.14-.26-1-.42-1.18l-.22-.19a6.08,6.08,0,0,0,2.28-2.7c.19-.33.08-.75-.37-.2A11,11,0,0,1,17.35,4a4.27,4.27,0,0,1-.58.33c-1.13-1-1-1.41-2.49-1.53l-.76,0H11.59l-.76,0c-1.51.12-1.37.54-2.52,1.55A6.75,6.75,0,0,1,7.69,4,11.16,11.16,0,0,1,5.35,2.31c-.45-.55-.56-.13-.38.2A6.1,6.1,0,0,0,7.29,5.23c-.06,0-.12.87-.19.93a3.86,3.86,0,0,0-.45.46V6.56a7.27,7.27,0,0,1-1.58.15,1.49,1.49,0,0,1-1-.36C1.4,6.41,0,7,.05,7.84S2.14,9.72,3,9.64,4.51,9,5.71,9.1c.2,0,.35.81.48.83l0,.09c.36-.34.94-.81,1.32-.72,0,0,0,0,.08,0,.25,0,.45.35.47.78a7.51,7.51,0,0,1,.28,1.32S8.22,11,8,10.61c-.09.2-.22.35-.38.35s-.48-.38-.48-.85a1.66,1.66,0,0,1,0-.33,2,2,0,0,0-.92.33,4.47,4.47,0,0,0,.43.74,28,28,0,0,0,.79,3.75,13.72,13.72,0,0,1,1.12,3.24c-.12.37.14.86.25,2.08s1.07,2.49,4.07,2v0c3.45.48,3.2-.8,3.31-2s.37-1.71.25-2.08a13.72,13.72,0,0,1,1.12-3.24,28,28,0,0,0,.79-3.75,5,5,0,0,0,.44-.77,1.93,1.93,0,0,0-.88-.3,1.15,1.15,0,0,1,0,.33c0,.47-.21.85-.47.85s-.29-.15-.38-.35a6.43,6.43,0,0,0-.37.76,6.6,6.6,0,0,1,.28-1.32c0-.43.22-.78.47-.78l.07,0c.37-.09.92.35,1.28.68a.16.16,0,0,0,0-.07c.1,0,.21-.79.35-.81,1.2-.15,1.92.45,2.74.54s2.84-1,2.92-1.8S23.59,6.41,20.89,6.35ZM10.32,19.26c0-.56.33-1.31.48-1.22s0,.37,0,.37c0,.56.46.43.46.85S10.32,19.82,10.32,19.26ZM13,21.12a12,12,0,0,1-2.23-.19A12,12,0,0,1,13,20.74a5.3,5.3,0,0,1,1.47.19A5,5,0,0,1,13,21.12Zm.78-1.86c0-.42.49-.29.46-.85,0,0-.12-.28,0-.37s.49.66.49,1.22S13.81,19.69,13.81,19.26Zm.55-2.41a9.49,9.49,0,0,0-1.42-.12,19.88,19.88,0,0,0-2.18.1,2.09,2.09,0,0,0-1.25.59,1.8,1.8,0,0,1,1.19-.88A11.27,11.27,0,0,1,13,16.35a5,5,0,0,1,1.48.22,1.9,1.9,0,0,1,1.21.85A2.37,2.37,0,0,0,14.36,16.85Z" style="fill: #9e887b"/>
</svg>
