<svg id="aedd50e5-ecb7-4209-af43-5d4d8965c2ee" data-name="Calque 1" xmlns="http://www.w3.org/2000/svg" width="24" height="24" viewBox="0 0 24 24">
  <title>vegetal-76-11850CCC</title>
  <path d="M11.05,8.48a4.8,4.8,0,0,1-4.49,3,4.59,4.59,0,0,1-1-.1A7.11,7.11,0,0,0,4,16.78a16.44,16.44,0,0,0-1.88,3.93,1.41,1.41,0,0,0,.18,1.06,1.09,1.09,0,0,0,.91.38s.37-6.07,4.56-9.31,9.59-2.15,9.59-2.15S7.29,10.35,5.07,18.46c0,0,4.14,3.85,8.52.52S18,13.73,19.52,12.6a6.53,6.53,0,0,1,3.23-1.23S15.82,8,11.05,8.48Z" style="fill: #6da200"/>
  <path d="M6.56.86s-3.81,3.93-3.81,6a3.75,3.75,0,0,0,3.81,3.68,3.74,3.74,0,0,0,3.81-3.68C10.37,4.79,6.56.86,6.56.86Z" style="fill: #f26767"/>
</svg>
