<svg id="b2ab3506-cbc0-4afb-8504-53d978d0540f" data-name="Calque 1" xmlns="http://www.w3.org/2000/svg" width="32" height="32" viewBox="0 0 32 32">
  <title>doc-94-IconePDF</title>
  <g>
    <path d="M7.16,31.52a2,2,0,0,1-2-2v-27a2,2,0,0,1,2-2H20.61A2,2,0,0,1,22,1.11l5.54,5.53a2,2,0,0,1,.59,1.42V29.52a2,2,0,0,1-2,2Z" style="fill: #fff"/>
    <path d="M20.61,1a1.5,1.5,0,0,1,1.06.44L27.22,7a1.5,1.5,0,0,1,.44,1.06V29.52A1.51,1.51,0,0,1,26.15,31h-19a1.5,1.5,0,0,1-1.5-1.5v-27A1.5,1.5,0,0,1,7.16,1H20.61m0-1H7.16a2.5,2.5,0,0,0-2.5,2.5v27A2.5,2.5,0,0,0,7.16,32h19a2.5,2.5,0,0,0,2.51-2.5V8.06a2.52,2.52,0,0,0-.74-1.77L22.38.75A2.55,2.55,0,0,0,20.61,0Z" style="fill: #868789"/>
  </g>
  <path d="M27.35,7.17H21.16v-6A1.5,1.5,0,0,0,20.61,1h-.45V7.67a.5.5,0,0,0,.5.5h7v-.1A1.42,1.42,0,0,0,27.35,7.17Z" style="fill: #d7d8d9"/>
  <path d="M24.23,20.39a3.9,3.9,0,0,0-2.79-.75,15.86,15.86,0,0,0-2.58.24,13.23,13.23,0,0,1-1.59-1.83c-.36-.51-.69-1-1-1.55a13.93,13.93,0,0,0,.82-4c0-.82-.27-2.17-1.48-2.17a1,1,0,0,0-.83.5c-.51.88-.27,2.87.66,4.9-.33,1-.7,2-1.15,3.07A27.28,27.28,0,0,1,13,21.51c-2.64,1-4.32,2.23-4.49,3.18a.94.94,0,0,0,.3.86,1.4,1.4,0,0,0,1,.33c1.51,0,3.2-2.22,4.46-4.49.71-.24,1.45-.46,2.21-.67s1.61-.39,2.36-.52A6.41,6.41,0,0,0,23,22.11c1,0,1.29-.42,1.39-.69A1,1,0,0,0,24.23,20.39ZM15.07,11a.63.63,0,0,1,.55-.34c.44,0,.7.4.7,1.13a13.13,13.13,0,0,1-.72,3.53C14.72,13.24,14.71,11.6,15.07,11ZM8.79,24.74c.15-.78,1.65-1.85,3.94-2.81-1.28,2.2-2.54,3.54-3.33,3.54A.57.57,0,0,1,9,25.32.63.63,0,0,1,8.79,24.74Zm9.7-4.8c-.68.13-1.41.29-2.15.49s-1.29.37-1.91.57a18.16,18.16,0,0,0,.91-1.93c.3-.71.58-1.45.83-2.19.26.45.55.9.86,1.34a13.43,13.43,0,0,0,1.46,1.72Zm.67.19a10.18,10.18,0,0,1,3.48-.1c.6.12.91.48.8,1s-.75.8-1.46.63A6.88,6.88,0,0,1,19.16,20.13Z" style="fill: #d53236"/>
</svg>
