<svg id="a096dbf3-21a1-42bc-8932-b2b23be8ce8c" data-name="Calque 1" xmlns="http://www.w3.org/2000/svg" width="32" height="32" viewBox="0 0 32 32">
  <title>field-51-IconeParcelleCulturale</title>
  <polygon points="16.8 2.92 30.19 8.21 26.67 13.45 13.81 7.67 16.8 2.92" style="fill: #a3a4a6;stroke: #fff;stroke-miterlimit: 10;stroke-width: 0.94563090303936px"/>
  <polygon points="16.8 2.92 30.19 8.21 26.67 13.45 13.81 7.67 16.8 2.92" style="fill: none;stroke: #fff;stroke-linejoin: round;stroke-width: 0.236407526633904px"/>
  <polygon points="7.94 24.05 5.09 21.48 13.81 7.67 26.67 13.45 24.37 16.87 14.57 13.34 7.94 24.05" style="fill: #c3dca8;stroke: #fff;stroke-miterlimit: 10;stroke-width: 0.94563090303936px"/>
  <polygon points="7.94 24.05 5.09 21.48 13.81 7.67 26.67 13.45 24.37 16.87 14.57 13.34 7.94 24.05" style="fill: none;stroke: #fff;stroke-linejoin: round;stroke-width: 0.236407526633904px"/>
  <polygon points="12.89 1.38 16.8 2.92 11.58 11.2 7.51 9.25 12.89 1.38" style="fill: #fac262;stroke: #fff;stroke-miterlimit: 10;stroke-width: 0.94563090303936px"/>
  <polygon points="12.89 1.38 16.8 2.92 11.58 11.2 7.51 9.25 12.89 1.38" style="fill: none;stroke: #fff;stroke-linejoin: round;stroke-width: 0.236407526633904px"/>
  <polygon points="1.42 18.17 7.51 9.25 11.58 11.2 5.09 21.48 1.42 18.17" style="fill: #bc9161;stroke: #fff;stroke-miterlimit: 10;stroke-width: 0.94563090303936px"/>
  <polygon points="1.42 18.17 7.51 9.25 11.58 11.2 5.09 21.48 1.42 18.17" style="fill: none;stroke: #fff;stroke-linejoin: round;stroke-width: 0.236407526633904px"/>
  <polygon points="24.37 16.87 19.78 23.71 11.22 18.75 14.57 13.34 24.37 16.87" style="fill: #6f7095;stroke: #fff;stroke-miterlimit: 10;stroke-width: 0.94563090303936px"/>
  <polygon points="24.37 16.87 19.78 23.71 11.22 18.75 14.57 13.34 24.37 16.87" style="fill: none;stroke: #fff;stroke-linejoin: round;stroke-width: 0.236407526633904px"/>
  <polygon points="11.22 18.75 19.78 23.71 15.17 30.57 7.94 24.05 11.22 18.75" style="fill: #5bab26;stroke: #fff;stroke-miterlimit: 10;stroke-width: 0.94563090303936px"/>
  <polygon points="11.22 18.75 19.78 23.71 15.17 30.57 7.94 24.05 11.22 18.75" style="fill: none;stroke: #fff;stroke-linejoin: round;stroke-width: 0.236407526633904px"/>
  <path d="M15.35,32a1.44,1.44,0,0,0,1-.62L31.37,9a1.42,1.42,0,0,0-.65-2.11L13.41.06a1.43,1.43,0,0,0-1.69.51L.25,17.37a1.41,1.41,0,0,0,.22,1.85l3.31,3,10.44,9.43a1.46,1.46,0,0,0,.95.36ZM1.1,18.52A.47.47,0,0,1,1,17.9L12.5,1.11a.49.49,0,0,1,.57-.17l17.3,6.83a.45.45,0,0,1,.27.3.46.46,0,0,1-.05.4l-15,22.37a.43.43,0,0,1-.33.2h-.06a.46.46,0,0,1-.31-.13Z" style="fill: #77787a"/>
</svg>
