<svg id="a7dce57d-fd7a-4c07-8a56-dd60571f5521" data-name="Calque 1" xmlns="http://www.w3.org/2000/svg" width="32" height="32" viewBox="0 0 32 32">
  <title>phyto-54-IconeTaupicide</title>
  <path d="M2.4,5.07V3.77A1.09,1.09,0,0,1,3.49,2.69H5.31A1.09,1.09,0,0,1,6.39,3.77v1.3" style="fill: #6e6a69"/>
  <g>
    <line x1="30.17" y1="20.43" x2="30.72" y2="20" style="fill: #6e6a69"/>
    <path d="M30.36,20.76s.18-.29.29-.34" style="fill: #6e6a69"/>
    <path d="M30.36,20.76s.18-.29.29-.34" style="fill: #6e6a69;stroke: #fff;stroke-miterlimit: 10;stroke-width: 0.05152743294119px"/>
    <path d="M28,17s.4-.36.56-.37.58-.09.58,0,.18.43-.21.46.57-.17.59-.06a.44.44,0,0,1-.25.52c-.29.1-.44.22-.19.21s.69.6.32.61-.61,0-.61,0L28,17" style="fill: #6e6a69"/>
    <path d="M29.06,16.69s.54-.05.66.09-.7.12-.7.12l0-.21" style="fill: #6e6a69"/>
    <path d="M29.36,17.11s.79-.16.83,0-.81.27-.81.27l0-.27" style="fill: #6e6a69"/>
    <path d="M29.27,17.9s.8,0,.86.16-.76.18-.76.18l-.1-.34" style="fill: #6e6a69"/>
    <path d="M29.05,18.47s.71.05.71.23-.68.13-.68.13l0-.36" style="fill: #6e6a69"/>
    <path d="M9.13,22a12.78,12.78,0,0,1-1.88.33,5.3,5.3,0,0,0-1.72.62c-.28.17-.9.31-1.1.13s.43-.43.63-.6.2-.33.66-.59a6.92,6.92,0,0,1,2.71-1.13c.21-.08.14-.19.11-.29a4.82,4.82,0,0,1,4-4.75A4.11,4.11,0,0,0,14,14.85a4.31,4.31,0,0,1,2.07-.59,6,6,0,0,0,2.16-.19c.45-.19,2.79-.3,6.19.82.41.14.62,0,1.25.25s2.18.82,3.66,3.77a21.35,21.35,0,0,0,1.42,2.18c-.46.6-.26.94-.86.73s-1.71-.87-2-.92-2.4-.42-2.49,0,.26.53.05.91-.77.72-.81,1-.81.6-.81.6a11.94,11.94,0,0,1-2-.66c-.18-.19-.61-.65-.59-1s0,.17-.24.15a23.55,23.55,0,0,0-4.52.39c-.46.29-.94,1-1.41.63s-1.24-.62-1.24-.09-1.52.23-2.19-.06A8.76,8.76,0,0,0,9.13,22" style="fill: #6e6a69"/>
    <path d="M30.77,21.09c-.6-.86-1.2-1.74-1.4-2.13a1,1,0,0,0-.26.6c0,.37-.37.6-.72.24s-1.13-1.31-1.46-.83-.51,1.06.29,1.16a4.19,4.19,0,0,1,2.18,1.46l.51.23c.6.21.4-.13.86-.73" style="fill: #6e6a69"/>
    <path d="M27.24,19.51c.07.07.21,0,.18,0s-.18,0-.18,0" style="fill: #6e6a69"/>
    <path d="M22.37,24.08a1.89,1.89,0,0,1-.46-1.65c.24-.71,1.13-.94,1.5-.48s1,1.14.26,3c-.08.26-1.2-.77-1.3-.89" style="fill: #6e6a69"/>
    <path d="M22.42,24c-.19.09-.6.72-.35.65s.73-.24.72-.34-.23-.38-.37-.31" style="fill: #6e6a69"/>
    <path d="M23,24.51c-.12.15-.61.79-.5.79s.75-.3.81-.52-.26-.33-.31-.27" style="fill: #6e6a69"/>
    <path d="M23.33,24.75c-.09.09-.64.82-.48.89s.77-.5.76-.74a.17.17,0,0,0-.28-.15" style="fill: #6e6a69"/>
    <path d="M23.28,22.9c-.08.25-.23,1-.07,1s.63-.77.55-.92-.43-.23-.48-.11" style="fill: #6e6a69"/>
    <path d="M13.76,22.89s0,.67,1.08.76,1.22,0,1.33.12,1.34.39,1.16-.06-1.71-.78-1.91-.82-1.59-1.23-1.66,0" style="fill: #6e6a69"/>
    <path d="M16.41,23.92c-.08-.08,0-.29.11-.23s.26.5.18.49S16.5,24,16.41,23.92Z" style="fill: #6e6a69"/>
    <path d="M16.82,23.86c-.06-.13,0-.32.07-.26s.39.46.33.49A.76.76,0,0,1,16.82,23.86Z" style="fill: #6e6a69"/>
    <path d="M17,23.58c-.07-.09,0-.14.09-.12s.42.26.42.37S17.16,23.72,17,23.58Z" style="fill: #6e6a69"/>
    <path d="M30,21.7a.32.32,0,0,1,.45,0" style="fill: #6e6a69"/>
  </g>
  <path d="M20.58,2.62H12.12c-2.77,0-2.55,3.93-5.83,3.93H2.43A1.4,1.4,0,0,0,1,8L.49,12.56V22.74l.55,6a1.4,1.4,0,0,0,1.39,1.4H20.58a1.4,1.4,0,0,0,1.4-1.4l.12-1.27-.46-.19h-.45l-.3-.62h-.31l-.47-1.33a2,2,0,0,1,0-1.29c0-.05,0-.09,0-.14l-.49,0v.74l-.58.59-.1.29-.38.17-.14.14h-.17l-.13.05-.13.06-.15.21H16.54a2.11,2.11,0,0,1-1.19-.5l-.67,0A3.55,3.55,0,0,1,13,25.11a7,7,0,0,1-2.13-.51A17.13,17.13,0,0,0,9.25,24a12,12,0,0,1-1.87.31,4.14,4.14,0,0,0-.83.35,3.79,3.79,0,0,1-1.81.48,2.36,2.36,0,0,1-1.67-.62,2.06,2.06,0,0,1-.66-1.75A2.47,2.47,0,0,1,3.76,20.9a3.47,3.47,0,0,1,1-.79A.71.71,0,0,0,4.84,20a6.77,6.77,0,0,1,1.83-.87,7.19,7.19,0,0,1,1-2.44,6.83,6.83,0,0,1,4.5-3,3.65,3.65,0,0,0,.65-.44,6.13,6.13,0,0,1,3.21-1h.61a5,5,0,0,0,.93-.07A4.78,4.78,0,0,1,19.36,12a15.73,15.73,0,0,1,3.15.36L22,4A1.4,1.4,0,0,0,20.58,2.62ZM18.65,6.33H13.91a1,1,0,0,1,0-2.1h4.74a1,1,0,1,1,0,2.1Z" style="fill: #ccc"/>
</svg>
