<svg id="f7a68150-d1c2-4087-9a38-28de13ac49cd" data-name="Calque 1" xmlns="http://www.w3.org/2000/svg" width="32" height="32" viewBox="0 0 32 32">
  <title>field-89-IconeCopierParcelleVers</title>
  <g>
    <polygon points="1.11 18.75 12.34 28.88 14.88 25.1 5.79 16.91 13.02 6.33 10.33 5.27 1.11 18.75" style="fill: #a9cd82"/>
    <polygon points="12.34 28.88 1.11 18.75 10.33 5.27 13.02 6.33 13.6 5.49 9.95 4.04 -0.21 18.91 12.53 30.39 15.63 25.78 14.88 25.1 12.34 28.88" style="fill: #516d53"/>
    <path d="M16.33,3.27,7.11,16.75,18.34,26.88l.23-.33a8.71,8.71,0,0,1,6.65-14.36,8.92,8.92,0,0,1,2.7.43l2.54-3.77Z" style="fill: #fac262"/>
    <path d="M18.34,26.88,7.11,16.75,16.33,3.27,30.46,8.85l-2.54,3.77a9.9,9.9,0,0,1,.95.38L32,8.38,16,2,13.6,5.49,13,6.33,5.79,16.91l9.09,8.19.75.68,2.9,2.61.75-1.11a8.16,8.16,0,0,1-.71-.73Z" style="fill: #bf7d00"/>
  </g>
  <path d="M25.22,27.64a6.73,6.73,0,1,1,6.72-6.73A6.74,6.74,0,0,1,25.22,27.64Z" style="fill: #5bab26"/>
  <polygon points="21.01 20.11 21.01 21.71 25.42 21.71 25.42 24.92 29.43 20.91 25.42 16.91 25.42 20.11 21.01 20.11" style="fill: #fff"/>
</svg>
