<svg id="ba6555dd-8294-4997-989a-67dc37ad007f" data-name="Calque 1" xmlns="http://www.w3.org/2000/svg" width="32" height="32" viewBox="0 0 32 32">
  <title>print-14-IconeEditionMainDOeuvre</title>
  <polygon points="22.99 9.99 27.31 9.99 27.19 8.99 23.91 5.14 22.99 4.87 22.99 9.99" style="fill: #cea04e"/>
  <polygon points="18.99 5.99 23.31 5.99 23.19 4.99 19.91 1.15 18.99 0.87 18.99 5.99" style="fill: #cea04e"/>
  <polygon points="20.99 7.99 25.31 7.99 25.19 6.99 21.91 3.15 20.99 2.87 20.99 7.99" style="fill: #cea04e"/>
  <path d="M20.37,16a.36.36,0,0,0,0,.09h0A.28.28,0,0,1,20.37,16Z" style="fill: #6e5d44"/>
  <g>
    <polygon points="20.8 2.18 19.65 0.82 20.8 2.18 20.8 2.18" style="fill: #fcdba2"/>
    <path d="M7.19,2H19.33l-.44-.53a1.21,1.21,0,0,0-1-.47H5.19A1.21,1.21,0,0,0,4,2.2V25.78A1.19,1.19,0,0,0,5,27V4.2A2.21,2.21,0,0,1,7.19,2Z" style="fill: #fcdba2"/>
    <path d="M17.93,0h0a2.72,2.72,0,0,1,.49.05A2.63,2.63,0,0,0,17.93,0Z" style="fill: #cea04e"/>
    <path d="M18.88.21a2.17,2.17,0,0,1,.77.61A2.07,2.07,0,0,0,18.88.21Z" style="fill: #cea04e"/>
    <path d="M5,27.78V27a1.19,1.19,0,0,1-1-1.17V2.2A1.21,1.21,0,0,1,5.19,1H17.93a1.21,1.21,0,0,1,1,.47l.44.53h.6a2.16,2.16,0,0,1,.87.19L19.65.82a2.17,2.17,0,0,0-.77-.61A2.29,2.29,0,0,0,18.42,0a2.72,2.72,0,0,0-.49,0H5.19A2.21,2.21,0,0,0,3,2.2V25.78A2.2,2.2,0,0,0,5,28a1.11,1.11,0,0,1,0-.19Z" style="fill: #cea04e"/>
    <path d="M6,28a1.18,1.18,0,0,0,1,1V28Z" style="fill: #fcdba2"/>
    <polygon points="22.8 4.18 21.65 2.82 22.8 4.18 22.8 4.18" style="fill: #fcdba2"/>
    <path d="M9.19,4H21L20.2,3a1.24,1.24,0,0,0-.27,0H7.19A1.21,1.21,0,0,0,6,4.2V27H7V6.2A2.21,2.21,0,0,1,9.19,4Z" style="fill: #fcdba2"/>
    <path d="M21.33,4l-.44-.53A1.27,1.27,0,0,0,20.2,3L21,4Z" style="fill: #fcdba2"/>
    <path d="M7,27H6v.79A1.3,1.3,0,0,0,6,28H7Z" style="fill: #fcdba2"/>
    <path d="M20.88,2.21s-.05,0-.08,0h0S20.86,2.19,20.88,2.21Z" style="fill: #cea04e"/>
    <path d="M5,28A2.26,2.26,0,0,0,5.36,29,2.26,2.26,0,0,1,5,28Z" style="fill: #cea04e"/>
    <path d="M20.8,2.18A2.16,2.16,0,0,0,19.93,2a2.16,2.16,0,0,1,.87.19Z" style="fill: #cea04e"/>
    <path d="M5,27.78H5A1.11,1.11,0,0,0,5,28H5A1.11,1.11,0,0,1,5,27.78Z" style="fill: #cea04e"/>
    <path d="M22.37,4a2.16,2.16,0,0,1,.43.14L21.65,2.82a2.17,2.17,0,0,0-.77-.61s-.05,0-.08,0Z" style="fill: #cea04e"/>
    <path d="M7,29.78V29a1.18,1.18,0,0,1-1-1H5.19L5,28A2.26,2.26,0,0,0,5.36,29,2.24,2.24,0,0,0,7,30a1.11,1.11,0,0,1,0-.19Z" style="fill: #cea04e"/>
    <polygon points="22.37 4.04 20.8 2.18 20.8 2.18 22.37 4.04 22.37 4.04" style="fill: #cea04e"/>
    <path d="M6,27V4.2A1.21,1.21,0,0,1,7.19,3H19.93a1.24,1.24,0,0,1,.27,0l-.87-1H7.19A2.21,2.21,0,0,0,5,4.2V27a1.42,1.42,0,0,0,.2,0Z" style="fill: #cea04e"/>
    <path d="M20.89,3.46l.44.53h.6a2.2,2.2,0,0,1,.44,0L20.8,2.18A2.16,2.16,0,0,0,19.93,2h-.6l.87,1A1.27,1.27,0,0,1,20.89,3.46Z" style="fill: #cea04e"/>
    <path d="M6,27h-.8A1.42,1.42,0,0,1,5,27v.83A1.11,1.11,0,0,0,5,28l.18,0H6a1.3,1.3,0,0,1,0-.21Z" style="fill: #cea04e"/>
    <path d="M15,30H8a1.19,1.19,0,0,0,1.16,1H16A8.94,8.94,0,0,1,15,30Z" style="fill: #fac262"/>
    <path d="M26.72,10v0H26v1.44a5.53,5.53,0,0,1,1,.51V10.76A1.21,1.21,0,0,0,26.72,10Z" style="fill: #fac262"/>
    <path d="M8,28v1h6.39A4.51,4.51,0,0,1,14,28Z" style="fill: #fac262"/>
    <path d="M24,11a7.82,7.82,0,0,1,1,.12V10H24Z" style="fill: #fac262"/>
    <path d="M18.09,23c.44-.13.86-.23,1.22-.32-.16-.22-.3-.46-.44-.7H13V21h5.39c-.05-.13-.12-.25-.17-.38A3.45,3.45,0,0,1,17.57,19H13V18h4.5v-.17c0-.12,0-.24,0-.34s0-.23,0-.35A10.37,10.37,0,0,1,17.57,16H13V15h4.77c.63-2.46,2.43-3.84,5.23-4V6.76A1.21,1.21,0,0,0,22.72,6l-.86-1H9.19A1.21,1.21,0,0,0,8,6.2V27h5.9a2.71,2.71,0,0,1,.09-.68C14.54,24,17.21,23.26,18.09,23Z" style="fill: #fac262"/>
    <path d="M13.89,27H8v1h6A3.34,3.34,0,0,1,13.89,27Z" style="fill: #fac262"/>
    <path d="M23,10V6L22.2,5l-.27,0h-.07l.86,1a1.21,1.21,0,0,1,.27.75V11c.13,0,.26,0,.4,0a5.82,5.82,0,0,1,.6,0V10Z" style="fill: #fac262"/>
    <path d="M25,11.16a6.1,6.1,0,0,1,1,.27V10H25Z" style="fill: #fac262"/>
    <path d="M14.38,29H8v.79A1.3,1.3,0,0,0,8,30h7A6.59,6.59,0,0,1,14.38,29Z" style="fill: #fac262"/>
    <path d="M23,5.58l-.1-.12A1.27,1.27,0,0,0,22.2,5L23,6Z" style="fill: #fac262"/>
    <path d="M27.5,9.38a2.19,2.19,0,0,1,.36.65A2.19,2.19,0,0,0,27.5,9.38Z" style="fill: #cea04e"/>
    <path d="M7,30A2.26,2.26,0,0,0,7.36,31,2.26,2.26,0,0,1,7,30Z" style="fill: #cea04e"/>
    <path d="M7,29.78H7A1.11,1.11,0,0,0,7,30H7A1.11,1.11,0,0,1,7,29.78Z" style="fill: #cea04e"/>
    <path d="M26.71,10v0a1.21,1.21,0,0,1,.27.75v1.18a4.69,4.69,0,0,1,1,.94V10.76a2,2,0,0,0-.13-.73,2.19,2.19,0,0,0-.36-.65L27.19,9l.12,1Z" style="fill: #cea04e"/>
    <path d="M23.91,5.15,25.4,6.89,23.65,4.82a2.13,2.13,0,0,0-.85-.64l.71.84Z" style="fill: #cea04e"/>
    <path d="M16,31H9.19A1.19,1.19,0,0,1,8,30H7.19L7,30A2.26,2.26,0,0,0,7.36,31a2.23,2.23,0,0,0,1.83,1h8L17,31.84A11.42,11.42,0,0,1,16,31Z" style="fill: #cea04e"/>
    <polygon points="23.51 5.02 23.51 5.02 22.8 4.18 22.8 4.18 23.51 5.02" style="fill: #cea04e"/>
    <path d="M8,29V28H7v1a1.42,1.42,0,0,0,.2,0Z" style="fill: #cea04e"/>
    <path d="M8,6.2A1.21,1.21,0,0,1,9.19,5H21.86L21,4H9.19A2.21,2.21,0,0,0,7,6.2V27H8Z" style="fill: #cea04e"/>
    <path d="M21.86,5h.07l.27,0-.87-1H21Z" style="fill: #cea04e"/>
    <rect x="6.99" y="26.99" width="1" height="1" style="fill: #cea04e"/>
    <path d="M8,29h-.8A1.42,1.42,0,0,1,7,29v.83A1.11,1.11,0,0,0,7,30l.18,0H8a1.3,1.3,0,0,1,0-.21Z" style="fill: #cea04e"/>
    <path d="M23.51,5l-.71-.84A2.16,2.16,0,0,0,22.37,4l.72.86Z" style="fill: #cea04e"/>
    <polygon points="23.09 4.9 23.09 4.9 22.37 4.04 22.37 4.04 23.09 4.9" style="fill: #cea04e"/>
    <path d="M22.89,5.46l.1.12V4.87l.1,0L22.37,4a2.2,2.2,0,0,0-.44,0h-.6l.87,1A1.27,1.27,0,0,1,22.89,5.46Z" style="fill: #cea04e"/>
    <path d="M13,18v1h4.58a6.73,6.73,0,0,1-.08-1Z" style="fill: #fff"/>
    <path d="M13,21v1h5.88a10.3,10.3,0,0,1-.49-1Z" style="fill: #fff"/>
    <path d="M13,15v1h4.58a7.7,7.7,0,0,1,.19-1Z" style="fill: #fff"/>
    <polygon points="27.19 8.99 25.4 6.89 27.19 9.02 27.19 8.99" style="fill: #cea04e"/>
    <polygon points="26.71 9.99 25.99 9.14 25.99 9.99 26.71 9.99" style="fill: #cea04e"/>
    <path d="M25,10V8.76A1.21,1.21,0,0,0,24.72,8L24,7.14V10Z" style="fill: #cea04e"/>
    <polygon points="22.99 9.99 23.99 9.99 23.99 7.14 22.99 5.95 22.99 9.99" style="fill: #cea04e"/>
    <path d="M24,7.14l.73.87a1.21,1.21,0,0,1,.27.75V10h1V9.14L24,6.77Z" style="fill: #cea04e"/>
    <polygon points="22.99 5.95 23.99 7.14 23.99 6.77 22.99 5.58 22.99 5.95" style="fill: #cea04e"/>
    <path d="M23.51,5l2,2.36a2.82,2.82,0,0,1,.21.31,2.55,2.55,0,0,1,.25.7,2.31,2.31,0,0,1,0,.37h0v.38l.72.85h.6l-.12-1L25.4,6.89,23.91,5.15Z" style="fill: #cea04e"/>
    <path d="M25.71,7.69a2.82,2.82,0,0,0-.21-.31L23.51,5h0l2,2.36A2.82,2.82,0,0,1,25.71,7.69Z" style="fill: #cea04e"/>
    <path d="M26,8.76a2.31,2.31,0,0,0,0-.37,2.31,2.31,0,0,1,0,.37Z" style="fill: #cea04e"/>
    <path d="M23.5,5.38a2.82,2.82,0,0,1,.21.31A2.25,2.25,0,0,1,24,6.76h0l2,2.37V8.76a2.31,2.31,0,0,0,0-.37,2.55,2.55,0,0,0-.25-.7,2.82,2.82,0,0,0-.21-.31L23.51,5l-.42-.12Z" style="fill: #cea04e"/>
    <path d="M23.71,5.69a2.82,2.82,0,0,0-.21-.31l-.41-.48h0l.41.48A2.82,2.82,0,0,1,23.71,5.69Z" style="fill: #cea04e"/>
    <path d="M23,5.58l1,1.19h0a2.25,2.25,0,0,0-.28-1.07,2.82,2.82,0,0,0-.21-.31l-.41-.48-.1,0Z" style="fill: #cea04e"/>
  </g>
  <path d="M21.52,22.21h0l2.92,3.16a4,4,0,0,0,.63-.81,2,2,0,0,0,.29-1V22.11s0,0,0-.08C24.32,23.12,22.93,23.59,21.52,22.21Z" style="fill: #cfad88"/>
  <path d="M25.63,16.71A4.32,4.32,0,0,0,24,16.49h-.3a3.25,3.25,0,0,1-.89-.17l.21.1a3,3,0,0,1-1.24-1.07c-.69,0-2,2.07-2,3.71h0v0A6.79,6.79,0,0,0,21.31,22v1.22a1.69,1.69,0,0,0,.21.87c.62,1.13,1.7,2.46,2.92,1.28l-2.92-3.16h0c1.41,1.38,2.8.91,3.83-.18a6.73,6.73,0,0,0,1.46-2.53,1.47,1.47,0,0,1,0-.21C27.21,16.72,25.65,16.71,25.63,16.71Z" style="fill: #dcc4ab"/>
  <path d="M30.65,26.39l.08.18h0Z" style="fill: #58585a"/>
  <path d="M30.65,26.39Z" style="fill: #58585a"/>
  <path d="M30.73,26.57Z" style="fill: #58585a"/>
  <path d="M30.73,26.57h0c-.56-1.23-3.18-1.78-4.42-2.12A6.55,6.55,0,0,1,25,26.52l.35.26c.42.32,1.43.33,2,.86s.85,1.73,1.31,2.39C29.48,29.43,31.27,27.77,30.73,26.57Z" style="fill: #846b5c"/>
  <polygon points="30.73 26.57 30.73 26.57 30.73 26.57 30.73 26.57" style="fill: #58585a"/>
  <path d="M20.37,16a.36.36,0,0,0,0,.09h0A.28.28,0,0,1,20.37,16Z" style="fill: #6e5d44"/>
  <path d="M27.28,17.82c0,3.43-1.74.69-3.89.69s-3.9,2.77-3.9-.69a3.7,3.7,0,0,1,3.9-3.45A3.69,3.69,0,0,1,27.28,17.82Z" style="fill: #9f897b"/>
  <path d="M27.28,17.13c0,1.38-1.74-.69-3.89-.69s-3.9,2.1-3.9.69c0-3.42,1.74-4.14,3.9-4.14S27.28,13.71,27.28,17.13Z" style="fill: #826753"/>
  <path d="M28.69,30a3.62,3.62,0,0,1-.31-.59v.81Z" style="fill: #9f897b"/>
  <path d="M15.92,26.79c-.32,1.27,1.37,2.79,2.26,3.46.15.11.3.22.46.32V24.93C17.41,25.28,16.15,25.83,15.92,26.79Z" style="fill: #9f897b"/>
  <path d="M27.22,28.58V27.52c-.59-.4-1.47-.44-1.85-.74h0L25,26.52c-1.88,1.88-3.68-.36-4.41-2.08l-.81.19v3.95Z" style="fill: #9f897b"/>
  <path d="M27.38,27.64l-.16-.12v1.06H19.8V24.63c-.36.09-.76.18-1.16.3v5.64c.19.12.38.24.58.35l.58.29a8.11,8.11,0,0,0,3.37.78,9.16,9.16,0,0,0,4-1c.13-.07.26-.13.38-.21a7.85,7.85,0,0,0,.78-.49v-.81A5.44,5.44,0,0,0,27.38,27.64Z" style="fill: #5867a8"/>
  <path d="M26.31,24.45A6.55,6.55,0,0,1,25,26.52l.35.26c.38.3,1.26.34,1.85.74V24.69Z" style="fill: none"/>
  <path d="M30.73,26.57h0A3.9,3.9,0,0,0,28.38,25v4.41a3.62,3.62,0,0,0,.31.59C29.48,29.43,31.27,27.77,30.73,26.57Z" style="fill: none"/>
  <path d="M27.22,24.69v2.83l.16.12a5.44,5.44,0,0,1,1,1.8V25C28,24.9,27.59,24.79,27.22,24.69Z" style="fill: #324494"/>
</svg>
