<svg id="b948ad25-10cd-439d-9a17-c6afb8e4d8f7" data-name="Calque 1" xmlns="http://www.w3.org/2000/svg" width="32" height="32" viewBox="0 0 32 32">
  <title>sign-51-IconeComburantSGH03</title>
  <rect x="5.83" y="5.83" width="20.35" height="20.35" transform="translate(-6.63 16) rotate(-45)" style="fill: #fff"/>
  <path d="M16,32a.7.7,0,0,1-.47-.19L.2,16.47A.63.63,0,0,1,0,16a.65.65,0,0,1,.2-.47L15.53.2a.66.66,0,0,1,.94,0L31.81,15.53a.68.68,0,0,1,0,.94L16.47,31.81A.67.67,0,0,1,16,32ZM1.61,16,16,30.39,30.39,16,16,1.61Z" style="fill: #d10000"/>
  <path d="M10.83,13s.26,2.93,1.47,4.11a6.29,6.29,0,0,0,3.42,1.32,5.34,5.34,0,0,1-1.47-.92A2.15,2.15,0,0,1,13.4,16a1.77,1.77,0,0,0,.85.48,3.55,3.55,0,0,0,.84.22,2.5,2.5,0,0,1-.73-1.14,3.05,3.05,0,0,1,0-1.51,4.22,4.22,0,0,0,.55.81,2.92,2.92,0,0,0,.77.59,3,3,0,0,1-.11-1.07c.07-.44.48-.84.59-1.61a5.1,5.1,0,0,0,0-1.32,5.72,5.72,0,0,1,.85,1.5,12,12,0,0,1,.26,2.61,3.66,3.66,0,0,0,.47-.4,8.2,8.2,0,0,0,.74-1.07,2.12,2.12,0,0,1,.15,1.14,7,7,0,0,1-.85,1.32,1.87,1.87,0,0,0,.85,0,1.77,1.77,0,0,0,.69-.33,4.57,4.57,0,0,1-.69,1.18,10.93,10.93,0,0,1-1.47,1.13s2.27,0,3.15-1.24a8.62,8.62,0,0,0,1.07-3.49,3.85,3.85,0,0,1-.73.58,9.8,9.8,0,0,1-1,.37,4.71,4.71,0,0,0,.88-1.5,5.91,5.91,0,0,0-.14-2.39,1.62,1.62,0,0,1-.52,1,4,4,0,0,1-.95.51,3.82,3.82,0,0,0,.37-1.61,12,12,0,0,0-.55-2.32,6,6,0,0,1-.34,1.8,6.62,6.62,0,0,1-.88,1,4.33,4.33,0,0,0,0-1.77C17.3,8.48,16.45,8.07,16.38,7s-.11-1.83-.11-1.83a4.47,4.47,0,0,0-.52,2.13,14.54,14.54,0,0,1-.58,3.52s-.41-.07-.52-.92a3.58,3.58,0,0,0-.88-1.65s0,1,0,1.36-.29.66-.25,1.18.11,1.1.11,1.1a1.32,1.32,0,0,1-.74-.7,2.24,2.24,0,0,0-.77-.92,5.47,5.47,0,0,1,.26,1.43,5.54,5.54,0,0,0,.15,1.62,3.17,3.17,0,0,0,.62,1.1,1.73,1.73,0,0,1-1.29-.33,3.3,3.3,0,0,1-1-1.06"/>
  <polyline points="12.13 22.61 12.12 23.36 20.53 23.36 20.53 22.59 12.13 22.61"/>
  <circle cx="16.38" cy="18.54" r="3.86" style="fill: #fff"/>
  <circle cx="16.38" cy="18.54" r="3.86" style="fill: none;stroke: #000;stroke-linejoin: round;stroke-width: 0.865098255636229px"/>
</svg>
