<svg id="bf87578e-e720-4865-8de5-d09f9ee8a584" data-name="Calque 1" xmlns="http://www.w3.org/2000/svg" width="32" height="32" viewBox="0 0 32 32">
  <title>places-91-IconeFosse</title>
  <path d="M24.39,9l-3,11.5c-.57,1.88-1.29,2.88-2.88,2.88H14.23c-1.59,0-2.39-.83-2.87-2.88L8.36,9A4.24,4.24,0,0,0,4.23,6.09H1.77A1.66,1.66,0,0,0,0,8V28H32V7.79a1.7,1.7,0,0,0-1.7-1.7H28.05A3.55,3.55,0,0,0,24.39,9Z" style="fill: #b2957c"/>
  <path d="M14.31,21.34h4.07a1.05,1.05,0,0,0,1-.88L20.82,15h-9l1.52,5.46A1.07,1.07,0,0,0,14.31,21.34Z" style="fill: #6fa6e7"/>
</svg>
