<svg id="bf315246-0713-40e4-b5e9-6e3f262af679" data-name="Calque 1" xmlns="http://www.w3.org/2000/svg" width="32" height="32" viewBox="0 0 32 32">
  <title>print-25-IconeGenerateurEtat</title>
  <g>
    <path d="M9.2,31.49a1.71,1.71,0,0,1-1.71-1.71V6.2A1.72,1.72,0,0,1,9.2,4.49H21.93a1.68,1.68,0,0,1,1.33.64l3.86,4.58a1.67,1.67,0,0,1,.37,1.06v19a1.71,1.71,0,0,1-1.71,1.71Z" style="fill: #fac262"/>
    <path d="M21.93,5a1.24,1.24,0,0,1,1,.47L26.73,10a1.21,1.21,0,0,1,.26.76v19A1.21,1.21,0,0,1,25.78,31H9.2A1.21,1.21,0,0,1,8,29.79V6.2A1.21,1.21,0,0,1,9.2,5H21.93m0-1H9.2A2.21,2.21,0,0,0,7,6.2V29.79A2.21,2.21,0,0,0,9.2,32H25.78A2.21,2.21,0,0,0,28,29.79v-19a2.2,2.2,0,0,0-.48-1.38L23.65,4.82A2.22,2.22,0,0,0,21.93,4Z" style="fill: #cea04e"/>
  </g>
  <polygon points="22.99 9.99 27.31 9.99 27.19 8.99 23.92 5.15 22.99 4.87 22.99 9.99" style="fill: #cea04e"/>
  <g>
    <path d="M5.2,27.49a1.71,1.71,0,0,1-1.71-1.71V2.2A1.72,1.72,0,0,1,5.2.49H17.93a1.68,1.68,0,0,1,1.33.64l3.86,4.58a1.66,1.66,0,0,1,.37,1v19a1.71,1.71,0,0,1-1.71,1.71Z" style="fill: #fcdba2"/>
    <path d="M17.93,1a1.24,1.24,0,0,1,1,.47L22.73,6a1.21,1.21,0,0,1,.26.76v19A1.21,1.21,0,0,1,21.78,27H5.2A1.21,1.21,0,0,1,4,25.78V2.2A1.21,1.21,0,0,1,5.2,1H17.93m0-1H5.2A2.21,2.21,0,0,0,3,2.2V25.78A2.21,2.21,0,0,0,5.2,28H21.78A2.21,2.21,0,0,0,24,25.78v-19a2.2,2.2,0,0,0-.48-1.38L19.65.82A2.22,2.22,0,0,0,17.93,0Z" style="fill: #cea04e"/>
  </g>
  <polygon points="18.99 5.99 23.31 5.99 23.19 4.99 19.91 1.15 18.99 0.87 18.99 5.99" style="fill: #cea04e"/>
  <g>
    <path d="M7.2,29.49a1.71,1.71,0,0,1-1.71-1.71V4.2A1.72,1.72,0,0,1,7.2,2.49H19.93a1.68,1.68,0,0,1,1.33.64l3.86,4.58a1.67,1.67,0,0,1,.37,1.06v19a1.71,1.71,0,0,1-1.71,1.71Z" style="fill: #fcdba2"/>
    <path d="M19.93,3a1.24,1.24,0,0,1,1,.47L24.73,8a1.21,1.21,0,0,1,.26.76v19A1.21,1.21,0,0,1,23.78,29H7.2A1.21,1.21,0,0,1,6,27.79V4.2A1.21,1.21,0,0,1,7.2,3H19.93m0-1H7.2A2.21,2.21,0,0,0,5,4.2V27.79A2.21,2.21,0,0,0,7.2,30H23.78A2.21,2.21,0,0,0,26,27.79v-19a2.2,2.2,0,0,0-.48-1.38L21.65,2.82A2.22,2.22,0,0,0,19.93,2Z" style="fill: #cea04e"/>
  </g>
  <polygon points="20.99 7.99 25.31 7.99 25.19 6.99 21.91 3.15 20.99 2.87 20.99 7.99" style="fill: #cea04e"/>
  <g>
    <path d="M9.2,31.49a1.71,1.71,0,0,1-1.71-1.7V6.2A1.72,1.72,0,0,1,9.2,4.49H21.93a1.68,1.68,0,0,1,1.33.64l3.87,4.58a1.72,1.72,0,0,1,.36,1.06v19a1.7,1.7,0,0,1-1.71,1.7Z" style="fill: #c3d56c"/>
    <path d="M21.93,5a1.24,1.24,0,0,1,1,.47L26.73,10a1.21,1.21,0,0,1,.26.76v19A1.21,1.21,0,0,1,25.78,31H9.2A1.21,1.21,0,0,1,8,29.79V6.2A1.21,1.21,0,0,1,9.2,5H21.93m0-1H9.2A2.21,2.21,0,0,0,7,6.2V29.79A2.21,2.21,0,0,0,9.2,32H25.78A2.21,2.21,0,0,0,28,29.79v-19a2.2,2.2,0,0,0-.48-1.38L23.65,4.82A2.22,2.22,0,0,0,21.93,4Z" style="fill: #779a2c"/>
  </g>
  <polygon points="22.99 9.99 27.31 9.99 27.19 8.99 23.92 5.15 22.99 4.87 22.99 9.99" style="fill: #779a2c"/>
  <line x1="12.73" y1="18.43" x2="22.65" y2="18.43" style="fill: none;stroke: #fff;stroke-linecap: round;stroke-linejoin: round"/>
  <line x1="12.73" y1="15.43" x2="22.65" y2="15.43" style="fill: none;stroke: #fff;stroke-linecap: round;stroke-linejoin: round"/>
  <line x1="12.73" y1="21.43" x2="22.65" y2="21.43" style="fill: none;stroke: #fff;stroke-linecap: round;stroke-linejoin: round"/>
  <line x1="18.73" y1="24.43" x2="22.65" y2="24.43" style="fill: none;stroke: #fff;stroke-linecap: round;stroke-linejoin: round"/>
</svg>
