<svg id="b5f33e36-8f2a-4a1f-8d7e-b9132eee42bd" data-name="Calque 1" xmlns="http://www.w3.org/2000/svg" width="32" height="32" viewBox="0 0 32 32">
  <title>meteo-63-IconeMeteusPluieFine</title>
  <path d="M15.39.1A10.24,10.24,0,0,1,25.57,10.4a10.18,10.18,0,1,1-20.36,0A10.24,10.24,0,0,1,15.39.1" style="fill: #d3d2d2"/>
  <path d="M5.28,10.47a5.12,5.12,0,0,1,0,10.24,5.12,5.12,0,0,1,0-10.24" style="fill: #d3d2d2"/>
  <path d="M14.94,1.44A10.28,10.28,0,0,1,25.12,11.75a11.89,11.89,0,0,1-.32,2.62,10.59,10.59,0,0,0,.83-4,10.14,10.14,0,0,0-20-2.63,10.08,10.08,0,0,1,9.28-6.27" style="fill: #b9b9b9"/>
  <path d="M25.06,7a6.85,6.85,0,1,1-6.72,6.85A6.79,6.79,0,0,1,25.06,7" style="fill: #d3d2d2"/>
  <path d="M25.06,19.36a6.61,6.61,0,0,1-4.29-1.53,10.31,10.31,0,0,1-5.38,1.53,10.09,10.09,0,0,1-6.08-2,5,5,0,0,1-4,2,5.09,5.09,0,0,1-5-4.28,3.82,3.82,0,0,0-.06.83A5.12,5.12,0,0,0,5.28,21a5,5,0,0,0,4-2.05,10.1,10.1,0,0,0,11.46.51,6.73,6.73,0,0,0,11-5.31,3.56,3.56,0,0,0-.06-.83,6.73,6.73,0,0,1-6.66,6" style="fill: #b9b9b9"/>
  <path d="M15.84,25.57a3.21,3.21,0,0,0-3.2,3.2A3.17,3.17,0,0,0,19,29v-3.4H15.84" style="fill: #4797d3"/>
  <path d="M15,26.28A1.35,1.35,0,0,1,15,29a1.35,1.35,0,1,1,0-2.69" style="fill: #86c3ea"/>
</svg>
