<svg id="ad4aaf0e-a020-4822-a3da-c22f126cf3ec" data-name="Calque 1" xmlns="http://www.w3.org/2000/svg" width="32" height="32" viewBox="0 0 32 32">
  <title>phyto-60-IconeFongicide</title>
  <path d="M2.42,5.07V3.77A1.09,1.09,0,0,1,3.5,2.69H5.32A1.09,1.09,0,0,1,6.41,3.77v1.3" style="fill: #6e6a69"/>
  <g>
    <g>
      <path d="M19.71,20s-1.06,6.7-1.81,7.74-1.73,1.66,1.49,2.06,2.24-.9,2.08-1.63a63.48,63.48,0,0,1,.88-8c.2-.92-2.52-1.09-2.64-.21" style="fill: #ab5444"/>
      <path d="M21.11,15.47s-2.75,5.27-1.81,5,1.52-.92,1.81-.74.9,1.65,1.09,1.14.32-.24.63-.21.46-4.81.12-5.06a2.84,2.84,0,0,0-1.84-.18" style="fill: #ab5444"/>
      <path d="M13.86,15.56c-.94-.89.43-2.34,2.13-3s4.87-2.56,6.76-2.26,4.73,1.82,7,5.42,1.12,3.75.19,3.87-12.69-.78-16.06-4" style="fill: #ab5444"/>
    </g>
    <path d="M14.09,24.65l.49,2.71a4.38,4.38,0,0,1-.24,1.32c-.2.3-.7.89.38,1.09s2.83.23,3.42-.18-.75-1.21-1-1.37a19.93,19.93,0,0,1-1.23-2.85l-.53-1.14Z" style="fill: #ab5444"/>
    <path d="M17.31,22.15c.38,1.32-.75,2.28-2.34,2.73s-3.05.23-3.43-1.1a2.78,2.78,0,0,1,2.21-3.21A2.77,2.77,0,0,1,17.31,22.15Z" style="fill: #ab5444"/>
  </g>
  <path d="M22,4a1.4,1.4,0,0,0-1.4-1.4H12.14c-2.77,0-2.56,3.93-5.83,3.93H2.45A1.4,1.4,0,0,0,1.05,8L.5,12.56V22.74l.55,6a1.4,1.4,0,0,0,1.4,1.4h9.77a2.57,2.57,0,0,1,.31-2.37c0-.09,0-.2,0-.32l-.09-.5a3.65,3.65,0,0,1-2.86-2.64,4.3,4.3,0,0,1,.64-3.61,5.34,5.34,0,0,1,2.94-2.08,6.31,6.31,0,0,1,1.35-.21A8.92,8.92,0,0,1,12.48,17a2.91,2.91,0,0,1-.87-2.7c.34-1.73,2.1-3,3.64-3.63.36-.15.84-.37,1.35-.62,1.7-.8,3.81-1.8,5.66-1.82ZM18.66,6.33H13.92a1,1,0,0,1,0-2.1h4.74a1,1,0,1,1,0,2.1Z" style="fill: #ccc"/>
</svg>
