<svg id="bb8f1ba5-cac1-494b-912e-a48669ddc6f8" data-name="Calque 1" xmlns="http://www.w3.org/2000/svg" width="32" height="32" viewBox="0 0 32 32">
  <title>field-40-IconeCoursEau</title>
  <g>
    <polygon points="0.51 15.5 31.49 7.24 31.49 16.83 0.51 25.1 0.51 15.5" style="fill: #8ebee3"/>
    <path d="M31,7.88v8.58l-30,8V15.88l30-8M32,6.6l-1.23.33-30,8-.73.2v10.6l1.23-.32,30-8,.73-.2V6.6Z" style="fill: #037faf"/>
  </g>
  <g>
    <path d="M2.15,16.36l.33.33s.15.14.34.29l.16.11.14.09.08.05.16.09.08,0,.2.09.07,0a3.87,3.87,0,0,0,.63.2h.13a1.6,1.6,0,0,0,.23,0h.53l.28,0,.11,0,.3-.08.15-.05h0l.28-.13.1-.05.08,0a2.38,2.38,0,0,0,.3-.18l0,0L7,17a4.58,4.58,0,0,0,.45-.35l.35-.31h0l.33.33,0,0,0,0,0,0,.1.09,0,0a3.73,3.73,0,0,0,2.14.85h0a3.66,3.66,0,0,0,2.6-1.06l.35-.31.32.33a3.47,3.47,0,0,0,4.95,0l.35-.31.33.33a3.21,3.21,0,0,0,.34.29l.16.11.14.09.08.05.16.09.08,0,.2.09.07,0a3.58,3.58,0,0,0,.63.2h.13l.22,0h.54l.28,0,.11,0,.3-.08.15-.05h0l.28-.13.1-.05.07,0a2.48,2.48,0,0,0,.31-.18l0,0,.11-.08a4.58,4.58,0,0,0,.45-.35l.35-.31h0l.33.33,0,0,0,0,0,0,.1.09,0,0a3.8,3.8,0,0,0,1.44.74l3.14-.84.16-.11.34-.31.23.23.49-.13V14.75l-.47.05a4.8,4.8,0,0,1-3-1,4.71,4.71,0,0,1-2.15,1l-.13,0c-.13,0-.26,0-.39,0h-.3l-.29,0h-.07l-.1,0-.27-.05h0l-.13,0-.23-.06h0l-.15-.06-.23-.09-.06,0-.07,0-.27-.14h0l0,0a5.05,5.05,0,0,1-.68-.44,4.49,4.49,0,0,1-2.67,1h-.52l-.14,0-.29,0-.13,0-.32-.09-.06,0-.36-.14-.07,0-.25-.12-.1-.06a1.18,1.18,0,0,1-.19-.11l-.1,0L16.59,14l-.08,0-.14-.11-.05,0h0a4.51,4.51,0,0,1-2.66,1,4.75,4.75,0,0,1-3-1,4.81,4.81,0,0,1-2.15,1l-.14,0c-.13,0-.26,0-.39,0h-.3l-.29,0H7.37l-.11,0L7,14.69H7l-.13,0-.23-.06h0l-.14-.06-.13,0L1,15.88v1.37a5.37,5.37,0,0,0,.81-.58Z" style="fill: none"/>
    <path d="M7.78,22.63l-.27,0H7.32l-.09,0a3.51,3.51,0,0,1-.58-.14l-.07,0a5.12,5.12,0,0,1-1.52-.82A5.27,5.27,0,0,1,4,22.25H4l0,0a5.4,5.4,0,0,1-.71.24h0a3.87,3.87,0,0,1-.66.09h-.1a3.84,3.84,0,0,1-.59,0h0A4.8,4.8,0,0,1,1,22.42v2l6.84-1.83Z" style="fill: none"/>
    <path d="M4.73,20.59l.35-.31h0l.13.13h0l.2.2a4,4,0,0,0,1.49.89l.15,0,.15,0,.22,0h.09l.28,0h0a3.32,3.32,0,0,0,1.48-.35h0a4.63,4.63,0,0,0,1.06-.72l.35-.31.33.33a4,4,0,0,0,1.31.82l3.83-1,.14-.13h0l.07.07L25.14,18a5.3,5.3,0,0,1-.5-.34h0a6.31,6.31,0,0,1-.66.44l-.11.06a4.14,4.14,0,0,1-.61.28l-.11,0a4.87,4.87,0,0,1-.6.16h0a5.54,5.54,0,0,1-.56.05h-.18l-.34,0h-.1l-.41-.08h0l-.34-.09-.12,0-.24-.1-.12-.05-.22-.1-.09,0L19.51,18l-.12-.08-.12-.07-.12-.09,0,0h0L19,17.67a4.33,4.33,0,0,1-5.63,0,4.35,4.35,0,0,1-5.62,0h0c-.23.17-.45.31-.66.44L7,18.18a4.77,4.77,0,0,1-.62.28l-.11,0a4.87,4.87,0,0,1-.6.16h0a5.54,5.54,0,0,1-.56.05H4.91l-.34,0H4.48l-.42-.08H4l-.34-.09-.11,0-.25-.1-.11-.05L3,18.22l-.09,0L2.63,18l-.12-.08-.11-.07-.13-.09,0,0h0l-.11-.09A5.36,5.36,0,0,1,1,18.36v3a3.3,3.3,0,0,0,1.45.26A3.78,3.78,0,0,0,4.73,20.59Z" style="fill: none"/>
    <path d="M16,12.75l.35-.31.32.33a2.49,2.49,0,0,0,.27.23l0,0,.14.11,0,0,.16.1.06,0,.19.1.06,0,.22.11.06,0,.28.1h0a3.28,3.28,0,0,0,1.11.14h.07l.33,0,.1,0,.32-.09.12,0,.33-.15.11-.06a3.6,3.6,0,0,0,.37-.22l.09,0a5.13,5.13,0,0,0,.46-.38h0l.35-.31h0l.33.33.06.06,0,0,.07.06.16.13a.91.91,0,0,0,.16.11h0A3.35,3.35,0,0,0,27,12.92l.21-.17.35-.31h0l.33.33.12.12a3.57,3.57,0,0,0,2.95.86V10.32l0,0-.18-.1-.1-.07L30.54,10,30.45,10l-.14-.11,0,0a4.49,4.49,0,0,1-2.67,1A4.6,4.6,0,0,1,24.92,10h0l-.28-.19-.08.05a4.62,4.62,0,0,1-.66.43h0a4.11,4.11,0,0,1-.52.25l-.1,0-.27.1h0l-.16,0-.07,0-.37.08-.26,0-.27,0h-.25a3.11,3.11,0,0,1-.44-.06l-.12,0-.46-.11h0L11.44,13.1A3.4,3.4,0,0,0,16,12.75Z" style="fill: none"/>
    <path d="M10.14,22l-.15.08,1-.26a2.27,2.27,0,0,1-.28-.21C10.51,21.74,10.32,21.86,10.14,22Z" style="fill: none"/>
    <path d="M25.69,9.38l.17.1.08,0,.2.09.08,0,.25.09h.05a3.19,3.19,0,0,0,.71.14h.49l.29,0,.13,0,.29-.08.15-.05.29-.13L29,9.48l.33-.2.12-.08a5,5,0,0,0,.46-.37l.35-.31.33.33a4,4,0,0,0,.39.32V7.88L25.59,9.32l0,0Z" style="fill: none"/>
    <path d="M2.24,17.76h0l0,0,.13.09.11.07.12.08.26.15.09,0,.23.1.11.05.25.1.11,0L4,18.6h0l.42.08h.09l.34,0h.18a5.54,5.54,0,0,0,.56-.05h0a4.87,4.87,0,0,0,.6-.16l.11,0A4.77,4.77,0,0,0,7,18.18l.11-.06c.21-.13.43-.27.66-.44h0a4.35,4.35,0,0,0,5.62,0,4.33,4.33,0,0,0,5.63,0l.11.09h0l0,0,.12.09.12.07.12.08.26.15.09,0,.22.1.12.05.24.1.12,0,.34.09h0l.41.08h.1l.34,0H22a5.54,5.54,0,0,0,.56-.05h0a4.87,4.87,0,0,0,.6-.16l.11,0a4.14,4.14,0,0,0,.61-.28l.11-.06a6.31,6.31,0,0,0,.66-.44h0a5.3,5.3,0,0,0,.5.34l1.5-.4a3.8,3.8,0,0,1-1.44-.74l0,0-.1-.09,0,0,0,0,0,0-.33-.33h0l-.35.31a4.58,4.58,0,0,1-.45.35l-.11.08,0,0a2.48,2.48,0,0,1-.31.18l-.07,0-.1.05-.28.13h0l-.15.05-.3.08-.11,0-.28,0h-.54l-.22,0h-.13a3.58,3.58,0,0,1-.63-.2l-.07,0-.2-.09-.08,0-.16-.09L20,17.18l-.14-.09L19.7,17a3.21,3.21,0,0,1-.34-.29L19,16.36l-.35.31a3.47,3.47,0,0,1-4.95,0l-.32-.33-.35.31a3.66,3.66,0,0,1-2.6,1.06h0a3.73,3.73,0,0,1-2.14-.85l0,0-.1-.09,0,0,0,0,0,0-.33-.33h0l-.35.31A4.58,4.58,0,0,1,7,17l-.11.08,0,0a2.38,2.38,0,0,1-.3.18l-.08,0-.1.05-.28.13h0l-.15.05-.3.08-.11,0-.28,0H4.7a1.6,1.6,0,0,1-.23,0H4.34a3.87,3.87,0,0,1-.63-.2l-.07,0-.2-.09-.08,0-.16-.09-.08-.05L3,17.09,2.82,17c-.19-.15-.32-.27-.34-.29l-.33-.33-.34.31a5.37,5.37,0,0,1-.81.58v1.11a5.36,5.36,0,0,0,1.13-.69Z" style="fill: #0499d1"/>
    <path d="M29.94,16.67l-.16.11.73-.19-.23-.23Z" style="fill: #0499d1"/>
    <path d="M1.85,22.61a3.84,3.84,0,0,0,.59,0h.1a3.87,3.87,0,0,0,.66-.09h0a5.4,5.4,0,0,0,.71-.24l0,0H4a5.27,5.27,0,0,0,1.07-.66,5.12,5.12,0,0,0,1.52.82l.07,0a3.51,3.51,0,0,0,.58.14l.09,0h.19l.27,0h.06L10,22.06l.15-.08c.18-.12.37-.24.56-.39a2.27,2.27,0,0,0,.28.21l1.38-.37a4,4,0,0,1-1.31-.82l-.33-.33-.35.31a4.63,4.63,0,0,1-1.06.72h0a3.32,3.32,0,0,1-1.48.35h0l-.28,0H7.43l-.22,0-.15,0-.15,0a4,4,0,0,1-1.49-.89l-.2-.2h0l-.13-.13h0l-.35.31a3.78,3.78,0,0,1-2.28,1.06A3.3,3.3,0,0,1,1,21.39v1a4.8,4.8,0,0,0,.81.19Z" style="fill: #0499d1"/>
    <polygon points="16.35 20.28 16.35 20.28 16.34 20.28 16.33 20.28 16.18 20.41 16.42 20.35 16.35 20.28 16.35 20.28" style="fill: #0499d1"/>
    <path d="M21.05,10.79l.12,0a3.11,3.11,0,0,0,.44.06h.25l.27,0,.26,0,.37-.08.07,0,.16,0h0l.27-.1.1,0a4.11,4.11,0,0,0,.52-.25h0a4.62,4.62,0,0,0,.66-.43l.08-.05.28.19h0a4.6,4.6,0,0,0,2.67.84,4.49,4.49,0,0,0,2.67-1l0,0,.14.11.09.06.15.09.1.07.18.1,0,0V9.17a4,4,0,0,1-.39-.32l-.33-.33-.35.31a5,5,0,0,1-.46.37l-.12.08-.33.2-.15.07-.29.13-.15.05-.29.08-.13,0-.29,0h-.49a3.19,3.19,0,0,1-.71-.14h-.05l-.25-.09-.08,0-.2-.09-.08,0-.17-.1-.08,0,0,0-5,1.35h0Z" style="fill: #0499d1"/>
    <path d="M6.57,14.57h0l.23.06.13,0H7l.27.05.11,0h.06l.29,0H8c.13,0,.26,0,.39,0l.14,0a4.81,4.81,0,0,0,2.15-1,4.75,4.75,0,0,0,3,1,4.51,4.51,0,0,0,2.66-1h0l.05,0,.14.11.08,0,.16.11.1,0a1.18,1.18,0,0,0,.19.11l.1.06.25.12.07,0,.36.14.06,0,.32.09.13,0,.29,0,.14,0h.52a4.49,4.49,0,0,0,2.67-1,5.05,5.05,0,0,0,.68.44l0,0h0l.27.14.07,0,.06,0,.23.09.15.06h0l.23.06.13,0h0l.27.05.1,0h.07l.29,0h.3c.13,0,.26,0,.39,0l.13,0a4.71,4.71,0,0,0,2.15-1,4.8,4.8,0,0,0,3,1l.47-.05v-1a3.57,3.57,0,0,1-2.95-.86l-.12-.12-.33-.33h0l-.35.31-.21.17a3.35,3.35,0,0,1-4.25.25h0a.91.91,0,0,1-.16-.11l-.16-.13-.07-.06,0,0-.06-.06L22,12.44h0l-.35.31h0a5.13,5.13,0,0,1-.46.38l-.09,0a3.6,3.6,0,0,1-.37.22l-.11.06-.33.15-.12,0-.32.09-.1,0-.33,0h-.07a3.28,3.28,0,0,1-1.11-.14h0l-.28-.1-.06,0-.22-.11-.06,0-.19-.1-.06,0-.16-.1,0,0L17,13l0,0a2.49,2.49,0,0,1-.27-.23l-.32-.33-.35.31a3.4,3.4,0,0,1-4.56.35L6.3,14.47l.13,0Z" style="fill: #0499d1"/>
  </g>
</svg>
