<svg id="aafec150-4971-4a3b-976c-7e07b1455ff3" data-name="Calque 1" xmlns="http://www.w3.org/2000/svg" width="32" height="32" viewBox="0 0 32 32">
  <title>print-01-IconeFeuilleJaune</title>
  <g>
    <path d="M6.19,31.49a1.72,1.72,0,0,1-1.71-1.71V2.19A1.71,1.71,0,0,1,6.19.49H21.92a1.68,1.68,0,0,1,1.33.64L27.12,5.7a1.74,1.74,0,0,1,.36,1.06v23a1.71,1.71,0,0,1-1.71,1.71Z" style="fill: #fac262"/>
    <path d="M21.92,1a1.21,1.21,0,0,1,1,.47L26.72,6a1.2,1.2,0,0,1,.26.75v23A1.21,1.21,0,0,1,25.77,31H6.19A1.21,1.21,0,0,1,5,29.78V2.19A1.21,1.21,0,0,1,6.19,1H21.92m0-1H6.19A2.2,2.2,0,0,0,4,2.19V29.78A2.21,2.21,0,0,0,6.19,32H25.77A2.21,2.21,0,0,0,28,29.78v-23a2.23,2.23,0,0,0-.48-1.38L23.64.81A2.19,2.19,0,0,0,21.92,0Z" style="fill: #cea04e"/>
  </g>
  <polygon points="22.98 5.99 27.3 5.99 27.18 4.99 23.91 1.14 22.98 0.86 22.98 5.99" style="fill: #cea04e"/>
</svg>
