<svg id="aeef202e-b474-47dc-89d5-917a6f875a78" data-name="Calque 1" xmlns="http://www.w3.org/2000/svg" width="16" height="16" viewBox="0 0 16 16">
  <title>keys-16-3398ACD1</title>
  <g>
    <path d="M3,8.17A2.43,2.43,0,0,1,4.53,3.85H7.81a2.4,2.4,0,0,1,1.37.43,2.55,2.55,0,0,1,.84,1,2.6,2.6,0,0,1,.22,1,2.52,2.52,0,0,1-.22,1,2.48,2.48,0,0,1-.84,1,2.4,2.4,0,0,1-1.37.43H7.2a1.42,1.42,0,0,0,0,2h.61a4.42,4.42,0,0,0,3.92-2.4,4.91,4.91,0,0,0,.36-1,4.2,4.2,0,0,0,.15-1.08,4.08,4.08,0,0,0-.11-.93,4.35,4.35,0,0,0-.39-1.06A4.41,4.41,0,0,0,7.81,1.85H4.53a4.43,4.43,0,0,0-1.7,8.52,4.68,4.68,0,0,1,0-.66A5.62,5.62,0,0,1,3,8.17Z" style="fill: #9a9b9d"/>
    <path d="M15.93,9.71a4.43,4.43,0,0,0-2.74-4.09,4.89,4.89,0,0,1,.05.66A5.28,5.28,0,0,1,13,7.83a2.41,2.41,0,0,1-1.51,4.31H8.22A2.42,2.42,0,0,1,6,10.71a2.36,2.36,0,0,1-.22-1A2.44,2.44,0,0,1,8.22,7.28h.61a1.42,1.42,0,0,0,0-2H8.22A4.44,4.44,0,0,0,3.93,8.63a4.84,4.84,0,0,0-.14,1.08,4.17,4.17,0,0,0,.1.94,4.44,4.44,0,0,0,4.33,3.49H11.5A4.43,4.43,0,0,0,15.93,9.71Z" style="fill: #9a9b9d"/>
  </g>
</svg>
