<svg id="aea587f6-0218-43ff-bf1d-2ef67fd6918d" data-name="Calque 1" xmlns="http://www.w3.org/2000/svg" width="32" height="32" viewBox="0 0 32 32">
  <title>building-75-IconeZoneInfluence</title>
  <path d="M16,1.5A14.5,14.5,0,1,1,1.5,16,14.51,14.51,0,0,1,16,1.5M16,0A16,16,0,1,0,32,16,16,16,0,0,0,16,0Z" style="fill: #e74853"/>
  <polygon points="24.11 24.37 20.74 24.37 11.25 24.37 7.83 24.37 7.83 15.79 7.83 9.65 10.4 7.86 15.97 5.59 21.54 7.86 24.11 11.22 24.11 15.79 24.11 24.37" style="fill: #caa989"/>
  <rect x="12.11" y="12.51" width="7.72" height="2.57" style="fill: #dfcab5"/>
  <rect x="12.11" y="17.51" width="7.72" height="6.86" style="fill: #dfcab5"/>
  <path d="M24.84,18.37a1.7,1.7,0,0,1-1.63-1.21L21.6,12,16,7.74,10.34,12,8.73,17.16a1.71,1.71,0,1,1-3.27-1l1.77-5.69a1.67,1.67,0,0,1,.6-.86l7.11-5.36a1.68,1.68,0,0,1,2.06,0l7.11,5.36a1.67,1.67,0,0,1,.6.86l1.77,5.69a1.71,1.71,0,0,1-1.13,2.15A1.81,1.81,0,0,1,24.84,18.37Z" style="fill: #935b3f"/>
</svg>
