<svg id="e247e2b3-90a2-4596-bb85-5cd0963d666c" data-name="Calque 1" xmlns="http://www.w3.org/2000/svg" width="32" height="32" viewBox="0 0 32 32">
  <title>field-39-15F11025</title>
  <path d="M13,20a3,3,0,0,1,3-3h9.58l6.33-9.41L12.75,0,.19,18.39,13,29.94Z" style="fill: #516d53"/>
  <path d="M13,20a3,3,0,0,1,3-3h9l6.17-9.18L12.93.62.84,18.31,13,29.28Z" style="fill: #ece229"/>
  <path d="M11,23.67c.81-.38,1.32,0,2,.09V20a3,3,0,0,1,3-3h.45l-.26-.1c-1.27-.38-.88-2.73.45-1.26.48.53.82,1,1.11,1.36h1.37l.15-.2c1.05-1.48.39-3.23,2.56-2.42s1.26,1.89,2.88,2.21a3.37,3.37,0,0,1,.48.12l4.29-6.39C29.59,9,29.41,8,28.67,7.89c-2-.39-2.52-.11-2.52,1.26s-1.62,2.84-1.9,2.21-.91-.38.14-1.58,2.46-.35,1-2C24.33,6.61,24.32,5.3,23.92,5l-.21-.09a.79.79,0,0,0-.37.11c-1.09.56-1.51,4-2.56,3s-1.86-4.17-3.44-2.35-3.61,1.89-4,.42C13,5,10.87,4.33,10.79,3.75L1.32,17.61c.18.62.55.87,1.19.52,2.63-1.44.31-3.58,3-1.82S10.22,17.57,9.73,19s-.28,3.37-1.93,2.25S6.47,21.18,6,19.74s.28-2.59-.84-2.17-2.1.95-2,2a5.07,5.07,0,0,0,.52,1.32l4.46,4c.82-.48,1.51-.78,1.54.48A2.52,2.52,0,0,0,10,26.6l.71.64c.38.12.76,0,1-.62C12.29,25.21,9.56,24.37,11,23.67ZM9,17.1c-.75.74-1.37-4.18-1.37-4.18a14.52,14.52,0,0,1,1.06-2.55c.43-.69,1.74-.62,2.42.19s0,2.74,0,4.79S9.78,16.35,9,17.1Z" style="fill: #8ebb1a"/>
  <path d="M9.7,25.39A2.52,2.52,0,0,0,10,26.6L8.16,24.91C9,24.43,9.67,24.13,9.7,25.39Z" style="fill: #be1e1d"/>
  <path d="M12,1.94c1,.22,1.44.8-.16,1.18a3.29,3.29,0,0,0-.85.3Z" style="fill: #e65120"/>
  <path d="M13,3.38l.58-.75,5.8,1.45c-.07,0,2.66,1,2.56,1.06-.76.37-1.39,1.1-2.21.68s-1.59-2-2.64-.94-2.53,1.26-2.92.54c-.28-.52-1.88-.72-2-1l.14-.19A3.48,3.48,0,0,1,12.94,4C14.09,3.68,13.73,3.42,13,3.38Z" style="fill: #ecac12"/>
  <path d="M9.08,14.37c.25-.07.35-.22.21-.48-.58-1.08-1.46-.14-.74-1.22s.53-1.93,1.13-1.73,1.37.13.91.8-.05.54-.63.73-1.06-.12-.89.34.38.86.81.81a2.52,2.52,0,0,0,.54-.21L9.36,14.57Z" style="fill: #ecac12"/>
  <path d="M9.66,8.1c.35-.72,1,0,1.2-1.3s.31-1.68,1-1.12,1.05,1.26.17,2S9,9.29,9.66,8.1Z" style="fill: #e65120"/>
  <path d="M13.83,14.73s-1.93-4.36.5-5.67,3.3-4.61,4.48-1.12.81,4.73.07,5.54-.13,2.31-1.68.94S14.64,11.49,13.83,14.73Z" style="fill: #417c2a"/>
  <path d="M13,20a3,3,0,0,1,.61-1.8c-1.45-.92-2.51-1.51-2.69-.4-.25,1.5.33,3-.09,3.07-1.85-.08-.74,1.75,1.33,1.58a6.27,6.27,0,0,1,.84,0Z" style="fill: #b8cb1e"/>
  <g>
    <g>
      <rect x="15.5" y="19.5" width="16" height="12" style="fill: #fff"/>
      <path d="M31,20V31H16V20H31m1-1H15V32H32V19Z" style="fill: #868789"/>
    </g>
    <rect x="17" y="21" width="13" height="3" style="fill: #007bbd"/>
    <rect x="19" y="26" width="1" height="1" style="fill: #cfd0d0"/>
    <rect x="23" y="26" width="1" height="1" style="fill: #cfd0d0"/>
    <rect x="27" y="26" width="1" height="1" style="fill: #cfd0d0"/>
    <g>
      <rect x="17" y="25" width="13" height="1" style="fill: #fff"/>
      <polygon points="30 25 17 25 17 26 30 26 30 25 30 25" style="fill: #cfd0d0"/>
    </g>
    <rect x="19" y="29" width="1" height="1" style="fill: #cfd0d0"/>
    <rect x="23" y="29" width="1" height="1" style="fill: #cfd0d0"/>
    <rect x="27" y="29" width="1" height="1" style="fill: #cfd0d0"/>
    <g>
      <rect x="17" y="28" width="13" height="1" style="fill: #fff"/>
      <polygon points="30 28 17 28 17 29 30 29 30 28 30 28" style="fill: #cfd0d0"/>
    </g>
  </g>
  <path d="M23.57,17l.07-.48-.26.05c-.87.21-.67-.53-1.93-.43-.81.06-.79.38-.73.86Z" style="fill: #ecac12"/>
  <path d="M12.34,26.84l.66.6V25a.82.82,0,0,0-.52.06c-.74.36.64.78.35,1.49C12.72,26.82,12.52,26.9,12.34,26.84Z" style="fill: #be1e1d"/>
</svg>
