<svg id="ac4cc9da-09a1-4629-9161-b52b7f331a11" data-name="Calque 1" xmlns="http://www.w3.org/2000/svg" width="32" height="32" viewBox="0 0 32 32">
  <title>vegetal-58-IconeRecolte</title>
  <circle cx="10.99" cy="14.51" r="2.86" transform="matrix(0.27, -0.96, 0.96, 0.27, -5.93, 21.22)" style="fill: #c1d900"/>
  <circle cx="5.32" cy="17.54" r="2.86" transform="translate(-13.01 17.98) rotate(-74.5)" style="fill: #c1d900"/>
  <circle cx="10.99" cy="22.6" r="2.86" transform="translate(-13.72 27.15) rotate(-74.5)" style="fill: #c1d900"/>
  <circle cx="16.86" cy="26.29" r="2.86" style="fill: #79418f"/>
  <circle cx="23.04" cy="14.88" r="2.86" transform="translate(-3.16 6.77) rotate(-15.65)" style="fill: #79418f"/>
  <circle cx="28.23" cy="17.97" r="2.86" transform="translate(-3.8 8.29) rotate(-15.65)" style="fill: #79418f"/>
  <circle cx="17.83" cy="11.96" r="2.86" transform="translate(-2.57 5.25) rotate(-15.65)" style="fill: #79418f"/>
  <circle cx="17.26" cy="19.33" r="2.86" transform="translate(-4.58 5.37) rotate(-15.65)" style="fill: #79418f"/>
  <circle cx="22.6" cy="22.33" r="2.86" style="fill: #79418f"/>
  <path d="M15.42,3.49c2.19,1.58,4.32,3.19,6.5,4.68a38.06,38.06,0,0,0,3.33,2.07c1.12.59,2.37,1.13,3.16.78a1.57,1.57,0,0,0,.86-1,2,2,0,0,0,0-1.45.71.71,0,0,0-1-.4c-.44.13-.61.44-.59,1a6.9,6.9,0,0,0,1.62,3.34,13.57,13.57,0,0,0,2.91,2.69,11.33,11.33,0,0,1-3.34-2.3,7.16,7.16,0,0,1-2.16-3.62A2,2,0,0,1,26.88,8a1.83,1.83,0,0,1,1-.91A2.11,2.11,0,0,1,29.28,7a1.88,1.88,0,0,1,1.1.92,3.31,3.31,0,0,1,.25,2.46,2.93,2.93,0,0,1-1.64,2,3.56,3.56,0,0,1-2.47,0,12.55,12.55,0,0,1-2-.89,25.34,25.34,0,0,1-3.38-2.34A41.87,41.87,0,0,1,15.42,3.49Z" style="fill: #6da200"/>
  <path d="M27.18,4.23a9.25,9.25,0,0,0-1.39,2.91,17.47,17.47,0,0,0-.63,3.45l-1.22.09a18.52,18.52,0,0,1-.23-3.87,11.53,11.53,0,0,1,.85-4l0,0a1.51,1.51,0,1,1,2.6,1.51Z" style="fill: #6da200"/>
  <path d="M13.57,8a24.27,24.27,0,0,1-3.08,2.19c-1.06.67-2.16,1.26-3.27,1.83S5,13.1,3.8,13.55A24.35,24.35,0,0,1,.2,14.7a24.05,24.05,0,0,1,3.1-2.21c1.06-.66,2.15-1.26,3.26-1.81A37.22,37.22,0,0,1,10,9.16,23.62,23.62,0,0,1,13.57,8Z" style="fill: #6da200"/>
  <path d="M3.32,8.08a6.1,6.1,0,0,1,1.5,1.5,11.61,11.61,0,0,1,1.14,2l.78-.21A12.44,12.44,0,0,0,6,8.92,7.68,7.68,0,0,0,4.62,6.6l0,0A1,1,0,0,0,3.13,7.92Z" style="fill: #6da200"/>
</svg>
