<svg id="a5b5a842-86e4-4bcc-8d0d-1be8ee6d23e9" data-name="Calque 1" xmlns="http://www.w3.org/2000/svg" width="32" height="32" viewBox="0 0 32 32">
  <title>sign-67-IconeExplosif</title>
  <g>
    <rect width="32" height="32" style="fill: #f90"/>
    <path d="M31,1V31H1V1H31m1-1H0V32H32V0Z"/>
  </g>
  <g>
    <path d="M27.32,9.51c-.69.18-1.42.4-1.42-1s1.67-1.45,1.82-1.14a1.59,1.59,0,0,1-.4,2.1"/>
    <path d="M3.57,20.88c.06-.66.43-1,.87-.84s.95.84.46,1.11-1.27.19-1.33-.27"/>
    <path d="M10.83,28.44c-.2-.55.65-1.08,1.45-.58s.74,1.11.28,1.26-1.51,0-1.73-.68"/>
    <path d="M16.2,21.9c0-.32.65-.5.81-.19s.06.83-.28.8-.56-.15-.53-.61"/>
    <path d="M29.36,9.42c.25.43-.65,1.23-1.08.62-.28-.29.83-1,1.08-.62m-10.87,16c-.74-.16-.93.3-1.85.3s-5-.58-5.1-1a1.22,1.22,0,0,1,1.24-1.33c1,0,.18,1.05,2,1.17s1.18-1.14,2.17-1,13.55,1.12,13.68,1.67.25,2.29-.5,2.29-8.52-.87-8.3-1.18,2.13-.31,1.51-1-3.43-1.15-3.61-.75,1.14,1.64.52,1.64S19.23,25.54,18.49,25.39Zm-8.37.89c-.37,0-.06-.31-1.08-.43s-.07-1.28,0-.74c.25.43,1.36.25,1.64.06s8,2.07,9.11,2.38.28.74.58,1.3.93-.1,1.27.34.56.61,1,.55a2,2,0,0,1,1.58.19c.89.4.95-.19,1.54-.68s3.77,1.26,3.77,1.26-4.82.78-6.67.06c-3.06-1.41-5.75-2.31-5.87-3s-1-.34-1.79,0-2.29-1-3.09-.9A8.11,8.11,0,0,1,10.12,26.28ZM6.6,23.69c-.43-.33.09-2,.49-1.79S7.43,24.34,6.6,23.69Zm-.73-2.54a3.81,3.81,0,0,0-2.28,3.74c0,2,2,3.32,4,3.49,2.58,0,2.89-1.39,3.44-1.45s6.18,3,6.55,3.49a1.11,1.11,0,0,1,0,1.14l14.18,0V.68l-5.28,0s-.93,0-.78,1.17S13,18.42,12.73,18.62s.06-.65-.25-.89-.83.6-.86,1.06a.38.38,0,0,1-.65.3c-.17-.22,5.25-12.95,5.5-13.41s.51.39,1.09.54.65,0,1.28-.18-2.87,5.49-3.3,5.89.46-1-.49-1.2-1.13,1.13-1.18,1.54.63,1.32.59,1.7-1.47,1.79-.8,1.81S24.31,1.56,24.7,1.14,21,.52,21.44.94s-.54,2.28-.85,2.49-1-.48-1.37-.56-1.26.6-1.63.57.65-1.9.93-2.33S17.66.72,16.34.63s-2,.31-1.9.39.91,1.19.17,1-1.68.52-2.44,1.52S11.85,6,12.5,6.14s.69-.58,1.17-.63-.32,2-.57,2S13,7.12,12.3,7s-1,1.57-1,2.48.29,1.1.91,1.1,0,1.81-.26,1.92.24-1.19-.5-1.27-1.19,1.65-1,1.87a10.17,10.17,0,0,1,.17,2.11c.08.75.86.33.65.94-.65,1.92-.95,3.47-.65,3.82s.6.58.18,1.25-.32.93-.18,1,19.81-18.73,20-18.81-.1,3.22,0,3.37S16.85,18.13,16.47,18.37s-.93.75-.31.58,13.51-7.86,14.21-8.2.32,2.7.15,3.64-6,3-7.1,3.4-1.38.12-1.24-.36,1.68-.21,1.41-1.17-1.6-.33-1.67.06-.47,1.21-.73,1.17a.79.79,0,0,0-.85.88c0,.78-2.11,1.26-2.93,1.63a5.35,5.35,0,0,1-3,.15c-1.5-.15-1.27.83-1,1.41S28.7,18.2,30,17.87s.69,1.83.26,2.42-11.41,1.54-11.3,1.82,10.76-.2,11.42-.18.27.63.08.74-16.08.06-16.28.15-1.66.42-2.13.06-1.12-.49-1.16-.2a.52.52,0,0,1-.66.44c-.28-.13-1.44,1-1.79.51s1.2-1.3,1.39-1.63-.73-.58-.77-1.31,1-9.76,1-10.09a7.21,7.21,0,0,0,.28-2.95c.35-.33.4-1.14.48-3a7.65,7.65,0,0,1,.72-3.4c.17-.1-.54-.73-2-.73S8,1.05,8,1.05c.4.31.53,2.32.55,2.69s0,.76-.26.7C6.56,4.11,6.43,4.9,5.7,6.26a1.76,1.76,0,0,0,.91,2.53c.62.3,1.69-.36,1.69-.36a7.64,7.64,0,0,1,0,2c-.17.58-.74.49-1.42-.32s-.81.14-.84.67,1.4,1.33,1.4,1.33l-.09,1.42a2.84,2.84,0,0,0,1,2.29s0,2,0,2.85c-.33.12-.9-.48-1.1-.76S3.68.48,3.68.48L.71.53.61,1.61s7.13,19,6.64,19S.56,8.27.56,8.27l.07,5,5.13,7.05S6.32,20.88,5.87,21.15Z"/>
  </g>
</svg>
