<svg id="e309c2c6-52a6-4fdd-8563-cb1523d7ef30" data-name="Calque 1" xmlns="http://www.w3.org/2000/svg" width="32" height="32" viewBox="0 0 32 32">
  <title>folder-41-IconeImportDossiers</title>
  <path d="M6,5h5a3,3,0,0,1,2.83,2H22V5a1,1,0,0,0-1-1H8A1,1,0,0,1,7,3,1,1,0,0,0,6,2H1A1,1,0,0,0,0,3V18a1,1,0,0,0,1,1H3V8A3,3,0,0,1,6,5Z" style="fill: #fac262"/>
  <path d="M25.31,29A6.72,6.72,0,1,1,32,22.32,6.73,6.73,0,0,1,25.31,29Z" style="fill: #0499d1"/>
  <path d="M25.31,13.6a9.2,9.2,0,0,1,1.68.16V10a1,1,0,0,0-1-1H13a1,1,0,0,1-1-1,1,1,0,0,0-1-1H6A1,1,0,0,0,5,8V23a1,1,0,0,0,1,1H16.76a8.55,8.55,0,0,1-.17-1.68A8.73,8.73,0,0,1,25.31,13.6Z" style="fill: #fac262"/>
  <polygon points="28.86 19.91 27.72 18.78 24.6 21.9 22.34 19.63 22.34 25.3 28 25.3 25.74 23.03 28.86 19.91" style="fill: #fff"/>
</svg>
