<svg id="be45f7ba-411f-4492-849c-cbbfea3b02be" data-name="Calque 1" xmlns="http://www.w3.org/2000/svg" width="32" height="32" viewBox="0 0 32 32">
  <title>see-77-IconeZoomCentre</title>
  <path d="M27.77,24l-6.48-6.49a8.73,8.73,0,0,0,1-4.14,8.86,8.86,0,1,0-8.86,8.86,8.73,8.73,0,0,0,4.14-1l6.49,6.49A2.61,2.61,0,0,0,27.77,24ZM6.1,13.33a7.36,7.36,0,1,1,7.36,7.36A7.37,7.37,0,0,1,6.1,13.33Z" style="fill: #6f7072"/>
  <rect x="6.77" y="10.73" width="2" height="5" transform="translate(-5.47 21) rotate(-90)" style="fill: #6f7072"/>
  <rect x="18.07" y="10.73" width="2" height="5" transform="translate(5.84 32.3) rotate(-90)" style="fill: #6f7072"/>
  <rect x="12.49" y="16.44" width="2" height="5" transform="translate(26.98 37.88) rotate(-180)" style="fill: #6f7072"/>
  <rect x="12.49" y="5.02" width="2" height="5" transform="translate(26.98 15.05) rotate(-180)" style="fill: #6f7072"/>
</svg>
