<svg id="b02d871a-a298-4c86-be62-681396bab7d6" data-name="Calque 1" xmlns="http://www.w3.org/2000/svg" width="32" height="32" viewBox="0 0 32 32">
  <title>field-58-IconeImportCadastre</title>
  <path d="M25.28,28.05A6.72,6.72,0,1,1,32,21.33,6.73,6.73,0,0,1,25.28,28.05Z" style="fill: #0499d1"/>
  <polygon points="28.82 18.92 27.69 17.79 24.57 20.91 22.3 18.64 22.3 24.31 27.97 24.31 25.7 22.04 28.82 18.92" style="fill: #fff"/>
  <g>
    <polygon points="9.73 24.9 15.84 15.49 7.31 10.45 2.12 18.04 9.73 24.9" style="fill: #fff"/>
    <path d="M13.13,1.94,7.88,9.62l9.37,5.54L10.48,25.58l4.65,4.19,2.64-3.94A8.71,8.71,0,0,1,25.2,12.56a9.22,9.22,0,0,1,1.4.12L29.48,8.4Z" style="fill: #fff"/>
    <path d="M1.15,18.47a.46.46,0,0,1-.08-.61L12.55,1.06a.47.47,0,0,1,.56-.17l17.3,6.83a.49.49,0,0,1,.28.3.49.49,0,0,1-.06.41l-3,4.48h0l3.35-5L12.75.72.81,18.2l8.36,7.55,0,0Z" style="fill: #77787a"/>
    <path d="M2.12,18l5.19-7.59-.4-.24.51-.86.46.27,5.25-7.68L29.48,8.4,26.6,12.68a8.4,8.4,0,0,1,1,.23l3-4.48A.49.49,0,0,0,30.69,8a.49.49,0,0,0-.28-.3L13.11.89a.47.47,0,0,0-.56.17L1.07,17.86a.46.46,0,0,0,.08.61l8,7.25.54-.82Z" style="fill: #77787a"/>
    <path d="M15.61,30.79a.52.52,0,0,1-.33.21h-.06a.47.47,0,0,1-.32-.12L9.51,26l0,0-.32-.28h0l6.14,5.53,3.07-4.57v0Z" style="fill: #77787a"/>
    <path d="M15.13,29.77l-4.65-4.19,6.77-10.42L7.88,9.62l-.57.83,8.53,5L9.73,24.9l.43.39L9.51,26l5.39,4.87a.47.47,0,0,0,.32.12h.06a.52.52,0,0,0,.33-.21l2.76-4.1a8.29,8.29,0,0,1-.6-.86Z" style="fill: #77787a"/>
    <rect x="9.33" y="25.67" width="0.03" height="0.43" transform="translate(-16.13 15.49) rotate(-47.96)" style="fill: #77787a"/>
    <polygon points="9.73 24.9 9.19 25.73 9.51 26.01 10.16 25.29 9.73 24.9" style="fill: #77787a"/>
    <polygon points="6.91 10.21 7.31 10.45 7.88 9.62 7.42 9.35 6.91 10.21" style="fill: #77787a"/>
  </g>
  <path d="M7.29,14.42l.82,1.25c.22.32.4.62.59.94h0c.19-.34.38-.64.57-.95l.82-1.24h1.14l-2,2.81,2,3h-1.2l-.85-1.3c-.23-.34-.42-.66-.63-1h0c-.19.35-.4.66-.61,1l-.84,1.3H6l2.06-3-2-2.84Z" style="fill: #77787a"/>
  <path d="M20.58,6.9l1.27,3.43c.14.39.28.84.38,1.19h0c.11-.35.23-.79.37-1.21L23.77,6.9h1.12L23.3,11c-.75,2-1.27,3-2,3.64a2.9,2.9,0,0,1-1.29.68l-.27-.89a2.71,2.71,0,0,0,.93-.51,3.22,3.22,0,0,0,.89-1.18,1,1,0,0,0,.08-.25.85.85,0,0,0-.07-.28L19.43,6.9Z" style="fill: #77787a"/>
</svg>
