<svg id="f2b6f523-5537-45c1-85e5-2cb4f3afbd74" data-name="Calque 1" xmlns="http://www.w3.org/2000/svg" width="32" height="32" viewBox="0 0 32 32">
  <title>print-73-IconePublicationReferentiel</title>
  <path d="M3,4.76A2.22,2.22,0,0,1,5.19,3H17V2.6l-.11-.12a1.21,1.21,0,0,0-1-.48H3.19A1.21,1.21,0,0,0,2,3.21V26.8A1.18,1.18,0,0,0,3,28V5.21A2.28,2.28,0,0,1,3,4.76Z" style="fill: #fcdba2"/>
  <path d="M3,28A1.18,1.18,0,0,1,2,26.8V3.21A1.21,1.21,0,0,1,3.19,2H15.92a1.21,1.21,0,0,1,1,.48L17,2.6V1.88l.92.28.88,1h0L17.65,1.83A2.22,2.22,0,0,0,15.92,1H3.19A2.2,2.2,0,0,0,1,3.21V26.8A2.18,2.18,0,0,0,3,29c0-.06,0-.12,0-.18Z" style="fill: #cea04e"/>
  <polygon points="17.33 3 16.99 2.6 16.99 3 17.33 3" style="fill: #cea04e"/>
  <path d="M17.93,3a2.11,2.11,0,0,1,.86.19l-.88-1L17,1.88V2.6l.34.4Z" style="fill: #cea04e"/>
  <path d="M22.72,9l0,0H22v3.63a7.81,7.81,0,0,1,1-.33V9.78A1.24,1.24,0,0,0,22.72,9Z" style="fill: #fac262"/>
  <path d="M20.64,28.83a2.27,2.27,0,0,1-.86.17H4a1.18,1.18,0,0,0,1.16,1H21.78a1.19,1.19,0,0,0,1.14-.87,9.07,9.07,0,0,1-1.71-.67A2.15,2.15,0,0,1,20.64,28.83Z" style="fill: #fac262"/>
  <path d="M3.36,30a2.28,2.28,0,0,0,.6.6A2.28,2.28,0,0,1,3.36,30Z" style="fill: #fac262"/>
  <path d="M3,29a2.06,2.06,0,0,0,0,.26A2.06,2.06,0,0,1,3,29Z" style="fill: #fac262"/>
  <path d="M3.36,30A2.14,2.14,0,0,1,3,29.24,2.14,2.14,0,0,0,3.36,30Z" style="fill: #fac262"/>
  <path d="M3.36,4A2.16,2.16,0,0,0,3,4.76,2.16,2.16,0,0,1,3.36,4Z" style="fill: #fac262"/>
  <path d="M16.5,20.72A8.73,8.73,0,0,1,21,13.1V9H19V7H17V4H5.19A1.21,1.21,0,0,0,4,5.21V28H19.78a1.17,1.17,0,0,0,.49-.11A8.69,8.69,0,0,1,16.5,20.72ZM16,9.82A1.18,1.18,0,0,1,14.82,11H8.18A1.18,1.18,0,0,1,7,9.82V8.18A1.18,1.18,0,0,1,8.18,7h6.64A1.18,1.18,0,0,1,16,8.18Z" style="fill: #fac262"/>
  <path d="M3.36,4a2.14,2.14,0,0,1,.6-.6A2.14,2.14,0,0,0,3.36,4Z" style="fill: #fac262"/>
  <path d="M3,4.76a2.28,2.28,0,0,0,0,.45V28H3V5.21A2.28,2.28,0,0,1,3,4.76Z" style="fill: #fac262"/>
  <path d="M20.64,28.83a2.15,2.15,0,0,0,.57-.37h0A2.15,2.15,0,0,1,20.64,28.83Z" style="fill: #fac262"/>
  <path d="M3,28.8V28H3v.84c0,.06,0,.12,0,.18H3C3,28.92,3,28.86,3,28.8Z" style="fill: #fac262"/>
  <path d="M21,13.1a10.2,10.2,0,0,1,1-.47V9H21Z" style="fill: #fac262"/>
  <path d="M20.64,28.83a2.15,2.15,0,0,0,.57-.37,9,9,0,0,1-.94-.57,1.17,1.17,0,0,1-.49.11H4v.8A.71.71,0,0,0,4,29H19.78A2.27,2.27,0,0,0,20.64,28.83Z" style="fill: #fac262"/>
  <path d="M19,7V5L18.2,4a1.24,1.24,0,0,0-.27,0H17V7Z" style="fill: #fac262"/>
  <path d="M19,4.6l-.11-.12A1.28,1.28,0,0,0,18.2,4L19,5Z" style="fill: #fac262"/>
  <path d="M19.51,4l.4.12L21.4,5.9,19.65,3.83a2.2,2.2,0,0,0-.85-.64l.59.71Z" style="fill: #cea04e"/>
  <path d="M21.78,30H5.19A1.18,1.18,0,0,1,4,29H3.19L3,29a2.06,2.06,0,0,0,0,.26,2.14,2.14,0,0,0,.33.79,2.28,2.28,0,0,0,.6.6A2.23,2.23,0,0,0,5.19,31H21.78a2.2,2.2,0,0,0,2.13-1.66,7.9,7.9,0,0,1-1-.21A1.19,1.19,0,0,1,21.78,30Z" style="fill: #cea04e"/>
  <path d="M22.7,9l0,0a1.24,1.24,0,0,1,.27.76V12.3a8,8,0,0,1,1-.2V9.78A2.18,2.18,0,0,0,23.5,8.4L23.19,8l.12,1Z" style="fill: #cea04e"/>
  <path d="M4,28V5.21A1.21,1.21,0,0,1,5.19,4H17V3H5.19A2.22,2.22,0,0,0,3,4.76a2.28,2.28,0,0,0,0,.45V28a1.18,1.18,0,0,0,.2,0Z" style="fill: #cea04e"/>
  <path d="M4,28h-.8A1.18,1.18,0,0,1,3,28v.84c0,.06,0,.12,0,.18l.19,0H4a.71.71,0,0,1,0-.2Z" style="fill: #cea04e"/>
  <polygon points="19.39 3.9 18.8 3.19 18.79 3.19 19.39 3.9" style="fill: #cea04e"/>
  <polygon points="19.51 4.04 19.39 3.9 19.51 4.04 19.51 4.04" style="fill: #cea04e"/>
  <path d="M18.2,4l-.87-1H17V4h.94A1.24,1.24,0,0,1,18.2,4Z" style="fill: #cea04e"/>
  <path d="M17.33,3l.87,1a1.28,1.28,0,0,1,.68.45L19,4.6V3.88l.52.16-.12-.14-.6-.71A2.11,2.11,0,0,0,17.93,3Z" style="fill: #cea04e"/>
  <polygon points="23.19 8.01 21.4 5.9 23.19 8.03 23.19 8.01" style="fill: #cea04e"/>
  <polygon points="22.7 9 21.99 8.15 21.99 9 22.7 9" style="fill: #cea04e"/>
  <path d="M19,9h2V7.78A1.24,1.24,0,0,0,20.72,7l0,0H19Z" style="fill: #cea04e"/>
  <path d="M20.7,7l0,0a1.24,1.24,0,0,1,.27.76V9h1V8.15L21,7Z" style="fill: #cea04e"/>
  <polygon points="18.99 7 20.7 7 18.99 4.97 18.99 7" style="fill: #cea04e"/>
  <polygon points="20.7 7 21.02 7 18.99 4.6 18.99 4.97 20.7 7" style="fill: #cea04e"/>
  <path d="M19.51,4l1.68,2V6l.31.37A2.18,2.18,0,0,1,22,7.78v.37L22.7,9h.61l-.12-1L21.4,5.9,19.91,4.16Z" style="fill: #cea04e"/>
  <path d="M21,7l1,1.15V7.78A2.18,2.18,0,0,0,21.5,6.4L21.19,6l.12,1Z" style="fill: #cea04e"/>
  <polygon points="21.19 6.03 21.19 6 19.51 4.04 19.51 4.04 21.19 6.03" style="fill: #cea04e"/>
  <polygon points="18.99 3.88 18.99 4.6 21.02 7 21.31 7 21.19 6.03 19.51 4.04 18.99 3.88" style="fill: #cea04e"/>
  <rect x="7" y="7" width="9" height="4" rx="1.18" style="fill: #fff"/>
  <path d="M21.21,28.46l.13-.1-.13.1Z" style="fill: #bf3628"/>
  <path d="M25.22,27.45A6.73,6.73,0,1,1,32,20.72a6.74,6.74,0,0,1-6.73,6.73" style="fill: #5bab26"/>
  <rect x="24.5" y="16.36" width="1.5" height="9.02" style="fill: #fff"/>
  <rect x="20.75" y="20" width="8.95" height="1.5" style="fill: #fff"/>
  <path d="M32,20.72s0,.05,0,.08,0-.05,0-.08Z" style="fill: none"/>
</svg>
