<svg id="edd16e69-fc13-42d7-ab2e-651d567ce1e2" data-name="Calque 1" xmlns="http://www.w3.org/2000/svg" width="32" height="32" viewBox="0 0 32 32">
  <title>field-35-IconePlanEpandage</title>
  <g>
    <path d="M25.28,27.56a6.24,6.24,0,1,1,6.24-6.23A6.24,6.24,0,0,1,25.28,27.56Z" style="fill: #8ebee3"/>
    <path d="M25.28,15.58a5.75,5.75,0,1,1-5.74,5.75,5.76,5.76,0,0,1,5.74-5.75m0-1A6.73,6.73,0,1,0,32,21.33a6.74,6.74,0,0,0-6.73-6.73Z" style="fill: #037faf"/>
  </g>
  <polygon points="9.43 5.97 9.43 5.97 9.43 5.97 9.43 5.97" style="fill: #b61136"/>
  <g>
    <path d="M24.9,12.61a8.58,8.58,0,0,1,1.35.12L30,7.19,13.21,1.5,9.88,6.2l12.94,6.67A8.91,8.91,0,0,1,24.9,12.61Z" style="fill: #b61136"/>
    <path d="M13.21,1.5,30,7.19l-3.77,5.54A8.88,8.88,0,0,1,27.3,13l4.29-6.28L12.83.31,9,5.68l.35.25.51.27Z" style="fill: #79122a"/>
    <path d="M14.73,29.82l-13-11.73L9.88,6.2l0,.06L9.43,6h0l-.06,0L9,5.72.41,18.25,14.92,31.33,18,26.71a10.77,10.77,0,0,1-.61-.89Z" style="fill: #767779"/>
    <polygon points="9.43 5.97 9.84 6.26 9.88 6.2 9.37 5.93 9.43 5.97 9.43 5.97" style="fill: #767779"/>
    <path d="M22.82,12.87,9.88,6.2,1.73,18.09l13,11.73,2.7-4a8.7,8.7,0,0,1,5.39-12.95Z" style="fill: #a8cc82"/>
  </g>
  <g>
    <g>
      <path d="M28.06,25.49h-.12l-.28,0-.13,0-.26,0-.11,0-.3-.08-.05,0a3,3,0,0,1-.32-.12l-.07,0L26.2,25,26.1,25l-.17-.1-.08-.05-.15-.09-.07-.05-.13-.1,0,0h0a4.05,4.05,0,0,1-2.39.93,4.15,4.15,0,0,1-2.35-.71,5.73,5.73,0,0,0,8.88.35,3.77,3.77,0,0,1-1.46.36Z" style="fill: #8ebee3"/>
      <path d="M21.55,17.18l.19.1.06,0,.25.09h0a3.29,3.29,0,0,0,.64.12h.06a1.4,1.4,0,0,0,.29,0h.1l.26,0,.12,0,.25-.07.14-.05.26-.11.14-.07.29-.18.12-.07a4.1,4.1,0,0,0,.41-.34l.32-.28.3.31a2.64,2.64,0,0,0,.23.2l.11.08,0,0a3.14,3.14,0,0,0,2.26.59h0a1.47,1.47,0,0,0,.35-.08h0a2.92,2.92,0,0,0,.34-.13l.07,0,.05,0a5.72,5.72,0,0,0-7.88-.11l.09,0Z" style="fill: #8ebee3"/>
      <path d="M20.4,23.36h0l.3.3.11.11a3.11,3.11,0,0,0,4.35-.13l.32-.28.3.3a1.31,1.31,0,0,0,.23.21l0,0,.12.09,0,0,.15.09,0,0a1,1,0,0,0,.17.1l.06,0,.2.09.05,0,.25.1h0a2.61,2.61,0,0,0,1,.13h.06l.3,0,.1,0,.29-.08.1,0a1.94,1.94,0,0,0,.3-.13l.1-.05a2.9,2.9,0,0,0,.33-.2l.08-.05q.21-.15.42-.33h0l.32-.28.06.07A5.92,5.92,0,0,0,31,21.9h-.07a.93.93,0,0,1-.23,0l-.25,0h-.22a2.57,2.57,0,0,1-.4-.05h-.11l-.41-.11h0l-.41-.16-.09,0-.26-.14-.12-.06-.19-.12-.1-.07-.17-.12-.05,0a4.17,4.17,0,0,1-.6.4l-.12.07a4.8,4.8,0,0,1-.57.26l-.07,0a3.36,3.36,0,0,1-.5.13l-.1,0a3.12,3.12,0,0,1-.52,0h-.12l-.27,0h-.14l-.25-.05-.12,0-.28-.08-.07,0-.31-.13-.09,0-.2-.11-.11-.05-.16-.09-.09-.06-.14-.09L23,21.14l-.12-.1-.05,0a4,4,0,0,1-2.41.94,3.63,3.63,0,0,1-.82-.07,5.71,5.71,0,0,0,.48,1.79l0,0Z" style="fill: #8ebee3"/>
      <path d="M20.12,21.06a2.81,2.81,0,0,0,.29,0h.1l.26,0,.12,0,.26-.07.13-.05a1.59,1.59,0,0,0,.27-.12l.13-.06c.1-.05.2-.12.3-.18l.11-.08a3,3,0,0,0,.42-.33l.32-.28.29.3a3.32,3.32,0,0,0,2.4.94,3.44,3.44,0,0,0,2.07-1l.31-.28h0l.3.3a1.64,1.64,0,0,0,.24.21A3.14,3.14,0,0,0,31,21a5.78,5.78,0,0,0-1.13-3.1,4,4,0,0,1-.83.37h0a3.53,3.53,0,0,1-.89.15h-.26a4,4,0,0,1-.51-.06h0l-.46-.12h0l-.42-.16,0,0L26,17.86h0c-.11-.06-.2-.13-.29-.19l-.06,0-.22-.17a4.17,4.17,0,0,1-.6.4l-.13.08-.12.06a2.78,2.78,0,0,1-.44.19l-.08,0a3,3,0,0,1-.49.13l-.11,0a3.49,3.49,0,0,1-.44.05h-.19l-.28,0h-.13l-.26-.05-.11,0-.3-.09h-.05l-.32-.13-.06,0-.24-.12-.07,0a1.18,1.18,0,0,1-.19-.11l-.06,0A5.66,5.66,0,0,0,19.56,21a2.71,2.71,0,0,0,.51.1Z" style="fill: #8ebee3"/>
      <path d="M22.8,21l.05,0,.12.1.08.05.14.09.09.06.16.09.11.05.2.11.09,0,.31.13.07,0,.28.08.12,0,.25.05H25l.27,0h.12a3.12,3.12,0,0,0,.52,0l.1,0a3.36,3.36,0,0,0,.5-.13l.07,0a4.8,4.8,0,0,0,.57-.26l.12-.07a4.17,4.17,0,0,0,.6-.4l.05,0,.17.12.1.07.19.12.12.06.26.14.09,0,.41.16h0l.41.11h.11a2.57,2.57,0,0,0,.4.05h.22l.25,0a.93.93,0,0,0,.23,0H31a5.44,5.44,0,0,0,0-.57c0-.12,0-.23,0-.34a3.14,3.14,0,0,1-2.57-.66,1.64,1.64,0,0,1-.24-.21l-.3-.3h0l-.31.28a3.44,3.44,0,0,1-2.07,1,3.32,3.32,0,0,1-2.4-.94l-.29-.3-.32.28a3,3,0,0,1-.42.33l-.11.08c-.1.06-.2.13-.3.18l-.13.06a1.59,1.59,0,0,1-.27.12l-.13.05-.26.07-.12,0-.26,0h-.1a2.81,2.81,0,0,1-.29,0h-.05a2.71,2.71,0,0,1-.51-.1c0,.12,0,.24,0,.37a5.07,5.07,0,0,0,0,.55,3.63,3.63,0,0,0,.82.07A4,4,0,0,0,22.8,21Z" style="fill: #0499d1"/>
      <path d="M21,17.9l.07,0,.24.12.06,0,.32.13h.05l.3.09.11,0,.26.05h.13l.28,0h.19a3.49,3.49,0,0,0,.44-.05l.11,0a3,3,0,0,0,.49-.13l.08,0a2.78,2.78,0,0,0,.44-.19l.12-.06.13-.08a4.17,4.17,0,0,0,.6-.4l.22.17.06,0c.09.06.18.13.29.19h0l.35.18,0,0,.42.16h0l.46.12h0a4,4,0,0,0,.51.06h.26a3.53,3.53,0,0,0,.89-.15h0a4,4,0,0,0,.83-.37,6.48,6.48,0,0,0-.6-.68l-.05,0-.07,0a2.92,2.92,0,0,1-.34.13h0a1.47,1.47,0,0,1-.35.08h0a3.14,3.14,0,0,1-2.26-.59l0,0L26,16.79a2.64,2.64,0,0,1-.23-.2l-.3-.31-.32.28a4.1,4.1,0,0,1-.41.34l-.12.07-.29.18-.14.07-.26.11-.14.05-.25.07-.12,0-.26,0h-.1a1.4,1.4,0,0,1-.29,0h-.06a3.29,3.29,0,0,1-.64-.12h0l-.25-.09-.06,0-.19-.1-.06,0-.09,0a6.36,6.36,0,0,0-.61.66l.06,0A1.18,1.18,0,0,0,21,17.9Z" style="fill: #0499d1"/>
      <path d="M23.05,25.49a4.05,4.05,0,0,0,2.39-.93h0l0,0,.13.1.07.05.15.09.08.05.17.1.1.05.22.11.07,0a3,3,0,0,0,.32.12l.05,0,.3.08.11,0,.26,0,.13,0,.28,0h.18a3.77,3.77,0,0,0,1.46-.36,5.6,5.6,0,0,0,1-1.7l-.06-.07-.32.28h0q-.21.18-.42.33l-.08.05a2.9,2.9,0,0,1-.33.2l-.1.05a1.94,1.94,0,0,1-.3.13l-.1,0-.29.08-.1,0-.3,0h-.06a2.61,2.61,0,0,1-1-.13h0l-.25-.1-.05,0-.2-.09-.06,0a1,1,0,0,1-.17-.1l0,0L26.2,24l0,0L26,23.89l0,0a1.31,1.31,0,0,1-.23-.21l-.3-.3-.32.28a3.11,3.11,0,0,1-4.35.13l-.11-.11-.3-.3h0l-.31.28,0,0a5.13,5.13,0,0,0,.65,1.11A4.15,4.15,0,0,0,23.05,25.49Z" style="fill: #0499d1"/>
    </g>
    <path d="M27.28,14.91a6.63,6.63,0,0,1,1.76.84A6.63,6.63,0,0,0,27.28,14.91Z" style="fill: #037faf"/>
    <path d="M29,15.75a7.22,7.22,0,0,1,1,.83A7.22,7.22,0,0,0,29,15.75Z" style="fill: #037faf"/>
    <path d="M19.71,25.08a6.73,6.73,0,0,0,2.37,2.16A6.73,6.73,0,0,1,19.71,25.08Z" style="fill: #037faf"/>
    <path d="M30,16.58a6.72,6.72,0,0,1-8,10.66,6.64,6.64,0,0,0,3.2.81A6.72,6.72,0,0,0,30,16.58Z" style="fill: #037faf"/>
  </g>
</svg>
