<svg id="f9af4b47-5721-462f-aea5-2064526924de" data-name="Calque 1" xmlns="http://www.w3.org/2000/svg" width="32" height="32" viewBox="0 0 32 32">
  <title>phyto-58-IconeHerbicide</title>
  <path d="M2.4,5.07V3.77A1.09,1.09,0,0,1,3.49,2.69H5.31A1.09,1.09,0,0,1,6.39,3.77v1.3" style="fill: #6e6a69"/>
  <path d="M9.77,16.05a.39.39,0,0,0,0,.18S9.75,16.16,9.77,16.05Z" style="fill: #6d953f"/>
  <g>
    <path d="M12.71,29.25c1.46-1.2,5.8-5.51,12,0,1.38,1.25-1.28.88-5.8.88C13.77,30.17,11.19,30.4,12.71,29.25Z" style="fill: #6d953f"/>
    <path d="M12.28,29.76s1.38-12,1.69-12.23c.09.46-.84,11.18-1.13,12s-.56.28-.56.28" style="fill: #6d953f"/>
    <path d="M13.89,17.14s-.05.07-.08.18c-.21,1.87-1.1,9.86-1.19,12a.61.61,0,0,0,.14-.25C13,28.32,14,17.6,13.89,17.14" style="fill: #6d953f"/>
    <path d="M15.19,12.65a69.25,69.25,0,0,1,3.33,10.48A44.34,44.34,0,0,1,19.57,29l.48,0S18.27,16,15.19,12.65" style="fill: #6d953f"/>
    <path d="M18.52,23.13a38.49,38.49,0,0,1,1,5.5l.29.33c-.2-5.29-3.89-14.64-4.53-16.21l-.09-.1a69.25,69.25,0,0,1,3.33,10.48" style="fill: #6d953f"/>
    <path d="M15.63,27.18s7.17-9.27,10.92-13.43c-.34.92-10.24,13.7-10.24,13.7l-.68-.27" style="fill: #6d953f"/>
    <path d="M25.76,15c-2,2.34-9.38,11.78-10.25,12.89l.42.16s7.41-9.65,9.83-13" style="fill: #6d953f"/>
    <path d="M26.24,11.42S22.2,25,18.93,28.71c1.92.91,8.3-13.87,7.31-17.29" style="fill: #6d953f"/>
    <path d="M26.25,11.47a.11.11,0,0,0,0-.05S22.2,25,18.93,28.71a.41.41,0,0,0,.16,0l.07-.06c4-3.75,6.64-15.09,7.09-17.21" style="fill: #6d953f"/>
    <path d="M25,29.79s-1.51-12.09-1.82-12.3c-.08.46.85,11.18,1.13,12s.69.35.69.35" style="fill: #6d953f"/>
    <path d="M23.21,17.49s.05.07.07.18c.21,1.87,1.1,9.86,1.19,12a1,1,0,0,1-.13-.26c-.28-.77-1.21-11.49-1.13-12" style="fill: #6d953f"/>
    <path d="M26.65,12.46a71,71,0,0,0-3.33,10.48,44.93,44.93,0,0,0-1,5.86l-.48-.05s1.78-12.9,4.85-16.29" style="fill: #6d953f"/>
    <path d="M23.32,22.94a44.93,44.93,0,0,0-1,5.86l-.25,0c.21-5.29,3.9-14.64,4.53-16.21l.09-.11a71,71,0,0,0-3.33,10.48" style="fill: #6d953f"/>
    <path d="M21.89,27.42s-2.72-10.88-4.44-15.93c-.08,1,3.7,16,3.7,16l.74,0" style="fill: #6d953f"/>
    <path d="M17.67,12.88c.89,2.81,3.6,13.25,3.94,14.55l-.46,0s-2.68-10.65-3.48-14.58" style="fill: #6d953f"/>
    <path d="M21.7,28.82s.35-11.12.06-16.38c-.34.92-.79,16.27-.79,16.27l.73.11" style="fill: #6d953f"/>
    <path d="M21.6,13.83c.09,2.92-.15,13.61-.18,15L21,28.71s.32-10.9.63-14.88" style="fill: #6d953f"/>
    <path d="M20,10.34s-1.28,14,.43,18.39c-2.16.34-2.65-15.43-.43-18.39" style="fill: #6d953f"/>
    <path d="M20,10.39l0-.05s-1.28,14,.43,18.39h-.16s0,0,0-.08C17.79,24,19.59,12.52,20,10.39" style="fill: #6d953f"/>
    <path d="M21.78,29.76s.15-5.94,4.06-5.71.87,3,.87,3,.49-2.58-.94-2.55-2.86.93-3.27,5.61c-.27.23-.72-.32-.72-.32" style="fill: #6d953f"/>
    <path d="M26.71,27h0a3.65,3.65,0,0,0,.33-2.22c-.12-.24-.66-.3-1-.3,1.13.25.7,2.53.7,2.53" style="fill: #6d953f"/>
    <path d="M20.89,28.86S21,24.25,24,24.43s.68,2.3.68,2.3.38-2-.73-2-2.22.72-2.54,4.35c-.21.18-.56-.25-.56-.25" style="fill: #6d953f"/>
    <path d="M24.72,26.73h0A2.77,2.77,0,0,0,25,25c-.09-.19-.51-.23-.81-.24.88.2.55,2,.55,2" style="fill: #6d953f"/>
    <path d="M17.84,27.7s-.11-5.78-3.15-5.56S14,25,14,25s-.38-2.51.73-2.48S17,23.46,17.29,28c.2.22.55-.31.55-.31" style="fill: #6d953f"/>
    <path d="M14,25h0a4.22,4.22,0,0,1-.25-2.15c.09-.24.51-.29.81-.3C13.69,22.81,14,25,14,25" style="fill: #6d953f"/>
    <path d="M23.14,30s.11-2.87,2.55-2.87,1.13,1.74,1.13,1.74-.3-1.45-1-1.49S23.93,27.2,23.89,30c0,.32-.75,0-.75,0" style="fill: #6d953f"/>
    <path d="M26.82,28.82s1.32-1.74-1.13-1.74a2.37,2.37,0,0,0-.83.13c.54,0,1.16.07,1.29.26a2.79,2.79,0,0,1,.67,1.35" style="fill: #6d953f"/>
    <path d="M13.22,10.82s3.07,8.31,2.46,12.7-1,5.12-1,5.12h1.06s2.91-8.22-2.52-17.82" style="fill: #6d953f"/>
    <path d="M19.16,16.77s-3.07,5.75-2.08,8.72S18.56,29,18.56,29l-1.24,0s-3.91-5.52,1.84-12.21" style="fill: #6d953f"/>
    <path d="M12.36,15.53s2.22,6.18,1.5,9.38a26.17,26.17,0,0,1-1,3.9l.89,0a15.31,15.31,0,0,0-1.36-13.3" style="fill: #6d953f"/>
    <path d="M8,19.82s4.17,4.06,4.6,6.72a10.64,10.64,0,0,1,.27,3.18l.84-.25s.61-5.41-5.71-9.65" style="fill: #6d953f"/>
    <path d="M28.46,20S24.29,24,23.87,26.69a10.56,10.56,0,0,0-.28,3.18l-.84-.25s-.6-5.41,5.71-9.66" style="fill: #6d953f"/>
    <path d="M13.59,17.89s2,5.13,1.17,7.72a11.54,11.54,0,0,1-1.19,3l.89.05s3-4.78-.87-10.8" style="fill: #6d953f"/>
    <path d="M19.93,13.88s-2.34,6.54-1.58,9.93a21.37,21.37,0,0,0,1.2,4.24l-.92,0a16.06,16.06,0,0,1,1.3-14.13" style="fill: #6d953f"/>
    <path d="M22.52,9.05s-3.26,7.19-2.93,11.08a67.59,67.59,0,0,0,1.33,8.19l-1-.05S17,17.27,22.52,9.05" style="fill: #6d953f"/>
    <path d="M9.73,16.23s.52-2.51,1-.67,3.33,13.12,3.33,13.12l-.94,1.08a59.47,59.47,0,0,0-2.95-14.17c-.14-.2-.47.54-.44.64" style="fill: #6d953f"/>
  </g>
  <path d="M20.58,2.62H12.12c-2.77,0-2.55,3.93-5.83,3.93H2.43A1.4,1.4,0,0,0,1,8L.49,12.56V22.74l.55,6a1.4,1.4,0,0,0,1.39,1.4h7.89a2,2,0,0,1,0-.24,2.54,2.54,0,0,1,0-.39s.13-1.14.32-2.72c-.26-1.38-2.53-4.12-4-5.56A2,2,0,0,1,8,17.82a2.11,2.11,0,0,1,.82.17l-.07-.22a2,2,0,0,1-.92-2.19c.16-.67.65-2.7,2.51-2.7h0a2.1,2.1,0,0,1,1.58.7l.11,0c-.38-1.22-.68-2-.69-2.05a2,2,0,0,1,1-2.51,2.08,2.08,0,0,1,.84-.18,2,2,0,0,1,1.74,1c.16.28.3.55.45.83a1.2,1.2,0,0,1,.2,0A2,2,0,0,1,17.2,9.51l.25,0a1.9,1.9,0,0,1,.63.11,1.68,1.68,0,0,1,.17-.26.35.35,0,0,1,.05-.08l.07-.1A2,2,0,0,1,20,8.34a1.88,1.88,0,0,1,.57.09c.1-.17.2-.33.31-.49a2,2,0,0,1,1.32-.85L22,4A1.4,1.4,0,0,0,20.58,2.62ZM18.65,6.33H13.91a1,1,0,0,1,0-2.1h4.74a1,1,0,1,1,0,2.1Z" style="fill: #ccc"/>
</svg>
