<svg id="bcc44efb-3473-4e7f-9e44-2832449f2e0f" data-name="Calque 1" xmlns="http://www.w3.org/2000/svg" width="32" height="32" viewBox="0 0 32 32">
  <title>print-88-IconeEditionComparaisonFerti</title>
  <g>
    <path d="M6.2,31.51A1.71,1.71,0,0,1,4.5,29.8V2.21A1.71,1.71,0,0,1,6.2.5H21.94a1.72,1.72,0,0,1,1.33.64l3.86,4.58a1.73,1.73,0,0,1,.37,1.06v23a1.72,1.72,0,0,1-1.71,1.71Z" style="fill: #fac262"/>
    <path d="M21.94,1a1.22,1.22,0,0,1,1,.48L26.73,6a1.26,1.26,0,0,1,.27.76v23A1.21,1.21,0,0,1,25.79,31H6.2A1.21,1.21,0,0,1,5,29.8V2.21A1.21,1.21,0,0,1,6.2,1H21.94m0-1H6.2A2.2,2.2,0,0,0,4,2.21V29.8A2.2,2.2,0,0,0,6.2,32H25.79A2.21,2.21,0,0,0,28,29.8v-23a2.18,2.18,0,0,0-.49-1.38L23.66.83A2.22,2.22,0,0,0,21.94,0Z" style="fill: #cea04e"/>
  </g>
  <polygon points="23 6 27.32 6 27.2 5.01 23.92 1.16 23 0.88 23 6" style="fill: #cea04e"/>
  <path d="M3.21,12.07l4.32,6.54V12a1.5,1.5,0,0,1,.28-1,1,1,0,0,1,.75-.32,1,1,0,0,1,.76.32,1.44,1.44,0,0,1,.28,1v8.73c0,1-.4,1.46-1.21,1.46a1.53,1.53,0,0,1-.54-.09,1.43,1.43,0,0,1-.46-.27A2.87,2.87,0,0,1,7,21.39c-.12-.17-.25-.34-.37-.52L2.42,14.41v6.5a1.35,1.35,0,0,1-.3,1,1,1,0,0,1-.76.33,1,1,0,0,1-.76-.33,1.43,1.43,0,0,1-.29-1V12.35a2.46,2.46,0,0,1,.12-.86,1.27,1.27,0,0,1,.48-.55,1.25,1.25,0,0,1,.72-.22,1.21,1.21,0,0,1,.52.1,1.22,1.22,0,0,1,.38.26,3.41,3.41,0,0,1,.33.43Z" style="fill: #005da8"/>
  <path d="M16.37,17.69H14.31v3.14a1.42,1.42,0,0,1-.32,1,1,1,0,0,1-.8.35,1.06,1.06,0,0,1-.82-.35,1.47,1.47,0,0,1-.31-1V12.29a1.42,1.42,0,0,1,.34-1.06,1.58,1.58,0,0,1,1.09-.32h2.88a7.2,7.2,0,0,1,2,.2,2.78,2.78,0,0,1,1.93,1.7,3.8,3.8,0,0,1,.26,1.43,3.15,3.15,0,0,1-1.05,2.57A4.75,4.75,0,0,1,16.37,17.69Zm-.54-5.09H14.31V16h1.52a4.46,4.46,0,0,0,1.32-.17,1.56,1.56,0,0,0,.82-.54,1.59,1.59,0,0,0,.28-1,1.73,1.73,0,0,0-.43-1.2A2.88,2.88,0,0,0,15.83,12.6Z" style="fill: #005da8"/>
  <path d="M24.67,12.08V16l4.41-4.6a5,5,0,0,1,.55-.49.94.94,0,0,1,.59-.16A1.08,1.08,0,0,1,31,11a.92.92,0,0,1,.3.7,1.38,1.38,0,0,1-.5,1l-2.74,2.59,3.15,4.52a5.32,5.32,0,0,1,.5.82,1.59,1.59,0,0,1,.17.68.87.87,0,0,1-.29.65,1.13,1.13,0,0,1-.79.27A1.37,1.37,0,0,1,30,22a1.74,1.74,0,0,1-.5-.54q-.21-.33-.36-.6l-2.66-4.09-1.84,1.76v2.3a1.46,1.46,0,0,1-.32,1,1.05,1.05,0,0,1-.82.34,1.11,1.11,0,0,1-.55-.15,1.08,1.08,0,0,1-.41-.41,1.47,1.47,0,0,1-.13-.49c0-.19,0-.46,0-.81V12.08a1.51,1.51,0,0,1,.3-1,1,1,0,0,1,.81-.34,1.07,1.07,0,0,1,.83.34A1.48,1.48,0,0,1,24.67,12.08Z" style="fill: #005da8"/>
</svg>
