<svg id="a497b30b-7782-4cf4-871a-cb8a68bf0674" data-name="Calque 1" xmlns="http://www.w3.org/2000/svg" width="32" height="32" viewBox="0 0 32 32">
  <title>vegetal-32-10F8C096</title>
  <g>
    <path d="M1.48,22.21s-1.69,7,3.41,9.12L5.78,28A6.74,6.74,0,0,0,3,24.81,3.32,3.32,0,0,1,1.48,22.21Z" style="fill: #dd932e"/>
    <path d="M13.34,25.39s-2,6.9-7.52,6.19l.89-3.31a6.7,6.7,0,0,1,4-1.4A3.32,3.32,0,0,0,13.34,25.39Z" style="fill: #dd932e"/>
    <path d="M2.78,17.33s-1.71,7.1,3.39,9.23l.9-3.35A6.75,6.75,0,0,0,4.32,20,3.38,3.38,0,0,1,2.78,17.33Z" style="fill: #dd932e"/>
    <path d="M14.64,20.51s-2.06,7-7.54,6.3L8,23.46A6.74,6.74,0,0,1,12,22,3.34,3.34,0,0,0,14.64,20.51Z" style="fill: #dd932e"/>
    <path d="M4.1,12.43s-1.73,7.15,3.36,9.29l.91-3.38a6.73,6.73,0,0,0-2.74-3.26A3.36,3.36,0,0,1,4.1,12.43Z" style="fill: #dd932e"/>
    <path d="M16,15.61S13.88,22.67,8.4,22l.9-3.38a6.72,6.72,0,0,1,4-1.45A3.39,3.39,0,0,0,16,15.61Z" style="fill: #dd932e"/>
    <path d="M5.41,7.54s-1.73,7.16,3.36,9.3l.91-3.39a6.73,6.73,0,0,0-2.74-3.26A3.36,3.36,0,0,1,5.41,7.54Z" style="fill: #dd932e"/>
    <path d="M17.27,10.72s-2.08,7.06-7.56,6.37l.9-3.39a6.8,6.8,0,0,1,4-1.45A3.39,3.39,0,0,0,17.27,10.72Z" style="fill: #dd932e"/>
    <path d="M10.58,11.78s2.92.67,3.57-1.77S12.62,4.15,13.59.53c-.95,3.55-4.33,5.86-5,8.21S10.58,11.78,10.58,11.78Z" style="fill: #dd932e"/>
  </g>
  <path d="M23.32,19.31H19.7a5,5,0,0,1,4.71-2.39,5.07,5.07,0,0,1,3.4,1.75.82.82,0,0,0,1.17.08.85.85,0,0,0,.08-1.18,6.66,6.66,0,0,0-10.5.46v-2.8H17.2v5.44h6.12Zm1.36,4.07v1.36h3.58a5.28,5.28,0,0,1-1,1.2,5,5,0,0,1-3.7,1.19,5,5,0,0,1-3.37-1.73A.83.83,0,0,0,19,25.33a.84.84,0,0,0-.08,1.18,6.64,6.64,0,0,0,4.48,2.29,5.72,5.72,0,0,0,.58,0,6.61,6.61,0,0,0,4.33-1.6A6.82,6.82,0,0,0,29.44,26v2.82H30.8V23.38Z" style="fill: #40a52b;fill-rule: evenodd"/>
</svg>
