<svg id="b5eac310-f51e-4634-970d-0c1708b0ecb0" data-name="Calque 1" xmlns="http://www.w3.org/2000/svg" width="32" height="32" viewBox="0 0 32 32">
  <title>meteo-65-IconeMeteusPartiellementnuageux</title>
  <path d="M15.94,7.66A9.24,9.24,0,0,1,25.05,17a9.25,9.25,0,0,1-9.11,9.37A9.25,9.25,0,0,1,6.82,17a9.24,9.24,0,0,1,9.12-9.37" style="fill: #ffcc1b"/>
  <path d="M25.94,18.87a6.59,6.59,0,0,1-.38,1.53,10.89,10.89,0,0,1-.64,1.6l4-.38-2.94-2.75" style="fill: #ffcc1b"/>
  <path d="M13.83,27.48l1.66,4,1.72-3.89a10.38,10.38,0,0,1-3.38-.13" style="fill: #ffcc1b"/>
  <path d="M23.08,9.63l1-4.21L20.27,7.66a12.57,12.57,0,0,1,2.81,2" style="fill: #ffcc1b"/>
  <path d="M5.74,18.24,2.3,21.36l4.46.51a11.69,11.69,0,0,1-1-3.63" style="fill: #ffcc1b"/>
  <path d="M11.47,7.72,7.59,5.3,8.54,10a7.87,7.87,0,0,1,2.93-2.23" style="fill: #ffcc1b"/>
  <path d="M19.06,7.21c.06,0,.13.06.19.06L15.87.2,12.49,7.27a9.68,9.68,0,0,1,6.57-.06" style="fill: #ffcc1b"/>
  <path d="M6.18,13.9a12.07,12.07,0,0,1,1.6-3.12L.26,11.93l5.48,5.48a9.42,9.42,0,0,1,.44-3.51" style="fill: #ffcc1b"/>
  <path d="M31.49,11.93,24,10.78a10.55,10.55,0,0,1,2,6.63l5.48-5.48" style="fill: #ffcc1b"/>
  <path d="M12.69,27.22a10.31,10.31,0,0,1-5.23-4L6.18,30.86l6.7-3.64h-.19" style="fill: #ffcc1b"/>
  <path d="M18.8,27.29l6.7,3.63-1.28-7.71a10.84,10.84,0,0,1-5.42,4.08" style="fill: #ffcc1b"/>
  <path d="M21.55,10.52A8.66,8.66,0,0,1,23.39,16a8.61,8.61,0,0,1-8.47,8.73,8.48,8.48,0,0,1-5.36-1.91,8.55,8.55,0,0,0,6.5,3.25,8.61,8.61,0,0,0,8.48-8.74,8.38,8.38,0,0,0-3-6.82" style="fill: #cba014"/>
  <path d="M5.61,17c0-.45.06-.9.06-1.34L.19,11.8l5.42,5.42V17" style="fill: #cba014"/>
  <path d="M23.9,10.84a8,8,0,0,1,.83,1.28l6.76-.19L23.9,10.84" style="fill: #cba014"/>
  <path d="M19.25,7.27,15.87.2,17.4,6.76a9.16,9.16,0,0,1,1.85.51" style="fill: #cba014"/>
  <path d="M11.47,26.59l-5.22,4.2,6.69-3.63a4.71,4.71,0,0,1-1.47-.57" style="fill: #cba014"/>
  <path d="M18.87,27.29,25.63,31,20.4,26.65c-.51.19-1,.45-1.53.64" style="fill: #cba014"/>
  <path d="M17.59,14A8.74,8.74,0,1,1,8.8,22.76,8.77,8.77,0,0,1,17.59,14" style="fill: #d3d2d2"/>
  <path d="M8.8,22.76a4.4,4.4,0,1,1-4.4,4.4,4.4,4.4,0,0,1,4.4-4.4" style="fill: #d3d2d2"/>
  <path d="M17.15,15.18a8.8,8.8,0,0,1,8.79,8.73,8.64,8.64,0,0,1-.31,2.23,9.07,9.07,0,0,0,.7-3.44A8.79,8.79,0,0,0,9.05,20.47a8.77,8.77,0,0,1,8.1-5.29" style="fill: #b9b9b9"/>
  <path d="M25.94,19.83a5.87,5.87,0,1,1-5.86,5.86,5.87,5.87,0,0,1,5.86-5.86" style="fill: #d3d2d2"/>
  <path d="M25.94,30.41a5.67,5.67,0,0,1-3.69-1.34,8.85,8.85,0,0,1-4.66,1.34,8.61,8.61,0,0,1-5.29-1.78,4.38,4.38,0,0,1-7.84-1.85,3,3,0,0,0-.06.7,4.41,4.41,0,0,0,4.4,4.4,4.24,4.24,0,0,0,3.5-1.79,8.94,8.94,0,0,0,5.29,1.79,8.85,8.85,0,0,0,4.66-1.34A5.84,5.84,0,0,0,31.81,26a2.19,2.19,0,0,0-.07-.7,5.84,5.84,0,0,1-5.8,5.1" style="fill: #b9b9b9"/>
</svg>
