<svg id="bef734c2-742e-4c83-9f09-f63b22a2ab08" data-name="Calque 1" xmlns="http://www.w3.org/2000/svg" width="32" height="32" viewBox="0 0 32 32">
  <title>flag-71-IconeJalon</title>
  <g>
    <path d="M8.13,30.11c2.11,0,3.82.42,3.82.94S10.24,32,8.13,32s-3.82-.42-3.82-.95,1.71-.94,3.82-.94"/>
    <path d="M11.9,30.9c-.29-.45-1.87-.79-3.77-.79s-3.48.34-3.77.79c.29.45,1.87.79,3.77.79s3.48-.34,3.77-.79"/>
    <path d="M8.13,32c2.11,0,3.82-.42,3.82-.95a.23.23,0,0,0,0-.15c-.29.45-1.87.79-3.77.79s-3.48-.34-3.77-.79a.3.3,0,0,0-.05.15c0,.53,1.71.95,3.82.95"/>
    <path d="M11.9,30.9a.21.21,0,0,0-.06-.08c-.41.42-1.92.72-3.71.72s-3.3-.3-3.71-.72l-.06.08c.29.45,1.87.79,3.77.79s3.48-.34,3.77-.79" style="opacity: 0.300999999046326"/>
    <path d="M4.42,30.82c.41.42,1.92.72,3.71.72s3.3-.3,3.71-.72c-.41-.41-1.92-.71-3.71-.71s-3.3.3-3.71.71"/>
    <path d="M8.13,29.94c1.12,0,2,.27,2,.6s-.9.6-2,.6-2-.27-2-.6.9-.6,2-.6"/>
    <path d="M8.08.46h.07A.54.54,0,0,1,8.69,1V30.16c0,.3-.24.34-.54.34H8.08c-.3,0-.54,0-.54-.34V1A.54.54,0,0,1,8.08.46"/>
    <path d="M8.1,0a.8.8,0,0,1,.84.76.8.8,0,0,1-.84.76A.8.8,0,0,1,7.26.76.8.8,0,0,1,8.1,0"/>
    <path d="M8.77,2.67c0-.06,5.28-1,7.85,0C21.08,4.41,26.87,9.75,29.8,8.49c-1.92,4.07-4.62,7-11.69,5.71a8.88,8.88,0,0,0-9.37,3.67s6.79-8.4,0-15.2"/>
  </g>
</svg>
