<svg id="bbd61945-6c7b-4ba8-aa91-7644125c151f" data-name="Calque 1" xmlns="http://www.w3.org/2000/svg" width="32" height="32" viewBox="0 0 32 32">
  <title>equipment-64-IconeFioleErreur</title>
  <path d="M25.25,28.05A6.72,6.72,0,1,1,32,21.33a6.72,6.72,0,0,1-6.73,6.72" style="fill: #d10000"/>
  <path d="M25.25,25.63a4.3,4.3,0,1,1,4.3-4.3,4.31,4.31,0,0,1-4.3,4.3" style="fill: #fff"/>
  <line x1="21.35" y1="17.48" x2="29.35" y2="25.48" style="fill: none;stroke: #d10000;stroke-miterlimit: 10;stroke-width: 3px"/>
  <path d="M16.32,4.68H12.93v8.4L5.56,20.54A5.75,5.75,0,0,0,3.7,24.16c0,1.79,2.11,2.33,2.52,2.41H18a9.34,9.34,0,0,1-1-1.69H8.86c-3.92,0-2-2.76-2-2.76l4-4.06h6a9.25,9.25,0,0,1,1.61-2.75l-2.2-2.23Z" style="fill: none"/>
  <path d="M6.9,22.12s-2,2.76,2,2.76h8.21a9,9,0,0,1-.16-6.82H12.66a4.65,4.65,0,0,0-3,1.26Z" style="fill: #0072b9"/>
  <path d="M18,26.57H6.22C5.81,26.49,3.7,26,3.7,24.16a5.75,5.75,0,0,1,1.86-3.62l7.37-7.46V4.68h3.39v8.4l2.2,2.23a9,9,0,0,1,1.21-1.18L18,12.4V4.25h.83L17.62,3h-6L10.4,4.25h.83V12.4L4.41,19.3A7.36,7.36,0,0,0,2,24.16C2,26.85,4.61,28,6,28.24H19.57A9.1,9.1,0,0,1,18,26.57Z" style="fill: #98999b"/>
  <line x1="10.5" y1="4" x2="18.5" y2="4" style="fill: none;stroke: #98999b;stroke-linecap: round;stroke-linejoin: round;stroke-width: 2.03899002326179px"/>
</svg>
