<svg id="f0bf5319-373f-4361-bc02-333a9e96b809" data-name="Calque 1" xmlns="http://www.w3.org/2000/svg" width="32" height="32" viewBox="0 0 32 32">
  <title>animals-31-IconeAnimalPorc</title>
  <g>
    <path d="M29.13,3.66s-1.79-1.08-5.36,2.46c-1,.94-1.31.83-3.26.81a11,11,0,0,0-8.85,0h0c-2,0-2.28.13-3.29-.81C4.8,2.58,3,3.66,3,3.66s.51.18,1.17,1.56.23,1.73,0,3.41c-.49,4,1.22,5.38,1.31,5.45A11,11,0,1,0,27.1,17a11.28,11.28,0,0,0-.4-3c.23-.2,1.75-1.65,1.28-5.43-.25-1.68-.69-2,0-3.41S29.13,3.66,29.13,3.66ZM6.46,12.77s-1.08-.46-1-2.48A12,12,0,0,1,6,6.83s.6.3.6,2.05a7.6,7.6,0,0,0,.59,3Zm3.92.7a1,1,0,0,1,1.07-.81,1,1,0,0,1,1.07.81c0,.44-.48.8-1.07.8S10.38,13.91,10.38,13.47ZM16,26.62a5,5,0,1,1,5-5A5,5,0,0,1,16,26.62Zm4.54-12.35c-.59,0-1.07-.36-1.07-.8a1,1,0,0,1,1.07-.81,1,1,0,0,1,1.07.81C21.63,13.91,21.15,14.27,20.56,14.27Zm5.11-1.5-.72-.9a7.49,7.49,0,0,0,.6-3c0-1.75.6-2.05.6-2.05a12,12,0,0,1,.55,3.46C26.75,12.31,25.67,12.77,25.67,12.77Z" style="fill: #d37d8c"/>
    <path d="M13.83,23.49c-.58,0-1.05-.92-1.05-2.06s.47-2.06,1.05-2.06,1.05.93,1.05,2.06S14.41,23.49,13.83,23.49Zm4.38,0c-.57,0-1-.92-1-2.06s.47-2.06,1-2.06,1.05.93,1.05,2.06S18.79,23.49,18.21,23.49Z" style="fill: #fff"/>
    <path d="M18.21,19.37c-.57,0-1,.93-1,2.06s.47,2.06,1,2.06,1.05-.92,1.05-2.06S18.79,19.37,18.21,19.37Z" style="fill: #d37d8c"/>
    <path d="M13.83,19.37c-.58,0-1.05.93-1.05,2.06s.47,2.06,1.05,2.06,1.05-.92,1.05-2.06S14.41,19.37,13.83,19.37Z" style="fill: #d37d8c"/>
  </g>
</svg>
