<svg id="ad9f1235-feb9-46d0-a89d-a050d32f33e4" data-name="Calque 1" xmlns="http://www.w3.org/2000/svg" width="32" height="32" viewBox="0 0 32 32">
  <title>equipment-65-IconeFioleDanger</title>
  <g>
    <g>
      <path d="M17.11,27.21a.86.86,0,0,1-.74-1.29l6.49-11.25a.86.86,0,0,1,.75-.43.84.84,0,0,1,.74.43l6.5,11.25a.83.83,0,0,1,0,.86.85.85,0,0,1-.75.43Z" style="fill: #fff"/>
      <path d="M23.61,14.49a.61.61,0,0,1,.53.31L30.63,26a.61.61,0,0,1-.53.92h-13a.59.59,0,0,1-.52-.3.6.6,0,0,1,0-.62L23.08,14.8a.6.6,0,0,1,.53-.31m0-.5a1.08,1.08,0,0,0-1,.55l-6.5,11.25a1.11,1.11,0,0,0,1,1.67h13a1.11,1.11,0,0,0,1-1.67l-6.5-11.25a1.09,1.09,0,0,0-1-.55Z" style="fill: #d10000"/>
    </g>
    <g>
      <path d="M24.38,18.89a.74.74,0,1,1-.74-.74.74.74,0,0,1,.74.74"/>
      <path d="M23.31,22.4a.85.85,0,0,1-1,.62.79.79,0,0,1-.66-.94l.41-1.88a.87.87,0,0,1,1-.63.82.82,0,0,1,.67.95l-.42,1.88"/>
      <path d="M20.91,20.67l1.59-1a.34.34,0,0,1,.45.08.28.28,0,0,1-.08.41l-1.47.93.12.84a.3.3,0,0,1-.28.33.31.31,0,0,1-.36-.25l-.14-1a.29.29,0,0,1,.13-.28l0,0"/>
      <path d="M23.76,21.87l-.71-1.65a.3.3,0,0,1,.18-.39.33.33,0,0,1,.42.17l.69,1.58,1.06.89a.27.27,0,0,1,0,.42.34.34,0,0,1-.45,0L23.85,22a.31.31,0,0,1-.09-.11"/>
      <path d="M22.54,23.93a.22.22,0,0,1,0,.14s0,0,0,.06l-.74,1.64a.33.33,0,0,1-.42.16.29.29,0,0,1-.18-.39l.73-1.61-.19-1.7a.3.3,0,0,1,.29-.32.31.31,0,0,1,.35.26l.2,1.76"/>
      <path d="M23.51,23.74a.25.25,0,0,1,0,.08.38.38,0,0,1,0,.1l-.27,1.76a.32.32,0,0,1-.36.25.31.31,0,0,1-.28-.34l.26-1.71-.54-1.67a.3.3,0,0,1,.21-.37A.33.33,0,0,1,23,22l.55,1.7"/>
      <path d="M20.7,21.93a.16.16,0,0,1-.14-.19.18.18,0,0,1,.21-.12l5.13,1,.16-.64s1.2.28,1,1-1.37.41-1.37.41l.11-.48-5.13-1"/>
    </g>
    <path d="M28.76,26.14c.95,0,.94-.12-.29-2.09-.11-.18-.24-.39-.38-.6a1,1,0,0,0-.8.69,1,1,0,0,0-.54-.17.73.73,0,0,0-.76.67,1,1,0,0,0-.84,1.16,1.29,1.29,0,0,0,.12.38C26.71,26.17,28,26.17,28.76,26.14Z" style="fill-rule: evenodd"/>
  </g>
  <g>
    <path d="M14.38,24.88H6.86c-3.92,0-2-2.76-2-2.76L8,18.94a2.91,2.91,0,0,1,2.06-.88h5.47a2.65,2.65,0,0,1,2.05.83l.15.15.91-1.58-4.33-4.38V4.68H10.93v8.4L3.56,20.54A5.75,5.75,0,0,0,1.7,24.16c0,1.79,2.11,2.33,2.52,2.41H14A3.13,3.13,0,0,1,14.38,24.88Z" style="fill: none"/>
    <path d="M17.74,19l-.15-.15a2.65,2.65,0,0,0-2.05-.83H10.07A2.91,2.91,0,0,0,8,18.94L4.9,22.12s-2,2.76,2,2.76h7.52s0-.06,0-.09Z" style="fill: #0072b9"/>
    <path d="M14,26.57H4.22C3.81,26.49,1.7,26,1.7,24.16a5.75,5.75,0,0,1,1.86-3.62l7.37-7.46V4.68h3.39v8.4l4.33,4.38L19.53,16,16,12.4V4.25h.83L15.62,3h-6l-1,1h0l-.24.25h.83V12.4L2.41,19.3A7.36,7.36,0,0,0,0,24.16C0,26.85,2.61,28,4,28.24H14.68a3.85,3.85,0,0,1-.26-.34A3.23,3.23,0,0,1,14,26.57Z" style="fill: #98999b"/>
  </g>
  <line x1="8.5" y1="4" x2="16.5" y2="4" style="fill: none;stroke: #98999b;stroke-linecap: round;stroke-linejoin: round;stroke-width: 2.03899002326179px"/>
</svg>
