<svg id="aba9f87d-29a2-4a8b-9fe2-905787b2e1de" data-name="Calque 1" xmlns="http://www.w3.org/2000/svg" width="24" height="24" viewBox="0 0 24 24">
  <title>alerts-74-IconeMessageAlerte</title>
  <g>
    <path d="M23.83,20.92,13.24,1.71a1.42,1.42,0,0,0-2.44,0L.21,20.92A1.39,1.39,0,0,0,1.43,23H22.61A1.4,1.4,0,0,0,23.83,20.92Z" style="fill: #fff"/>
    <g>
      <path d="M1.43,22.52a.91.91,0,0,1-.8-.46.89.89,0,0,1,0-.89L11.23,1.94A.92.92,0,0,1,12,1.5a.89.89,0,0,1,.79.46L23.4,21.16a.88.88,0,0,1,0,.9.89.89,0,0,1-.79.46Z" style="fill: #ffaf01"/>
      <path d="M12,2a.38.38,0,0,1,.35.18L23,21.42a.38.38,0,0,1,0,.39.41.41,0,0,1-.37.21H1.43a.4.4,0,0,1-.37-.21.39.39,0,0,1,0-.41L11.65,2.2A.41.41,0,0,1,12,2m0-1a1.38,1.38,0,0,0-1.22.7L.21,20.92A1.39,1.39,0,0,0,1.43,23H22.61a1.4,1.4,0,0,0,1.22-2.09L13.24,1.71A1.39,1.39,0,0,0,12,1Z" style="fill: #b90618"/>
    </g>
  </g>
  <path d="M13.7,9.94a16.23,16.23,0,0,1-.76,3.93l-.42,1.64h-.91l-.43-1.64a16.31,16.31,0,0,1-.76-3.93,1.48,1.48,0,0,1,1.64-1.62A1.48,1.48,0,0,1,13.7,9.94Zm-3.24,8.53a1.61,1.61,0,1,1,1.6,1.58A1.59,1.59,0,0,1,10.46,18.47Z"/>
</svg>
