<svg id="ebdba9af-8731-4038-960f-8e98073e28d8" data-name="Calque 1" xmlns="http://www.w3.org/2000/svg" width="32" height="32" viewBox="0 0 32 32">
  <title>field-69-IconeAjoutParcelleSecondaire</title>
  <path d="M25.25,28.05A6.72,6.72,0,1,1,32,21.33a6.72,6.72,0,0,1-6.73,6.72" style="fill: #5bab26"/>
  <rect x="24.72" y="16.97" width="1.27" height="9.02" style="fill: #fff"/>
  <rect x="20.87" y="20.84" width="8.95" height="1.28" style="fill: #fff"/>
  <g>
    <path d="M25.25,12.61a9.07,9.07,0,0,1,1.49.13l2.89-4.29L13.28,2l-11,16.1,13,11.72L17.87,26a8.58,8.58,0,0,1-1.34-4.62A8.73,8.73,0,0,1,25.25,12.61Z" style="fill: #fac262"/>
    <path d="M12.9.76,1,18.25,15.46,31.33l3-4.5a4.35,4.35,0,0,1-.32-.43,3.52,3.52,0,0,1-.3-.45l-2.6,3.86-13-11.72L13.28,2,29.63,8.45l-2.89,4.29.53.11.51.13,3.37-5Z" style="fill: #bf7d00"/>
  </g>
</svg>
