<svg id="b3b34699-4595-4add-b7bd-34eeed98e6c3" data-name="Calque 1" xmlns="http://www.w3.org/2000/svg" width="32" height="32" viewBox="0 0 32 32">
  <title>sign-56-IconeGazSousPression</title>
  <rect x="5.83" y="5.83" width="20.35" height="20.35" transform="translate(-6.63 16) rotate(-45)" style="fill: #fff"/>
  <path d="M16,32a.7.7,0,0,1-.47-.19L.2,16.47A.63.63,0,0,1,0,16a.65.65,0,0,1,.2-.47L15.53.2a.66.66,0,0,1,.94,0L31.81,15.53a.68.68,0,0,1,0,.94L16.47,31.81A.67.67,0,0,1,16,32ZM1.61,16,16,30.39,30.39,16,16,1.61Z" style="fill: #d10000"/>
  <path d="M9.48,19l11.44-3a1,1,0,0,0,.63-.76l0-.63,2.82-.76s.35-.11.19-.69-.57-.51-.57-.51l-2.78.7a1.39,1.39,0,0,0-.77-.68,3,3,0,0,0-1.06,0l-11,3.16s-.56.37-.26,1.77C8.49,19.07,9.41,19,9.48,19"/>
</svg>
