<svg id="b547e77b-a2aa-4d98-9a44-691f6fa73e3b" data-name="Calque 1" xmlns="http://www.w3.org/2000/svg" width="32" height="32" viewBox="0 0 32 32">
  <title>vegetal-06-IconeCarotte</title>
  <g>
    <path d="M22.86,13.42,20.78,14h-.05a1.77,1.77,0,0,1-.56,0L20,14h0l-.14,0a2,2,0,0,1-.36-.17.76.76,0,0,1-.19-.12l-.13-.11a1.63,1.63,0,0,1-.31-.42L18.76,13a.78.78,0,0,1-.05-.14.45.45,0,0,1,0-.11,2.09,2.09,0,0,1-.05-.21.89.89,0,0,1,0-.28,1.85,1.85,0,0,1,0-.24l0-.13.5-2.08a5.76,5.76,0,0,0-5.88,1.46c-2.22,2.29-8.93,12.92-6.64,15.14s12.71-4.8,14.93-7.09A5.74,5.74,0,0,0,22.86,13.42Z" style="fill: #ec721d"/>
    <path d="M26.07,10.74a.66.66,0,0,0-.37-.41L28,9.17A.64.64,0,0,0,27.56,8a.62.62,0,0,0-.1-.49.66.66,0,0,0-.67-.27.66.66,0,0,0-.14-.54.67.67,0,0,0-.92,0L23.41,8.7,25.16,6a.65.65,0,1,0-1.09-.7L21.89,8.68l.33-1.36a.66.66,0,0,0-.48-.78A.65.65,0,0,0,21,7l-1.25,5.15h0v0a.48.48,0,0,0,0,.12.34.34,0,0,0,0,.1s0,0,0,.06,0,0,0,.06l0,.09h0a.58.58,0,0,0,.11.15s0,0,.05.05h0a.56.56,0,0,0,.17.09l.07,0h.06a.58.58,0,0,0,.23,0h0l5.11-1.4A.65.65,0,0,0,26.07,10.74Z" style="fill: #107230"/>
  </g>
</svg>
