<svg id="a188904e-c9eb-45b4-88dc-269a16237c5d" data-name="Calque 1" xmlns="http://www.w3.org/2000/svg" width="32" height="32" viewBox="0 0 32 32">
  <title>office-73-IconeMesureDistance</title>
  <polygon points="2.05 27.55 0 27.55 0 23.52 6.91 23.52 6.91 25.56 2.05 25.56 2.05 27.55" style="fill: #565456"/>
  <path d="M17.93,4.26s-4.42.11-4.95.11A4.17,4.17,0,0,0,8.81,8.54l.07,4.4Z" style="fill: #b71236"/>
  <path d="M19.93,4.26l-11,10.68v9.83a3.43,3.43,0,0,0,0,.56,2.78,2.78,0,0,0,2.72,2.22H29.24A2.78,2.78,0,0,0,32,24.77V15.5C32,9.34,26.06,4.34,19.93,4.26ZM22.1,16.6a1.8,1.8,0,0,1-1.47,1.08l-.18,0-.18,0a1.78,1.78,0,0,1-1.62-1.78,1.82,1.82,0,0,1,.14-.7,1.77,1.77,0,0,1,1.48-1.07l.18,0,.18,0A1.77,1.77,0,0,1,22.1,15.2a1.82,1.82,0,0,1,.14.7A1.78,1.78,0,0,1,22.1,16.6Z" style="fill: #a6a7a8"/>
</svg>
