<svg id="a565b2b0-8181-4930-902a-87ea87ad31b5" data-name="Calque 1" xmlns="http://www.w3.org/2000/svg" width="32" height="32" viewBox="0 0 32 32">
  <title>time-37-IconeCahierDesCharges</title>
  <path d="M23.63,2H21.5V8h4V4A2,2,0,0,0,23.63,2Z" style="fill: #c89537"/>
  <rect x="2.5" y="8.99" width="5.05" height="1.93" rx="0.96" style="fill: #9f8e70"/>
  <rect x="2.5" y="19.99" width="5.05" height="1.93" rx="0.96" style="fill: #9f8e70"/>
  <path d="M25.5,14.17V9h-4V14.3A9,9,0,0,1,23.77,14,8.19,8.19,0,0,1,25.5,14.17Z" style="fill: #e0ad53"/>
  <path d="M15.05,22.72a8.72,8.72,0,0,1,5.45-8.08V2H6.38A2,2,0,0,0,4.5,4h0V8H6.59a2,2,0,0,1,0,3.93H4.5V19H6.59a2,2,0,0,1,0,3.93H4.5v4h0a2,2,0,0,0,2,2H17.73A8.68,8.68,0,0,1,15.05,22.72Z" style="fill: #fac262"/>
  <g>
    <path d="M23.81,15.88a6.73,6.73,0,0,0-5.35,2.66l1.47.53h0l5.49-1.75a.65.65,0,0,1,.85.33.64.64,0,0,1,0,.49.66.66,0,0,1-.34.36l-2.1.95a.26.26,0,0,0-.14.15.28.28,0,0,0,.17.37l4.51,1.75a.66.66,0,0,1,.36.85.3.3,0,0,1,0,.08.65.65,0,0,1-.82.28l-3.1-1.2a.31.31,0,0,0-.22.59l3.86,1.5a.65.65,0,0,1,.37.85l0,.07a.66.66,0,0,1-.83.29l-3.85-1.49a.32.32,0,0,0-.41.18.31.31,0,0,0,.18.4L27,25.33a.67.67,0,0,1,.37.85l0,.07a.67.67,0,0,1-.83.3l-3.09-1.2a.35.35,0,0,0-.45.17h0a.33.33,0,0,0,.2.4l1.91.74a.66.66,0,0,1,.42.76.61.61,0,0,1-.85.42L22.4,27a9.88,9.88,0,0,1-4.34-2.71.53.53,0,0,0-.1-.06l-.75-.32a6.72,6.72,0,1,0,6.6-8Z" style="fill: #fff"/>
    <path d="M18.06,24.28A9.88,9.88,0,0,0,22.4,27l2.22.86a.61.61,0,0,0,.85-.42.66.66,0,0,0-.42-.76l-1.91-.74a.33.33,0,0,1-.2-.4h0a.35.35,0,0,1,.45-.17l3.09,1.2a.67.67,0,0,0,.83-.3l0-.07a.67.67,0,0,0-.37-.85l-3.12-1.21a.31.31,0,0,1-.18-.4.32.32,0,0,1,.41-.18L27.93,25a.66.66,0,0,0,.83-.29l0-.07a.65.65,0,0,0-.37-.85l-3.86-1.5a.31.31,0,0,1,.22-.59l3.1,1.2a.65.65,0,0,0,.82-.28.3.3,0,0,0,0-.08.66.66,0,0,0-.36-.85L23.87,20a.28.28,0,0,1-.17-.37.26.26,0,0,1,.14-.15l2.1-.95a.66.66,0,0,0,.34-.36.64.64,0,0,0,0-.49.65.65,0,0,0-.85-.33l-5.49,1.75h0l-1.47-.53a6.67,6.67,0,0,0-1.38,4.06,6.9,6.9,0,0,0,.13,1.3l.75.32A.53.53,0,0,1,18.06,24.28Z" style="fill: #dabca6"/>
  </g>
  <g>
    <rect x="4.01" y="11.92" width="1" height="7.07" style="fill: #e0ad53"/>
    <path d="M5,4.17H5V4a1,1,0,0,1,.91-1H20V2H5.89A2,2,0,0,0,4,4H4V8H5Z" style="fill: #e0ad53"/>
  </g>
  <path d="M16.41,28H6.26l0,0H6.06a1,1,0,0,1-1-1V26.8h0V22.93h-1V27h0a2,2,0,0,0,2,2,.11.11,0,0,1,.06,0H17.29A9.26,9.26,0,0,1,16.41,28Z" style="fill: #e0ad53"/>
</svg>
