<svg id="ebf37e04-c24d-4bec-b125-6552d5eaadd6" data-name="Calque 1" xmlns="http://www.w3.org/2000/svg" width="32" height="32" viewBox="0 0 32 32">
  <path d="M4.74,19.35,2.16,22.24a2,2,0,0,0-.22.29,2.18,2.18,0,0,0,3.69,2.34l2.05-3.24A10.38,10.38,0,0,1,4.74,19.35Z" style="fill: #ed1c24"/>
  <path d="M9.66,16.94a2.59,2.59,0,1,1,2.59-2.59A2.6,2.6,0,0,1,9.66,16.94Zm0-4.38a1.79,1.79,0,1,0,1.78,1.79A1.79,1.79,0,0,0,9.66,12.56Z" style="fill: #ed1c24"/>
  <path d="M15.64,17a1.57,1.57,0,1,1,1.57-1.57A1.58,1.58,0,0,1,15.64,17Zm0-2.33a.76.76,0,1,0,.76.76A.76.76,0,0,0,15.64,14.71Z" style="fill: #ed1c24"/>
  <circle cx="9.66" cy="14.35" r="1.02" style="fill: #ed1c24"/>
  <path d="M17.67,11.33H13.81s-1.32-3-1.47-3.36-.37-.66-.76-.66H8.43c-.44,0-.69.19-.69.68s0,4,0,4a2.8,2.8,0,0,1,3.18-.73,3.87,3.87,0,0,1,2.27,3h3.6a.86.86,0,0,0,.77-.39,5.81,5.81,0,0,0,.47-2C18,11.5,17.94,11.33,17.67,11.33Zm-9.13-.71V8.42s.05-.48.48-.48h2.06a.72.72,0,0,1,.6.39c.18.37.93,2.29.93,2.29Z" style="fill: #ed1c24"/>
  <path d="M16.86,12.05h-.4V9.53a1,1,0,0,1,.31-.8,1.06,1.06,0,0,1,.75-.24l0,.4A.7.7,0,0,0,17,9a.62.62,0,0,0-.18.5Z" style="fill: #ed1c24"/>
  <g>
    <path d="M21.84,28.22a6.67,6.67,0,0,0,4.92,0,6.67,6.67,0,0,1-4.92,0Z" style="fill: none"/>
    <path d="M12.45,5.29a7.15,7.15,0,0,0,0,14.3,7,7,0,0,0,3.87-1.15A8.67,8.67,0,0,1,19.14,15a7.26,7.26,0,0,0,.46-2.51A7.15,7.15,0,0,0,12.45,5.29Z" style="fill: none"/>
    <path d="M12.45,19.59a7.15,7.15,0,1,1,7.15-7.15A7.26,7.26,0,0,1,19.14,15,8.57,8.57,0,0,1,22,13.57,10.55,10.55,0,0,0,22,12.44a9.62,9.62,0,1,0-6.44,9,8.85,8.85,0,0,1,.72-3A7,7,0,0,1,12.45,19.59Z" style="fill: #58585a"/>
  </g>
  <path d="M24.3,28.69A6.73,6.73,0,1,1,31,22a6.73,6.73,0,0,1-6.72,6.72" style="fill: #0499d1"/>
  <polygon points="27.96 19.23 26.83 18.1 23.71 21.22 21.44 18.95 21.44 24.62 27.11 24.62 24.84 22.35 27.96 19.23" style="fill: #fff"/>
</svg>
