<svg id="b0ebd9f2-36af-4d1f-91ff-ac30d0970ebb" data-name="Calque 1" xmlns="http://www.w3.org/2000/svg" width="32" height="32" viewBox="0 0 32 32">
  <title>building-54-IconeMaisonCrepis</title>
  <g>
    <g>
      <path d="M27.15,19.51,26.64,19l-3.23-3.21-1-1-3.6-3.58-1-1L16.73,9.16a1,1,0,0,0-.76-.3,1,1,0,0,0-.74.32l-1,1.05-1,1L9.61,14.9l-1,1L5.57,19l-.41.42a3.52,3.52,0,0,1-1.07.75l-.08,0V29h10.2V22h3.6v7H28V20.11a3.41,3.41,0,0,1-.84-.58Z" style="fill: #dfc599"/>
      <polygon points="25.19 9.12 25.06 9.12 25.22 9.28 25.19 9.12" style="fill: #ab4d2b"/>
    </g>
    <path d="M32,16.43,29.61,6.06a2.48,2.48,0,0,0-2.19-1.94L5,4.08H4.76a2.5,2.5,0,0,0-2.45,2L.18,16.5a2.49,2.49,0,0,0,1.29,2.71,2.4,2.4,0,0,0,1.16.29A2.54,2.54,0,0,0,4,19.08L4.09,19a1.87,1.87,0,0,0,.34-.29L5,18.15l3.6-3.66,1-1,3.6-3.66,1-1,.12-.12a2.32,2.32,0,0,1,3.28-.06l.2.2,1,1,3.6,3.58,1,1L27.05,18l.12.12.68.67.16.13a2.49,2.49,0,0,0,4-2.49Z" style="fill: #945b3f"/>
  </g>
</svg>
