<svg id="e1730112-ea22-4e04-867a-5072c66e14c2" data-name="Calque 1" xmlns="http://www.w3.org/2000/svg" width="32" height="32" viewBox="0 0 32 32">
  <title>phyto-64-IconeAcaricide</title>
  <path d="M2.4,5.07V3.77A1.09,1.09,0,0,1,3.49,2.69H5.31A1.09,1.09,0,0,1,6.39,3.77v1.3" style="fill: #6e6a69"/>
  <path d="M15.73,23v1.29l-.08.77s-.06.12-.21,0-1.13-1.33-1.13-1.33l-.24-.86v-.3h-.28l-.12.17-.24.07.15.34-.15.32-.32.61-.1.29-.15.31-.35.44-.34.65L11.9,26l-.23.36h-.23l.08-.36-.08-.25-.15-.21.34-.42.31-.66L12,24.2,12,23.89l.32-.27.1-.26.13-.48.08-.31h-.21l-.31.35-.38.15,0,.48-.07.34-.16.14.1.3c-.27,0-.4-.38-.4-.38v-.59l-.6.55-.61.57-.25.33-.19.27-.15,0L9.05,26l-.15.28-.37-.19.16-.57L8.86,25l-.08-.42.42-.31.39-.55.26-.29,0-.19.36-.29.4-.4.35-.25L11,22l.21-.16.44-.25.21-.44.29-.38.33-.86.07-.4-.17-.71-.23-.23V17.46l.19-.55.37-.63A8.35,8.35,0,0,1,14.27,14a6.37,6.37,0,0,1,4.39-1.65c2.24,0,6,2,7,4.23s-.59,3.14-.59,3.14l.26.4-.09.4.42.44.15.5L26,22v.84l.41.42v.33l.47.69.12.28v.16l.11.3h-.4l-.27-.4-.36-.69-.48-.3,0,.8.19.57.1.37-.29.3-.13.6-.35-.08.1-.5-.14-.25-.32-.9-.38-.61-.67-.78,0-.27-.33,0-.57-.75-.42-.32-.81-.5-.23.29.25.69.1.61.13.52,0,.53-.11.17,0,.69.25.71-.07.29v.78l.11.37-.21.32,0,.31h-.44l0-.33L21.3,27l0-.52-.6-2.14-.25-.15-.21-.42-.32-1-.29-.44-.23,0-.23-.23-.59,0-.35,0-.26.54-.18.21-.33,1-.62.75-.63.54-.2-.12V23.45l.08-.63-.19-.1Z" style="fill: #847060"/>
  <path d="M10.13,17.46a2.06,2.06,0,0,1,.11-.65l.19-.55a1.84,1.84,0,0,1,.17-.38l.33-.55A9.6,9.6,0,0,1,13,12.45a8.39,8.39,0,0,1,5.53-2.1h.17a10,10,0,0,1,3.75,1L22,4a1.4,1.4,0,0,0-1.4-1.4H12.12c-2.77,0-2.55,3.93-5.83,3.93H2.43A1.4,1.4,0,0,0,1,8L.49,12.56V22.74l.55,6a1.4,1.4,0,0,0,1.39,1.4H20.58a1.39,1.39,0,0,0,1.16-.63h-.25A2,2,0,0,1,20,28.9a2.06,2.06,0,0,1-.49-.92,2,2,0,0,1-.23-1.11v-.16L19,25.56a1.56,1.56,0,0,1-.16-.2l-.41.5a1.42,1.42,0,0,1-.24.25l-.63.55a2.07,2.07,0,0,1-1.73.44l-.27,0a2.21,2.21,0,0,1-1.39-.51L14,26.5l-.09.18a2.11,2.11,0,0,1-.42.56l-.09.08-.09.15a2,2,0,0,1-1.68.91h-.23a2,2,0,0,1-1.35-.52,2,2,0,0,1-1.19.4A1.92,1.92,0,0,1,8,28l-.38-.18a2,2,0,0,1-1-2.36l.17-.57a.14.14,0,0,1,0-.06A2,2,0,0,1,7.58,23l.18-.13.16-.23a2,2,0,0,1,.63-.92l.29-.24.33-.33,0,0a2.16,2.16,0,0,1,.53-.64l.21-.16.15-.12a2.2,2.2,0,0,1,.17-.25l.11-.14.06-.15a2,2,0,0,1-.3-1.05V17.46ZM13.91,4.23h4.74a1,1,0,1,1,0,2.1H13.91a1,1,0,0,1,0-2.1Z" style="fill: #ccc"/>
</svg>
