<svg id="a7624b12-f508-46c5-9b83-c6d7b8b716ee" data-name="Calque 1" xmlns="http://www.w3.org/2000/svg" width="32" height="32" viewBox="0 0 32 32">
  <title>animals-92-IconeAnimalMultiple</title>
  <g>
    <path d="M21,27.69a2.94,2.94,0,0,0,1.25.5c.53,0,.57-.11.57-.11v.21a1,1,0,0,1-.73.09A2.69,2.69,0,0,1,21,27.69Z" style="fill: #fff"/>
    <path d="M24.66,27.69a2.94,2.94,0,0,1-1.26.5c-.53,0-.56-.11-.56-.11v.21a1,1,0,0,0,.73.09A2.69,2.69,0,0,0,24.66,27.69Z" style="fill: #fff"/>
    <path d="M22.27,26.62a.49.49,0,0,1-.33-.33.5.5,0,0,0-.23.39c0,.25,1.13.65,1.13,1.19V27C22.84,26.87,22.55,26.7,22.27,26.62Z" style="fill: #fff"/>
  </g>
  <path d="M16.13,10.72a1.13,1.13,0,0,1-.75.28,5.07,5.07,0,0,1-1.13-.11c-.09-.1-.19-.79-.31-.89l-.17-.15a4.63,4.63,0,0,0,1.73-2c.15-.25.06-.57-.28-.16A8.18,8.18,0,0,1,13.44,8.9c-.15.1-.3.18-.45.26C12.14,8.4,12.24,8.08,11.1,8l-.58,0H9.05L8.47,8c-1.14.09-1,.41-1.91,1.18a3.77,3.77,0,0,1-.47-.27C5,8.17,4.64,8.06,4.3,7.64S3.88,7.55,4,7.8A4.64,4.64,0,0,0,5.78,9.87s-.09.66-.15.71a2.79,2.79,0,0,0-.34.35v0a6.09,6.09,0,0,1-1.2.12,1.12,1.12,0,0,1-.74-.28c-2,0-3.14.5-3.08,1.13s1.59,1.43,2.22,1.37,1.17-.52,2.09-.41c.15,0,.26.62.36.63l0,.08c.27-.26.72-.62,1-.55L6,13c.19,0,.34.26.36.59a5.65,5.65,0,0,1,.21,1s-.12-.28-.29-.58c-.06.16-.16.27-.28.27s-.36-.29-.36-.64a1,1,0,0,1,0-.26,1.45,1.45,0,0,0-.7.25,3,3,0,0,0,.32.56A21.72,21.72,0,0,0,5.93,17a10.12,10.12,0,0,1,.85,2.46A9.28,9.28,0,0,0,7,21c.09.93.82,1.9,3.1,1.53v0c2.62.37,2.43-.6,2.52-1.53a9.28,9.28,0,0,0,.19-1.58A10.12,10.12,0,0,1,13.64,17a21.72,21.72,0,0,0,.6-2.86,3.56,3.56,0,0,0,.33-.58,1.46,1.46,0,0,0-.66-.23,1,1,0,0,1,0,.26c0,.35-.17.64-.37.64s-.22-.11-.28-.27c-.17.3-.29.58-.29.58a5.17,5.17,0,0,1,.22-1c0-.33.16-.59.35-.59l.06,0c.28-.07.7.26,1,.52a.14.14,0,0,0,0-.06c.08,0,.17-.6.27-.62.91-.11,1.46.35,2.09.41s2.16-.74,2.22-1.37S18.18,10.77,16.13,10.72Zm-8,9.83c0-.43.26-1,.37-.93s0,.28,0,.28c0,.43.35.32.35.65S8.08,21,8.08,20.55ZM10.15,22a9.75,9.75,0,0,1-1.7-.14,8.88,8.88,0,0,1,1.7-.15,3.86,3.86,0,0,1,1.11.15A3.84,3.84,0,0,1,10.15,22Zm.59-1.41c0-.33.37-.22.35-.65,0,0-.09-.22,0-.28s.37.5.37.93S10.74,20.87,10.74,20.55Zm.42-1.84a6.47,6.47,0,0,0-1.08-.09,15.36,15.36,0,0,0-1.66.07,1.61,1.61,0,0,0-1,.46,1.32,1.32,0,0,1,.9-.67,8.18,8.18,0,0,1,1.71-.15,4.28,4.28,0,0,1,1.13.16,1.45,1.45,0,0,1,.92.66A1.77,1.77,0,0,0,11.16,18.71Z" style="fill: #9e887b"/>
  <path d="M28.57,18.34a7.32,7.32,0,0,0-2.84.26c-.66-.73-1.65-.84-2.9-.84a3.66,3.66,0,0,0-2.88.82,7.1,7.1,0,0,0-2.77-.24c-2.84,0-3.48.84-3.42,1.05A6.49,6.49,0,0,0,17.66,22,4,4,0,0,0,19,21.88a15.66,15.66,0,0,0,.48,2.65c.13.41.89,1.95,1.21,2.78a2.57,2.57,0,0,0,1.95,1.49V27.65c-.29-.34-.74-.32-.85-.57a.34.34,0,1,1,.52-.42,5,5,0,0,0,.46.48c.06.05.11.1.11.14s.05-.09.12-.14a6.31,6.31,0,0,0,.45-.48.4.4,0,0,1,.54-.11.38.38,0,0,1,0,.52c-.09.23-.51.18-.81.53v1.19A2.56,2.56,0,0,0,25,27.31c.32-.83,1.09-2.37,1.22-2.78a15.7,15.7,0,0,0,.47-2.66,4.57,4.57,0,0,0,1.38.1A6.55,6.55,0,0,0,32,19.39C32.05,19.18,31.41,18.37,28.57,18.34ZM19,21.62a11.43,11.43,0,0,0-1.84-.44c-1.59-.32-2.68-1.38-2.58-1.73a2.07,2.07,0,0,1,2.06.4A4.79,4.79,0,0,0,19,20.7Zm7.82-.92a4.79,4.79,0,0,0,2.36-.85,2.08,2.08,0,0,1,2.07-.4c.09.35-1,1.41-2.59,1.73a11.43,11.43,0,0,0-1.84.44Zm-6.16,1.89a1,1,0,0,1-.67,0c-.42-.12-.4-.46-.49-.79.3,0,.55-.16.88.08S20.61,22.59,20.61,22.59Zm5.11,0a.64.64,0,0,1-.67,0s-.19-.36.28-.7.57-.13.88-.07C26.06,22.12,26.08,22.41,25.72,22.59Z" style="fill: #a69175"/>
  <path d="M24.86,11.45c-.46,0-1.78.87-1.78,1.73s1,.9,1.78.9,1.78,0,1.78-.9S25.33,11.45,24.86,11.45Zm-.78,1.62a1.41,1.41,0,0,1-.47-.07l-.18,0a1,1,0,0,1,.61-.34c.3,0,.29.18.29.24S24.33,13.07,24.08,13.07ZM26.17,13a1.5,1.5,0,0,1-.47.07c-.26,0-.26-.14-.26-.21s0-.24.3-.24a1,1,0,0,1,.6.34Z" style="fill: #e79094"/>
  <path d="M31,4.88a2.29,2.29,0,0,0-.33-.59h0a.88.88,0,0,0-1.39-.23c-.89.71-1.48,1.15-1.76,1.35a5.81,5.81,0,0,0-2.55-.72,6.52,6.52,0,0,0-2.39.86s-.66-.47-1.94-1.49a.88.88,0,0,0-1.39.23h0a2.59,2.59,0,0,0-.32.59c-.44.82-1.14,2.19-1,2.42s.86,0,.86,0l.37-.21c.07.15.15.3.25.47a2.48,2.48,0,0,0,1.2,1A11,11,0,0,0,20,11.91c.35,1.49,1.85,3.16,4.91,3.16s4.61-1.56,5.06-3.16c.19-.68-.52-2.51-.72-3.25a.18.18,0,0,0,0-.05h0a2.44,2.44,0,0,0,1.21-1c.1-.17.18-.32.25-.47l.37.21s.63.33.86,0S31.4,5.7,31,4.88ZM20.65,8.18s-.09.13-.62-.31A1.62,1.62,0,0,1,19.37,7a2.79,2.79,0,0,1,.91-.09,8,8,0,0,1,.81.21Zm1.24,1.16c-.2-.14-.22-.56-.22-.56a.49.49,0,0,1,.55,0,.83.83,0,0,1,.36.56S22.09,9.49,21.89,9.34Zm3,4.9c-.92,0-2.2-.06-2.2-1.11a3.53,3.53,0,0,1,2.2-2.54,3.53,3.53,0,0,1,2.2,2.54C27.06,14.18,25.79,14.24,24.86,14.24Zm3-4.9c-.2.15-.7,0-.7,0a.86.86,0,0,1,.37-.56.49.49,0,0,1,.55,0S28,9.2,27.84,9.34Zm1.84-1.47c-.53.44-.62.31-.62.31l-.44-1.11a8,8,0,0,1,.81-.21,2.79,2.79,0,0,1,.91.09A1.62,1.62,0,0,1,29.68,7.87Z" style="fill: #e79094"/>
</svg>
