<svg id="aefebe46-13e8-45a0-9915-ba00fef8b358" data-name="Calque 1" xmlns="http://www.w3.org/2000/svg" width="32" height="32" viewBox="0 0 32 32">
  <title>office-91-IconeContrainteAccroche</title>
  <path d="M5.61,20.11l7.54-7.54-3-3L2.59,17.09A8.75,8.75,0,0,0,15,29.46l7.54-7.53-3-3-7.54,7.54a4.48,4.48,0,0,1-6.33-6.34Z" style="fill: #b3595d"/>
  <path d="M19.77,4.34c-.68-.71-1.37-1.43-2.08-2.11L17,1.57l-.41.83A40.83,40.83,0,0,0,13.89,9a38.53,38.53,0,0,0,3.46-5.14c.68.69,1.36,1.38,2.07,2l.67.63.39-.78A38.76,38.76,0,0,0,22.85,0,35.65,35.65,0,0,0,19.77,4.34Z" style="fill: #0499d1"/>
  <path d="M29,14.06c-.68-.72-1.37-1.43-2.08-2.12l-.7-.66-.41.83a40.83,40.83,0,0,0-2.69,6.59,39.41,39.41,0,0,0,3.46-5.13c.68.69,1.36,1.38,2.07,2l.67.62.39-.78A38.32,38.32,0,0,0,32,9.74,35.76,35.76,0,0,0,29,14.06Z" style="fill: #0499d1"/>
</svg>
