<svg id="a1aa6414-72ce-40ed-9818-9cc62a718829" data-name="Calque 1" xmlns="http://www.w3.org/2000/svg" width="32" height="32" viewBox="0 0 32 32">
  <title>building-55-IconeTypeCoucheClient</title>
  <g>
    <path d="M28,23a19.57,19.57,0,0,1-.46-3.61,3.22,3.22,0,0,1-.88.12A3.3,3.3,0,0,1,24.85,19a3.07,3.07,0,0,1-.63.31,13.92,13.92,0,0,1-.5,3.74c-.66,1.95-1.24,2-1.24,2,2.12-.13,2.74-.75,2.74-.75l2,1.13L26.49,24a7.51,7.51,0,0,0,1.36.89,3.14,3.14,0,0,0,2.2.46A6.75,6.75,0,0,1,28,23Z" style="fill: #ac7152"/>
    <path d="M30.29,11.92a2.87,2.87,0,0,0,.22-1.09A2.91,2.91,0,0,0,27.6,7.91a1.93,1.93,0,0,0-.42,0,2.75,2.75,0,0,0-4-.42L24.91,15a3.8,3.8,0,0,1-1.47,3.92,2.68,2.68,0,0,0,1.41-.63,2.74,2.74,0,0,0,1.78.67,2.78,2.78,0,0,0,2.57-1.72,2.78,2.78,0,0,0,1.09-5.33Z" style="fill: #7fa349"/>
  </g>
  <path d="M19.45,16.68l-.37-.37L16.76,14,16,13.29l-2.59-2.58L12.73,10,12,9.22A.69.69,0,0,0,11.4,9a.76.76,0,0,0-.53.23l-.74.75-.72.74L6.82,13.36l-.72.73L3.92,16.31l-.3.31a2.65,2.65,0,0,1-.77.53l-.06,0v8.32h7.34v-5h2.6v5h7.34v-8.4a2.49,2.49,0,0,1-.6-.42Z" style="fill: #caa989"/>
  <path d="M23,15.46,21.22,8A1.76,1.76,0,0,0,19.65,6.6l-16.14,0H3.33A1.79,1.79,0,0,0,1.57,8L0,15.51a1.79,1.79,0,0,0,2.75,1.86l.06,0a2.52,2.52,0,0,0,.25-.21l.41-.42L6.1,14.07l.72-.74L9.41,10.7l.72-.73.09-.09a1.68,1.68,0,0,1,2.37,0l.14.14.72.71L16,13.27l.72.71,2.62,2.61.09.09.49.48a1.09,1.09,0,0,0,.11.1,1.83,1.83,0,0,0,2,.18A1.81,1.81,0,0,0,23,15.46Z" style="fill: #945b3f"/>
</svg>
