<svg id="bcdf2584-c998-414f-97a6-76b9fde547d1" data-name="Calque 1" xmlns="http://www.w3.org/2000/svg" width="32" height="32" viewBox="0 0 32 32">
  <title>map-04-14E10BCA</title>
  <path d="M27.19,24.2a.88.88,0,0,0,.12.59c.09.11.28.16.59.15h2.45c.49,0,.74-.22.73-.67s-.24-.69-.73-.68H28.54V22.21h1.37a.6.6,0,0,0,.68-.67.6.6,0,0,0-.68-.69H28.54V19.7h1.75c.46,0,.69-.22.68-.68s-.22-.68-.68-.68H27.9a.64.64,0,0,0-.71.74V24.2" style="fill: #000001"/>
  <path d="M3.79,8.7A1.35,1.35,0,0,1,5,9.35a2.71,2.71,0,0,1,.38,1.44A2.64,2.64,0,0,1,5,12.21a1.32,1.32,0,0,1-2.28,0,2.81,2.81,0,0,1-.37-1.46,2.59,2.59,0,0,1,.36-1.4A1.31,1.31,0,0,1,3.79,8.7m0-1.37A2.6,2.6,0,0,0,1.62,8.4,4,4,0,0,0,.9,10.75a3.94,3.94,0,0,0,.73,2.37A2.61,2.61,0,0,0,3.79,14.2,2.67,2.67,0,0,0,6,13.13a3.91,3.91,0,0,0,.73-2.36A3.94,3.94,0,0,0,6,8.41,2.62,2.62,0,0,0,3.79,7.33Z" style="fill: #000001"/>
  <path d="M27.57,16.08,19,14.71l-1.2-.23h0l-.2-1.05-1.4-8.58A.28.28,0,0,0,16,4.62h0a.28.28,0,0,0-.28.23L14.3,13.41l-.15,1.09-1.05.21L4.52,16.1a.29.29,0,0,0-.23.28.28.28,0,0,0,.23.27L13.08,18l1.06.15,0-.26,0,.26.16,1.16,1.4,8.58a.27.27,0,0,0,.27.23h0a.29.29,0,0,0,.28-.23l1.36-8.55.23-1.18L19,18l8.58-1.39a.28.28,0,0,0,.23-.28A.28.28,0,0,0,27.57,16.08Zm-10.5-2.55.16.84-1.16-.22H16L16,6.71ZM16,26v.08l-1.12-6.87-.14-1h0l1.28.18h0Zm2.94-8.57-1,.14-.58.08h0L16,17.87l-1.38-.19,1.4-1.3H6.31l6.89-1.13.87-.17.57-.11h0L16,14.7l1.33.26.16,0-1.46,1.36h9.74Z" style="fill: #000001"/>
</svg>
