<svg id="fbd820ce-001a-4e29-b516-7f9b81a4cf3e" data-name="Calque 1" xmlns="http://www.w3.org/2000/svg" width="32" height="32" viewBox="0 0 32 32">
  <title>field-102-30D0F885</title>
  <path d="M25.25,28.07A6.73,6.73,0,1,1,32,21.34a6.73,6.73,0,0,1-6.72,6.73" style="fill: #808183"/>
  <rect x="21.46" y="17.51" width="7.45" height="1.81" rx="0.91" style="fill: #fff"/>
  <circle cx="22.37" cy="21.5" r="0.87" style="fill: #fff"/>
  <circle cx="25.31" cy="21.5" r="0.87" style="fill: #fff"/>
  <circle cx="28.24" cy="21.5" r="0.87" style="fill: #fff"/>
  <circle cx="22.37" cy="24.31" r="0.87" style="fill: #fff"/>
  <circle cx="25.31" cy="24.31" r="0.87" style="fill: #fff"/>
  <circle cx="28.24" cy="24.31" r="0.87" style="fill: #fff"/>
  <polygon points="9.78 5.98 9.78 5.98 9.78 5.98 9.78 5.98" style="fill: #b71236"/>
  <g>
    <path d="M25.25,12.62a8.58,8.58,0,0,1,1.35.12L30.37,7.2,13.56,1.51l-3.33,4.7,12.93,6.67A9,9,0,0,1,25.25,12.62Z" style="fill: #0499d1"/>
    <path d="M13.56,1.51,30.37,7.2,26.6,12.74a8.88,8.88,0,0,1,1,.22l4.29-6.28L13.18.32,9.37,5.69l.35.25.51.27Z" style="fill: #00608c"/>
    <path d="M15.08,29.83,2.07,18.1,10.23,6.21l0,.06L9.78,6h0l-.06,0-.38-.21L.76,18.26l14.5,13.08,3.13-4.62a10.77,10.77,0,0,1-.61-.89Z" style="fill: #77787a"/>
    <polygon points="9.78 5.98 10.19 6.27 10.23 6.21 9.72 5.94 9.78 5.98 9.78 5.98" style="fill: #77787a"/>
    <path d="M23.16,12.88,10.23,6.21,2.07,18.1l13,11.73,2.7-4a8.71,8.71,0,0,1,5.38-12.95Z" style="fill: #a9cd82"/>
  </g>
</svg>
