<svg id="a5efe67e-3329-4e7d-8adb-d78fd6403304" data-name="Calque 1" xmlns="http://www.w3.org/2000/svg" width="32" height="32" viewBox="0 0 32 32">
  <title>map-41-IconeSheet</title>
  <path d="M15.93,25.28a2,2,0,0,1-.9-.21L4.91,20,1.14,21.89l14.79,7.39,14.78-7.39L26.94,20,16.82,25.07A2,2,0,0,1,15.93,25.28Z" style="fill: #8c8c8c"/>
  <g>
    <polygon points="30.71 9.89 15.93 17.28 1.14 9.89 15.93 2.5 30.71 9.89" style="fill: #8c8c8c"/>
    <path d="M15.93,19.28a2,2,0,0,1-.9-.21L4.91,14,1.14,15.89l14.79,7.39,14.78-7.39L26.94,14,16.82,19.07A2,2,0,0,1,15.93,19.28Z" style="fill: #8c8c8c"/>
  </g>
</svg>
