<svg id="b96b79e4-5eed-48b7-afbb-c76009d3e224" data-name="Calque 1" xmlns="http://www.w3.org/2000/svg" width="32" height="32" viewBox="0 0 32 32">
  <title>arrow-96-IconeReprisePrix</title>
  <g>
    <polygon points="1.66 17.66 8.24 17.66 6.24 0.49 16.67 0.49 14.67 17.66 21.25 17.66 11.46 29.26 1.66 17.66" style="fill: #ffd201"/>
    <path d="M16.12,1,14.25,17.05l-.13,1.11h6.07L11.45,28.5,2.72,18.16H8.79l-.13-1.1L6.79,1h9.33m1.11-1H5.68l2,17.17H.6L11.45,30,22.31,17.17H15.23L17.23,0Z" style="fill: #8a4b19"/>
  </g>
  <g>
    <g>
      <path d="M19.78,22.77a5.32,5.32,0,0,0,.79.38,11.71,11.71,0,0,0,3.19.72c.53.05,1.1.09,1.71.09s1.17,0,1.7-.09a11.71,11.71,0,0,0,3.19-.72,5.32,5.32,0,0,0,.79-.38,2.91,2.91,0,0,0,.58-.44.91.91,0,0,0,.31-.57V20.15c-1.15-.59-4.06-.59-6.57-.59s-5.52-.06-6.58.59v1.61a.91.91,0,0,0,.31.57A2.91,2.91,0,0,0,19.78,22.77Z" style="fill: #db9f0c"/>
      <path d="M19.78,21.15a4.47,4.47,0,0,0,.79.39,12.09,12.09,0,0,0,3.19.72c.53,0,1.1.09,1.71.09s1.17,0,1.7-.09a12.09,12.09,0,0,0,3.19-.72,4.47,4.47,0,0,0,.79-.39,2.58,2.58,0,0,0,.58-.44.87.87,0,0,0,.31-.56c0-.9-2.56-2.2-6.57-2.2s-6.58,1.3-6.58,2.2a.87.87,0,0,0,.31.56A2.58,2.58,0,0,0,19.78,21.15Z" style="fill: #f9b400"/>
    </g>
    <path d="M31.73,23.39a2.58,2.58,0,0,1-.58.44,4.47,4.47,0,0,1-.79.39,12.09,12.09,0,0,1-3.19.72c-.53,0-1.1.09-1.7.09s-1.18,0-1.71-.09a12.09,12.09,0,0,1-3.19-.72,4.47,4.47,0,0,1-.79-.39,2.58,2.58,0,0,1-.58-.44.87.87,0,0,1-.31-.56v1.61a.91.91,0,0,0,.31.57,3.35,3.35,0,0,0,.58.44,5.32,5.32,0,0,0,.79.38,11.71,11.71,0,0,0,3.19.72c.53.05,1.1.09,1.71.09s1.17,0,1.7-.09a11.71,11.71,0,0,0,3.19-.72,5.32,5.32,0,0,0,.79-.38,3.35,3.35,0,0,0,.58-.44.91.91,0,0,0,.31-.57V22.83A.87.87,0,0,1,31.73,23.39Z" style="fill: #db9f0c"/>
    <path d="M31.73,26.07a2.58,2.58,0,0,1-.58.44,4.47,4.47,0,0,1-.79.39,12.09,12.09,0,0,1-3.19.72c-.53.05-1.1.09-1.7.09s-1.18,0-1.71-.09a12.09,12.09,0,0,1-3.19-.72,4.47,4.47,0,0,1-.79-.39,2.58,2.58,0,0,1-.58-.44.89.89,0,0,1-.31-.56v1.61a.91.91,0,0,0,.31.57,3.35,3.35,0,0,0,.58.44,5.32,5.32,0,0,0,.79.38,11.71,11.71,0,0,0,3.19.72c.53.05,1.1.09,1.71.09s1.17,0,1.7-.09a11.71,11.71,0,0,0,3.19-.72,5.32,5.32,0,0,0,.79-.38,3.35,3.35,0,0,0,.58-.44.91.91,0,0,0,.31-.57V25.51A.89.89,0,0,1,31.73,26.07Z" style="fill: #db9f0c"/>
    <path d="M31.73,28.75a2.58,2.58,0,0,1-.58.44,4.47,4.47,0,0,1-.79.39,11.74,11.74,0,0,1-3.19.71,14.59,14.59,0,0,1-3.41,0,11.74,11.74,0,0,1-3.19-.71,4.47,4.47,0,0,1-.79-.39,2.58,2.58,0,0,1-.58-.44.89.89,0,0,1-.31-.56V29.8a.87.87,0,0,0,.31.56,2.92,2.92,0,0,0,.58.45,5.32,5.32,0,0,0,.79.38,11.71,11.71,0,0,0,3.19.72c.53.05,1.1.09,1.71.09s1.17,0,1.7-.09a11.71,11.71,0,0,0,3.19-.72,5.32,5.32,0,0,0,.79-.38,2.92,2.92,0,0,0,.58-.45A.87.87,0,0,0,32,29.8V28.19A.89.89,0,0,1,31.73,28.75Z" style="fill: #db9f0c"/>
  </g>
</svg>
