<svg id="ad313129-8fb4-47ae-88b0-c6470b5088cd" data-name="Calque 1" xmlns="http://www.w3.org/2000/svg" width="32" height="32" viewBox="0 0 32 32">
  <title>products-74-IconeCalcium</title>
  <g>
    <path d="M16.63,18.88a4.91,4.91,0,0,1-.44,1.9,6.62,6.62,0,0,1-1.36,2,6.89,6.89,0,0,1-2.38,1.61A8.55,8.55,0,0,1,9.08,25a12,12,0,0,1-2.65-.27,7.57,7.57,0,0,1-2.17-.86,7.43,7.43,0,0,1-1.8-1.55,8.93,8.93,0,0,1-1.24-1.94A10.31,10.31,0,0,1,.44,18.1a12.75,12.75,0,0,1-.25-2.6,11.5,11.5,0,0,1,.64-4,8.59,8.59,0,0,1,1.86-3A8,8,0,0,1,5.52,6.6,9.07,9.07,0,0,1,9,5.94a8.62,8.62,0,0,1,4,.9A7.25,7.25,0,0,1,15.65,9a4.39,4.39,0,0,1,.93,2.49,1.62,1.62,0,0,1-.45,1.13,1.45,1.45,0,0,1-1.1.49A1.46,1.46,0,0,1,14,12.81a4.53,4.53,0,0,1-.8-1.17,5.66,5.66,0,0,0-1.72-2.05A4.22,4.22,0,0,0,9,8.91a4.39,4.39,0,0,0-3.66,1.75,7.92,7.92,0,0,0-1.37,5,9.1,9.1,0,0,0,.61,3.58,4.49,4.49,0,0,0,1.71,2.13,4.7,4.7,0,0,0,2.59.71,4.56,4.56,0,0,0,2.72-.8,4.91,4.91,0,0,0,1.68-2.35,4.13,4.13,0,0,1,.59-1.19A1.38,1.38,0,0,1,15,17.25a1.59,1.59,0,0,1,1.14.47A1.54,1.54,0,0,1,16.63,18.88Z" style="fill: #005da8"/>
    <path d="M28.43,23.08A10.63,10.63,0,0,1,26,24.53a6.82,6.82,0,0,1-2.61.48,4.9,4.9,0,0,1-2.32-.52,3.83,3.83,0,0,1-1.54-1.41A3.69,3.69,0,0,1,19,21.14a3.43,3.43,0,0,1,.89-2.4,4.46,4.46,0,0,1,2.45-1.34L24,17.06q1.29-.25,2.22-.48c.61-.15,1.28-.33,2-.54a3.58,3.58,0,0,0-.54-2,2.48,2.48,0,0,0-2-.63,4.24,4.24,0,0,0-2,.36,3.12,3.12,0,0,0-1.13,1.1c-.32.48-.54.8-.67,1a1.12,1.12,0,0,1-.84.23,1.48,1.48,0,0,1-1-.37,1.22,1.22,0,0,1-.42-.95A2.93,2.93,0,0,1,20.26,13a4.65,4.65,0,0,1,2-1.41A9,9,0,0,1,25.65,11a9.5,9.5,0,0,1,3.56.53A3.35,3.35,0,0,1,31,13.25a7.36,7.36,0,0,1,.53,3.07v2.05c0,.56,0,1.19,0,1.88a7.07,7.07,0,0,0,.32,2,6.63,6.63,0,0,1,.32,1.35,1.27,1.27,0,0,1-.5,1,1.64,1.64,0,0,1-1.12.43,1.54,1.54,0,0,1-1.05-.49A7.23,7.23,0,0,1,28.43,23.08Zm-.23-5a17,17,0,0,1-2.19.58c-1,.21-1.63.36-2,.46a2.56,2.56,0,0,0-1.05.56,1.44,1.44,0,0,0-.51,1.18A1.77,1.77,0,0,0,23,22.22a2.22,2.22,0,0,0,1.55.54,4.1,4.1,0,0,0,1.88-.44,3,3,0,0,0,1.27-1.15,5.29,5.29,0,0,0,.46-2.57Z" style="fill: #005da8"/>
  </g>
</svg>
