<svg id="bc8cb8aa-7115-46c7-a211-fbdd77703fea" data-name="Calque 1" xmlns="http://www.w3.org/2000/svg" width="32" height="32" viewBox="0 0 32 32">
  <title>folder-42-IconeCategorieEdition</title>
  <path d="M31.91,26.5V8.5A1.5,1.5,0,0,0,30.41,7H11.5A1.5,1.5,0,0,1,10,5.5v-1A1.5,1.5,0,0,0,8.5,3h-7A1.5,1.5,0,0,0,0,4.5v22A1.5,1.5,0,0,0,1.5,28H30.41A1.5,1.5,0,0,0,31.91,26.5Z" style="fill: #fac262"/>
  <g>
    <path d="M18.49,17.88V13H10a2,2,0,0,0-1.1.34A2,2,0,0,0,8,15H8V28H24V18.38H19A.5.5,0,0,1,18.49,17.88Z" style="fill: #fff"/>
    <path d="M23.93,17.38a2,2,0,0,0-.52-.95l-2.85-2.84a2,2,0,0,0-1-.54h-.06v4.33Z" style="fill: #fff"/>
  </g>
</svg>
