<svg id="a8ba71f9-d2a2-441b-a2c5-68df0a9bc5db" data-name="Calque 1" xmlns="http://www.w3.org/2000/svg" width="32" height="32" viewBox="0 0 32 32">
  <title>people-93-IconeRoleUtilisateur</title>
  <path d="M12.85,16.88h0l4.94,5.34a7.52,7.52,0,0,0,1.07-1.36,3.43,3.43,0,0,0,.49-1.75l0-2.4s0-.06,0-.14C17.59,18.41,15.24,19.22,12.85,16.88Z" style="fill: #cfad88"/>
  <path d="M19.8,7.59a7.44,7.44,0,0,0-2.74-.37h-.51A5.44,5.44,0,0,1,15,6.94l.36.16a5,5,0,0,1-2.09-1.81c-1.17.08-3.41,3.5-3.31,6.27v0s0,.05,0,.05a11.52,11.52,0,0,0,2.5,4.89v2.07a3.07,3.07,0,0,0,.35,1.46c1.06,1.92,2.88,4.16,4.94,2.17l-4.94-5.34h0c2.39,2.34,4.74,1.53,6.48-.31a11.52,11.52,0,0,0,2.45-4.27c0-.12,0-.23,0-.35C22.46,7.61,19.82,7.6,19.8,7.59Z" style="fill: #dcc4ab"/>
  <path d="M10,11.61v0c-.1-2.77,2.14-6.19,3.31-6.27A5,5,0,0,0,15.4,7.1a3.27,3.27,0,0,0,1.15.13h.51a7.23,7.23,0,0,1,2.74.37c.66.27,2.21,1.18,2,4.36,0,.12,0,.23,0,.35h0a9.89,9.89,0,0,0,.53-2.7A6.44,6.44,0,0,0,16,2.39c-1.43,0-1.39.42-2.06.69a2.74,2.74,0,0,1-.77,0c-2.46-.31-3.73,3.33-3.5,6.62A14.64,14.64,0,0,0,10,11.61Z" style="fill: #7c6e5c"/>
  <path d="M26.79,23.86l.12.28h0Z" style="fill: #58585a"/>
  <path d="M26.79,23.86Z" style="fill: #58585a"/>
  <path d="M26.91,24.14Z" style="fill: #58585a"/>
  <polygon points="26.91 24.14 26.91 24.14 26.91 24.14 26.91 24.14" style="fill: #58585a"/>
  <path d="M19,23.45l-.53-.4c-2.9,2.9-5.69-.55-6.82-3.21-2,.5-6.67,1.25-7.26,3.63-.48,2,2.13,4.31,3.5,5.34a13,13,0,0,0,7.72,2.69,14.51,14.51,0,0,0,8.54-3c-.71-1-1-2.77-2-3.69S19.59,24,19,23.45Z" style="fill: #6f7072"/>
  <path d="M27.24,23.13c-.86-1.91-4.91-2.76-6.83-3.28a9.68,9.68,0,0,1-2,3.2,25.65,25.65,0,0,1,5.68,5.42c1.22-.93,4-3.49,3.14-5.34C26.9,22.38,27.3,23.25,27.24,23.13Z" style="fill: #58585a"/>
  <path d="M12,20.67A31.12,31.12,0,0,0,16,31.5a31.25,31.25,0,0,0,4-10.83S18.52,24,16,24C13.7,24,12,20.67,12,20.67Z" style="fill: #fff"/>
  <path d="M6.3,6.06c0,.74,2,4.09,9.74,4.09,7.45,0,9.74-3.29,9.74-4.09,0,0,0-.83-1.75-.14s-1.92.53-1.92.53S22,4.41,22,3.64,20.88,0,16,0s-5.93,2.53-5.93,3.47-.21,3-.21,3S8,5.87,7.33,5.7,6.3,5.78,6.3,6.06Z" style="fill: #3f3f3f"/>
</svg>
