<svg id="a56ccb57-2cb5-49ff-86f5-89d56586efc7" data-name="Calque 1" xmlns="http://www.w3.org/2000/svg" width="32" height="32" viewBox="0 0 32 32">
  <title>vegetal-81-2208FDF0.Market</title>
  <rect x="0.99" y="26" width="3.91" height="2" transform="translate(5.88 54) rotate(-180)" style="fill: #8f8f8f"/>
  <rect x="0.99" y="6" width="3.91" height="2" transform="translate(5.88 14) rotate(-180)" style="fill: #8f8f8f"/>
  <rect x="2.99" y="22" width="1.91" height="2" transform="translate(7.88 46) rotate(-180)" style="fill: #8f8f8f"/>
  <rect x="2.99" y="18" width="1.91" height="2" transform="translate(7.88 38) rotate(-180)" style="fill: #8f8f8f"/>
  <rect x="2.99" y="14" width="1.91" height="2" transform="translate(7.88 30) rotate(-180)" style="fill: #8f8f8f"/>
  <rect x="2.99" y="10" width="1.91" height="2" transform="translate(7.88 22) rotate(-180)" style="fill: #8f8f8f"/>
  <g>
    <path d="M23.72,23c3.51,0,4.73-.93,4.73-.93a2.62,2.62,0,0,0,1.39-1.41,1.23,1.23,0,0,0,0-1.14,25.22,25.22,0,0,0-5-.55,8.53,8.53,0,0,0-3.8,1.17,8,8,0,0,1-.83,2.47A16.71,16.71,0,0,0,23.72,23Z" style="fill: #6da200"/>
    <path d="M23,15.76A5.26,5.26,0,0,0,24.89,14c.52-1,2.72-1.64,3.65-1.85a1.73,1.73,0,0,0-.67-1.92,4.28,4.28,0,0,0-2.53-.54s.09-.72-.95-1.47A2.3,2.3,0,0,0,22.65,8a13.56,13.56,0,0,0-2.28,2.49l-.23.72-1,2.24a8.11,8.11,0,0,1,1.66,3Z" style="fill: #6da200"/>
    <path d="M29.57,15.57a1.51,1.51,0,0,0,.36-1.63A2.54,2.54,0,0,0,29,12.81v.09c-1.22.24-3.09.85-3.4,1.48a6.14,6.14,0,0,1-2.24,2.11l-.08,0L21,17.19a7.59,7.59,0,0,1,.17,1.59c0,.13,0,.25,0,.38a8.84,8.84,0,0,1,3.68-1,27.62,27.62,0,0,1,5,.53,2.86,2.86,0,0,0,.85-1.27C31,16.29,29.57,15.57,29.57,15.57Z" style="fill: #6da200"/>
    <path d="M17.64,12.09a8.27,8.27,0,0,1,.92.74l.83-1.92.22-.69A9.38,9.38,0,0,1,21.46,8,5.52,5.52,0,0,0,20,7.37c-1.48-.46-2,1.2-2,1.2a8.52,8.52,0,0,0-1.11,1.71,1.64,1.64,0,0,1,.29.2A1.58,1.58,0,0,1,17.64,12.09Z" style="fill: #6da200"/>
  </g>
  <path d="M16.07,13a3,3,0,0,1,.86,1.4.67.67,0,0,1-.33.73.68.68,0,0,1-.8-.09A4.55,4.55,0,0,0,15,14.5a4.26,4.26,0,0,1,0,1.62.68.68,0,0,1-1.32.07,4.55,4.55,0,0,0-1.17-1.83,4,4,0,0,0-1.72,2,.68.68,0,0,1-.65.49h0a.68.68,0,0,1-.64-.47,3.08,3.08,0,0,1,0-2.46,9.38,9.38,0,0,0-1.16.28A6.52,6.52,0,1,0,16.07,13Z" style="fill: #b71236"/>
  <path d="M13.57,13.36a5.2,5.2,0,0,1,2.69,1.18s-.28-1.43-2.48-2c0,0,.19-.78,2.33-.81a3.74,3.74,0,0,0-1.52-.35,2.12,2.12,0,0,0-1.92.67,3.54,3.54,0,0,0-3.51-.9,2.5,2.5,0,0,1,2.08,1.11s-2.5,0-3.61,1.55a10.93,10.93,0,0,1,3.55-.7c-.23.38-1.76,1-1,3.11a4.84,4.84,0,0,1,2.47-2.66A5.4,5.4,0,0,1,14.33,16,2.89,2.89,0,0,0,13.57,13.36Z" style="fill: #107230"/>
</svg>
