<svg id="a585725a-bf38-48da-9f9d-6ccb65310411" data-name="Calque 1" xmlns="http://www.w3.org/2000/svg" width="32" height="32" viewBox="0 0 32 32">
  <title>field-91-IconeImportIlot</title>
  <rect x="24.72" y="16.97" width="1.27" height="9.02" style="fill: #fff"/>
  <rect x="20.87" y="20.84" width="8.95" height="1.28" style="fill: #fff"/>
  <path d="M25.25,28.05A6.72,6.72,0,1,1,32,21.33a6.72,6.72,0,0,1-6.73,6.72" style="fill: #0499d1"/>
  <g>
    <path d="M25.25,12.61a9.07,9.07,0,0,1,1.49.13l2.89-4.29L13.28,2l-11,16.1,13,11.72L17.87,26a8.58,8.58,0,0,1-1.34-4.62A8.73,8.73,0,0,1,25.25,12.61Z" style="fill: #fff"/>
    <path d="M12.9.76,1,18.25,15.46,31.33l3-4.5a4.35,4.35,0,0,1-.32-.43,3.52,3.52,0,0,1-.3-.45l-2.6,3.86-13-11.72L13.28,2,29.63,8.45l-2.89,4.29.53.11.51.13,3.37-5Z" style="fill: #77787a"/>
  </g>
  <polygon points="29.43 18.92 28.3 17.79 25.18 20.91 22.91 18.64 22.91 24.31 28.58 24.31 26.31 22.04 29.43 18.92" style="fill: #fff"/>
</svg>
