<svg id="b889ddbc-0be6-4cb9-b904-440a4f76c285" data-name="Calque 1" xmlns="http://www.w3.org/2000/svg" width="32" height="32" viewBox="0 0 32 32">
  <title>building-61-IconeLieux</title>
  <polygon points="22 25 1 25 1 15 2.77 12.88 3.79 8.21 10 9 12.43 11 22 15 22 25" style="fill: #caa989"/>
  <rect x="27" y="19" width="1" height="6" style="fill: #b48b72"/>
  <rect x="24" y="19" width="1" height="6" style="fill: #b48b72"/>
  <rect x="30" y="19" width="1" height="6" style="fill: #b48b72"/>
  <rect x="23" y="21" width="9" height="1" style="fill: #b48b72"/>
  <rect x="5.99" y="20" width="2" height="5" style="fill: #dfcab5"/>
  <rect x="12" y="20" width="2" height="3" style="fill: #dfcab5"/>
  <rect x="17" y="20" width="2" height="3" style="fill: #dfcab5"/>
  <rect x="5.99" y="13" width="2" height="3" style="fill: #dfcab5"/>
  <path d="M1.55,15.5A1.81,1.81,0,0,1,1,15.42a1.49,1.49,0,0,1-1-1.91L1.48,6.65A1.55,1.55,0,0,1,3,5.64h8.33a1.56,1.56,0,0,1,1.5,1.07l.87,2.79H20.9c.87,0,1.3.66,1.57,1.5.15.46,1,2.56.63,3.69-.27.81-1.83.81-2.2.81H12.5A1.57,1.57,0,0,1,11,14.43l-.87-4.79h-6L3,14.49A1.58,1.58,0,0,1,1.55,15.5Z" style="fill: #945b3f"/>
</svg>
