<svg id="e6782e20-80a3-48b3-b6f7-ee62cc99f8f0" data-name="Calque 1" xmlns="http://www.w3.org/2000/svg" width="32" height="32" viewBox="0 0 32 32">
  <title>products-33-24ED2410</title>
  <g>
    <path d="M3.21,7.07l4.33,6.54V7a1.5,1.5,0,0,1,.27-1A1.05,1.05,0,0,1,9.32,6,1.44,1.44,0,0,1,9.6,7v8.73c0,1-.4,1.46-1.21,1.46a1.49,1.49,0,0,1-1-.36A2.87,2.87,0,0,1,7,16.39l-.36-.52L2.42,9.41v6.5a1.35,1.35,0,0,1-.3,1,1,1,0,0,1-.75.33,1,1,0,0,1-.77-.33,1.43,1.43,0,0,1-.29-1V7.35a2.46,2.46,0,0,1,.12-.86,1.27,1.27,0,0,1,.48-.55,1.25,1.25,0,0,1,.72-.22,1.18,1.18,0,0,1,.52.1,1.22,1.22,0,0,1,.38.26,2.68,2.68,0,0,1,.33.43Z" style="fill: #005da8"/>
    <path d="M16.37,12.69H14.31v3.14a1.47,1.47,0,0,1-.31,1,1.07,1.07,0,0,1-.81.35,1,1,0,0,1-.81-.35,1.44,1.44,0,0,1-.32-1V7.29a1.38,1.38,0,0,1,.35-1.06,1.53,1.53,0,0,1,1.08-.32h2.88a7.16,7.16,0,0,1,2,.2,2.85,2.85,0,0,1,1.18.62,2.92,2.92,0,0,1,.75,1.08,3.8,3.8,0,0,1,.26,1.43,3.17,3.17,0,0,1-1,2.57A4.8,4.8,0,0,1,16.37,12.69ZM15.83,7.6H14.31V11h1.52a4.58,4.58,0,0,0,1.33-.17,1.57,1.57,0,0,0,.81-.54,1.59,1.59,0,0,0,.28-1,1.68,1.68,0,0,0-.43-1.2A2.87,2.87,0,0,0,15.83,7.6Z" style="fill: #005da8"/>
  </g>
  <g>
    <polygon points="24.74 13.47 27.62 13.47 26.51 11.77 24.74 13.47" style="fill: none"/>
    <path d="M26.51,11.77l1.11,1.7H30.3l-2.24-3.21L30.8,7.67a1.34,1.34,0,0,0,.5-1A.91.91,0,0,0,31,6a1.09,1.09,0,0,0-.79-.28,1,1,0,0,0-.59.16,4.25,4.25,0,0,0-.54.49L24.67,11V7.08a1.43,1.43,0,0,0-.31-1,1.06,1.06,0,0,0-.82-.34,1,1,0,0,0-.82.34,1.51,1.51,0,0,0-.3,1v6.39h2.32Z" style="fill: #005da8"/>
  </g>
  <g>
    <g>
      <rect x="17.53" y="15.97" width="14" height="12" style="fill: #fff"/>
      <path d="M31,16.47v11H18v-11H31m1-1H17v13H32v-13Z" style="fill: #868789"/>
    </g>
    <rect x="19.03" y="17.47" width="11" height="3" style="fill: #007bbd"/>
    <rect x="21.03" y="22.47" width="1" height="1" style="fill: #cfd0d0"/>
    <rect x="24.03" y="22.47" width="1" height="1" style="fill: #cfd0d0"/>
    <rect x="27.03" y="22.47" width="1" height="1" style="fill: #cfd0d0"/>
    <g>
      <rect x="19.03" y="21.47" width="11" height="1" style="fill: #fff"/>
      <polygon points="30.03 21.47 19.03 21.47 19.03 22.47 30.03 22.47 30.03 21.47 30.03 21.47" style="fill: #cfd0d0"/>
    </g>
    <rect x="21.03" y="25.47" width="1" height="1" style="fill: #cfd0d0"/>
    <rect x="24.03" y="25.47" width="1" height="1" style="fill: #cfd0d0"/>
    <rect x="27.03" y="25.47" width="1" height="1" style="fill: #cfd0d0"/>
    <g>
      <rect x="19.03" y="24.47" width="11" height="1" style="fill: #fff"/>
      <polygon points="30.03 24.47 19.03 24.47 19.03 25.47 30.03 25.47 30.03 24.47 30.03 24.47" style="fill: #cfd0d0"/>
    </g>
  </g>
</svg>
