<svg id="a418bf19-910d-4c62-95f8-b956fd29dc02" data-name="Calque 1" xmlns="http://www.w3.org/2000/svg" width="16" height="16" viewBox="0 0 16 16">
  <title>arrow-47-IconeRafraichir</title>
  <path d="M14.21,10.06a6.19,6.19,0,0,1-1.51,2.37c-2.72,2.66-7,2.8-9,0a4.56,4.56,0,0,1-1-1.82" style="fill: none;stroke: #40a52b;stroke-linecap: round;stroke-linejoin: round;stroke-width: 1.5px"/>
  <path d="M2.33,6a3.55,3.55,0,0,1,.52-1.6,5.91,5.91,0,0,1,.81-1,6.4,6.4,0,0,1,9,0A6.48,6.48,0,0,1,13.89,5" style="fill: none;stroke: #40a52b;stroke-linecap: round;stroke-linejoin: round;stroke-width: 1.5px"/>
  <path d="M.07,4.33V8.26a.66.66,0,0,0,1,.57l3.41-2a.67.67,0,0,0,0-1.16l-3.41-2A.67.67,0,0,0,.07,4.33Z" style="fill: #40a52b"/>
  <path d="M16,11.67V7.74a.66.66,0,0,0-1-.57l-3.41,2a.67.67,0,0,0,0,1.16l3.41,2A.66.66,0,0,0,16,11.67Z" style="fill: #40a52b"/>
</svg>
