<svg id="b755fec1-2983-46be-bef2-1a991bdf2954" data-name="Calque 1" xmlns="http://www.w3.org/2000/svg" width="32" height="32" viewBox="0 0 32 32">
  <title>vehicles-06-34AD05AD</title>
  <g>
    <path d="M8.31,13.92a5.51,5.51,0,1,0,5.51,5.51A5.51,5.51,0,0,0,8.31,13.92Zm0,9a3.53,3.53,0,1,1,3.52-3.53A3.53,3.53,0,0,1,8.31,23Z" style="fill: #a6857d"/>
    <path d="M26.37,16.78a4.3,4.3,0,0,0-6.11,3,4.6,4.6,0,0,0-.08.84,4.3,4.3,0,1,0,6.19-3.86Zm-1.89,6.61a2.76,2.76,0,1,1,2.75-2.75A2.75,2.75,0,0,1,24.48,23.39Z" style="fill: #a6857d"/>
  </g>
  <g>
    <path d="M14.29,8.47c-.95,0-4.86-.19-4.86-.19l-.17,3.65,6.38.54-.38-2.74S15.24,8.47,14.29,8.47Z" style="fill: none"/>
    <path d="M24.48,15.71a4.88,4.88,0,0,1,1.8.34,5.16,5.16,0,0,0-.64-2.13,4.8,4.8,0,0,0-2.17-.67l-1.65,3.24A4.94,4.94,0,0,1,24.48,15.71Z" style="fill: #a6857d"/>
    <path d="M16.51,12.54l-.45-3.8A2.24,2.24,0,0,0,13.88,7c-1.8,0-5.48-.11-5.48-.11L8.31,8.41,7.76,12.5A6.33,6.33,0,0,0,4,14.23l.32.58a6.14,6.14,0,0,1,10.18,4.62,5.44,5.44,0,0,1,0,.57l3.68-7.35Zm-7.25-.61.17-3.65s3.91.19,4.86.19,1,1.26,1,1.26l.38,2.74Z" style="fill: #a6857d"/>
  </g>
  <path d="M24.45,9.19l-3-1.5,1.61-3.2-2.13.7L19.41,8.25l.84,2.55L13.89,23.49h0a1.38,1.38,0,0,0,0,1,1.39,1.39,0,0,0,1.76.88,1.36,1.36,0,0,0,.75-.62h0l6.41-12.56,2.68-.89,1.4-2.8L26.05,6ZM15.3,24.49a.5.5,0,0,1-.62-.31.48.48,0,0,1,.31-.62.49.49,0,0,1,.31.93Z" style="fill: #a6857d"/>
</svg>
