<svg id="e90e8115-f557-463d-a0c8-0affd66ade83" data-name="Calque 1" xmlns="http://www.w3.org/2000/svg" width="32" height="32" viewBox="0 0 32 32">
  <title>animals-41-IconeAnimalCaprin</title>
  <g>
    <path d="M13.63,28A3.5,3.5,0,0,1,12,27.63a3.84,3.84,0,0,1-.61-.3c.24,1.27,1.63,1.56,2.11,2.07,0,0,2.24-1.39,2.36-2.07a4.43,4.43,0,0,1-.62.3A3.5,3.5,0,0,1,13.63,28Z" style="fill: #b68766"/>
    <path d="M27.63,14.84c-2.45-1.44-3.42-4.45-4.86-4.82-2.47-.65-3.57-.18-3.57-.18a5.65,5.65,0,0,0-1.07-1.43,7.74,7.74,0,0,1-.5-4.07C17.83,3,18.7,2,18.39,1.72S17.34,1.32,16,3.59A17.2,17.2,0,0,0,14.22,8h-.5S12.43,5.87,11.1,3.59s-2-2.21-2.27-2,.53.95.89,2.67a6.77,6.77,0,0,1-.26,4.12S9.25,9.2,9,9.79a6.37,6.37,0,0,0-2.6,0c-1,.28-1.66,3.38-3.35,4.82a11.75,11.75,0,0,1-2.83,1.9s.72,2,2.21,2,3-4.95,3.8-4.95,1.34,2.47,1.34,2.47a8.53,8.53,0,0,0,.84,2.48,4.22,4.22,0,0,1,.09.83A23.42,23.42,0,0,0,9.5,24a11.4,11.4,0,0,0,1.84,2.77,4.17,4.17,0,0,0,1.59.34v-1s-1.59-2.3-1.24-2.49,1.73,1.5,1.73,1.5,1.46-1.7,1.79-1.54-1.27,2.5-1.27,2.5v1a6.53,6.53,0,0,0,2-.34A11.8,11.8,0,0,0,17.77,24a28.89,28.89,0,0,0,1.16-4.32A9.9,9.9,0,0,0,20,18a19.46,19.46,0,0,1,1.12-1.87v0h0s.85-1.94,2.08-1.94,3.13,4.62,5.28,4.62a3.87,3.87,0,0,0,3.19-2.05A19.19,19.19,0,0,1,27.63,14.84ZM9.22,16.3a.92.92,0,0,1-.79-1,1.21,1.21,0,0,1,.14-.55L7.63,15a2,2,0,0,1,1.59-.69.28.28,0,0,1,.16,0,1,1,0,0,1,.64,1A.92.92,0,0,1,9.22,16.3Zm10-1.54a1.16,1.16,0,0,1,.14.53.94.94,0,0,1-.84,1,.9.9,0,0,1-.84-1,.94.94,0,0,1,.63-1,.24.24,0,0,1,.16,0h.05l.09,0a2.07,2.07,0,0,1,1.45.67Z" style="fill: #b68766"/>
  </g>
</svg>
