<svg id="ada47d1b-4bf8-4392-9fc9-ce6cb507e63b" data-name="Calque 1" xmlns="http://www.w3.org/2000/svg" width="32" height="32" viewBox="0 0 32 32">
  <title>vegetal-86-2208FDF0.LargeCrops</title>
  <path d="M14.63,16.86a23.59,23.59,0,0,1-3.08-3.74,24.28,24.28,0,0,1,4,3.27,8.61,8.61,0,0,1,1.32-.51A3.93,3.93,0,0,1,16,14.77a4.25,4.25,0,0,1-.38-2.93,5.47,5.47,0,0,0-4.29-.56h0a1.13,1.13,0,0,0-1.6,1.6h0c-.71,1.85.24,4.66,2.47,6.9l0,0A5.46,5.46,0,0,1,14.63,16.86Z" style="fill: #dd932e"/>
  <path d="M14.63,16.86a7.33,7.33,0,0,1,.88-.47,24.28,24.28,0,0,0-4-3.27A23.59,23.59,0,0,0,14.63,16.86Z" style="fill: #fff"/>
  <path d="M14.63,16.86a23.59,23.59,0,0,1-3.08-3.74,24.28,24.28,0,0,1,4,3.27,8.61,8.61,0,0,1,1.32-.51A3.93,3.93,0,0,1,16,14.77a4.25,4.25,0,0,1-.38-2.93,5.47,5.47,0,0,0-4.29-.56h0a1.13,1.13,0,0,0-1.6,1.6h0c-.71,1.85.24,4.66,2.47,6.9l0,0A5.46,5.46,0,0,1,14.63,16.86Z" style="fill: #dd932e"/>
  <path d="M14.63,16.86a7.33,7.33,0,0,1,.88-.47,24.28,24.28,0,0,0-4-3.27A23.59,23.59,0,0,0,14.63,16.86Z" style="fill: #fff"/>
  <ellipse cx="23.18" cy="10.94" rx="6.88" ry="4.26" transform="translate(-2.42 12.15) rotate(-27.97)" style="fill: #dd932e"/>
  <path d="M18.08,13.68c.47.88,9.8-4.85,9.65-5.13S17.6,12.79,18.08,13.68Z" style="fill: #fff"/>
  <g>
    <path d="M14.63,16.86a23.59,23.59,0,0,1-3.08-3.74,24.28,24.28,0,0,1,4,3.27,8.61,8.61,0,0,1,1.32-.51A3.93,3.93,0,0,1,16,14.77a4.25,4.25,0,0,1-.38-2.93,5.47,5.47,0,0,0-4.29-.56h0a1.13,1.13,0,0,0-1.6,1.6h0c-.71,1.85.24,4.66,2.47,6.9l0,0A5.46,5.46,0,0,1,14.63,16.86Z" style="fill: #dd932e"/>
    <path d="M14.63,16.86a7.33,7.33,0,0,1,.88-.47,24.28,24.28,0,0,0-4-3.27A23.59,23.59,0,0,0,14.63,16.86Z" style="fill: #fff"/>
  </g>
  <g>
    <path d="M14.63,16.86a23.59,23.59,0,0,1-3.08-3.74,24.28,24.28,0,0,1,4,3.27,8.61,8.61,0,0,1,1.32-.51A3.93,3.93,0,0,1,16,14.77a4.25,4.25,0,0,1-.38-2.93,5.47,5.47,0,0,0-4.29-.56h0a1.13,1.13,0,0,0-1.6,1.6h0c-.71,1.85.24,4.66,2.47,6.9l0,0A5.46,5.46,0,0,1,14.63,16.86Z" style="fill: #dd932e"/>
    <path d="M14.63,16.86a7.33,7.33,0,0,1,.88-.47,24.28,24.28,0,0,0-4-3.27A23.59,23.59,0,0,0,14.63,16.86Z" style="fill: #fff"/>
  </g>
  <ellipse cx="23.18" cy="10.94" rx="6.88" ry="4.26" transform="translate(-2.42 12.15) rotate(-27.97)" style="fill: #dd932e"/>
  <path d="M18.08,13.68c.47.88,9.8-4.85,9.65-5.13S17.6,12.79,18.08,13.68Z" style="fill: #fff"/>
  <ellipse cx="20.18" cy="20.98" rx="6.88" ry="4.26" style="fill: #dd932e"/>
  <path d="M14.39,21c0,1,10.92.33,10.92,0S14.39,20,14.39,21Z" style="fill: #fff"/>
  <g>
    <path d="M14.63,16.86a23.59,23.59,0,0,1-3.08-3.74,24.28,24.28,0,0,1,4,3.27,8.61,8.61,0,0,1,1.32-.51A3.93,3.93,0,0,1,16,14.77a4.25,4.25,0,0,1-.38-2.93,5.47,5.47,0,0,0-4.29-.56h0a1.13,1.13,0,0,0-1.6,1.6h0c-.71,1.85.24,4.66,2.47,6.9l0,0A5.46,5.46,0,0,1,14.63,16.86Z" style="fill: #dd932e"/>
    <path d="M14.63,16.86a7.33,7.33,0,0,1,.88-.47,24.28,24.28,0,0,0-4-3.27A23.59,23.59,0,0,0,14.63,16.86Z" style="fill: #fff"/>
  </g>
  <ellipse cx="23.18" cy="10.94" rx="6.88" ry="4.26" transform="translate(-2.42 12.15) rotate(-27.97)" style="fill: #dd932e"/>
  <path d="M18.08,13.68c.47.88,9.8-4.85,9.65-5.13S17.6,12.79,18.08,13.68Z" style="fill: #fff"/>
  <path d="M14.39,21c0,1,10.92.33,10.92,0S14.39,20,14.39,21Z" style="fill: #fff"/>
  <rect x="3" y="26" width="3.91" height="2" transform="translate(9.91 54) rotate(-180)" style="fill: #8f8f8f"/>
  <rect x="3" y="6" width="3.91" height="2" transform="translate(9.91 14) rotate(-180)" style="fill: #8f8f8f"/>
  <rect x="5" y="22" width="1.91" height="2" transform="translate(11.91 46) rotate(-180)" style="fill: #8f8f8f"/>
  <rect x="5" y="18" width="1.91" height="2" transform="translate(11.91 38) rotate(-180)" style="fill: #8f8f8f"/>
  <rect x="5" y="14" width="1.91" height="2" transform="translate(11.91 30) rotate(-180)" style="fill: #8f8f8f"/>
  <rect x="5" y="10" width="1.91" height="2" transform="translate(11.91 22) rotate(-180)" style="fill: #8f8f8f"/>
</svg>
