<svg id="a28feadd-1ff2-4790-9fc7-c1956df87170" data-name="Calque 1" xmlns="http://www.w3.org/2000/svg" width="32" height="32" viewBox="0 0 32 32">
  <title>meteo-66-IconeMeteusClair</title>
  <path d="M16,7.68a9.37,9.37,0,0,1,9.14,9.59A9.37,9.37,0,0,1,16,26.85a9.37,9.37,0,0,1-9.14-9.58A9.37,9.37,0,0,1,16,7.68" style="fill: #ffcc1b"/>
  <path d="M26.07,19.12a7.18,7.18,0,0,1-.39,1.6,13.59,13.59,0,0,1-.63,1.66L29,22l-2.94-2.88" style="fill: #ffcc1b"/>
  <path d="M13.86,27.88,15.52,32l1.73-4a10.51,10.51,0,0,1-3.39-.13" style="fill: #ffcc1b"/>
  <path d="M23.13,9.72l1-4.28L20.32,7.68a11.32,11.32,0,0,1,2.81,2" style="fill: #ffcc1b"/>
  <path d="M5.74,18.48l-3.45,3.2,4.47.51a10.84,10.84,0,0,1-1-3.71" style="fill: #ffcc1b"/>
  <path d="M11.43,7.74,7.53,5.31l1,4.73a9.12,9.12,0,0,1,2.94-2.3" style="fill: #ffcc1b"/>
  <path d="M19.1,7.23c.06,0,.13.06.19.06L16,.07,12.58,7.23a9.54,9.54,0,0,1,6.52,0" style="fill: #ffcc1b"/>
  <path d="M6.12,14.07a12.61,12.61,0,0,1,1.6-3.2L.18,12l5.5,5.63a13.36,13.36,0,0,1,.44-3.58" style="fill: #ffcc1b"/>
  <path d="M31.69,12l-7.6-1.15a11,11,0,0,1,2.11,6.72L31.69,12" style="fill: #ffcc1b"/>
  <path d="M12.71,27.62a9.85,9.85,0,0,1-5.24-4.09L6.12,31.39l6.78-3.7a.22.22,0,0,0-.19-.07" style="fill: #ffcc1b"/>
  <path d="M18.84,27.69l6.78,3.77-1.28-7.87a11,11,0,0,1-5.5,4.1" style="fill: #ffcc1b"/>
  <path d="M21.66,10.62a9.07,9.07,0,0,1,1.92,5.62,8.72,8.72,0,0,1-8.51,8.89,8.07,8.07,0,0,1-5.37-2,8.46,8.46,0,0,0,6.59,3.32,8.71,8.71,0,0,0,8.5-8.88,9.06,9.06,0,0,0-3.13-7" style="fill: #cba014"/>
  <path d="M5.61,17.27c0-.45.07-.9.07-1.41l-5.5-4,5.43,5.56v-.19" style="fill: #cba014"/>
  <path d="M24,10.94a6.49,6.49,0,0,1,.83,1.34l6.84-.19L24,10.94" style="fill: #cba014"/>
  <path d="M19.29,7.29,16,.07,17.5,6.72c.58.19,1.22.32,1.79.57" style="fill: #cba014"/>
  <path d="M11.43,27,6.19,31.33,13,27.62A5.26,5.26,0,0,1,11.43,27" style="fill: #cba014"/>
  <path d="M18.91,27.69l6.84,3.77-5.24-4.35c-.51.19-1.09.38-1.6.58" style="fill: #cba014"/>
  <path d="M4.46,15.35A1.47,1.47,0,1,1,3,16.82a1.47,1.47,0,0,1,1.47-1.47" style="fill: #d3d2d2"/>
  <path d="M10.21,15.35a1.47,1.47,0,1,1-1.47,1.47,1.47,1.47,0,0,1,1.47-1.47" style="fill: #d3d2d2"/>
  <path d="M27.6,15.35a1.47,1.47,0,1,1-1.47,1.47,1.47,1.47,0,0,1,1.47-1.47" style="fill: #d3d2d2"/>
  <path d="M21.79,15.35H16a1.47,1.47,0,0,0,0,2.94h5.76a1.47,1.47,0,1,0,0-2.94" style="fill: #d3d2d2"/>
  <path d="M27.6,27a1.47,1.47,0,1,1-1.47,1.47A1.47,1.47,0,0,1,27.6,27" style="fill: #d3d2d2"/>
  <path d="M21.79,27H16a1.47,1.47,0,1,0,0,2.94h5.76a1.47,1.47,0,1,0,0-2.94" style="fill: #d3d2d2"/>
  <path d="M10.21,27H4.46a1.47,1.47,0,1,0,0,2.94h5.82a1.45,1.45,0,0,0,1.47-1.47A1.55,1.55,0,0,0,10.21,27" style="fill: #d3d2d2"/>
  <path d="M7.34,21.1H1.52a1.47,1.47,0,0,0,0,2.94H7.34a1.45,1.45,0,0,0,1.47-1.47A1.49,1.49,0,0,0,7.34,21.1" style="fill: #d3d2d2"/>
  <path d="M18.91,21.1H13.09a1.47,1.47,0,0,0,0,2.94h5.82a1.47,1.47,0,1,0,0-2.94" style="fill: #d3d2d2"/>
  <path d="M30.48,21.1H24.66a1.47,1.47,0,0,0,0,2.94h5.82a1.47,1.47,0,0,0,0-2.94" style="fill: #d3d2d2"/>
</svg>
