<svg id="ba3c2951-8a81-43db-93b8-18e5ae233351" data-name="Calque 1" xmlns="http://www.w3.org/2000/svg" width="32" height="32" viewBox="0 0 32 32">
  <title>building-52-IconeMaisonRougeBrique</title>
  <g>
    <g>
      <path d="M27.15,19.51,26.63,19,23.4,15.79l-1-1-3.6-3.58-1-1L16.72,9.16a.93.93,0,0,0-.75-.3,1,1,0,0,0-.74.32l-1,1.05-1,1L9.6,14.9l-1,1L5.57,19l-.42.42a3.4,3.4,0,0,1-1.07.75l-.08,0V29H14.2V22h3.6v7H28V20.11a3.36,3.36,0,0,1-.83-.58Z" style="fill: #b78368"/>
      <polygon points="25.18 9.12 25.05 9.12 25.22 9.28 25.18 9.12" style="fill: #ab4d2b"/>
    </g>
    <path d="M32,16.43,29.6,6.06a2.47,2.47,0,0,0-2.18-1.94L5,4.08H4.75a2.5,2.5,0,0,0-2.45,2L.18,16.5a2.48,2.48,0,0,0,1.29,2.71,2.38,2.38,0,0,0,1.16.29A2.51,2.51,0,0,0,4,19.08L4.08,19a1.93,1.93,0,0,0,.35-.29L5,18.15l3.6-3.66,1-1,3.6-3.66,1-1,.12-.12A2.33,2.33,0,0,1,16,8a2.36,2.36,0,0,1,1.66.65l.19.2,1,1,3.6,3.58,1,1L27,18l.13.12.67.67.16.13a2.49,2.49,0,0,0,4-2.49Z" style="fill: #945b3f"/>
  </g>
</svg>
