<svg id="e302d5c5-6766-4416-bce6-89fef54cd398" data-name="Calque 1" xmlns="http://www.w3.org/2000/svg" width="32" height="32" viewBox="0 0 32 32">
  <title>field-71-IconeModifierParcelle</title>
  <polyline points="30.19 8.21 12.89 1.38 1.42 18.17" style="fill: #fff;stroke: #77787a;stroke-miterlimit: 10"/>
  <rect x="11" width="4" height="4" style="fill: #77787a"/>
  <rect x="28" y="7" width="4" height="4" style="fill: #77787a"/>
  <rect y="17" width="4" height="4" style="fill: #77787a"/>
  <g>
    <rect x="1.29" y="18" width="1" height="1" transform="translate(-13.14 7.43) rotate(-47.93)" style="fill: #77787a"/>
    <rect x="10.1" y="25.41" width="1" height="2.07" transform="translate(-16.14 16.6) rotate(-47.94)" style="fill: #77787a"/>
    <rect x="7.8" y="23.34" width="1" height="2.06" transform="translate(-15.36 14.21) rotate(-47.95)" style="fill: #77787a"/>
    <rect x="5.49" y="21.26" width="1" height="2.07" transform="translate(-14.57 11.81) rotate(-47.94)" style="fill: #77787a"/>
    <rect x="3.19" y="19.19" width="1" height="2.07" transform="translate(-13.8 9.42) rotate(-47.96)" style="fill: #77787a"/>
    <rect x="12.4" y="27.49" width="1" height="2.07" transform="translate(-16.92 19) rotate(-47.96)" style="fill: #77787a"/>
    <polygon points="15.08 29.81 14.77 29.53 14.1 30.27 15.27 31.33 16.14 30.02 15.31 29.46 15.08 29.81" style="fill: #77787a"/>
    <path d="M27,12.08l-.42.62a3.77,3.77,0,0,1,1-.24Z" style="fill: #77787a"/>
    <rect x="27.52" y="10.2" width="2" height="1" transform="translate(3.75 28.43) rotate(-56.15)" style="fill: #77787a"/>
    <rect x="29.41" y="8.13" width="1" height="1" transform="translate(6.06 28.63) rotate(-56.06)" style="fill: #77787a"/>
  </g>
  <g>
    <path d="M18.19,28.75a.5.5,0,0,1-.35-.14.49.49,0,0,1-.14-.47l1-4.35A4.39,4.39,0,0,1,20,21.7L26.67,15a1.88,1.88,0,0,1,2.65,0l2.15,2.15A1.84,1.84,0,0,1,32,18.45a1.82,1.82,0,0,1-.55,1.32L24.75,26.5a3.84,3.84,0,0,1-2.11,1.25l-4.34,1ZM28,15.42a.84.84,0,0,0-.62.26L20.65,22.4a3.28,3.28,0,0,0-1,1.62l-.82,3.57,3.58-.82h0a2.87,2.87,0,0,0,1.58-1l6.73-6.73a.88.88,0,0,0,0-1.23l-2.16-2.15A.83.83,0,0,0,28,15.42Z" style="fill: #0499d1"/>
    <path d="M18.84,25.54l2.09,2.08a22.17,22.17,0,0,1-2.42.31A21.52,21.52,0,0,1,18.84,25.54Z" style="fill: #0499d1"/>
    <path d="M26.13,16.22,19.55,22.8l4.05,4.06,6.59-6.59ZM23.77,25.3,23,24.48l5-5,.81.81Z" style="fill: #0499d1"/>
  </g>
</svg>
