<svg id="a7bbec53-0cc6-4d40-9360-75d468b3e62b" data-name="Calque 1" xmlns="http://www.w3.org/2000/svg" width="32" height="32" viewBox="0 0 32 32">
  <title>alerts-82-IconeConfirmationInformation</title>
  <g>
    <path d="M12.51,23.51H4.18A3.68,3.68,0,0,1,.51,19.84V6.17A3.67,3.67,0,0,1,4.18,2.5H27.85a3.67,3.67,0,0,1,3.67,3.67V19.84a3.67,3.67,0,0,1-3.67,3.67h-9l-6.3,6.3Z" style="fill: #fff"/>
    <path d="M27.85,3A3.18,3.18,0,0,1,31,6.17V19.84A3.18,3.18,0,0,1,27.85,23H18.61l-.29.28L13,28.62V23H4.18A3.19,3.19,0,0,1,1,19.84V6.17A3.19,3.19,0,0,1,4.18,3H27.85m0-1H4.18A4.18,4.18,0,0,0,0,6.17V19.84A4.17,4.17,0,0,0,4.18,24H12v7l7-7h8.83A4.18,4.18,0,0,0,32,19.84V6.17A4.19,4.19,0,0,0,27.85,2Z" style="fill: #5b83b6"/>
  </g>
  <path d="M11.11,9.56a3.49,3.49,0,0,1,.61-1.9,4.57,4.57,0,0,1,1.76-1.6,5.55,5.55,0,0,1,2.7-.64A5.78,5.78,0,0,1,18.71,6a4.24,4.24,0,0,1,1.7,1.44,3.54,3.54,0,0,1,.6,2,3.17,3.17,0,0,1-.34,1.48,4.52,4.52,0,0,1-.82,1.09c-.31.31-.87.82-1.68,1.55a4.55,4.55,0,0,0-.54.54,1.85,1.85,0,0,0-.3.42,2.14,2.14,0,0,0-.16.39c0,.13-.09.35-.16.68a1.11,1.11,0,0,1-1.18,1,1.21,1.21,0,0,1-.86-.34,1.3,1.3,0,0,1-.35-1,3.74,3.74,0,0,1,.25-1.44,3.64,3.64,0,0,1,.69-1.07c.28-.3.66-.67,1.14-1.09s.73-.65.92-.84a2.66,2.66,0,0,0,.47-.63,1.5,1.5,0,0,0,.2-.75,1.74,1.74,0,0,0-.59-1.33,2.14,2.14,0,0,0-1.52-.55,2.11,2.11,0,0,0-1.6.55,4.24,4.24,0,0,0-.87,1.62c-.23.75-.65,1.12-1.28,1.12a1.28,1.28,0,0,1-.94-.39A1.22,1.22,0,0,1,11.11,9.56Zm4.83,10.85a1.52,1.52,0,0,1-1-.4,1.36,1.36,0,0,1-.45-1.09,1.43,1.43,0,0,1,.43-1.05,1.49,1.49,0,0,1,1.07-.42,1.42,1.42,0,0,1,1,.42,1.47,1.47,0,0,1,.43,1.05A1.37,1.37,0,0,1,17,20,1.53,1.53,0,0,1,15.94,20.41Z" style="fill: #5b83b6"/>
</svg>
