<svg id="a4c22fba-4fdb-4acc-a1fa-d05a881b2468" data-name="Calque 1" xmlns="http://www.w3.org/2000/svg" width="32" height="32" viewBox="0 0 32 32">
  <title>field-73-IconeGestionTrace</title>
  <polyline points="27.36 13.91 31.19 8.21 13.89 1.38 2.42 18.17 16.17 30.57 17.79 28.16 18.9 26.34" style="fill: none;stroke: #77787a;stroke-miterlimit: 10;stroke-dasharray: 2,1"/>
  <g>
    <line x1="13" y1="5" x2="18.81" y2="5" style="fill: none;stroke: #77787a;stroke-miterlimit: 10"/>
    <line x1="28.53" y1="9.2" x2="10.55" y2="9.2" style="fill: none;stroke: #77787a;stroke-miterlimit: 10"/>
    <line x1="22.5" y1="13.4" x2="7.67" y2="13.4" style="fill: none;stroke: #77787a;stroke-miterlimit: 10"/>
    <line x1="17.39" y1="17.6" x2="4.8" y2="17.6" style="fill: none;stroke: #77787a;stroke-miterlimit: 10"/>
    <line x1="16.6" y1="21.8" x2="8.44" y2="21.8" style="fill: none;stroke: #77787a;stroke-miterlimit: 10"/>
    <line x1="16.8" y1="26" x2="13.1" y2="26" style="fill: none;stroke: #77787a;stroke-miterlimit: 10"/>
  </g>
  <path d="M32,22.47h0l-.15,0L31,22.11l-.06,0h0a1,1,0,0,1-.71-1,1,1,0,0,1,.66-1l.39-.19.63-.3h0l-.44-.92-.64-1.33h0l-.21.1-.78.37,0,0-.07,0a1,1,0,0,1-1.2-.22,1,1,0,0,1-.24-1.15l.33-1,.05-.13h0L27.56,15l-1.3-.47h0l-.08.24-.32.91a1,1,0,0,1-1,.67,1,1,0,0,1-1-.64l-.46-.95,0-.09h0l-.95.46-1.3.62h0l.54,1.13a1.08,1.08,0,0,1-1.39,1.4l-1.1-.38-.32.94-.08.24-.42,1.17h0l.24.08.79.28h0l.1,0a1,1,0,0,1,.67,1,1,1,0,0,1-.64,1l-.62.29-.42.21h0l.4.82.69,1.43h0l1-.47,0,0,.08,0A1.07,1.07,0,0,1,22.1,26.3c0,.1-.07.2-.1.3l-.28.78h0l1,.34,1.37.48h0v0h0l0-.07.34-.95a.14.14,0,0,1,0-.07v0a1,1,0,0,1,1-.71,1,1,0,0,1,1,.64l.5,1h0l.95-.46,1.3-.62v0h0l0-.09L28.75,26a.16.16,0,0,0,0-.07,1,1,0,0,1,.21-1.23,1,1,0,0,1,1.16-.24l.41.15.67.23h0l.36-1.07L32,22.48Zm-5.35,2a3.39,3.39,0,1,1,1.6-4.52A3.4,3.4,0,0,1,26.63,24.44Z" style="fill: #77787a"/>
</svg>
