<svg id="e296f179-0868-4202-a046-e09ecaa27888" data-name="Calque 1" xmlns="http://www.w3.org/2000/svg" width="32" height="32" viewBox="0 0 32 32">
  <title>parameter-64-IconeParametrageEtats</title>
  <path d="M30,9.14l1.58-.51-.4-1.22h0l-.39-1.22-1.22.4h0l-.35.12a1.3,1.3,0,0,1-.78,0h0a1.82,1.82,0,0,1-.31-.16l0,0a1.44,1.44,0,0,1-.27-.28.86.86,0,0,0-.07-.1L27.62,6a.61.61,0,0,0-.07-.1.61.61,0,0,1-.07-.14,2.25,2.25,0,0,1-.12-.21,1.11,1.11,0,0,1,0-.19.71.71,0,0,1,0-.2.8.8,0,0,1,0-.15,2.13,2.13,0,0,1,0-.25,1.78,1.78,0,0,1,.19-.36l1-1.34-1-.75h0l-1-.75-.75,1h0l-.23.31A1.27,1.27,0,0,1,24,3.35a1.21,1.21,0,0,0-.2-.09l-.08,0-.14,0A1.27,1.27,0,0,1,22.75,2V.34H20.19V1.62h0V2A1.27,1.27,0,0,1,19.3,3.2l-.42.14a1.25,1.25,0,0,1-1.42-.46l-.11-.14-.11-.16h0l-.76-1-1,.75h0l-1,.75,1,1.35a1.26,1.26,0,0,1,0,1.5c-.09.11-.18.23-.26.35a1.25,1.25,0,0,1-1.42.47l-1.59-.52-.79,2.44,1.22.4h0l.37.12a1.25,1.25,0,0,1,.88,1.21v.43A1.25,1.25,0,0,1,12.92,12l-.37.12h0l-1.22.39.4,1.22h0L12.12,15l1.39-.45.21-.07a1,1,0,0,1,.34,0h.06a1.23,1.23,0,0,1,1,.52,1.47,1.47,0,0,1,.1.13l0,0,.13.18a1.23,1.23,0,0,1,.25.75.86.86,0,0,1,0,.17,1.46,1.46,0,0,1,0,.22,1.22,1.22,0,0,1-.18.36l-.24.32h0l-.75,1,1,.75h0l1,.75,1-1.35a1.26,1.26,0,0,1,1.43-.46h0l.41.13a1.27,1.27,0,0,1,.87,1.21v.39h0v1.28h2.56V19.15a1.25,1.25,0,0,1,.87-1.2l.42-.14h0a1.24,1.24,0,0,1,1.43.46l.23.31h0l.75,1,1-.75h0l1-.75-.75-1h0l-.12-.16-.1-.14a1.26,1.26,0,0,1,0-1.5l.19-.26.08-.1a1.25,1.25,0,0,1,1.42-.46l.35.11h0l1.22.4.79-2.44-1.22-.39-.23-.08L30,12a1.24,1.24,0,0,1-.87-1.18c0-.08,0-.17,0-.25s0-.17,0-.26A1.25,1.25,0,0,1,30,9.14ZM21.48,15.7a5.12,5.12,0,1,1,5.12-5.12A5.12,5.12,0,0,1,21.48,15.7Z" style="fill: #fac262"/>
  <path d="M15.31,22.43,16.57,22l-.31-1h0l-.32-1-1,.32h0l-.29.09a.94.94,0,0,1-.62,0h0a.85.85,0,0,1-.25-.13h0a.8.8,0,0,1-.22-.23L13.49,20l-.1-.13a.35.35,0,0,1-.05-.08,1.05,1.05,0,0,1-.07-.11,1.4,1.4,0,0,1-.09-.17c0-.05,0-.1,0-.15a.9.9,0,0,1,0-.16c0-.05,0-.08,0-.12a1.2,1.2,0,0,1,0-.2,1.59,1.59,0,0,1,.15-.29l.78-1.07-.83-.6h0l-.83-.6-.6.83h0l-.18.24a1,1,0,0,1-1.14.37l-.16-.06-.07,0-.11,0a1,1,0,0,1-.7-1V15.39h-2v1h0v.3a1,1,0,0,1-.71,1l-.33.11a1,1,0,0,1-1.14-.37l-.09-.11-.09-.13h0l-.6-.83-.83.6h0l-.83.6.78,1.08a1,1,0,0,1,0,1.2,2.83,2.83,0,0,0-.2.28,1,1,0,0,1-1.14.37L1,20.07.36,22l1,.32h0l.3.09a1,1,0,0,1,.7,1v.34a1,1,0,0,1-.7,1l-.3.1h0l-1,.32.31,1h0l.32,1,1.11-.36.16,0a1.51,1.51,0,0,1,.28-.05h0A1,1,0,0,1,3.4,27l.07.11,0,0,.11.15a1,1,0,0,1,.2.6.89.89,0,0,1,0,.14,1.11,1.11,0,0,1,0,.17,1.59,1.59,0,0,1-.15.29l-.19.25h0l-.6.83.83.6h0l.83.61.78-1.09a1,1,0,0,1,1.15-.36h0l.33.11a1,1,0,0,1,.69,1v.32h0v1H9.49V30.44a1,1,0,0,1,.7-1l.33-.11h0a1,1,0,0,1,1.14.37l.18.25h0l.6.83.83-.61h0l.83-.6-.6-.83h0l-.1-.12-.08-.12a1,1,0,0,1,0-1.2l.15-.2.06-.09a1,1,0,0,1,1.13-.37l.29.1h0l1,.31.63-1.94-1-.32-.19-.06-.1,0a1,1,0,0,1-.7-.94c0-.07,0-.13,0-.2s0-.14,0-.2A1,1,0,0,1,15.31,22.43ZM8.48,27.26a3.69,3.69,0,1,1,3.68-3.68A3.69,3.69,0,0,1,8.48,27.26Z" style="fill: #fac262"/>
</svg>
