<svg id="a0e2a279-3acf-4b04-8ff8-4a9b81edb4b8" data-name="Calque 1" xmlns="http://www.w3.org/2000/svg" width="32" height="32" viewBox="0 0 32 32">
  <title>screen-32-IconeExport</title>
  <path d="M23,10.65V5.12H0v14H16.55A8.29,8.29,0,0,1,23,10.65Z" style="fill: #6f7095"/>
  <g>
    <path d="M25.28,25.84A6.72,6.72,0,1,1,32,19.12,6.73,6.73,0,0,1,25.28,25.84Z" style="fill: #00608c"/>
    <polygon points="21.75 18.04 21.75 19.64 26.16 19.64 26.16 22.85 30.17 18.84 26.16 14.83 26.16 18.04 21.75 18.04" style="fill: #fff"/>
  </g>
  <polygon points="20.1 27.63 19.36 27.36 12.96 25.38 12.96 20.13 9.25 20.13 9.25 25.35 3.03 27.43 2.38 27.63 5 28.5 11.07 26.58 17.48 28.5 20.1 27.63" style="fill: #6f7072"/>
</svg>
