<svg id="feb0342f-b3e9-4108-9ed1-05db18004b62" data-name="Calque 1" xmlns="http://www.w3.org/2000/svg" width="32" height="32" viewBox="0 0 32 32">
  <title>map-42-IconeDisplayActiveSheet</title>
  <path d="M15.93,27.37a1.9,1.9,0,0,1-.9-.22L4.91,22.09,1.14,24l14.79,7.4L30.71,24l-3.77-1.88L16.82,27.15A1.89,1.89,0,0,1,15.93,27.37Z" style="fill: #999"/>
  <polygon points="30.71 7.89 15.93 15.28 1.14 7.89 15.93 0.5 30.71 7.89" style="fill: #4d4d4d"/>
  <path d="M15.93,17.28a2,2,0,0,1-.9-.21L8.91,14,1.14,17.89l14.79,7.39,14.78-7.39L22.94,14l-6.12,3.06A2,2,0,0,1,15.93,17.28Z" style="fill: #999"/>
</svg>
