<svg id="edbb1a38-8408-4765-a17f-94ef963dcb5e" data-name="Calque 1" xmlns="http://www.w3.org/2000/svg" width="32" height="32" viewBox="0 0 32 32">
  <title>vegetal-71-20A8EC4E</title>
  <g>
    <path d="M8.83,17.5a.66.66,0,0,0-.21,0,19.34,19.34,0,0,1-.4,5.64c.18-.49.39-1.09.62-1.85a8.89,8.89,0,0,0,.1-3.81Z" style="fill: none"/>
    <path d="M7,21.51l.23.88c.13-.54.28-1.19.45-1.94a.25.25,0,0,0,0-.08,6.5,6.5,0,0,1-.5-.77C7.17,20.26,7.11,20.9,7,21.51Z" style="fill: none"/>
    <path d="M7.88,18.83a.68.68,0,0,0,0,.14c0,.05,0,.09,0,.14a.76.76,0,0,1,0,.15v.4h0a7.74,7.74,0,0,0,0-1h0S7.88,18.78,7.88,18.83Z" style="fill: none"/>
    <path d="M9.12,23.75v-.06l0,.06Z" style="fill: none"/>
    <path d="M9.84,19.67c.05-.31.09-.63.14-1a6.46,6.46,0,0,0,.07-.78,1.36,1.36,0,0,0-.34-.21A12,12,0,0,1,9.84,19.67Z" style="fill: none"/>
    <path d="M19.41,12.32,17.7,14.6c0,1.17,0,2.32,0,3.42a8.34,8.34,0,0,1,1.1-1.81c.27-.66.53-1.33.79-2C19.49,13.48,19.44,12.82,19.41,12.32Z" style="fill: none"/>
    <path d="M8.76,17a.27.27,0,0,1,.09,0,29.9,29.9,0,0,0-1.06-4.14c0,.09,0,.19,0,.29A19.07,19.07,0,0,1,8.57,17Z" style="fill: none"/>
    <polygon points="10.71 22.27 10.71 22.27 10.71 22.26 10.71 22.27" style="fill: none"/>
    <path d="M20.72,11c.1-.28.19-.57.29-.85-.43.59-.9,1.22-1.4,1.88.07.37.15.83.24,1.37Q20.31,12.19,20.72,11Z" style="fill: none"/>
    <path d="M7.43,17.34a2.4,2.4,0,0,1,.39-.17c-.05-.57-.13-1.15-.23-1.73C7.55,16.05,7.49,16.69,7.43,17.34Z" style="fill: none"/>
    <path d="M16.25,21.41c-.07-.29-.15-.62-.24-1l0-.18-.11-.42,0-.21c-.13-.54-.27-1.11-.42-1.7l0-.16v-.06l-.09.12c.24,1.64.51,3.18.75,4.38.1-.19.21-.38.31-.58v0Z" style="fill: none"/>
    <path d="M16,16.86l.77,2.92c0-.22,0-.44,0-.67v-.17c0-.21,0-.43,0-.64v-.22c0-.19,0-.38,0-.57l0-.38c0-.14,0-.28,0-.42s0-.27,0-.41,0-.33,0-.49v-.17C16.61,16.05,16.3,16.46,16,16.86Z" style="fill: none"/>
    <path d="M16.58,23l.07,0h0l0-.09Z" style="fill: none"/>
    <path d="M12.42,21.55c.07.35.11.68.15,1l.46,0c-.1-.39-.21-.83-.31-1.32Z" style="fill: none"/>
    <path d="M13.55,13.19q-.13.75-.24,1.5c.1.38.19.75.28,1.12C13.56,15,13.54,14.07,13.55,13.19Z" style="fill: none"/>
    <path d="M12.58,14.44l0-.09a18,18,0,0,0-1.05,4.43,8.53,8.53,0,0,1,.65,1.63l.37-.47A20.35,20.35,0,0,1,12.58,14.44Z" style="fill: none"/>
    <path d="M13.84,19.7c-.1.13-.2.25-.29.38.23,1,.44,1.79.62,2.39l.15,0c-.16-.71-.3-1.52-.41-2.41C13.89,20,13.86,19.83,13.84,19.7Z" style="fill: none"/>
    <path d="M13.53,18.22c-.12-.55-.25-1.11-.39-1.66A10.15,10.15,0,0,0,13.3,19l.3-.38C13.58,18.46,13.56,18.35,13.53,18.22Z" style="fill: none"/>
    <path d="M17.66,18c0-1.1,0-2.25,0-3.42l1.71-2.28c0,.5.08,1.16.14,1.9-.26.66-.52,1.33-.79,2a8.47,8.47,0,0,1,2-1.84A45.65,45.65,0,0,0,22.93,7.5a7.41,7.41,0,0,0,.61-1l-.53.6c.06-.32.11-.62.15-.92.31-.8.51-1.28.51-1.28l-.12.13h0l-.3.38a5.33,5.33,0,0,0-.08-1.75h0s0,0,0-.06-.67,2.23-1.71,5.3c-.64.76-1.32,1.56-2,2.4,0-.07,0-.13-.06-.14a1.1,1.1,0,0,0,0,.22c-.55.67-1.11,1.35-1.66,2,0-3.14,0-6.28-.14-8.55A15.24,15.24,0,0,0,17.34,7v.11l0,.37c0,.07,0,.14,0,.22s0,.25,0,.39,0,.16,0,.24,0,.27,0,.42l0,.25c0,.14,0,.29,0,.44s0,.2,0,.3,0,.28,0,.42,0,.19,0,.29c0,.31,0,.63-.05,1v.24c0,.16,0,.31,0,.47s0,.25,0,.38,0,.28,0,.42,0,.31,0,.47v.36c0,.18,0,.36,0,.55v0L15.74,15.9c-.27-1-.56-2.07-.85-3.13.41-5,3.63-12.1,3.63-12.1A24.81,24.81,0,0,0,14.87,10c0-.85.07-1.66.11-2.42l.31-.93c-.11.19-.19.37-.29.56.16-2.92.35-5,.35-5l0,.06h0c-.79,1.11-1.3,3.53-1.56,6.41-.55-1.89-1.08-3.65-1.56-5a18.1,18.1,0,0,0,.46,2.64l0,.14.09.42,0,.2c0,.15.07.3.1.46l0,.16.12.53v0c.14.63.3,1.3.46,2l0,.07v.05c-.17.48-.33,1-.46,1.43-.15.21-.29.42-.42.62-.88-3-1.95-5.69-3.2-7.16h0l-.11-.14s1.52,3.69,2.85,8.09A14.57,14.57,0,0,0,11,16.13a30.89,30.89,0,0,0-4-13.26s3.22,8.72,3.16,14.39a2,2,0,0,0-.47-.17,14.93,14.93,0,0,0-1.79-4.65,10.27,10.27,0,0,0,0-1.2s-.08.17-.13.4c0-.49,0-.81,0-.89a.47.47,0,0,0-.09.23c0,.24-.07.59-.11,1l-.17-.29.15.42,0,.23A22.32,22.32,0,0,0,5.85,8.75,45.09,45.09,0,0,1,7.32,14v.09c-.23,1.58-.49,3.6-.74,5.56C5.5,15.43,4.16,10.12,3.81,8.78c-.5-1.91-1-.06-1.19.62.11-.3.37-.76.5-.58A88.39,88.39,0,0,1,5.93,19.88,17,17,0,0,0,.41,14.1s5.2,5,5.73,8.38c0,.1,0,.19.05.28-.26,2.15-.44,3.73-.44,3.73h0c-.06.7,3,.51,8.21.51,2,0,3.74.06,5,.06a8.44,8.44,0,0,1-1.34-9ZM21,10.17c-.1.28-.19.57-.29.85q-.41,1.17-.87,2.4c-.09-.54-.17-1-.24-1.37C20.11,11.39,20.58,10.76,21,10.17ZM7.79,12.86A29.9,29.9,0,0,1,8.85,17a.27.27,0,0,0-.09,0l-.19,0a19.07,19.07,0,0,0-.8-3.87C7.78,13.05,7.78,13,7.79,12.86Zm-.07,7.59c-.17.75-.32,1.4-.45,1.94L7,21.51c.07-.61.13-1.25.19-1.91a6.5,6.5,0,0,0,.5.77A.25.25,0,0,1,7.72,20.45Zm-.29-3.11c.06-.65.12-1.29.16-1.9.1.58.18,1.16.23,1.73A2.4,2.4,0,0,0,7.43,17.34Zm.41,2.33h0v-.4a.76.76,0,0,0,0-.15c0-.05,0-.09,0-.14a.68.68,0,0,1,0-.14s0-.09,0-.14h0A7.74,7.74,0,0,1,7.84,19.67Zm1,1.65c-.23.76-.44,1.36-.62,1.85a19.34,19.34,0,0,0,.4-5.64.66.66,0,0,1,.21,0h.11A8.89,8.89,0,0,1,8.84,21.32Zm.28,2.43h0l0-.06Zm.86-5c-.05.33-.09.65-.14,1a12,12,0,0,0-.13-2,1.36,1.36,0,0,1,.34.21A6.46,6.46,0,0,1,10,18.71Zm.73,3.56h0Zm.8-3.49a18,18,0,0,1,1.05-4.43l0,.09a20.35,20.35,0,0,0-.05,5.5l-.37.47A8.53,8.53,0,0,0,11.51,18.78Zm1.06,3.74c0-.29-.08-.62-.15-1l.3-.39c.1.49.21.93.31,1.32Zm1-9.33c0,.88,0,1.76,0,2.62-.09-.37-.18-.74-.28-1.12Q13.42,13.94,13.55,13.19Zm-.41,3.37c.14.55.27,1.11.39,1.66,0,.13.05.24.07.36l-.3.38A10.15,10.15,0,0,1,13.14,16.56Zm1,5.91c-.18-.6-.39-1.39-.62-2.39.09-.13.19-.25.29-.38,0,.13.05.25.07.38.11.89.25,1.7.41,2.41ZM16,22.22c-.24-1.2-.51-2.74-.75-4.38l.09-.12v.06l0,.16c.15.59.29,1.16.42,1.7l0,.21.11.42,0,.18c.09.34.17.67.24,1l.05.2v0C16.21,21.84,16.1,22,16,22.22Zm.65.8-.07,0,.05-.07,0,.09Zm.24-6.72c0,.14,0,.28,0,.41s0,.28,0,.42l0,.38c0,.19,0,.38,0,.57v.22c0,.21,0,.43,0,.64v.17c0,.23,0,.45,0,.67L16,16.86c.31-.4.62-.81.92-1.22v.17C16.9,16,16.89,16.14,16.89,16.3Z" style="fill: #6da200"/>
    <path d="M2.62,9.4a.48.48,0,0,0-.05.22Z" style="fill: #6d953f"/>
  </g>
  <g>
    <path d="M25.28,28A6.72,6.72,0,1,1,32,21.31,6.73,6.73,0,0,1,25.28,28Z" style="fill: #808183"/>
    <rect x="21.69" y="17.47" width="7.45" height="1.81" rx="0.91" style="fill: #fff"/>
    <circle cx="22.48" cy="21.46" r="0.87" style="fill: #fff"/>
    <circle cx="25.42" cy="21.46" r="0.87" style="fill: #fff"/>
    <circle cx="28.36" cy="21.46" r="0.87" style="fill: #fff"/>
    <circle cx="22.48" cy="24.28" r="0.87" style="fill: #fff"/>
    <circle cx="25.42" cy="24.28" r="0.87" style="fill: #fff"/>
    <circle cx="28.36" cy="24.28" r="0.87" style="fill: #fff"/>
  </g>
</svg>
