<svg id="a7a2edf4-df65-4723-b4db-384feb6b0715" data-name="Calque 1" xmlns="http://www.w3.org/2000/svg" width="32" height="32" viewBox="0 0 32 32">
  <title>vegetal-63-IconeRangVerger</title>
  <g>
    <path d="M4,26.15s.64,0,1.38-2.22.55-6.36.55-6.36H9.43a42.46,42.46,0,0,0,.64,6.31,7.58,7.58,0,0,0,2.32,2.63A3.5,3.5,0,0,1,9.94,26a8.58,8.58,0,0,1-1.52-1l.77,1.55L7,25.31S6.33,26,4,26.15Z" style="fill: #9e6812"/>
    <path d="M12.88,11.42a3.19,3.19,0,0,0,.2-1.14,3.41,3.41,0,0,0-3.81-3.4,3.28,3.28,0,0,0-5.8,1.86,3.27,3.27,0,0,0-1.81,6.11,3.19,3.19,0,0,0-.32,1.4A3.28,3.28,0,0,0,6.6,18.86a3.26,3.26,0,0,0,5-1.24,3.29,3.29,0,0,0,3.15-3.28A3.23,3.23,0,0,0,12.88,11.42Z" style="fill: #7fa349"/>
  </g>
  <path d="M12.6,24.14s.51,0,1.1-1.77a18.6,18.6,0,0,0,.44-5.09H17a34.28,34.28,0,0,0,.51,5,6.14,6.14,0,0,0,1.86,2.11,2.86,2.86,0,0,1-2-.42,6.45,6.45,0,0,1-1.21-.79l.61,1.24-1.74-1A4,4,0,0,1,12.6,24.14Z" style="fill: #9e6812"/>
  <path d="M20.1,22.54s.41,0,.88-1.42a14.65,14.65,0,0,0,.36-4.07H23.6a27.43,27.43,0,0,0,.41,4,4.84,4.84,0,0,0,1.49,1.68,2.23,2.23,0,0,1-1.57-.33,5.33,5.33,0,0,1-1-.63l.49,1L22.06,22A3.23,3.23,0,0,1,20.1,22.54Z" style="fill: #9e6812"/>
  <path d="M26.5,21.25s.33,0,.71-1.13a11.79,11.79,0,0,0,.28-3.26H29.3a21.11,21.11,0,0,0,.33,3.23,3.85,3.85,0,0,0,1.19,1.35,1.83,1.83,0,0,1-1.26-.26,4,4,0,0,1-.77-.51l.39.8-1.11-.64A2.6,2.6,0,0,1,26.5,21.25Z" style="fill: #9e6812"/>
  <path d="M31.07,13.71a1.61,1.61,0,0,0,.1-.58,1.74,1.74,0,0,0-2-1.74,1.69,1.69,0,0,0-1.29-.61,1.68,1.68,0,0,0-1.55,1,2.67,2.67,0,0,1,.06.56,2.73,2.73,0,0,1-.05.5A2.55,2.55,0,0,1,27.47,15a2.59,2.59,0,0,1-1.74,2.46,1.69,1.69,0,0,0,1.11.43,1.61,1.61,0,0,0,1-.35,1.64,1.64,0,0,0,1,.35,1.67,1.67,0,0,0,1.52-1A1.69,1.69,0,0,0,32,15.21,1.66,1.66,0,0,0,31.07,13.71Z" style="fill: #7fa349"/>
  <path d="M25.81,13.11a2,2,0,0,0,.13-.73,2.18,2.18,0,0,0-2.44-2.17,2.11,2.11,0,0,0-1.62-.76,2.08,2.08,0,0,0-1.7.87,3.34,3.34,0,0,1,.22,1.13,3,3,0,0,1-.08.67,3.11,3.11,0,0,1-1.19,5.64,2.07,2.07,0,0,0,2.66.11,2.05,2.05,0,0,0,1.27.43A2.09,2.09,0,0,0,25,17.08a2.1,2.1,0,0,0,.85-4Z" style="fill: #7fa349"/>
  <path d="M19.73,12.36a2.62,2.62,0,0,0,.17-.91,2.74,2.74,0,0,0-3.06-2.72,2.61,2.61,0,0,0-3.74-.3,3.89,3.89,0,0,1,.38,2.75,3.77,3.77,0,0,1-1.61,6.91,3.28,3.28,0,0,1-.2.31,2.57,2.57,0,0,0,1.45.45,2.61,2.61,0,0,0,1.59-.54,2.56,2.56,0,0,0,1.58.54,2.64,2.64,0,0,0,2.38-1.53,2.64,2.64,0,0,0,2.52-2.62A2.6,2.6,0,0,0,19.73,12.36Z" style="fill: #7fa349"/>
</svg>
