<svg id="fe93d4fd-e592-4d76-9e46-f45ca0792b3c" data-name="Calque 1" xmlns="http://www.w3.org/2000/svg" width="32" height="32" viewBox="0 0 32 32">
  <title>office-79-IconeImageAssistantIsa360</title>
  <rect x="8.36" y="17.19" width="14.22" height="8.66" style="fill: #6f7095"/>
  <polygon points="20.95 31.1 20.49 30.94 16.53 29.71 16.53 26.47 14.24 26.47 14.24 29.7 10.4 30.99 9.99 31.1 11.62 31.64 15.37 30.45 19.33 31.64 20.95 31.1" style="fill: #6f7072"/>
  <polygon points="16.7 15.53 17.35 15.53 17.35 12.52 18.66 12.52 17.02 10.88 15.38 12.52 16.7 12.52 16.7 15.53" style="fill: #5bab26"/>
  <polygon points="14.25 10.85 13.59 10.85 13.59 13.86 12.28 13.86 13.92 15.5 15.56 13.86 14.25 13.86 14.25 10.85" style="fill: #5bab26"/>
  <path d="M20.51,4.9c-.11-1.62.06-3.17-1.25-3.57s-7.1.24-7.83.32-1,.71-1.07,1.36c0,0-.14,2-.19,3.27s.37,1.65.88,1.9a45.87,45.87,0,0,0,8.71.37C20.81,8.25,20.62,6.67,20.51,4.9ZM11.33,7.31l0-4.94h7.58l0,4.94Z" style="fill: #5482c4"/>
</svg>
