<svg id="b0b0a2f8-7854-407f-8643-220f272d2068" data-name="Calque 1" xmlns="http://www.w3.org/2000/svg" width="32" height="32" viewBox="0 0 32 32">
  <title>products-72-IconeMagnesium</title>
  <g>
    <path d="M6.38,20.13,3.69,9.41V21a2.13,2.13,0,0,1-.43,1.44A1.47,1.47,0,0,1,2.11,23,1.48,1.48,0,0,1,1,22.48,2.09,2.09,0,0,1,.55,21V7.71a1.66,1.66,0,0,1,.58-1.48,2.72,2.72,0,0,1,1.55-.39h1A4.2,4.2,0,0,1,5.12,6a1.23,1.23,0,0,1,.63.62,9,9,0,0,1,.47,1.46l2.45,9.22,2.44-9.22a10.1,10.1,0,0,1,.47-1.46A1.21,1.21,0,0,1,12.22,6a4.17,4.17,0,0,1,1.38-.17h1.06a2.74,2.74,0,0,1,1.55.39,1.66,1.66,0,0,1,.57,1.48V21a2.08,2.08,0,0,1-.43,1.44A1.47,1.47,0,0,1,15.2,23a1.45,1.45,0,0,1-1.12-.48A2.08,2.08,0,0,1,13.65,21V9.41L11,20.13c-.18.7-.32,1.21-.43,1.53a2.07,2.07,0,0,1-.61.89,1.78,1.78,0,0,1-1.24.4,1.79,1.79,0,0,1-1-.26A1.92,1.92,0,0,1,7,22a4.14,4.14,0,0,1-.36-.89Q6.53,20.66,6.38,20.13Z" style="fill: #005da8"/>
    <path d="M31.58,12.51v9.1a9.65,9.65,0,0,1-.33,2.69,4.25,4.25,0,0,1-1.07,1.85,4.52,4.52,0,0,1-1.92,1.1,10.74,10.74,0,0,1-3,.35,8.6,8.6,0,0,1-2.89-.45,5.1,5.1,0,0,1-2-1.17,2.14,2.14,0,0,1-.69-1.48,1.21,1.21,0,0,1,.39-.93,1.36,1.36,0,0,1,1-.36,1.55,1.55,0,0,1,1.2.6l.52.63a3.06,3.06,0,0,0,.6.54,2.27,2.27,0,0,0,.79.33,4.64,4.64,0,0,0,1.05.11,4.23,4.23,0,0,0,1.89-.34,1.89,1.89,0,0,0,.94-.95,4,4,0,0,0,.32-1.3c0-.46.05-1.2.06-2.23a5.06,5.06,0,0,1-1.67,1.54,4.56,4.56,0,0,1-2.25.53,4.72,4.72,0,0,1-2.75-.81A5.1,5.1,0,0,1,20,19.61a8.26,8.26,0,0,1-.63-3.34,7.74,7.74,0,0,1,.39-2.54,5.3,5.3,0,0,1,1.09-1.92,4.83,4.83,0,0,1,1.64-1.18,5.24,5.24,0,0,1,2.05-.39,4.91,4.91,0,0,1,2.3.51,5.6,5.6,0,0,1,1.82,1.6v-.43a1.82,1.82,0,0,1,.4-1.26,1.32,1.32,0,0,1,1-.45,1.23,1.23,0,0,1,1.21.6A4,4,0,0,1,31.58,12.51Zm-9.07,4a4.3,4.3,0,0,0,.83,2.88,2.69,2.69,0,0,0,2.15,1A2.78,2.78,0,0,0,27,19.92a3.12,3.12,0,0,0,1.14-1.26,4.46,4.46,0,0,0,.43-2.05,4.73,4.73,0,0,0-.84-3,2.68,2.68,0,0,0-2.22-1.06,2.59,2.59,0,0,0-2.15,1A4.57,4.57,0,0,0,22.51,16.48Z" style="fill: #005da8"/>
  </g>
</svg>
