<svg id="bb373316-ebfb-4907-8c54-0d9ed0899c0b" data-name="Calque 1" xmlns="http://www.w3.org/2000/svg" width="32" height="32" viewBox="0 0 32 32">
  <title>phyto-63-IconeCorvicide</title>
  <path d="M2.4,5.07V3.77A1.09,1.09,0,0,1,3.49,2.69H5.31A1.09,1.09,0,0,1,6.39,3.77v1.3" style="fill: #6e6a69"/>
  <path d="M22.37,24.81l0-.16-.08.05Z" style="fill: #cecece"/>
  <path d="M27.16,13.13a7.46,7.46,0,0,0,2.11-.36,3.47,3.47,0,0,0-2.11-1,6.82,6.82,0,0,1-1.76-.42,2.51,2.51,0,0,0-3.28.85c-1.16,1.59-.92,1.39-1.27,1.51a4.34,4.34,0,0,0-1.31.75,3.74,3.74,0,0,0-1.41.66c-.35.29-5.27,4.12-5.3,4.9a6.84,6.84,0,0,0-1.89,1.54A9.77,9.77,0,0,0,8.05,23c0,.26.55.27,1.32,0-.53.32-2.56,1.42-2.18,1.54s1.2-.28,1.4-.22,0,.42.21.47.7.05.81-.11c.07.08.35.12.8,0s2.14-.89,2.23-1.23.3-.12.22.13.31-.35.68-.48,2.2-.45,3-.68a1.14,1.14,0,0,1-.31.41l.6-.4a3.86,3.86,0,0,1-.61,1.22.6.6,0,0,0,0,.49h0l0,.09a.45.45,0,0,1,0,.11.53.53,0,0,0,.14.47,8.87,8.87,0,0,1,1.17,2.66c-.12.18-.36-.5-.81-.61s-.57.54-.51.65a.59.59,0,0,1,.37-.42c.15,0,.28.27.28.27s-.16.06-.08.31.63.28.91.38a2.44,2.44,0,0,1,.73.68c0,.07.08-.44.3-.28a9.78,9.78,0,0,0,1.43.51c.23.06.13-.37.2-.4s.1.33.1.33,0-.21.11-.26.32.35.42.5a.88.88,0,0,0-.6-.76c-.12-.22-.48-.33-.93-.3a1.44,1.44,0,0,1-.81-.14,13.74,13.74,0,0,1-1.39-2.68,1,1,0,0,1-.1-.38c0-.07,0-.13,0-.2,0-.39.17-.79.23-1.14a1.62,1.62,0,0,1,.29-.57l0,0s.13.12.12-.13a.49.49,0,0,1,.33-.4l.26,0a3,3,0,0,1,.22.83,5.61,5.61,0,0,0-.05-.66.18.18,0,0,1,0-.14,1.5,1.5,0,0,0,.3,0v.23l.37-.25a2.92,2.92,0,0,0,.4-.1c0,.21-.21.52-.45.77s-.28.51-.19.59a.29.29,0,0,1,.06.27.4.4,0,0,0,.13.44,12.62,12.62,0,0,1,1.32,2.23c.14.23.28.59-.05.78s-.58-.41-.89-.62-.69.4-.67.62a.51.51,0,0,1,.43-.42c.26-.07.24.23.24.23a.35.35,0,0,0-.1.33c0,.23.68.3.87.27s.42.07.4.19c0,.3.6.41.68.51s.16,0,.18-.17.89.35,1,.4.2-.24.32-.31.23.44.24.54c.27-.5-.22-.58-.07-.72s.35.32.35.32c.12-.81-1-.47-1.39-.54s-.46-.26-.66-.65-1.24-2.31-1.38-2.56-.34-.5-.24-.65a1.08,1.08,0,0,0,.31-.72,5,5,0,0,1,1-1.14.09.09,0,0,0,.05,0h.13l-.94.93a7.27,7.27,0,0,1,1.35-1c.23,0-.35.34-.93.8a4.54,4.54,0,0,0,1.61-1.22,3.37,3.37,0,0,0,1.78-1.32c.72-.92,2.91-3.77,2.06-5-.48-.73-.58-1.3-.31-1.67S26.5,13.2,27.16,13.13Z" style="fill: #635c57"/>
  <path d="M20.58,2.62H12.12c-2.77,0-2.55,3.93-5.83,3.93H2.43A1.4,1.4,0,0,0,1,8L.49,12.56V22.74l.55,6a1.4,1.4,0,0,0,1.39,1.4H17.05a1.94,1.94,0,0,1-.23-.26,3.25,3.25,0,0,1-1-.42,2,2,0,0,1-1.3-1,2.54,2.54,0,0,1,.1-2.44,1.3,1.3,0,0,1,.1-.15,2.44,2.44,0,0,1-.4-.91,2.09,2.09,0,0,1-1.06.57,9.15,9.15,0,0,1-2.29,1,3.75,3.75,0,0,1-1.07.16H9.81a3.58,3.58,0,0,1-.69.07,3.93,3.93,0,0,1-.69-.06,2.29,2.29,0,0,1-.63-.23,3.13,3.13,0,0,1-.44,0,2.48,2.48,0,0,1-.77-.12,2,2,0,0,1-1.43-1.73,2.1,2.1,0,0,1,.9-2c.15-1.13,1.39-2.11,3.7-2.92a8.7,8.7,0,0,1,1.51-1.19c.61-.9,2-2.22,5.27-4.82l.29-.24a5.42,5.42,0,0,1,1.77-.94A6.8,6.8,0,0,1,19.82,12c.15-.21.36-.52.68-1a4.78,4.78,0,0,1,1.83-1.54L22,4A1.4,1.4,0,0,0,20.58,2.62ZM18.65,6.33H13.91a1,1,0,0,1,0-2.1h4.74a1,1,0,1,1,0,2.1Z" style="fill: #ccc"/>
</svg>
