<svg id="a29be12a-8558-4fdd-bef5-51385956d4a7" data-name="Calque 1" xmlns="http://www.w3.org/2000/svg" width="32" height="32" viewBox="0 0 32 32">
  <title>vegetal-72-IconeSeed.Viti</title>
  <path d="M19.86,17.48c0,.07-.12,0-.12.06h0s.09,0,0,.08c.29,0-.94.21-.69-.05s.62,1.18.29,1c0,.09,0,.27-.09.27s0,.45-.2.44-.44-1-.53-.76c-.25.62.06.9-.66.74-.35.66-.14.13-.22.09s-.16.38-.24.08c.22-.24-.3.25-.22.07-.67.23-.47.15-.39-.18h-.07c0-.1.14-.16,0-.14h0s.05-.17.07-.2c-.24-.13-.25.23,0-.26a.82.82,0,0,0-.22.06c0-.12.07-.2.16-.35a2.49,2.49,0,0,1-.29.11h0c-.27-.19.7-.81.72-.86s-.72.11-.65.05a.35.35,0,0,1-.25-.06.11.11,0,0,0,.08,0c.2.08-.57-.34-.53-.28s.28-.13.33-.16l0,0,.12-.07h0a.11.11,0,0,0-.08,0h0a.51.51,0,0,1,.25-.16l-.14-.06h0c0-.07.4-.12.42-.21-.07-.35.13.23.28-.24,0-.3.07-.25.18-.45s.28.17.33.13v-.08h0a.15.15,0,0,0,.24,0h0c.43.31.39.81.76,1.07.2.11,1.34-.44,1.34.16,0,0-.15,0-.13.1l.16.09" style="fill: #b1c800"/>
  <path d="M15.59,11.24c0-.05.09-.05.08-.08h0s-.09,0-.06-.05c-.24.06.66-.45.54-.18s-.83-.71-.53-.7c0-.05-.06-.21,0-.23s-.11-.36,0-.4.63.6.64.43c0-.56-.32-.68.28-.77.07-.62.07-.15.14-.15s0-.33.17-.13c-.1.25.15-.28.14-.12.44-.38.32-.26.36,0l0,0h0c0,.08-.06.17.07.1h0s0,.15,0,.17c.23,0,.12-.25.07.21a.63.63,0,0,0,.15-.11c.07.08,0,.17,0,.31,0-.06.14-.12.18-.17h0c.26.06-.3.84-.29.89s.51-.31.48-.24a.26.26,0,0,1,.21,0l-.06,0c-.17,0,.55.09.5.05s-.18.19-.2.22l0,0-.07.09h0l.07,0h0a.43.43,0,0,1-.14.2h.12c0,.06-.27.21-.26.28.16.26-.17-.13-.14.28.09.23,0,.21,0,.4s-.27-.05-.3,0l0,0h0a.14.14,0,0,0-.19.08h0c-.42-.1-.54-.5-.91-.59-.19,0-.9.75-1.08.29,0,0,.11-.08.06-.12l-.14,0" style="fill: #b1c800"/>
  <path d="M16.29,12.43c-.06,0-.06-.09-.1-.07h0s0,.08-.05.07c.09.24-.52-.68-.22-.58s-.71.94-.71.62c-.06.06-.22.07-.25,0s-.37.13-.42,0,.6-.71.41-.71c-.59,0-.7.39-.84-.25-.66,0-.17-.06-.16-.14s-.36,0-.16-.17c.28.09-.31-.14-.13-.15-.44-.44-.3-.32,0-.37l0-.05h0c.08,0,.18,0,.1-.08h0s.16,0,.19,0c0-.24-.28-.11.21-.09a.55.55,0,0,0-.13-.15c.09-.08.18,0,.34,0-.07,0-.14-.14-.2-.19h0c0-.28.91.26,1,.25s-.36-.52-.28-.49a.28.28,0,0,1,0-.23l0,.06c0,.19.06-.58,0-.54s.22.19.25.21v0l.11.07h0l0-.07h0a.4.4,0,0,1,.22.14.66.66,0,0,0,0-.14h0c.07,0,.24.28.32.27.26-.19-.14.18.3.13.24-.12.22,0,.43,0,.05,0,0,.29,0,.31l.06,0v0a.14.14,0,0,0,.1.19h0c-.09.46-.5.61-.57,1,0,.21.85.91.38,1.14,0,0-.09-.11-.14-.06v.15" style="fill: #b1c800"/>
  <path d="M26.6,14.26c-.06,0,0-.11,0-.12h0s-.06.07-.08,0c-.08.24,0-.86.17-.59s-1.13.3-.93.05c-.09,0-.23-.08-.21-.13s-.38-.13-.34-.26.9-.19.76-.31c-.49-.34-.79-.12-.51-.71-.51-.44-.09-.15,0-.21s-.29-.21,0-.23c.16.24-.16-.3,0-.2-.07-.62,0-.43.23-.3v-.06h0c.08,0,.11.15.13,0h0s.13.08.15.1c.16-.18-.15-.26.23.06a1.56,1.56,0,0,0,0-.2c.11,0,.15.1.27.2a2,2,0,0,1,0-.26h0c.21-.19.56.77.6.79s0-.64.09-.56a.27.27,0,0,1,.1-.21v.08c-.1.15.41-.43.36-.41s.05.27.07.31h0l0,.12h0l0-.08h0a.35.35,0,0,1,.08.24.28.28,0,0,0,.08-.11h0c.05.05,0,.37.09.41.32,0-.22.06.16.29.25,0,.2.11.35.24s-.2.21-.18.26h.06a.14.14,0,0,0,0,.21h0c-.35.31-.77.18-1.07.44-.13.16.12,1.25-.4,1.13,0,0,0-.14-.06-.13l-.1.12" style="fill: #b1c800"/>
  <path d="M28.59,10.08c0-.06.09-.05.09-.09s-.09,0-.07-.06c-.25.06.73-.44.6-.15S28.35,9,28.68,9c-.06-.06-.05-.23,0-.24s-.09-.39,0-.43.64.68.66.49c0-.59-.31-.74.34-.81.11-.65.09-.15.16-.14s0-.36.18-.13c-.12.26.18-.3.17-.12.49-.39.35-.26.37,0l0,0h0c0,.09-.07.18.07.11h0s0,.15,0,.18c.24,0,.14-.26.06.23A.53.53,0,0,0,31,8c.07.1,0,.19,0,.34a1.2,1.2,0,0,1,.21-.17h0c.27.08-.36.88-.36.93s.57-.31.53-.23a.27.27,0,0,1,.23,0l-.07,0c-.18,0,.57.12.53.08s-.2.19-.23.23h0l-.09.09h.08a.47.47,0,0,1-.17.2h.14c0,.07-.3.21-.3.29.16.28-.17-.16-.16.28.08.25,0,.23,0,.43s-.29-.06-.32,0l0,.07h0a.15.15,0,0,0-.2.08h0c-.45-.14-.55-.57-.93-.68-.21,0-1,.74-1.17.25,0,0,.11-.08.07-.13l-.15,0" style="fill: #b1c800"/>
  <path d="M13.88,4.92c-.05,0,0-.09,0-.11s-.06.06-.08,0c-.1.2.11-.75.23-.5s-1,.14-.83-.07c-.07,0-.19-.09-.17-.14s-.32-.15-.27-.26.82-.06.71-.19c-.39-.35-.68-.2-.37-.68-.39-.44-.06-.14,0-.19s-.23-.22,0-.2c.11.23-.1-.28,0-.18,0-.55,0-.38.24-.23v0h0c.07,0,.08.14.12,0h0s.1.08.12.1-.1-.24.19.09a1,1,0,0,0,0-.18c.11,0,.13.1.22.21a1.85,1.85,0,0,1,0-.24h0c.2-.15.4.73.43.76s.11-.56.14-.49a.3.3,0,0,1,.12-.17l0,.07c-.1.12.41-.32.36-.32s0,.25,0,.29h0l0,.11h0l0-.07h0a.36.36,0,0,1,0,.22.3.3,0,0,0,.08-.08h0c.05,0,0,.32,0,.37.28,0-.2,0,.1.27.22.08.16.11.29.25s-.21.16-.19.21h.05c-.12.07-.08.16-.06.18h0c-.35.23-.7.06-1,.26-.14.12,0,1.1-.49.94,0,0,0-.12,0-.12l-.1.09" style="fill: #b1c800"/>
  <path d="M8.48,9.21s0,.06,0,.08h0s0,0,0,0c.1-.13-.19.51-.24.31s.75.07.58.18c.05,0,.11.1.09.13s.2.16.15.23-.59-.09-.53,0c.22.3.45.25.15.53.21.38,0,.12,0,.14s.13.19,0,.14,0,.22,0,.12c-.1.39-.08.27-.21.13v0h0s0-.12-.07,0h0l-.07-.09c-.14.07,0,.18-.12-.09,0,0,0,.09,0,.12S8,11.08,8,11a1,1,0,0,1,0,.17h0c-.17.07-.16-.58-.19-.61s-.16.38-.17.32a.16.16,0,0,1-.11.1l0,0c.1-.07-.34.16-.3.17s0-.18,0-.21h0v-.08h0l0,0h0a.22.22,0,0,1,0-.16l-.07,0h0s.07-.22,0-.26.15,0,0-.21S7,10.15,6.94,10s.17-.08.17-.12l0,0h0a.11.11,0,0,0,.07-.12h0c.28-.11.5.07.74,0s.2-.77.49-.59c0,0,0,.09,0,.1l.09,0" style="fill: #b1c800"/>
  <path d="M11.86,7.29c.05,0,0,.1,0,.12h0s.08,0,.09,0c.15-.21-.24.82-.34.52s1.18,0,.92.21c.08,0,.19.14.17.19s.33.23.25.34-.93-.07-.82.09c.38.46.73.34.29.83.37.56.05.17,0,.21s.22.29,0,.23c-.09-.28.06.34,0,.2-.11.61-.09.43-.31.22l0,.06h0c-.07,0-.06-.18-.12,0h0s-.11-.11-.12-.14c-.21.13.07.29-.2-.12a.72.72,0,0,0,0,.2c-.11,0-.12-.14-.2-.28a1.17,1.17,0,0,1,0,.27h0c-.26.13-.33-.89-.36-.93s-.22.61-.24.52a.26.26,0,0,1-.16.18.11.11,0,0,0,0-.07c.14-.13-.51.29-.46.29s0-.28,0-.33h0V10h0L10,10h0a.46.46,0,0,1,0-.26l-.11.08h0c0-.06.08-.36,0-.42-.3-.1.24,0-.06-.32-.24-.13-.17-.16-.28-.33s.25-.15.25-.21l-.07,0h0a.15.15,0,0,0,.1-.2h0c.43-.2.8.05,1.16-.13.17-.11.24-1.23.7-1,0,0,0,.13,0,.14l.13-.08" style="fill: #b1c800"/>
  <path d="M16.6,7.61s-.1,0-.1,0h0s.07.05,0,.08c.23,0-.8.07-.57-.11s.39,1,.13.87c0,.07-.05.21-.1.2s-.08.37-.21.34-.26-.83-.36-.68c-.27.49,0,.75-.61.54-.36.51-.14.1-.2.06s-.17.29-.21,0c.21-.17-.27.17-.18,0-.57.13-.41.07-.3-.19h-.06c0-.08.13-.12,0-.12h0s.06-.13.08-.15c-.19-.13-.23.16,0-.21,0,0-.14,0-.19,0s.08-.15.17-.27a1.05,1.05,0,0,1-.24.06h0c-.2-.18.67-.59.68-.63s-.6,0-.53,0a.24.24,0,0,1-.2-.08h.07c.15.08-.44-.34-.42-.29s.25-.08.29-.09V7l.1,0h0l-.07,0h0a.36.36,0,0,1,.22-.11l-.11-.06h0c0-.06.34-.06.37-.13,0-.3.08.2.25-.17s.08-.2.19-.35.22.17.26.14V6.2h0a.13.13,0,0,0,.2,0h0c.32.3.23.71.51,1s1.15-.22,1.09.27c0,0-.13,0-.12.07l.12.09" style="fill: #b1c800"/>
  <path d="M15.24,7.56c-.06,0,0-.11,0-.12h0s-.06.07-.08,0c-.09.25,0-.86.18-.59s-1.15.3-1,0c-.08,0-.22-.08-.21-.13s-.38-.13-.34-.26.92-.19.77-.31c-.49-.35-.8-.13-.51-.72-.5-.45-.09-.16,0-.22s-.29-.22,0-.23c.16.25-.16-.3,0-.2-.07-.63,0-.44.24-.3V4.48h0c.08,0,.11.15.12,0h0s.13.08.15.1c.16-.18-.15-.26.22.07,0,0,0-.16,0-.21s.16.1.27.21a2.51,2.51,0,0,1,0-.27h0c.22-.2.56.77.61.8s0-.65.09-.57a.27.27,0,0,1,.1-.21v.08c-.1.15.42-.43.36-.41s.06.27.07.32l0,0,0,.12h0l0-.07h0a.46.46,0,0,1,.08.25.76.76,0,0,0,.08-.11h0c.05.05,0,.37.09.41.32,0-.23.06.15.29.26.06.2.11.36.25s-.21.21-.18.26H17c-.12.09-.07.19-.05.21h0c-.36.31-.79.17-1.09.44-.14.15.1,1.25-.41,1.13,0,0,0-.14-.07-.13l-.1.12" style="fill: #b1c800"/>
  <path d="M6,5.38s0,.07.06.07H6s0-.07,0,0c0-.19.28.57.08.45s.66-.58.61-.34c.05,0,.18,0,.18,0s.3,0,.32,0-.55.44-.41.47c.44.06.57-.18.57.3.49.13.11.08.1.13s.27,0,.09.15c-.19-.11.2.15.07.13.26.39.17.28-.05.28l0,0h0c-.06,0-.12-.06-.08,0h0s-.12,0-.14,0c0,.17.19.12-.17,0l.07.13c-.07,0-.13,0-.25,0a1,1,0,0,1,.12.17h0c-.08.2-.63-.33-.67-.33s.19.44.13.41a.17.17,0,0,1,0,.17l0-.05c0-.14-.13.42-.1.39s-.13-.17-.15-.19v0l-.07-.07h0v.06h0a.32.32,0,0,1-.14-.14.36.36,0,0,0,0,.1h0S6,7.53,6,7.53c-.22.1.13-.12-.2-.14s-.17,0-.32,0,.07-.21,0-.23l-.05,0h0c0-.1,0-.14-.05-.15h0c.13-.32.46-.37.57-.64s-.48-.8-.1-.89c0,0,0,.09.09.06l0-.11" style="fill: #b1c800"/>
  <path d="M4,9.57c-.05,0,0-.08,0-.09s0,0-.06,0c-.06.18,0-.64.12-.44s-.84.25-.7,0c-.06,0-.17-.06-.16-.09s-.29-.09-.26-.19.68-.16.56-.25c-.37-.24-.59-.08-.39-.52C2.66,7.75,3,8,3,7.9s-.22-.15,0-.16c.12.17-.12-.23,0-.15-.06-.47,0-.33.17-.23V7.31h0c.07,0,.09.11.1,0h0l.12.07c.11-.14-.12-.19.16,0,0,0,0-.11,0-.15s.12.07.21.15a1.2,1.2,0,0,1,0-.2h0c.15-.15.43.56.46.58s0-.48.06-.42a.19.19,0,0,1,.07-.16v.06c-.07.11.3-.33.26-.32s0,.21.06.24h0l0,.08,0,0h0a.34.34,0,0,1,.07.18l.06-.08h0s0,.28.08.3c.23,0-.17,0,.12.22s.15.07.27.17-.15.16-.13.2h0a.12.12,0,0,0,0,.16h0c-.26.24-.58.15-.8.35s.11.93-.28.85c0,0,0-.1-.05-.09L4,9.57" style="fill: #b1c800"/>
  <path d="M7.22,2.25s0,.07,0,.08h0s0,0,0,0c.08-.13-.09.51-.16.33s.7-.06.56.07c0,0,.12.08.11.1S8,2.94,8,3s-.56,0-.48.11c.25.25.45.16.22.47.25.32,0,.1,0,.13s.15.16,0,.14.06.2,0,.12c0,.38,0,.26-.17.15v0h0s-.06-.1-.08,0h0l-.08-.08c-.12.09.06.17-.13-.06a.41.41,0,0,0,0,.12c-.07,0-.09-.08-.14-.15a.92.92,0,0,1,0,.16H7c-.15.09-.25-.51-.27-.53s-.09.37-.11.32a.19.19,0,0,1-.09.12l0,0c.07-.08-.29.21-.26.21s0-.17,0-.2h0V4l0,0h0a.26.26,0,0,1,0-.15l-.06.05h0s0-.22,0-.25.14,0-.06-.19S6,3.37,5.93,3.27s.14-.1.14-.13H6a.08.08,0,0,0,0-.12h0c.24-.15.48,0,.68-.15s.07-.75.36-.62c0,0,0,.08,0,.08l.07-.06" style="fill: #b1c800"/>
  <path d="M14.86,1.71a29.34,29.34,0,0,0,.62,4.35c.66,3.73,1.25,6.88,2.35,9.27l.2-.09C16.94,12.9,16.35,9.74,15.69,6c-.33-1.85-.59-3.57-.77-4.81-.09-.63.27,1.37.22,1s-.07-.55-.07-.55l-.21,0" style="fill: #81664b"/>
  <path d="M11.41,13c-.28,0-.87.46-.8.7s.32,1.4,1,1.35.86-.08,1.41.33a1.53,1.53,0,0,0,1.4.17,2.06,2.06,0,0,1,1.4.58,2.5,2.5,0,0,0,1.73.86c1.16.22.61,2.05,1.28,3.81s.63,1.21,2.72,3.11a1.5,1.5,0,0,1-.26,1.93c-.43.36-2.67.76-2.65,1.75s-.41,1.11-.31,1.81c.06.42.17.84.21,1.2a7.56,7.56,0,0,0,2.49.43c.8,0,1.39,0,1.89-.1.16-.35,1-.84,1.07-1.8,0-1.18.67-1.75,1.61-3,.75-1,.22-3.28-2.28-4.51s-2-3-1-3.44a1.8,1.8,0,0,0,.82-1.9.47.47,0,0,1,.55-.63c.51.07.3,0,.55-.05s.22-.16.66-.11,1.32-.82,1.76-.75a1,1,0,0,0,1.06-.48c.17-.38-.65-1.4-1.79-1.11s-.07.09-1.28.14A10.17,10.17,0,0,0,20,15.4c-.26.29-3-.53-3.56-.84a4,4,0,0,0-1.74-.49,2.16,2.16,0,0,1-1.27-.38c-.32-.27.7,0-.07,0s-1.61-.77-1.95-.68" style="fill: #81664b"/>
  <path d="M10.63,13.43a1.17,1.17,0,0,0,.61-.3,3.86,3.86,0,0,0,0-3.08c-.62-1.27-3-6.75-3.74-7.12-.18-.12,0,.64.29,1s3,5,3,6.29.31,2.49-.37,2.17a31.24,31.24,0,0,0-2.66-1.66A39.15,39.15,0,0,0,2,8.36,9.2,9.2,0,0,1,.48,7.67C.1,7.49.07,7.77.5,8s1,.47,1.13.69.2.23.45.23a13.05,13.05,0,0,1,2.38,1,.69.69,0,0,0,.6.25A12.84,12.84,0,0,1,7.9,11.82a.69.69,0,0,0,.63.31c.31,0,1.46,1.07,2.1,1.3" style="fill: #81664b"/>
  <path d="M8.19,11a28.58,28.58,0,0,0-1.87-3.9C5.4,5.63,4.35,3,4.54,2.86s.23.83.68,1.66,3.51,6.35,3.6,6.85-.45-.14-.63-.36" style="fill: #81664b"/>
  <path d="M3.69,9.13A39.47,39.47,0,0,0,2.33,5a7.47,7.47,0,0,1-.87-1.67c-.09-.36.11-.39.36.15s-.23-.22.8,1.68a31.66,31.66,0,0,1,1.3,4c0,.07-.25,0-.23,0" style="fill: #81664b"/>
  <path d="M4.84,3.48h0l0,0h0v0h0m.4-.24h0a.19.19,0,0,0,.15.08h0a.17.17,0,0,1-.14-.08h0a.22.22,0,0,0,.15.07h0a.19.19,0,0,1-.15-.08h0Z" style="fill: #e7f192"/>
  <path d="M3,6.69H3v0H3v0H3m-.47,0h0a.22.22,0,0,0-.1-.14h0a.18.18,0,0,1,.11.14h0a.21.21,0,0,0-.12-.15h0a.18.18,0,0,1,.09.14Z" style="fill: #e7f192"/>
  <path d="M26.92,13.15c.07-.07,3.81-5.67,4.19-5.51s-3.32,5.93-3.45,6.14-.74-.61-.74-.63" style="fill: #81664b"/>
  <path d="M26.92,13.15h0s1-1.42,1.94-2.79c.49-.68,1-1.37,1.39-1.88s.73-.85.83-.84h0s0,0,0,0a16.62,16.62,0,0,1-1.69,3.2c-.86,1.42-1.73,2.77-1.79,2.88l0,0c-.09,0-.26-.16-.41-.33L27,13.25,27,13.18v0h0v0a3.63,3.63,0,0,0,.29.36c.14.15.29.3.39.3a.08.08,0,0,0,.07,0c.06-.1.93-1.46,1.79-2.88A16.3,16.3,0,0,0,31.15,7.7a.08.08,0,0,0,0-.07h0c-.13,0-.43.35-.84.86C29,10,27,13.09,26.91,13.14h0" style="fill: #81664b"/>
  <path d="M2,7c-.05,0,0-.09,0-.11S2,7,2,6.92c-.14.19.27-.75.34-.46s-1.1-.08-.85-.25c-.07,0-.17-.14-.14-.18S1,5.8,1.09,5.7s.87.11.78,0c-.34-.44-.67-.35-.24-.78-.31-.54,0-.16,0-.2s-.19-.28.06-.21c.06.26-.05-.32,0-.18.13-.57.11-.4.3-.2l0,0h0c.07,0,.06.17.12,0h0s.09.11.1.14c.2-.11,0-.28.18.12a.54.54,0,0,0,.06-.18c.1,0,.11.13.18.26,0-.06,0-.17,0-.25h0c.25-.1.27.85.3.89s.23-.56.25-.48a.28.28,0,0,1,.15-.15l0,.07c-.14.1.49-.26.44-.26s0,.26,0,.3h0v.11h0l0,0h0a.53.53,0,0,1,0,.25A.39.39,0,0,0,4,4.76H4c0,.05-.1.33,0,.39.28.1-.21,0,0,.3.21.13.15.15.24.32S4,5.9,4,6l.06,0h0a.14.14,0,0,0-.1.18H4c-.4.17-.74-.08-1.08.06-.17.1-.28,1.14-.7.88,0,0,0-.12,0-.13L2,7" style="fill: #b1c800"/>
  <path d="M5.07,2c.06,0,0,.12.06.12h0s0-.09.07,0c0-.27.26.87,0,.65s1.06-.65.94-.33c.08,0,.25,0,.25.07s.42,0,.42.16S6,3,6.13,3.12c.6.19.85-.11.73.57.65.29.14.13.11.2s.36.13.08.23c-.23-.2.25.26.08.2.26.61.16.43-.14.37v.06H7c-.09,0-.16-.11-.13,0h0s-.15,0-.18-.06c-.11.23.23.21-.25,0A.85.85,0,0,0,6.5,5c-.11,0-.19-.06-.34-.13.06.06.08.19.12.26h0c-.16.26-.8-.61-.85-.62s.15.66.09.6a.29.29,0,0,1,0,.24V5.22c0-.19-.29.55-.24.52s-.14-.26-.17-.3l0,0L5,5.35a.14.14,0,0,0,0,.09H5a.44.44,0,0,1-.16-.22.58.58,0,0,0,0,.14h0C4.67,5.32,4.6,5,4.52,5c-.33.08.21-.13-.24-.25-.28,0-.24,0-.44-.14,0,0,.15-.27.11-.32l-.07,0h0a.15.15,0,0,0,0-.23h0c.26-.42.74-.41,1-.77C4.91,3.06,4.33,2,4.89,2c0,0,.05.14.1.12L5.07,2" style="fill: #b1c800"/>
  <path d="M6.72,7.09s0-.06-.08,0,0,.06,0,0c.1.16-.48-.38-.25-.36S6,7.51,6,7.29c0,0-.15.09-.17.06s-.24.15-.3.07.3-.59.17-.57c-.41.13-.42.39-.62,0-.47.08-.13,0-.14-.07s-.25.06-.14-.09c.21,0-.24,0-.12-.09-.37-.23-.25-.17-.06-.26l0,0h0s.13,0,.06-.07h0s.1,0,.12,0c0-.18-.21,0,.14-.1,0,0-.09-.07-.12-.09s.13,0,.24-.06a.75.75,0,0,1-.17-.1h0c0-.2.68,0,.71,0s-.34-.31-.28-.3a.21.21,0,0,1-.07-.15l0,0c0,.12,0-.42-.07-.38s.18.09.21.1v0l.08,0h0l0,0h0a.28.28,0,0,1,.18.06.32.32,0,0,0,0-.09h0c.05,0,.21.15.27.13.14-.18-.07.15.22,0s.16-.06.3-.09,0,.21.06.22l0,0h0c0,.11.07.12.1.12h0c0,.33-.25.51-.23.8s.74.49.45.73c0,0-.08-.06-.11,0l0,.11" style="fill: #b1c800"/>
  <path d="M10.65,5.86s-.06.1,0,.13h0s.09,0,.09,0c.21-.21-.42.87-.46.51,0-.21,1.3.24,1,.41.09,0,.19.19.15.24s.32.31.22.42-1-.24-.93,0c.34.58.75.51.18,1,.3.69,0,.2-.07.24s.2.36-.09.24c0-.33,0,.38-.08.21-.23.67-.18.46-.38.19l0,.06h0c-.07-.07,0-.21-.13-.06h0c-.05,0-.1-.14-.11-.18-.25.11,0,.34-.19-.17,0,0-.08.16-.09.21s-.12-.18-.18-.34a1.61,1.61,0,0,1-.09.29h0c-.31.09-.2-1.06-.24-1.1s-.34.63-.36.53a.29.29,0,0,1-.2.16.08.08,0,0,0,0-.07C8.82,8.62,8,9,8.08,9s.08-.3.09-.35h0l0-.14-.06.06h0a.47.47,0,0,1,0-.29L8,8.32H8c0-.08.16-.39.1-.46-.32-.17.26,0,0-.37-.24-.19-.16-.21-.25-.42s.31-.12.31-.18l-.07,0h0c.17,0,.16-.16.15-.19h0c.51-.14.87.2,1.3.07.22-.09.49-1.32,1-1,0,0-.06.14,0,.16l.16-.07" style="fill: #b1c800"/>
  <path d="M15.62,4.93c.06,0,.06.1.1.09s0-.1.06-.08c-.1-.27.59.77.25.65s.8-1.06.8-.69c.07-.07.26-.09.28,0s.42-.16.48,0-.67.8-.46.81c.67,0,.79-.44.95.27.75,0,.18.08.18.17s.4,0,.17.18c-.31-.1.35.17.16.17.49.5.33.37,0,.43l0,.05h0c-.09,0-.2-.06-.11.09h0s-.17,0-.2,0c0,.27.31.12-.25.09,0,0,.11.14.15.18s-.21,0-.38,0c.07,0,.15.15.22.21h0c-.06.32-1-.29-1.09-.28s.41.59.32.56a.33.33,0,0,1,0,.25s0-.05,0-.07a2.51,2.51,0,0,0,0,.61c-.05.07-.24-.2-.28-.23v0l-.12-.08h0l0,.08h0a.44.44,0,0,1-.25-.16.85.85,0,0,0,0,.16h0c-.08,0-.27-.31-.37-.3-.29.21.16-.21-.33-.15-.27.13-.26,0-.49,0-.06,0,0-.33,0-.36l-.06,0h0a.16.16,0,0,0-.11-.22h0c.1-.52.58-.69.65-1.13,0-.24-1-1-.42-1.29,0,0,.1.12.15.07V4.93" style="fill: #b1c800"/>
  <path d="M16.9,12.7c.06,0,.07.1.11.09h0s0-.09.06-.07c-.1-.28.59.76.24.64-.2-.06.8-1.06.81-.69.06-.07.25-.08.28,0s.42-.15.47,0-.67.81-.46.81c.67,0,.8-.44.95.28.75,0,.19.07.18.16s.41,0,.18.19c-.31-.1.35.16.15.17.5.5.33.36,0,.43l0,.05h0c-.09,0-.2-.05-.11.09h0s-.18,0-.21,0c0,.27.31.13-.24.1,0,0,.1.14.15.18-.1.08-.21,0-.39,0,.08,0,.16.16.22.21h0c0,.31-1-.3-1.08-.29s.41.6.31.56a.32.32,0,0,1,.06.26s0-.06-.05-.07c0-.21-.07.66,0,.61s-.24-.21-.28-.24l0,0-.11-.08a.13.13,0,0,0,0,.08h0A.51.51,0,0,1,17.9,16a.76.76,0,0,0,0,.15h0c-.08,0-.27-.31-.36-.29-.29.21.15-.22-.34-.15-.27.13-.25,0-.48,0-.07,0,0-.33,0-.36l-.07.05v0a.16.16,0,0,0-.11-.21h0c.1-.52.57-.7.65-1.14,0-.24-1-1-.43-1.29,0,0,.1.13.15.07V12.7" style="fill: #b1c800"/>
  <path d="M27.24,10.39c.05-.06.11.06.14,0h0s-.05-.09,0-.1c-.2-.2.87.43.51.47-.21,0,.25-1.3.42-1,0-.09.19-.18.23-.15s.31-.32.43-.22-.25,1-.06.93c.59-.33.52-.74,1-.17.7-.3.21,0,.24.07s.36-.19.24.09c-.32,0,.39,0,.21.08.67.23.46.18.2.38l0,0h0c-.07.07-.2,0-.06.13h0s-.14.1-.18.11c.11.25.34,0-.17.19,0,0,.16.08.21.1s-.18.11-.34.17a1.61,1.61,0,0,1,.29.09h0c.09.32-1,.2-1.1.23s.63.35.54.36a.36.36,0,0,1,.16.21.1.1,0,0,0-.08,0c-.1-.18.24.62.25.56s-.31-.08-.36-.09v0l-.14,0h0l.07.06h0a.48.48,0,0,1-.29,0,.54.54,0,0,0,.07.13h0c-.08,0-.39-.16-.46-.11-.17.32,0-.26-.37,0-.19.23-.21.15-.42.24s-.11-.31-.18-.31l0,.07h0c0-.17-.15-.16-.19-.15h0c-.14-.51.21-.87.08-1.3-.09-.22-1.32-.5-1-1,0,0,.14.07.16,0l-.07-.16" style="fill: #b1c800"/>
</svg>
