<svg id="b9b21baa-ea38-4046-9719-77902cbfbe24" data-name="Calque 1" xmlns="http://www.w3.org/2000/svg" width="32" height="32" viewBox="0 0 32 32">
  <title>time-94-IconeCalendrierInterv</title>
  <g>
    <path d="M3.84,29.5a2.33,2.33,0,0,1-2.33-2.34V10.5h29V27.16a2.34,2.34,0,0,1-2.34,2.34Z" style="fill: #fff"/>
    <path d="M30,11V27.16A1.84,1.84,0,0,1,28.17,29H3.84A1.83,1.83,0,0,1,2,27.16V11H30m1-1H1V27.16A2.84,2.84,0,0,0,3.84,30H28.17A2.84,2.84,0,0,0,31,27.16V10Z" style="fill: #868789"/>
  </g>
  <path d="M24,2.5a1.5,1.5,0,0,0-3,0v4a1.5,1.5,0,0,0,3,0Z" style="fill: #868789"/>
  <path d="M11,2.5a1.5,1.5,0,0,0-3,0v4a1.5,1.5,0,0,0,3,0Z" style="fill: #868789"/>
  <path d="M28.4,5H25s0,0,0,0V6.32A2.62,2.62,0,0,1,22.74,9,2.51,2.51,0,0,1,20,6.5V5a0,0,0,0,0,0,0H12s0,0,0,0V6.32A2.62,2.62,0,0,1,9.74,9,2.51,2.51,0,0,1,7,6.5V5A0,0,0,0,0,7,5H3.61A2.59,2.59,0,0,0,1,7.56V10s0,0,0,1H31a10.25,10.25,0,0,1,0-1V7.63s0,0,0,0A2.59,2.59,0,0,0,28.4,5Z" style="fill: #b9251c"/>
  <path d="M10.7,18.48A4.54,4.54,0,1,0,15.23,23,4.54,4.54,0,0,0,10.7,18.48Z" style="fill: #6f7071"/>
  <path d="M24,20a3.88,3.88,0,0,1,1.49.29A4.3,4.3,0,0,0,25,18.48c-.56-.73-7.14-1-7.14-1l-7.59-.13s-.81.65.46.65A4.94,4.94,0,0,1,15.6,23c0,1.77,1.06,1.77,1.06,1.77h3.39a4.24,4.24,0,0,1,0-1.47A4.05,4.05,0,0,1,24,20Z" style="fill: #e1001a"/>
  <path d="M25.57,20.83a3.54,3.54,0,0,0-5,2.49,4,4,0,0,0-.07.69,3.55,3.55,0,1,0,5.1-3.18Z" style="fill: #6f7071"/>
  <circle cx="10.7" cy="23.02" r="2.9" style="fill: #fff"/>
  <circle cx="24.01" cy="24.01" r="2.27" style="fill: #fff"/>
  <g>
    <path d="M3.61,5A2.59,2.59,0,0,0,1,7.56V10s0,0,0,1H2V7.58A1.61,1.61,0,0,1,3.61,6H7V5Z" style="fill: #881e17"/>
    <path d="M31,7.6A2.59,2.59,0,0,0,28.4,5H25V6H28.4A1.6,1.6,0,0,1,30,7.6v.18h0V9.91s0,0,0,1.09h1a10.25,10.25,0,0,1,0-1V7.63S31,7.61,31,7.6Z" style="fill: #881e17"/>
    <rect x="12.01" y="5" width="8" height="1" style="fill: #881e17"/>
  </g>
  <path d="M16.21,23a5.51,5.51,0,0,0-8.92-4.34" style="fill: none;stroke: #e1001a;stroke-linecap: round;stroke-linejoin: round"/>
  <polyline points="10.58 13.38 16.31 13.38 17.3 18.48" style="fill: none;stroke: #e1001a;stroke-linecap: round;stroke-linejoin: round"/>
  <line x1="11.61" y1="13.38" x2="11.09" y2="17.5" style="fill: none;stroke: #e1001a;stroke-linecap: round;stroke-linejoin: round"/>
</svg>
