<svg id="a9316511-f9f9-47cf-841c-d8805f660943" data-name="Calque 1" xmlns="http://www.w3.org/2000/svg" width="16" height="16" viewBox="0 0 16 16">
  <title>keys-17-3398ACDC</title>
  <g>
    <path d="M3,8.17A2.43,2.43,0,0,1,4.53,3.85H7.81a2.4,2.4,0,0,1,1.37.43,2.47,2.47,0,0,1,.84,1,2.43,2.43,0,0,1,.22,1,2.36,2.36,0,0,1-.22,1A2.45,2.45,0,0,1,7.81,8.71H7.2a1.42,1.42,0,0,0,0,2h.61a4.42,4.42,0,0,0,3.92-2.4,4.33,4.33,0,0,0,.36-1,4.2,4.2,0,0,0,.15-1.08,4.73,4.73,0,0,0-.1-.93,5.36,5.36,0,0,0-.39-1.06A4.43,4.43,0,0,0,7.81,1.85H4.53a4.43,4.43,0,0,0-1.7,8.52c0-.21,0-.43,0-.66A5.62,5.62,0,0,1,3,8.17Z" style="fill: #5bab26"/>
    <path d="M15.93,9.71A4.44,4.44,0,0,0,13.2,5.62c0,.22,0,.44,0,.66A5.28,5.28,0,0,1,13,7.83a2.39,2.39,0,0,1,.92,1.88,2.43,2.43,0,0,1-2.43,2.43H8.22A2.43,2.43,0,0,1,6,10.71a2.36,2.36,0,0,1-.22-1A2.44,2.44,0,0,1,8.22,7.28h.61a1.42,1.42,0,0,0,0-2H8.22A4.42,4.42,0,0,0,3.94,8.63a4.33,4.33,0,0,0-.15,1.08,4.83,4.83,0,0,0,.1.94,4.44,4.44,0,0,0,4.33,3.49H11.5A4.43,4.43,0,0,0,15.93,9.71Z" style="fill: #5bab26"/>
  </g>
</svg>
