<svg id="e728399c-bcda-4e73-9068-9d2d3cdd4c6e" data-name="Calque 1" xmlns="http://www.w3.org/2000/svg" width="32" height="32" viewBox="0 0 32 32">
  <title>meteo-64-IconeMeteusNuageux</title>
  <path d="M15.36.28a10.17,10.17,0,0,1,10.23,10.1,10.23,10.23,0,0,1-20.46,0A10.17,10.17,0,0,1,15.36.28" style="fill: #d3d2d2"/>
  <path d="M5.13,10.32A5.08,5.08,0,1,1,.05,15.4a5.08,5.08,0,0,1,5.08-5.08" style="fill: #d3d2d2"/>
  <path d="M14.85,1.49a10.16,10.16,0,0,1,10.23,10.1,11.8,11.8,0,0,1-.32,2.61,10.42,10.42,0,0,0,.83-3.94A10.23,10.23,0,0,0,5.51,7.65a10.25,10.25,0,0,1,9.34-6.16" style="fill: #b9b9b9"/>
  <path d="M25.08,6.89a6.8,6.8,0,1,1-6.8,6.8,6.79,6.79,0,0,1,6.8-6.8" style="fill: #d3d2d2"/>
  <path d="M25.08,19.15a6.76,6.76,0,0,1-4.32-1.52,10,10,0,0,1-5.4,1.52,10,10,0,0,1-6.1-2,5,5,0,0,1-4.06,2A5.06,5.06,0,0,1,.18,15a3.25,3.25,0,0,0-.07.82,5.08,5.08,0,0,0,9.15,3,10.21,10.21,0,0,0,6.1,2,10.51,10.51,0,0,0,5.4-1.53,6.81,6.81,0,0,0,11.11-5.27,3.6,3.6,0,0,0-.06-.83,6.69,6.69,0,0,1-6.73,5.91" style="fill: #b9b9b9"/>
  <path d="M19.17,16.1a7.82,7.82,0,1,1-7.88,7.81,7.85,7.85,0,0,1,7.88-7.81" style="fill: #d3d2d2"/>
  <path d="M11.29,23.91a3.88,3.88,0,1,1-3.94,3.88,3.91,3.91,0,0,1,3.94-3.88" style="fill: #d3d2d2"/>
  <path d="M18.79,17.05a7.87,7.87,0,0,1,7.88,7.82,7.16,7.16,0,0,1-.26,2,8.2,8.2,0,0,0,.64-3A7.82,7.82,0,0,0,19.17,16a7.93,7.93,0,0,0-7.62,5.78,7.89,7.89,0,0,1,7.24-4.77" style="fill: #b9b9b9"/>
  <path d="M26.67,21.25a5.21,5.21,0,1,1-5.21,5.21,5.2,5.2,0,0,1,5.21-5.21" style="fill: #d3d2d2"/>
  <path d="M26.67,30.65a5.06,5.06,0,0,1-3.31-1.21,7.66,7.66,0,0,1-4.13,1.21,7.49,7.49,0,0,1-4.7-1.59,3.9,3.9,0,0,1-7-1.65,1.94,1.94,0,0,0-.07.63,3.91,3.91,0,0,0,7,2.29,7.7,7.7,0,0,0,8.83.38,5.06,5.06,0,0,0,3.31,1.21,5.19,5.19,0,0,0,5.2-5.21,2.32,2.32,0,0,0-.06-.64,5.11,5.11,0,0,1-5.14,4.58" style="fill: #b9b9b9"/>
</svg>
