<svg id="f560c14f-3d38-4895-8b7d-1d78244854f5" data-name="Calque 1" xmlns="http://www.w3.org/2000/svg" width="32" height="32" viewBox="0 0 32 32">
  <title>vehicles-53-IconeLivraison</title>
  <g>
    <path d="M.78,4.37H21.37A.67.67,0,0,1,22,5V7a.29.29,0,0,0,0,.09V19.54h-.64v.06H.78v-.06H.12V5a.66.66,0,0,1,.66-.66" style="fill: #fac262"/>
    <path d="M24.69,24.31a1.53,1.53,0,0,1,.12-.66,1.48,1.48,0,0,1,.58-.66,1.42,1.42,0,0,1,.74-.21,1.46,1.46,0,0,1,.75.21,1.48,1.48,0,0,1,.58.66,1.4,1.4,0,0,1,.12.58,1.48,1.48,0,0,1-1.45,1.45,1.45,1.45,0,0,1-1.44-1.37m-2-.66a3.68,3.68,0,0,0-.05.58,3.46,3.46,0,0,0,6.91.08,4,4,0,0,0-.05-.66,3.57,3.57,0,0,0-.18-.66,3.51,3.51,0,0,0-2.18-2.06,3.49,3.49,0,0,0-2.09,0A3.46,3.46,0,0,0,22.91,23,3.57,3.57,0,0,0,22.73,23.65Z" style="fill: #6f6f6f"/>
    <path d="M24,14.1V10.25h4.39A6.33,6.33,0,0,1,30.3,14.1H24M12,23a5.13,5.13,0,0,1,.13.66,3.68,3.68,0,0,1,.05.58l9.64.08a5.68,5.68,0,0,1,0-.66A5.18,5.18,0,0,1,22,23a4.35,4.35,0,0,1,1.35-2.06h0a3.43,3.43,0,0,1,1-.66,5.15,5.15,0,0,1,.89-.29,4.24,4.24,0,0,1,.88-.09A4.33,4.33,0,0,1,27,20a5,5,0,0,1,.88.29,4.48,4.48,0,0,1,1,.66A4.43,4.43,0,0,1,30.29,23a5.13,5.13,0,0,1,.13.66,3.68,3.68,0,0,1,0,.58l.71.08a.66.66,0,0,0,.66-.66V20.27a.66.66,0,0,0-.17-.43V14.92a7.59,7.59,0,0,0-2.61-5.85.73.73,0,0,0-.4-.13H23.37a.66.66,0,0,0-.48.22V20a.41.41,0,0,1-.12.29h-.05a.31.31,0,0,1-.27.15H9.9a5.3,5.3,0,0,1,.73.51A4.43,4.43,0,0,1,12,23Z" style="fill: #5b83b6"/>
    <path d="M6.38,24.31a1.53,1.53,0,0,1,.12-.66A1.48,1.48,0,0,1,7.08,23a1.43,1.43,0,0,1,1.49,0,1.48,1.48,0,0,1,.58.66,1.4,1.4,0,0,1,.12.58,1.48,1.48,0,0,1-1.45,1.45,1.45,1.45,0,0,1-1.44-1.37m-2-.66a3.68,3.68,0,0,0,0,.58,3.46,3.46,0,0,0,6.91.08,4,4,0,0,0,0-.66,3.57,3.57,0,0,0-.18-.66,3.51,3.51,0,0,0-2.18-2.06,3.49,3.49,0,0,0-2.09,0A3.46,3.46,0,0,0,4.6,23,3.57,3.57,0,0,0,4.42,23.65Z" style="fill: #6f6f6f"/>
    <path d="M6.05,20.27l-.3.15a4.76,4.76,0,0,0-.73.51A4.35,4.35,0,0,0,3.67,23a5.18,5.18,0,0,0-.14.66,5.68,5.68,0,0,0,0,.66H2.11a.66.66,0,0,1-.66-.66v-3.4H6.1" style="fill: #5b83b6"/>
  </g>
</svg>
