<svg id="a4b13cde-6441-48fb-8aa3-e3717bd7bca5" data-name="Calque 1" xmlns="http://www.w3.org/2000/svg" width="32" height="32" viewBox="0 0 32 32">
  <title>sign-66-IconeToxique</title>
  <g>
    <rect width="32" height="32" style="fill: #f90"/>
    <path d="M31,1V31H1V1H31m1-1H0V32H32V0Z"/>
  </g>
  <g>
    <path d="M8.85,14.73S7,11.68,7.14,9s5-6.29,8-6.13,9.54,1.52,9.25,7.27a3.93,3.93,0,0,1-1.62,3.59s1.3,5-2,6c-.83,1.43-2.19,2-4.58,2S12.92,21,12.13,20,9.39,18.8,9.39,17.59A9.52,9.52,0,0,0,8.85,14.73Z" style="fill: none;stroke: #000;stroke-linejoin: round;stroke-width: 0.953199685623375px"/>
    <path d="M14,13.24c-.51-.42-2.7-.92-3.08.12s-.76,3.37.63,3.88,2,.54,2.55-.73,1-1.84.57-2.22a3.73,3.73,0,0,1-.67-1"/>
    <path d="M17.24,14.73c-.59-.15-.22-1.4.45-1.75s2-1.3,3.21,0,.66,3.53-.26,3.94-2.22.76-2.32,0-.35-2-1.08-2.19"/>
    <path d="M14.6,19.62c-.42-.58-.06-2.92,1.24-3.24s2.58,3.3,1.56,3.56c-.86.22-1.17,0-1.17,0s-.58,1.11-1.63-.32"/>
    <path d="M8.09,12.86A1.44,1.44,0,0,0,8.66,12c.1-.58-.12-3.28.32-3.28s.7,0,.8,1.88a31,31,0,0,1-.29,5.49c-.16.58-1.4-3.2-1.4-3.2"/>
    <path d="M22.83,15.46a16.74,16.74,0,0,1-1.11-2.76c0-.54.41-2.48.19-3s-.47-1.24.07-1.24a1.22,1.22,0,0,1,1.17,1.34c0,.88-.67,3.08.16,3.3-.22.32-.32.44-.32.44l-.16,1.91"/>
    <path d="M11.2,19.5S10,28.33,16.86,27.85c6.39-.41,4.8-8.35,4.8-8.35" style="fill: none;stroke: #000;stroke-linejoin: round;stroke-width: 0.953199685623375px"/>
    <path d="M14.26,22.39c-.18.11-.59.09-.61-.07s.11-.36.48-.28.3.24.13.35m1.36.46c-.16.14-.65.22-.68-.19s.09-.45.38-.42S15.78,22.71,15.62,22.85Zm1.45.24c-.1.06-.88.23-.83-.32.05-.27.24-.75.84-.45S17.16,23,17.07,23.09Zm1.16-.32c-.08.17-.38.41-.45.17s-.27-.78.16-.82S18.31,22.59,18.23,22.77Zm1.05-.51a.24.24,0,0,1-.39,0c-.1-.19-.08-.4.23-.46S19.32,22.16,19.28,22.26Zm-5.23,2.16a.65.65,0,0,1-.11-.68c0-.27.47-.11.47.05S14.24,24.63,14.05,24.42Zm1.14.51c-.14-.16-.32-.68,0-.95s.53.19.53.57S15.34,25.09,15.19,24.93Zm1.35-.06a.61.61,0,0,1-.25-.86c.17-.29.55-.07.57.22S16.83,25,16.54,24.87Zm1.13-.21c-.25-.16-.32-.76,0-.86s.52.05.51.33S17.92,24.82,17.67,24.66Zm.87-.62a.58.58,0,0,1,.21-.64c.24-.07.72.31.46.54S18.59,24.23,18.54,24Zm-2.2-2.32c-2.69-.21-5.06-2.08-5.06-1.76,0,0,.26,5.91,5.22,5.64S21.55,21,21.55,21l-.18-1.41S19,21.93,16.34,21.72Z"/>
    <path d="M10.77,19.56s-3.48-1.19-4-1.86S3.88,15.32,4,16.87s.19,1.26.19,1.26-1.09.6-1,1,.63,1.25,2.57.52c1.14-.43,4.86,2.05,5.15,2.24A8.19,8.19,0,0,0,10.77,19.56Z" style="fill: none;stroke: #000;stroke-linejoin: round;stroke-width: 0.953199685623375px"/>
    <path d="M11.27,24.16S8.17,26,7.36,25.87s-2.95,0-2,1.22c.58.76,1,.52,1,.52s-.27,1.74.64,1.46.83-1.36,1.91-1.67S12.29,26,12.29,26Z" style="fill: none;stroke: #000;stroke-linejoin: round;stroke-width: 0.953199685623375px"/>
    <path d="M22.06,21.56c-.59-3.19.77-2.64.27-2.5a9.56,9.56,0,0,0,3.31-1.57c.81-.89,2.21-2.29,2.21.38,1.22.05,1.34,1.12,1,1.28a14.8,14.8,0,0,0-2.86.62C24.71,20.35,22.07,21.61,22.06,21.56Z" style="fill: none;stroke: #000;stroke-linejoin: round;stroke-width: 0.953199685623375px"/>
    <path d="M21.71,24.23a40.5,40.5,0,0,0,3.95,1.95c.36,0,2.79-.41,2.34.74-.34.86-1.1.36-.5,1.29.43.67-1,1.76-1.74.83a14.56,14.56,0,0,0-4.91-2.83A14.35,14.35,0,0,0,21.71,24.23Z" style="fill: none;stroke: #000;stroke-linejoin: round;stroke-width: 0.953199685623375px"/>
  </g>
</svg>
