<svg id="e41c3f8f-b466-4a62-918a-f13e5f6be670" data-name="Calque 1" xmlns="http://www.w3.org/2000/svg" width="32" height="32" viewBox="0 0 32 32">
  <title>field-92-IconeZNT</title>
  <polygon points="15.17 30.57 30.19 8.21 12.89 1.38 1.42 18.17 15.17 30.57" style="fill: #fff;stroke: #77787a;stroke-miterlimit: 10"/>
  <g>
    <path d="M7.45,22.64c.06-.34.14-.66.21-1l-1.72-.4a19.32,19.32,0,0,1,1-3.2l1.63.67a8.65,8.65,0,0,1,.46-1l-1.54-.86c.11-.2.23-.39.34-.56A18.45,18.45,0,0,1,9.6,14.08l1.28,1.2c.24-.26.48-.5.73-.73l-1.19-1.28A16.07,16.07,0,0,1,13.2,11.2l.89,1.51c.3-.18.6-.34.9-.5l-.8-1.55a27.24,27.24,0,0,1,3-1.28L17.76,11l.94-.35L18.08,9c.61-.23,1.18-.44,1.75-.67a1,1,0,0,0,.26-.15l1.06,1.37a4.48,4.48,0,0,0,.6-.56L20.43,7.88a6.91,6.91,0,0,0,1-1.85l1.62.66c.09-.21.16-.43.24-.65L13.08,2l-11,16.1,5,4.47Z" style="fill: none"/>
    <path d="M26.1,7.92a11.49,11.49,0,0,1-1.88,3.22L22.88,10a5.39,5.39,0,0,1-.82.77l1.09,1.4a6.13,6.13,0,0,1-1.46.84c-.61.25-1.23.47-1.84.7l-.62-1.63-.94.35.62,1.63a22.89,22.89,0,0,0-2.44,1.06l-.8-1.56c-.27.14-.55.29-.82.45l.9,1.5a11.78,11.78,0,0,0-1.93,1.43l-1.19-1.28c-.22.21-.44.42-.66.65l1.28,1.2A13.54,13.54,0,0,0,12,19.14l-.12.2-1.52-.84a8.59,8.59,0,0,0-.39.8l1.61.67a15.6,15.6,0,0,0-.73,2.41L9.1,22c-.07.3-.13.61-.19.93l1.72.33c-.14.72-.25,1.48-.33,2.25l4.78,4.31L29.43,8.45,24.72,6.59c-.08.22-.16.44-.25.66Z" style="fill: none"/>
    <path d="M10.88,15.28,9.6,14.08a18.45,18.45,0,0,0-1.79,2.27c-.11.17-.23.36-.34.56L9,17.77c.08-.15.17-.32.25-.44A15.26,15.26,0,0,1,10.88,15.28Z" style="fill: #b71236"/>
    <path d="M7,22.56l.37.34a2,2,0,0,1,0-.26Z" style="fill: #b71236"/>
    <path d="M6.92,18.06a19.32,19.32,0,0,0-1,3.2l1.72.4a19.47,19.47,0,0,1,.89-2.93Z" style="fill: #b71236"/>
    <path d="M13.82,16.93a11.78,11.78,0,0,1,1.93-1.43l-.9-1.5a13.28,13.28,0,0,0-2.22,1.65Z" style="fill: #b71236"/>
    <path d="M10.81,22.38A15.6,15.6,0,0,1,11.54,20L9.93,19.3A16.32,16.32,0,0,0,9.1,22Z" style="fill: #b71236"/>
    <path d="M16.47,15.11a22.89,22.89,0,0,1,2.44-1.06l-.62-1.63a23.25,23.25,0,0,0-2.62,1.13Z" style="fill: #b71236"/>
    <path d="M24.22,11.14A11.49,11.49,0,0,0,26.1,7.92l-1.63-.67A10.1,10.1,0,0,1,22.88,10Z" style="fill: #b71236"/>
    <path d="M8.91,22.92c-.07.37-.13.76-.19,1.16L10.3,25.5c.08-.77.19-1.53.33-2.25Z" style="fill: #b71236"/>
    <path d="M10.32,18.5l1.52.84.12-.2a13.54,13.54,0,0,1,1.29-1.64L12,16.3a15.23,15.23,0,0,0-1.46,1.86A3.72,3.72,0,0,0,10.32,18.5Z" style="fill: #b71236"/>
    <path d="M20.48,10a2.74,2.74,0,0,0,.67-.41L20.09,8.21a1,1,0,0,1-.26.15c-.57.23-1.14.44-1.75.67l.62,1.63.08,0Z" style="fill: #b71236"/>
    <path d="M17.14,9.38a27.24,27.24,0,0,0-3,1.28l.8,1.55A26.64,26.64,0,0,1,17.76,11Z" style="fill: #b71236"/>
    <path d="M21.47,6a6.91,6.91,0,0,1-1,1.85L21.75,9a8.69,8.69,0,0,0,1.34-2.33Z" style="fill: #b71236"/>
    <path d="M13.2,11.2a16.07,16.07,0,0,0-2.78,2.07l1.19,1.28a15.12,15.12,0,0,1,2.48-1.84Z" style="fill: #b71236"/>
    <path d="M19.3,12l-.07,0,.62,1.63c.61-.23,1.23-.45,1.84-.7a6.13,6.13,0,0,0,1.46-.84l-1.09-1.4a4.28,4.28,0,0,1-1,.62Z" style="fill: #b71236"/>
    <path d="M21.94,9.18,21.75,9a4.48,4.48,0,0,1-.6.56l.16.2A4.42,4.42,0,0,0,21.94,9.18Z" style="fill: #fff"/>
    <path d="M22.88,10l-.19-.16a6.05,6.05,0,0,1-.78.74l.15.19A5.39,5.39,0,0,0,22.88,10Z" style="fill: #fff"/>
    <path d="M19.23,12.07l-.09-.24-.94.35.09.24Z" style="fill: #fff"/>
    <path d="M18.79,10.9l-.09-.24-.94.35.09.24Z" style="fill: #fff"/>
    <path d="M12.63,15.65l-.17-.18c-.23.21-.45.43-.67.66l.18.17C12.19,16.07,12.41,15.86,12.63,15.65Z" style="fill: #fff"/>
    <path d="M11.78,14.74l-.17-.19c-.25.23-.49.47-.73.73l.18.17C11.3,15.2,11.54,15,11.78,14.74Z" style="fill: #fff"/>
    <path d="M24.47,7.25c.09-.22.17-.44.25-.66L24.5,6.5c-.08.22-.16.44-.25.66Z" style="fill: #fff"/>
    <path d="M23.33,6.79q.14-.33.24-.66L23.33,6c-.08.22-.15.44-.24.65Z" style="fill: #fff"/>
    <path d="M7.9,21.71l-.24-.05c-.07.32-.15.64-.21,1l.24.05C7.75,22.35,7.82,22,7.9,21.71Z" style="fill: #fff"/>
    <path d="M9.1,22l-.23-.06c-.07.31-.14.62-.2.94l.24.05C9,22.6,9,22.29,9.1,22Z" style="fill: #fff"/>
    <path d="M10.32,18.5l-.22-.12a7.17,7.17,0,0,0-.4.83l.23.09A8.59,8.59,0,0,1,10.32,18.5Z" style="fill: #fff"/>
    <path d="M9.23,17.89,9,17.77a8.65,8.65,0,0,0-.46,1l.23.1A9.22,9.22,0,0,1,9.23,17.89Z" style="fill: #fff"/>
    <path d="M15.67,13.55l-.11-.23c-.28.15-.56.3-.83.46l.12.22C15.12,13.84,15.4,13.69,15.67,13.55Z" style="fill: #fff"/>
    <path d="M15.1,12.44,15,12.21c-.3.16-.6.32-.9.5l.13.22C14.51,12.75,14.81,12.59,15.1,12.44Z" style="fill: #fff"/>
    <path d="M23.33,6.79l-.24-.1A8.69,8.69,0,0,1,21.75,9l.19.16A8.68,8.68,0,0,0,23.33,6.79Z" style="fill: #fff"/>
    <path d="M24.47,7.25l-.22-.09a10,10,0,0,1-1.56,2.67l.19.16A10.1,10.1,0,0,0,24.47,7.25Z" style="fill: #fff"/>
    <path d="M14.22,12.93l-.13-.22a15.12,15.12,0,0,0-2.48,1.84l.17.19A14.23,14.23,0,0,1,14.22,12.93Z" style="fill: #fff"/>
    <path d="M14.85,14l-.12-.22a13,13,0,0,0-2.27,1.69l.17.18A13.28,13.28,0,0,1,14.85,14Z" style="fill: #fff"/>
    <path d="M7.45,22.64a2,2,0,0,0,0,.26l.21.19c0-.14,0-.27.07-.4Z" style="fill: #fff"/>
    <path d="M8.67,22.87c-.06.33-.11.67-.17,1l.22.2c.06-.4.12-.79.19-1.16Z" style="fill: #fff"/>
    <path d="M10.51,18.16A15.23,15.23,0,0,1,12,16.3l-.18-.17A15,15,0,0,0,10.3,18c-.07.1-.13.24-.2.36l.22.12A3.72,3.72,0,0,1,10.51,18.16Z" style="fill: #fff"/>
    <path d="M9.47,17.47a16.33,16.33,0,0,1,1.59-2l-.18-.17a15.26,15.26,0,0,0-1.62,2c-.08.12-.17.29-.25.44l.22.12C9.31,17.75,9.39,17.59,9.47,17.47Z" style="fill: #fff"/>
    <path d="M8.78,18.83l-.23-.1a19.47,19.47,0,0,0-.89,2.93l.24.05A18,18,0,0,1,8.78,18.83Z" style="fill: #fff"/>
    <path d="M9.93,19.3l-.23-.09a16.75,16.75,0,0,0-.83,2.72L9.1,22A16.32,16.32,0,0,1,9.93,19.3Z" style="fill: #fff"/>
    <path d="M17.85,11.25,17.76,11A26.64,26.64,0,0,0,15,12.21l.11.23A24.3,24.3,0,0,1,17.85,11.25Z" style="fill: #fff"/>
    <path d="M18.29,12.42l-.09-.24a25.62,25.62,0,0,0-2.64,1.14l.11.23A23.25,23.25,0,0,1,18.29,12.42Z" style="fill: #fff"/>
    <path d="M18.86,10.87c.58-.21,1.15-.42,1.71-.65a3.08,3.08,0,0,0,.74-.44l-.16-.2a2.74,2.74,0,0,1-.67.41l-1.7.64-.08,0,.09.24Z" style="fill: #fff"/>
    <path d="M19.3,12,21,11.38a4.28,4.28,0,0,0,1-.62l-.15-.19a4.16,4.16,0,0,1-1,.58c-.57.23-1.15.44-1.73.66l-.07,0,.09.24Z" style="fill: #fff"/>
    <path d="M21.94,9.18a4.42,4.42,0,0,1-.63.6,3.08,3.08,0,0,1-.74.44c-.56.23-1.13.44-1.71.65l-.07,0-.94.35a24.3,24.3,0,0,0-2.75,1.19c-.29.15-.59.31-.88.49a14.23,14.23,0,0,0-2.44,1.81c-.24.22-.48.46-.72.71a16.33,16.33,0,0,0-1.59,2c-.08.12-.16.28-.24.42a9.22,9.22,0,0,0-.45.94,18,18,0,0,0-.88,2.88c-.08.32-.15.64-.21,1,0,.13-.05.26-.07.4l.88.79c.06-.34.11-.68.17-1s.13-.63.2-.94a16.75,16.75,0,0,1,.83-2.72,7.17,7.17,0,0,1,.4-.83c.07-.12.13-.26.2-.36a15,15,0,0,1,1.49-1.89c.22-.23.44-.45.67-.66a13,13,0,0,1,2.27-1.69c.27-.16.55-.31.83-.46a25.62,25.62,0,0,1,2.64-1.14l.94-.35.07,0c.58-.22,1.16-.43,1.73-.66a4.16,4.16,0,0,0,1-.58,6.05,6.05,0,0,0,.78-.74,10,10,0,0,0,1.56-2.67c.09-.22.17-.44.25-.66l-.93-.37q-.11.33-.24.66A8.68,8.68,0,0,1,21.94,9.18Z" style="fill: #0499d1"/>
  </g>
</svg>
