<svg id="a4ebe74c-9a09-400f-b3a2-ee151927d159" data-name="Calque 1" xmlns="http://www.w3.org/2000/svg" width="32" height="32" viewBox="0 0 32 32">
  <title>animals-60-IconeLapin</title>
  <g>
    <path d="M15,29.18c0,.57-1,.91-2.17.91s-2.16-.21-2.16-.82a2,2,0,0,1,2.16-1.73C14,27.54,15,28.17,15,29.18Z" style="fill: #9f897b"/>
    <path d="M19.34,29.18c0,.57-1,.91-2.17.91S15,29.88,15,29.27a2,2,0,0,1,2.17-1.73C18.37,27.54,19.34,28.17,19.34,29.18Z" style="fill: #9f897b"/>
    <circle cx="18.93" cy="16.32" r="0.49" style="fill: #9f897b"/>
    <path d="M21.54,12.86a10.15,10.15,0,0,0,2.77-2.17c2-2.21,4.3-6.95,2.15-8.09-1-.55-2.49,3.11-4.83,4.54-1.23.75-3.36,2.77-3.39,4.32a8.47,8.47,0,0,0-1-.1A4,4,0,0,0,15,7.75C12.74,6.39,11,1.08,9.81,2c-1.44,1.12-1.15,5.43.76,8.55.32.52.63,1,.93,1.45C8.77,14.66,6,18.14,6,21.88a5.7,5.7,0,0,0,.88,3.24,2.58,2.58,0,0,0-1.78,2.39,2.68,2.68,0,0,0,2.77,2.58,2.89,2.89,0,0,0,1.91-.72s0-.07,0-.1a2.65,2.65,0,0,1,2.37-2.53h0l.45,0H13l.42,0,.15,0a3.15,3.15,0,0,1,.44.11l.06,0a2.89,2.89,0,0,1,.47.2h0a3.41,3.41,0,0,1,.44.3h0a3.28,3.28,0,0,1,2.15-.73,3,3,0,0,1,2.72,1.37,9.33,9.33,0,0,0,3-3.09,12.49,12.49,0,0,1-1.37-.16,9.37,9.37,0,0,1-2-.62,5.51,5.51,0,0,1-1.7-1.12,5.34,5.34,0,0,1-2-.91,4.41,4.41,0,0,1-1.42-1.87A6.64,6.64,0,0,1,14,18.06c-.05-.75.09-1.5.1-2.22.06.72,0,1.47.13,2.2a6.27,6.27,0,0,0,.63,2.05,4.07,4.07,0,0,0,3.32,2.12h.11l.16.13a4.75,4.75,0,0,0,1.52.79,8.16,8.16,0,0,0,1.77.35,12.51,12.51,0,0,0,2.8-.11c.07-.08.15-.15.22-.24a2.5,2.5,0,0,1-1.89-2,2.17,2.17,0,0,0,1.66,1,1.92,1.92,0,0,0,.79-.15,6,6,0,0,0,.21-1.64A9.07,9.07,0,0,0,21.54,12.86Zm-7,.07C13,13.29,11,11.21,10.1,8.71s-1.33-5.6,0-5.44c1,.12,2.44,3.71,4.42,5.8S16,12.57,14.52,12.93Zm5.51,4c-.27.61-.74.52-1.35.25s-1.11-.63-.84-1.23a1.19,1.19,0,0,1,1.58-.61A1.21,1.21,0,0,1,20,16.89Zm.1-4.87a3.29,3.29,0,0,1,1.2-2.44c2.84-1.83,4.37-5.7,4.88-5.34,1.07.75-.71,4.88-2.29,6a26,26,0,0,0-2.64,2.23Z" style="fill: #9f897b"/>
  </g>
</svg>
