<svg id="ff764fca-9c34-4951-884a-dfd2451e58fc" data-name="Calque 1" xmlns="http://www.w3.org/2000/svg" width="32" height="32" viewBox="0 0 32 32">
  <title>phyto-62-IconeBactericide</title>
  <path d="M2.4,5.07V3.77A1.09,1.09,0,0,1,3.49,2.69H5.31A1.09,1.09,0,0,1,6.39,3.77v1.3" style="fill: #6e6a69"/>
  <path d="M22.41,12.2c.46-.49.48-.48.36.18l-.23,1.18a5.76,5.76,0,0,1,.72.56l.27-.16c.6-.33,1.77-1,2.35-1.3s.6-.31.29.28-1,1.76-1.3,2.36a4,4,0,0,1-.3.51c.12.23.23.48.33.73l.58-.05c.66-.06.67,0,.14.37l-.51.4a6.86,6.86,0,0,1,.14.79l.49.13,2.59.76c.64.19.64.21,0,.4l-2.59.74a1.81,1.81,0,0,1-.66.12,4.75,4.75,0,0,1-.2.64l1,1.31c.27.36.27.37-.16.22l-1.35-.5c-.12.19-.25.38-.39.56l.1.17c.33.6,1,1.77,1.29,2.36s.31.61-.28.29-1.76-1-2.35-1.31l-.24-.14a6,6,0,0,1-2.45.94c-.19.69-.52,1.85-.7,2.44s-.2.65-.4,0-.52-1.74-.71-2.43a6.06,6.06,0,0,1-2.44-.92l-.25.14c-.59.34-1.76,1-2.35,1.31s-.6.31-.28-.28,1-1.77,1.29-2.37a.89.89,0,0,0,.09-.16c-.13-.17-.25-.34-.37-.53l-1.33.49c-.43.16-.43.15-.16-.22l1-1.27c-.09-.24-.17-.48-.24-.73-.1,0-.27-.06-.55-.13l-2.59-.74c-.64-.19-.64-.21,0-.4s1.93-.57,2.59-.76l.39-.11a6.11,6.11,0,0,1,.28-1.35l-.42-.35c-.51-.43-.51-.44.16-.37l.53.07c.08-.17.16-.33.25-.49a2.68,2.68,0,0,1-.34-.54c-.34-.59-1-1.76-1.31-2.35s-.31-.6.28-.28,1.77,1,2.37,1.29l.4.24a5.88,5.88,0,0,1,.81-.57l-.14-.88c-.09-.66-.08-.67.37-.17l.57.66a6.35,6.35,0,0,1,1.31-.37l.08-.31c.18-.66.55-1.94.74-2.59s.2-.64.4,0,.57,1.93.76,2.59l.08.33a6,6,0,0,1,1.4.42l.8-.85" style="fill: #c64c45;fill-rule: evenodd"/>
  <path d="M12,10.2a2.86,2.86,0,0,1,1.39.44l.71.38a2.07,2.07,0,0,1,1.78-1,2.11,2.11,0,0,1,.87.18c.11-.38.21-.74.29-1a2.28,2.28,0,0,1,2.12-1.92,2.27,2.27,0,0,1,2.11,1.9c.09.28.21.68.33,1.1a2.13,2.13,0,0,1,.75-.32L22,4a1.4,1.4,0,0,0-1.4-1.4H12.12c-2.77,0-2.55,3.93-5.83,3.93H2.43A1.4,1.4,0,0,0,1,8L.49,12.56V22.74l.55,6a1.4,1.4,0,0,0,1.39,1.4H20.58a1.4,1.4,0,0,0,1.4-1.4l.25-2.57a5.42,5.42,0,0,1-.56.22c-.15.5-.29,1-.39,1.34a2.28,2.28,0,0,1-2.12,1.92,2.27,2.27,0,0,1-2.11-1.9l-.4-1.35a5.64,5.64,0,0,1-.81-.31L14.17,27a2.84,2.84,0,0,1-1.41.45,2.07,2.07,0,0,1-1.75-1,2.27,2.27,0,0,1,.11-2.36,2.07,2.07,0,0,1-.64-.74,2,2,0,0,1,0-1.86l-1-.29a2.28,2.28,0,0,1-1.91-2.11A2.29,2.29,0,0,1,9.47,17l1.17-.34a2,2,0,0,1,.36-2l-.58-1.06a2.35,2.35,0,0,1-.17-2.46A2.1,2.1,0,0,1,12,10.2Zm1.9-6h4.74a1,1,0,1,1,0,2.1H13.91a1,1,0,0,1,0-2.1Z" style="fill: #ccc"/>
</svg>
