<svg id="fdf126ef-5aa6-4f44-b147-5e161b837a29" data-name="Calque 1" xmlns="http://www.w3.org/2000/svg" width="32" height="32" viewBox="0 0 32 32">
  <title>sign-54-IconeDangerSanteSGH08</title>
  <rect x="5.83" y="5.83" width="20.35" height="20.35" transform="translate(-6.63 16) rotate(-45)" style="fill: #fff"/>
  <path d="M16,32a.7.7,0,0,1-.47-.19L.2,16.47A.63.63,0,0,1,0,16a.65.65,0,0,1,.2-.47L15.53.2a.66.66,0,0,1,.94,0L31.81,15.53a.68.68,0,0,1,0,.94L16.47,31.81A.67.67,0,0,1,16,32ZM1.61,16,16,30.39,30.39,16,16,1.61Z" style="fill: #d10000"/>
  <g>
    <path d="M9.8,18.41l6.48,6.48,6.59-6.58V16.75a6.14,6.14,0,0,0-2.44-1.35c-1.6-.49-2.47-.73-2.47-.73v-1a9.77,9.77,0,0,0,1.26-4,3.49,3.49,0,0,0-3-3.2,3,3,0,0,0-2.87,3.25,6.45,6.45,0,0,0,1.22,3.93v.83s-2,.58-2.77.92a19.06,19.06,0,0,0-2,1.26l.05,1.75"/>
    <polyline points="16.38 12.59 16.25 13.56 15.93 14.4 16.12 15.51 15.73 16.8 14.89 16.54 14.11 16.67 13.21 16.02 12.43 15.76 11.33 15.18 12.3 16.28 13.34 16.93 14.82 17.77 14.7 18.61 14.24 19.13 13.6 19.32 11.46 20.81 13.14 20.29 14.44 19.71 15.15 19.39 15.79 19.45 15.79 21.2 15.99 22.62 15.99 24.11 15.93 25.54 16.38 25.47 16.51 24.5 16.57 21.39 16.83 19.71 17.22 19.39 18.45 19.97 19.81 20.36 21.04 21.65 20.65 20.23 19.55 19.58 18.71 19 18 18.48 18 18.03 18.71 17.12 20.13 16.41 22.01 14.92 19.61 15.96 18.58 16.54 17.35 17.19 16.9 16.8 16.83 15.51 16.7 14.28 16.38 12.59" style="fill: #fff"/>
    <polyline points="15.08 18.41 15.06 18.17 15.23 17.95 15.47 17.93 15.76 18.17 15.64 18.54 15.36 18.65 15.08 18.41"/>
    <polyline points="15.94 17.14 15.93 17.07 15.98 16.99 16.06 16.99 16.16 17.07 16.12 17.19 16.03 17.22 15.94 17.14"/>
    <polyline points="14.51 16.98 14.5 16.9 14.56 16.83 14.64 16.82 14.73 16.9 14.69 17.02 14.6 17.05 14.51 16.98"/>
    <polyline points="17.17 17.61 17.16 17.45 17.27 17.31 17.43 17.3 17.61 17.45 17.54 17.69 17.36 17.76 17.17 17.61"/>
    <polyline points="16.28 19.25 16.27 19.21 16.3 19.17 16.34 19.17 16.39 19.21 16.37 19.27 16.33 19.29 16.28 19.25"/>
  </g>
</svg>
