<svg id="f6fc3cf9-405f-43df-aaac-72752ea61047" data-name="Calque 1" xmlns="http://www.w3.org/2000/svg" width="32" height="32" viewBox="0 0 32 32">
  <title>products-81-IconeMineraux</title>
  <g>
    <path d="M1.09,23s-.11-.74.13-.83a.37.37,0,0,1,.5.31c0,.18-.46.77-.63.52M.27,23s.21-.35.41-.26,0,.39,0,.39A.88.88,0,0,1,.27,23Zm2.4.3a.22.22,0,0,0-.2-.19c-.35-.06-1,.4-.84,0s1.06-.35.91-1,0-1.37.3-1,.59.22.83-.24S4,20,4.19,20s.27.17.6-.64.34-1.48.82-1.66.62-.09,1-1.3-.18-1.74.53-1.83,1.05-.2,1.25-.86.41-1.24.86-1.11,0-1.14.55-1,.7-.44,1.16-.93.59-.53.85-.21,0-.39.21-.85a.56.56,0,0,1,.21-.27c.33-.25.47-.88.63-1.2s.18-.26.31-.14a.2.2,0,0,0,.18,0c.35-.06.77-.92,1-.48a.82.82,0,0,0,.28.35A1.28,1.28,0,0,0,15.64,8h0c.59-.17,1-.24,1.15.28s.27,1,1.08.71a.89.89,0,0,1,1.3.65c.06.43.65-.65,1.09,0s1,.63,1.15.83.12,1.39.43,1.6.48-.85.78-.21.36,1.12.75,1,.52.33.6.69a.46.46,0,0,0,.75.19c.16-.19-.17.27-.1,1.1s.56.57.85.7.93,2,.67,2.23.19.72.56.73.45.18.44.53-.14,1.1.35,1.39.57-.09,1-.27,1,.63.9,1.22.38.21.66.06.28-.19.36.21.28.37.51.26.16.16.41.37.9.39.53.41-.39.2-.69.22a.9.9,0,0,1-.27,0c-.52-.1-.67.41-.81.52s-.7-.26-.92-.59,0,.29-.18.58a.37.37,0,0,1-.38.19c-.73,0-.58.53-1.17.35s-.63-1.13-1.25-1A2.2,2.2,0,0,1,25,23L24.85,23a1.07,1.07,0,0,1-.22-.15c-.47-.42-1.23-.21-1.31.22s-.86-.23-1,.75-.49-.57-.94,0-1.27.07-1.67-.46a1.08,1.08,0,0,0-1.78.28c-.34.78-1.16,0-1.49.26s-.59.17-1,.16-1-.55-1.06.39l0,.11c-.16.86-1.1,1.13-1.12.75s-.05-.4-.76-.31-1.73,0-1.63-.53-.21-.45-.38-.06-1.27.46-1.19.07.93-.83,1.27-.62.54.22.52-.09.13-.43.47-.34.52.1.6-.29a.19.19,0,0,0,0-.15l0,0c-.19-.13-.77,0-1.15.28s-.55.05-.89-.12-.58.49-1.08.63-.88-.23-1.38-.25a3.35,3.35,0,0,0-1.38.3,2.4,2.4,0,0,0-.28.14c-.14.06-.23.06-.38-.21a.63.63,0,0,0-1-.08c-.28.31-.72.53-.75.21s-.23-.84-.36-.45-.44.29-.64.08A.4.4,0,0,1,2.67,23.26Z" style="fill: #aaa"/>
    <path d="M13.53,16.93c-.26,0-.34.08-.41,0s-.1,0-.18-.16a3.37,3.37,0,0,0-.28-.44c-.08-.1-.22-.21-.21-.28s0-.2,0-.23a.94.94,0,0,1,.3-.16,1.56,1.56,0,0,1,.69.2c.12.13.19.14.19.33a1.25,1.25,0,0,1-.07.53.41.41,0,0,0-.06.17" style="fill: #d3d1cf"/>
    <path d="M16.16,11.35c-.26,0-.34.08-.42,0s-.1,0-.17-.16a3.37,3.37,0,0,0-.28-.44c-.08-.1-.23-.21-.21-.28s0-.2,0-.23a1,1,0,0,1,.3-.16,1.46,1.46,0,0,1,.69.21c.12.12.19.13.19.32a1.22,1.22,0,0,1-.07.53.41.41,0,0,0-.06.17" style="fill: #d3d1cf"/>
    <path d="M14.71,20.68c-.26.05-.34.08-.41.05s-.1,0-.18-.17a4,4,0,0,0-.28-.43c-.08-.1-.22-.22-.21-.28s0-.2,0-.24a.84.84,0,0,1,.3-.15,1.56,1.56,0,0,1,.69.2c.12.12.19.13.19.32a1.3,1.3,0,0,1-.07.54.34.34,0,0,0-.06.16" style="fill: #d3d1cf"/>
    <path d="M24,18.31c0-.26,0-.34.06-.41a.29.29,0,0,1,.21-.13,4,4,0,0,0,.49-.16c.12-.05.26-.16.32-.14l.22.09a1,1,0,0,1,.08.33,1.59,1.59,0,0,1-.37.62c-.15.09-.18.15-.36.11a1.42,1.42,0,0,1-.5-.2.39.39,0,0,0-.15-.11" style="fill: #d3d1cf"/>
    <path d="M18,14.77c0-.26,0-.34.06-.41s0-.09.2-.13a3.53,3.53,0,0,0,.49-.16c.12-.05.26-.16.32-.14l.22.09a1,1,0,0,1,.08.33A1.59,1.59,0,0,1,19,15c-.15.09-.17.15-.36.11a1.42,1.42,0,0,1-.5-.2.39.39,0,0,0-.14-.11" style="fill: #d3d1cf"/>
    <path d="M17.8,23.09c-.2-.17-.28-.2-.31-.28a.31.31,0,0,1,0-.25,3,3,0,0,0,.15-.49c0-.13,0-.31.08-.35a1.51,1.51,0,0,1,.2-.12.76.76,0,0,1,.31.12,1.69,1.69,0,0,1,.3.66c0,.17,0,.23-.12.35A1.37,1.37,0,0,1,18,23a.32.32,0,0,0-.17.06" style="fill: #d3d1cf"/>
    <path d="M16.65,15.19c-.2-.17-.27-.21-.3-.29s-.05-.09,0-.24a4,4,0,0,0,.15-.5c0-.12,0-.3.07-.34l.2-.12a.85.85,0,0,1,.32.12,1.5,1.5,0,0,1,.29.66c0,.17,0,.23-.12.35s-.36.3-.45.3a.37.37,0,0,0-.17.06" style="fill: #d3d1cf"/>
    <path d="M8.58,22.08c-.23.12-.3.18-.38.17s-.1,0-.22-.1a3.46,3.46,0,0,0-.4-.33c-.11-.07-.28-.13-.29-.2s0-.19,0-.23a.85.85,0,0,1,.23-.24,1.53,1.53,0,0,1,.72,0c.16.08.22.07.28.25a1.42,1.42,0,0,1,.11.53.38.38,0,0,0,0,.18" style="fill: #d3d1cf"/>
    <path d="M8.36,15.86C8.13,16,8.07,16,8,16s-.1,0-.22-.11a3.5,3.5,0,0,0-.4-.32c-.1-.07-.28-.13-.29-.2s0-.19,0-.23.18-.21.24-.24a1.52,1.52,0,0,1,.72,0c.15.08.22.07.28.25a1.34,1.34,0,0,1,.1.53.38.38,0,0,0,0,.18" style="fill: #d3d1cf"/>
    <path d="M28.44,22.44c-.23.13-.29.18-.38.18s-.1,0-.22-.11a3.5,3.5,0,0,0-.4-.32c-.1-.07-.28-.13-.29-.2s0-.2,0-.23.18-.21.24-.24a1.52,1.52,0,0,1,.72,0c.15.08.22.07.28.25a1.34,1.34,0,0,1,.1.53.34.34,0,0,0,0,.17" style="fill: #d3d1cf"/>
    <path d="M17,18.75c-.23.12-.3.18-.38.17s-.1,0-.22-.1a4.65,4.65,0,0,0-.4-.32c-.11-.07-.28-.13-.29-.2s0-.2,0-.23.17-.21.23-.25a1.55,1.55,0,0,1,.72,0c.16.07.22.06.28.24a1.42,1.42,0,0,1,.11.53.38.38,0,0,0,0,.18" style="fill: #d3d1cf"/>
    <path d="M21.52,11.23c0,.26,0,.34-.08.41a.26.26,0,0,1-.21.12,3,3,0,0,0-.5.14c-.12,0-.27.15-.33.12l-.21-.1a.81.81,0,0,1-.06-.33,1.64,1.64,0,0,1,.39-.61c.15-.08.18-.14.36-.08a1.23,1.23,0,0,1,.5.22.32.32,0,0,0,.14.11" style="fill: #d3d1cf"/>
    <path d="M17.51,15.56c0,.25,0,.34-.08.4s-.05.09-.21.12a4.11,4.11,0,0,0-.49.15c-.12,0-.27.15-.33.12l-.22-.1a1,1,0,0,1-.06-.34,1.61,1.61,0,0,1,.39-.6c.16-.08.19-.14.37-.09a1.51,1.51,0,0,1,.49.22.35.35,0,0,0,.14.12" style="fill: #d3d1cf"/>
    <path d="M11.65,17.59c0,.26,0,.35-.08.41s-.05.09-.21.12l-.5.14c-.12,0-.26.16-.33.13l-.21-.1a.83.83,0,0,1-.06-.34,1.61,1.61,0,0,1,.39-.6c.15-.08.18-.14.36-.09a1.49,1.49,0,0,1,.5.22.32.32,0,0,0,.14.11" style="fill: #d3d1cf"/>
    <path d="M6.14,18.59c0,.26,0,.35-.08.41s0,.09-.21.12l-.49.14c-.12,0-.27.16-.33.13l-.22-.1A.83.83,0,0,1,4.75,19a1.61,1.61,0,0,1,.39-.6c.16-.08.19-.14.37-.09a1.51,1.51,0,0,1,.49.22.39.39,0,0,0,.14.11" style="fill: #d3d1cf"/>
    <path d="M21.13,16.82l.16.1.2.12a.32.32,0,0,1,.13.16,1.26,1.26,0,0,1,0,.22l.08-.09c.08-.11.13-.21.19-.3a1.77,1.77,0,0,0,.17-.24l.13-.23a1.09,1.09,0,0,0-.36-.44c-.22-.14-.26-.18-.32-.19a.3.3,0,0,0-.19.08l-.22.29a1.31,1.31,0,0,0-.19.35v.06h0s.19.11.19.11" style="fill: #d3d1cf"/>
    <path d="M21,17.14l.42.27a.67.67,0,0,0,.16.06.19.19,0,0,0,.11,0,1.26,1.26,0,0,0,0-.22.32.32,0,0,0-.13-.16l-.2-.12-.16-.1s-.15-.12-.19-.11h0a1.18,1.18,0,0,0,0,.28s0,.11.06.15" style="fill: #f2f2f2"/>
    <path d="M14.5,21.23l.1.16a1.74,1.74,0,0,1,.13.2.25.25,0,0,1,0,.19.66.66,0,0,1-.06.22l.12,0c.12-.06.2-.14.3-.19a2.75,2.75,0,0,0,.25-.15l.22-.15a1.07,1.07,0,0,0-.14-.55c-.14-.22-.16-.28-.21-.31a.3.3,0,0,0-.21,0l-.31.17a1.23,1.23,0,0,0-.33.23l0,.05h0s.12.18.12.18" style="fill: #d3d1cf"/>
    <path d="M14.22,21.45l.27.43a.72.72,0,0,0,.11.12.24.24,0,0,0,.12,0,.66.66,0,0,0,.06-.22.25.25,0,0,0,0-.19,1.74,1.74,0,0,0-.13-.2l-.1-.16s-.09-.17-.12-.18h0a1.32,1.32,0,0,0-.15.25s-.06.09,0,.15" style="fill: #f2f2f2"/>
    <path d="M7.81,19.09l.11.15a1.67,1.67,0,0,0,.13.2.42.42,0,0,1,0,.2s0,.12-.06.22l.11-.05c.12-.06.2-.14.3-.19a1.5,1.5,0,0,0,.25-.15l.22-.14a1.1,1.1,0,0,0-.14-.56c-.14-.22-.15-.28-.21-.31a.3.3,0,0,0-.21,0l-.31.17a1.85,1.85,0,0,0-.33.24l0,.05h0s.12.18.12.18" style="fill: #d3d1cf"/>
    <path d="M7.53,19.31l.27.42a1.18,1.18,0,0,0,.11.13.28.28,0,0,0,.13,0c0-.1.05-.19.06-.22a.42.42,0,0,0,0-.2,1.67,1.67,0,0,1-.13-.2l-.11-.15s-.08-.17-.12-.18h0a1.06,1.06,0,0,0-.15.24s0,.09,0,.16" style="fill: #f2f2f2"/>
    <path d="M25.65,19.49l.11.16.13.2a.38.38,0,0,1,.05.19s0,.13-.06.22l.11-.05c.12-.06.21-.13.3-.18a3,3,0,0,0,.26-.15l.21-.15a1.13,1.13,0,0,0-.13-.55c-.15-.22-.16-.28-.22-.31a.24.24,0,0,0-.2,0,2.48,2.48,0,0,0-.32.17,1.41,1.41,0,0,0-.33.23l0,0h0s.11.18.11.18" style="fill: #d3d1cf"/>
    <path d="M25.37,19.71l.27.43.12.12h.12c0-.09.05-.19.06-.22a.38.38,0,0,0-.05-.19l-.13-.2-.11-.16s-.08-.17-.11-.18h0a1.32,1.32,0,0,0-.15.25s-.05.09,0,.15" style="fill: #f2f2f2"/>
    <path d="M12.51,14l0,.18c0,.06,0,.15-.06.23a.28.28,0,0,1-.12.17l-.2.1.11,0c.12.05.24.06.34.1a1.9,1.9,0,0,0,.28.1l.25.07a1.16,1.16,0,0,0,.33-.47c.07-.26.11-.3.09-.36a.28.28,0,0,0-.12-.17,3.4,3.4,0,0,0-.34-.12,1.59,1.59,0,0,0-.39-.1h-.06s-.06.21-.06.21" style="fill: #d3d1cf"/>
    <path d="M12.16,13.9c0,.08-.12.41-.14.49a.69.69,0,0,0,0,.16.44.44,0,0,0,.08.1l.2-.1a.28.28,0,0,0,.12-.17c0-.08,0-.17.06-.23l0-.18s.08-.17.06-.21h0a1.09,1.09,0,0,0-.28.05s-.11,0-.13.09" style="fill: #f2f2f2"/>
    <path d="M16,14.91l-.17-.09-.21-.12a.26.26,0,0,1-.13-.15.9.9,0,0,1-.06-.22l-.07.1a3.49,3.49,0,0,0-.18.31A1.65,1.65,0,0,0,15,15l-.13.23a1.15,1.15,0,0,0,.39.42c.23.13.27.17.33.17a.26.26,0,0,0,.19-.08l.2-.3a3,3,0,0,0,.18-.36V15h0a1,1,0,0,1-.18-.1" style="fill: #d3d1cf"/>
    <path d="M16.09,14.58l-.44-.25-.16-.06a.29.29,0,0,0-.11.06.9.9,0,0,0,.06.22.26.26,0,0,0,.13.15l.21.12.17.09a1,1,0,0,0,.18.1h0a1,1,0,0,0,0-.29s0-.11-.06-.14" style="fill: #f2f2f2"/>
    <path d="M13.17,10.71l-.07-.18-.1-.21a.31.31,0,0,1,0-.21,1,1,0,0,1,.09-.2l-.12,0c-.13,0-.22.1-.33.14a1.08,1.08,0,0,0-.27.1l-.24.11a1.19,1.19,0,0,0,0,.57c.11.24.11.3.16.34a.24.24,0,0,0,.2,0l.34-.11a1.31,1.31,0,0,0,.36-.17l0,0h0a.79.79,0,0,1-.09-.19" style="fill: #d3d1cf"/>
    <path d="M13.49,10.54l-.2-.47a.65.65,0,0,0-.09-.14.18.18,0,0,0-.12,0,1,1,0,0,0-.09.2.31.31,0,0,0,0,.21l.1.21.07.18a.79.79,0,0,0,.09.19h0l.19-.21s.07-.08,0-.15" style="fill: #f2f2f2"/>
    <path d="M13.67,9.21l.12-.15.15-.18a.28.28,0,0,1,.17-.11h.23l-.08-.1c-.09-.1-.19-.15-.27-.23a1.94,1.94,0,0,0-.21-.2l-.21-.17a1.1,1.1,0,0,0-.49.3c-.16.2-.22.23-.23.29a.23.23,0,0,0,.05.2,3.07,3.07,0,0,0,.26.25,1.54,1.54,0,0,0,.31.25l.06,0h0s.14-.16.14-.16" style="fill: #d3d1cf"/>
    <path d="M14,9.41,14.29,9a.76.76,0,0,0,.09-.15.28.28,0,0,0,0-.11h-.23a.28.28,0,0,0-.17.11l-.15.18-.12.15s-.14.12-.14.16h0l.28.07s.1,0,.15,0" style="fill: #f2f2f2"/>
    <path d="M10.81,20.51l.12-.15a2,2,0,0,1,.15-.18.28.28,0,0,1,.17-.11h.23L11.4,20a2.56,2.56,0,0,0-.27-.23,1.94,1.94,0,0,0-.21-.2,2.22,2.22,0,0,1-.21-.17,1.1,1.1,0,0,0-.49.3c-.16.2-.22.23-.23.29a.23.23,0,0,0,0,.2,3.13,3.13,0,0,0,.26.25,1.54,1.54,0,0,0,.31.25l.06,0h0s.14-.16.14-.16" style="fill: #d3d1cf"/>
    <path d="M11.1,20.71l.33-.38a1.29,1.29,0,0,0,.09-.15.42.42,0,0,0,0-.12h-.23a.28.28,0,0,0-.17.11,2,2,0,0,0-.15.18l-.12.15s-.14.12-.14.16h0l.28.07s.1,0,.15,0" style="fill: #f2f2f2"/>
    <path d="M22.79,21.83l.12-.15.15-.18a.26.26,0,0,1,.17-.1.73.73,0,0,1,.23,0l-.08-.1c-.09-.09-.19-.15-.27-.23a1.94,1.94,0,0,0-.21-.2l-.21-.16a1.15,1.15,0,0,0-.49.29c-.17.2-.22.23-.23.29a.23.23,0,0,0,.05.2l.25.26a1.57,1.57,0,0,0,.32.24l.06,0h0s.14-.16.14-.16" style="fill: #d3d1cf"/>
    <path d="M23.08,22l.33-.38a.54.54,0,0,0,.08-.15.18.18,0,0,0,0-.11.73.73,0,0,0-.23,0,.26.26,0,0,0-.17.1l-.15.18-.12.15s-.14.13-.14.16h0l.28.07s.1,0,.15,0" style="fill: #f2f2f2"/>
    <path d="M20,20l-.12-.15-.14-.19a.25.25,0,0,1-.06-.19.85.85,0,0,1,0-.22l-.11.05c-.12.07-.2.15-.29.21l-.24.16-.21.16a1.24,1.24,0,0,0,.17.55c.16.21.18.27.24.29a.23.23,0,0,0,.2,0l.31-.19a1.48,1.48,0,0,0,.31-.26l0-.05h0S20,20,20,20" style="fill: #d3d1cf"/>
    <path d="M20.22,19.73l-.3-.4a.59.59,0,0,0-.12-.12.16.16,0,0,0-.12,0,.85.85,0,0,0,0,.22.25.25,0,0,0,.06.19l.14.19L20,20s.09.16.12.17h0a1.52,1.52,0,0,0,.13-.25s.05-.1,0-.16" style="fill: #f2f2f2"/>
    <path d="M11.86,22.38l-.25.1a8.22,8.22,0,0,1-1.29-.1,2.71,2.71,0,0,1-.39-.3c0,.39.1.94.47,1.06a2,2,0,0,0,1.17.14c.2-.12.57-.14.45-.47-.07-.17-.12-.31-.16-.43" style="fill: #d3d1cf"/>
    <path d="M11.61,22.48l.25-.1a.82.82,0,0,1,0-.22.3.3,0,0,0-.24-.29,3,3,0,0,0-.56-.06l-1,.06q0,.09,0,.21a2.71,2.71,0,0,0,.39.3,8.22,8.22,0,0,0,1.29.1" style="fill: #f2f2f2"/>
    <path d="M25.06,20.81l-.25.1a8.22,8.22,0,0,1-1.29-.1,2.93,2.93,0,0,1-.39-.3c0,.39.1.93.47,1a1.94,1.94,0,0,0,1.17.15c.2-.13.56-.15.44-.47s-.12-.32-.15-.43" style="fill: #d3d1cf"/>
    <path d="M24.81,20.91l.25-.1a.8.8,0,0,1,0-.23.29.29,0,0,0-.24-.28,3.16,3.16,0,0,0-.57-.06l-1.05.06a1.25,1.25,0,0,0,0,.21,2.93,2.93,0,0,0,.39.3,8.22,8.22,0,0,0,1.29.1" style="fill: #f2f2f2"/>
    <path d="M17,21.28l-.25.1a7.29,7.29,0,0,1-1.29-.11,2.71,2.71,0,0,1-.39-.3c0,.39.1.94.47,1.06a2,2,0,0,0,1.17.14c.2-.12.57-.14.44-.47L17,21.28" style="fill: #d3d1cf"/>
    <path d="M16.76,21.38l.25-.1a.87.87,0,0,1-.05-.23.3.3,0,0,0-.24-.29,3,3,0,0,0-.56-.06l-1.05.06a1.33,1.33,0,0,0,0,.21,2.71,2.71,0,0,0,.39.3,7.29,7.29,0,0,0,1.29.11" style="fill: #f2f2f2"/>
    <path d="M15.06,12.73a1.4,1.4,0,0,1-.2-.5.14.14,0,0,1,0-.09,2.24,2.24,0,0,0-.46.06.56.56,0,0,0-.27.35c-.06.18.11.45.15.58a.69.69,0,0,0,.22.29,3.26,3.26,0,0,0,.35-.11l.3-.12a.45.45,0,0,0,.15-.07h0l-.24-.39" style="fill: #d3d1cf"/>
    <path d="M15.86,12.71c.06-.15-.1-.18-.14-.24a3.09,3.09,0,0,0-.23-.31,2,2,0,0,0-.46,0l-.16,0a.14.14,0,0,0,0,.09,1.4,1.4,0,0,0,.2.5l.24.39h0l.22-.12a.53.53,0,0,0,.33-.29" style="fill: #f2f2f2"/>
    <path d="M18.14,17.65a1.51,1.51,0,0,1,.39.38.3.3,0,0,1,0,.1,2.44,2.44,0,0,0,.4-.24.58.58,0,0,0,.12-.43c0-.18-.28-.36-.36-.47a.7.7,0,0,0-.32-.19s-.15.12-.27.24l-.24.22a.71.71,0,0,0-.11.12h0l.36.27" style="fill: #d3d1cf"/>
    <path d="M17.42,18c0,.17.16.14.21.18l.34.2a2.47,2.47,0,0,0,.44-.14.6.6,0,0,1,.14-.07.3.3,0,0,0,0-.1,1.51,1.51,0,0,0-.39-.38l-.36-.27h0l-.16.19a.56.56,0,0,0-.19.39" style="fill: #f2f2f2"/>
    <path d="M19.89,12.82a1.52,1.52,0,0,1,.39.38.36.36,0,0,1,0,.1,2.53,2.53,0,0,0,.4-.23.56.56,0,0,0,.12-.43c0-.19-.27-.37-.36-.48a.8.8,0,0,0-.31-.19l-.28.24-.24.22a.76.76,0,0,0-.1.12h0l.36.26" style="fill: #d3d1cf"/>
    <path d="M19.17,13.14c0,.16.16.13.22.17l.33.2a1.83,1.83,0,0,0,.44-.14l.14-.07a.36.36,0,0,0,0-.1,1.52,1.52,0,0,0-.39-.38l-.36-.26h0l-.17.19a.56.56,0,0,0-.19.4" style="fill: #f2f2f2"/>
    <path d="M11.74,17.93a1.41,1.41,0,0,1,.38.39.16.16,0,0,1,0,.09,1.93,1.93,0,0,0,.4-.23.6.6,0,0,0,.12-.43c0-.18-.28-.37-.36-.48a.82.82,0,0,0-.32-.19s-.16.13-.27.24-.21.19-.24.22l-.11.13h0l.36.26" style="fill: #d3d1cf"/>
    <path d="M11,18.25c0,.17.15.14.21.18l.34.2a2.75,2.75,0,0,0,.44-.14l.14-.08a.16.16,0,0,0,0-.09,1.41,1.41,0,0,0-.38-.39l-.36-.26h0l-.16.19a.56.56,0,0,0-.19.39" style="fill: #f2f2f2"/>
    <path d="M10.49,12.1a1.41,1.41,0,0,1,.38.39.1.1,0,0,1,0,.09,1.8,1.8,0,0,0,.41-.23.63.63,0,0,0,.12-.43c0-.18-.28-.36-.36-.48a.89.89,0,0,0-.32-.19s-.16.13-.27.24l-.25.23-.1.12h0l.37.26" style="fill: #d3d1cf"/>
    <path d="M9.76,12.42c0,.17.16.14.22.18l.33.2a2.76,2.76,0,0,0,.45-.14l.13-.08a.1.1,0,0,0,0-.09,1.41,1.41,0,0,0-.38-.39l-.37-.26h0L10,12a.62.62,0,0,0-.2.39" style="fill: #f2f2f2"/>
    <path d="M20.05,22.82l.28.24,0,0,.07-.1.1-.11a.12.12,0,0,0,0-.05.44.44,0,0,1,0-.1.9.9,0,0,1,0-.22,1.5,1.5,0,0,0,0-.17s0-.06,0-.06l-.07,0,0,0-.05-.05,0,0,0,0s0-.05-.06-.06,0,0,0,0a2,2,0,0,1-.12.19.07.07,0,0,0,0,.05.51.51,0,0,0,0,.09.35.35,0,0,0,0,.12c0,.07,0,.1,0,.15a.51.51,0,0,0,0,.09.28.28,0,0,1,0,.09v.05" style="fill: #d3d1cf"/>
    <path d="M20.16,22.18a.07.07,0,0,0,0,.05.51.51,0,0,0,0,.09.35.35,0,0,0,0,.12c0,.07,0,.1,0,.15a.51.51,0,0,0,0,.09.28.28,0,0,1,0,.09v.05h0l0-.05a.16.16,0,0,1,.05-.09.08.08,0,0,0,0,0,.24.24,0,0,0,0-.07,1.16,1.16,0,0,0,0-.18,1.29,1.29,0,0,0,0-.19V22h0a2,2,0,0,1-.12.19" style="fill: #f2f2f2"/>
    <path d="M20.56,22.77a.44.44,0,0,1,0-.1.9.9,0,0,1,0-.22,1.5,1.5,0,0,0,0-.17s0-.06,0-.06l-.07,0,0,0-.05-.05,0,0,0,0s0-.05-.06-.06,0,0,0,0v.22a1.29,1.29,0,0,1,0,.19,1.16,1.16,0,0,1,0,.18h0l0,0a.29.29,0,0,1,.08.08l.11.1.06,0,0,0,0,0a.12.12,0,0,0,0-.05" style="fill: #e0dfde"/>
    <path d="M19.88,15.83s-.24.28-.24.3,0,0,0,0l.1.07.12.1.05,0H20s.11,0,.22,0,.14,0,.17,0h.06l.05-.08,0,0s0,0,0-.05l0,0,0,0s.05,0,.06-.06,0,0,0-.05l-.19-.11s0,0-.05,0h-.21l-.15,0-.09,0h-.14" style="fill: #d3d1cf"/>
    <path d="M20.52,15.94s0,0-.05,0h-.21l-.15,0-.09,0h-.14l.05.05s.07,0,.09,0,0,0,0,.05l.07,0,.18,0,.19,0h.21l-.19-.11" style="fill: #f2f2f2"/>
    <path d="M19.94,16.35H20s.11,0,.22,0,.14,0,.17,0h.06l.05-.08,0,0s0,0,0-.05l0,0,0,0s.05,0,.06-.06,0,0,0,0H20.5l-.19,0-.18,0h0l0,0-.07.08-.1.11-.05.07v0l0,0,.05,0" style="fill: #e0dfde"/>
    <path d="M23.47,15.62l-.23.29,0,0,.1.07.11.09.05,0,.11,0h.22l.16,0h.07a.25.25,0,0,1,0-.07l0,0,.05,0,0,0s0,0,0,0,.05,0,.06-.07,0,0,0,0-.17-.1-.18-.12a.16.16,0,0,0-.06,0l-.09,0H23.7l-.09,0h-.14" style="fill: #d3d1cf"/>
    <path d="M24.12,15.72a.16.16,0,0,0-.06,0l-.09,0H23.7l-.09,0h-.14l.05,0a.16.16,0,0,1,.09.05l0,0,.08,0,.18,0,.19,0h.2s-.17-.1-.18-.12" style="fill: #f2f2f2"/>
    <path d="M23.53,16.13l.11,0h.22l.16,0h.07a.25.25,0,0,1,0-.07l0,0,.05,0,0,0s0,0,0,0,.05,0,.06-.07,0,0,0,0H24.1l-.19,0-.18,0h0a.05.05,0,0,0,0,0,.29.29,0,0,1-.08.08l-.1.11,0,.06,0,0,0,0,.05,0" style="fill: #e0dfde"/>
    <path d="M23.36,14.44l-.23.29,0,0,.1.07.12.09a.08.08,0,0,0,.05,0l.1,0h.22l.17,0H24a.15.15,0,0,1,.05-.07l0,0,0-.05,0,0s0,0,0,0,.05,0,.06-.07,0,0,0,0L24,14.54s0,0-.05,0l-.1,0h-.27l-.09,0h-.14" style="fill: #d3d1cf"/>
    <path d="M24,14.54s0,0-.05,0l-.1,0h-.27l-.09,0h-.14l.05,0a.13.13,0,0,1,.09,0s0,0,.05,0l.07,0,.18,0,.19,0h.21L24,14.54" style="fill: #f2f2f2"/>
    <path d="M23.43,15l.1,0h.22l.17,0H24a.15.15,0,0,1,.05-.07l0,0,0-.05,0,0s0,0,0,0,.05,0,.06-.07,0,0,0,0H24l-.19,0-.18,0h0l0,0-.08.08-.1.11,0,.06,0,0,0,0a.08.08,0,0,0,.05,0" style="fill: #e0dfde"/>
    <path d="M4.86,19.48l-.24.29s0,0,0,0a.44.44,0,0,1,.09.07l.12.09,0,0L5,20a.9.9,0,0,1,.22,0l.17,0h.07l0-.07,0,0,0-.05v0l0,0s.05,0,.06-.07,0,0,0,0l-.19-.12a.07.07,0,0,0,0,0l-.09,0H5.09l-.09,0H4.86" style="fill: #d3d1cf"/>
    <path d="M5.5,19.58a.07.07,0,0,0,0,0l-.09,0H5.09l-.09,0H4.86a.07.07,0,0,0,0,0,.16.16,0,0,1,.09.05s0,0,0,0l.08,0,.18,0,.19,0h.2l-.19-.12" style="fill: #f2f2f2"/>
    <path d="M4.92,20,5,20a.9.9,0,0,1,.22,0l.17,0h.07l0-.07,0,0,0-.05v0l0,0s.05,0,.06-.07a0,0,0,0,0,0,0H5.49l-.19,0-.18,0h0a.05.05,0,0,0,0,0,.29.29,0,0,1-.08.08.5.5,0,0,0-.1.11s0,.05,0,.06,0,0,0,0h0l0,0" style="fill: #e0dfde"/>
    <path d="M7.49,20.77l-.24.29s0,0,0,0l.1.06.12.1a.08.08,0,0,0,0,0l.1,0a.76.76,0,0,1,.22,0l.17,0H8.1l.05-.07,0,0s0,0,0-.05l0,0s0,0,0,0A.22.22,0,0,0,8.33,21s0,0,0,0l-.19-.12s0,0-.05,0l-.09,0H7.72l-.09,0H7.49" style="fill: #d3d1cf"/>
    <path d="M8.13,20.87s0,0-.05,0l-.09,0H7.72l-.09,0H7.49a.1.1,0,0,0,0,0,.16.16,0,0,1,.09.05.08.08,0,0,0,0,0l.07,0,.18,0,.19,0h.13a.14.14,0,0,1,.09,0h0l-.19-.12" style="fill: #f2f2f2"/>
    <path d="M7.55,21.28l.1,0a.76.76,0,0,1,.22,0l.17,0H8.1l.05-.07,0,0s0,0,0-.05l0,0s0,0,0,0A.22.22,0,0,0,8.33,21s0,0,0,0a.14.14,0,0,0-.09,0H8.11l-.19,0-.18,0h0l0,0a.28.28,0,0,1-.07.09.33.33,0,0,0-.1.11s0,.05,0,.06,0,0,0,0l0,0a.08.08,0,0,0,0,0" style="fill: #e0dfde"/>
    <path d="M3.47,21.52l-.24.29s0,0,0,0l.1.07.12.09a.08.08,0,0,0,0,0l.1,0a1.52,1.52,0,0,1,.22,0l.17,0h.06s0-.06,0-.07l0,0s0,0,0-.05l0,0s0,0,0,0,0,0,.06-.07,0,0,0,0l-.19-.12s0,0-.05,0l-.09,0H3.7l-.09,0H3.47" style="fill: #d3d1cf"/>
    <path d="M4.11,21.62s0,0-.05,0l-.09,0H3.7l-.09,0H3.47a.08.08,0,0,0,0,0s.08,0,.09.05,0,0,0,0l.07,0,.18,0,.19,0h.13s0,0,.09,0h0l-.19-.12" style="fill: #f2f2f2"/>
    <path d="M3.53,22l.1,0a1.52,1.52,0,0,1,.22,0l.17,0h.06s0-.06,0-.07l0,0s0,0,0-.05l0,0s0,0,0,0,0,0,.06-.07,0,0,0,0-.08,0-.09,0H4.09l-.19,0-.18,0h0s0,0,0,0l-.07.08a.57.57,0,0,0-.11.11l0,.06a0,0,0,0,1,0,0l0,0a.08.08,0,0,0,0,0" style="fill: #e0dfde"/>
    <path d="M14.42,17.5l-.36.1s0,0,0,0,0,.08,0,.12l0,.15,0,0,.07.07a1.17,1.17,0,0,1,.17.14,1.2,1.2,0,0,0,.12.12s.05,0,.06,0l.08,0h.05l.06,0h.07s.07,0,.09,0,0,0,0,0l-.08-.2s0,0,0-.06l-.07-.07s0,0-.09-.08l-.11-.1s0-.05-.06-.07a.18.18,0,0,1-.07-.05l0,0" style="fill: #d3d1cf"/>
    <path d="M14.88,18s0,0,0-.06l-.07-.07s0,0-.09-.08l-.11-.1s0-.05-.06-.07a.18.18,0,0,1-.07-.05l0,0h0a.08.08,0,0,0,0,.06.18.18,0,0,1,0,.09.15.15,0,0,0,0,.07l0,.06.12.14.14.14.1.07.07.06v0l-.08-.2" style="fill: #f2f2f2"/>
    <path d="M14.17,18l.07.07a1.17,1.17,0,0,1,.17.14,1.2,1.2,0,0,0,.12.12s.05,0,.06,0l.08,0h.05l.06,0h.07s.07,0,.09,0,0,0,0,0l-.07-.06-.1-.07-.14-.14-.12-.14h0s-.06,0-.11,0l-.15,0-.07,0h0v0l0,0" style="fill: #e0dfde"/>
    <path d="M19.07,12.28l-.36.1s0,0,0,0l0,.12,0,.15,0,0,.07.07a1.17,1.17,0,0,1,.17.14l.12.12s.05,0,.06,0l.08,0h0l.07,0h.07s.07,0,.09,0,0,0,0,0l-.08-.2s0,0,0-.06l-.07-.07-.09-.08-.11-.1-.06-.07a.13.13,0,0,1-.07,0l0,0" style="fill: #d3d1cf"/>
    <path d="M19.53,12.75s0,0,0-.06l-.07-.07-.09-.08-.11-.1-.06-.07a.13.13,0,0,1-.07,0l0,0h0s0,.05,0,.06a.18.18,0,0,1,0,.09.15.15,0,0,0,0,.07l0,.06.12.14a1.85,1.85,0,0,0,.14.14l.1.07.07.06v0l-.08-.2" style="fill: #f2f2f2"/>
    <path d="M18.82,12.73l.07.07a1.17,1.17,0,0,1,.17.14l.12.12s.05,0,.06,0l.08,0h0l.07,0h.07s.07,0,.09,0l0,0-.07-.06-.1-.07a1.85,1.85,0,0,1-.14-.14l-.12-.14h0s-.07,0-.11,0l-.15,0-.07,0h0v0l0,0" style="fill: #e0dfde"/>
    <path d="M22.65,21.76s-.36.08-.36.09a0,0,0,0,0,0,0l0,.11a1,1,0,0,0,0,.15.15.15,0,0,0,0,.05.23.23,0,0,1,.07.07,1.87,1.87,0,0,1,.18.14,1.25,1.25,0,0,0,.12.12l0,0,.09,0,0,0H23s0,0,0,0l.08,0s0,0,0,0l-.09-.21s0,0,0,0A.14.14,0,0,0,23,22.1L22.93,22a.57.57,0,0,1-.11-.1s0-.05-.07-.07l-.07-.06,0,0" style="fill: #d3d1cf"/>
    <path d="M23.1,22.22s0,0,0,0A.14.14,0,0,0,23,22.1L22.93,22a.57.57,0,0,1-.11-.1s0-.05-.07-.07l-.07-.06,0,0h0a.13.13,0,0,0,0,.06s.05.06.05.09,0,0,0,.06a.13.13,0,0,0,0,.07l.12.14a1.59,1.59,0,0,0,.13.13l.11.08.07.05h0l-.09-.21" style="fill: #f2f2f2"/>
    <path d="M22.39,22.21a.23.23,0,0,1,.07.07,1.87,1.87,0,0,1,.18.14,1.25,1.25,0,0,0,.12.12l0,0,.09,0,0,0H23s0,0,0,0l.08,0s0,0,0,0l-.07-.05L23,22.31a1.59,1.59,0,0,1-.13-.13L22.76,22h0l0,0-.11,0-.14,0-.08,0h0v0a.15.15,0,0,0,0,.05" style="fill: #e0dfde"/>
    <path d="M11.92,21.29l-.36.1s0,0,0,0l0,.12,0,.15,0,0,.07.08a.82.82,0,0,1,.17.13,1.2,1.2,0,0,0,.12.12l.05,0,.09,0h0l.07,0h.07a.13.13,0,0,0,.09,0s0,0,0,0a1.67,1.67,0,0,1-.08-.2s0,0,0-.06l-.07-.07-.09-.08a1.2,1.2,0,0,1-.11-.1s0-.05-.06-.06a.22.22,0,0,1-.07-.06l0,0" style="fill: #d3d1cf"/>
    <path d="M12.38,21.76s0,0,0-.06l-.07-.07-.09-.08a1.2,1.2,0,0,1-.11-.1s0-.05-.06-.06a.22.22,0,0,1-.07-.06l0,0h0s0,.05,0,.06a.14.14,0,0,1,.05.09.15.15,0,0,0,0,.07.27.27,0,0,0,0,.07,1.54,1.54,0,0,0,.12.13l.14.14.1.07.07.06v0a1.67,1.67,0,0,1-.08-.2" style="fill: #f2f2f2"/>
    <path d="M11.67,21.74l.07.08a.82.82,0,0,1,.17.13,1.2,1.2,0,0,0,.12.12l.05,0,.09,0h0l.07,0h.07a.13.13,0,0,0,.09,0l0,0-.07-.06-.1-.07-.14-.14a1.54,1.54,0,0,1-.12-.13h0l0,0-.12,0-.14,0-.08,0h0v0l0,0" style="fill: #e0dfde"/>
    <path d="M11.1,13.64l-.36.09a0,0,0,0,0,0,0,.83.83,0,0,1,0,.12,1.06,1.06,0,0,0,0,.14.15.15,0,0,0,0,.05l.07.07a1.87,1.87,0,0,1,.18.14.62.62,0,0,0,.12.12l0,0,.09,0h0l.07,0h0s0,0,0,0l.08,0s0,0,0,0a1.67,1.67,0,0,1-.08-.2s0,0,0-.06L11.47,14l-.09-.08a.57.57,0,0,1-.11-.1s0-.05-.07-.07l-.07-.05,0,0" style="fill: #d3d1cf"/>
    <path d="M11.56,14.11s0,0,0-.06L11.47,14l-.09-.08a.57.57,0,0,1-.11-.1s0-.05-.07-.07l-.07-.05,0,0h0s0,0,0,.06.05.06.05.09,0,0,0,.07a.15.15,0,0,0,0,.06l.12.14.13.14s.09.07.11.07l.07.05h0a1.67,1.67,0,0,1-.08-.2" style="fill: #f2f2f2"/>
    <path d="M10.84,14.09l.07.07a1.87,1.87,0,0,1,.18.14.62.62,0,0,0,.12.12l0,0,.09,0h0l.07,0h0s0,0,0,0l.08,0s0,0,0,0l-.07-.05s-.07,0-.11-.07l-.13-.14-.12-.14h-.05l-.11,0-.14,0-.08,0h0v0a.15.15,0,0,0,0,.05" style="fill: #e0dfde"/>
    <path d="M7.17,21.12A2.68,2.68,0,0,0,6.83,21s0,0,0,0l0,.12a1.14,1.14,0,0,0-.06.14.05.05,0,0,0,0,.05.41.41,0,0,0,0,.1s0,.11,0,.22a.9.9,0,0,0,0,.16s0,.06,0,.06l.08,0,0,0,.06,0H7l0,0s.06,0,.08,0,0,0,0,0,.06-.19.07-.21,0,0,0-.06v-.1s0,0,0-.12a.93.93,0,0,1,0-.14.2.2,0,0,0,0-.09s0-.07,0-.09a.12.12,0,0,0,0-.05" style="fill: #d3d1cf"/>
    <path d="M7.22,21.77s0,0,0-.06v-.1s0,0,0-.12a.93.93,0,0,1,0-.14.2.2,0,0,0,0-.09s0-.07,0-.09a.12.12,0,0,0,0-.05h0a.09.09,0,0,0,0,.05.15.15,0,0,1,0,.1.07.07,0,0,0,0,.06.13.13,0,0,0,0,.07v.19a1.23,1.23,0,0,0,0,.19.68.68,0,0,0,0,.12.51.51,0,0,0,0,.09h0s.06-.19.07-.21" style="fill: #f2f2f2"/>
    <path d="M6.69,21.3a.41.41,0,0,0,0,.1s0,.11,0,.22a.9.9,0,0,0,0,.16s0,.06,0,.06l.08,0,0,0,.06,0H7l0,0s.06,0,.08,0,0,0,0,0a.51.51,0,0,1,0-.09.68.68,0,0,1,0-.12,1.23,1.23,0,0,1,0-.19V21.4h0l0,0a.16.16,0,0,1-.09-.05l-.13-.07-.08,0s0,0,0,0v0a.05.05,0,0,0,0,.05" style="fill: #e0dfde"/>
    <path d="M21.79,19.53l-.34-.16,0,0a.76.76,0,0,1,0,.11l-.07.14a.11.11,0,0,0,0,.06v.1a.91.91,0,0,1,.05.21c0,.11,0,.14,0,.17a.32.32,0,0,0,0,.06l.09,0,0,0,.06,0h0l0,0s.05,0,.08,0,0,0,0,0l.07-.2s0,0,0-.06V20a.44.44,0,0,1,0-.12.89.89,0,0,1,0-.15c0-.05,0-.06,0-.09a.31.31,0,0,1,0-.08v-.06" style="fill: #d3d1cf"/>
    <path d="M21.84,20.19s0,0,0-.06V20a.44.44,0,0,1,0-.12.89.89,0,0,1,0-.15c0-.05,0-.06,0-.09a.31.31,0,0,1,0-.08v-.06h0a.09.09,0,0,0,0,.06.15.15,0,0,1,0,.1.09.09,0,0,0,0,0s0,0,0,.08a1.21,1.21,0,0,0,0,.19,1.28,1.28,0,0,0,0,.19,1,1,0,0,1,0,.12.3.3,0,0,1,0,.09v0l.07-.2" style="fill: #f2f2f2"/>
    <path d="M21.31,19.72v.1a.91.91,0,0,1,.05.21c0,.11,0,.14,0,.17a.32.32,0,0,0,0,.06l.09,0,0,0,.06,0h0l0,0s.05,0,.08,0,0,0,0,0a.3.3,0,0,0,0-.09,1,1,0,0,0,0-.12,1.28,1.28,0,0,1,0-.19,1.21,1.21,0,0,1,0-.19h0a.45.45,0,0,1-.1-.05l-.13-.08-.07,0h0v0a.11.11,0,0,0,0,.06" style="fill: #e0dfde"/>
    <path d="M28.92,20.74a3.54,3.54,0,0,0-.34-.16s0,0,0,0,0,.08,0,.12l-.07.13a.22.22,0,0,0,0,.06.28.28,0,0,1,0,.1,1.07,1.07,0,0,1,0,.21.58.58,0,0,0,0,.17s0,.06,0,.06l.09,0,0,0,.06,0h0l0,0s0,0,.08,0,0,0,0,0l.07-.21s0,0,0-.06a.31.31,0,0,0,0-.1.83.83,0,0,0,0-.12,1.21,1.21,0,0,1,0-.14c0-.06,0-.06,0-.09a.51.51,0,0,1,0-.09v-.05" style="fill: #d3d1cf"/>
    <path d="M29,21.39s0,0,0-.06a.31.31,0,0,0,0-.1.83.83,0,0,0,0-.12,1.21,1.21,0,0,1,0-.14c0-.06,0-.06,0-.09a.51.51,0,0,1,0-.09v-.05h0a.05.05,0,0,0,0,.05s0,.08,0,.1a.13.13,0,0,0,0,.05s0,0,0,.08v.19s0,.15,0,.19l0,.12a.17.17,0,0,1,0,.09h0l.07-.21" style="fill: #f2f2f2"/>
    <path d="M28.43,20.92a.28.28,0,0,1,0,.1,1.07,1.07,0,0,1,0,.21.58.58,0,0,0,0,.17s0,.06,0,.06l.09,0,0,0,.06,0h0l0,0s0,0,.08,0,0,0,0,0a.17.17,0,0,0,0-.09l0-.12s0-.15,0-.19V21h0s-.06,0-.1-.05a.33.33,0,0,0-.13-.07l-.07,0h0v0a.22.22,0,0,0,0,.06" style="fill: #e0dfde"/>
    <path d="M23.85,21.12a3.36,3.36,0,0,0-.33-.16s0,0,0,0l0,.12-.06.14a.12.12,0,0,0,0,.05s0,.06,0,.1a1.26,1.26,0,0,1,0,.22.9.9,0,0,0,0,.16s0,.06,0,.06l.08,0,.05,0,.06,0h0l0,0s.06,0,.08,0,0,0,.05,0,.06-.19.06-.21a.16.16,0,0,0,0-.06s0-.07,0-.1,0,0,0-.12a.93.93,0,0,1,0-.14v-.09a.51.51,0,0,1,0-.09.12.12,0,0,0,0-.05" style="fill: #d3d1cf"/>
    <path d="M23.9,21.77a.16.16,0,0,0,0-.06s0-.07,0-.1,0,0,0-.12a.93.93,0,0,1,0-.14v-.09a.51.51,0,0,1,0-.09.12.12,0,0,0,0-.05h0l0,.05a.15.15,0,0,1,0,.1.07.07,0,0,0,0,.06.13.13,0,0,0,0,.07v.19a1.23,1.23,0,0,0,0,.19.68.68,0,0,0,0,.12.51.51,0,0,0,0,.09h0s.06-.19.06-.21" style="fill: #f2f2f2"/>
    <path d="M23.37,21.3s0,.06,0,.1a1.26,1.26,0,0,1,0,.22.9.9,0,0,0,0,.16s0,.06,0,.06l.08,0,.05,0,.06,0h0l0,0s.06,0,.08,0,0,0,0,0a.51.51,0,0,1,0-.09.68.68,0,0,1,0-.12,1.23,1.23,0,0,1,0-.19V21.4h0l0,0a.19.19,0,0,1-.1-.05l-.13-.07-.08,0s0,0,0,0v0a.12.12,0,0,0,0,.05" style="fill: #e0dfde"/>
    <path d="M19.16,17.37a3.49,3.49,0,0,0,.05.51c0,.06,0,.07,0,.12a.49.49,0,0,0,0,.12s0,.14.06.14h1s.09,0,.12,0,.24-.2.27-.24,0-.07,0-.1a.41.41,0,0,1,0-.17,3.87,3.87,0,0,0,0-.52c0-.06,0-.12,0-.14s0-.06-.12-.06-.24,0-.34,0l-.23,0-.18,0a.86.86,0,0,0-.24,0s-.15.12-.22.15-.11.17-.11.17" style="fill: #d3d1cf"/>
    <path d="M20.6,17.08s0-.06-.12-.06-.24,0-.34,0l-.23,0-.18,0a.86.86,0,0,0-.24,0s-.15.12-.22.15a.34.34,0,0,0-.08.09l.26,0a.45.45,0,0,1,.2,0,1.43,1.43,0,0,1,.26,0h.21c.08,0,.06.06.15,0a1.22,1.22,0,0,0,.16-.14.34.34,0,0,1,.14-.09h.05l0,0" style="fill: #f2f2f2"/>
    <path d="M20.4,18.25s.24-.2.27-.24,0-.07,0-.1a.41.41,0,0,1,0-.17,3.87,3.87,0,0,0,0-.52.42.42,0,0,0,0-.12h-.05a.34.34,0,0,0-.14.09,1.22,1.22,0,0,1-.16.14l-.05,0c0,.1.05.28.08.4a1.75,1.75,0,0,1,0,.34.28.28,0,0,0,0,.17l0,0" style="fill: #e0dfde"/>
    <path d="M6.82,17.48s.21-.21.24-.26a.18.18,0,0,0,0-.11A.23.23,0,0,1,7,17,2.85,2.85,0,0,0,7,16.44a.28.28,0,0,0,0-.12h0a.38.38,0,0,0-.14.11,1,1,0,0,1-.15.15l0,0c0,.1.08.28.11.4a1.09,1.09,0,0,1,.06.33.49.49,0,0,0,0,.16s0,0,0,0" style="fill: #e0dfde"/>
    <path d="M18.46,9.82A4,4,0,0,0,18,9.71c-.07,0-.08,0-.12,0a.53.53,0,0,0-.12,0s-.13,0-.15,0-.12.38-.14.46-.13.43-.14.47-.06.08,0,.12.12.28.15.32.06.06.09.06a.36.36,0,0,1,.17,0l.5.12c.06,0,.12,0,.15,0s.05,0,.09-.1.11-.22.13-.31,0-.13,0-.24a1.57,1.57,0,0,1,0-.16.93.93,0,0,0,.05-.24s-.07-.18-.08-.26-.12-.15-.12-.15" style="fill: #d3d1cf"/>
    <path d="M18.31,11.28s.05,0,.09-.1.11-.22.13-.31,0-.13,0-.24a1.57,1.57,0,0,1,0-.16.93.93,0,0,0,.05-.24s-.07-.18-.08-.26a.15.15,0,0,0-.06-.1.92.92,0,0,0-.11.24.92.92,0,0,1,0,.2,1.69,1.69,0,0,1-.11.23c0,.07,0,.12-.05.2s-.07,0-.05.14a1,1,0,0,0,.08.2.43.43,0,0,1,.05.16.43.43,0,0,0,0,0h0" style="fill: #f2f2f2"/>
    <path d="M17.25,10.75s.12.28.15.32.06.06.09.06a.36.36,0,0,1,.17,0l.5.12a.26.26,0,0,0,.12,0,.43.43,0,0,1,0,0,.43.43,0,0,0-.05-.16,1,1,0,0,1-.08-.2.08.08,0,0,1,0,0l-.41-.05a1.29,1.29,0,0,1-.33-.07.31.31,0,0,0-.17,0,.08.08,0,0,0,0,0" style="fill: #e0dfde"/>
    <path d="M10.36,13.63a2.68,2.68,0,0,0-.51.07c-.06,0-.07,0-.11,0H9.61s-.14,0-.14.07,0,.4,0,.48,0,.45,0,.49,0,.09,0,.12.2.23.25.26a.11.11,0,0,0,.1,0,.28.28,0,0,1,.17,0,4.87,4.87,0,0,0,.51-.05c.06,0,.13,0,.14,0s.06,0,.06-.12,0-.24,0-.34,0-.12,0-.23a1.62,1.62,0,0,1,0-.18,1.17,1.17,0,0,0,0-.23s-.13-.16-.16-.22-.17-.11-.17-.11" style="fill: #d3d1cf"/>
    <path d="M10.69,15.06s.06,0,.06-.12,0-.24,0-.34,0-.12,0-.23a1.62,1.62,0,0,1,0-.18,1.17,1.17,0,0,0,0-.23s-.13-.16-.16-.22a.2.2,0,0,0-.1-.08,1.49,1.49,0,0,0,0,.26.58.58,0,0,1,0,.2,1.43,1.43,0,0,1,0,.26,1.83,1.83,0,0,0,0,.21c0,.08-.06.06,0,.15a.7.7,0,0,0,.15.15s.08.08.09.14,0,0,0,.05l0,0" style="fill: #f2f2f2"/>
    <path d="M9.52,14.9s.2.23.25.26a.11.11,0,0,0,.1,0,.28.28,0,0,1,.17,0,4.87,4.87,0,0,0,.51-.05.19.19,0,0,0,.12,0s0,0,0-.05-.06-.09-.09-.14a.7.7,0,0,1-.15-.15l0-.05-.4.09a1,1,0,0,1-.34,0,.37.37,0,0,0-.16,0s0,0,0,0" style="fill: #e0dfde"/>
    <path d="M22,20.52a3.71,3.71,0,0,0,.35.38c.07,0,.08,0,.1.07l.08.09s.08.11.14.07l.38-.3c.06-.06.35-.28.38-.31s.09,0,.09-.07.06-.3.06-.36a.19.19,0,0,0,0-.1.27.27,0,0,1-.12-.11c-.09-.12-.3-.35-.34-.39S23,19.4,23,19.41s0-.06-.13,0-.22.11-.29.17a1.36,1.36,0,0,1-.17.17c-.08.08-.06.08-.12.12a.74.74,0,0,0-.18.16,1.86,1.86,0,0,1-.08.26.35.35,0,0,0,0,.2" style="fill: #d3d1cf"/>
    <path d="M23,19.41s0-.06-.13,0-.22.11-.29.17a1.36,1.36,0,0,1-.17.17c-.08.08-.06.08-.12.12a.74.74,0,0,0-.18.16,1.86,1.86,0,0,1-.08.26.29.29,0,0,0,0,.13l.22-.14a.7.7,0,0,1,.15-.14,2.43,2.43,0,0,1,.22-.14.58.58,0,0,0,.15-.13c.07-.06.09,0,.13-.08a.68.68,0,0,0,0-.21.31.31,0,0,1,.06-.16l0,0h0" style="fill: #f2f2f2"/>
    <path d="M23.54,20.45s.06-.3.06-.36a.19.19,0,0,0,0-.1.27.27,0,0,1-.12-.11c-.09-.12-.3-.35-.34-.39a.31.31,0,0,0-.1-.08l0,0a.31.31,0,0,0-.06.16.68.68,0,0,1,0,.21l0,0,.31.27a1.48,1.48,0,0,1,.23.25s.08.07.13.1,0,0,0,0" style="fill: #e0dfde"/>
    <path d="M12.11,20.5a2.92,2.92,0,0,0,.2.48c0,.05.06.05.07.1a.25.25,0,0,0,0,.12s0,.13.1.11a4.75,4.75,0,0,0,.46-.14l.47-.15s.09,0,.11,0,.17-.26.18-.31a.15.15,0,0,0,0-.11.22.22,0,0,1-.08-.15c0-.14-.15-.43-.17-.49s-.05-.12-.09-.12,0-.06-.14,0-.24,0-.33.06-.11.06-.22.1l-.16.06-.22.09s-.11.16-.17.21a.39.39,0,0,0-.06.19" style="fill: #d3d1cf"/>
    <path d="M13.41,19.81c-.05,0,0-.06-.14,0s-.24,0-.33.06-.11.06-.22.1l-.16.06-.22.09s-.11.16-.17.21a.22.22,0,0,0-.05.11l.26,0a.6.6,0,0,1,.19-.08l.25-.05a.89.89,0,0,0,.2-.06c.08,0,.08,0,.14,0a.69.69,0,0,0,.12-.18.41.41,0,0,1,.11-.12l0,0h0" style="fill: #f2f2f2"/>
    <path d="M13.56,21s.17-.26.18-.31a.15.15,0,0,0,0-.11.22.22,0,0,1-.08-.15c0-.14-.15-.43-.17-.49a.3.3,0,0,0-.07-.11l0,0a.41.41,0,0,0-.11.12.69.69,0,0,1-.12.18s0,0,0,0,.13.26.19.37a1,1,0,0,1,.12.32.37.37,0,0,0,.09.14l0,0" style="fill: #e0dfde"/>
    <path d="M14,14.64a3.14,3.14,0,0,0,.49-.14.2.2,0,0,1,.11-.06l.12,0s.14,0,.13-.09-.08-.39-.1-.48-.08-.44-.09-.48,0-.09,0-.11-.24-.19-.29-.22a.12.12,0,0,0-.1,0,.32.32,0,0,1-.16.06,4.13,4.13,0,0,0-.5.12c-.06,0-.12,0-.13.07s-.06,0,0,.13a2.68,2.68,0,0,0,0,.34c0,.09,0,.12.07.23a.73.73,0,0,1,0,.16.79.79,0,0,0,.07.23s.15.13.19.19.19.08.19.08" style="fill: #d3d1cf"/>
    <path d="M13.49,13.28s-.06,0,0,.13a2.68,2.68,0,0,0,0,.34c0,.09,0,.12.07.23a.73.73,0,0,1,0,.16.79.79,0,0,0,.07.23s.15.13.19.19a.41.41,0,0,0,.11.07,1.56,1.56,0,0,0,0-.27.83.83,0,0,1-.06-.19c0-.12,0-.19,0-.26a1.94,1.94,0,0,0,0-.2c0-.08,0-.07,0-.15s-.12-.09-.16-.13a.37.37,0,0,1-.12-.13s0,0,0,0v0" style="fill: #f2f2f2"/>
    <path d="M14.67,13.26s-.24-.19-.29-.22a.12.12,0,0,0-.1,0,.32.32,0,0,1-.16.06,4.13,4.13,0,0,0-.5.12.27.27,0,0,0-.12,0s0,0,0,0a.37.37,0,0,0,.12.13s.1.05.16.13l0,0,.38-.15a1.09,1.09,0,0,1,.33-.09.3.3,0,0,0,.15-.07s0,0,0,0" style="fill: #e0dfde"/>
    <path d="M5.17,22.15a3.57,3.57,0,0,0,.5-.14s0-.05.1-.06l.12,0s.14,0,.13-.09a4.57,4.57,0,0,0-.1-.48c0-.08-.08-.44-.09-.48s0-.09,0-.11-.24-.2-.29-.22a.15.15,0,0,0-.11,0,.27.27,0,0,1-.16.06,3.07,3.07,0,0,0-.5.12c-.06,0-.12,0-.13.07s-.06,0,0,.13,0,.25,0,.34,0,.12.07.23a.9.9,0,0,1,.05.16.83.83,0,0,0,.06.23s.15.13.2.19.18.08.18.08" style="fill: #d3d1cf"/>
    <path d="M4.62,20.79s-.06,0,0,.13,0,.25,0,.34,0,.12.07.23a.9.9,0,0,1,.05.16.83.83,0,0,0,.06.23s.15.13.2.19a.26.26,0,0,0,.1.07c0-.1,0-.24,0-.27A.37.37,0,0,1,5,21.68c0-.12,0-.19,0-.26a.84.84,0,0,0,0-.2c0-.08,0-.07,0-.15a.53.53,0,0,0-.16-.13.37.37,0,0,1-.12-.13l0,0s0,0,0,0" style="fill: #f2f2f2"/>
    <path d="M5.81,20.77s-.24-.2-.29-.22a.15.15,0,0,0-.11,0,.27.27,0,0,1-.16.06,3.07,3.07,0,0,0-.5.12.22.22,0,0,0-.12.05l0,0a.37.37,0,0,0,.12.13.53.53,0,0,1,.16.13l0,0L5.34,21a1.09,1.09,0,0,1,.33-.09.37.37,0,0,0,.16-.07s0,0,0,0" style="fill: #e0dfde"/>
    <path d="M12.91,18.13s0,.05.07.07l.15.09a1.08,1.08,0,0,0,.21.11s.08,0,.1.05l.07.05a.36.36,0,0,0,.11,0l.31-.17.16-.11.21-.13a1.3,1.3,0,0,0,.14-.12s.13-.11.15-.14.15-.2.19-.26a2.22,2.22,0,0,0,.13-.19s.1-.05,0-.09l-.18-.11c-.13-.07-.28-.22-.35-.26s-.05-.08-.1-.07l-.18.08-.21.11a1,1,0,0,0-.23.14s-.11,0-.18.15a1,1,0,0,1-.2.29l-.27.28-.13.2" style="fill: #d3d1cf"/>
    <path d="M14.31,16.88l-.18.08-.21.11a1,1,0,0,0-.23.14s-.11,0-.18.15a1,1,0,0,1-.2.29l-.27.28-.12.19.27-.13.36-.18c.08,0,.15,0,.22-.15a1.38,1.38,0,0,1,.23-.31,3.62,3.62,0,0,0,.34-.34l0-.1s0,0-.06,0" style="fill: #f2f2f2"/>
    <path d="M14.59,17.86s.15-.2.19-.26a2.22,2.22,0,0,0,.13-.19s.1-.05,0-.09l-.18-.11c-.13-.07-.28-.22-.35-.26l0,0,0,.1a3.62,3.62,0,0,1-.34.34,1.38,1.38,0,0,0-.23.31.28.28,0,0,1-.06.08l.19.05s.28.17.31.18l.18.07,0,0s.13-.11.15-.14" style="fill: #e0dfde"/>
    <path d="M15.43,14.22l.07.07.15.08a1.08,1.08,0,0,0,.21.11s.08,0,.1,0,0,0,.07.05a.36.36,0,0,0,.11,0,2.49,2.49,0,0,0,.31-.17l.16-.11.21-.12.14-.13s.13-.1.15-.14.15-.2.19-.26a2.22,2.22,0,0,0,.13-.19s.11,0,0-.08l-.18-.12a3.18,3.18,0,0,1-.35-.26c-.06,0,0-.07-.1-.06a.45.45,0,0,0-.18.07l-.21.11-.23.14a.32.32,0,0,0-.18.15.79.79,0,0,1-.2.29c-.16.18-.24.24-.26.28l-.14.21" style="fill: #d3d1cf"/>
    <path d="M16.83,13a.45.45,0,0,0-.18.07l-.21.11-.23.14a.32.32,0,0,0-.18.15.79.79,0,0,1-.2.29c-.16.18-.24.24-.26.28l-.13.2.27-.14a2.42,2.42,0,0,0,.36-.18c.08,0,.15,0,.22-.14a1.47,1.47,0,0,1,.23-.32,2.72,2.72,0,0,0,.34-.34l0-.1s0,0-.06,0" style="fill: #f2f2f2"/>
    <path d="M17.11,13.94s.15-.2.19-.26a2.22,2.22,0,0,0,.13-.19s.11,0,0-.08l-.18-.12a3.18,3.18,0,0,1-.35-.26l0,0,0,.1a2.72,2.72,0,0,1-.34.34,1.47,1.47,0,0,0-.23.32.22.22,0,0,1-.06.07l.19,0,.31.18.18.08.05-.05s.13-.1.15-.14" style="fill: #e0dfde"/>
    <path d="M8.78,17.54s0,.05.07.07L9,17.7a1.08,1.08,0,0,0,.21.11s.08,0,.1.05l.07.05a.36.36,0,0,0,.11,0l.31-.17.16-.11.21-.13a1.3,1.3,0,0,0,.14-.12s.13-.11.15-.14.15-.2.19-.26a1.32,1.32,0,0,0,.13-.2s.1,0,0-.08l-.18-.11c-.13-.07-.28-.22-.35-.26s0-.08-.1-.07l-.18.08-.21.11a1,1,0,0,0-.23.14c-.05,0-.11,0-.18.15a1,1,0,0,1-.2.29l-.27.28-.13.2" style="fill: #d3d1cf"/>
    <path d="M10.18,16.29l-.18.08-.21.11a1,1,0,0,0-.23.14c-.05,0-.11,0-.18.15a1,1,0,0,1-.2.29l-.27.28-.12.19.27-.13.36-.18c.08,0,.15,0,.22-.15a1.38,1.38,0,0,1,.23-.31,3.62,3.62,0,0,0,.34-.34l0-.1s0,0-.06,0" style="fill: #f2f2f2"/>
    <path d="M10.46,17.27s.15-.2.19-.26a1.32,1.32,0,0,0,.13-.2s.1,0,0-.08l-.18-.11c-.13-.07-.28-.22-.35-.26l0,0,0,.1a3.62,3.62,0,0,1-.34.34,1.38,1.38,0,0,0-.23.31.28.28,0,0,1-.06.08l.19.05s.28.17.31.18l.18.07.05,0s.13-.11.15-.14" style="fill: #e0dfde"/>
    <path d="M10.87,12.2a.27.27,0,0,0,0,.1,1.16,1.16,0,0,0,.06.16c0,.06.06.19.09.21s0,.08.05.1,0,.05,0,.09a.4.4,0,0,0,.07.09,2.52,2.52,0,0,0,.35.06l.19,0,.24,0a1.28,1.28,0,0,0,.19,0h.21l.31-.08.22-.07s.11,0,.08-.05l-.08-.21a3.93,3.93,0,0,1-.1-.41c0-.08,0-.09,0-.11s0,0-.19-.06L12.32,12l-.26,0a.37.37,0,0,0-.23,0,1.17,1.17,0,0,1-.34.1l-.38,0-.24.08" style="fill: #d3d1cf"/>
    <path d="M12.75,12.11c-.05,0,0,0-.19-.06L12.32,12l-.26,0a.37.37,0,0,0-.23,0,1.17,1.17,0,0,1-.34.1l-.38,0-.22.08.29.06c.08,0,.31.08.4.09s.12.08.26,0a1.73,1.73,0,0,1,.37-.1,3,3,0,0,0,.48,0l.09-.07s0,0,0,0" style="fill: #f2f2f2"/>
    <path d="M12.36,13l.31-.08.22-.07s.11,0,.08-.05l-.08-.21a3.93,3.93,0,0,1-.1-.41.2.2,0,0,1,0-.07l-.09.07a3,3,0,0,1-.48,0,1.73,1.73,0,0,0-.37.1.18.18,0,0,1-.09,0l.11.16s.12.31.13.33a1,1,0,0,0,.09.18h.28" style="fill: #e0dfde"/>
    <path d="M14,8.66s0,.05,0,.1l.06.16c0,.06.07.19.09.21s0,.08.05.1a.64.64,0,0,1,0,.09l.07.09a2.81,2.81,0,0,0,.35.06l.19,0,.25,0a1.15,1.15,0,0,0,.18,0h.21l.31-.08.22-.07s.11,0,.08,0,0-.07-.08-.21a3.93,3.93,0,0,1-.1-.41c0-.08,0-.09,0-.12a.59.59,0,0,0-.19-.05l-.23,0-.27,0a.36.36,0,0,0-.23,0,1,1,0,0,1-.34.1l-.38.05L14,8.66" style="fill: #d3d1cf"/>
    <path d="M15.91,8.56a.59.59,0,0,0-.19-.05l-.23,0-.27,0a.36.36,0,0,0-.23,0,1,1,0,0,1-.34.1l-.38.05-.22.08.29.06.4.09c.09,0,.12.08.26,0a1.65,1.65,0,0,1,.38-.1,3.22,3.22,0,0,0,.48-.05.5.5,0,0,0,.08-.07s0,0,0,0" style="fill: #f2f2f2"/>
    <path d="M15.52,9.5l.31-.08.22-.07s.11,0,.08,0,0-.07-.08-.21a3.93,3.93,0,0,1-.1-.41.2.2,0,0,1,0-.07.5.5,0,0,1-.08.07,3.22,3.22,0,0,1-.48.05,1.65,1.65,0,0,0-.38.1.15.15,0,0,1-.09,0L15,9a2.26,2.26,0,0,1,.13.33l.1.18h.27" style="fill: #e0dfde"/>
    <path d="M11.41,22.66s0,.05,0,.1a.91.91,0,0,1,.06.16,1,1,0,0,0,.1.21.21.21,0,0,1,0,.1.64.64,0,0,1,0,.09l.07.09a2.81,2.81,0,0,0,.35.06l.2,0,.24,0a1.15,1.15,0,0,0,.18,0,.68.68,0,0,0,.21,0l.31-.07.23-.07s.1,0,.07-.05,0-.08-.07-.21-.08-.34-.11-.41,0-.09,0-.12,0,0-.19,0l-.23-.05-.27,0a.36.36,0,0,0-.23,0,1,1,0,0,1-.33.1l-.39,0-.23.08" style="fill: #d3d1cf"/>
    <path d="M13.28,22.56s0,0-.19,0l-.23-.05-.27,0a.36.36,0,0,0-.23,0,1,1,0,0,1-.33.1l-.39,0-.21.08.29.06.39.09c.09,0,.12.08.26,0a1.8,1.8,0,0,1,.38-.1,3.08,3.08,0,0,0,.48-.05l.08-.07s0,0,0-.05" style="fill: #f2f2f2"/>
    <path d="M12.89,23.49l.31-.07.23-.07s.1,0,.07-.05,0-.08-.07-.21-.08-.34-.11-.41a.2.2,0,0,1,0-.07l-.08.07a3.08,3.08,0,0,1-.48.05,1.8,1.8,0,0,0-.38.1.15.15,0,0,1-.09,0l.12.16s.11.31.12.33l.1.18h.06a.68.68,0,0,0,.21,0" style="fill: #e0dfde"/>
    <path d="M20.88,13.79l.08.14c0,.05.11.22.14.29l.08.17a1.63,1.63,0,0,0,.11.17.15.15,0,0,1,0,.09c.05,0,.2-.12.25-.15l.21-.11.25-.14.17-.1s0-.08,0-.16L22,13.68l-.13-.17s0-.15-.09-.18-.13-.11-.23-.07l-.54.28a1,1,0,0,0-.19.11l0,0s0,0,0,0,.06,0,.08.08" style="fill: #d3d1cf"/>
    <path d="M20.58,14.06c0,.1.1.13.12.18l.09.15.08.14c0,.05.07.13.1.17a.81.81,0,0,0,.05.1,1.64,1.64,0,0,0,.3-.14h0a.15.15,0,0,0,0-.09,1.63,1.63,0,0,1-.11-.17l-.08-.17c0-.07-.11-.24-.14-.29l-.08-.14s-.05-.08-.08-.08,0,0,0,0l0,0s-.2.24-.16.34" style="fill: #f2f2f2"/>
  </g>
</svg>
