<svg id="b5b5a030-09bf-47e1-b1e3-d6a9c32d03c9" data-name="Calque 1" xmlns="http://www.w3.org/2000/svg" width="32" height="32" viewBox="0 0 32 32">
  <title>places-21-IconePyloneEDF</title>
  <path d="M23.3,24l1.16,3.39a1.35,1.35,0,0,1-1.28,1.79,1.33,1.33,0,0,1-1.12-.6L19,24H13.35l-3.07,4.58a1.35,1.35,0,0,1-1.13.6,1.39,1.39,0,0,1-.6-.14,1.35,1.35,0,0,1-.68-1.65L9,24H0v8H32V24Z" style="fill: #6f9628"/>
  <path d="M26.14,7.37A.36.36,0,0,0,25.88,7l-8-1.35-.1,0h-.11L16.52,1.73a.35.35,0,0,0-.35-.27h0a.35.35,0,0,0-.35.27L14.45,5.61h-.1l-.11,0L6.42,7a.35.35,0,0,0-.25.39.36.36,0,0,0,.35.31L13.61,9h0l-.31,2.42-.43,4.32L8.68,27.87a.36.36,0,0,0,.18.44.37.37,0,0,0,.47-.12l4.51-6.73h4.62L23,28.19a.37.37,0,0,0,.3.16.32.32,0,0,0,.16,0,.36.36,0,0,0,.18-.44L19.44,15.7,19,11.38,18.7,9l7.08-1.28A.37.37,0,0,0,26.14,7.37ZM14.06,15.42l2.07-3,2.16,3Zm3.86.72-1.77,1.22-1.77-1.22ZM14.61,9h3l-1.52,2.38ZM17,5.61H15.54l.61-2.41M15,6.34h2.14l.56,1.75H14.47Zm-6.75,1,6-1-.54,1.71Zm5.92,2.27,1.4,2.26-1.91,2.71Zm-.77,6.74,2.11,1.45-3.43,2.37Zm.24,4.38h-1.1l3.6-2.49,3.6,2.49h-6.1Zm5.25-4.38,1.31,3.82L16.79,17.8Zm-.26-1.7-2-2.78,1.4-2.32Zm-.18-6.56-.55-1.71L24,7.23Z" style="fill: gray"/>
</svg>
