<svg id="a69bfe68-9d88-437c-a516-fd40e9a0b5e2" data-name="Calque 1" xmlns="http://www.w3.org/2000/svg" width="32" height="32" viewBox="0 0 32 32">
  <title>building-53-IconeMaisonBois</title>
  <g>
    <g>
      <path d="M27.15,19.51,26.63,19,23.4,15.79l-1-1-3.6-3.58-1-1L16.72,9.16a.93.93,0,0,0-.75-.3,1,1,0,0,0-.74.32l-1,1.05-1,1L9.6,14.9l-1,1L5.57,19l-.42.42a3.36,3.36,0,0,1-1.06.75l-.09,0V29H14.2V22h3.6v7H28V20.11a3.36,3.36,0,0,1-.83-.58Z" style="fill: #caa989"/>
      <polygon points="25.18 9.12 25.06 9.12 25.22 9.28 25.18 9.12" style="fill: #ab4d2b"/>
    </g>
    <path d="M32,16.43,29.6,6.06a2.47,2.47,0,0,0-2.18-1.94L5,4.08H4.75a2.51,2.51,0,0,0-2.45,2L.18,16.5a2.49,2.49,0,0,0,1.29,2.71,2.38,2.38,0,0,0,1.16.29A2.51,2.51,0,0,0,4,19.08L4.09,19a1.87,1.87,0,0,0,.34-.29L5,18.15l3.6-3.66,1-1,3.6-3.66,1-1,.12-.12a2.33,2.33,0,0,1,3.29-.06l.19.2,1,1,3.6,3.58,1,1L27.05,18l.12.12.68.67.15.13a2.49,2.49,0,0,0,4-2.49Z" style="fill: #945b3f"/>
  </g>
</svg>
