<svg id="bf59332a-9c99-47ff-b2ca-a9c4da3ab773" data-name="Calque 1" xmlns="http://www.w3.org/2000/svg" width="32" height="32" viewBox="0 0 32 32">
  <title>field-79-IconeAjusterAIlot</title>
  <polyline points="24.95 16.13 31.16 6.93 13.37 0.9 8.38 8.13" style="fill: #cce1b5;stroke: #516d53;stroke-miterlimit: 10"/>
  <path d="M8.42,7.23l-7.66,11L15.27,31.33,25.9,15.66Zm6.66,22.58-13-11.72L8.79,8.45l15.59,7.69Z" style="fill: #b71236"/>
  <polygon points="24.38 16.14 8.79 8.45 2.08 18.09 15.08 29.81 24.38 16.14" style="fill: #a9cd82"/>
  <rect x="11.5" y="-0.01" width="4" height="4" style="fill: #516d53"/>
  <rect x="13" y="28" width="4" height="4" style="fill: #516d53"/>
  <rect y="16.39" width="4" height="4" style="fill: #516d53"/>
  <rect x="28" y="5.23" width="4" height="4" style="fill: #516d53"/>
  <rect x="13" y="28" width="4" height="4" style="fill: #516d53"/>
  <rect y="16.39" width="4" height="4" style="fill: #516d53"/>
  <polygon points="20.65 5.63 19.5 5.23 18.02 7.66 15.72 6.86 17.25 10.07 21.48 8.87 19.17 8.06 20.65 5.63" style="fill: #516d53"/>
</svg>
