<svg id="a2408f84-59c5-444d-9d44-52c05dafdb39" data-name="Calque 1" xmlns="http://www.w3.org/2000/svg" width="32" height="32" viewBox="0 0 32 32">
  <title>keys-52-IconeFlatCadenasFermePleinGris</title>
  <path d="M8.05,14.71V10.47a8.1,8.1,0,0,1,16.19,0v4.6" style="fill: none;stroke: #9b9c9e;stroke-miterlimit: 1;stroke-width: 3px"/>
  <path d="M29.7,13.79H2.3A2.23,2.23,0,0,0,.06,16V29.77A2.23,2.23,0,0,0,2.3,32H29.7a2.23,2.23,0,0,0,2.24-2.23V16A2.23,2.23,0,0,0,29.7,13.79ZM17.32,24.5a1.5,1.5,0,0,1-3,0V21a1.5,1.5,0,0,1,3,0Z" style="fill: #9b9c9e"/>
</svg>
