<svg id="eaf10006-f76d-4915-be1f-02fe9c39d962" data-name="Calque 1" xmlns="http://www.w3.org/2000/svg" width="32" height="32" viewBox="0 0 32 32">
  <title>products-32-IconeFlatNPK</title>
  <g>
    <path d="M3.21,11.07l4.32,6.54V11a1.5,1.5,0,0,1,.28-1,1,1,0,0,1,.75-.32,1,1,0,0,1,.76.32,1.44,1.44,0,0,1,.28,1v8.73c0,1-.4,1.46-1.21,1.46a1.53,1.53,0,0,1-.54-.09,1.43,1.43,0,0,1-.46-.27A2.87,2.87,0,0,1,7,20.39c-.12-.17-.25-.34-.37-.52L2.42,13.41v6.5a1.35,1.35,0,0,1-.3,1,1,1,0,0,1-.76.33,1,1,0,0,1-.76-.33,1.43,1.43,0,0,1-.29-1V11.35a2.46,2.46,0,0,1,.12-.86,1.27,1.27,0,0,1,.48-.55,1.25,1.25,0,0,1,.72-.22,1.21,1.21,0,0,1,.52.1,1.22,1.22,0,0,1,.38.26,3.41,3.41,0,0,1,.33.43Z" style="fill: #005da8"/>
    <path d="M16.37,16.69H14.31v3.14a1.42,1.42,0,0,1-.32,1,1,1,0,0,1-.8.35,1.06,1.06,0,0,1-.82-.35,1.47,1.47,0,0,1-.31-1V11.29a1.42,1.42,0,0,1,.34-1.06,1.58,1.58,0,0,1,1.09-.32h2.88a7.2,7.2,0,0,1,2,.2,2.78,2.78,0,0,1,1.93,1.7,3.8,3.8,0,0,1,.26,1.43,3.15,3.15,0,0,1-1.05,2.57A4.75,4.75,0,0,1,16.37,16.69Zm-.54-5.09H14.31V15h1.52a4.46,4.46,0,0,0,1.32-.17,1.56,1.56,0,0,0,.82-.54,1.59,1.59,0,0,0,.28-1,1.73,1.73,0,0,0-.43-1.2A2.88,2.88,0,0,0,15.83,11.6Z" style="fill: #005da8"/>
    <path d="M24.67,11.08V15l4.41-4.6a5,5,0,0,1,.55-.49.94.94,0,0,1,.59-.16A1.08,1.08,0,0,1,31,10a.92.92,0,0,1,.3.7,1.38,1.38,0,0,1-.5,1l-2.74,2.59,3.15,4.52a5.32,5.32,0,0,1,.5.82,1.59,1.59,0,0,1,.17.68.87.87,0,0,1-.29.65,1.13,1.13,0,0,1-.79.27A1.37,1.37,0,0,1,30,21a1.74,1.74,0,0,1-.5-.54q-.21-.33-.36-.6l-2.66-4.09-1.84,1.76v2.3a1.46,1.46,0,0,1-.32,1,1.05,1.05,0,0,1-.82.34,1.11,1.11,0,0,1-.55-.15,1.08,1.08,0,0,1-.41-.41,1.47,1.47,0,0,1-.13-.49c0-.19,0-.46,0-.81V11.08a1.51,1.51,0,0,1,.3-1,1,1,0,0,1,.81-.34,1.07,1.07,0,0,1,.83.34A1.48,1.48,0,0,1,24.67,11.08Z" style="fill: #005da8"/>
  </g>
</svg>
