<svg id="b25d1417-3ceb-4ef1-88bb-de33da262c1d" data-name="Calque 1" xmlns="http://www.w3.org/2000/svg" width="32" height="32" viewBox="0 0 32 32">
  <title>doc-97-IconeImporter</title>
  <path d="M24.27,27.05A6.72,6.72,0,1,1,31,20.33,6.73,6.73,0,0,1,24.27,27.05Z" style="fill: #0499d1"/>
  <polygon points="27.81 17.92 26.68 16.79 23.56 19.91 21.29 17.64 21.29 23.31 26.96 23.31 24.69 21.04 27.81 17.92" style="fill: #fff"/>
  <path d="M24.27,27.05A6.72,6.72,0,1,1,31,20.33,6.73,6.73,0,0,1,24.27,27.05Z" style="fill: #0499d1"/>
  <polygon points="27.81 17.92 26.68 16.79 23.56 19.91 21.29 17.64 21.29 23.31 26.96 23.31 24.69 21.04 27.81 17.92" style="fill: #fff"/>
  <path d="M25.65,29.5A1.51,1.51,0,0,1,24.14,31h-19a1.5,1.5,0,0,1-1.5-1.5V2.5A1.5,1.5,0,0,1,5.15,1H18.6a1.5,1.5,0,0,1,1.06.44L25.21,7A1.5,1.5,0,0,1,25.65,8v3.7c.34,0,.67.11,1,.19V8a2.52,2.52,0,0,0-.74-1.77L20.37.73A2.53,2.53,0,0,0,18.6,0H5.15a2.5,2.5,0,0,0-2.5,2.5v27A2.5,2.5,0,0,0,5.15,32h19a2.63,2.63,0,0,0,1-.19,2.5,2.5,0,0,0,1.53-2.31v-.65a8.4,8.4,0,0,1-1,.19Z" style="fill: #868789"/>
  <g>
    <path d="M24.56,11.67a9.81,9.81,0,0,1,1.09.07V8A1.5,1.5,0,0,0,25.21,7L19.66,1.44A1.5,1.5,0,0,0,18.6,1H5.15a1.5,1.5,0,0,0-1.5,1.5v27A1.5,1.5,0,0,0,5.15,31h19a1.51,1.51,0,0,0,1.51-1.5V29a9.81,9.81,0,0,1-1.09.07A8.67,8.67,0,0,1,20.38,28H7.75a.51.51,0,0,1-.5-.5.5.5,0,0,1,.5-.5H18.91a8.93,8.93,0,0,1-1.73-2H7.75a.51.51,0,0,1-.5-.5.5.5,0,0,1,.5-.5h8.89s0-.05,0-.08c-.14-.32-.27-.66-.38-1A9,9,0,0,1,16,22H7.75a.5.5,0,0,1-.5-.5.51.51,0,0,1,.5-.5h8.13c0-.2,0-.41,0-.62s0-.3,0-.45c0-.31.05-.62.1-.93H7.75a.5.5,0,0,1-.5-.5.51.51,0,0,1,.5-.5h8.43A9,9,0,0,1,17,16H7.75a.5.5,0,0,1-.5-.5.51.51,0,0,1,.5-.5h10l.05-.07A8.71,8.71,0,0,1,24.56,11.67Z" style="fill: #fff"/>
    <path d="M7.25,21.51a.5.5,0,0,0,.5.5H16c-.06-.32-.1-.66-.13-1H7.75A.51.51,0,0,0,7.25,21.51Z" style="fill: #d7d8d9"/>
    <path d="M7.25,18.51a.5.5,0,0,0,.5.5H16a.2.2,0,0,1,0-.07c0-.31.13-.62.21-.93H7.75A.51.51,0,0,0,7.25,18.51Z" style="fill: #d7d8d9"/>
    <path d="M7.25,15.51a.5.5,0,0,0,.5.5H17a.25.25,0,0,0,0-.07,9.6,9.6,0,0,1,.64-.93h-10A.51.51,0,0,0,7.25,15.51Z" style="fill: #d7d8d9"/>
    <path d="M7.25,24.52a.51.51,0,0,0,.5.5h9.43a9.64,9.64,0,0,1-.54-1H7.75A.5.5,0,0,0,7.25,24.52Z" style="fill: #d7d8d9"/>
    <path d="M7.25,27.52a.51.51,0,0,0,.5.5H20.38a8.85,8.85,0,0,1-1.47-1H7.75A.5.5,0,0,0,7.25,27.52Z" style="fill: #d7d8d9"/>
  </g>
  <g>
    <path d="M20.9,5.72H19.15V7.14H21.4V6.22A.51.51,0,0,0,20.9,5.72Z" style="fill: none"/>
    <path d="M21.4,11a.5.5,0,0,1-.5.5H8.75a.5.5,0,0,1-.5-.5V6.22a.51.51,0,0,1,.5-.5h8.4v-1H8.75a1.51,1.51,0,0,0-1.5,1.5V11a1.5,1.5,0,0,0,1.5,1.5H20.9A1.5,1.5,0,0,0,22.4,11V9.14h-1Z" style="fill: #d7d8d9"/>
    <path d="M25.34,7.14H19.15v-6A1.5,1.5,0,0,0,18.6,1h-.45V7.64a.5.5,0,0,0,.5.5h7V8A1.47,1.47,0,0,0,25.34,7.14Z" style="fill: #d7d8d9"/>
  </g>
</svg>
