<svg id="ec4f633e-7ea3-41c5-8783-1dccd2acbf47" data-name="Calque 1" xmlns="http://www.w3.org/2000/svg" width="32" height="32" viewBox="0 0 32 32">
  <title>vehicles-46-5F899DC</title>
  <g>
    <path d="M.78,4.37h20.6A.66.66,0,0,1,22,5V7a.29.29,0,0,0,0,.09V19.54h-.64v.05H.78v-.05H.13V5a.65.65,0,0,1,.65-.66" style="fill: #fac262"/>
    <path d="M24.7,24.31a1.54,1.54,0,0,1,.11-.66,1.45,1.45,0,0,1,2.66,0,1.58,1.58,0,0,1,.12.58,1.48,1.48,0,0,1-1.45,1.45,1.45,1.45,0,0,1-1.44-1.37m-2-.66a3.68,3.68,0,0,0-.05.58,3.46,3.46,0,0,0,6.91.08,2.56,2.56,0,0,0-.05-.66,2.91,2.91,0,0,0-.17-.66,3.48,3.48,0,0,0-2.18-2.06,3.53,3.53,0,0,0-2.1,0A3.48,3.48,0,0,0,22.91,23,3.57,3.57,0,0,0,22.73,23.65Z" style="fill: #6f6f6f"/>
    <path d="M24,14.1V10.25h4.38a6.24,6.24,0,0,1,1.89,3.85H24M12,23a4.48,4.48,0,0,1,.18,1.24l9.65.08a4.08,4.08,0,0,1,0-.66A3.69,3.69,0,0,1,22,23a4.33,4.33,0,0,1,1.34-2.06h.05a3.3,3.3,0,0,1,1-.66,3.86,3.86,0,0,1,.89-.29A4.35,4.35,0,0,1,27,20a3.86,3.86,0,0,1,.89.29,4.17,4.17,0,0,1,1,.66A4.33,4.33,0,0,1,30.29,23a4.48,4.48,0,0,1,.18,1.24l.72.08a.66.66,0,0,0,.65-.66V20.27a.63.63,0,0,0-.16-.43V14.92a7.56,7.56,0,0,0-2.62-5.85.61.61,0,0,0-.39-.13H23.38a.64.64,0,0,0-.49.22V20a.44.44,0,0,1-.11.29h-.06a.29.29,0,0,1-.26.15H9.9a4.23,4.23,0,0,1,.74.51A4.33,4.33,0,0,1,12,23Z" style="fill: #5b83b6"/>
    <path d="M6.39,24.31a1.54,1.54,0,0,1,.11-.66,1.45,1.45,0,0,1,2.66,0,1.58,1.58,0,0,1,.12.58,1.48,1.48,0,0,1-1.45,1.45,1.45,1.45,0,0,1-1.44-1.37m-2-.66a2.78,2.78,0,0,0-.06.58,3.46,3.46,0,0,0,6.91.08,2.56,2.56,0,0,0,0-.66,2.91,2.91,0,0,0-.17-.66,3.48,3.48,0,0,0-2.18-2.06,3.53,3.53,0,0,0-2.1,0A3.48,3.48,0,0,0,4.6,23,2.91,2.91,0,0,0,4.43,23.65Z" style="fill: #6f6f6f"/>
    <path d="M6.06,20.27c-.1.05-.2.09-.3.15a4.23,4.23,0,0,0-.74.51A4.33,4.33,0,0,0,3.68,23a3.69,3.69,0,0,0-.14.66,5.68,5.68,0,0,0,0,.66H2.12a.66.66,0,0,1-.66-.66v-3.4H6.1" style="fill: #5b83b6"/>
  </g>
</svg>
