<svg id="b0a1ce05-658f-4bd8-9436-6cc6492d72d8" data-name="Calque 1" xmlns="http://www.w3.org/2000/svg" width="32" height="32" viewBox="0 0 32 32">
  <title>products-43-IconePhosphore</title>
  <path d="M16.53,17.11H13.41v4.77a2.16,2.16,0,0,1-.49,1.54,1.54,1.54,0,0,1-1.21.53,1.58,1.58,0,0,1-1.24-.52A2.19,2.19,0,0,1,10,21.9v-13a2.12,2.12,0,0,1,.51-1.6,2.34,2.34,0,0,1,1.65-.49h4.37a11.4,11.4,0,0,1,3,.3,4.54,4.54,0,0,1,1.79,1,4.37,4.37,0,0,1,1.14,1.63,5.78,5.78,0,0,1,.39,2.17,4.79,4.79,0,0,1-1.59,3.9A7.19,7.19,0,0,1,16.53,17.11ZM15.7,9.4H13.41v5.14H15.7a6.87,6.87,0,0,0,2-.25A2.33,2.33,0,0,0,19,13.46a2.47,2.47,0,0,0,.42-1.5,2.51,2.51,0,0,0-.65-1.81C18.23,9.65,17.22,9.4,15.7,9.4Z" style="fill: #005da8"/>
</svg>
