<svg id="f37d76de-2980-458e-a11a-94d7c2cc5e89" data-name="Calque 1" xmlns="http://www.w3.org/2000/svg" width="32" height="32" viewBox="0 0 32 32">
  <title>vegetal-41-IconeGroupeArbre</title>
  <g>
    <path d="M9.67,18.27a4.36,4.36,0,0,1-.84-1H8.76a3.26,3.26,0,0,1-2-.67,3.65,3.65,0,0,1-.69.4,17.4,17.4,0,0,1-.57,4.7c-.75,2.18-1.39,2.23-1.39,2.23,2.38-.15,3.07-.84,3.07-.84l2.19,1.25L8.6,22.75a7.91,7.91,0,0,0,1.52,1,3.57,3.57,0,0,0,2.46.52,8,8,0,0,1-2.26-2.51,4.26,4.26,0,0,1-.78-2.46A4,4,0,0,1,9.67,18.27Z" style="fill: #ac7152"/>
    <path d="M8.76,17.24h.07a4.27,4.27,0,0,1,3-6.45,4.29,4.29,0,0,1,1.32-2,3.09,3.09,0,0,0,.11-.8A3.42,3.42,0,0,0,9.45,4.54,3.29,3.29,0,0,0,3.62,6.4a3.29,3.29,0,0,0-1.83,6.14,3.29,3.29,0,0,0,3,4.7A3.36,3.36,0,0,0,6.07,17a3.65,3.65,0,0,0,.69-.4A3.26,3.26,0,0,0,8.76,17.24Z" style="fill: #7fa349"/>
    <path d="M25,17.09c0,.1,0,.2,0,.3a4.28,4.28,0,0,1-2.11,3.7c-.05.2-.11.4-.17.58-.74,2.18-1.38,2.23-1.38,2.23,2.37-.15,3.07-.84,3.07-.84l2.19,1.25-.78-1.56a7.9,7.9,0,0,0,1.53,1,3.57,3.57,0,0,0,2.46.52,7.6,7.6,0,0,1-2.33-2.65,25.54,25.54,0,0,1-.55-4.52,3.31,3.31,0,0,1-.95.14A3.37,3.37,0,0,1,25,17.09Z" style="fill: #ac7152"/>
    <path d="M28.93,15.32a3.29,3.29,0,0,0,1.34-6.23A3.2,3.2,0,0,0,30.48,8a3.42,3.42,0,0,0-3.83-3.41A3.3,3.3,0,0,0,20.81,6.4a3.25,3.25,0,0,0-3.06,1.69,4.4,4.4,0,0,1,1.18.78h0a4.43,4.43,0,0,1,4.41,4.44,3.91,3.91,0,0,1-.06.68A4.2,4.2,0,0,1,25,17.09a3.37,3.37,0,0,0,1,.15,3.31,3.31,0,0,0,.95-.14A3.26,3.26,0,0,0,28.93,15.32Z" style="fill: #7fa349"/>
  </g>
  <g>
    <path d="M13.18,29.25s.64-.05,1.38-2.23.56-6.39.56-6.39h3.56A41.45,41.45,0,0,0,19.32,27a7.6,7.6,0,0,0,2.33,2.65,3.53,3.53,0,0,1-2.46-.51,8.74,8.74,0,0,1-1.53-1l.78,1.56-2.19-1.26S15.56,29.11,13.18,29.25Z" style="fill: #ac7152"/>
    <circle cx="15.97" cy="11.98" r="2.8" style="fill: #7fa349;stroke: #7fa349;stroke-miterlimit: 10"/>
    <circle cx="12.49" cy="15.04" r="2.8" style="fill: #7fa349;stroke: #7fa349;stroke-miterlimit: 10"/>
    <circle cx="17.82" cy="19.3" r="2.8" style="fill: #7fa349;stroke: #7fa349;stroke-miterlimit: 10"/>
    <circle cx="18.91" cy="13.31" r="2.94" style="fill: #7fa349;stroke: #7fa349;stroke-miterlimit: 10"/>
    <circle cx="20.68" cy="17.39" r="2.8" style="fill: #7fa349;stroke: #7fa349;stroke-miterlimit: 10"/>
    <circle cx="13.84" cy="19.3" r="2.8" style="fill: #7fa349;stroke: #7fa349;stroke-miterlimit: 10"/>
    <circle cx="16.63" cy="15.62" r="2.8" style="fill: #7fa349;stroke: #7fa349;stroke-miterlimit: 10"/>
  </g>
</svg>
