<svg id="f6c2162a-eb4b-4820-bdfe-839e6d4f6bd1" data-name="Calque 1" xmlns="http://www.w3.org/2000/svg" width="32" height="32" viewBox="0 0 32 32">
  <title>equipment-55-2614C5E7</title>
  <path d="M31.39,6l-.45-.46h0a14.06,14.06,0,0,0-2.07,1.86,12.49,12.49,0,0,1-2.26,2h0a5.6,5.6,0,0,1-1.37-.74,8.22,8.22,0,0,1-1.81-1.82,5.41,5.41,0,0,1-.75-1.37,12.49,12.49,0,0,1,2-2.26,11.34,11.34,0,0,0,1.85-2.09L26,.6C26,.52,25.75.49,25.47.49a8.39,8.39,0,0,0-1.83.26,8.76,8.76,0,0,0-3.5,2A6.57,6.57,0,0,0,18.6,6.52a11,11,0,0,1-.5,3.19C18,10,14.05,14,11.38,16.58a19.89,19.89,0,0,1-1.66,1.53,11,11,0,0,1-3.2.5,6.53,6.53,0,0,0-3.8,1.54,8.67,8.67,0,0,0-2,3.5A4.39,4.39,0,0,0,.61,26l.45.46h0a14.06,14.06,0,0,0,2.07-1.86,12.49,12.49,0,0,1,2.26-2h0a5.6,5.6,0,0,1,1.37.74,8,8,0,0,1,1.81,1.82,5.41,5.41,0,0,1,.75,1.37,12.49,12.49,0,0,1-2,2.26A11.34,11.34,0,0,0,5.52,31L6,31.4c.07.08.27.11.55.11a8.39,8.39,0,0,0,1.83-.26,8.76,8.76,0,0,0,3.5-1.95,6.57,6.57,0,0,0,1.54-3.82,11,11,0,0,1,.5-3.19c.15-.31,4-4.25,6.71-6.87a21,21,0,0,1,1.67-1.53,11,11,0,0,1,3.2-.5,6.53,6.53,0,0,0,3.8-1.54,8.67,8.67,0,0,0,2-3.5A4.39,4.39,0,0,0,31.39,6Z" style="fill: #8b8c8e"/>
</svg>
