<svg id="a86e2087-103f-4ea5-9ed3-62ee71d70ec0" data-name="Calque 1" xmlns="http://www.w3.org/2000/svg" width="32" height="32" viewBox="0 0 32 32">
  <title>sign-41-IconeTravail</title>
  <g>
    <path d="M3.22,29.85A2.61,2.61,0,0,1,1,25.94L13.9,3.54a2.6,2.6,0,0,1,4.51,0l12.94,22.4a2.61,2.61,0,0,1-2.26,3.91Z" style="fill: #fff"/>
    <path d="M16.16,2.62a2.21,2.21,0,0,1,1.92,1.11L31,26.14a2.21,2.21,0,0,1-1.92,3.32H3.22A2.21,2.21,0,0,1,1.3,26.14L14.24,3.73a2.18,2.18,0,0,1,1.92-1.11m0-.77a3,3,0,0,0-2.59,1.49L.63,25.75a3,3,0,0,0,2.59,4.49H29.09a3,3,0,0,0,2.59-1.5,2.92,2.92,0,0,0,0-3L18.75,3.34a3,3,0,0,0-2.59-1.49Z" style="fill: #fff"/>
  </g>
  <g>
    <path d="M3.22,29a1.71,1.71,0,0,1-1.49-2.57L14.67,4a1.71,1.71,0,0,1,3,0L30.58,26.39A1.71,1.71,0,0,1,29.09,29Z" style="fill: #fff"/>
    <path d="M16.16,3.62a1.19,1.19,0,0,1,1.05.61L30.15,26.64a1.21,1.21,0,0,1,0,1.21,1.19,1.19,0,0,1-1.06.61H3.22a1.17,1.17,0,0,1-1.05-.61,1.16,1.16,0,0,1,0-1.21L15.1,4.23a1.21,1.21,0,0,1,1.06-.61m0-1a2.18,2.18,0,0,0-1.92,1.11L1.3,26.14a2.21,2.21,0,0,0,1.92,3.32H29.09A2.21,2.21,0,0,0,31,26.14L18.08,3.73a2.21,2.21,0,0,0-1.92-1.11Z" style="fill: #d10000"/>
  </g>
  <g>
    <path d="M17.69,12.39a1.48,1.48,0,1,1-1.47-1.48,1.47,1.47,0,0,1,1.47,1.48" style="fill: #4d4d4d"/>
    <path d="M15.57,19.37a1.7,1.7,0,0,1-2,1.24,1.59,1.59,0,0,1-1.33-1.87L13.05,15a1.71,1.71,0,0,1,2-1.24,1.6,1.6,0,0,1,1.32,1.88l-.82,3.74" style="fill: #4d4d4d"/>
    <path d="M10.78,15.93l3.16-2a.69.69,0,0,1,.9.15.57.57,0,0,1-.16.83l-2.92,1.85L12,18.42a.62.62,0,0,1-.56.67.65.65,0,0,1-.73-.52l-.28-2a.56.56,0,0,1,.28-.56l.07-.06" style="fill: #4d4d4d"/>
    <path d="M16.46,18.32,15,15a.58.58,0,0,1,.37-.77.66.66,0,0,1,.83.33l1.37,3.15,2.12,1.76a.56.56,0,0,1,0,.84.69.69,0,0,1-.91,0l-2.22-1.84a.58.58,0,0,1-.18-.23" style="fill: #4d4d4d"/>
    <path d="M14,22.43a.54.54,0,0,1,0,.28.53.53,0,0,1,0,.12l-1.47,3.26a.66.66,0,0,1-.84.32.58.58,0,0,1-.36-.77l1.45-3.21-.38-3.38a.6.6,0,0,1,.57-.65.62.62,0,0,1,.71.52l.4,3.51" style="fill: #4d4d4d"/>
    <path d="M16,22a.57.57,0,0,1,0,.18.6.6,0,0,1,0,.19l-.52,3.49a.65.65,0,0,1-.73.51.6.6,0,0,1-.55-.67l.51-3.42L13.62,19a.58.58,0,0,1,.44-.73.65.65,0,0,1,.8.39L16,22" style="fill: #4d4d4d"/>
    <path d="M10.36,18.44a.32.32,0,0,1-.27-.38.35.35,0,0,1,.42-.24l10.22,2,.3-1.28s2.41.58,2.06,2.05-2.73.81-2.73.81l.22-.95-10.22-2" style="fill: #4d4d4d"/>
  </g>
  <path d="M26.42,26.82c1.89-.08,1.87-.24-.57-4.15-.24-.37-.49-.78-.76-1.21a2,2,0,0,0-1.59,1.38,2,2,0,0,0-1.09-.33,1.47,1.47,0,0,0-1.52,1.33,1.94,1.94,0,0,0-1.66,2.32,2.38,2.38,0,0,0,.24.74C22.34,26.9,25,26.88,26.42,26.82Z" style="fill: #4d4d4d;fill-rule: evenodd"/>
</svg>
