<svg id="ec38c8e2-d66e-4e4d-bd8c-02aecd0df698" data-name="Calque 1" xmlns="http://www.w3.org/2000/svg" width="32" height="32" viewBox="0 0 32 32">
  <title>human-21-IconeContrat</title>
  <path d="M16.31,21.26a2,2,0,0,0-2.61.32A2,2,0,0,0,13.84,19a1.92,1.92,0,0,0-2.33,0,1.61,1.61,0,0,0-.23-1.71c-.64-.64-1.89-.42-2.8.49S7.35,19.94,8,20.58a1.75,1.75,0,0,0,2.07.07,1.76,1.76,0,0,0,.21,1.93c.65.66,1.9.47,2.86-.37A1.86,1.86,0,0,0,13,24.55c.64.64,1.9.42,2.81-.48S17,21.9,16.31,21.26Z" style="fill: #dabca6"/>
  <path d="M19.33,12.46v0a5.7,5.7,0,0,1-1.24.33L18,13a3.4,3.4,0,0,1-2.86,2,2.12,2.12,0,0,1-1-.23,2.43,2.43,0,0,1-1.27-1.87,3.79,3.79,0,0,1,.39-2.28,13.73,13.73,0,0,1,2.8-3,4.52,4.52,0,0,0-2-.29C11.39,7.5,7,10,7,10H2A1,1,0,0,0,1,11v4.87a1,1,0,0,0,1,.95H5.44l2.06.61c.09-.1.17-.21.27-.31a3.69,3.69,0,0,1,2.55-1.14,2.33,2.33,0,0,1,1.67.66,2.15,2.15,0,0,1,.58,1h.23a2.44,2.44,0,0,1,1.75.69,2.38,2.38,0,0,1,.68,1.59h.13a2.34,2.34,0,0,1,1.66.65,2.43,2.43,0,0,1,.61,2.18,3.36,3.36,0,0,1-.27.85l.18.33a2.15,2.15,0,0,0,3,.3,1.76,1.76,0,0,0,.43-1.6,1.73,1.73,0,0,0,2.22-2.26,1.78,1.78,0,0,0,1.15-.5,2.17,2.17,0,0,0-.64-3.48,26.49,26.49,0,0,1-2.75-1.59A6.78,6.78,0,0,1,19.33,12.46Z" style="fill: #dabca6"/>
  <path d="M29.11,10a23.43,23.43,0,0,1-4.44-1.16c-3.09-2-6.05-1.66-7.1-1.1a13.43,13.43,0,0,0-3.43,3.37c-.58,1.15-.38,2.41.43,2.81s1.93-.21,2.5-1.36a3,3,0,0,0,.26-.75,4.26,4.26,0,0,0,2.12-.53,2.61,2.61,0,0,0,.28-.17c.44.65,1.05,2.3,1.81,2.87,1.5,1.13,3.3,2,7.51,2.27Z" style="fill: #dabca6"/>
  <path d="M3,18.56H0V8.6H3a1,1,0,0,1,1,1v8A1,1,0,0,1,3,18.56Z" style="fill: #813e4c"/>
  <path d="M32,18.56H29.23a1,1,0,0,1-1-1v-8a1,1,0,0,1,1-1H32Z" style="fill: #5d7b52"/>
</svg>
