<svg id="f3725087-9509-4dd4-82e0-b0aebaa2d91d" data-name="Calque 1" xmlns="http://www.w3.org/2000/svg" width="32" height="32" viewBox="0 0 32 32">
  <title>meteo-62-IconeMeteusPluie</title>
  <path d="M15.34.15A10.27,10.27,0,1,1,5.07,10.42,10.27,10.27,0,0,1,15.34.15" style="fill: #d3d2d2"/>
  <path d="M5.14,10.48A5.11,5.11,0,1,1,0,15.59a5.11,5.11,0,0,1,5.11-5.11" style="fill: #d3d2d2"/>
  <path d="M14.89,1.49A10.26,10.26,0,0,1,25.16,11.76a11.8,11.8,0,0,1-.32,2.61,10.49,10.49,0,0,0,.83-4A10.24,10.24,0,0,0,5.52,7.74a10.1,10.1,0,0,1,9.37-6.25" style="fill: #b9b9b9"/>
  <path d="M25.1,7a6.83,6.83,0,1,1-6.83,6.82A6.83,6.83,0,0,1,25.1,7" style="fill: #d3d2d2"/>
  <path d="M25.1,19.35a6.82,6.82,0,0,1-4.34-1.53,10.55,10.55,0,0,1-5.42,1.53,10.12,10.12,0,0,1-6.12-2A5.11,5.11,0,0,1,.1,15.08,3.34,3.34,0,0,0,0,15.9,5.1,5.1,0,0,0,9.15,19a10.3,10.3,0,0,0,6.13,2,10.61,10.61,0,0,0,5.42-1.53A6.92,6.92,0,0,0,25,21a6.84,6.84,0,0,0,6.83-6.83,3.1,3.1,0,0,0-.07-.83,6.67,6.67,0,0,1-6.69,6" style="fill: #b9b9b9"/>
  <path d="M16.1,19a3.19,3.19,0,0,0,0,6.38,3.2,3.2,0,0,0,3.19-3V19H16.1" style="fill: #4797d3"/>
  <path d="M15.28,19.73a1.34,1.34,0,1,1-1.34,1.34,1.33,1.33,0,0,1,1.34-1.34" style="fill: #86c3ea"/>
  <path d="M22.48,25.53a3.19,3.19,0,0,0,0,6.38,3.21,3.21,0,0,0,3.19-3V25.53H22.48" style="fill: #4797d3"/>
  <path d="M21.65,26.24a1.34,1.34,0,1,1-1.34,1.33,1.33,1.33,0,0,1,1.34-1.33" style="fill: #86c3ea"/>
  <path d="M9.6,25.53a3.19,3.19,0,1,0,0,6.38,3.21,3.21,0,0,0,3.19-3V25.53H9.6" style="fill: #4797d3"/>
  <path d="M8.77,26.24a1.34,1.34,0,1,1-1.34,1.33,1.33,1.33,0,0,1,1.34-1.33" style="fill: #86c3ea"/>
</svg>
