<svg id="b4b394d3-d42c-46a0-878a-42759fc96473" data-name="Calque 1" xmlns="http://www.w3.org/2000/svg" width="32" height="32" viewBox="0 0 32 32">
  <title>equipment-61-IconeAnalyse</title>
  <g>
    <rect x="19.69" y="3.45" width="3.07" height="4.5" transform="translate(0.03 -0.1) rotate(0.26)" style="fill: #5c577d"/>
    <rect x="19.62" y="18.38" width="3.07" height="1.33" transform="translate(0.09 -0.1) rotate(0.26)" style="fill: #5c577d"/>
    <path d="M26.26,12.09a2.83,2.83,0,0,0-.53-.75,2.73,2.73,0,0,0-1.87-.82v-2l-5.32,0,0,9.38,5.31,0V16a2.85,2.85,0,0,0,.87-.16,2.76,2.76,0,0,0,1-.64,2.8,2.8,0,0,0,.51-.69c1.47.17,2.49,1.53,2.52,4.16,0,2.44-2,4-5.11,4l-5.08,0,0,2.45,5.09,0c5.58-.07,7.64-2.75,7.59-6.5C31.16,15.74,29.55,12.62,26.26,12.09Zm-.55,1.2a1.95,1.95,0,0,1-1.95,1.93,1.94,1.94,0,0,1-.65-3.77,1.66,1.66,0,0,1,.67-.11,1.93,1.93,0,0,1,1.37.57A2,2,0,0,1,25.71,13.29Z" style="fill: #5c577d"/>
    <path d="M23.89,26.9c-3.4-1.09-5.09-.06-7.21,2.32H29.53C28.62,28.2,25.38,27.38,23.89,26.9Z" style="fill: #5c577d"/>
  </g>
  <rect x="19.7" y="24.27" width="2.23" height="3.57" style="fill: #5c577d"/>
  <path d="M4.28,23.29h9.56c1.56,0,1.38.95,1.38.95l.31,1.39s1,1.26-1.07,1.93S6.33,28,6.33,28l-2.51-.22L2.63,26.47,3,24.76Z" style="fill: #be627a"/>
  <path d="M14.19,28.53H4.41a2.56,2.56,0,0,1-2.27-2.34,4.22,4.22,0,0,1,1.37-2.8l3.88-4V14.87h0l.26-.5H11l.27.5h0v4.54l3.89,4a4.8,4.8,0,0,1,1.36,2.78,2.57,2.57,0,0,1-2.27,2.34Zm-9.65-1H14.1c.23,0,1.43-.35,1.43-1.38a3.89,3.89,0,0,0-1.09-2.11l-4.16-4.26V15H8.35v4.84L4.17,24.09A3.3,3.3,0,0,0,3.1,26.18C3.1,27.21,4.3,27.51,4.54,27.56Z" style="fill: #be627a"/>
  <line x1="7.08" y1="14.54" x2="11.48" y2="14.54" style="fill: none;stroke: #be627a;stroke-linecap: round;stroke-linejoin: round"/>
</svg>
