<svg id="b04c6b47-6ac4-4481-bea7-30d60c11ea5e" data-name="Calque 1" xmlns="http://www.w3.org/2000/svg" width="32" height="32" viewBox="0 0 32 32">
  <title>map-03-14E10BC6</title>
  <path d="M18.39,7.08c0,.47.22.7.68.7a.61.61,0,0,0,.68-.7V3.91l2.36,3.47a.87.87,0,0,0,.71.4c.46,0,.68-.25.68-.74V1.86a.6.6,0,0,0-.68-.69c-.45,0-.67.23-.68.69V5.09L19.81,1.61a.88.88,0,0,0-.75-.45c-.44,0-.67.25-.67.74V7.08" style="fill: #000001"/>
  <path d="M12.39,26.09a.86.86,0,0,0,.54.21.62.62,0,0,0,.48-.23.73.73,0,0,0,.19-.49.8.8,0,0,0-.38-.66,2.46,2.46,0,0,0-1.48-.49,2,2,0,0,0-1.45.61,1.87,1.87,0,0,0-.55,1.32,1.63,1.63,0,0,0,.61,1.29,5.34,5.34,0,0,0,1.26.74,2.76,2.76,0,0,1,.71.41.47.47,0,0,1,.2.39.62.62,0,0,1-.26.54,1,1,0,0,1-.61.19,1.54,1.54,0,0,1-.42-.07,1.63,1.63,0,0,1-.38-.17,1,1,0,0,0-.5-.15.58.58,0,0,0-.66.66.73.73,0,0,0,.39.67,2.84,2.84,0,0,0,1.57.47,2.45,2.45,0,0,0,1.65-.58A2.12,2.12,0,0,0,14,29.14a1.65,1.65,0,0,0-.5-1.22,5,5,0,0,0-1.26-.8c-.28-.12-.52-.23-.72-.34a.52.52,0,0,1-.33-.46.47.47,0,0,1,.16-.38.71.71,0,0,1,.41-.1,1.08,1.08,0,0,1,.66.25" style="fill: #000001"/>
  <path d="M27.57,16,19,14.65l-1.2-.23-.2-1.05-1.4-8.58A.27.27,0,0,0,16,4.56h0a.27.27,0,0,0-.28.23L14.3,13.35l-.15,1.09-1.05.2L4.52,16a.28.28,0,0,0,0,.55L13.08,18l1.06.15h0l.16,1.15,1.4,8.58a.27.27,0,0,0,.27.24h0a.29.29,0,0,0,.28-.24l1.36-8.55.23-1.17L19,18l8.58-1.4a.28.28,0,0,0,.23-.27A.29.29,0,0,0,27.57,16Zm-13.67.28-7.58,0,6.88-1.12.87-.17h0l-.17,1.23S13.9,16.28,13.9,16.29Zm2.07,0V26h0l-1.12-6.87-.14-1-.08-.58h0l-.18-1.32.19-1.37L16,16.31V6.59h0l1.12,6.88.16.84.12.59.27,1.4-.25,1.33,0,.16Zm3,1.09-1,.13.23-1.2v-.05h7.61Z" style="fill: #000001"/>
</svg>
