<svg id="a6513b16-b22f-4f6d-9770-09897b7e70ce" data-name="Calque 1" xmlns="http://www.w3.org/2000/svg" width="32" height="32" viewBox="0 0 32 32">
  <title>parameter-53-IconeRoueCrantee</title>
  <path d="M29.53,18.3l-.2-.06A2,2,0,0,1,28,16.4c0-.13,0-.27,0-.4s0-.26,0-.39a1.94,1.94,0,0,1,1.36-1.85L31.8,13l-.62-1.9h0l-.61-1.91-1.91.62h0l-.55.18a2,2,0,0,1-1.22,0h0a2.26,2.26,0,0,1-.49-.25l-.06,0a1.64,1.64,0,0,1-.43-.44l-.11-.15-.19-.27a1.71,1.71,0,0,1-.11-.14,1.67,1.67,0,0,1-.12-.23,2.11,2.11,0,0,1-.18-.33,1.35,1.35,0,0,1,0-.28,1.88,1.88,0,0,1-.05-.33,1.6,1.6,0,0,1,0-.23,2.32,2.32,0,0,1,.06-.38,2.19,2.19,0,0,1,.29-.57L27,4.23,25.37,3.06h0L23.75,1.88,22.58,3.5h0L22.23,4A2,2,0,0,1,20,4.7l-.32-.13-.13,0-.22-.06A2,2,0,0,1,18,2.6V0H14V2h0v.58a2,2,0,0,1-1.39,1.9c-.22.06-.43.13-.65.21A2,2,0,0,1,9.7,4l-.16-.22L9.36,3.5h0L8.18,1.88,6.56,3.06h0L4.94,4.23l1.53,2.1a2,2,0,0,1,0,2.35c-.14.17-.27.36-.4.54A2,2,0,0,1,3.84,10L1.37,9.15.13,13l1.9.62H2l.58.19A2,2,0,0,1,4,15.66c0,.11,0,.21,0,.31v.36a2,2,0,0,1-1.37,1.91L2,18.42H2L.13,19l.62,1.9h0l.62,1.9,2.17-.71.32-.1A2,2,0,0,1,4.4,22h.08a2,2,0,0,1,1.59.81,1.49,1.49,0,0,0,.15.2.18.18,0,0,0,0,.07c.07.1.13.2.2.29a1.86,1.86,0,0,1,.4,1.16,1.26,1.26,0,0,1,0,.28,1.33,1.33,0,0,1-.05.34,1.76,1.76,0,0,1-.29.56l-.36.5h0L4.94,27.77l1.62,1.17h0l1.62,1.18L9.72,28A2,2,0,0,1,12,27.29h0l.63.21A2,2,0,0,1,14,29.39V30h0v2h4V29.4a2,2,0,0,1,1.36-1.88L20,27.3h0a2,2,0,0,1,2.23.72l.35.48h0l1.17,1.62,1.62-1.18h0L27,27.77l-1.18-1.62h0l-.18-.25-.16-.22a2,2,0,0,1,0-2.35c.1-.13.2-.26.29-.4l.12-.16a2,2,0,0,1,2.22-.72l.55.18h0l1.91.62L31.8,19l-1.9-.62ZM16,24a8,8,0,1,1,8-8A8,8,0,0,1,16,24Z" style="fill: #5b83b6"/>
</svg>
