<svg id="e4fff3ca-66f5-422a-991d-cd65ca311a14" data-name="Calque 1" xmlns="http://www.w3.org/2000/svg" width="32" height="32" viewBox="0 0 32 32">
  <title>keys-41-IconeProprietaire</title>
  <path d="M24.69,27.51l-.78-.39a.88.88,0,0,1-.39-1.18.88.88,0,0,0-.39-1.17.89.89,0,0,1-.4-1.18l.41-.82a.87.87,0,0,0-.36-1.15l-.86-.48-.16-.49-.65-1.94A6.18,6.18,0,0,0,18.66,7.36a7.2,7.2,0,0,1,2.83,8.91,7.09,7.09,0,0,1-3.84,3.81l3.23,9.68a.89.89,0,0,0,.59.57l1.74,1a.87.87,0,0,0,1-.45l.84-2.18A.87.87,0,0,0,24.69,27.51Z" style="fill: #9a9b9d"/>
  <path d="M17,.62A5.34,5.34,0,0,1,22.29,6a5.87,5.87,0,0,1-.15,1.26" style="fill: none;stroke: #797a7c;stroke-linecap: round;stroke-linejoin: round"/>
  <path d="M17.28,7.77a6.11,6.11,0,0,0-3.85-.31,3.94,3.94,0,0,0,1.88,2,1.8,1.8,0,0,1,1.25.06,1.86,1.86,0,1,1-2.22,2.79,6.87,6.87,0,0,1-3.58-3.42,6.17,6.17,0,0,0-.19,9.06l-4.15,9.8a.89.89,0,0,0,.07.81l.58,1.94a.89.89,0,0,0,1.07.34l2.15-1.12a.88.88,0,0,0,.49-1.14l-.33-.81a.87.87,0,0,1,.48-1.14.87.87,0,0,0,.48-1.14.88.88,0,0,1,.48-1.14l.85-.35a.88.88,0,0,0,.5-1.1l-.33-.93.2-.47.79-1.88A6.19,6.19,0,0,0,17.28,7.77Z" style="fill: #bc9161"/>
  <path d="M15.8,11.17A5.34,5.34,0,0,1,17,.62" style="fill: none;stroke: #797a7c;stroke-linecap: round;stroke-linejoin: round"/>
</svg>
