<svg id="a712969f-0b8b-449b-9855-55f5d8849cab" data-name="Calque 1" xmlns="http://www.w3.org/2000/svg" width="32" height="32" viewBox="0 0 32 32">
  <title>sign-63-IconeDangerEnvironnement</title>
  <g>
    <rect width="32" height="32" style="fill: #f90"/>
    <path d="M31,1V31H1V1H31m1-1H0V32H32V0Z"/>
  </g>
  <g>
    <path d="M6.92,24.86l3.47-.36,1.47,1.32,1-1.39,3.45-.27-2.65-1.77,0-5.8,2.63-3L18,13.27l2.72-4.11s-.18-.35-.41-.07S17.67,12,17.67,12l-2.25.21s-1.8,1.85-1.73,1.55,1-2.19,1-2.49-.48-1.92-.3-2.1,3-4,3.06-4.16A.13.13,0,0,0,17.16,5c0,.14-3,3.63-3,3.22S13.85,4,13.85,4h-.3l.18,6.68a18.73,18.73,0,0,1-2,2.63c-.16-.12-1.16-2.91-1.16-2.91s-.85-3.31-.8-3.63a25.52,25.52,0,0,0,.16-3c-.09-.09-.57,2.31-.71,2.31S7.28,3.14,7.17,3.19,8.93,6.62,8.93,6.82a20,20,0,0,1,.12,2.66C8.91,9.41,5,7,5,7.17s4.07,3.24,4.1,3.4.8,2.72.8,2.72-3.43-1.8-3.66-1.64S3.92,13.2,4.11,13.48s1.39-.71,1.62-.55,4.48,2.28,4.48,2.56-.32,8.23-.32,8.23l-3,1.14"/>
    <path d="M14.09,25.66l3.75,2.66s.78-1.44,1.59-1.74a45.75,45.75,0,0,0,6.44-3.08c1.44-1,3.84-2.74,3.69-5.91-.84.32-3.29,1.2-3.29,1.2l1.23-2.07a7.62,7.62,0,0,0-6.84,3.37C18,24,18.51,25.51,14.09,25.66Z" style="fill: none;stroke: #000;stroke-linejoin: round;stroke-width: 0.365838039342251px"/>
    <polyline points="20.39 20.47 19.11 20.24 18.27 22.65 18.82 23.24" style="fill: none;stroke: #000;stroke-linejoin: round;stroke-width: 0.365838039342251px"/>
    <path d="M28.07,19.48a.41.41,0,0,0-.29.61c.11.22.52.13.58-.13s-.1-.52-.29-.48"/>
    <polyline points="27.46 22.35 27.53 23.9 24.04 25.32 23.93 24.65" style="fill: none;stroke: #000;stroke-linejoin: round;stroke-width: 0.365838039342251px"/>
    <line x1="0.54" y1="18.46" x2="21.95" y2="18.46" style="fill: none;stroke: #000;stroke-linejoin: round;stroke-width: 0.365838039342251px"/>
    <line x1="29.65" y1="18.46" x2="31.46" y2="18.46" style="fill: none;stroke: #000;stroke-linejoin: round;stroke-width: 0.365838039342251px"/>
    <path d="M.84,30.44s7.34-1.85,7.48-1.51.44.51,1.37-.09,5.22-2.67,5.22-2.67l2.92,2.17s1-1.53,1.6-1.74,4.46-1.83,4.46-1.83l.18.55L27,24.25l1.23,1s-2.79,1.24-2.53,1.35,3.27.69,3.27.69-.69,1.1-.46,1.1,2.7.48,2.7.48l.27,2.56H.82l0-1"/>
  </g>
</svg>
