<svg id="ecd1f564-3229-454d-b97b-27ad7db85b8a" data-name="Calque 1" xmlns="http://www.w3.org/2000/svg" width="32" height="32" viewBox="0 0 32 32">
  <g>
    <path d="M20.61,10.7a6,6,0,0,0,2.12-2c.59-1.19,3.08-1.86,4.14-2.1a2,2,0,0,0-.77-2.18,4.77,4.77,0,0,0-2.86-.61s.1-.82-1.08-1.66a2.58,2.58,0,0,0-2-.31A15.84,15.84,0,0,0,17.6,4.69l-.26.82L16.22,8.05a9,9,0,0,1,1.88,3.38Z" style="fill: #6da200"/>
    <path d="M28,10.47a1.7,1.7,0,0,0,.41-1.84,2.73,2.73,0,0,0-1.05-1.28l0,.1c-1.4.27-3.52,1-3.87,1.68A7,7,0,0,1,21,11.52l-.09,0-2.59.76a9,9,0,0,1,.2,1.8c0,.15,0,.29,0,.44a9.79,9.79,0,0,1,4.17-1.14,30.29,30.29,0,0,1,5.65.59,3.19,3.19,0,0,0,1-1.43C29.69,11.29,28,10.47,28,10.47Z" style="fill: #6da200"/>
    <path d="M14.51,6.53a7.79,7.79,0,0,1,1,.84l.94-2.18.25-.78a10.31,10.31,0,0,1,2.1-2.5,6.22,6.22,0,0,0-1.67-.74c-1.67-.52-2.3,1.37-2.3,1.37a9.94,9.94,0,0,0-1.25,1.94,1.94,1.94,0,0,1,.33.23A1.78,1.78,0,0,1,14.51,6.53Z" style="fill: #6da200"/>
  </g>
  <path d="M12.73,7.56a3.45,3.45,0,0,1,1,1.59.78.78,0,0,1-1.29.73,4,4,0,0,0-.93-.61,4.77,4.77,0,0,1,0,1.83.78.78,0,0,1-.72.61.76.76,0,0,1-.78-.53A5.21,5.21,0,0,0,8.69,9.11,4.42,4.42,0,0,0,6.74,11.4.77.77,0,0,1,6,12H6a.77.77,0,0,1-.74-.53,3.57,3.57,0,0,1,.06-2.79A10.61,10.61,0,0,0,4,9a7.4,7.4,0,1,0,8.73-1.39Z" style="fill: #b71236"/>
  <path d="M9.89,8A5.88,5.88,0,0,1,13,9.31S12.62,7.69,10.13,7c0,0,.22-.89,2.64-.92a4.15,4.15,0,0,0-1.72-.4,2.38,2.38,0,0,0-2.17.76,4,4,0,0,0-4-1A2.82,2.82,0,0,1,7.25,6.69s-2.83-.05-4.1,1.76a12.46,12.46,0,0,1,4-.8c-.26.44-2,1.14-1.18,3.53a5.41,5.41,0,0,1,2.8-3,6.18,6.18,0,0,1,2,2.77A3.29,3.29,0,0,0,9.89,8Z" style="fill: #107230"/>
  <path d="M24.49,19.49a2.66,2.66,0,0,1-.18,1,2.24,2.24,0,0,1-.5.76,2,2,0,0,1-.72.48,2.08,2.08,0,0,1-.85.17,2.22,2.22,0,0,1-.9-.17,2,2,0,0,1-.71-.48,2.33,2.33,0,0,1-.47-.76,2.87,2.87,0,0,1-.16-1,3.05,3.05,0,0,1,.16-1,2.42,2.42,0,0,1,.47-.78,2.2,2.2,0,0,1,.71-.49,2.4,2.4,0,0,1,.9-.17,2.44,2.44,0,0,1,.9.17,2.2,2.2,0,0,1,.71.49,2.28,2.28,0,0,1,.48.78A3.05,3.05,0,0,1,24.49,19.49Zm3.24-2.1a1.29,1.29,0,0,1,.21-.19.62.62,0,0,1,.33-.08h1.21l-7.23,9.53a.91.91,0,0,1-.21.18.65.65,0,0,1-.29.07H20.51Zm-4.52,2.1a2.52,2.52,0,0,0-.07-.66,1.1,1.1,0,0,0-.21-.42.79.79,0,0,0-.31-.24,1.22,1.22,0,0,0-.38-.07,1.17,1.17,0,0,0-.38.07.7.7,0,0,0-.3.24,1.26,1.26,0,0,0-.2.42,2.52,2.52,0,0,0-.07.66,2.28,2.28,0,0,0,.07.63,1.21,1.21,0,0,0,.2.41.65.65,0,0,0,.3.22,1,1,0,0,0,.38.07,1,1,0,0,0,.38-.07.74.74,0,0,0,.31-.22,1.06,1.06,0,0,0,.21-.41A2.28,2.28,0,0,0,23.21,19.49ZM30,24.6a2.66,2.66,0,0,1-.19,1,2.37,2.37,0,0,1-.49.76,2.29,2.29,0,0,1-.73.49,2.22,2.22,0,0,1-.85.17,2.44,2.44,0,0,1-.9-.17,2.2,2.2,0,0,1-.71-.49,2.15,2.15,0,0,1-.46-.76,2.66,2.66,0,0,1-.17-1,2.82,2.82,0,0,1,.17-1,2.33,2.33,0,0,1,.46-.78,2.2,2.2,0,0,1,.71-.49,2.47,2.47,0,0,1,1.8,0,2.2,2.2,0,0,1,.71.49,2.36,2.36,0,0,1,.47.78A2.82,2.82,0,0,1,30,24.6Zm-1.29,0a3,3,0,0,0-.07-.66,1.18,1.18,0,0,0-.21-.42.79.79,0,0,0-.31-.24,1.22,1.22,0,0,0-.38-.07,1.17,1.17,0,0,0-.38.07.76.76,0,0,0-.3.24,1.17,1.17,0,0,0-.2.42,2.52,2.52,0,0,0-.07.66,2.41,2.41,0,0,0,.07.64,1.12,1.12,0,0,0,.2.41.71.71,0,0,0,.3.22,1,1,0,0,0,.38.07,1,1,0,0,0,.38-.07.74.74,0,0,0,.31-.22,1.13,1.13,0,0,0,.21-.41A2.91,2.91,0,0,0,28.71,24.6Z" style="fill: #333"/>
</svg>
