<svg id="a8a35ec9-b6e6-428d-b801-c7cadd79464b" data-name="Calque 1" xmlns="http://www.w3.org/2000/svg" width="32" height="32" viewBox="0 0 32 32">
  <title>map-48-IconeEditionInfoLicence</title>
  <path d="M20.2,3.53a12.18,12.18,0,0,1,1.87,14.56C21.57,19,11.82,32,11.82,32S2,18.79,1.42,17.8a12.17,12.17,0,0,1,2-14.27A11.71,11.71,0,0,1,20.2,3.53Z" style="fill: #2579bf"/>
  <ellipse cx="11.82" cy="12.04" rx="7.2" ry="7.32" style="fill: #fff"/>
  <path d="M20.41,24.89V19.94a4,4,0,0,1,7.9,0v1.67" style="fill: none;stroke: #9b9c9e;stroke-miterlimit: 1;stroke-width: 2.22637220974237px"/>
  <rect x="16.52" y="21.56" width="15.56" height="8.89" style="fill: #fac262"/>
  <path d="M27.91,29.48a1,1,0,0,0-.15-.61,1.42,1.42,0,0,0-.67-.5L26,27.86a3.15,3.15,0,0,1-3.18,0l-1.06.51a1.42,1.42,0,0,0-.67.5,1,1,0,0,0-.15.61v1h7Z" style="fill: #fff"/>
  <circle cx="24.45" cy="25.12" r="2.25" transform="translate(-7.72 11.18) rotate(-22.35)" style="fill: #fff"/>
</svg>
