<svg id="e9fd3878-de9f-4c8a-9dd9-8a67d5dbdaef" data-name="Calque 1" xmlns="http://www.w3.org/2000/svg" width="32" height="32" viewBox="0 0 32 32">
  <title>time-97-IconeTransfertCampagne</title>
  <path d="M25.22,28a6.73,6.73,0,1,1,6.72-6.73A6.74,6.74,0,0,1,25.22,28Z" style="fill: #5bab26"/>
  <polygon points="21.01 20.42 21.01 22.02 25.42 22.02 24.42 25.23 29.43 21.22 24.42 17.21 25.42 20.42 21.01 20.42" style="fill: #fff"/>
  <g>
    <path d="M19.08,9c.83,0,1-.59,1-1.41v-3c0-.83-.14-1.42-1-1.42s-1,.59-1,1.42v3C18.05,8.38,18.25,9,19.08,9Z" style="fill: #868789"/>
    <path d="M8,9.06c.83,0,1-.68,1-1.5v-3c0-.83-.2-1.42-1-1.42s-1,.59-1,1.42v3C7.05,8.38,7.19,9.06,8,9.06Z" style="fill: #868789"/>
  </g>
  <g>
    <path d="M2.05,23.57V12.12h0V23.57a1.5,1.5,0,0,0,1.5,1.5h0A1.5,1.5,0,0,1,2.05,23.57Z" style="fill: none"/>
    <path d="M2.05,12.06H2l.09.06Z" style="fill: #9b9c9e"/>
  </g>
  <path d="M3.55,25.07h0a1.5,1.5,0,0,1-1.5-1.5V12.12h0V23.57A1.5,1.5,0,0,0,3.55,25.07Z" style="fill: none"/>
  <path d="M3.55,25.07h0a1.5,1.5,0,0,1-1.5-1.5V12.12h0V23.57A1.5,1.5,0,0,0,3.55,25.07Z" style="fill: none"/>
  <path d="M2.05,23.57a1.5,1.5,0,0,0,1.5,1.5H17.38a8.68,8.68,0,0,1,7.67-12.45v-.5h0v-.06h-23v.06h0Z" style="fill: #fff"/>
  <path d="M3.55,25.07h0a1.5,1.5,0,0,1-1.5-1.5V12.12L2,12.06H1.05V23.57a2.5,2.5,0,0,0,2.39,2.49H17.93a8,8,0,0,1-.55-1Z" style="fill: #9b9c9e"/>
  <path d="M24.05,6.06h-3v1.5c0,1.37-.62,2.5-2,2.5s-2-1.13-2-2.5V6.06h-7v1.5C10.05,8.93,9.4,10,8,10s-2-1.08-2-2.45V6.06h-3a2,2,0,0,0-2,2v4h25V8A2,2,0,0,0,24.05,6.06Z" style="fill: #b9251c"/>
  <g>
    <path d="M8.38,23H7V16.8a4.83,4.83,0,0,1-1.75,1.25v-1.5a3.64,3.64,0,0,0,1.17-.81,3.18,3.18,0,0,0,.84-1.36H8.38Z" style="fill: #999"/>
    <path d="M15,21.47V23H10.22a4.54,4.54,0,0,1,.47-1.64A10.32,10.32,0,0,1,12.2,19.3a10.71,10.71,0,0,0,1.1-1.37,2,2,0,0,0,.3-1,1.23,1.23,0,0,0-.25-.85.85.85,0,0,0-.66-.29c-.6,0-.92.45-1,1.34l-1.34-.16A3,3,0,0,1,11.11,15a2.15,2.15,0,0,1,1.61-.62,2,2,0,0,1,1.67.72A2.61,2.61,0,0,1,15,16.76a3.5,3.5,0,0,1-.15,1,3.91,3.91,0,0,1-.44,1,8.47,8.47,0,0,1-1,1.28c-.43.49-.7.81-.82,1a3.26,3.26,0,0,0-.28.45Z" style="fill: #999"/>
  </g>
  <g>
    <path d="M3.05,6.06a2,2,0,0,0-2,2v4h1v-4a1,1,0,0,1,1-1h3v-1Z" style="fill: #881e17"/>
    <path d="M24.05,6.06h-3v1h3a1,1,0,0,1,1,1v4h1V8A2,2,0,0,0,24.05,6.06Z" style="fill: #881e17"/>
    <rect x="10.05" y="6.06" width="7" height="1" style="fill: #881e17"/>
  </g>
</svg>
