<svg id="ada1fa0a-840d-47c5-8956-abb83d5684ce" data-name="Calque 1" xmlns="http://www.w3.org/2000/svg" width="32" height="32" viewBox="0 0 32 32">
  <title>office-69-IconeImageExport</title>
  <rect x="8.36" y="0.19" width="14.22" height="8.66" style="fill: #6f7095"/>
  <polygon points="20.95 14.1 20.49 13.94 16.53 12.71 16.53 9.47 14.24 9.47 14.24 12.7 10.4 13.99 9.99 14.1 11.62 14.64 15.37 13.46 19.33 14.64 20.95 14.1" style="fill: #6f7072"/>
  <polygon points="16.25 15.23 14.59 15.23 14.59 18.23 13.28 18.23 15.42 20.88 17.56 18.23 16.25 18.23 16.25 15.23" style="fill: #5bab26"/>
  <g>
    <path d="M20.85,30.18V23.74a.75.75,0,0,0-.74-.75h-6.4a.75.75,0,0,1-.75-.74h0a.74.74,0,0,0-.74-.74H9.74a.74.74,0,0,0-.74.74v7.93a.75.75,0,0,0,.74.75H20.11A.75.75,0,0,0,20.85,30.18Z" style="fill: #fac262"/>
    <path d="M20.88,30.18l1.2-5a.56.56,0,0,0-.57-.74H11.14a1,1,0,0,0-.92.74l-1.2,5a.57.57,0,0,0,.56.75H20A1,1,0,0,0,20.88,30.18Z" style="fill: #cea153"/>
  </g>
</svg>
