<svg id="be409523-d490-4ba8-9565-441cd679f8cc" data-name="Calque 1" xmlns="http://www.w3.org/2000/svg" width="32" height="32" viewBox="0 0 32 32">
  <title>print-51-IconeListeEditions</title>
  <circle cx="1.5" cy="11.44" r="1.5" style="fill: #c5c6c8"/>
  <circle cx="1.5" cy="16.44" r="1.5" style="fill: #c5c6c8"/>
  <circle cx="1.5" cy="21.44" r="1.5" style="fill: #c5c6c8"/>
  <g>
    <path d="M16.19,28.5a1.72,1.72,0,0,1-1.71-1.71V8.2a1.71,1.71,0,0,1,1.71-1.7h9.73a1.68,1.68,0,0,1,1.33.64l3.87,4.58a1.71,1.71,0,0,1,.36,1v14a1.71,1.71,0,0,1-1.71,1.71Z" style="fill: #fac262"/>
    <path d="M25.92,7a1.21,1.21,0,0,1,1,.47L30.72,12a1.2,1.2,0,0,1,.26.75v14A1.21,1.21,0,0,1,29.78,28H16.19A1.21,1.21,0,0,1,15,26.79V8.2A1.21,1.21,0,0,1,16.19,7h9.73m0-1H16.19A2.21,2.21,0,0,0,14,8.2V26.79A2.21,2.21,0,0,0,16.19,29H29.78A2.21,2.21,0,0,0,32,26.79v-14a2.25,2.25,0,0,0-.48-1.38L27.64,6.83A2.17,2.17,0,0,0,25.92,6Z" style="fill: #cea04e"/>
  </g>
  <rect x="17.98" y="15" width="9" height="1" style="fill: #fff"/>
  <rect x="17.98" y="18" width="9" height="1" style="fill: #fff"/>
  <rect x="22.98" y="21" width="4" height="1" style="fill: #fff"/>
  <rect x="17.98" y="12" width="9" height="1" style="fill: #fff"/>
  <polygon points="26.98 12 31.3 12 31.18 11 27.91 7.15 26.98 6.88 26.98 12" style="fill: #cea04e"/>
  <g>
    <path d="M12.19,24.5a1.72,1.72,0,0,1-1.71-1.71V4.2a1.71,1.71,0,0,1,1.71-1.7h9.73a1.68,1.68,0,0,1,1.33.64l3.87,4.58a1.71,1.71,0,0,1,.36,1v14a1.71,1.71,0,0,1-1.71,1.71Z" style="fill: #fcdba2"/>
    <path d="M21.92,3a1.21,1.21,0,0,1,1,.47L26.72,8a1.2,1.2,0,0,1,.26.75v14A1.21,1.21,0,0,1,25.77,24H12.19A1.21,1.21,0,0,1,11,22.79V4.2A1.21,1.21,0,0,1,12.19,3h9.73m0-1H12.19A2.21,2.21,0,0,0,10,4.2V22.79A2.21,2.21,0,0,0,12.19,25H25.77A2.21,2.21,0,0,0,28,22.79v-14a2.23,2.23,0,0,0-.48-1.38L23.64,2.83A2.17,2.17,0,0,0,21.92,2Z" style="fill: #cea04e"/>
  </g>
  <polygon points="22.98 8 27.3 8 27.18 7 23.91 3.15 22.98 2.88 22.98 8" style="fill: #cea04e"/>
  <g>
    <path d="M14.19,26.5a1.72,1.72,0,0,1-1.71-1.71V6.2a1.71,1.71,0,0,1,1.71-1.7h9.73a1.68,1.68,0,0,1,1.33.64l3.87,4.58a1.71,1.71,0,0,1,.36,1v14a1.71,1.71,0,0,1-1.71,1.71Z" style="fill: #fcdba2"/>
    <path d="M23.92,5a1.21,1.21,0,0,1,1,.47L28.72,10a1.2,1.2,0,0,1,.26.75v14A1.21,1.21,0,0,1,27.78,26H14.19A1.21,1.21,0,0,1,13,24.79V6.2A1.21,1.21,0,0,1,14.19,5h9.73m0-1H14.19A2.21,2.21,0,0,0,12,6.2V24.79A2.21,2.21,0,0,0,14.19,27H27.78A2.21,2.21,0,0,0,30,24.79v-14a2.25,2.25,0,0,0-.48-1.38L25.64,4.83A2.17,2.17,0,0,0,23.92,4Z" style="fill: #cea04e"/>
  </g>
  <polygon points="24.98 10 29.3 10 29.18 9 25.91 5.15 24.98 4.88 24.98 10" style="fill: #cea04e"/>
  <g>
    <path d="M16.19,28.5a1.72,1.72,0,0,1-1.71-1.71V8.2a1.71,1.71,0,0,1,1.71-1.7h9.73a1.68,1.68,0,0,1,1.33.64l3.87,4.58a1.71,1.71,0,0,1,.36,1v14a1.71,1.71,0,0,1-1.71,1.71Z" style="fill: #fac262"/>
    <path d="M25.92,7a1.21,1.21,0,0,1,1,.47L30.72,12a1.2,1.2,0,0,1,.26.75v14A1.21,1.21,0,0,1,29.78,28H16.19A1.21,1.21,0,0,1,15,26.79V8.2A1.21,1.21,0,0,1,16.19,7h9.73m0-1H16.19A2.21,2.21,0,0,0,14,8.2V26.79A2.21,2.21,0,0,0,16.19,29H29.78A2.21,2.21,0,0,0,32,26.79v-14a2.25,2.25,0,0,0-.48-1.38L27.64,6.83A2.17,2.17,0,0,0,25.92,6Z" style="fill: #cea04e"/>
  </g>
  <polygon points="26.98 12 31.3 12 31.18 11 27.91 7.15 26.98 6.88 26.98 12" style="fill: #cea04e"/>
  <line x1="4.72" y1="11.44" x2="7.64" y2="11.44" style="fill: none;stroke: #b8b7b8;stroke-linecap: round;stroke-linejoin: round"/>
  <line x1="4.72" y1="16.44" x2="7.64" y2="16.44" style="fill: none;stroke: #b8b7b8;stroke-linecap: round;stroke-linejoin: round"/>
  <line x1="4.72" y1="21.44" x2="7.64" y2="21.44" style="fill: none;stroke: #b8b7b8;stroke-linecap: round;stroke-linejoin: round"/>
  <line x1="18.72" y1="16.44" x2="26.64" y2="16.44" style="fill: none;stroke: #fff;stroke-linecap: round;stroke-linejoin: round"/>
  <line x1="18.72" y1="19.44" x2="26.64" y2="19.44" style="fill: none;stroke: #fff;stroke-linecap: round;stroke-linejoin: round"/>
  <line x1="21.72" y1="22.44" x2="26.64" y2="22.44" style="fill: none;stroke: #fff;stroke-linecap: round;stroke-linejoin: round"/>
</svg>
