<svg id="ad03dc62-3ec5-4e1c-bf01-86bacdaf69c2" data-name="Calque 1" xmlns="http://www.w3.org/2000/svg" width="32" height="32" viewBox="0 0 32 32">
  <title>sign-65-IconeComburant</title>
  <g>
    <rect width="32" height="32" style="fill: #f90"/>
    <path d="M31,1V31H1V1H31m1-1H0V32H32V0Z"/>
  </g>
  <path d="M11.83,17c.31-.27-.17-1.18-.3-1.3s-.29,1.15-.25,1.37.24.2.55-.07m2.56-1.11c.35-.16-.13-1.12-.43-1.62s-.34,1.26-.34,1.67S14,16,14.39,15.85Zm1.93-.21c.63.16,1.24.24,1.3-.14.15-.87-1.05-3.63-1.36-3.32s-.23,2.89-.2,3.26C16.05,15.43,16.06,15.58,16.32,15.64Zm3.08.93c.28.19.44.33.63-.23a3.84,3.84,0,0,0-.46-2.24c-.12-.2-.67,1.53-.72,1.91S19.08,16.36,19.4,16.57Zm-8.71,6A5.33,5.33,0,1,0,16,17.37,5.28,5.28,0,0,0,10.69,22.6ZM16,29.4A6.94,6.94,0,0,1,9.2,24.05a5.7,5.7,0,0,1-.69-3.23c0-1,.6-3.18.22-4.1s-.71-2-1.14-2.21S9,14.3,9.71,15.67c.3.54.63-.3.63-.54a6.42,6.42,0,0,1,.48-2.46c.35-.37-.5-1.89-.81-2s.46-.62,1.12,0,.66,1.33,1.09,1.2A1.25,1.25,0,0,0,13,10.61a8.94,8.94,0,0,0-1.14-3.82c-.73-1,1.33-.36,2,.15s1.05,1.68,1.22,1.5-1.26-5.1,1.85-5.83c.71-.13.15.79.17,1.52S18,8,18.51,8s.38-1,.64-1,.39,1.4.84,1.78.58,3.52,1.23,4.12.57-2,.53-2.53c.23.21,1.35,1.5.79,5.53,0,.35.3,0,.62-.23s2.55-.6,2-.15S22.92,17,22.86,17.88c.25.95,1.8,3.14-.05,6.31A7,7,0,0,1,16,29.4Z"/>
</svg>
