<svg id="adec875c-2730-4cc2-a420-a3a021f8ab8f" data-name="Calque 1" xmlns="http://www.w3.org/2000/svg" width="32" height="32" viewBox="0 0 32 32">
  <title>print-79-IconeEditionFicheChantier</title>
  <g>
    <path d="M6.21,31.5A1.7,1.7,0,0,1,4.5,29.8V2.21A1.71,1.71,0,0,1,6.21.5H21.94a1.71,1.71,0,0,1,1.33.64l3.86,4.58a1.67,1.67,0,0,1,.37,1.06v23a1.71,1.71,0,0,1-1.71,1.7Z" style="fill: #fac262"/>
    <path d="M21.94,1a1.22,1.22,0,0,1,1,.48L26.74,6a1.23,1.23,0,0,1,.26.76v23A1.21,1.21,0,0,1,25.79,31H6.21A1.21,1.21,0,0,1,5,29.8V2.21A1.21,1.21,0,0,1,6.21,1H21.94m0-1H6.21A2.21,2.21,0,0,0,4,2.21V29.8A2.2,2.2,0,0,0,6.21,32H25.79A2.2,2.2,0,0,0,28,29.8v-23a2.23,2.23,0,0,0-.48-1.38L23.66.83A2.22,2.22,0,0,0,21.94,0Z" style="fill: #cea04e"/>
  </g>
  <polygon points="23 6 27.32 6 27.2 5 23.93 1.16 23 0.88 23 6" style="fill: #cea04e"/>
  <path d="M10.9,18.84a1.21,1.21,0,0,1,.68.2V15.62a.68.68,0,0,0-.68-.68H8.68a.69.69,0,0,0-.68.68V19a1.23,1.23,0,0,1,.68-.2Z" style="fill: #464d50"/>
  <path d="M23.43,18.84a1.27,1.27,0,0,1,.66.19V15.62a.69.69,0,0,0-.68-.68H21.18a.69.69,0,0,0-.68.68v3.43a1.23,1.23,0,0,1,.7-.21Z" style="fill: #464d50"/>
  <rect x="8.58" y="19.41" width="3" height="7.67" rx="0.68" style="fill: #707173"/>
  <rect x="20.52" y="19.41" width="3" height="7.67" rx="0.68" style="fill: #707173"/>
  <polygon points="19.8 10.76 20.96 10.76 20.96 11.51 21.92 11.51 21.92 10.08 20.96 10.08 20.96 10.25 19.72 10.25 19.72 10.51 19.72 10.76 19.8 10.76" style="fill: #464d50"/>
  <path d="M15.85,12.56a1.69,1.69,0,0,0-1.58,1.12h3.15A1.68,1.68,0,0,0,15.85,12.56Z" style="fill: none"/>
  <path d="M15.85,12.06a2.18,2.18,0,0,1,2.09,1.62h1.48V10.85a1.64,1.64,0,0,0-.16-.72c-.28-.63-.34-.47-1-.47H13.5c-1,0-1.19.22-1.19,1.19v2.83h1.44A2.18,2.18,0,0,1,15.85,12.06Z" style="fill: none"/>
  <path d="M15.85,12.93a1.39,1.39,0,0,0-1.34,1h.33a1.07,1.07,0,0,1,2,0h.34A1.39,1.39,0,0,0,15.85,12.93Z" style="fill: #464d50"/>
  <path d="M11.81,17.85V14.56H9.87a.76.76,0,0,0-.75.75v2.08H10.6A1.83,1.83,0,0,1,11.81,17.85Z" style="fill: #e1001a"/>
  <path d="M21.49,17.39h1.59V15.31a.76.76,0,0,0-.75-.75H19.92v3.72A1.83,1.83,0,0,1,21.49,17.39Z" style="fill: #e1001a"/>
  <path d="M19.53,24.46a2.39,2.39,0,0,0,.12-.22v-5a1.81,1.81,0,0,1,.27-.94V13.93h0v.25H18.58v5.47a.16.16,0,0,1-.16.16H13.67a.17.17,0,0,1-.17-.16V14.18H11.81v3.67a1.85,1.85,0,0,1,.63,1.37v5.21a2.38,2.38,0,0,0,.65.48V19.73a.11.11,0,0,1,.11-.11h5.71a.11.11,0,0,1,.12.11s0,5.24.07,5.18A2.24,2.24,0,0,0,19.53,24.46Z" style="fill: #8e1215"/>
  <path d="M18,21.41H14a.12.12,0,0,0-.12.12v3.26a.12.12,0,0,0,.12.12H18a.12.12,0,0,0,.12-.12V21.53A.12.12,0,0,0,18,21.41Z" style="fill: #464d50"/>
  <path d="M17.43,18.09a.68.68,0,1,0,.67.67A.67.67,0,0,0,17.43,18.09Z" style="fill: #fff"/>
  <path d="M13.5,20.8a.18.18,0,0,0,.17.17h4.75a.17.17,0,0,0,.16-.17V14.18h1.34v-.25h0V10.85c0-1.15-.5-1.69-1.69-1.69H13.5c-1.25,0-1.69.45-1.69,1.69v2.83h0v.5H13.5Zm-1.19-7.12V10.85c0-1,.21-1.19,1.19-1.19h4.73a1.11,1.11,0,0,1,1.19,1.19v2.83H12.31Z" style="fill: #e1001a"/>
  <polygon points="10.98 10.76 11.88 10.76 11.88 10.25 10.98 10.25 10.98 10.08 10.02 10.08 10.02 11.51 10.98 11.51 10.98 10.76" style="fill: #464d50"/>
  <path d="M14.59,20.59a.67.67,0,0,1,0-1.34.67.67,0,1,1,0,1.34Z" style="fill: #e1001a"/>
  <path d="M17.43,20.59a.67.67,0,1,1,.67-.67A.67.67,0,0,1,17.43,20.59Z" style="fill: #e1001a"/>
  <path d="M15.17,20.59a.67.67,0,1,1,.67-.67A.67.67,0,0,1,15.17,20.59Z" style="fill: #fff"/>
  <path d="M16.84,20.59a.67.67,0,1,1,.67-.67A.67.67,0,0,1,16.84,20.59Z" style="fill: #fff"/>
  <rect x="12.98" y="9.64" width="0.53" height="4.53" style="fill: #e1001a"/>
  <rect x="18.14" y="9.64" width="0.53" height="4.53" style="fill: #e1001a"/>
</svg>
