<svg id="ac287d68-4509-45d8-aa25-bbed818e3731" data-name="Calque 1" xmlns="http://www.w3.org/2000/svg" width="32" height="32" viewBox="0 0 32 32">
  <title>places-83-IconeDroitsUtilisateursInternet</title>
  <g>
    <path d="M25.73,10.31h0a13.29,13.29,0,0,0-3.64-4.72A13.29,13.29,0,0,1,25.73,10.31Z" style="fill: #999"/>
    <path d="M17.52,3.11a13.31,13.31,0,0,1,2.42,1A13.31,13.31,0,0,0,17.52,3.11Z" style="fill: #999"/>
    <path d="M19.94,4.13a13.33,13.33,0,0,1,2.15,1.46A13.33,13.33,0,0,0,19.94,4.13Z" style="fill: #999"/>
    <path d="M16.25,28.19l-.34.08c.09-.12.16-.27.24-.39a3.46,3.46,0,0,1-.16-1v-.59a14.56,14.56,0,0,1-1.46,2.13c-.34,0-.68.05-1,.05a13.41,13.41,0,0,1-1.43-.08,12.29,12.29,0,0,1-2.58-4,32.85,32.85,0,0,1,4.17-.28c.82,0,1.58.05,2.32.11v-1c-.74-.05-1.51-.1-2.32-.1a34.09,34.09,0,0,0-4.53.32A22,22,0,0,1,8,16.49h10.5a6.66,6.66,0,0,1,.12-1H8A23.89,23.89,0,0,1,9.42,8.15a33.78,33.78,0,0,0,4.09.26,33.68,33.68,0,0,0,3.92-.24,21.92,21.92,0,0,1,1.2,7.3,6.32,6.32,0,0,1,.87-2.11A22.62,22.62,0,0,0,18.42,8a33.06,33.06,0,0,0,4-.83,12.34,12.34,0,0,1,2.22,3.08l.45,0a5.07,5.07,0,0,1,.68,0,13.42,13.42,0,0,0-8.21-7.2,13.66,13.66,0,0,0-4-.61h0c-.39,0-.76,0-1.14.06s-.68.08-1,.13h0a13.5,13.5,0,0,0-8,4.4l-.15.16c-.18.21-.35.43-.51.65s-.17.22-.25.34-.28.4-.41.61L1.8,9.3c-.11.19-.22.39-.32.59s-.18.36-.26.54-.17.38-.25.58-.15.41-.22.62-.13.36-.19.55l-.18.71-.12.52c-.05.28-.09.56-.13.84l-.06.44C0,15.12,0,15.55,0,16H0a13.47,13.47,0,0,0,4,9.55q.46.46,1,.87a14.27,14.27,0,0,0,2.15,1.46,14.75,14.75,0,0,0,2.42,1,13.67,13.67,0,0,0,4,.6,13.32,13.32,0,0,0,3.3-.42A3.43,3.43,0,0,1,16.25,28.19ZM21.5,6.41a32.4,32.4,0,0,1-3.44.67,14.4,14.4,0,0,0-1.8-3.26A12.36,12.36,0,0,1,21.5,6.41ZM11.91,3.62a11.92,11.92,0,0,1,1.6-.12,12.09,12.09,0,0,1,1.21.07,12,12,0,0,1,2.34,3.64,32.41,32.41,0,0,1-3.55.2A32.35,32.35,0,0,1,9.8,7.19,15.57,15.57,0,0,1,11.91,3.62Zm-1.45.28A17.83,17.83,0,0,0,8.78,7.05,31.49,31.49,0,0,1,5.52,6.4,12.37,12.37,0,0,1,10.46,3.9ZM4.64,7.2A32.17,32.17,0,0,0,8.43,8a24.87,24.87,0,0,0-1.35,7.48H1A12.48,12.48,0,0,1,4.64,7.2ZM4.43,24.58A12.45,12.45,0,0,1,1,16.49h6a23.65,23.65,0,0,0,1.1,7.09,31.44,31.44,0,0,0-3.76.86Zm.71.68a31.38,31.38,0,0,1,3.38-.72,14.31,14.31,0,0,0,2,3.59A12.55,12.55,0,0,1,5.14,25.26Z" style="fill: #999"/>
    <path d="M18.63,15.47v0h0Z" style="fill: #6f9628"/>
  </g>
  <path d="M21.48,21V16.58a3.56,3.56,0,0,1,7.12,0v1.5" style="fill: none;stroke: #9b9c9e;stroke-linecap: round;stroke-linejoin: round;stroke-width: 2.00342759463113px"/>
  <rect x="17.98" y="20.04" width="14" height="8" rx="1.54" style="fill: #a98552"/>
  <line x1="24.98" y1="24.73" x2="24.98" y2="23.22" style="fill: none;stroke: #80653f;stroke-linecap: round;stroke-linejoin: round"/>
</svg>
