<svg id="e70b163b-028a-4a27-b139-6d28352d8b8f" data-name="Calque 1" xmlns="http://www.w3.org/2000/svg" width="32" height="32" viewBox="0 0 32 32">
  <title>sign-53-IconeDangerAquatiqueSGH09</title>
  <rect x="5.83" y="5.83" width="20.35" height="20.35" transform="translate(-6.63 16) rotate(-45)" style="fill: #fff"/>
  <path d="M16,32a.7.7,0,0,1-.47-.19L.2,16.47A.63.63,0,0,1,0,16a.65.65,0,0,1,.2-.47L15.53.2a.66.66,0,0,1,.94,0L31.81,15.53a.68.68,0,0,1,0,.94L16.47,31.81A.67.67,0,0,1,16,32ZM1.61,16,16,30.39,30.39,16,16,1.61Z" style="fill: #d10000"/>
  <g>
    <polyline points="16.04 18.49 14.51 17.63 14.39 14.76 15.85 13.3 16.65 12.99 18.17 10.73 16.4 12.13 15.3 12.2 14.63 12.69 14.87 11.83 14.94 10.61 16.65 8.35 16.16 8.35 14.81 9.87 14.57 8.04 14.08 8.04 14.45 11.4 13.35 12.75 12.49 10 12.68 7.74 12 8.65 10.84 7.37 11.58 9.32 11.76 10.67 9.93 9.57 10.23 10.12 12.06 11.95 12.13 12.5 10.54 12.01 9.07 12.81 10.35 12.99 12.49 14.33 12.49 17.94 10.84 19.22 12.8 19.04 13.41 19.71 13.96 18.79 16.04 18.49"/>
    <polyline points="9.07 21.6 23.43 21.6 23.24 20.99 22.33 20.63 22.63 20.26 20.98 19.83 22.14 19.53 20.8 18.3 19.33 17.69 14.63 19.95 12.61 20.75 11.51 21.18 9.07 21.6"/>
    <line x1="8.7" y1="15.68" x2="20.49" y2="15.68" style="fill: none;stroke: #000;stroke-linejoin: round;stroke-width: 0.390978153940108px"/>
    <path d="M14.69,19.4,16.1,20l1.16.73,1-1.35A7.55,7.55,0,0,0,21.78,18a3.91,3.91,0,0,0,1.59-2.87l-1.47.61.24-1.16A7.47,7.47,0,0,0,19.09,16a13.66,13.66,0,0,0-1.77,2.69Z" style="fill: #fff"/>
    <path d="M14.69,19.4,16.1,20l1.16.73,1-1.35A7.55,7.55,0,0,0,21.78,18a3.91,3.91,0,0,0,1.59-2.87l-1.47.61.24-1.16A7.47,7.47,0,0,0,19.09,16a13.66,13.66,0,0,0-1.77,2.69Z" style="fill: none;stroke: #000;stroke-linejoin: round;stroke-width: 0.390978153940108px"/>
    <path d="M21.53,16.35a.37.37,0,1,1,0,.73.37.37,0,0,1,0-.73"/>
  </g>
</svg>
