<svg id="a5ee29d7-32fe-49ba-b694-3591b9c3b5ab" data-name="Calque 1" xmlns="http://www.w3.org/2000/svg" width="32" height="32" viewBox="0 0 32 32">
  <title>abstract-41-IconeLegende</title>
  <rect width="15" height="15" style="fill: #ac3a27"/>
  <rect x="17" width="15" height="15" style="fill: #6c9f26"/>
  <rect y="17" width="15" height="15" style="fill: #2890bf"/>
  <rect x="17" y="17" width="15" height="15" style="fill: #8e5b88"/>
  <path d="M7,26a3.45,3.45,0,0,1,.17-1.19,3.09,3.09,0,0,1,.64-1L8.67,23a2,2,0,0,0,.53-1.3,1.49,1.49,0,0,0-.35-1,1.32,1.32,0,0,0-1-.38,1.54,1.54,0,0,0-1,.35,1.16,1.16,0,0,0-.39.92H5.23A2.1,2.1,0,0,1,6,19.89a2.73,2.73,0,0,1,1.87-.63,2.57,2.57,0,0,1,1.87.64,2.32,2.32,0,0,1,.67,1.76,3.18,3.18,0,0,1-1,2.19l-.69.69A2.11,2.11,0,0,0,8.19,26ZM7,28a.71.71,0,0,1,.18-.49.67.67,0,0,1,.52-.19.68.68,0,0,1,.52.19.7.7,0,0,1,.17.49.67.67,0,0,1-.17.48.72.72,0,0,1-.52.19.7.7,0,0,1-.52-.19A.68.68,0,0,1,7,28Z" style="fill: #fff"/>
  <path d="M7,9.82a3.45,3.45,0,0,1,.17-1.19,3.09,3.09,0,0,1,.64-1l.84-.85A1.93,1.93,0,0,0,9.2,5.52a1.51,1.51,0,0,0-.35-1,1.32,1.32,0,0,0-1-.37,1.53,1.53,0,0,0-1,.34,1.16,1.16,0,0,0-.39.92H5.23A2.1,2.1,0,0,1,6,3.7a2.73,2.73,0,0,1,1.87-.63,2.57,2.57,0,0,1,1.87.64,2.33,2.33,0,0,1,.67,1.77,3.16,3.16,0,0,1-1,2.18l-.69.69a2.11,2.11,0,0,0-.46,1.47Zm-.06,2a.68.68,0,0,1,.18-.48.67.67,0,0,1,.52-.2.69.69,0,0,1,.52.2.76.76,0,0,1,0,1,.72.72,0,0,1-.52.19.7.7,0,0,1-.52-.19A.68.68,0,0,1,7,11.84Z" style="fill: #fff"/>
  <path d="M24,26a3.45,3.45,0,0,1,.17-1.19,3.09,3.09,0,0,1,.64-1l.84-.85a2,2,0,0,0,.53-1.3,1.49,1.49,0,0,0-.35-1,1.32,1.32,0,0,0-1-.38,1.54,1.54,0,0,0-1,.35,1.16,1.16,0,0,0-.39.92H22.23A2.1,2.1,0,0,1,23,19.89a2.73,2.73,0,0,1,1.87-.63,2.57,2.57,0,0,1,1.87.64,2.32,2.32,0,0,1,.67,1.76,3.18,3.18,0,0,1-1,2.19l-.69.69A2.11,2.11,0,0,0,25.19,26ZM24,28a.71.71,0,0,1,.18-.49.67.67,0,0,1,.52-.19.68.68,0,0,1,.52.19.7.7,0,0,1,.17.49.67.67,0,0,1-.17.48.72.72,0,0,1-.52.19.7.7,0,0,1-.52-.19A.68.68,0,0,1,24,28Z" style="fill: #fff"/>
  <path d="M24,9.82a3.45,3.45,0,0,1,.17-1.19,3.09,3.09,0,0,1,.64-1l.84-.85a1.93,1.93,0,0,0,.53-1.29,1.51,1.51,0,0,0-.35-1,1.32,1.32,0,0,0-1-.37,1.53,1.53,0,0,0-1,.34,1.16,1.16,0,0,0-.39.92H22.23A2.1,2.1,0,0,1,23,3.7a2.73,2.73,0,0,1,1.87-.63,2.57,2.57,0,0,1,1.87.64,2.33,2.33,0,0,1,.67,1.77,3.16,3.16,0,0,1-1,2.18l-.69.69a2.11,2.11,0,0,0-.46,1.47Zm-.06,2a.68.68,0,0,1,.18-.48.67.67,0,0,1,.52-.2.69.69,0,0,1,.52.2.76.76,0,0,1,0,1,.72.72,0,0,1-.52.19.7.7,0,0,1-.52-.19A.68.68,0,0,1,24,11.84Z" style="fill: #fff"/>
</svg>
