<svg id="aa0d2fe8-7168-45ac-b255-5b3a58b2ec61" data-name="Calque 1" xmlns="http://www.w3.org/2000/svg" width="32" height="32" viewBox="0 0 32 32">
  <title>bill-51-IconeSaisieFactures</title>
  <g>
    <path d="M6.17,31.5a2,2,0,0,1-2-2V2.5a2,2,0,0,1,2-2H19.63A2,2,0,0,1,21,1.09l5.54,5.53A2,2,0,0,1,27.17,8V29.5a2,2,0,0,1-2,2Z" style="fill: #fff"/>
    <path d="M19.63,1a1.52,1.52,0,0,1,1.06.44L26.23,7A1.5,1.5,0,0,1,26.67,8V29.5a1.5,1.5,0,0,1-1.5,1.5h-19a1.5,1.5,0,0,1-1.5-1.5V2.5A1.5,1.5,0,0,1,6.17,1H19.63m0-1H6.17a2.5,2.5,0,0,0-2.5,2.5v27A2.5,2.5,0,0,0,6.17,32h19a2.5,2.5,0,0,0,2.5-2.5V8a2.49,2.49,0,0,0-.73-1.77L21.39.73A2.47,2.47,0,0,0,19.63,0Z" style="fill: #fa826d"/>
  </g>
  <path d="M16,25H9a1,1,0,0,1-1-.95V15h9V25Z" style="fill: #fdd1c9"/>
  <path d="M23,14H8V12A1,1,0,0,1,9,11H22A1,1,0,0,1,23,12Z" style="fill: #fac56d"/>
  <rect x="17.99" y="15" width="5" height="10" style="fill: #fcbdb2"/>
  <path d="M21,26H18v1.14a.86.86,0,0,0,.86.86h3.28a.85.85,0,0,0,.86-.86V26Z" style="fill: #fa826d"/>
  <path d="M26.37,7.14h-6.2v-6A1.41,1.41,0,0,0,19.63,1h-.46V7.64a.5.5,0,0,0,.5.5h7V8A1.52,1.52,0,0,0,26.37,7.14Z" style="fill: #fdd1c9"/>
</svg>
