<svg id="bf429925-f772-4159-a66a-b6d31cdb9464" data-name="Calque 1" xmlns="http://www.w3.org/2000/svg" width="32" height="32" viewBox="0 0 32 32">
  <title>graph-66-IconeSaisieChargesEtProduits</title>
  <path d="M12.37,14V2A12.51,12.51,0,0,0,1.05,10.08Z" style="fill: #007bbd"/>
  <g>
    <path d="M18.53,21.28,19.79,20,15,16.71l-2.33-1.58L.72,11A12.67,12.67,0,0,0,16.16,26.91l.59-2.58A6.35,6.35,0,0,1,18.53,21.28Z" style="fill: #fac262"/>
    <path d="M25.54,14.32A12.69,12.69,0,0,0,13.38,2V14.41l7.13,4.9,4.75-4.76Z" style="fill: #8bb110"/>
  </g>
  <g>
    <path d="M18.19,29.75a.5.5,0,0,1-.35-.14.49.49,0,0,1-.14-.47l1-4.35A4.39,4.39,0,0,1,20,22.7L26.67,16a1.88,1.88,0,0,1,2.65,0l2.15,2.15A1.84,1.84,0,0,1,32,19.45a1.82,1.82,0,0,1-.55,1.32L24.75,27.5a3.84,3.84,0,0,1-2.11,1.25l-4.34,1ZM28,16.42a.84.84,0,0,0-.62.26L20.65,23.4a3.28,3.28,0,0,0-1,1.62l-.82,3.57,3.58-.82h0a2.87,2.87,0,0,0,1.58-1l6.73-6.73a.88.88,0,0,0,0-1.23l-2.16-2.15A.83.83,0,0,0,28,16.42Z" style="fill: #0499d1"/>
    <path d="M18.84,26.54l2.09,2.08a22.17,22.17,0,0,1-2.42.31A21.52,21.52,0,0,1,18.84,26.54Z" style="fill: #0499d1"/>
    <path d="M26.13,17.22,19.55,23.8l4.05,4.06,6.59-6.59ZM23.77,26.3,23,25.48l5-5,.81.81Z" style="fill: #0499d1"/>
  </g>
</svg>
