<svg id="ab35ffcf-f49f-49cf-b463-580f3c68991c" data-name="Calque 1" xmlns="http://www.w3.org/2000/svg" width="32" height="32" viewBox="0 0 32 32">
  <title>products-73-IconeEngraisNPK</title>
  <g>
    <path d="M22,5.56a6.49,6.49,0,0,0,5.87.82l-1.68,3.73-5.36,1.66Z" style="fill: #7b8786"/>
    <path d="M27.93,30.41s-.79.82-3.48,1-10.49.76-12.77.48a5.81,5.81,0,0,1-3-.89Z" style="fill: #9b9b9b"/>
    <path d="M3.6,5.56a38.39,38.39,0,0,0,9.81.82A55,55,0,0,0,22,5.56v5.17l-17.74.56Z" style="fill: #9a9d96"/>
    <path d="M4.68,5.75C5.07,4.83,7.22.16,5.23,0S3.69,4.54,3.71,5.61c0,.66,1,.49,1-.11s0-1.28,0-1.92A14,14,0,0,1,4.9,2,7.26,7.26,0,0,0,5.21.86C5.19.78,5,.94,5,1s0,.17,0,.24,0,.44-.07.66a13.06,13.06,0,0,1-.39,1.49c-.23.68-.48,1.36-.77,2A.49.49,0,0,0,4.68,5.75Z" style="fill: #9a9d96"/>
    <path d="M21.67,5.67c.48-1.12,2.48-5.12.45-5.68-1.72-.48-1.42,4.3-1.39,5.24,0,.37,1,.77,1,.37,0-.67,0-1.34,0-2s.07-1.08.15-1.61A9.79,9.79,0,0,0,22.22.75S22.1.41,22,.54s0,.23,0,.28,0,.42-.06.61a10.93,10.93,0,0,1-.44,1.68c-.23.7-.49,1.38-.78,2.05C20.59,5.52,21.52,6,21.67,5.67Z" style="fill: #9a9d96"/>
    <path d="M9.69,6.38c.15-1,1.21-5.55-.54-5.52-1.08,0-.86,1.61-.83,2.31,0,1.08.16,2.16.31,3.22.06.44,1.11.4,1.06,0q-.15-1-.24-2.1c0-.57-.08-1.14-.09-1.71a5,5,0,0,1,0-.67c0-.35.21-.5-.22-.48s-.26.09-.2.43a4.86,4.86,0,0,1,0,.66A15.81,15.81,0,0,1,8.91,4.2c-.07.74-.16,1.47-.28,2.19C8.57,6.79,9.62,6.82,9.69,6.38Z" style="fill: #9a9d96"/>
    <path d="M3.6,5.56S4.71,7.21,6.16,7.21A6.31,6.31,0,0,0,9,6.38L8.71,31,3.6,29.23S2.91,27.85,2.91,21,3.6,5.56,3.6,5.56Z" style="fill: #d1d1d1"/>
    <path d="M27.58,6.24c-.07-1-.18-2-.35-3C27.11,2.54,27,.94,26,1c-2.67,0-.06,4.58.53,5.57.15.25,1.1-.14,1-.29A18.84,18.84,0,0,1,26.43,4a6.32,6.32,0,0,1-.52-1.7,6.35,6.35,0,0,1,0-.76c0-.17.44-.44-.14-.17s-.18-.05-.15.24a11.68,11.68,0,0,0,.41,1.17c.12.53.21,1.07.28,1.61.1.73.17,1.46.23,2.19C26.58,6.72,27.6,6.53,27.58,6.24Z" style="fill: #9a9d96"/>
    <path d="M9,6.38a32.6,32.6,0,0,0,9.59,1.11A45.26,45.26,0,0,0,27.9,6.38a39.49,39.49,0,0,0-.34,5.8c.07,3,.48,6.7.34,9.74s0,8.49,0,8.49L8.71,31Z" style="fill: #fff"/>
  </g>
  <g>
    <path d="M3.17,13.44,7.5,20V13.38a1.45,1.45,0,0,1,.27-1,1,1,0,0,1,1.51,0,1.39,1.39,0,0,1,.28,1v8.73c0,1-.4,1.46-1.21,1.46a1.8,1.8,0,0,1-.54-.08,1.3,1.3,0,0,1-.46-.28A2.78,2.78,0,0,1,7,22.77l-.37-.52L2.38,15.78v6.51a1.38,1.38,0,0,1-.3,1,1,1,0,0,1-.76.32,1,1,0,0,1-.76-.32,1.43,1.43,0,0,1-.29-1V13.72a2.4,2.4,0,0,1,.12-.85,1.29,1.29,0,0,1,.48-.56,1.33,1.33,0,0,1,.72-.22,1.38,1.38,0,0,1,.52.1,1.46,1.46,0,0,1,.38.27,2.81,2.81,0,0,1,.33.43Z" style="fill: #005da8"/>
    <path d="M16.33,19.06H14.27V22.2a1.46,1.46,0,0,1-.32,1,1,1,0,0,1-.8.34,1.05,1.05,0,0,1-.82-.34,1.51,1.51,0,0,1-.31-1V13.66a1.43,1.43,0,0,1,.34-1.06,1.58,1.58,0,0,1,1.09-.32h2.88a7.62,7.62,0,0,1,2,.2,3.05,3.05,0,0,1,1.18.63,2.81,2.81,0,0,1,.75,1.07,3.89,3.89,0,0,1,.26,1.44,3.16,3.16,0,0,1-1,2.57A4.75,4.75,0,0,1,16.33,19.06ZM15.79,14H14.27v3.4h1.52a4.58,4.58,0,0,0,1.33-.17,1.53,1.53,0,0,0,.81-.55,1.59,1.59,0,0,0,.28-1,1.68,1.68,0,0,0-.43-1.2A2.94,2.94,0,0,0,15.79,14Z" style="fill: #005da8"/>
    <path d="M24.63,13.46v3.89L29,12.75a4.35,4.35,0,0,1,.55-.5,1,1,0,0,1,.59-.16,1.09,1.09,0,0,1,.78.29.92.92,0,0,1,.3.69,1.4,1.4,0,0,1-.5,1L28,16.64l3.15,4.51a5.84,5.84,0,0,1,.5.82,1.67,1.67,0,0,1,.17.69.85.85,0,0,1-.29.64,1.13,1.13,0,0,1-.79.27,1.3,1.3,0,0,1-.77-.2,1.7,1.7,0,0,1-.5-.53c-.14-.22-.26-.42-.36-.61l-2.66-4.09-1.84,1.77V22.2a1.49,1.49,0,0,1-.32,1,1.08,1.08,0,0,1-.82.33,1.11,1.11,0,0,1-.55-.15,1.08,1.08,0,0,1-.41-.41,1.41,1.41,0,0,1-.13-.49c0-.19,0-.46,0-.81V13.46a1.48,1.48,0,0,1,.3-1,1,1,0,0,1,.81-.35,1.11,1.11,0,0,1,.83.34A1.48,1.48,0,0,1,24.63,13.46Z" style="fill: #005da8"/>
  </g>
</svg>
