<svg id="f3f08235-d204-42d7-a3a8-6801e05008da" data-name="Calque 1" xmlns="http://www.w3.org/2000/svg" width="32" height="32" viewBox="0 0 32 32">
  <title>field-101-30BCBBD0</title>
  <g>
    <path d="M15.07,20.73V18.55a3.08,3.08,0,0,1,2.6-3l.15,0h.75a2.57,2.57,0,0,1,4.54,0h.6a2.61,2.61,0,0,1,1.87-1.3l3.85-5.73L13.08,2l-11,16.1,13,11.72.81-1.2a3.51,3.51,0,0,1-.82-2.25Z" style="fill: #669e3e"/>
    <path d="M15.17,30.58,1.42,18.18,12.89,1.39l17.3,6.83-4,5.94a2.35,2.35,0,0,1,.54.1L31,8,12.71.77.76,18.26,15.27,31.34l1.36-2a3,3,0,0,1-.39-.32Z" style="fill: #516d53"/>
    <path d="M12.89,1.39,1.42,18.18l13.75,12.4L16.24,29a3.06,3.06,0,0,1-.35-.37l-.81,1.2L2.08,18.1,13.08,2,29.43,8.46l-3.85,5.73a2.57,2.57,0,0,1,.4-.06c.08,0,.15,0,.22,0l4-5.94Z" style="fill: #516d53"/>
  </g>
  <path d="M28.7,21.21v5.16a2.19,2.19,0,0,1-.05.53h-10a.53.53,0,0,1-.54-.53V21.21H28.7m1-1H17.07v6.18a1.56,1.56,0,0,0,1.56,1.56h10c.86,0,1-.7,1-1.56V20.19Z" style="fill: #0499d1"/>
  <path d="M21.52,17c0-.5-.3-.91-.68-.91s-.67.41-.67.91v.9c0,.5.3.9.67.9s.68-.4.68-.9Z" style="fill: #0499d1"/>
  <path d="M26.66,17c0-.5-.31-.91-.68-.91s-.68.41-.68.91v.9c0,.5.3.9.68.9a.82.82,0,0,0,.68-.9Z" style="fill: #0499d1"/>
  <path d="M28.69,17.49H27.62v.45c0,.75-.13,1.87-1.64,1.87s-1.64-1.12-1.64-1.87v-.45H22.49v.45c0,.75-.26,1.87-1.65,1.87s-1.64-1.12-1.64-1.87v-.45H18a1.07,1.07,0,0,0-.9,1.06v2.18H29.75V18.55A1.06,1.06,0,0,0,28.69,17.49Z" style="fill: #0499d1"/>
  <line x1="21.53" y1="20.94" x2="21.53" y2="27.33" style="fill: none;stroke: #0499d1;stroke-miterlimit: 10;stroke-width: 1.0240000000000002px"/>
  <line x1="25.44" y1="20.94" x2="25.44" y2="27.33" style="fill: none;stroke: #0499d1;stroke-miterlimit: 10;stroke-width: 1.0240000000000002px"/>
  <line x1="17.54" y1="24.14" x2="28.79" y2="24.14" style="fill: none;stroke: #0499d1;stroke-miterlimit: 10;stroke-width: 1.0240000000000002px"/>
</svg>
