<svg id="acf968f4-a13a-4866-b7ed-67c3a5dd7b96" data-name="Calque 1" xmlns="http://www.w3.org/2000/svg" width="32" height="32" viewBox="0 0 32 32">
  <title>field-60-IconeDissociationTrace</title>
  <g>
    <polygon points="13.59 3.11 11.73 2.38 11.73 2.38 13.59 3.11 13.59 3.11" style="fill: #77787a"/>
    <polygon points="16.38 4.22 14.52 3.48 14.52 3.48 16.38 4.22 16.38 4.22" style="fill: #77787a"/>
    <polygon points="1.42 13.52 0.29 15.17 0.29 15.17 1.42 13.52 1.42 13.52" style="fill: #77787a"/>
    <polygon points="3.11 11.04 1.98 12.69 1.98 12.69 3.11 11.04 3.11 11.04" style="fill: #77787a"/>
    <polygon points="24.57 7.45 23.32 6.96 24.57 7.45 24.57 7.45" style="fill: #77787a"/>
    <polygon points="7.06 5.26 7.06 5.26 8.16 3.65 7.06 5.26" style="fill: #77787a"/>
    <polygon points="17.31 4.58 17.31 4.58 18.25 4.95 17.31 4.58" style="fill: #77787a"/>
    <polygon points="10.8 2.01 9.61 1.54 10.8 2.01 10.8 2.01" style="fill: #77787a"/>
    <polygon points="4.8 8.56 3.67 10.22 3.67 10.22 4.8 8.57 4.8 8.56" style="fill: #77787a"/>
    <polygon points="8.75 2.79 8.75 2.79 9.61 1.54 8.75 2.79" style="fill: #77787a"/>
    <polygon points="6.5 6.09 5.37 7.74 5.37 7.74 6.5 6.09 6.5 6.09" style="fill: #77787a"/>
    <path d="M23,7.92,10,2.76,1.16,15.67l6.48,5.85a8.75,8.75,0,0,1,8.58-7.15,7.55,7.55,0,0,1,.83.05V8.64h5.51Z" style="fill: #fff"/>
    <path d="M7.64,21.52,1.16,15.67,10,2.76,23,7.92l-.48.72h1.21l.8-1.19h0L23.32,7,18.25,5l-.94-.37-.93-.36-1.86-.74-.93-.37-1.86-.73L10.8,2,9.61,1.54,8.75,2.79l-.59.86L7.06,5.26l-.56.83L5.37,7.74l-.57.83L3.67,10.22,3.11,11,2,12.69l-.56.83L.29,15.17l-.45.66,7.67,6.92A9.85,9.85,0,0,1,7.64,21.52Z" style="fill: #77787a"/>
    <path d="M20.46,15.48v-.11h0v-.5h8v.5h0v.5H21.1a8.34,8.34,0,0,1,1.63,1.45H28.5v.5h0v.5h-5a9,9,0,0,1,.76,1.44H28.5v.5h0v.5H24.61a8.72,8.72,0,0,1,.31,1.85h6v-9.5H18.05v1.46A9,9,0,0,1,20.46,15.48Z" style="fill: #fff"/>
    <path d="M23.77,8.64H17.05v5.78a8,8,0,0,1,1,.15V13.11H30.9v9.5h-6c0,.16,0,.32,0,.49s0,.34,0,.51h7v-15Z" style="fill: #42487f"/>
    <path d="M28.5,15.37v-.5h-8v.61c.22.12.43.25.64.39h7.4Z" style="fill: #42487f"/>
    <path d="M28.5,17.82v-.5H22.73a8.62,8.62,0,0,1,.78,1h5Z" style="fill: #42487f"/>
    <path d="M28.5,20.26v-.5H24.27a6.93,6.93,0,0,1,.34,1H28.5Z" style="fill: #42487f"/>
  </g>
  <path d="M16.22,30.82a6.73,6.73,0,1,1,6.72-6.72A6.74,6.74,0,0,1,16.22,30.82Z" style="fill: #b71236"/>
  <g>
    <line x1="13.46" y1="20.86" x2="19.46" y2="26.86" style="fill: none;stroke: #fff;stroke-miterlimit: 10;stroke-width: 1.5px"/>
    <line x1="19.46" y1="20.86" x2="13.46" y2="26.86" style="fill: none;stroke: #fff;stroke-miterlimit: 10;stroke-width: 1.5px"/>
  </g>
</svg>
