<svg id="b74654ca-a0a2-4d10-affd-74601fbda98a" data-name="Calque 1" xmlns="http://www.w3.org/2000/svg" width="32" height="32" viewBox="0 0 32 32">
  <title>equipment-62-IconeFioleMatiereActive</title>
  <path d="M5.34,29.87H26.66c.5-.11,3.19-.78,3.19-3.05,0-1.74-1.75-3.95-2.43-4.65l-9.27-9.39V2.13h-4.3V12.78L4.51,22.22s-2.36,2.12-2.36,4.6C2.15,29.09,4.82,29.76,5.34,29.87Z" style="fill: #fff"/>
  <path d="M6.21,24.24l3.72-3.82a3.8,3.8,0,0,1,2.49-1.34H20c1.43,0,2.92,1.66,2.92,1.66l3.4,3.5s2.49,3.49-2.48,3.49H8.69C3.73,27.73,6.21,24.24,6.21,24.24Z" style="fill: #be627a"/>
  <path d="M26.85,32,5.05,32c-1.75-.29-5-1.76-5-5.16S2.7,21,3.05,20.66l8.64-8.75V1.12H10.37L12.2,0h7.6l1.82,1.12H20.3V11.91L29,20.69c.31.32,3,3.22,3,6.13,0,3.4-3.31,4.87-5.06,5.16ZM5.34,29.87H26.66c.5-.11,3.19-.78,3.19-3.05,0-1.74-1.75-3.95-2.43-4.65l-9.27-9.39V2.13h-4.3V12.78L4.51,22.22s-2.36,2.12-2.36,4.6C2.15,29.09,4.82,29.76,5.34,29.87Z" style="fill: #98999b"/>
  <line x1="10.5" y1="1" x2="21.5" y2="1" style="fill: none;stroke: #98999b;stroke-linecap: round;stroke-linejoin: round;stroke-width: 2.03899002326179px"/>
  <path d="M9.22,24.8c.36.36,1,.29,1.76-.51s1.45-2,1.09-2.39-1.61.31-2.39,1.11S8.86,24.45,9.22,24.8Z" style="fill: #fff"/>
</svg>
