<svg id="bdb0dae8-3968-4d56-92bd-aee8bab4015c" data-name="Calque 1" xmlns="http://www.w3.org/2000/svg" width="32" height="32" viewBox="0 0 32 32">
  <title>meteo-69-4F4AA5C</title>
  <path d="M5.74,7.66C6,7.33,5.09,5.3,5.56,5.05S7.17,6.74,7.68,6.62s.42-2.5,1-2.48S9.33,6.58,9.8,6.7s1.6-2.15,2-1.9-.14,2.41.36,2.74,2-1.46,2.29-1.09S13.15,8.56,13.6,9s2.64-.53,2.83-.08-2,1.4-1.92,2,2.35.7,2.37,1.17-2.12.38-2.23,1.06,1.23,1.28,1,1.72-1.47-.22-1.78.42S15.23,17.69,15,18s-2.42-1.2-2.79-.87.63,2.44.25,2.64-1.55-1.93-2-1.8-.49,2.5-1.06,2.49-.51-2.24-1-2.35-1.52,2-2,1.84.34-2.08-.17-2.47-2,1.35-2.61.93,1.51-2.06.88-2.59-2,.48-2.53.08,1.93-1.47,1.65-2.08-2.56-.26-2.67-1,2.06-.39,2.24-1.14-1.8-1.37-1.71-2,2.28.5,2.65-.22S2.42,7.36,2.87,6.85,5.44,8,5.74,7.66" style="fill: #ffe920"/>
  <path d="M6.65,6.54c.35-.3-.12-2.69.45-2.85S8.41,5.9,9,5.9s1.07-2.59,1.71-2.41.08,2.77.56,3S13.49,4.59,13.81,5s-.74,2.55-.28,3S16,6.89,16.24,7.36s-1.86,2-1.5,2.57,3,.07,3.06.61-2.49,1-2.54,1.63S17.61,13.5,17.52,14s-2.38-.11-2.66.59.92,2.26.59,2.68S14,16.1,13.53,16.71s.83,2.91.47,3.18S11.7,18,11.23,18.27s.07,2.77-.38,2.89-1.2-2.45-1.75-2.43S8,21.29,7.35,21.14s0-2.53-.51-2.77S4.71,20.15,4.2,19.85s.87-2.15.41-2.7-2.49,1-3,.36,2.13-1.84,1.58-2.57-2.3,0-2.74-.53,2.44-1.1,2.28-1.82S0,11.68.09,10.9s2.3.09,2.68-.67-1.6-1.92-1.33-2.6,2.32,1.1,2.89.42S3.17,5.4,3.78,5,6.25,6.84,6.65,6.54" style="fill: #fcb819"/>
  <g>
    <ellipse cx="8.95" cy="12.53" rx="5.13" ry="5.26" style="fill: #ffcc1b"/>
    <path d="M9,7.7a4.77,4.77,0,0,1,4.7,4.83A4.78,4.78,0,0,1,9,17.37,4.84,4.84,0,0,1,9,7.7m0-.85A5.68,5.68,0,0,0,9,18.21,5.68,5.68,0,0,0,9,6.85Z" style="fill: #fff"/>
  </g>
  <path d="M11.73,9.14a4.6,4.6,0,0,1,1,2.86,4.46,4.46,0,0,1-4.38,4.51,4.19,4.19,0,0,1-2.76-1,4.34,4.34,0,0,0,3.37,1.69,4.45,4.45,0,0,0,4.38-4.51,4.45,4.45,0,0,0-1.59-3.54" style="fill: #fcb819"/>
  <polyline points="9.22 20.32 9.35 19.65 9.71 19.1 10.25 18.72 10.91 18.59 11.38 18.65 11.79 18.84 12.14 19.13 12.4 19.5 12.13 19.64 11.91 19.34 11.63 19.1 11.29 18.95 10.91 18.9 10.38 19.01 9.94 19.31 9.64 19.77 9.53 20.32 9.22 20.32" style="fill: #fff"/>
  <polyline points="10.92 18.78 10.97 18.29 11.12 17.83 11.34 17.41 11.64 17.05 12 16.75 12.42 16.52 12.88 16.38 13.38 16.33 14.19 16.47 14.89 16.85 15.42 17.43 15.75 18.16 15.45 18.24 15.16 17.6 14.69 17.1 14.09 16.76 13.38 16.64 12.94 16.68 12.54 16.81 12.18 17.01 11.86 17.27 11.6 17.58 11.4 17.95 11.28 18.35 11.24 18.78 10.92 18.78" style="fill: #fff"/>
  <g>
    <path d="M22.88,24.63h-1a2.92,2.92,0,0,1,.76.6,3.06,3.06,0,0,0,1,.78.61.61,0,0,1,0-.14V24.61h0Z" style="fill: none"/>
    <path d="M6.09,24.5l-.21-.1Z" style="fill: #d3d2d2"/>
    <path d="M5.63,24.24a1.33,1.33,0,0,1-.19-.14A1.33,1.33,0,0,0,5.63,24.24Z" style="fill: #d3d2d2"/>
    <path d="M5.22,23.9a1.21,1.21,0,0,1-.16-.16A1.21,1.21,0,0,0,5.22,23.9Z" style="fill: #d3d2d2"/>
    <path d="M4.87,23.5l-.13-.18Z" style="fill: #d3d2d2"/>
    <path d="M6.6,24.67l-.23-.06Z" style="fill: #d3d2d2"/>
    <path d="M4.6,23a1.11,1.11,0,0,1-.09-.19A1.11,1.11,0,0,0,4.6,23Z" style="fill: #d3d2d2"/>
    <path d="M21.87,24.64h1l.78,0h0v-.1a1.85,1.85,0,0,1,.15-.74H18.12a2,2,0,0,1-2-2V16.28a2,2,0,0,1,2-2h1.37a2,2,0,0,1,1.66.88l.52-.22a4.63,4.63,0,0,0-8.79,1.29,3,3,0,0,0-4.51,2.55,3.29,3.29,0,0,0,.05.54,2.5,2.5,0,0,0-.55-.05,2.84,2.84,0,0,0-1.19,5.42c.13,0,.25,0,.38.06h.81L19,24.66a2.85,2.85,0,0,1,1.45-.4A2.78,2.78,0,0,1,21.87,24.64Z" style="fill: #d3d2d2"/>
    <path d="M4.4,22.5c0-.06,0-.12,0-.18S4.39,22.44,4.4,22.5Z" style="fill: #d3d2d2"/>
    <path d="M4.51,22.84a2.24,2.24,0,0,1-.11-.34A2.24,2.24,0,0,0,4.51,22.84Z" style="fill: #fff"/>
    <path d="M4.36,22.32a2.6,2.6,0,0,1-.06-.56A2.6,2.6,0,0,0,4.36,22.32Z" style="fill: #fff"/>
    <path d="M5.06,23.74a2.23,2.23,0,0,1-.19-.24Z" style="fill: #fff"/>
    <path d="M6.37,24.61l-.28-.11Z" style="fill: #fff"/>
    <path d="M6.72,24.71l0,0-.08,0Z" style="fill: #fff"/>
    <path d="M5.44,24.1a2.09,2.09,0,0,1-.22-.2A2.09,2.09,0,0,0,5.44,24.1Z" style="fill: #fff"/>
    <path d="M9.74,15.36a3.13,3.13,0,0,0-1.85,2.26A3.13,3.13,0,0,1,9.74,15.36Z" style="fill: #fff"/>
    <path d="M4.74,23.32A2.59,2.59,0,0,1,4.6,23,2.59,2.59,0,0,0,4.74,23.32Z" style="fill: #fff"/>
    <path d="M5.88,24.4l-.25-.16Z" style="fill: #fff"/>
    <path d="M5,22.11a2.84,2.84,0,0,1,2.84-2.84,2.5,2.5,0,0,1,.55.05,3.29,3.29,0,0,1-.05-.54,3,3,0,0,1,4.51-2.55,4.63,4.63,0,0,1,8.79-1.29l.4-.16a4.87,4.87,0,0,0-9.48.78A3.21,3.21,0,0,0,11,15.11a3.14,3.14,0,0,0-3.07,2.51,3.21,3.21,0,0,0-.06.63,3.66,3.66,0,0,0,0,.57,2.78,2.78,0,0,0-.58-.06,3,3,0,0,0-3,3,2.6,2.6,0,0,0,.06.56c0,.06,0,.12,0,.18a2.24,2.24,0,0,0,.11.34A1.11,1.11,0,0,0,4.6,23a2.59,2.59,0,0,0,.14.29l.13.18a2.23,2.23,0,0,0,.19.24,1.21,1.21,0,0,0,.16.16,2.09,2.09,0,0,0,.22.2,1.33,1.33,0,0,0,.19.14l.25.16.21.1.28.11.23.06.08,0A2.85,2.85,0,0,1,5,22.11Z" style="fill: #fff"/>
  </g>
  <path d="M30.08,18.64a6.71,6.71,0,0,0-10.59.47V16.28H18.12v5.49h6.17V20.4H20.64A5,5,0,0,1,25.39,18a5.11,5.11,0,0,1,3.43,1.76.83.83,0,0,0,1.18.09A.86.86,0,0,0,30.08,18.64Z" style="fill: #40a52b;fill-rule: evenodd"/>
  <path d="M31.15,24.51H25.66v1.37h3.61a4.9,4.9,0,0,1-1,1.21,5.06,5.06,0,0,1-7.13-.54.83.83,0,0,0-1.18-.08.85.85,0,0,0-.08,1.19A6.72,6.72,0,0,0,24.38,30L25,30a6.8,6.8,0,0,0,5.49-2.85V30h1.37V24.51Z" style="fill: #40a52b;fill-rule: evenodd"/>
</svg>
