<svg id="ee38b5b3-34b3-43ef-9867-311ce66d88fc" data-name="Calque 1" xmlns="http://www.w3.org/2000/svg" width="32" height="32" viewBox="0 0 32 32">
  <title>equipment-54-2590C1BB</title>
  <path d="M29.63,5.9l-.42-.42h0a12.48,12.48,0,0,0-1.89,1.69A11.12,11.12,0,0,1,25.25,9h0A4.85,4.85,0,0,1,24,8.29a7.26,7.26,0,0,1-1.66-1.66,5,5,0,0,1-.68-1.24,11.12,11.12,0,0,1,1.79-2.06,10.65,10.65,0,0,0,1.69-1.91L24.73,1a.86.86,0,0,0-.5-.09,7.41,7.41,0,0,0-1.67.24,8,8,0,0,0-3.19,1.78A6,6,0,0,0,18,6.4a10.15,10.15,0,0,1-.46,2.91c-.13.29-3.69,3.89-6.12,6.27A18.21,18.21,0,0,1,9.87,17,10.15,10.15,0,0,1,7,17.43a5.92,5.92,0,0,0-3.47,1.4A8,8,0,0,0,1.71,22a4.09,4.09,0,0,0-.15,2.18l.42.41H2a12.57,12.57,0,0,0,1.9-1.7,11.69,11.69,0,0,1,2.05-1.79h0a4.84,4.84,0,0,1,1.25.68,7.43,7.43,0,0,1,1.66,1.65,5,5,0,0,1,.67,1.25,11,11,0,0,1-1.79,2.06A11.33,11.33,0,0,0,6,28.67l.42.42a.81.81,0,0,0,.5.1A7.94,7.94,0,0,0,8.63,29a8,8,0,0,0,3.19-1.78,6,6,0,0,0,1.41-3.47,10.25,10.25,0,0,1,.45-2.92c.14-.28,3.69-3.87,6.12-6.26.82-.79,1.42-1.34,1.52-1.4a10.38,10.38,0,0,1,2.92-.45,6,6,0,0,0,3.47-1.41,8,8,0,0,0,1.78-3.19A4,4,0,0,0,29.63,5.9Z" style="fill: #8b8c8e"/>
  <path d="M24.29,29.61A6.73,6.73,0,1,1,31,22.88,6.74,6.74,0,0,1,24.29,29.61Z" style="fill: #5bab26"/>
  <rect x="23.73" y="18.13" width="1.27" height="9.02" style="fill: #fff"/>
  <rect x="19.88" y="22" width="8.95" height="1.28" style="fill: #fff"/>
  <rect x="23.73" y="18.13" width="1.27" height="9.02" style="fill: #fff"/>
  <rect x="19.88" y="22" width="8.95" height="1.28" style="fill: #fff"/>
  <rect x="23.73" y="18.13" width="1.27" height="9.02" style="fill: #fff"/>
  <rect x="19.88" y="22" width="8.95" height="1.28" style="fill: #fff"/>
</svg>
