<svg id="b36f6e16-8226-4ff1-9934-e4152805a523" data-name="Calque 1" xmlns="http://www.w3.org/2000/svg" width="32" height="32" viewBox="0 0 32 32">
  <title>doc-101-128CB450</title>
  <path d="M23.27,27.05A6.72,6.72,0,1,1,30,20.33,6.73,6.73,0,0,1,23.27,27.05Z" style="fill: #0499d1"/>
  <path d="M23.27,27.05A6.72,6.72,0,1,1,30,20.33,6.73,6.73,0,0,1,23.27,27.05Z" style="fill: #00608c"/>
  <polygon points="19.06 19.53 19.06 21.13 23.47 21.13 23.47 24.34 27.48 20.33 23.47 16.32 23.47 19.53 19.06 19.53" style="fill: #fff"/>
  <path d="M24.63,29.5a1.5,1.5,0,0,1-1.5,1.5h-19a1.5,1.5,0,0,1-1.5-1.5v-27A1.51,1.51,0,0,1,4.13,1H17.59a1.5,1.5,0,0,1,1.06.44L24.19,7A1.46,1.46,0,0,1,24.63,8v3.7c.34,0,.68.11,1,.19V8a2.51,2.51,0,0,0-.73-1.77L19.36.74A2.52,2.52,0,0,0,17.59,0H4.13a2.5,2.5,0,0,0-2.5,2.51v27A2.5,2.5,0,0,0,4.13,32h19a2.58,2.58,0,0,0,1-.19,2.5,2.5,0,0,0,1.53-2.31v-.65a6.54,6.54,0,0,1-1,.19Z" style="fill: #868789"/>
  <g>
    <path d="M23.55,11.67a9.48,9.48,0,0,1,1.08.07V8A1.46,1.46,0,0,0,24.19,7L18.65,1.44A1.5,1.5,0,0,0,17.59,1H4.13a1.51,1.51,0,0,0-1.5,1.51v27A1.5,1.5,0,0,0,4.13,31h19a1.5,1.5,0,0,0,1.5-1.5V29a7.62,7.62,0,0,1-1.08.08A8.64,8.64,0,0,1,19.36,28H6.74a.5.5,0,0,1-.5-.5.5.5,0,0,1,.5-.5H17.9a9.24,9.24,0,0,1-1.74-2H6.74a.5.5,0,0,1-.5-.5.5.5,0,0,1,.5-.5h8.89a.3.3,0,0,1,0-.08,6.66,6.66,0,0,1-.38-1A7.24,7.24,0,0,1,15,22H6.74a.5.5,0,0,1-.5-.5.5.5,0,0,1,.5-.5h8.13c0-.21,0-.41,0-.63s0-.3,0-.45A7,7,0,0,1,15,19H6.74a.5.5,0,0,1-.5-.5.5.5,0,0,1,.5-.5h8.43A8.66,8.66,0,0,1,16,16H6.74a.5.5,0,0,1-.5-.5.5.5,0,0,1,.5-.5h10a.35.35,0,0,1,.05-.08A8.71,8.71,0,0,1,23.55,11.67Z" style="fill: #fff"/>
    <path d="M6.24,21.52a.5.5,0,0,0,.5.5H15c-.06-.33-.09-.66-.12-1H6.74A.5.5,0,0,0,6.24,21.52Z" style="fill: #d7d8d9"/>
    <path d="M6.24,18.52a.5.5,0,0,0,.5.5H15v-.08c.06-.31.13-.62.22-.92H6.74A.5.5,0,0,0,6.24,18.52Z" style="fill: #d7d8d9"/>
    <path d="M6.24,15.52a.5.5,0,0,0,.5.5H16l0-.08A8.39,8.39,0,0,1,16.7,15h-10A.5.5,0,0,0,6.24,15.52Z" style="fill: #d7d8d9"/>
    <path d="M6.24,24.52a.5.5,0,0,0,.5.5h9.42a9.56,9.56,0,0,1-.53-1H6.74A.5.5,0,0,0,6.24,24.52Z" style="fill: #d7d8d9"/>
    <path d="M20.88,28a.5.5,0,0,0,.5-.5.5.5,0,0,0-.5-.5h-3a9.19,9.19,0,0,0,1.46,1Z" style="fill: #c5c6c8"/>
    <path d="M6.24,27.52a.5.5,0,0,0,.5.5H19.36a9.19,9.19,0,0,1-1.46-1H6.74A.5.5,0,0,0,6.24,27.52Z" style="fill: #d7d8d9"/>
  </g>
  <g>
    <path d="M19.88,5.72H18.13V7.15h2.25V6.22A.5.5,0,0,0,19.88,5.72Z" style="fill: none"/>
    <path d="M20.38,11a.5.5,0,0,1-.5.5H7.74a.5.5,0,0,1-.5-.5V6.22a.5.5,0,0,1,.5-.5h8.39v-1H7.74a1.5,1.5,0,0,0-1.5,1.5V11a1.5,1.5,0,0,0,1.5,1.5H19.88a1.5,1.5,0,0,0,1.5-1.5V9.15h-1Z" style="fill: #d7d8d9"/>
    <path d="M24.33,7.15h-6.2v-6A1.41,1.41,0,0,0,17.59,1h-.46V7.65a.51.51,0,0,0,.5.5h7V8A1.47,1.47,0,0,0,24.33,7.15Z" style="fill: #d7d8d9"/>
  </g>
</svg>
