<svg id="f2d790bb-5c85-4269-96a5-602804618c72" data-name="Calque 1" xmlns="http://www.w3.org/2000/svg" width="32" height="32" viewBox="0 0 32 32">
  <title>equipment-52-IconeImportAnalyse</title>
  <path d="M2.28,24.29h9.56c1.56,0,1.38.95,1.38.95l.31,1.39s1.05,1.25-1.07,1.93S4.33,29,4.33,29l-2.51-.22L.63,27.46,1,25.76Z" style="fill: #be627a"/>
  <rect x="11.69" y="3.45" width="3.07" height="4.5" transform="translate(0.03 -0.06) rotate(0.26)" style="fill: #5c577d"/>
  <g>
    <path d="M15.78,11.34a1.66,1.66,0,0,0-.67.11,1.94,1.94,0,0,0,.65,3.77,1.95,1.95,0,0,0,2-1.93,2,2,0,0,0-.56-1.38A1.93,1.93,0,0,0,15.78,11.34Z" style="fill: none"/>
    <path d="M13.94,25.19V26.5a8.25,8.25,0,0,1,2,.4c.64.2,1.61.48,2.57.8A8.83,8.83,0,0,1,17,25.09a12.75,12.75,0,0,1-1.43.09Z" style="fill: none"/>
  </g>
  <path d="M25.28,29A6.73,6.73,0,1,1,32,22.27,6.74,6.74,0,0,1,25.28,29Z" style="fill: #0499d1"/>
  <polygon points="28.82 19.86 27.69 18.72 24.57 21.84 22.3 19.57 22.3 25.24 27.97 25.24 25.7 22.98 28.82 19.86" style="fill: #fff"/>
  <g>
    <path d="M12.19,29.53H2.41A2.57,2.57,0,0,1,.14,27.18a4.24,4.24,0,0,1,1.37-2.8l3.88-4V15.87h0l.27-.51H9l.26.51h0v4.54l3.89,4a4.8,4.8,0,0,1,1.36,2.78,2.57,2.57,0,0,1-2.27,2.34Zm-9.65-1H12.1c.23,0,1.43-.35,1.43-1.38a4,4,0,0,0-1.08-2.12L8.29,20.8V16H6.35V20.8L2.17,25.09a3.31,3.31,0,0,0-1.06,2.09C1.11,28.2,2.31,28.51,2.54,28.56Z" style="fill: #be627a"/>
    <g>
      <path d="M15.76,15.22a1.95,1.95,0,0,0,2-1.93,2,2,0,0,0-.56-1.38,1.93,1.93,0,0,0-1.37-.57,1.66,1.66,0,0,0-.67.11,1.94,1.94,0,0,0,.65,3.77Z" style="fill: none"/>
      <rect x="12.49" y="17.51" width="1.33" height="3.07" transform="translate(-5.94 32.11) rotate(-89.74)" style="fill: #5c577d"/>
      <path d="M12.16,17.84h3.66V16a2.85,2.85,0,0,0,.87-.16,2.76,2.76,0,0,0,1-.64,2.8,2.8,0,0,0,.51-.69,2.4,2.4,0,0,1,1.61.91,8.84,8.84,0,0,1,2-1.19,5.39,5.39,0,0,0-3.53-2.18,2.83,2.83,0,0,0-.53-.75,2.73,2.73,0,0,0-1.87-.82v-2l-5.32,0,0,7,.6.89Zm2.95-6.39a1.66,1.66,0,0,1,.67-.11,1.93,1.93,0,0,1,1.37.57,2,2,0,0,1,.56,1.38,1.95,1.95,0,0,1-2,1.93,1.94,1.94,0,0,1-.65-3.77Z" style="fill: #5c577d"/>
      <path d="M18.46,27.7c-1-.32-1.93-.6-2.57-.8a3.39,3.39,0,0,0-.43-.11,2.33,2.33,0,0,1,0,.38,3,3,0,0,1-.78,2H20A9,9,0,0,1,18.46,27.7Z" style="fill: #5c577d"/>
      <path d="M14.93,25.18h.67A12.75,12.75,0,0,0,17,25.09a8.87,8.87,0,0,1-.46-2.43c-.3,0-.61.06-.94.07H12.92l.95,1A7.63,7.63,0,0,1,14.93,25.18Z" style="fill: #5c577d"/>
    </g>
  </g>
  <line x1="5.08" y1="15.54" x2="9.48" y2="15.54" style="fill: none;stroke: #be627a;stroke-linecap: round;stroke-linejoin: round"/>
</svg>
