<svg id="f489a05c-afcc-4560-9184-c281344fd2b8" data-name="Calque 1" xmlns="http://www.w3.org/2000/svg" width="32" height="32" viewBox="0 0 32 32">
  <title>office-72-IconeRegroupementParcelle</title>
  <g>
    <path d="M29.92,8.86,22.07,1a.89.89,0,0,0-1.23,0L13.72,11.24a.87.87,0,0,0,0,1.23l.78.79,3.21,3.2.78.79a.87.87,0,0,0,1.23,0l10.2-7.15A.88.88,0,0,0,29.92,8.86Z" style="fill: #f9b400"/>
    <path d="M5.48,25.05c-.19.19-.27.42-.17.52l.05.06c.1.09.33,0,.52-.18L15,17.38l-1.21-1.49Z" style="fill: #b71236"/>
    <path d="M12.1,16.43a.37.37,0,0,0,0,.5l.39.39,1.14,1.14.39.39a.35.35,0,0,0,.5,0l2.34-1.67a.4.4,0,0,0,.05-.62L14.39,14a.4.4,0,0,0-.62.05Z" style="fill: #b71236"/>
    <path d="M5,26.69a4.07,4.07,0,0,1-.8,1.41,2.93,2.93,0,0,0-.68,1.56,1.76,1.76,0,0,0,.6,1.3A1.49,1.49,0,0,0,5.72,31a1.66,1.66,0,0,0,.74-1.48A2.89,2.89,0,0,0,5.69,28,5.35,5.35,0,0,1,5,26.69Z" style="fill: #f9b400"/>
  </g>
</svg>
