<svg id="a41df348-2928-42c2-9b85-646c959946f7" data-name="Calque 1" xmlns="http://www.w3.org/2000/svg" width="32" height="32" viewBox="0 0 32 32">
  <title>phyto-66-IconePhyto</title>
  <path d="M28,1.62A1.63,1.63,0,0,0,26.37,0H16.54c-3.22,0-3,4.56-6.77,4.56H5.28A1.63,1.63,0,0,0,3.66,6.19L3,11.55V23.38l.64,7A1.63,1.63,0,0,0,5.28,32H26.37A1.63,1.63,0,0,0,28,30.38l.64-6.48V11.66ZM24.13,4.31H18.62a1.22,1.22,0,1,1,0-2.44h5.51a1.22,1.22,0,0,1,0,2.44Z" style="fill: #b3b3b3"/>
  <path d="M5.25,3V1.5A1.27,1.27,0,0,1,6.51.24H8.62A1.26,1.26,0,0,1,9.88,1.5V3" style="fill: #6e6a69"/>
  <rect x="7.57" y="13.05" width="16.56" height="14.2" style="fill: #fff"/>
</svg>
