<svg id="bfff3f41-8d15-4721-99ff-b4c7acfb4cc8" data-name="Calque 1" xmlns="http://www.w3.org/2000/svg" width="32" height="32" viewBox="0 0 32 32">
  <title>vehicles-35-IconeModeEnfouissement</title>
  <g>
    <path d="M19.14,18a4.57,4.57,0,0,1,2.56.77H24L21.39,12H19.16V8.17H17.84V12H14.56L13.34,7.55h-.11a1.83,1.83,0,0,0-1.76-1.31H5.17V12H3.87a.92.92,0,0,0-.92.92V18H19.14ZM6.39,7.55H12l1.25,4.53L10,12H6.39Z" style="fill: #fac262"/>
    <path d="M19.14,19.34H3.33a3.33,3.33,0,1,0,0,6.66H19.14a3.33,3.33,0,0,0,0-6.66Z" style="fill: #6f6f6f"/>
  </g>
  <path d="M3.33,24.16a1.49,1.49,0,1,1,1.49-1.49A1.49,1.49,0,0,1,3.33,24.16Z" style="fill: #fff"/>
  <rect x="6.14" y="22.01" width="10.2" height="1.31" style="fill: #fff"/>
  <path d="M19.14,24.16a1.49,1.49,0,1,1,1.5-1.49A1.49,1.49,0,0,1,19.14,24.16Z" style="fill: #fff"/>
  <path d="M28.77,19.21s-1.92.45-1.92,3.46S28,26,32,26a6,6,0,0,0-1.73-3.33A6.7,6.7,0,0,1,28.77,19.21Z" style="fill: #6f6f6f"/>
  <line x1="23.28" y1="22.67" x2="27.27" y2="22.67" style="fill: none;stroke: #6f6f6f;stroke-miterlimit: 10;stroke-width: 2px"/>
</svg>
