<svg id="ed1d29f7-aef0-424f-a3bb-b2a15b72524e" data-name="Calque 1" xmlns="http://www.w3.org/2000/svg" width="32" height="32" viewBox="0 0 32 32">
  <title>building-72-IconeEntrepriseAgricole</title>
  <rect x="24.19" y="3" width="6.75" height="10" rx="2.84" style="fill: #945b3f"/>
  <g>
    <path d="M2.15,20h0Z" style="fill: none"/>
    <path d="M24.19,7v5.17l1.53,4.94a3,3,0,0,1-1.53,3.57V27h6.75V7Z" style="fill: #caa989"/>
  </g>
  <polygon points="22.01 27 18.07 27 7 27 3.01 27 3.01 17 3.01 9.83 6.01 7.74 12.51 5.1 19.01 7.74 22.01 11.66 22.01 17 22.01 27" style="fill: #caa989"/>
  <rect x="8.01" y="13.17" width="9" height="3" style="fill: #dfcab5"/>
  <rect x="8.38" y="19.66" width="8.25" height="7.34" style="fill: #dfcab5"/>
  <path d="M22.86,20A2,2,0,0,1,21,18.59l-1.87-6-6.57-5-6.57,5-1.87,6A2,2,0,1,1,.25,17.41l2.06-6.64a2,2,0,0,1,.7-1L11.3,3.51a2,2,0,0,1,2.41,0L22,9.76a2,2,0,0,1,.7,1l2.07,6.64a2,2,0,0,1-1.32,2.5A2.06,2.06,0,0,1,22.86,20Z" style="fill: #935b3f"/>
</svg>
