<svg id="ba531ea4-545c-474f-aea4-71b67c74b644" data-name="Calque 1" xmlns="http://www.w3.org/2000/svg" width="32" height="32" viewBox="0 0 32 32">
  <title>people-61-IconeTiersExternes</title>
  <g>
    <path d="M27.05,23.06l-.4-.3c-2.16,2.17-4.24-.41-5.07-2.39-1.48.37-5,.93-5.41,2.7-.36,1.46,1.59,3.22,2.61,4a9.79,9.79,0,0,0,5.74,2,8.94,8.94,0,0,0,5.69-2.26c-.53-.75-.1-2.06-.85-2.75s-1.84-.61-2.31-1C26.89,23,28.07,23.86,27.05,23.06Z" style="fill: #3f8451"/>
    <path d="M31.88,22.82c-.64-1.42-2.31-2.05-3.74-2.44a7.36,7.36,0,0,1-1.49,2.38,16.21,16.21,0,0,1,3.56,4c.91-.69,2.3-2.6,1.67-4Z" style="fill: #346433"/>
  </g>
  <g>
    <path d="M9.62,23.06l-.39-.3C7.07,24.93,5,22.35,4.15,20.37c-1.48.37-3.62.93-4.06,2.7-.36,1.46,3.3,6,7,6a10.76,10.76,0,0,0,6.36-2.26c-.53-.75-.77-2.06-1.52-2.75s-1.84-.61-2.32-1Z" style="fill: #af1a38"/>
    <path d="M15.8,22.82c-.65-1.42-3.66-2.05-5.09-2.44a7.17,7.17,0,0,1-1.48,2.38,19.32,19.32,0,0,1,4.23,4c.91-.69,3-2.6,2.34-4C15.54,22.26,15.84,22.91,15.8,22.82Z" style="fill: #7e2032"/>
  </g>
  <g>
    <path d="M12.86,15.4l0,.1,0,.15a3.31,3.31,0,0,1-.11.36h0a9.33,9.33,0,0,1-1.54,2.93l.44.12A12.83,12.83,0,0,1,16,20.83a12,12,0,0,1,4.61-1.77L21,19v0a7.61,7.61,0,0,1-.51-.75,29.46,29.46,0,0,0-2.53-2.11c-2,2-3.93,0-4.87-1.94,0,.14,0,.27,0,.41S12.9,15.25,12.86,15.4Z" style="fill: #3f3f3f"/>
    <path d="M20,8.84v0h0Z" style="fill: #dcc4ab"/>
    <path d="M19.58,6.49v0Z" style="fill: #dcc4ab"/>
    <path d="M19.9,7.34l0,.12Z" style="fill: #dcc4ab"/>
    <path d="M19.78,6.89s0,0,0,0S19.78,6.91,19.78,6.89Z" style="fill: #dcc4ab"/>
    <path d="M18.33,16.36Z" style="fill: #1c1c1c"/>
    <path d="M19.83,16.9a10.77,10.77,0,0,1-.45-1.32,5,5,0,0,1-.25-1.25,6.5,6.5,0,0,1-1.19,1.73,29.46,29.46,0,0,1,2.53,2.11A8.38,8.38,0,0,1,19.83,16.9Zm-1.5-.54c1,.8-.15-.12,0,0Z" style="fill: #1c1c1c"/>
  </g>
  <path d="M22.75,18.63h0L26,22.2a5.35,5.35,0,0,0,.71-.91,2.27,2.27,0,0,0,.33-1.17v-1.6s0,0,0-.09C25.91,19.65,24.35,20.19,22.75,18.63Z" style="fill: #cfad88"/>
  <path d="M27.39,12.42a5,5,0,0,0-1.82-.24h-.34a3.62,3.62,0,0,1-1-.19l.24.11a3.33,3.33,0,0,1-1.39-1.21c-.79,0-2.28,2.33-2.21,4.18h0s0,0,0,0a7.74,7.74,0,0,0,1.67,3.26v1.38a2,2,0,0,0,.23,1c.71,1.29,1.93,2.78,3.3,1.45l-3.3-3.56h0c1.6,1.56,3.17,1,4.33-.2a7.69,7.69,0,0,0,1.63-2.85c0-.09,0-.16,0-.23C29.17,12.44,27.41,12.43,27.39,12.42Z" style="fill: #dcc4ab"/>
  <path d="M20.84,15.11v0h0c-.07-1.85,1.43-4.14,2.21-4.19a3.32,3.32,0,0,0,1.4,1.21,2.25,2.25,0,0,0,.76.08h.34a4.83,4.83,0,0,1,1.83.25c.44.18,1.48.78,1.33,2.91a1.77,1.77,0,0,1,0,.23h0a6.61,6.61,0,0,0,.36-1.81A4.3,4.3,0,0,0,24.86,9c-.95,0-.93.28-1.37.46a1.76,1.76,0,0,1-.52,0c-1.64-.2-2.49,2.23-2.34,4.42A8.7,8.7,0,0,0,20.84,15.11Z" style="fill: #7c6e5c"/>
  <path d="M13.89,11.93h0l3.29,3.57a5,5,0,0,0,.72-.91,2.27,2.27,0,0,0,.33-1.17l0-1.6s0,0,0-.09C17.05,13,15.49,13.49,13.89,11.93Z" style="fill: #cfad88"/>
  <path d="M18.53,5.72a5,5,0,0,0-1.82-.24h-.34a3.62,3.62,0,0,1-1-.19l.24.11a3.33,3.33,0,0,1-1.39-1.21c-.79,0-2.28,2.33-2.21,4.18v0s0,0,0,0a7.74,7.74,0,0,0,1.67,3.26v1.38a2,2,0,0,0,.23,1c.71,1.29,1.93,2.78,3.3,1.45L13.9,11.92h0c1.59,1.56,3.16,1,4.32-.2a7.69,7.69,0,0,0,1.63-2.85c0-.09,0-.15,0-.23C20.31,5.74,18.55,5.73,18.53,5.72Z" style="fill: #dcc4ab"/>
  <path d="M12,8.41v0h0c-.07-1.85,1.43-4.14,2.21-4.19A3.32,3.32,0,0,0,15.6,5.4a2.25,2.25,0,0,0,.76.08h.34a4.83,4.83,0,0,1,1.83.25c.44.18,1.48.78,1.33,2.91a1.77,1.77,0,0,1,0,.23h0a6.61,6.61,0,0,0,.36-1.81A4.3,4.3,0,0,0,16,2.25c-.95,0-.93.28-1.37.46a1.48,1.48,0,0,1-.52,0c-1.64-.2-2.49,2.23-2.34,4.43A10.68,10.68,0,0,0,12,8.41Z" style="fill: #7c6e5c"/>
  <path d="M5.27,18.63h0l3.3,3.57a5.35,5.35,0,0,0,.71-.91,2.27,2.27,0,0,0,.33-1.17V18.43C8.44,19.65,6.87,20.19,5.27,18.63Z" style="fill: #cfad88"/>
  <path d="M9.92,12.42a5,5,0,0,0-1.83-.24H7.75a3.7,3.7,0,0,1-1-.19L7,12.1a3.33,3.33,0,0,1-1.39-1.21c-.78,0-2.28,2.33-2.21,4.18h0v0A7.61,7.61,0,0,0,5,18.38v1.38a1.89,1.89,0,0,0,.24,1C6,22,7.2,23.51,8.57,22.18L5.28,18.62h0c1.6,1.56,3.16,1,4.32-.2a7.58,7.58,0,0,0,1.64-2.85,1.62,1.62,0,0,1,0-.23C11.69,12.44,9.93,12.43,9.92,12.42Z" style="fill: #dcc4ab"/>
  <path d="M3.36,15.11v0h0c-.07-1.85,1.43-4.14,2.21-4.19A3.4,3.4,0,0,0,7,12.1a2.29,2.29,0,0,0,.77.08h.34a4.85,4.85,0,0,1,1.83.25c.43.18,1.47.78,1.33,2.91,0,.08,0,.15,0,.23h0a6.88,6.88,0,0,0,.35-1.81A4.3,4.3,0,0,0,7.38,9c-1,0-.92.28-1.37.46a1.67,1.67,0,0,1-.51,0c-1.65-.2-2.5,2.23-2.34,4.42A9.72,9.72,0,0,0,3.36,15.11Z" style="fill: #7c6e5c"/>
</svg>
