<svg id="bc3be8a4-d957-48bb-9757-3b715af7f087" data-name="Calque 1" xmlns="http://www.w3.org/2000/svg" width="32" height="32" viewBox="0 0 32 32">
  <title>equipment-71-IconeUnite</title>
  <path d="M0,24v6H32V24Zm3,3H2V25H3Zm3,0H5V25H6Zm3,0H8V25H9Zm3,0H11V25h1Zm3,0H14V25h1Zm3,0H17V25h1Zm3,0H20V25h1Zm3,0H23V25h1Zm3,0H26V25h1Zm3,0H29V25h1Z" style="fill: #98999b"/>
  <path d="M24,21.72c-3.75,0-5.63-.94-5.63-1.75V11.48c0-.51.72-1.15,1.58-1.15s2.09-.64,2.09-1.28V6.87c0-.55-.6-.59-1.07-.59S19.79,6,19.79,5.6V5.09c0-.47.33-.72,1.53-.91A12.44,12.44,0,0,1,24,4a12.44,12.44,0,0,1,2.69.16c1.2.19,1.53.44,1.53.91V5.6c0,.43-.72.68-1.19.68S26,6.32,26,6.87V9.05c0,.64,1.24,1.28,2.09,1.28s1.58.64,1.58,1.15V20C29.64,20.78,27.76,21.72,24,21.72Z" style="fill: #c48257"/>
  <path d="M13,21.53c-2.4,0-3.6-.6-3.6-1.12V15c0-.33.46-.74,1-.74s1.33-.41,1.33-.82V12c0-.36-.38-.38-.68-.38s-.76-.16-.76-.44v-.32c0-.31.21-.46,1-.59A8.68,8.68,0,0,1,13,10.2a8.68,8.68,0,0,1,1.72.1c.77.13,1,.28,1,.59v.32c0,.28-.46.44-.76.44s-.68,0-.68.38v1.39c0,.41.79.82,1.33.82s1,.41,1,.74v5.43C16.61,20.93,15.41,21.53,13,21.53Z" style="fill: #c48257"/>
  <path d="M5,21.49c-1.54,0-2.31-.38-2.31-.72V17.3c0-.21.3-.48.65-.48s.86-.26.86-.52v-.89c0-.23-.25-.25-.44-.25s-.49-.1-.49-.27v-.21c0-.2.14-.29.63-.38A5,5,0,0,1,5,14.24a5,5,0,0,1,1.1.06c.49.09.63.18.63.38v.21c0,.17-.3.27-.49.27s-.44,0-.44.25v.89c0,.26.51.52.86.52s.65.27.65.48v3.47C7.32,21.11,6.55,21.49,5,21.49Z" style="fill: #c48257"/>
</svg>
