<svg id="a557de26-8ccc-4dce-90de-5381bd899355" data-name="Calque 1" xmlns="http://www.w3.org/2000/svg" width="32" height="32" viewBox="0 0 32 32">
  <title>vegetal-83-2208FDF0.Breed</title>
  <path d="M20.39,18.61l4.25-5.86c-.4-5.47-2.24-9.62-4.46-9.62s-4.08,4.18-4.46,9.69C18,13,19.51,15.92,20.39,18.61Z" style="fill: #fdc800"/>
  <path d="M26.15,15.34c.17-1.55.19-2.63.19-2.63l-6.65,8.73S17.59,11.23,14,14.65,11,23.38,11,23.38s3.72-7.29,3.72-3A5.83,5.83,0,0,0,18.24,26v2.1h2.91V26C23.72,25.39,25.65,22.28,26.15,15.34Z" style="fill: #6da200"/>
  <rect x="3.99" y="26" width="3.91" height="2" transform="translate(11.89 54) rotate(-180)" style="fill: #8f8f8f"/>
  <rect x="3.99" y="6" width="3.91" height="2" transform="translate(11.89 14) rotate(-180)" style="fill: #8f8f8f"/>
  <rect x="5.99" y="22" width="1.91" height="2" transform="translate(13.89 46) rotate(-180)" style="fill: #8f8f8f"/>
  <rect x="5.99" y="18" width="1.91" height="2" transform="translate(13.89 38) rotate(-180)" style="fill: #8f8f8f"/>
  <rect x="5.99" y="14" width="1.91" height="2" transform="translate(13.89 30) rotate(-180)" style="fill: #8f8f8f"/>
  <rect x="5.99" y="10" width="1.91" height="2" transform="translate(13.89 22) rotate(-180)" style="fill: #8f8f8f"/>
</svg>
