<svg id="e397bf6c-a011-4ce0-9fab-5e48ab7fa69e" data-name="Calque 1" xmlns="http://www.w3.org/2000/svg" width="32" height="32" viewBox="0 0 32 32">
  <title>products-44-IconePotasium</title>
  <path d="M12.57,8.62v5.9l6.69-7a6.09,6.09,0,0,1,.82-.74,1.54,1.54,0,0,1,.9-.24A1.64,1.64,0,0,1,22.17,7a1.38,1.38,0,0,1,.45,1,2.08,2.08,0,0,1-.77,1.48l-4.14,3.92,4.77,6.84a8,8,0,0,1,.76,1.25,2.36,2.36,0,0,1,.25,1,1.28,1.28,0,0,1-.44,1,1.65,1.65,0,0,1-1.2.41,2.06,2.06,0,0,1-1.16-.3,2.55,2.55,0,0,1-.75-.81c-.21-.34-.39-.64-.55-.92l-4-6.2L12.57,18.4v3.48a2.21,2.21,0,0,1-.48,1.56,1.64,1.64,0,0,1-1.24.51,1.71,1.71,0,0,1-1.46-.85,1.88,1.88,0,0,1-.19-.74c0-.28,0-.69,0-1.23V8.62a2.31,2.31,0,0,1,.45-1.55,1.59,1.59,0,0,1,1.24-.51,1.61,1.61,0,0,1,1.24.51A2.2,2.2,0,0,1,12.57,8.62Z" style="fill: #005da8"/>
</svg>
