<svg id="e567ecbd-eb95-447a-a64c-8eeff123eabc" data-name="Calque 1" xmlns="http://www.w3.org/2000/svg" width="32" height="32" viewBox="0 0 32 32">
  <title>field-82-IconePlanEau</title>
  <g>
    <polygon points="1.25 17.93 12.96 0.79 30.84 7.86 15.47 30.75 1.25 17.93" style="fill: #8ebee3"/>
    <path d="M13.15,1.39l17,6.7L15.38,30,1.9,17.85,13.15,1.39M12.78.19l-.44.65L1.09,17.3.61,18l.63.58L14.72,30.73l.84.76.63-.94L30.91,8.64l.68-1-1.13-.45-17-6.7L12.78.19Z" style="fill: #037faf"/>
  </g>
  <g>
    <path d="M16.32,5.49a4.35,4.35,0,0,0,5.63,0,4.74,4.74,0,0,0,2.85,1,4.09,4.09,0,0,0,1-.14l-4.4-1.74a3.44,3.44,0,0,1-4.74-.15l-.32-.33L16,4.48a3.45,3.45,0,0,1-4.95,0l0,0L10,5.93a5.9,5.9,0,0,0,.67-.44A4.34,4.34,0,0,0,16.32,5.49Z" style="fill: #0499d1"/>
    <path d="M13.38,9.41a4.35,4.35,0,0,0,5.63,0,4.74,4.74,0,0,0,2.85,1,4.41,4.41,0,0,0,2.77-1,4.44,4.44,0,0,0,4,.87l1.2-1.78A3.44,3.44,0,0,1,25,8.42l-.33-.33-.35.31a3.45,3.45,0,0,1-4.95,0L19,8.09l-.35.31a3.46,3.46,0,0,1-4.95,0l-.32-.33-.35.31a3.43,3.43,0,0,1-4.82.15l-.68,1,.2-.14A4.34,4.34,0,0,0,13.38,9.41Z" style="fill: #0499d1"/>
    <path d="M10.7,13.33a4.34,4.34,0,0,0,5.62,0,4.35,4.35,0,0,0,5.63,0,4.74,4.74,0,0,0,2.85,1,4,4,0,0,0,1.2-.19l1.24-1.85a3.45,3.45,0,0,1-4.94,0L22,12l-.35.31a3.46,3.46,0,0,1-4.95,0L16.35,12l-.35.31a3.45,3.45,0,0,1-4.95,0L10.72,12l-.35.31a3.42,3.42,0,0,1-4.81.15l-.67,1,.18-.12A4.35,4.35,0,0,0,10.7,13.33Z" style="fill: #0499d1"/>
    <path d="M7.76,17.25a4.34,4.34,0,0,0,5.62,0,4.35,4.35,0,0,0,5.63,0,4.74,4.74,0,0,0,2.85,1,4,4,0,0,0,1.62-.36L24.75,16l-.09-.1-.35.31a3.45,3.45,0,0,1-4.95,0L19,15.93l-.35.31a3.46,3.46,0,0,1-4.95,0l-.32-.33-.35.31a3.45,3.45,0,0,1-5,0l-.33-.33-.35.31a3.4,3.4,0,0,1-4.64.29l-.55.8A4.33,4.33,0,0,0,7.76,17.25Z" style="fill: #0499d1"/>
    <path d="M10.7,21.17a4.34,4.34,0,0,0,5.62,0,4.37,4.37,0,0,0,4.54.66L22.1,20,22,19.85l-.35.31a3.46,3.46,0,0,1-4.95,0l-.32-.33-.35.31a3.45,3.45,0,0,1-4.95,0l-.33-.33-.35.31a3.46,3.46,0,0,1-4.95,0l-.33-.33-.34.31-.15.12,1.84,1.65A4.18,4.18,0,0,0,10.7,21.17Z" style="fill: #0499d1"/>
    <path d="M18.39,25.51l.95-1.42L19,23.77l-.35.31a3.46,3.46,0,0,1-4.95,0l-.32-.33-.35.31a3.5,3.5,0,0,1-3.14,1l1.14,1a4.52,4.52,0,0,0,2.32-1A4.35,4.35,0,0,0,18.39,25.51Z" style="fill: #0499d1"/>
  </g>
</svg>
