<svg id="ac1c9bb2-1bc7-4275-9da9-00e0a34ce975" data-name="Calque 1" xmlns="http://www.w3.org/2000/svg" width="32" height="32" viewBox="0 0 32 32">
  <title>vehicles-26-IconeSaisieIntervention</title>
  <g>
    <path d="M6.8,13.73a6.78,6.78,0,1,0,6.78,6.78A6.78,6.78,0,0,0,6.8,13.73Zm0,11.12a4.34,4.34,0,1,1,4.34-4.34A4.35,4.35,0,0,1,6.8,24.85Z" style="fill: #6f7071"/>
    <path d="M29,17.24A5.29,5.29,0,0,0,21.51,21a5.89,5.89,0,0,0-.1,1A5.3,5.3,0,1,0,29,17.24Zm-2.32,8.14A3.39,3.39,0,1,1,30.09,22,3.39,3.39,0,0,1,26.71,25.38Z" style="fill: #6f7071"/>
    <path d="M28.13,13.73c-.84-1.1-10.66-1.56-10.66-1.56l-1-6.2A18.19,18.19,0,0,0,11,5.07a22.24,22.24,0,0,0-4.89.32l-.48.84,1.16.71-.68,5a7.76,7.76,0,0,0-4.68,2.13l.4.71a7.55,7.55,0,0,1,12.52,5.69,7.37,7.37,0,0,1-.4,2.4l.54.25h6.19a12.23,12.23,0,0,1,0-2.2,6,6,0,0,1,8.2-4.61A6.38,6.38,0,0,0,28.13,13.73ZM11.57,11.26l-2.93-.84.6-3.26H14.5l.66,4.1Z" style="fill: #e1001a"/>
  </g>
</svg>
