<svg id="e0864df1-7706-4091-af2c-b97746a8fed8" data-name="Calque 1" xmlns="http://www.w3.org/2000/svg" width="32" height="32" viewBox="0 0 32 32">
  <title>field-90-IconeFondDeCarte</title>
  <polygon points="15.17 30.57 30.19 8.21 12.89 1.38 1.42 18.17 15.17 30.57" style="fill: #a9cd82;stroke: #516d53;stroke-miterlimit: 10"/>
  <circle cx="13.9" cy="21.45" r="2.56" style="fill: #fff"/>
  <circle cx="15.45" cy="8.07" r="3.48" style="fill: #5bab26"/>
  <path d="M24.69,6.63s-2.16,5.53-4.92,6.7-8.27-.62-11.4,1.28a25.26,25.26,0,0,0-5.24,4.28" style="fill: none;stroke: #b71236;stroke-miterlimit: 10"/>
  <path d="M27.13,7.63s-2.6,6.53-5.36,7.7-8.27-.62-11.4,1.28a25.26,25.26,0,0,0-5.24,4.28" style="fill: none;stroke: #1086c4;stroke-miterlimit: 10;stroke-width: 0.5px"/>
  <path d="M28.52,8.07s-3.22,6-5.21,8.24a27.31,27.31,0,0,0-5.06,7c-1,2-1.77,2.72-3.51,3.28s-.84-.32-2.27,1" style="fill: none;stroke: #1086c4;stroke-miterlimit: 10;stroke-width: 0.5px"/>
</svg>
