<svg id="bb5847fb-0571-4a1c-a106-9ecfcc50071b" data-name="Calque 1" xmlns="http://www.w3.org/2000/svg" width="32" height="32" viewBox="0 0 32 32">
  <title>map-44-IconeZoomSheetActive</title>
  <g>
    <path d="M17,27.08l-.14.07a1.93,1.93,0,0,1-1.79,0L4.91,22.09,1.14,24l14.79,7.4,4.23-2.12a8.53,8.53,0,0,1-2-1.08A8.11,8.11,0,0,1,17,27.08Z" style="fill: #999"/>
    <polygon points="30.71 7.89 15.93 0.5 1.14 7.89 15.93 15.28 30.71 7.89" style="fill: #4d4d4d"/>
    <path d="M14.92,21.82a7.82,7.82,0,0,1,1.52-4.61,2.24,2.24,0,0,1-.51.07,2,2,0,0,1-.9-.21L8.91,14,1.14,17.89l14.54,7.27A8,8,0,0,1,15,22.82,8.26,8.26,0,0,1,14.92,21.82Z" style="fill: #999"/>
    <path d="M30.71,17.89l-1.51-.75a8.46,8.46,0,0,1,.71,1.15Z" style="fill: #ccc"/>
  </g>
  <g>
    <path d="M31.38,27.91l-3.32-3.33A5.92,5.92,0,1,0,25.6,27l3.32,3.33a1.74,1.74,0,0,0,2.46-2.46Z" style="fill: #007bbd"/>
    <circle cx="22.83" cy="21.82" r="4.43" transform="translate(-8.74 22.54) rotate(-45)" style="fill: #fff"/>
  </g>
</svg>
