<svg id="ea36a79c-3bab-4d35-83bc-ea5fb7d1a9e5" data-name="Calque 1" xmlns="http://www.w3.org/2000/svg" width="32" height="32" viewBox="0 0 32 32">
  <title>products-42-IconeAzote</title>
  <path d="M13.35,8.6l6.55,9.91v-10A2.22,2.22,0,0,1,20.32,7a1.43,1.43,0,0,1,1.13-.48A1.47,1.47,0,0,1,22.61,7,2.22,2.22,0,0,1,23,8.51V21.74C23,23.21,22.42,24,21.2,24a2.41,2.41,0,0,1-.83-.13,2.29,2.29,0,0,1-.69-.42,3.87,3.87,0,0,1-.59-.67c-.19-.26-.37-.52-.55-.79l-6.4-9.8V22a2.11,2.11,0,0,1-.44,1.46,1.48,1.48,0,0,1-1.15.49,1.44,1.44,0,0,1-1.16-.5A2.13,2.13,0,0,1,9,22V9a3.66,3.66,0,0,1,.19-1.29,1.79,1.79,0,0,1,.72-.85A2,2,0,0,1,11,6.56a1.89,1.89,0,0,1,.79.15,1.64,1.64,0,0,1,.57.4,4.21,4.21,0,0,1,.51.65Z" style="fill: #005da8"/>
</svg>
