<svg id="bcf4627a-79b2-4f5c-8df4-f6ed2647a4f1" data-name="Calque 1" xmlns="http://www.w3.org/2000/svg" width="32" height="32" viewBox="0 0 32 32">
  <title>logos-22-IconeSynchroKarnott</title>
  <path d="M4.7,15.77a2.33,2.33,0,1,1,0-4.65,3,3,0,0,1,.52.06A6.75,6.75,0,0,1,6,8.93,4.52,4.52,0,0,0,4.7,8.74,4.37,4.37,0,0,0,0,13.13c0,3.79,4.71,9.42,4.71,9.42a35.91,35.91,0,0,0,2.58-3.7,22.57,22.57,0,0,1-1.51-3.34,2.41,2.41,0,0,1-1.07.26" style="fill: #f17000"/>
  <path d="M12.2,5.57a6.76,6.76,0,0,1,2.89.64L16.5,2.72A.84.84,0,0,0,16,1.63l-1-.42a.83.83,0,0,0-1.09.46l-.49,1.2v-1A.84.84,0,0,0,12.57,1H11.45a.85.85,0,0,0-.84.84v1l-.48-1.2A.84.84,0,0,0,9,1.21L8,1.63a.83.83,0,0,0-.46,1.09L9,6.23a7.75,7.75,0,0,1,3.25-.66" style="fill: #5bab26"/>
  <path d="M12.2,15.63a3,3,0,1,1,3-3,3,3,0,0,1-3,3m0-9.1c-4.28,0-6.1,3.08-6.1,5.68,0,4.9,6.1,12.18,6.1,12.18S18.29,17,18.29,12.21A6.12,6.12,0,0,0,12.2,6.53Z" style="fill: #f17000"/>
  <path d="M25.27,30.35A6.73,6.73,0,1,1,32,23.63,6.74,6.74,0,0,1,25.27,30.35Z" style="fill: #5bab26"/>
  <path d="M24.09,15a6.79,6.79,0,0,0,.32-1.86A4.73,4.73,0,0,0,19.7,8.74a5.73,5.73,0,0,0-1.49.19,6.25,6.25,0,0,1,.94,2.26,2.51,2.51,0,0,1,.55-.07,2.33,2.33,0,0,1,0,4.65,2.39,2.39,0,0,1-1.1-.27,22.57,22.57,0,0,1-1.51,3.34c.15.25.3.5.46.74A8.71,8.71,0,0,1,24.09,15Z" style="fill: #f17000"/>
  <path d="M24.85,22h-2.2a3.08,3.08,0,0,1,2.87-1.45,3,3,0,0,1,2.06,1.07.51.51,0,0,0,.71.05.52.52,0,0,0,.05-.72A4,4,0,0,0,22,21.2V19.5h-.82v3.3h3.71Zm.83,2.48v.83h2.17a2.78,2.78,0,0,1-.61.72,3,3,0,0,1-2.24.73,3.06,3.06,0,0,1-2.06-1.05.5.5,0,1,0-.75.67,4,4,0,0,0,2.72,1.39l.35,0a4,4,0,0,0,2.63-1,4,4,0,0,0,.68-.74v1.72h.83V24.45Z" style="fill: #fff;fill-rule: evenodd"/>
</svg>
