<svg id="ac1514ed-1a52-4cfd-916e-2e867e975a3e" data-name="Calque 1" xmlns="http://www.w3.org/2000/svg" width="32" height="32" viewBox="0 0 32 32">
  <title>field-50-IconeMarre</title>
  <g>
    <path d="M15.85,28.12A12.12,12.12,0,1,1,28,16,12.13,12.13,0,0,1,15.85,28.12Z" style="fill: #8ebee3"/>
    <path d="M15.85,4.37A11.63,11.63,0,1,1,4.21,16,11.63,11.63,0,0,1,15.85,4.37m0-1A12.61,12.61,0,1,0,28.46,16,12.62,12.62,0,0,0,15.85,3.39Z" style="fill: #037faf"/>
  </g>
  <g>
    <path d="M5.42,20.61a3.46,3.46,0,0,0,4.95,0l.35-.31.33.33a3.45,3.45,0,0,0,4.79.1h0l.15-.11.34-.31h0l.12.13h0l.2.2a3.71,3.71,0,0,0,2.66,1,3.78,3.78,0,0,0,2.28-1.06l.35-.31h0l.13.13h0l.19.2a3.45,3.45,0,0,0,3.9.69,11.67,11.67,0,0,0,1-2.61,4.83,4.83,0,0,1-2.53-1,4.43,4.43,0,0,1-2.74,1h-.1l-.34,0h-.1l-.41-.08h0l-.34-.09-.12,0-.24-.1-.12-.05-.22-.1-.09,0L19.51,18l-.12-.08-.12-.07-.12-.09,0,0h0L19,17.67a4.33,4.33,0,0,1-5.63,0,4.31,4.31,0,0,1-5.62,0,4.3,4.3,0,0,1-3.22,1,11.41,11.41,0,0,0,.51,1.63l0,0Z" style="fill: none"/>
    <path d="M7.78,8.52l.33.33L8.24,9h0l0,0,.09.07.05,0,.11.08.07,0a.71.71,0,0,0,.14.1l.07,0,.17.1.08,0,.2.09.08,0,.25.09h.06a3,3,0,0,0,.7.14h.49l.29,0,.14,0,.28-.08.15-.05.3-.13a.61.61,0,0,1,.14-.07l.33-.2.12-.08a5.06,5.06,0,0,0,.47-.37l.35-.31.32.33a3.69,3.69,0,0,0,2.66,1,3.83,3.83,0,0,0,2.29-1.06L19,8.52h0l.33.33a3.13,3.13,0,0,0,.26.23,3.4,3.4,0,0,0,4.57-.16h0l.12-.1.35-.31.33.33.08.08A11.53,11.53,0,0,0,21.8,6a5,5,0,0,1-1.5.77h0a3.92,3.92,0,0,1-1,.16H19a5,5,0,0,1-.56-.06h0a4.07,4.07,0,0,1-.5-.13h0a4.7,4.7,0,0,1-.45-.17l-.06,0L17,6.35h0l-.33-.2-.06,0-.25-.19a4.66,4.66,0,0,1-.65.44l-.15.09-.13.07-.49.21-.09,0a5.54,5.54,0,0,1-.55.14l-.11,0a4.45,4.45,0,0,1-.5,0h-.51l-.15,0-.29,0-.12,0-.33-.09-.05,0-.37-.14-.05,0-.27-.12-.09-.05-.21-.12-.07,0-.2-.12,0,0-.2-.14a4.81,4.81,0,0,1-2.07,1A11.6,11.6,0,0,0,6.09,9.67a4.27,4.27,0,0,0,1.34-.84Z" style="fill: none"/>
    <path d="M5.09,12.44l.33.33.14.13h0l.2.16.08.06.09.06.11.07.1.06.14.08.11.06.16.07.12.05.19.07.11,0,.3.07h0l.36.05h.52l.26,0,.15,0,.27-.08L9,13.6l.28-.13.16-.08a2.59,2.59,0,0,0,.31-.19l.14-.09a3.61,3.61,0,0,0,.46-.36l.35-.31h0l.33.33a.85.85,0,0,0,.13.12A3.43,3.43,0,0,0,16,12.75l.35-.31.32.33a2.49,2.49,0,0,0,.27.23l0,0,.14.11,0,0,.16.1.06,0,.19.1.06,0,.22.11.06,0,.28.1h0a3.28,3.28,0,0,0,1.11.14h.07l.33,0,.1,0,.32-.09.12,0,.33-.15.11-.06a3.6,3.6,0,0,0,.37-.22l.09,0a5.13,5.13,0,0,0,.46-.38h0l.35-.31.33.33.09.09a3.42,3.42,0,0,0,4.66.05,11.65,11.65,0,0,0-.88-2.26,5.28,5.28,0,0,1-1.54-.81A4.91,4.91,0,0,1,23,10.7h0l-.2,0-.4.09-.26,0-.27,0h-.25a3.11,3.11,0,0,1-.44-.06l-.12,0-.46-.11,0,0-.46-.17a.31.31,0,0,0-.1-.05l-.29-.15-.13-.07-.21-.13L19.25,10l-.19-.13s0,0,0,0a7.66,7.66,0,0,1-.67.44l-.13.08a4.88,4.88,0,0,1-.63.28l-.08,0a4.12,4.12,0,0,1-.55.15l-.12,0a3.66,3.66,0,0,1-.57.05h-.44l-.14,0-.29-.05-.13,0L15,10.67l-.07,0-.35-.14-.1,0-.23-.11-.11-.06-.18-.1-.1-.07L13.66,10,13.57,10l-.14-.11,0,0a4.49,4.49,0,0,1-2.67,1,4.75,4.75,0,0,1-3-1l-.2.13h0a4.51,4.51,0,0,1-2.13.87,11.15,11.15,0,0,0-.76,2l.08-.06Z" style="fill: none"/>
    <path d="M7.43,16.67l.35-.31.33.33a3.45,3.45,0,0,0,5,0l.35-.31.32.33a3.47,3.47,0,0,0,4.95,0l.35-.31.33.33a3.21,3.21,0,0,0,.34.29l.16.11.14.09.08.05.16.09.08,0,.2.09.07,0a3.58,3.58,0,0,0,.63.2h.06l.29,0H22a3.19,3.19,0,0,0,.82-.18l.1,0,.32-.15.13-.07a2.07,2.07,0,0,0,.32-.19l.13-.09a4.58,4.58,0,0,0,.45-.35l.35-.31.09.1.24.23a3.75,3.75,0,0,0,2.35,1A12.36,12.36,0,0,0,27.48,16,11.49,11.49,0,0,0,27.29,14a4.44,4.44,0,0,1-2.46.85h-.44l-.15,0-.28,0-.13,0-.32-.09-.06,0a3,3,0,0,1-.36-.14l-.08,0a1.33,1.33,0,0,1-.24-.11l-.11-.06-.18-.1-.1-.06L22.22,14l-.08,0L22,13.79l0,0a4.49,4.49,0,0,1-2.67,1h-.52l-.14,0-.29,0-.13,0-.32-.09-.06,0-.36-.14-.07,0-.25-.12-.1-.06a1.18,1.18,0,0,1-.19-.11l-.1,0L16.59,14l-.08,0-.14-.11-.05,0h0a4.51,4.51,0,0,1-2.66,1,4.75,4.75,0,0,1-3-1A4.49,4.49,0,0,1,8,14.8a4.75,4.75,0,0,1-2.95-1h0a5.41,5.41,0,0,1-.69.45A11.55,11.55,0,0,0,4.21,16a11.66,11.66,0,0,0,.14,1.68A3.5,3.5,0,0,0,7.43,16.67Z" style="fill: none"/>
    <path d="M18.4,25.92h0l-.46.24h0l-.15.06a3.92,3.92,0,0,1-1,.29h-.07a4.87,4.87,0,0,1-.54,0h0a3.79,3.79,0,0,1-1-.15h0a5.06,5.06,0,0,1-.81-.32l0,0a3.78,3.78,0,0,1-.61-.35l-.05,0-.22-.15h0q-.24.18-.48.33a4.48,4.48,0,0,1-1.84.68h-.13a11.54,11.54,0,0,0,10-.09A5.08,5.08,0,0,1,19,25.52,6.34,6.34,0,0,1,18.4,25.92Z" style="fill: none"/>
    <path d="M21.93,21.59a5,5,0,0,1-1.07.66h0l-.05,0a5.4,5.4,0,0,1-.71.24h0a4,4,0,0,1-.66.09h-.1a3.79,3.79,0,0,1-.59,0h0a4.27,4.27,0,0,1-1-.25l0,0a5.09,5.09,0,0,1-1.33-.75,4.2,4.2,0,0,1-4.89.48l0,0a4,4,0,0,1-.37-.22l0,0a2.27,2.27,0,0,1-.28-.21c-.19.15-.38.27-.56.39l-.16.09-.39.2-.17.07L9,22.49l-.09,0a3.52,3.52,0,0,1-.51.1h-.1l-.4,0H7.78a2.73,2.73,0,0,1-.41,0h0A4.45,4.45,0,0,1,6,22.17a11.46,11.46,0,0,0,1.68,2.11l.1-.08.33.33a3.9,3.9,0,0,0,1.82,1l.24,0,.12,0h.59l.2,0,.14,0h.06l.24-.07.06,0,.12,0,.27-.12.17-.08.32-.2,0,0,.1-.06c.15-.11.31-.23.47-.37l.35-.31.32.33,0,0h0l.1.09h0l.15.12h0l.2.14h0l.23.14,0,0,.27.14h0a2.38,2.38,0,0,0,.32.12h0a2.24,2.24,0,0,0,.37.1l.24,0,.12,0h.39l.2,0h.21l.19,0,.23-.07h0l.18-.06.28-.12.16-.08.32-.2.14-.08a5,5,0,0,0,.46-.37L19,24.2l.33.33a3.9,3.9,0,0,0,1.82,1l.24,0,.12,0h.39l.2,0,.21,0,.19,0,0,0a11.72,11.72,0,0,0,2.86-2.89A4.58,4.58,0,0,1,21.93,21.59Z" style="fill: none"/>
    <path d="M11.52,5.31l.17.11.05,0,.19.1.06,0,.22.1.07,0,.26.1h0a3.19,3.19,0,0,0,.71.14h.49l.29,0,.14,0,.28-.08.15,0,.29-.13.15-.07.32-.2.14-.09A4.49,4.49,0,0,0,16,4.91l.35-.31.32.33a3.13,3.13,0,0,0,.26.23l.12.09.05,0a3.48,3.48,0,0,0,2.51.65h0L20,5.84h0a2.87,2.87,0,0,0,.37-.15l.08,0a2.19,2.19,0,0,0,.3-.16,11.6,11.6,0,0,0-9.38-.25l.06,0Z" style="fill: none"/>
    <path d="M7.56,10l.2-.13a4.75,4.75,0,0,0,3,1,4.49,4.49,0,0,0,2.67-1l0,0,.14.11.09.06.15.09.1.07.18.1.11.06.23.11.1,0,.35.14.07,0,.31.09.13,0,.29.05.14,0h.44a3.66,3.66,0,0,0,.57-.05l.12,0a4.12,4.12,0,0,0,.55-.15l.08,0a4.88,4.88,0,0,0,.63-.28l.13-.08A7.66,7.66,0,0,0,19,9.84s0,0,0,0l.19.13.11.08.21.13.13.07.29.15a.31.31,0,0,1,.1.05l.46.17,0,0,.46.11.12,0a3.11,3.11,0,0,0,.44.06h.25l.27,0,.26,0,.4-.09.2,0h0a4.91,4.91,0,0,0,1.64-.86,5.28,5.28,0,0,0,1.54.81,10.68,10.68,0,0,0-1.1-1.72L25,8.85l-.33-.33-.35.31-.12.1h0a3.4,3.4,0,0,1-4.57.16,3.13,3.13,0,0,1-.26-.23L19,8.52h0l-.35.31a3.83,3.83,0,0,1-2.29,1.06,3.69,3.69,0,0,1-2.66-1l-.32-.33-.35.31a5.06,5.06,0,0,1-.47.37l-.12.08-.33.2a.61.61,0,0,0-.14.07l-.3.13-.15.05-.28.08-.14,0-.29,0h-.49a3,3,0,0,1-.7-.14H9.59l-.25-.09-.08,0-.2-.09L9,9.48l-.17-.1-.07,0a.71.71,0,0,1-.14-.1l-.07,0-.11-.08-.05,0L8.28,9l0,0h0l-.13-.13-.33-.33-.35.31a4.27,4.27,0,0,1-1.34.84q-.36.57-.66,1.17A4.51,4.51,0,0,0,7.56,10Z" style="fill: #0499d1"/>
    <path d="M10.9,6.06l0,0,.2.12.07,0,.21.12.09.05.27.12.05,0,.37.14.05,0,.33.09.12,0,.29,0,.15,0h.51a4.45,4.45,0,0,0,.5,0l.11,0a5.54,5.54,0,0,0,.55-.14l.09,0,.49-.21.13-.07.15-.09a4.66,4.66,0,0,0,.65-.44l.25.19.06,0,.33.2h0l.38.19.06,0a4.7,4.7,0,0,0,.45.17h0a4.07,4.07,0,0,0,.5.13h0A5,5,0,0,0,19,7h.3a3.92,3.92,0,0,0,1-.16h0A5,5,0,0,0,21.8,6a10.53,10.53,0,0,0-1-.53,2.19,2.19,0,0,1-.3.16l-.08,0a2.87,2.87,0,0,1-.37.15h0l-.39.09h0a3.48,3.48,0,0,1-2.51-.65l-.05,0-.12-.09a3.13,3.13,0,0,1-.26-.23l-.32-.33L16,4.91a4.49,4.49,0,0,1-.46.36l-.14.09-.32.2-.15.07-.29.13-.15,0-.28.08-.14,0-.29,0h-.49a3.19,3.19,0,0,1-.71-.14h0l-.26-.1-.07,0L12,5.6l-.06,0-.19-.1-.05,0-.17-.11,0,0-.06,0A11.66,11.66,0,0,0,8.63,6.89a4.81,4.81,0,0,0,2.07-1Z" style="fill: #0499d1"/>
    <path d="M5.07,13.76A4.75,4.75,0,0,0,8,14.8a4.49,4.49,0,0,0,2.68-1,4.75,4.75,0,0,0,3,1,4.51,4.51,0,0,0,2.66-1h0l.05,0,.14.11.08,0,.16.11.1,0a1.18,1.18,0,0,0,.19.11l.1.06.25.12.07,0,.36.14.06,0,.32.09.13,0,.29,0,.14,0h.52a4.49,4.49,0,0,0,2.67-1l0,0,.15.11.08,0,.16.11.1.06.18.1.11.06a1.33,1.33,0,0,0,.24.11l.08,0a3,3,0,0,0,.36.14l.06,0,.32.09.13,0,.28,0,.15,0h.44A4.44,4.44,0,0,0,27.29,14a8.74,8.74,0,0,0-.24-1,3.42,3.42,0,0,1-4.66-.05l-.09-.09L22,12.44l-.35.31h0a5.13,5.13,0,0,1-.46.38l-.09,0a3.6,3.6,0,0,1-.37.22l-.11.06-.33.15-.12,0-.32.09-.1,0-.33,0h-.07a3.28,3.28,0,0,1-1.11-.14h0l-.28-.1-.06,0-.22-.11-.06,0-.19-.1-.06,0-.16-.1,0,0L17,13l0,0a2.49,2.49,0,0,1-.27-.23l-.32-.33-.35.31a3.43,3.43,0,0,1-4.82.14.85.85,0,0,1-.13-.12l-.33-.33h0l-.35.31a3.61,3.61,0,0,1-.46.36l-.14.09a2.59,2.59,0,0,1-.31.19l-.16.08L9,13.6l-.16.05-.27.08-.15,0-.26,0H7.66l-.36-.05h0L7,13.68l-.11,0-.19-.07-.12-.05-.16-.07-.11-.06-.14-.08L6,13.25l-.11-.07-.09-.06-.08-.06-.2-.16h0l-.14-.13-.33-.33-.34.31-.08.06a13.09,13.09,0,0,0-.31,1.41,5.41,5.41,0,0,0,.69-.45Z" style="fill: #0499d1"/>
    <path d="M7.76,17.67a4.31,4.31,0,0,0,5.62,0,4.33,4.33,0,0,0,5.63,0l.11.09h0l0,0,.12.09.12.07.12.08.26.15.09,0,.22.1.12.05.24.1.12,0,.34.09h0l.41.08h.1l.34,0h.1a4.43,4.43,0,0,0,2.74-1,4.83,4.83,0,0,0,2.53,1q.11-.48.18-1a3.75,3.75,0,0,1-2.35-1l-.24-.23-.09-.1-.35.31a4.58,4.58,0,0,1-.45.35l-.13.09a2.07,2.07,0,0,1-.32.19l-.13.07-.32.15-.1,0a3.19,3.19,0,0,1-.82.18h-.47l-.29,0h-.06a3.58,3.58,0,0,1-.63-.2l-.07,0-.2-.09-.08,0-.16-.09L20,17.18l-.14-.09L19.7,17a3.21,3.21,0,0,1-.34-.29L19,16.36l-.35.31a3.47,3.47,0,0,1-4.95,0l-.32-.33-.35.31a3.45,3.45,0,0,1-5,0l-.33-.33-.35.31a3.5,3.5,0,0,1-3.08,1c.05.34.11.68.19,1A4.3,4.3,0,0,0,7.76,17.67Z" style="fill: #0499d1"/>
    <path d="M7.37,22.6a2.73,2.73,0,0,0,.41,0h.11l.4,0h.1a3.52,3.52,0,0,0,.51-.1l.09,0,.43-.15.17-.07.39-.2.16-.09c.18-.12.37-.24.56-.39a2.27,2.27,0,0,0,.28.21l0,0a4,4,0,0,0,.37.22l0,0a4.2,4.2,0,0,0,4.89-.48,5.09,5.09,0,0,0,1.33.75l0,0a4.27,4.27,0,0,0,1,.25h0a3.79,3.79,0,0,0,.59,0h.1a4,4,0,0,0,.66-.09h0a5.4,5.4,0,0,0,.71-.24l.05,0h0a5,5,0,0,0,1.07-.66,4.58,4.58,0,0,0,3.51,1,11,11,0,0,0,.75-1.28,3.45,3.45,0,0,1-3.9-.69l-.19-.2h0L22,20.28h0l-.35.31a3.78,3.78,0,0,1-2.28,1.06,3.71,3.71,0,0,1-2.66-1l-.2-.2h0l-.12-.13h0l-.34.31-.15.11h0a3.45,3.45,0,0,1-4.79-.1l-.33-.33-.35.31a3.46,3.46,0,0,1-4.95,0l-.33-.33,0,0a11.53,11.53,0,0,0,1,1.85,4.45,4.45,0,0,0,1.32.42Z" style="fill: #0499d1"/>
    <path d="M22.34,25.53l-.21,0-.2,0h-.39l-.12,0-.24,0a3.9,3.9,0,0,1-1.82-1L19,24.2l-.35.31a5,5,0,0,1-.46.37l-.14.08-.32.2-.16.08-.28.12-.18.06h0l-.23.07-.19,0H16.5l-.2,0h-.39l-.12,0-.24,0a2.24,2.24,0,0,1-.37-.1h0a2.38,2.38,0,0,1-.32-.12h0l-.27-.14,0,0L14.28,25h0l-.2-.14h0l-.15-.12h0l-.1-.09h0l0,0-.32-.33-.35.31c-.16.14-.32.26-.47.37l-.1.06,0,0-.32.2-.17.08-.27.12-.12,0-.06,0-.24.07h-.06l-.14,0-.2,0h-.59l-.12,0-.24,0a3.9,3.9,0,0,1-1.82-1l-.33-.33-.1.08a11.46,11.46,0,0,0,3.25,2.25h.13a4.48,4.48,0,0,0,1.84-.68q.24-.15.48-.33h0l.22.15.05,0a3.78,3.78,0,0,0,.61.35l0,0a5.06,5.06,0,0,0,.81.32h0a3.79,3.79,0,0,0,1,.15h0a4.87,4.87,0,0,0,.54,0h.07a3.92,3.92,0,0,0,1-.29l.15-.06h0l.46-.24h0a6.34,6.34,0,0,0,.61-.4,5.08,5.08,0,0,0,1.94.92,11.12,11.12,0,0,0,1.63-1l0,0Z" style="fill: #0499d1"/>
  </g>
</svg>
