<svg id="ff078ed1-40f2-408a-9083-8274376acd16" data-name="Calque 1" xmlns="http://www.w3.org/2000/svg" width="32" height="32" viewBox="0 0 32 32">
  <title>vegetal-04-IconeEndive</title>
  <g>
    <path d="M22.84,16.58C21,6.43,22.16.87,20.75.78c0,0-4.48-.39-9.63,13.7-1.74,4.77-2.06,15.11,3.17,16.05,5.41,1,10.08-5.56,8.55-14Z" style="fill: #e9e6a0"/>
    <path d="M23,21.73c.42-3.42-.52-6.79-.9-10.17-.28-2.53-.39-5.07-.52-7.62,0-.68.13-2.69-.65-3.1-.62-.33-1.7.43-2.15.75a16.13,16.13,0,0,0-4.48,5.67,52.41,52.41,0,0,0-3.15,7.11A21.26,21.26,0,0,0,10,22c0,2.54.35,5.82,2.37,7.63,2.49,2.22,6.23.64,8.07-1.54A12,12,0,0,0,23,21.73ZM19.35,2.42c.25-.1.73-.29,1-.13s.23,1.32.25,1.68c-.4-.48-1.11-.15-1.57.06a10,10,0,0,0-3.32,2.8A14.16,14.16,0,0,1,19.35,2.42Zm-4,27.2c-4.36,0-4.53-6.16-4.35-9.26a9.67,9.67,0,0,1,.14-1.53,5.44,5.44,0,0,1,.78-1.63,21.22,21.22,0,0,1,1.72-2.46,9.55,9.55,0,0,1,2.58-2.33c.6-.34,1.55-.84,2,0a6,6,0,0,1,.34,2.34c.08,1.4.12,2.79.21,4.18.15,2.31.39,4.61.75,6.9.08.54.36,1.25.11,1.71a4.48,4.48,0,0,1-1.29,1.16A5.22,5.22,0,0,1,15.36,29.62Zm5.15-3.41c-.29-2.82-.89-5.61-1.13-8.45-.05-.6-.09-1.2-.13-1.81s0-1,.67-1.21c.35-.12.46-.13.66.16a2.86,2.86,0,0,1,.17,1.27c0,.78,0,1.55,0,2.33,0,1.11,0,2.22,0,3.33,0,.74,0,1.47,0,2.21A4,4,0,0,1,20.51,26.21Zm.26-12.71a2.89,2.89,0,0,0-1.6,1c-.06-1.09-.08-2.18-.17-3.27a4.35,4.35,0,0,0-.32-1.82c-.25-.41-.52-.41-.95-.31-2.67.59-4.6,3.93-5.8,6.07a18,18,0,0,1,4.25-7A6.83,6.83,0,0,1,19.3,6.17c.69-.16,1,.21,1.19.89.62,2.08.55,4.48.8,6.63.23,1.87.45,3.75.72,5.61a10.82,10.82,0,0,1-.76,5.36c-.1-2.76-.05-5.52,0-8.28C21.24,16,21.48,13.51,20.77,13.5Z" style="fill: #b3bc30"/>
  </g>
</svg>
