<svg id="b609754a-d134-4cd9-a709-20b17c996f35" data-name="Calque 1" xmlns="http://www.w3.org/2000/svg" width="32" height="32" viewBox="0 0 32 32">
  <title>vegetal-08-IconePomme</title>
  <path d="M6.5,8.31a4.65,4.65,0,0,1,4-3.86C13.94,4,15.3,7.33,15.85,7.54a3.23,3.23,0,0,0,1,.22l.05.1s-.47,0-.82.07a42.67,42.67,0,0,1-4.46,1.21c-1.35.15-4,.21-5.11-.83" style="fill: #006432"/>
  <path d="M21.66,9.61s5.44.76,5.44,7.76-5.48,9.81-6.87,10a32.78,32.78,0,0,1-3.56.19h-.09A32.78,32.78,0,0,1,13,27.39c-1.39-.21-6.86-3-6.86-10s5.43-7.76,5.43-7.76,3,.19,5,.26,5-.26,5-.26" style="fill: #6da200"/>
  <path d="M16.07,10.26a11.59,11.59,0,0,0,.42-2.67c.38,0,1.08.18,1.06.28a5.78,5.78,0,0,0-.93,2.33c-.28.34-.32.28-.55.06" style="fill: #006432"/>
</svg>
