<svg id="a29d8ed6-2199-4eb0-89ee-ba710bedb25c" data-name="Calque 1" xmlns="http://www.w3.org/2000/svg" width="32" height="32" viewBox="0 0 32 32">
  <title>products-56-IconeRepriseEffectif</title>
  <g>
    <path d="M7.44,11.79a4,4,0,0,0-.51-1.63,4.1,4.1,0,0,1-.44-2.24c0-2.69.84-3.59.85-3.6L7,4l.35.36L7,4,6.64,3.6c-.11.12-1.15,1.2-1.15,4.32a4.84,4.84,0,0,0,.56,2.7,3.89,3.89,0,0,1,.44,2.13C6.8,12.42,7.12,12.1,7.44,11.79Z" style="fill: #f9caac"/>
    <path d="M11.49,7.92c0-2.69.84-3.59.85-3.6L12,4l.35.36L12,4l-.35-.36c-.11.12-1.15,1.2-1.15,4.32a7.85,7.85,0,0,0,.11,1.47,4.28,4.28,0,0,1,1-.34A8.15,8.15,0,0,1,11.49,7.92Z" style="fill: #f9caac"/>
    <path d="M17.49,12.72a4.75,4.75,0,0,0-.56-2.56,4.1,4.1,0,0,1-.44-2.24c0-2.69.84-3.59.85-3.6L17,4l.35.36L17,4l-.35-.36c-.11.12-1.15,1.2-1.15,4.32a4.84,4.84,0,0,0,.56,2.7,3.21,3.21,0,0,1,.36,1Q17,12.15,17.49,12.72Z" style="fill: #f9caac"/>
    <path d="M5.65,16.45l.68.73c.12-.12,1.16-1.18,1.16-4.32a10.69,10.69,0,0,0,0-1.07c-.32.31-.64.63-1,1v.11C6.49,15.56,5.65,16.45,5.65,16.45Z" style="fill: #f9caac"/>
    <path d="M11.49,12.86c0,2.7-.84,3.59-.84,3.59l.68.73c.12-.12,1.16-1.18,1.16-4.32a4.78,4.78,0,0,0-.56-2.7,3.32,3.32,0,0,1-.37-1.11,4.28,4.28,0,0,0-1,.34,4.09,4.09,0,0,0,.45,1.23A4.07,4.07,0,0,1,11.49,12.86Z" style="fill: #f9caac"/>
    <path d="M15.65,16.45l.68.73c.12-.12,1.16-1.18,1.16-4.32v-.14q-.54-.57-1.08-1.08a7.54,7.54,0,0,1,.08,1.22C16.49,15.56,15.65,16.45,15.65,16.45Z" style="fill: #f9caac"/>
  </g>
  <path d="M19.6,15.16c-.68-.85-1.39-1.68-2.11-2.44v.14c0,3.14-1,4.2-1.16,4.32l-.68-.73s.84-.89.84-3.59a7.54,7.54,0,0,0-.08-1.22C14.75,10.08,13.15,9,12,9a2.28,2.28,0,0,0-.44.05,3.32,3.32,0,0,0,.37,1.11,4.78,4.78,0,0,1,.56,2.7c0,3.14-1,4.2-1.16,4.32l-.68-.73s.84-.89.84-3.59a4.07,4.07,0,0,0-.44-2.24,4.09,4.09,0,0,1-.45-1.23,13.73,13.73,0,0,0-3.16,2.4,10.69,10.69,0,0,1,0,1.07c0,3.14-1,4.2-1.16,4.32l-.68-.73s.84-.89.84-3.59v-.11C3.18,16.24,0,21.12,0,22.75c0,2.62,5.37,4.75,12,4.75a26.9,26.9,0,0,0,6.17-.68A8.68,8.68,0,0,1,19.6,15.16Z" style="fill: #927768"/>
  <path d="M25.28,28.49A6.72,6.72,0,1,1,32,21.77a6.73,6.73,0,0,1-6.72,6.72" style="fill: #ffa400"/>
  <polygon points="26.2 17.24 24.6 17.24 24.6 21.65 21.39 21.65 25.4 25.66 29.41 21.65 26.2 21.65 26.2 17.24" style="fill: #fff"/>
</svg>
