<svg id="a6417ee2-7b4e-46da-a3ab-31c9ef0e66d9" data-name="Calque 1" xmlns="http://www.w3.org/2000/svg" width="32" height="32" viewBox="0 0 32 32">
  <title>products-57-1310F302</title>
  <path d="M14.94,23.44a8.5,8.5,0,0,1,11.81-7.83c-2.79-4.8-9-12.07-12.16-12.07C10.39,3.54,1,16.14,1,19.11s6.08,5.38,13.59,5.38H15A9.26,9.26,0,0,1,14.94,23.44Z" style="fill: #927768"/>
  <path d="M23.44,30.88a7.44,7.44,0,1,1,7.44-7.44A7.45,7.45,0,0,1,23.44,30.88Z" style="fill: #0499d1"/>
  <g>
    <polygon points="23.52 21.71 22.46 20.65 19.55 23.56 17.44 21.45 17.44 26.73 22.72 26.73 20.61 24.62 23.52 21.71" style="fill: #fff"/>
    <polygon points="23.36 25.17 24.41 26.22 27.32 23.31 29.44 25.43 29.44 20.14 24.15 20.14 26.27 22.26 23.36 25.17" style="fill: #fff"/>
  </g>
</svg>
