<svg id="bd8e94ff-5eb8-4acc-952d-6c4386cd2b6d" data-name="Calque 1" xmlns="http://www.w3.org/2000/svg" width="32" height="32" viewBox="0 0 32 32">
  <title>vehicles-61-IconeMateriel</title>
  <g>
    <polygon points="31 9.66 28.52 4.29 29.31 4.29 29.31 3.26 9.84 3.26 9.84 3.29 9.51 2.51 8.65 2.51 5.47 2.5 5.8 3.14 8.06 3.14 10.7 9.68 12.56 9.68 12.56 9.66 31 9.66" style="fill: #fac262"/>
    <path d="M4.59,20.51A4.62,4.62,0,1,0,9.2,25.13,4.62,4.62,0,0,0,4.59,20.51Zm0,7.58a3,3,0,1,1,3-3A3,3,0,0,1,4.59,28.09Z" style="fill: #6f7071"/>
    <path d="M18.14,22a4.24,4.24,0,0,1,1.52.29,4.45,4.45,0,0,0-.55-1.79c-.57-.74-7.26-1.05-7.26-1.05l-.7-4.23a12.37,12.37,0,0,0-3.7-.61,14.85,14.85,0,0,0-3.33.22l-.32.57.79.48-.47,3.44A5.27,5.27,0,0,0,.94,20.77l.26.49a5.15,5.15,0,0,1,8.53,3.87,5.27,5.27,0,0,1-.27,1.64l.37.17H14l.09-1.5A4.15,4.15,0,0,1,18.14,22Z" style="fill: #e1001a"/>
    <path d="M19.73,22.91a3.54,3.54,0,0,0-1.59-.37,3.6,3.6,0,0,0-3.53,2.9,3.26,3.26,0,0,0-.07.7,3.61,3.61,0,1,0,5.19-3.23Zm-1.59,5.54a2.31,2.31,0,1,1,2.31-2.31A2.31,2.31,0,0,1,18.14,28.45Z" style="fill: #6f7071"/>
    <path d="M31.18,9.82H6.09c-.42,0-.78,0-.79.37s.79.38.79.38H7.76l1,.79h7.4V12.9H17s0-.09,0-.14a2.81,2.81,0,0,1,.05-.49,2.53,2.53,0,0,1,2.48-2,2.38,2.38,0,0,1,1.11.26A2.48,2.48,0,0,1,22,12.76a.61.61,0,0,1,0,.14h.73v-.14a2.09,2.09,0,0,1,0-.49,2.52,2.52,0,0,1,2.48-2,2.41,2.41,0,0,1,1.11.26,2.5,2.5,0,0,1,1.42,2.26c0,.05,0,.1,0,.14h1.33V11.36h2a.77.77,0,0,0,0-1.54Z" style="fill: #6f7071"/>
    <path d="M26.22,10.85a2.09,2.09,0,0,0-.93-.22,2.15,2.15,0,0,0-2.1,1.72,2.71,2.71,0,0,0,0,.41,2.14,2.14,0,1,0,3.07-1.91Zm-.93,3.28a1.37,1.37,0,1,1,1.36-1.37A1.37,1.37,0,0,1,25.29,14.13Z" style="fill: #6f7071"/>
    <path d="M20.45,10.85a2.1,2.1,0,0,0-.94-.22,2.13,2.13,0,0,0-2.09,1.72,1.84,1.84,0,0,0,0,.41,2.13,2.13,0,1,0,3.07-1.91Zm-.94,3.28a1.37,1.37,0,1,1,1.37-1.37A1.36,1.36,0,0,1,19.51,14.13Z" style="fill: #6f7071"/>
    <polygon points="6.24 16.04 5.84 18.26 7.83 18.83 10.28 18.83 9.83 16.04 6.24 16.04" style="fill: #fff"/>
  </g>
</svg>
