<svg id="b3749354-bb5e-4961-9ccc-89dd6810c141" data-name="Calque 1" xmlns="http://www.w3.org/2000/svg" width="32" height="32" viewBox="0 0 32 32">
  <title>sign-64-IconeInflammable</title>
  <g>
    <rect width="32" height="32" style="fill: #f90"/>
    <path d="M31,1V31H1V1H31m1-1H0V32H32V0Z"/>
  </g>
  <path d="M21.38,23a6.43,6.43,0,0,1-4.33,4.66,3.51,3.51,0,0,1-4.59-2.83c-.68-3.08.34-4.19.47-3.3S13.66,25,15.76,25c-.07-.4-1.56-4.71-.52-4.71.48,0,.38,1.75,1.65,2.2.25-.23.66-2.94,1.36-3.89.25-.34,1,1.36.34,4-.09.29,1.29-.64,2.08-1.79.34-.55.09,1.72-.81,2.83.84-.27,1.49-.95,1.52-.61M11,27.76a.92.92,0,0,1,.07.95c-1.47,0-1.2.93-.66.88.3,0,11.66,0,12.36,0s.55-.9-.13-.9-2.09-.07-1.75-.23c5.89-2.33,5.14-7.06,5-8.13s-.38-2.62-.43-2.22-1.15.86-.95.25c1.14-5.54-1.4-6.45-1.13-6.06s0,3-.9,3.3c-.25.09.38-6-1.63-7.56s-1-.43-1,.79c0,1.72,0,.89-2.15-2.37-1.79-2.74-.84-4-1.27-4.19-1.23-.46-1.63,2-1.49,3.26s1.33,5.5-.07,3.14S10.53,6,11.62,6.59s1.94,7.25,1,6.25c-2.06-2.21-5.19-1.95-3.56-.93s1.61,6,1,4.87-4.19-1.27-3-.57c1.84,1.1,1.88,3.9,1.81,6.66A7.13,7.13,0,0,0,11,27.76Z"/>
</svg>
