<svg id="aa4dc371-ca6e-4c44-974d-7822c869195d" data-name="Calque 1" xmlns="http://www.w3.org/2000/svg" width="32" height="32" viewBox="0 0 32 32">
  <title>places-24-IconeTerrasses</title>
  <g>
    <path d="M12.71,21.16V21l-9.6,4.4a16.1,16.1,0,0,0,6,5l12.65-5.8Z" style="fill: #96ad58"/>
    <path d="M4,9.94V9.83L.7,11.34A15.92,15.92,0,0,0,0,16a16.25,16.25,0,0,0,.29,3l12.29-5.63Z" style="fill: #96ad58"/>
    <path d="M13.71,12.71v.11L28.51,6a16.13,16.13,0,0,0-6.05-4.66L5.12,9.31Z" style="fill: #96ad58"/>
    <path d="M22.85,24v.12l8.59-3.94A16.1,16.1,0,0,0,32,16h0a16.42,16.42,0,0,0-.42-3.6L13.84,20.52Z" style="fill: #96ad58"/>
    <path d="M13.76,20.47l.13.05,17.74-8.13A16.1,16.1,0,0,0,28.56,6l-14.8,6.79Z" style="fill: #6f8d26"/>
    <path d="M12.76,13.39l-.13-.05L.34,19a15.84,15.84,0,0,0,2.82,6.47l9.6-4.4Z" style="fill: #6f8d26"/>
    <path d="M5.17,9.31,22.51,1.37A15.94,15.94,0,0,0,5,4.41V9.26Z" style="fill: #6f8d26"/>
    <path d="M4,5.46A15.93,15.93,0,0,0,.75,11.34L4,9.83Z" style="fill: #6f8d26"/>
    <path d="M21.71,24.6,9.06,30.4a15.85,15.85,0,0,0,12.79.48V24.65Z" style="fill: #6f8d26"/>
    <path d="M22.85,30.44a16,16,0,0,0,8.59-10.3l-8.59,3.94Z" style="fill: #6f8d26"/>
    <path d="M4,9.94l8.59,3.4.13.05v7.77l9,3.44.14,0v6.23c.34-.14.67-.28,1-.44V24l-9-3.44-.13-.05V12.71L5.12,9.31,5,9.26V4.41c-.35.34-.68.69-1,1V9.94Z" style="fill: #b3c082"/>
  </g>
</svg>
