<svg id="a905f9b0-3811-4905-9e58-bc71f33874b8" data-name="Calque 1" xmlns="http://www.w3.org/2000/svg" width="32" height="32" viewBox="0 0 32 32">
  <title>field-34-11211A1A</title>
  <polygon points="17 2.92 30.39 8.21 26.87 13.45 14 7.67 17 2.92" style="fill: #a3a4a6;stroke: #fff;stroke-miterlimit: 10;stroke-width: 0.94563090303936px"/>
  <polygon points="16.8 2.92 30.19 8.21 26.67 13.45 13.81 7.67 16.8 2.92" style="fill: none;stroke: #fff;stroke-linejoin: round;stroke-width: 0.236407526633904px"/>
  <polygon points="8.13 24.05 5.28 21.48 14 7.67 26.87 13.45 24.57 16.87 14.77 13.34 8.13 24.05" style="fill: #c3dca8;stroke: #fff;stroke-miterlimit: 10;stroke-width: 0.94563090303936px"/>
  <polygon points="7.94 24.05 5.09 21.48 13.81 7.67 26.67 13.45 24.37 16.87 14.57 13.34 7.94 24.05" style="fill: none;stroke: #fff;stroke-linejoin: round;stroke-width: 0.236407526633904px"/>
  <polygon points="13.09 1.38 17 2.92 11.77 11.2 7.71 9.25 13.09 1.38" style="fill: #fac262;stroke: #fff;stroke-miterlimit: 10;stroke-width: 0.94563090303936px"/>
  <polygon points="12.89 1.38 16.8 2.92 11.58 11.2 7.51 9.25 12.89 1.38" style="fill: none;stroke: #fff;stroke-linejoin: round;stroke-width: 0.236407526633904px"/>
  <polygon points="1.61 18.17 7.71 9.25 11.77 11.2 5.28 21.48 1.61 18.17" style="fill: #bc9161;stroke: #fff;stroke-miterlimit: 10;stroke-width: 0.94563090303936px"/>
  <polygon points="1.42 18.17 7.51 9.25 11.58 11.2 5.09 21.48 1.42 18.17" style="fill: none;stroke: #fff;stroke-linejoin: round;stroke-width: 0.236407526633904px"/>
  <polygon points="24.57 16.87 19.97 23.71 11.41 18.75 14.77 13.34 24.57 16.87" style="fill: #6f7095;stroke: #fff;stroke-miterlimit: 10;stroke-width: 0.94563090303936px"/>
  <polygon points="24.37 16.87 19.78 23.71 11.22 18.75 14.57 13.34 24.37 16.87" style="fill: none;stroke: #fff;stroke-linejoin: round;stroke-width: 0.236407526633904px"/>
  <polygon points="11.41 18.75 19.97 23.71 15.37 30.57 8.13 24.05 11.41 18.75" style="fill: #5bab26;stroke: #fff;stroke-miterlimit: 10;stroke-width: 0.94563090303936px"/>
  <polygon points="11.22 18.75 19.78 23.71 15.17 30.57 7.94 24.05 11.22 18.75" style="fill: none;stroke: #fff;stroke-linejoin: round;stroke-width: 0.236407526633904px"/>
  <path d="M28,0H26v1h2V0ZM24,0H22v1h2V0ZM20,0H18v1h2V0ZM16,0H14v1h2V0ZM12,0H10v1h2V0ZM8,0H6v1H8V0ZM4,0H2v1H4V0ZM0,0V0ZM1,0H0v1H0v1H1V0Zm0,4H0v2H1v-2Zm0,4H0v2H1v-2Zm0,4H0v2H1v-2Zm0,4H0v2H1v-2Zm0,4H0v2H1v-2Zm0,4H0v2H1v-2Zm0,4H0v2H1v-2Zm1,3.1H0v.9H0v0H0V32H1.94V31Zm4,0h-2v1h2V31Zm4,0h-2v1h2V31Zm4,0h-2v1h2V31Zm4,0h-2v1h2V31Zm4,0h-2v1h2V31Zm4,0h-2v1h2V31Zm4,0h-2v1h2V31ZM32,30.09h-1V32h1v-1.9Zm0-4h-1v2h1v-2Zm0-4h-1v2h1v-2Zm0-4h-1v2h1v-2Zm0-4h-1v2h1v-2Zm0-4h-1v2h1v-2Zm0-4h-1v2h1v-2Zm0-4h-1v2h1v-2ZM32,0H30v1h2V0Z" style="fill: #77787a"/>
</svg>
