<svg id="a393d350-b16b-4007-b1f6-66defdb780fc" data-name="Calque 1" xmlns="http://www.w3.org/2000/svg" width="32" height="32" viewBox="0 0 32 32">
  <title>vegetal-84-2208FDF0.Viti</title>
  <circle cx="14.82" cy="15.64" r="2.29" transform="matrix(0, -1, 1, 0, -0.86, 30.42)" style="fill: #c1d900"/>
  <circle cx="10.29" cy="18.07" r="2.29" transform="translate(-7.81 28.31) rotate(-89.84)" style="fill: #c1d900"/>
  <circle cx="14.82" cy="22.11" r="2.29" transform="translate(-7.32 36.9) rotate(-89.89)" style="fill: #c1d900"/>
  <circle cx="19.52" cy="25.07" r="2.29" transform="translate(-5.57 44.56) rotate(-89.94)" style="fill: #79418f"/>
  <circle cx="24.46" cy="15.94" r="2.29" transform="translate(8.44 40.35) rotate(-89.83)" style="fill: #79418f"/>
  <circle cx="28.61" cy="18.41" r="2.29" transform="translate(10.12 46.97) rotate(-89.83)" style="fill: #79418f"/>
  <circle cx="20.29" cy="13.6" r="2.29" transform="translate(6.63 33.85) rotate(-89.83)" style="fill: #79418f"/>
  <circle cx="19.84" cy="19.5" r="2.29" transform="translate(0.3 39.3) rotate(-89.89)" style="fill: #79418f"/>
  <circle cx="24.11" cy="21.9" r="2.29" style="fill: #79418f"/>
  <path d="M18.36,6.31c1.74,1.27,3.47,2.54,5.21,3.74a26.56,26.56,0,0,0,2.66,1.65c.89.47,1.89.91,2.53.63a1.57,1.57,0,0,0,.66-2,.57.57,0,0,0-.77-.31c-.35.09-.49.35-.47.81a5.45,5.45,0,0,0,1.29,2.67,10.61,10.61,0,0,0,2.33,2.15,9.16,9.16,0,0,1-2.66-1.85A5.58,5.58,0,0,1,27.4,11a1.62,1.62,0,0,1,.13-1,1.46,1.46,0,0,1,.82-.73,1.7,1.7,0,0,1,1.1-.07,1.59,1.59,0,0,1,.88.74,2.67,2.67,0,0,1,.2,2,2.35,2.35,0,0,1-1.31,1.57,2.82,2.82,0,0,1-2,0,10.7,10.7,0,0,1-1.57-.71A20.62,20.62,0,0,1,23,10.85,34.1,34.1,0,0,1,18.36,6.31Z" style="fill: #6da200"/>
  <path d="M27.77,6.9a7.2,7.2,0,0,0-1.11,2.33,13.43,13.43,0,0,0-.5,2.76l-1,.07A15.29,15.29,0,0,1,25,9a9.38,9.38,0,0,1,.69-3.23v0a1.21,1.21,0,0,1,2.23.95A1.35,1.35,0,0,1,27.77,6.9Z" style="fill: #6da200"/>
  <path d="M16.89,10.27a26.81,26.81,0,0,1-5.08,3.21A26.41,26.41,0,0,1,6.2,15.62a26.45,26.45,0,0,1,5.08-3.21A26.33,26.33,0,0,1,16.89,10.27Z" style="fill: #6da200"/>
  <path d="M8.69,10.33a4.88,4.88,0,0,1,1.2,1.2,8.7,8.7,0,0,1,.91,1.6l.62-.17a9.54,9.54,0,0,0-.56-2A6.07,6.07,0,0,0,9.73,9.14v0a.8.8,0,0,0-1.13,0,.79.79,0,0,0-.05,1.12A1,1,0,0,0,8.69,10.33Z" style="fill: #6da200"/>
  <rect x="-0.01" y="26" width="3.91" height="2" transform="translate(3.9 54) rotate(-180)" style="fill: #8f8f8f"/>
  <rect x="-0.01" y="6" width="3.91" height="2" transform="translate(3.9 14) rotate(-180)" style="fill: #8f8f8f"/>
  <rect x="1.99" y="22" width="1.91" height="2" transform="translate(5.9 46) rotate(-180)" style="fill: #8f8f8f"/>
  <rect x="1.99" y="18" width="1.91" height="2" transform="translate(5.9 38) rotate(-180)" style="fill: #8f8f8f"/>
  <rect x="1.99" y="14" width="1.91" height="2" transform="translate(5.9 30) rotate(-180)" style="fill: #8f8f8f"/>
  <rect x="1.99" y="10" width="1.91" height="2" transform="translate(5.9 22) rotate(-180)" style="fill: #8f8f8f"/>
</svg>
