<svg id="a3acfca1-8ea8-40a3-8b65-e92d32424f87" data-name="Calque 1" xmlns="http://www.w3.org/2000/svg" width="32" height="32" viewBox="0 0 32 32">
  <title>field-31-IconeCauseExclusion</title>
  <g>
    <path d="M15.08,29.9l-13-11.72L10.26,6.3h0l0,0-.41-.28h0L9.4,5.79.76,18.33,15.27,31.42l3.81-5.64a5.28,5.28,0,0,1-.84-.55Z" style="fill: #77787a"/>
    <path d="M2.08,18.18l13,11.72,3.16-4.67a5.27,5.27,0,0,1-2-4.13,5.37,5.37,0,0,1,0-.7,5.28,5.28,0,0,1,.14-7.29,5.22,5.22,0,0,1,2.37-1.39,4.78,4.78,0,0,1,.44-.8l-9-4.62Z" style="fill: #fff"/>
    <path d="M13.56,1.58,10.23,6.29h0l9,4.62A5.28,5.28,0,0,1,27,9.67,5.33,5.33,0,0,1,28.5,10l1.88-2.75Z" style="fill: #669e3e"/>
    <polygon points="9.78 6.05 9.78 6.05 9.78 6.05 9.78 6.05" style="fill: #669e3e"/>
    <path d="M9.78,6.06l.41.28,0,0,3.33-4.71,16.82,5.7L28.5,10a4.49,4.49,0,0,1,.91.44l2.53-3.72L13.18.4,9.37,5.77l0,0,.38.26Z" style="fill: #516d53"/>
  </g>
  <path d="M20.87,31s.64-.05,1.38-2.23.56-6.39.56-6.39h3.56A41.56,41.56,0,0,0,27,28.68a7.6,7.6,0,0,0,2.33,2.65,3.57,3.57,0,0,1-2.46-.52,7.9,7.9,0,0,1-1.53-1l.77,1.57-2.18-1.26S23.24,30.81,20.87,31Z" style="fill: #9e6812"/>
  <circle cx="23.66" cy="13.69" r="2.8" style="fill: #5bab26;stroke: #5bab26;stroke-miterlimit: 10"/>
  <circle cx="20.18" cy="16.75" r="2.8" style="fill: #5bab26;stroke: #5bab26;stroke-miterlimit: 10"/>
  <circle cx="25.51" cy="21.01" r="2.8" style="fill: #5bab26;stroke: #5bab26;stroke-miterlimit: 10"/>
  <circle cx="26.6" cy="15.01" r="2.94" style="fill: #5bab26;stroke: #5bab26;stroke-miterlimit: 10"/>
  <circle cx="28.36" cy="19.09" r="2.8" style="fill: #5bab26;stroke: #5bab26;stroke-miterlimit: 10"/>
  <circle cx="21.52" cy="21.01" r="2.8" style="fill: #5bab26;stroke: #5bab26;stroke-miterlimit: 10"/>
  <circle cx="24.32" cy="17.32" r="2.8" style="fill: #5bab26;stroke: #5bab26;stroke-miterlimit: 10"/>
</svg>
