<svg id="f1825d23-8145-4ce8-a56f-4d1964efd7f9" data-name="Calque 1" xmlns="http://www.w3.org/2000/svg" width="32" height="32" viewBox="0 0 32 32">
  <title>products-63-IconeFertilisantAlerte</title>
  <rect x="23.43" y="9.86" width="8.57" height="19.14" rx="3.1" style="fill: #f39724"/>
  <path d="M13.66,3.74C9.53,3.74.31,16.12.31,19s6,5.28,13.35,5.28a29,29,0,0,0,7.77-1V9.76C18.71,6.52,15.61,3.74,13.66,3.74Z" style="fill: #927768"/>
  <g>
    <path d="M27.75,27a2.5,2.5,0,1,1,2.5-2.5A2.51,2.51,0,0,1,27.75,27Z" style="fill: #999"/>
    <path d="M27.75,22.36a2.14,2.14,0,1,1-2.14,2.14,2.14,2.14,0,0,1,2.14-2.14m0-.72a2.86,2.86,0,1,0,2.86,2.86,2.86,2.86,0,0,0-2.86-2.86Z" style="fill: #fff"/>
  </g>
  <g>
    <path d="M27.75,22a2.5,2.5,0,1,1,2.5-2.5A2.51,2.51,0,0,1,27.75,22Z" style="fill: #f39724"/>
    <path d="M27.75,17.36a2.14,2.14,0,1,1-2.14,2.14,2.14,2.14,0,0,1,2.14-2.14m0-.72a2.86,2.86,0,1,0,2.86,2.86,2.86,2.86,0,0,0-2.86-2.86Z" style="fill: #fff"/>
  </g>
  <g>
    <path d="M27.75,17a2.5,2.5,0,1,1,2.5-2.5A2.51,2.51,0,0,1,27.75,17Z" style="fill: #999"/>
    <path d="M27.75,12.36a2.14,2.14,0,1,1-2.14,2.14,2.14,2.14,0,0,1,2.14-2.14m0-.72a2.86,2.86,0,1,0,2.86,2.86,2.86,2.86,0,0,0-2.86-2.86Z" style="fill: #fff"/>
  </g>
</svg>
