<svg id="bdffa3cb-29e7-4678-a67a-ecfa340a7b1e" data-name="Calque 1" xmlns="http://www.w3.org/2000/svg" width="32" height="32" viewBox="0 0 32 32">
  <title>vegetal-23-IconeHarvest.LargeCrops</title>
  <path d="M10.42,17.17c-2.12-2.3-4-4.55-3.84-4.68s2.55,1.86,4.94,4.09A10.83,10.83,0,0,1,13.17,16a5.08,5.08,0,0,1-1.09-1.39,5.35,5.35,0,0,1-.47-3.67,6.85,6.85,0,0,0-5.37-.7h0a1.42,1.42,0,1,0-2,2h0c-.89,2.3.29,5.82,3.08,8.62l0,0A6.74,6.74,0,0,1,10.42,17.17Z" style="fill: #dd932e"/>
  <path d="M10.42,17.17a10.38,10.38,0,0,1,1.1-.59c-2.39-2.23-4.81-4.23-4.94-4.09S8.3,14.87,10.42,17.17Z" style="fill: #fff"/>
  <path d="M10.42,17.17c-2.12-2.3-4-4.55-3.84-4.68s2.55,1.86,4.94,4.09A10.83,10.83,0,0,1,13.17,16a5.08,5.08,0,0,1-1.09-1.39,5.35,5.35,0,0,1-.47-3.67,6.85,6.85,0,0,0-5.37-.7h0a1.42,1.42,0,1,0-2,2h0c-.89,2.3.29,5.82,3.08,8.62l0,0A6.74,6.74,0,0,1,10.42,17.17Z" style="fill: #dd932e"/>
  <path d="M10.42,17.17a10.38,10.38,0,0,1,1.1-.59c-2.39-2.23-4.81-4.23-4.94-4.09S8.3,14.87,10.42,17.17Z" style="fill: #fff"/>
  <ellipse cx="21.11" cy="9.76" rx="8.6" ry="5.33" transform="translate(-2.11 11.04) rotate(-27.97)" style="fill: #dd932e"/>
  <path d="M14.73,13.19c.59,1.1,12.25-6,12.07-6.41S14.14,12.08,14.73,13.19Z" style="fill: #fff"/>
  <g>
    <path d="M10.42,17.17c-2.12-2.3-4-4.55-3.84-4.68s2.55,1.86,4.94,4.09A10.83,10.83,0,0,1,13.17,16a5.08,5.08,0,0,1-1.09-1.39,5.35,5.35,0,0,1-.47-3.67,6.85,6.85,0,0,0-5.37-.7h0a1.42,1.42,0,1,0-2,2h0c-.89,2.3.29,5.82,3.08,8.62l0,0A6.74,6.74,0,0,1,10.42,17.17Z" style="fill: #dd932e"/>
    <path d="M10.42,17.17a10.38,10.38,0,0,1,1.1-.59c-2.39-2.23-4.81-4.23-4.94-4.09S8.3,14.87,10.42,17.17Z" style="fill: #fff"/>
  </g>
  <g>
    <path d="M10.42,17.17c-2.12-2.3-4-4.55-3.84-4.68s2.55,1.86,4.94,4.09A10.83,10.83,0,0,1,13.17,16a5.08,5.08,0,0,1-1.09-1.39,5.35,5.35,0,0,1-.47-3.67,6.85,6.85,0,0,0-5.37-.7h0a1.42,1.42,0,1,0-2,2h0c-.89,2.3.29,5.82,3.08,8.62l0,0A6.74,6.74,0,0,1,10.42,17.17Z" style="fill: #dd932e"/>
    <path d="M10.42,17.17a10.38,10.38,0,0,1,1.1-.59c-2.39-2.23-4.81-4.23-4.94-4.09S8.3,14.87,10.42,17.17Z" style="fill: #fff"/>
  </g>
  <ellipse cx="21.11" cy="9.76" rx="8.6" ry="5.33" transform="translate(-2.11 11.04) rotate(-27.97)" style="fill: #dd932e"/>
  <path d="M14.73,13.19c.59,1.1,12.25-6,12.07-6.41S14.14,12.08,14.73,13.19Z" style="fill: #fff"/>
  <ellipse cx="17.36" cy="22.32" rx="8.6" ry="5.33" style="fill: #dd932e"/>
  <path d="M10.11,22.35c0,1.24,13.67.4,13.67,0S10.11,21.09,10.11,22.35Z" style="fill: #fff"/>
  <g>
    <path d="M10.42,17.17c-2.12-2.3-4-4.55-3.84-4.68s2.55,1.86,4.94,4.09A10.83,10.83,0,0,1,13.17,16a5.08,5.08,0,0,1-1.09-1.39,5.35,5.35,0,0,1-.47-3.67,6.85,6.85,0,0,0-5.37-.7h0a1.42,1.42,0,1,0-2,2h0c-.89,2.3.29,5.82,3.08,8.62l0,0A6.74,6.74,0,0,1,10.42,17.17Z" style="fill: #dd932e"/>
    <path d="M10.42,17.17a10.38,10.38,0,0,1,1.1-.59c-2.39-2.23-4.81-4.23-4.94-4.09S8.3,14.87,10.42,17.17Z" style="fill: #fff"/>
  </g>
  <ellipse cx="21.11" cy="9.76" rx="8.6" ry="5.33" transform="translate(-2.11 11.04) rotate(-27.97)" style="fill: #dd932e"/>
  <path d="M14.73,13.19c.59,1.1,12.25-6,12.07-6.41S14.14,12.08,14.73,13.19Z" style="fill: #fff"/>
  <path d="M10.11,22.35c0,1.24,13.67.4,13.67,0S10.11,21.09,10.11,22.35Z" style="fill: #fff"/>
</svg>
