<svg id="a6241dad-4d20-47a8-b1c7-ab9fd0134b48" data-name="Calque 1" xmlns="http://www.w3.org/2000/svg" width="32" height="32" viewBox="0 0 32 32">
  <title>office-76-IconeBalanceAzoteGrainBle</title>
  <path d="M25.71,30H6.29A2.29,2.29,0,0,1,4,27.71L6,14.29A2.28,2.28,0,0,1,8.29,12H23.71A2.29,2.29,0,0,1,26,14.29l2,13.42A2.3,2.3,0,0,1,25.71,30Z" style="fill: #a1a2a4"/>
  <rect x="19" y="8" width="2" height="3" style="fill: #a6a7a8"/>
  <rect x="11" y="8" width="2" height="3" style="fill: #a6a7a8"/>
  <path d="M4,4.07S7,8,8.93,8h14C24.5,8,28,4.07,28,4.07" style="fill: #bc9161"/>
  <circle cx="16" cy="21.14" r="6.25" style="fill: #fff"/>
  <line x1="16" y1="21.14" x2="16" y2="16.82" style="fill: none;stroke: #6f7095;stroke-miterlimit: 10"/>
</svg>
