<svg id="f8a08e3d-857f-4981-8f29-5dcdd21f1143" data-name="Calque 1" xmlns="http://www.w3.org/2000/svg" width="32" height="32" viewBox="0 0 32 32">
  <title>places-25-IconeMurPierres</title>
  <rect y="2" width="32" height="29" style="fill: #d9d9d9"/>
  <rect x="3" y="8" width="9" height="5" style="fill: gray"/>
  <rect x="13" y="8" width="9" height="5" style="fill: gray"/>
  <rect x="23" y="8" width="9" height="5" style="fill: gray"/>
  <rect y="14" width="7" height="5" style="fill: #a6a6a6"/>
  <rect x="28" y="14" width="4" height="5" style="fill: gray"/>
  <rect y="8" width="2" height="5" style="fill: gray"/>
  <rect x="8" y="14" width="9" height="5" style="fill: gray"/>
  <rect x="18" y="14" width="9" height="5" style="fill: #a6a6a6"/>
  <rect x="3" y="20" width="9" height="5" style="fill: gray"/>
  <rect x="13" y="20" width="9" height="5" style="fill: gray"/>
  <rect x="23" y="20" width="9" height="5" style="fill: gray"/>
  <rect y="26" width="7" height="5" style="fill: gray"/>
  <rect x="28" y="26" width="4" height="5" style="fill: gray"/>
  <rect y="20" width="2" height="5" style="fill: gray"/>
  <rect x="8" y="26" width="9" height="5" style="fill: gray"/>
  <rect x="18" y="26" width="9" height="5" style="fill: #a6a6a6"/>
  <rect y="2" width="7" height="5" style="fill: gray"/>
  <rect x="28" y="2" width="4" height="5" style="fill: gray"/>
  <rect x="8" y="2" width="9" height="5" style="fill: #a6a6a6"/>
  <rect x="18" y="2" width="9" height="5" style="fill: gray"/>
</svg>
