<svg id="f0ad4673-1cc7-421e-ab9a-2dbcaaa99814" data-name="Calque 1" xmlns="http://www.w3.org/2000/svg" width="32" height="32" viewBox="0 0 32 32">
  <title>doc-06-IconeDupliquer</title>
  <g>
    <path d="M7,29.51A1.47,1.47,0,0,1,5.48,28V5A1.47,1.47,0,0,1,7,3.51h12.2a1.44,1.44,0,0,1,1,.43L25,8.78a1.49,1.49,0,0,1,.44,1.05V28A1.48,1.48,0,0,1,24,29.51Z" style="fill: #fff"/>
    <path d="M19.15,4a1,1,0,0,1,.69.28l4.85,4.85a.94.94,0,0,1,.29.69V28a1,1,0,0,1-1,1H7a1,1,0,0,1-1-1V5A1,1,0,0,1,7,4h12.2m0-1H7A2,2,0,0,0,5,5V28a2,2,0,0,0,2,2H24a2,2,0,0,0,2-2V9.83a2,2,0,0,0-.58-1.4L20.55,3.59A2,2,0,0,0,19.15,3Z" style="fill: #b8b7b8"/>
  </g>
  <g>
    <path d="M9,27.51A1.47,1.47,0,0,1,7.48,26V3A1.47,1.47,0,0,1,9,1.51h12.2a1.44,1.44,0,0,1,1,.43L27,6.78a1.49,1.49,0,0,1,.44,1V26A1.48,1.48,0,0,1,26,27.51Z" style="fill: #fff"/>
    <path d="M21.15,2a1,1,0,0,1,.69.28l4.85,4.85a.94.94,0,0,1,.29.69V26a1,1,0,0,1-1,1H9a1,1,0,0,1-1-1V3A1,1,0,0,1,9,2h12.2m0-1H9A2,2,0,0,0,7,3V26a2,2,0,0,0,2,2H26a2,2,0,0,0,2-2V7.83a2,2,0,0,0-.58-1.4L22.55,1.59A2,2,0,0,0,21.15,1Z" style="fill: #868789"/>
  </g>
  <g>
    <path d="M26.85,7.38a.78.78,0,0,0-.16-.24L21.84,2.29a1,1,0,0,0-.36-.22V7.38Z" style="fill: none"/>
    <path d="M20.48,7.88V2H9A1,1,0,0,0,8,3V26a1,1,0,0,0,1,1H26a1,1,0,0,0,1-1V8.38H21A.5.5,0,0,1,20.48,7.88Z" style="fill: none"/>
    <path d="M26.85,7.38H21.48V2.07A.92.92,0,0,0,21.15,2h-.67V7.88a.5.5,0,0,0,.5.5h6V7.83A.85.85,0,0,0,26.85,7.38Z" style="fill: #d7d8d9"/>
  </g>
  <line x1="12.13" y1="13.83" x2="23.06" y2="13.83" style="fill: none;stroke: #b8b7b8;stroke-linecap: round;stroke-linejoin: round"/>
  <line x1="12.13" y1="17.83" x2="23.06" y2="17.83" style="fill: none;stroke: #b8b7b8;stroke-linecap: round;stroke-linejoin: round"/>
  <line x1="12.13" y1="21.83" x2="23.06" y2="21.83" style="fill: none;stroke: #b8b7b8;stroke-linecap: round;stroke-linejoin: round"/>
</svg>
