<svg id="ae1d799a-bc9e-4d3d-80d6-251716fbe101" data-name="Calque 1" xmlns="http://www.w3.org/2000/svg" width="32" height="32" viewBox="0 0 32 32">
  <title>vegetal-55-IconePrixProduitRecolte</title>
  <circle cx="12.32" cy="6.71" r="2.86" style="fill: #79418f"/>
  <g>
    <path d="M19.7,26.75a.84.84,0,0,0-.29.51c0,.82,2.34,2,6,2s6-1.19,6-2a.8.8,0,0,0-.29-.51A12.42,12.42,0,0,1,25.4,28,12.45,12.45,0,0,1,19.7,26.75Z" style="fill: #f9b400"/>
    <path d="M31.1,24.22a6.53,6.53,0,0,1-1.16.51,10.76,10.76,0,0,1-1.09.31,15.86,15.86,0,0,1-1.89.31c-.52,0-1,.07-1.56.07s-1,0-1.55-.07A15.7,15.7,0,0,1,22,25a10.56,10.56,0,0,1-1.08-.31,7,7,0,0,1-1.17-.51.84.84,0,0,0-.29.51.87.87,0,0,0,.29.52,2.43,2.43,0,0,0,.53.4A4.85,4.85,0,0,0,21,26a12.18,12.18,0,0,0,4.45.73A12.28,12.28,0,0,0,29.86,26a5.39,5.39,0,0,0,.72-.35,2.61,2.61,0,0,0,.52-.4.82.82,0,0,0,.29-.52A.8.8,0,0,0,31.1,24.22Z" style="fill: #f9b400"/>
    <path d="M31.1,21.69a7.35,7.35,0,0,1-1.16.51,10.76,10.76,0,0,1-1.09.31,14.07,14.07,0,0,1-1.89.3c-.52.05-1,.08-1.56.08s-1,0-1.55-.08a14,14,0,0,1-1.9-.3,10.56,10.56,0,0,1-1.08-.31,7.92,7.92,0,0,1-1.17-.51.84.84,0,0,0-.29.51.87.87,0,0,0,.29.52,2.8,2.8,0,0,0,.53.4,4.85,4.85,0,0,0,.72.35,11.08,11.08,0,0,0,2.9.65,15.15,15.15,0,0,0,3.11,0,11.17,11.17,0,0,0,2.9-.65,5.39,5.39,0,0,0,.72-.35,3,3,0,0,0,.52-.4.82.82,0,0,0,.29-.52A.8.8,0,0,0,31.1,21.69Z" style="fill: #f9b400"/>
    <path d="M25.4,17.67c-3.65,0-6,1.19-6,2a.82.82,0,0,0,.29.51,2.44,2.44,0,0,0,.53.41,4.85,4.85,0,0,0,.72.35,11.08,11.08,0,0,0,2.9.65,15.15,15.15,0,0,0,3.11,0,11.17,11.17,0,0,0,2.9-.65,5.39,5.39,0,0,0,.72-.35,2.62,2.62,0,0,0,.52-.41.77.77,0,0,0,.29-.51C31.39,18.86,29.06,17.67,25.4,17.67Z" style="fill: #f9b400"/>
  </g>
  <path d="M7.93,27.4s4.57,4.35,8.38,1.45l-2.12-2.12a5.88,5.88,0,0,0-3.63.65A2.88,2.88,0,0,1,7.93,27.4Z" style="fill: #dd932e"/>
  <path d="M4.81,24.28s4.62,4.4,8.44,1.5L11.1,23.64a5.86,5.86,0,0,0-3.64.64A2.89,2.89,0,0,1,4.81,24.28Z" style="fill: #dd932e"/>
  <path d="M12.33,16.76s4.4,4.62,1.51,8.43l-2.15-2.14a5.82,5.82,0,0,1,.65-3.64A2.91,2.91,0,0,0,12.33,16.76Z" style="fill: #dd932e"/>
  <path d="M1.71,21.18s4.62,4.4,8.44,1.5L8,20.54a5.86,5.86,0,0,0-3.64.64A2.89,2.89,0,0,1,1.71,21.18Z" style="fill: #dd932e"/>
  <path d="M9.24,13.66s4.39,4.62,1.5,8.43L8.59,20a5.82,5.82,0,0,1,.65-3.64A2.92,2.92,0,0,0,9.24,13.66Z" style="fill: #dd932e"/>
  <path d="M7.13,19.14s1.77-1.9.22-3.44S2.3,14.3,0,12c2.25,2.25,2.52,5.79,4,7.27S7.13,19.14,7.13,19.14Z" style="fill: #dd932e"/>
  <circle cx="16.54" cy="10.93" r="2.86" style="fill: #79418f"/>
  <path d="M10.68,12.28a11.56,11.56,0,0,1,1.75,2.43,3.39,3.39,0,0,0,.42-.33,2.86,2.86,0,0,0-4-4.05A2.78,2.78,0,0,0,8,12a2,2,0,0,1,1.15-.38A2.14,2.14,0,0,1,10.68,12.28Z" style="fill: #79418f"/>
  <path d="M15.56,17.86a2.13,2.13,0,0,1,1.34.63l.21.25.09-.07a2.86,2.86,0,0,0-4-4,2.2,2.2,0,0,0-.2.23,2.09,2.09,0,0,1,.82.52A11.51,11.51,0,0,1,15.56,17.86Z" style="fill: #79418f"/>
  <g>
    <path d="M17.78,26a2.53,2.53,0,0,1-.37-1.27,2.34,2.34,0,0,1,.25-1,10.61,10.61,0,0,0-2.21-3.87,2.92,2.92,0,0,1,0,2.64,5.82,5.82,0,0,0-.66,3.62l2.12,2.13a4.65,4.65,0,0,0,.53-.86.68.68,0,0,1,0-.14A2.52,2.52,0,0,1,17.78,26Z" style="fill: #dd932e"/>
    <path d="M22.85,13.19a2.86,2.86,0,0,0-4.05,4l0,0a10.5,10.5,0,0,1,4.79-1.5A2.87,2.87,0,0,0,22.85,13.19Z" style="fill: #79418f"/>
  </g>
  <path d="M13.13-.15C14.74,1.59,16.34,3.31,18,5a30.75,30.75,0,0,0,2.53,2.34c.87.69,1.86,1.36,2.61,1.19a1.73,1.73,0,0,0,1.12-2,.63.63,0,0,0-.76-.5c-.41,0-.61.27-.69.78A6.13,6.13,0,0,0,23.64,10a11.76,11.76,0,0,0,2.08,2.81,9.94,9.94,0,0,1-2.5-2.55,6.17,6.17,0,0,1-1.28-3.48,1.88,1.88,0,0,1,.34-1.07,1.59,1.59,0,0,1,1-.62,1.81,1.81,0,0,1,1.19.16,1.65,1.65,0,0,1,.8,1,2.89,2.89,0,0,1-.19,2.17,2.55,2.55,0,0,1-1.74,1.42,3.07,3.07,0,0,1-2.14-.37A11.24,11.24,0,0,1,19.7,8.3a22.79,22.79,0,0,1-2.53-2.58A37.3,37.3,0,0,1,13.13-.15Z" style="fill: #6da200"/>
  <path d="M23.17,2.43a8.24,8.24,0,0,0-1.68,2.29A15.45,15.45,0,0,0,20.38,7.6l-1.07-.13a16.82,16.82,0,0,1,.43-3.38A10.31,10.31,0,0,1,21.15.74l0,0a1.33,1.33,0,0,1,2.22,1.48A1.31,1.31,0,0,1,23.17,2.43Z" style="fill: #6da200"/>
</svg>
