<svg id="e49b8c6c-72cd-4afa-b2b6-571bc533d7e7" data-name="Calque 1" xmlns="http://www.w3.org/2000/svg" width="32" height="32" viewBox="0 0 32 32">
  <rect x="24.79" y="15.27" width="0.98" height="1.98" style="fill: #fff"/>
  <rect x="24.79" y="26.25" width="0.98" height="1.98" style="fill: #fff"/>
  <rect x="19.3" y="20.76" width="0.98" height="1.98" transform="translate(-1.96 41.53) rotate(-90)" style="fill: #fff"/>
  <rect x="30.28" y="20.76" width="0.98" height="1.98" transform="translate(9.02 52.52) rotate(-90)" style="fill: #fff"/>
  <g>
    <polygon points="30.37 7.8 24.43 5.45 30.37 7.8 30.37 7.8" style="fill: none"/>
    <polygon points="27.38 13.28 29.54 10.06 27.38 13.28 27.38 13.28" style="fill: none"/>
    <polygon points="14.86 30.95 14.86 30.95 12.02 28.39 14.86 30.95" style="fill: none"/>
    <polygon points="12.06 1.79 4.98 12.15 6.94 9.28 12.06 1.79" style="fill: none"/>
    <polygon points="4.48 21.59 1.1 18.55 6.3 23.23 4.48 21.59 4.48 21.59" style="fill: none"/>
    <path d="M15.26,31.31l-.4-.36h0L12,28.39,7.33,24.16h0l-1-.93L1.1,18.55l-.31-.28L5,12.15,12.06,1.79l.66-1,3.89,1.54h0l7.82,3.09L30.37,7.8h0l.54.21-1.37,2.05-2.16,3.22h0c.32.08.63.18.94.29L31.37,9a1.46,1.46,0,0,0,.18-1.22,1.43,1.43,0,0,0-.83-.89L13.41.08A1.42,1.42,0,0,0,11.72.6L.25,17.39a1.42,1.42,0,0,0,.22,1.86l3.31,3,10.44,9.42a1.42,1.42,0,0,0,.95.37h.18a1.44,1.44,0,0,0,1-.62l2.52-3.75a6.51,6.51,0,0,1-.63-.76Z" style="fill: #77787a"/>
    <polygon points="16.99 3.53 15.73 5.53 14.5 7.48 23.48 11.53 26.5 12.88 29.47 8.46 16.99 3.53" style="fill: #a3a4a6"/>
    <path d="M14,8.29,12.26,11h0L5.7,21.42l2.13,1.92,3.23-5.2h0l3.31-5.35,5.63,2a8.63,8.63,0,0,1,4.59-1.76l-1.32-.59Z" style="fill: #c3dca8"/>
    <polygon points="13.63 7.09 13.63 7.09 16.1 3.18 13.07 1.98 8.21 9.09 11.4 10.62 13.63 7.09" style="fill: #fac262"/>
    <polygon points="7.67 9.88 2.04 18.12 4.99 20.78 10.89 11.42 7.67 9.88" style="fill: #bc9161"/>
    <path d="M11.88,18.61l2.19,1.27,2.5,1.45a8.69,8.69,0,0,1,2.6-5.8l-4.4-1.59Z" style="fill: #6f7095"/>
    <path d="M10.49,20.85,8.55,24l6.53,5.89L17.68,26a8.6,8.6,0,0,1-1.09-3.59l-5.21-3Z" style="fill: #5bab26"/>
    <path d="M27.38,13.28h0l2.16-3.22L30.91,8l-.54-.21L24.43,5.45,16.61,2.36h0L12.72.82l-.66,1L6.94,9.28,5,12.15.79,18.27l.31.28,3.38,3h0L6.3,23.23l1,.93h0L12,28.39,14.86,31l.4.36,3-4.43a9.74,9.74,0,0,1-.56-.86l-2.6,3.86L8.55,24l1.94-3.14.89-1.43,5.21,3c0-.22,0-.45,0-.68s0-.28,0-.42l-2.5-1.45-2.19-1.27,2.89-4.67,4.4,1.59a8,8,0,0,1,.83-.71l-5.63-2-3.31,5.35h0l-3.23,5.2L5.7,21.42,12.26,11h0L14,8.29l9.28,4.18,1.32.59c.23,0,.45,0,.69,0a8.49,8.49,0,0,1,2.09.26ZM2,18.12,7.67,9.88l3.22,1.54L5,20.78ZM13.07,2l3,1.2L13.63,7.09h0L11.4,10.62,8.21,9.09Zm10.41,9.55-9-4,1.23-1.95,1.26-2L29.47,8.46l-3,4.42Z" style="fill: #fff"/>
  </g>
  <path d="M32.09,22.84h0l-.14,0-.88-.31H31a1,1,0,0,1-.71-1,1,1,0,0,1,.66-1l.39-.19L32,20h0L31.51,19l-.63-1.33h0l-.21.1-.78.37h0l-.06,0a1,1,0,0,1-1.2-.22,1,1,0,0,1-.24-1.15l.33-.95,0-.13h0l-1.06-.37-1.3-.46h0l-.08.25-.32.91a1,1,0,0,1-1,.66.94.94,0,0,1-1-.64c-.19-.39-.38-.77-.46-.95l0-.09h0l-.95.47-1.3.62h0l.54,1.13a1,1,0,0,1-.24,1.16,1,1,0,0,1-1.15.24l-1.1-.38-.32.95-.09.23-.42,1.18h0l.24.09.79.28h0l.1,0a1,1,0,0,1,.68,1,.94.94,0,0,1-.64,1l-.62.3-.42.2h0l.4.81.69,1.44h0l1-.48h0l.08,0a1.08,1.08,0,0,1,1.43,1.39L22.1,27l-.27.78h0l1,.33,1.37.49h0l0-.08.34-.95a.25.25,0,0,1,0-.07v0a1,1,0,0,1,1-.71,1,1,0,0,1,1,.65l.5,1h0L28,28l1.3-.62h0l0-.1-.42-.89a.43.43,0,0,1,0-.07,1.08,1.08,0,0,1,1.37-1.46l.41.14.67.24h0l.36-1.06.46-1.3Zm-5.35,2a3.39,3.39,0,1,1,1.6-4.52A3.39,3.39,0,0,1,26.74,24.8Z" style="fill: #77787a"/>
</svg>
