<svg id="fe030a40-184f-4f84-941b-fdab1f9763b6" data-name="Calque 1" xmlns="http://www.w3.org/2000/svg" width="32" height="32" viewBox="0 0 32 32">
  <title>equipment-66-IconeLaboratoire</title>
  <path d="M26.85,32,5.05,32c-1.74-.29-5-1.76-5-5.16S2.71,21,3.06,20.66l8.64-8.75V2.12l-.32-1L12.2,0h7.6l.82,1.12-.32,1v9.79L29,20.69c.31.32,3,3.22,3,6.13,0,3.4-3.31,4.87-5.05,5.16ZM5.34,29.87H26.66c.51-.11,3.19-.78,3.19-3.05,0-1.74-1.75-3.95-2.43-4.65l-9.27-9.39V2.13h-4.3V12.78L4.52,22.22s-2.37,2.12-2.37,4.6C2.15,29.09,4.83,29.76,5.34,29.87Z" style="fill: #98999b"/>
  <line x1="10.5" y1="1" x2="21.5" y2="1" style="fill: none;stroke: #98999b;stroke-linecap: round;stroke-linejoin: round;stroke-width: 2.03899002326179px"/>
</svg>
