<svg id="a6fffe7f-4c2e-41be-bbef-8628fbe994ae" data-name="Calque 1" xmlns="http://www.w3.org/2000/svg" width="32" height="32" viewBox="0 0 32 32">
  <title>products-62-IconeFertilisant</title>
  <g>
    <path d="M15.42,6.66A5,5,0,0,0,20,7.3l-1.3,2.89-4.14,1.28Z" style="fill: #7b8786"/>
    <path d="M20,25.87s-.61.64-2.69.8a91,91,0,0,1-9.87.38,4.51,4.51,0,0,1-2.29-.7Z" style="fill: #9b9b9b"/>
    <path d="M1.17,6.66a29.57,29.57,0,0,0,7.58.64,42.89,42.89,0,0,0,6.67-.64v4L1.7,11.09Z" style="fill: #9a9d96"/>
    <path d="M2.05,6.64C2.33,6,4,2.43,2.38,2.49c-.9,0-1,1.16-1,1.83a19.57,19.57,0,0,0-.08,2.42c0,.26.81.14.8-.16,0-.51,0-1,0-1.55A9.67,9.67,0,0,1,2.2,3.71c0-.18.1-.36.12-.54S2.4,3,2.4,3l.05-.09c-.29-.07-.39-.05-.3,0a1.82,1.82,0,0,1,.09.34,2.39,2.39,0,0,1-.05.6,8.61,8.61,0,0,1-.34,1.23,16,16,0,0,1-.6,1.58C1.14,6.94,1.94,6.89,2.05,6.64Z" style="fill: #9a9d96"/>
    <path d="M15.17,6.53c.29-.66,1.91-4.2.33-4.14-.89,0-1,1.15-1,1.82a19.67,19.67,0,0,0-.08,2.43c0,.25.8.14.8-.16,0-.52,0-1,0-1.56a9.83,9.83,0,0,1,.13-1.32c0-.18.1-.36.12-.54s.08-.14.07-.18l.05-.1c-.29-.06-.38,0-.29.05s.09.3.09.34a2.11,2.11,0,0,1-.06.61A8.81,8.81,0,0,1,15,5c-.18.53-.38,1.06-.6,1.58C14.27,6.83,15.06,6.79,15.17,6.53Z" style="fill: #9a9d96"/>
    <path d="M5.86,7.28c.11-.71.91-4.34-.39-4.21-.82.08-.67,1.16-.65,1.75,0,.85.13,1.71.24,2.57,0,.27.84.12.8-.16-.07-.54-.13-1.09-.18-1.63s-.06-.88-.07-1.32a3.63,3.63,0,0,1,0-.57c0-.26.18-.37-.18-.28s-.15.06-.15.34,0,.32,0,.48a12.94,12.94,0,0,1-.07,1.39c0,.56-.12,1.13-.21,1.69C5,7.64,5.82,7.54,5.86,7.28Z" style="fill: #9a9d96"/>
    <path d="M1.17,6.66s.85,1.28,2,1.28A4.91,4.91,0,0,0,5.33,7.3L5.12,26.35,1.17,25S.64,23.9.64,18.56,1.17,6.66,1.17,6.66Z" style="fill: #aeaeae"/>
    <path d="M19.71,7.32a24,24,0,0,0-.29-2.39c-.1-.58-.24-2-1.05-2-1-.07-.75,1.49-.58,2A11.32,11.32,0,0,0,19,7.47c.24.42.94.12.67-.33a12.18,12.18,0,0,1-.82-1.61,5.1,5.1,0,0,1-.41-1.27,4.17,4.17,0,0,0,0-.5c-.06-.22.15.08-.05-.14s-.07.12-.06.08a4,4,0,0,0,.26.88c.09.4.14.81.2,1.22s.11,1,.14,1.48S19.74,7.83,19.71,7.32Z" style="fill: #9a9d96"/>
    <path d="M5.33,7.3a25.58,25.58,0,0,0,7.42.86A35,35,0,0,0,20,7.3a30.68,30.68,0,0,0-.27,4.49c.06,2.29.38,5.17.27,7.52s0,6.56,0,6.56l-14.85.48Z" style="fill: #d0d0d0"/>
  </g>
  <path d="M32,25.27c0,2.24-4.57,4-10.21,4s-10.21-1.8-10.21-4,7.06-11.7,10.21-11.7S32,23,32,25.27Z" style="fill: #927768"/>
</svg>
