<svg id="bdbd93e7-6e6b-4528-919a-8689af796bd9" data-name="Calque 1" xmlns="http://www.w3.org/2000/svg" width="32" height="32" viewBox="0 0 32 32">
  <title>meteo-67-IconeMeteusSoleil</title>
  <path d="M16.08,7.68a9.38,9.38,0,0,1,9.25,9.51,9.38,9.38,0,0,1-9.25,9.51,9.38,9.38,0,0,1-9.26-9.51,9.39,9.39,0,0,1,9.26-9.51" style="fill: #ffcc1b"/>
  <path d="M26.23,19a8.84,8.84,0,0,1-.39,1.6,12.16,12.16,0,0,1-.64,1.66l4-.38-3-2.88" style="fill: #ffcc1b"/>
  <path d="M13.9,27.79l1.66,4.09,1.73-4a10,10,0,0,1-3.39-.13" style="fill: #ffcc1b"/>
  <path d="M23.29,9.72l1-4.28L20.42,7.68a10.26,10.26,0,0,1,2.87,2" style="fill: #ffcc1b"/>
  <path d="M5.67,18.47,2.16,21.6l4.53.51a12.54,12.54,0,0,1-1-3.64" style="fill: #ffcc1b"/>
  <path d="M11.48,7.74l-4-2.42,1,4.72a8.06,8.06,0,0,1,3-2.3" style="fill: #ffcc1b"/>
  <path d="M19.2,7.17c.07,0,.13.06.19.06L16,.08,12.56,7.23a9.89,9.89,0,0,1,6.64-.06" style="fill: #ffcc1b"/>
  <path d="M6.12,14.06a10.9,10.9,0,0,1,1.59-3.12L.05,12,5.6,17.64a10.89,10.89,0,0,1,.52-3.58" style="fill: #ffcc1b"/>
  <path d="M31.91,12l-7.66-1.21a10.86,10.86,0,0,1,2.1,6.7L31.91,12" style="fill: #ffcc1b"/>
  <path d="M12.76,27.54a10,10,0,0,1-5.3-4.09L6.12,31.3,13,27.6a.25.25,0,0,0-.19-.06" style="fill: #ffcc1b"/>
  <path d="M19,27.6l6.83,3.77L24.5,23.51A10.77,10.77,0,0,1,19,27.6" style="fill: #ffcc1b"/>
  <path d="M21.76,10.55a9.06,9.06,0,0,1,1.91,5.62,8.77,8.77,0,0,1-8.62,8.88,8.25,8.25,0,0,1-5.42-2,8.56,8.56,0,0,0,6.64,3.32,8.77,8.77,0,0,0,8.62-8.88,8.76,8.76,0,0,0-3.13-7" style="fill: #cba014"/>
  <path d="M5.54,17.19c0-.44.06-.89.06-1.4L.05,11.89l5.49,5.56v-.26" style="fill: #cba014"/>
  <path d="M24.18,10.87A6.49,6.49,0,0,1,25,12.21l6.9-.19-7.73-1.15" style="fill: #cba014"/>
  <path d="M19.39,7.23,16,.08l1.53,6.64a9.16,9.16,0,0,1,1.85.51" style="fill: #cba014"/>
  <path d="M11.48,27l-5.3,4.28L13,27.54A7.36,7.36,0,0,1,11.48,27" style="fill: #cba014"/>
  <path d="M19,27.6l6.9,3.77L20.61,27c-.51.2-1.09.39-1.6.58" style="fill: #cba014"/>
</svg>
