<svg id="a5fc04cc-d3cc-4664-9c6b-932f8334f185" data-name="Calque 1" xmlns="http://www.w3.org/2000/svg" width="32" height="32" viewBox="0 0 32 32">
  <title>sign-59-IconeToxiqueSGH06</title>
  <rect x="5.83" y="5.83" width="20.35" height="20.35" transform="translate(-6.63 16) rotate(-45)" style="fill: #fff"/>
  <path d="M16,32a.7.7,0,0,1-.47-.19L.2,16.47A.63.63,0,0,1,0,16a.65.65,0,0,1,.2-.47L15.53.2a.66.66,0,0,1,.94,0L31.81,15.53a.68.68,0,0,1,0,.94L16.47,31.81A.67.67,0,0,1,16,32ZM1.61,16,16,30.39,30.39,16,16,1.61Z" style="fill: #d10000"/>
  <g>
    <path d="M14.07,18.11A1.62,1.62,0,0,0,13,16.76c-.94-.27-1.72-.48-1.29-2.44s-.16-1.48-.19-2.8a1.84,1.84,0,0,1,.19-1" style="fill: none;stroke: #000;stroke-linejoin: round;stroke-width: 0.516173110145287px"/>
    <path d="M17.87,18.11a1.62,1.62,0,0,1,1.05-1.35c.94-.27,1.72-.48,1.29-2.44s.16-1.48.19-2.8a1.84,1.84,0,0,0-.19-1" style="fill: none;stroke: #000;stroke-linejoin: round;stroke-width: 0.516173110145287px"/>
    <path d="M14.2,15.23l.89-1.13a1.19,1.19,0,0,0,0-.81c-.16-.43-.92-.37-.92-.37L13,13.11s-.32,0-.51.53a.81.81,0,0,0,.11.84l.48.8a.9.9,0,0,0,1.13,0"/>
    <path d="M17.63,15.23l-.89-1.13a1.19,1.19,0,0,1,0-.81c.16-.43.91-.37.91-.37l1.19.19s.32,0,.51.53a.81.81,0,0,1-.11.84l-.48.8a.9.9,0,0,1-1.13,0"/>
    <path d="M15.79,15v1.88s-.3.51-.57.51-.29-.45-.29-.8A2.31,2.31,0,0,1,15.79,15"/>
    <path d="M16.08,15v1.88s.3.51.57.51.29-.45.29-.8A2.31,2.31,0,0,0,16.08,15"/>
    <path d="M20.14,14.07a3.69,3.69,0,0,0,1.18-2.74c0-1.78-1.17-4.3-5.51-4.3s-5.27,2.74-5.27,4.17a4.81,4.81,0,0,0,1.21,3" style="fill: none;stroke: #000;stroke-linejoin: round;stroke-width: 0.516173110145287px"/>
    <path d="M14,19.48l0-1.4a4.23,4.23,0,0,0,1.91.24,3.86,3.86,0,0,0,1.91-.27v1.37" style="fill: none;stroke: #000;stroke-linejoin: round;stroke-width: 0.193564658742566px"/>
    <line x1="15.95" y1="18.32" x2="15.95" y2="19.99" style="fill: none;stroke: #000;stroke-linejoin: round;stroke-width: 0.193564658742566px"/>
    <line x1="15.41" y1="18.32" x2="15.41" y2="19.96" style="fill: none;stroke: #000;stroke-linejoin: round;stroke-width: 0.193564658742566px"/>
    <line x1="14.98" y1="18.27" x2="14.98" y2="19.91" style="fill: none;stroke: #000;stroke-linejoin: round;stroke-width: 0.193564658742566px"/>
    <line x1="14.5" y1="18.24" x2="14.5" y2="19.75" style="fill: none;stroke: #000;stroke-linejoin: round;stroke-width: 0.193564658742566px"/>
    <line x1="16.4" y1="18.35" x2="16.4" y2="19.94" style="fill: none;stroke: #000;stroke-linejoin: round;stroke-width: 0.193564658742566px"/>
    <line x1="16.84" y1="18.32" x2="16.86" y2="19.85" style="fill: none;stroke: #000;stroke-linejoin: round;stroke-width: 0.193564658742566px"/>
    <line x1="17.32" y1="18.21" x2="17.32" y2="19.72" style="fill: none;stroke: #000;stroke-linejoin: round;stroke-width: 0.193564658742566px"/>
    <path d="M13,16.87a11.07,11.07,0,0,1,.49,1.32,9.71,9.71,0,0,1,.13,1S14,20,15.81,20s2.37-.81,2.37-.81a4.06,4.06,0,0,1,.16-1.08l.4-1.18" style="fill: none;stroke: #000;stroke-linejoin: round;stroke-width: 0.193564658742566px"/>
    <path d="M12.51,16.63a11.76,11.76,0,0,1,.45,1.5,4.26,4.26,0,0,0,.22,2c.43.89,1,1.45,2.77,1.45A2.72,2.72,0,0,0,18.77,20c.3-.7,0-1.69.19-2.26l.38-1.12" style="fill: none;stroke: #000;stroke-linejoin: round;stroke-width: 0.516173110145287px"/>
    <path d="M13,19.37l-2.23,1a2,2,0,0,1-.91,0c-.54-.11-.83-.11-1,.16a.49.49,0,0,0,.11.7,5.89,5.89,0,0,0,.62.51,3.9,3.9,0,0,0,.08.81c.08.26.3.48.62.26a5.11,5.11,0,0,0,.86-1.12l2.26-1.08" style="fill: none;stroke: #000;stroke-linejoin: round;stroke-width: 0.32260826959431px"/>
    <path d="M18.89,19.37l2.24,1a2,2,0,0,0,.91,0c.54-.11.83-.11,1,.16a.48.48,0,0,1-.1.7,7.26,7.26,0,0,1-.62.51,3.9,3.9,0,0,1-.08.81c-.08.26-.3.48-.62.26a5.11,5.11,0,0,1-.86-1.12l-2.26-1.08" style="fill: none;stroke: #000;stroke-linejoin: round;stroke-width: 0.32260826959431px"/>
    <path d="M12.94,18.7,9.44,17a4.18,4.18,0,0,1-1,.14c-.45,0-.7,0-.64-.43s.75-1,.75-1-.16-1.1.38-1.19S10,15.74,10,15.74l2.63,1.35" style="fill: none;stroke: #000;stroke-linejoin: round;stroke-width: 0.32260826959431px"/>
    <path d="M18.92,18.7,22.42,17a4.15,4.15,0,0,0,1,.14c.46,0,.7,0,.65-.43s-.75-1-.75-1,.16-1.1-.38-1.19-1.1,1.16-1.1,1.16l-2.64,1.35" style="fill: none;stroke: #000;stroke-linejoin: round;stroke-width: 0.32260826959431px"/>
    <path d="M14,18.78a5.29,5.29,0,0,0,2,.48,4.33,4.33,0,0,0,1.89-.48" style="fill: none;stroke: #000;stroke-linejoin: round;stroke-width: 0.193564658742566px"/>
  </g>
</svg>
