<svg id="f2f0f95b-75ba-4ccc-97ed-5e8237e38f08" data-name="Calque 1" xmlns="http://www.w3.org/2000/svg" width="32" height="32" viewBox="0 0 32 32">
  <title>equipment-94-350509A5</title>
  <g>
    <g>
      <rect x="9.89" y="16.02" width="4.9" height="5.91" style="fill: #69b0b3"/>
      <path d="M11.74,6.17h-6A1.27,1.27,0,0,0,4.52,7.43V26.1a1.26,1.26,0,0,0,1.26,1.26H19.24A1.26,1.26,0,0,0,20.5,26.1V14.93ZM7.39,7.52h2.78c.51,0,1,.52,1.28.91s.69.94.18.94H7.39a.93.93,0,0,1,0-1.85ZM17.3,23.85a.66.66,0,0,1,.15.48.6.6,0,0,1-.23.45.67.67,0,0,1-.93-.08l-1.21-1.44H9.61L8.39,24.7a.67.67,0,0,1-.93.08.64.64,0,0,1-.23-.45.66.66,0,0,1,.15-.48l1.19-1.41V15.52L7.38,14.11a.66.66,0,0,1-.15-.48.64.64,0,0,1,.23-.45A.63.63,0,0,1,7.94,13a.62.62,0,0,1,.45.23l1.22,1.45h5.47l1.21-1.45a.62.62,0,0,1,.45-.23.63.63,0,0,1,.48.15.6.6,0,0,1,.23.45.66.66,0,0,1-.15.48l-1.19,1.41v6.92Z" style="fill: #69b0b3"/>
    </g>
    <path d="M28.06,4.32s-3,1.43-4.45,2a10.58,10.58,0,0,0-2.48,1.47l-2.65,2.65c-.59-.46-1.1-.69-1.26-.53s.07.67.53,1.26l1.5,1.5s1.08.67,1.24.51-.07-.68-.55-1.29a40.9,40.9,0,0,1,3.42-3.64c.58-.33,5.12-3.11,5.12-3.11Z" style="fill: #69b0b3"/>
    <path d="M28.06,8.69S26.3,10.8,26.3,12.14s.76,2,1.76,2a1.66,1.66,0,0,0,1.81-1.81C29.87,11.09,28.06,8.69,28.06,8.69Zm.72,4.71a.55.55,0,1,1,.55-.54A.55.55,0,0,1,28.78,13.4Z" style="fill: #67b1b6"/>
  </g>
</svg>
