<svg id="ad1ad2ef-3440-4db3-8fa7-eec4606a4151" data-name="Calque 1" xmlns="http://www.w3.org/2000/svg" width="32" height="32" viewBox="0 0 32 32">
  <title>box-71-IconePrixStockAppro</title>
  <g>
    <rect x="7" y="17.04" width="9.83" height="5.96" style="fill: #b2957c"/>
    <rect x="7" y="10.04" width="9.83" height="5.96" style="fill: #b2957c"/>
    <path d="M27.83,15.1V10H18v6h2.6A14.29,14.29,0,0,1,26,15C26.62,15,27.23,15,27.83,15.1Z" style="fill: #b2957c"/>
  </g>
  <g>
    <path d="M20.31,26.08a.84.84,0,0,0-.29.51c0,.82,2.33,2,6,2s6-1.19,6-2a.84.84,0,0,0-.29-.51,12.42,12.42,0,0,1-5.7,1.2A12.42,12.42,0,0,1,20.31,26.08Z" style="fill: #f9b400"/>
    <path d="M31.71,23.55a6.87,6.87,0,0,1-1.16.51c-.35.12-.71.22-1.09.31a15.7,15.7,0,0,1-1.9.31c-.51.05-1,.07-1.55.07s-1,0-1.55-.07a15.7,15.7,0,0,1-1.9-.31,10.56,10.56,0,0,1-1.08-.31,7,7,0,0,1-1.17-.51.84.84,0,0,0-.29.51.87.87,0,0,0,.29.52,2.43,2.43,0,0,0,.53.4,4.85,4.85,0,0,0,.72.35,12.16,12.16,0,0,0,4.45.74,12.26,12.26,0,0,0,4.46-.74,6.06,6.06,0,0,0,.72-.35,2.61,2.61,0,0,0,.52-.4.87.87,0,0,0,.29-.52A.84.84,0,0,0,31.71,23.55Z" style="fill: #f9b400"/>
    <path d="M31.71,21a7.78,7.78,0,0,1-1.16.51c-.35.12-.71.22-1.09.31a15.7,15.7,0,0,1-1.9.31c-.51,0-1,.07-1.55.07s-1,0-1.55-.07a15.7,15.7,0,0,1-1.9-.31,10.56,10.56,0,0,1-1.08-.31A7.92,7.92,0,0,1,20.31,21a.84.84,0,0,0-.29.51.87.87,0,0,0,.29.52,2.43,2.43,0,0,0,.53.4,5.22,5.22,0,0,0,.71.35,11.26,11.26,0,0,0,2.91.65,15.14,15.14,0,0,0,1.55.08,15,15,0,0,0,1.55-.08,11.26,11.26,0,0,0,2.91-.65,6.06,6.06,0,0,0,.72-.35,2.61,2.61,0,0,0,.52-.4.87.87,0,0,0,.29-.52A.84.84,0,0,0,31.71,21Z" style="fill: #f9b400"/>
    <path d="M26,17c-3.66,0-6,1.19-6,2a.87.87,0,0,0,.29.52,2.8,2.8,0,0,0,.53.4,5.22,5.22,0,0,0,.71.35,11.26,11.26,0,0,0,2.91.65A15.14,15.14,0,0,0,26,21a15,15,0,0,0,1.55-.08,11.26,11.26,0,0,0,2.91-.65,6.06,6.06,0,0,0,.72-.35,3,3,0,0,0,.52-.4A.87.87,0,0,0,32,19C32,18.19,29.67,17,26,17Z" style="fill: #f9b400"/>
  </g>
  <rect x="1" y="25" width="3.91" height="2" transform="translate(5.91 52) rotate(-180)" style="fill: #8f8f8f"/>
  <rect x="1" y="5" width="3.91" height="2" transform="translate(5.91 12) rotate(-180)" style="fill: #8f8f8f"/>
  <rect x="3" y="21" width="1.91" height="2" transform="translate(7.91 44) rotate(-180)" style="fill: #8f8f8f"/>
  <rect x="3" y="17" width="1.91" height="2" transform="translate(7.91 36) rotate(-180)" style="fill: #8f8f8f"/>
  <rect x="3" y="13" width="1.91" height="2" transform="translate(7.91 28) rotate(-180)" style="fill: #8f8f8f"/>
  <rect x="3" y="9" width="1.91" height="2" transform="translate(7.91 20) rotate(-180)" style="fill: #8f8f8f"/>
</svg>
