<svg id="b1671274-8a7e-4e9f-99ee-c8e90beff988" data-name="Calque 1" xmlns="http://www.w3.org/2000/svg" width="32" height="32" viewBox="0 0 32 32">
  <title>screen-78-IconeImage</title>
  <g>
    <rect x="5" y="10" width="22" height="12" style="fill: #fff"/>
    <path d="M26,11V21H6V11H26m2-2H4V23H28V9Z" style="fill: #007bbd"/>
  </g>
  <rect y="5" width="6" height="2" style="fill: #007bbd"/>
  <rect x="-2" y="7" width="6" height="2" transform="translate(-7 9) rotate(-90)" style="fill: #007bbd"/>
  <rect x="28" y="7" width="6" height="2" transform="translate(23 39) rotate(-90)" style="fill: #007bbd"/>
  <rect x="-2" y="23" width="6" height="2" transform="translate(-23 25) rotate(-90)" style="fill: #007bbd"/>
  <rect x="28" y="23" width="6" height="2" transform="translate(7 55) rotate(-90)" style="fill: #007bbd"/>
  <rect x="26" y="5" width="6" height="2" style="fill: #007bbd"/>
  <rect y="25" width="6" height="2" style="fill: #007bbd"/>
  <rect x="26" y="25" width="6" height="2" style="fill: #007bbd"/>
</svg>
